<?xml version="1.0" encoding="UTF-8" ?>
<!DOCTYPE svg PUBLIC "-//W3C//DTD SVG 1.1//EN" "http://www.w3.org/Graphics/SVG/1.1/DTD/svg11.dtd">
<svg width="162pt" height="275pt" viewBox="0 0 162 275" version="1.1" xmlns="http://www.w3.org/2000/svg"><g id="#4e4e4eff">
<path fill="#333333" opacity="1.00" d=" M 48.61 5.97 C 49.18 5.99 50.30 6.01 50.87 6.03 C 51.27 39.68 51.13 73.35 51.03 107.01 C 51.60 112.43 50.15 117.87 50.92 123.25 C 51.63 123.48 53.06 123.93 53.77 124.16 C 53.68 119.11 53.19 114.07 53.23 109.02 C 53.55 74.75 53.01 40.46 53.56 6.19 C 53.80 6.16 54.28 6.11 54.52 6.08 C 54.74 34.06 54.83 62.04 54.68 90.02 C 54.62 101.30 54.91 112.60 54.41 123.88 C 55.27 123.61 56.99 123.07 57.85 122.80 C 57.94 83.89 57.93 44.97 57.98 6.06 C 58.47 6.05 59.46 6.01 59.96 6.00 C 59.85 41.99 59.95 77.98 59.85 113.97 C 59.60 120.36 60.95 126.68 60.52 133.08 C 60.09 143.71 61.41 154.41 59.79 164.96 C 59.77 186.84 59.91 208.75 59.49 230.62 L 57.63 231.32 C 57.50 208.54 57.84 185.77 57.76 162.99 C 57.10 163.05 55.77 163.15 55.10 163.21 C 54.58 184.14 54.73 205.09 54.75 226.03 C 54.64 228.29 55.25 230.93 53.37 232.67 C 52.65 218.47 53.30 204.22 53.11 190.01 C 53.11 181.25 53.87 172.50 53.53 163.72 C 52.79 163.49 51.33 163.03 50.59 162.80 C 50.55 185.58 50.78 208.36 50.50 231.13 C 47.77 226.91 48.75 221.81 48.62 217.07 C 48.63 200.39 48.59 183.70 48.64 167.02 C 48.70 163.93 48.16 160.89 47.87 157.83 C 45.24 159.65 42.38 161.70 39.01 161.47 C 34.90 161.10 30.12 161.14 27.14 157.81 C 22.19 152.38 21.65 144.46 22.53 137.50 C 18.43 136.44 14.26 135.71 10.14 134.77 C 9.68 133.60 9.47 132.36 9.21 131.14 C 9.75 130.29 10.27 129.45 10.80 128.60 C 15.02 129.94 19.47 130.54 23.56 132.30 C 26.34 125.83 30.41 118.53 37.85 116.86 C 41.58 115.62 45.16 117.71 48.65 118.74 C 48.58 81.15 48.66 43.56 48.61 5.97 M 29.38 125.56 C 24.68 132.31 23.16 141.01 25.02 148.99 C 26.28 153.63 29.36 158.74 34.75 158.98 C 34.44 158.33 33.82 157.04 33.51 156.40 L 32.75 156.98 C 26.82 148.59 28.19 137.15 32.61 128.42 C 34.91 124.49 37.97 119.79 42.96 119.42 C 40.62 122.52 37.20 124.67 35.17 128.03 C 31.40 134.26 30.56 141.89 31.58 148.99 C 32.62 152.46 34.62 155.55 35.85 158.96 C 38.15 159.03 40.56 159.42 42.77 158.63 C 44.67 157.66 46.28 156.23 47.95 154.92 C 48.02 151.17 48.03 147.43 48.00 143.69 C 45.94 142.96 43.27 143.03 41.95 141.02 C 40.89 139.81 42.59 138.47 42.84 137.33 C 43.35 138.50 43.87 139.67 44.35 140.86 C 45.69 141.11 47.03 141.35 48.37 141.57 C 48.15 138.57 44.61 138.71 42.97 136.82 C 44.24 136.86 46.78 136.94 48.05 136.98 C 48.03 131.57 47.77 126.14 48.55 120.77 C 46.92 118.62 43.34 119.17 40.91 118.06 C 36.32 119.15 32.02 121.55 29.38 125.56 M 49.89 155.03 C 49.98 157.64 49.34 161.23 52.81 161.76 C 53.88 150.21 53.39 138.60 53.40 127.03 C 53.47 125.21 51.04 125.59 49.88 125.04 C 49.76 135.04 49.99 145.03 49.89 155.03 M 54.84 125.61 C 54.66 130.73 54.82 135.85 55.04 140.96 C 55.33 147.86 54.53 154.75 54.74 161.65 C 55.91 161.23 57.06 160.76 58.19 160.25 C 58.54 148.53 58.17 136.77 58.40 125.03 C 57.21 125.22 56.02 125.41 54.84 125.61 M 10.61 131.52 C 13.86 135.09 19.26 134.40 23.53 135.80 C 23.39 135.25 23.11 134.15 22.97 133.59 C 18.90 132.76 14.84 130.83 10.61 131.52 Z" />
<path fill="#333333" opacity="1.00" d=" M 109.76 11.04 C 110.32 11.19 111.43 11.47 111.99 11.61 C 112.94 43.40 112.07 75.21 112.43 107.01 C 111.99 116.67 111.92 126.34 112.18 136.00 C 112.88 136.18 114.29 136.55 115.00 136.74 C 114.89 130.45 115.12 124.18 115.68 117.93 C 115.27 109.62 114.81 101.30 115.15 92.98 C 115.34 66.43 114.77 39.85 115.71 13.32 C 115.92 13.30 116.33 13.24 116.54 13.22 C 116.66 38.13 116.90 63.04 116.69 87.95 C 116.84 104.18 116.29 120.40 116.87 136.61 C 117.97 136.21 119.07 135.81 120.17 135.41 C 120.29 132.91 120.40 130.42 120.48 127.92 C 120.76 89.37 120.43 50.81 120.92 12.26 C 123.29 12.74 122.42 15.37 122.70 17.02 C 122.67 53.01 122.64 89.00 122.62 124.99 C 122.61 129.04 122.19 133.17 123.26 137.14 C 123.95 139.55 122.64 141.87 120.99 143.55 C 120.95 141.46 121.17 139.39 121.64 137.37 C 120.09 137.82 118.16 137.80 116.98 138.96 C 116.46 145.03 116.82 151.12 116.78 157.20 C 116.80 158.01 116.47 158.68 115.81 159.21 C 115.34 152.41 115.32 145.59 115.26 138.78 C 113.93 138.53 112.60 138.29 111.27 138.06 C 111.20 151.65 111.29 165.24 111.28 178.84 C 112.44 179.25 113.59 179.65 114.75 180.05 C 114.97 175.85 114.95 171.62 115.84 167.49 C 116.94 171.49 116.73 175.65 116.67 179.75 C 117.48 179.74 119.08 179.74 119.88 179.73 C 119.12 181.80 116.10 182.42 116.75 185.03 C 116.72 207.02 116.67 229.01 116.73 251.00 C 117.14 257.99 116.99 265.00 117.03 272.01 C 116.55 272.00 115.59 271.99 115.11 271.98 C 114.88 247.68 114.79 223.37 115.01 199.06 C 114.86 193.59 114.84 188.12 115.32 182.67 C 114.28 182.15 113.25 181.63 112.22 181.12 C 111.75 211.50 112.49 241.91 111.80 272.28 C 111.34 272.08 110.42 271.68 109.95 271.48 C 109.42 264.02 109.81 256.50 109.80 249.02 C 106.13 250.37 102.31 251.28 98.67 252.69 C 95.34 254.38 91.90 256.38 88.01 256.06 C 83.64 255.73 78.96 254.81 75.64 251.71 C 76.02 250.14 76.51 248.60 77.12 247.11 C 77.43 248.33 77.86 249.64 77.11 250.80 C 80.40 252.74 84.20 253.62 87.98 253.95 C 91.31 253.51 94.56 252.43 97.50 250.80 C 101.23 248.62 106.11 249.41 109.40 246.33 C 110.30 242.10 109.70 237.59 108.30 233.51 C 106.84 228.81 107.49 223.84 107.43 219.00 C 107.80 211.03 108.10 202.94 106.28 195.11 C 105.24 191.15 103.53 187.15 104.16 182.99 C 104.71 178.85 103.74 174.47 105.75 170.61 C 107.35 167.31 107.63 163.62 107.42 160.01 C 107.86 159.77 108.76 159.30 109.21 159.06 C 105.91 156.73 100.95 157.76 97.31 155.67 C 96.00 154.81 93.58 154.05 94.10 152.03 C 95.36 149.62 97.78 148.15 99.67 146.29 C 98.78 143.68 97.14 140.85 98.52 138.09 C 100.37 132.11 104.88 127.29 105.98 121.04 C 106.59 117.43 107.84 113.74 106.93 110.07 C 109.11 107.10 110.17 103.62 109.81 99.93 C 109.32 100.59 108.36 101.92 107.88 102.59 C 107.70 99.56 107.59 96.52 107.97 93.51 C 108.73 92.46 109.94 91.52 109.71 90.07 C 109.81 83.19 109.63 76.32 109.77 69.45 C 107.61 68.15 104.86 67.37 103.58 65.01 C 105.92 65.43 108.05 66.47 110.10 67.63 C 107.56 63.95 105.76 59.79 102.82 56.38 C 99.58 52.87 97.36 48.08 97.68 43.23 C 97.90 39.63 97.11 35.94 95.39 32.77 C 93.53 30.45 90.66 29.27 88.03 28.06 C 83.87 29.73 79.02 31.45 76.24 35.07 C 75.29 42.06 76.99 49.27 79.10 55.95 C 80.72 56.06 82.34 56.19 83.97 56.32 C 83.97 55.82 83.98 54.82 83.98 54.32 C 85.90 52.81 88.06 51.46 89.26 49.25 C 89.94 48.37 90.35 46.90 91.77 47.22 C 92.04 50.69 89.71 54.30 86.11 54.85 C 86.01 55.73 85.93 56.61 85.88 57.49 C 87.75 59.33 87.68 61.81 86.77 64.14 C 87.16 64.48 87.55 64.82 87.94 65.15 C 90.05 64.35 92.22 63.72 94.39 63.14 C 94.27 66.23 90.44 65.64 88.30 66.23 C 87.30 66.91 86.30 67.58 85.29 68.25 C 85.72 66.87 86.15 65.49 86.59 64.11 C 85.15 65.45 82.79 66.10 82.14 68.16 C 80.49 72.21 77.60 75.56 75.12 79.11 C 74.93 82.55 76.51 85.71 78.68 88.29 C 79.52 91.24 77.58 94.11 77.68 97.08 C 78.59 99.75 80.39 102.14 80.38 105.08 C 83.50 108.72 83.66 113.47 84.03 118.01 C 86.24 118.30 88.49 118.43 90.65 117.78 C 92.94 113.02 93.46 107.70 95.47 102.84 C 94.53 97.20 95.81 91.59 95.69 85.94 C 92.93 87.55 90.29 89.76 87.00 90.09 C 85.23 90.30 83.80 89.03 82.24 88.42 C 82.43 88.13 82.80 87.55 82.99 87.26 C 85.24 87.44 87.59 88.04 89.80 87.39 C 92.90 85.81 96.51 84.05 96.88 80.13 C 94.12 76.37 93.17 71.61 94.22 67.07 C 94.67 65.55 96.17 65.03 97.54 64.66 C 95.54 67.60 95.40 71.45 96.23 74.81 C 97.73 78.26 101.62 80.21 102.28 84.14 C 100.88 83.14 99.52 82.07 98.17 81.01 C 97.48 85.63 97.88 90.34 97.11 94.96 C 97.07 97.98 96.21 101.93 98.90 104.06 C 100.17 102.59 101.19 100.86 102.92 99.87 C 102.13 102.85 100.31 105.39 98.30 107.67 C 97.81 107.40 96.82 106.84 96.33 106.57 C 94.89 109.30 93.90 112.23 94.15 115.36 C 91.85 118.93 92.67 123.17 92.80 127.13 C 91.46 131.77 90.24 136.45 88.55 140.98 C 87.14 144.56 83.81 147.17 82.92 150.96 C 84.76 154.67 88.88 156.32 92.57 157.62 C 94.07 158.33 95.60 157.40 97.06 157.07 C 96.61 157.82 95.70 159.33 95.25 160.09 C 99.03 159.60 102.82 158.80 106.65 159.14 C 102.01 161.30 96.06 161.78 91.43 159.27 C 90.15 158.72 88.84 158.23 87.52 157.78 C 87.14 162.74 90.69 167.04 89.94 171.98 C 89.25 177.09 89.23 182.88 92.87 186.94 C 92.20 191.09 94.26 194.95 94.25 199.05 C 93.85 203.29 94.11 207.55 94.39 211.79 C 95.64 216.78 96.79 221.85 97.07 227.01 C 97.49 231.09 94.45 234.25 91.91 237.02 C 89.62 239.36 88.06 242.37 85.45 244.40 C 83.21 245.94 80.67 246.99 78.42 248.52 C 77.66 246.20 80.35 245.03 81.88 243.95 C 85.40 241.79 87.12 237.86 90.06 235.10 C 91.86 233.19 94.13 231.47 94.69 228.75 C 95.58 224.42 94.41 220.02 93.29 215.85 C 91.62 210.03 91.99 203.91 92.21 197.95 C 91.31 194.57 90.51 191.14 90.81 187.62 C 88.26 184.22 87.28 179.81 87.47 175.63 C 86.90 175.75 85.75 175.99 85.18 176.11 C 83.54 174.91 81.67 173.78 80.75 171.88 C 80.57 170.49 81.36 169.73 82.60 169.50 C 83.25 171.39 84.49 172.94 85.81 174.41 C 86.53 173.93 87.24 173.45 87.97 172.98 C 87.53 167.80 86.49 162.66 86.90 157.43 C 86.34 157.13 85.24 156.53 84.68 156.23 C 82.31 156.46 79.92 156.61 77.53 156.73 C 77.56 161.14 77.91 165.56 79.18 169.80 C 79.06 173.02 78.42 176.36 79.77 179.42 C 81.04 182.28 79.93 185.73 81.80 188.36 C 85.05 193.20 82.36 199.22 83.23 204.57 C 83.92 208.34 83.97 212.22 85.06 215.90 C 86.02 219.14 84.86 222.66 83.17 225.44 C 80.45 228.34 78.51 232.01 75.11 234.22 C 72.24 236.21 69.10 237.77 66.30 239.86 C 67.49 241.78 68.55 243.79 69.36 245.91 C 71.21 245.99 73.29 246.38 74.81 245.03 C 76.15 244.28 77.89 241.99 79.12 244.79 C 76.66 247.08 73.39 248.17 70.14 248.70 C 66.30 247.94 65.16 244.19 64.60 240.85 C 66.28 238.51 68.02 236.12 70.52 234.60 C 75.51 231.60 79.01 226.86 82.68 222.47 C 84.30 214.94 81.12 207.53 81.64 200.00 C 81.75 195.48 81.23 190.89 79.13 186.83 C 78.09 181.60 75.36 176.48 76.65 171.05 C 76.79 166.01 73.71 160.96 75.89 155.99 C 73.77 153.04 69.81 153.39 66.73 152.27 C 64.84 151.60 63.88 149.74 62.79 148.21 C 62.28 147.96 61.25 147.47 60.74 147.22 C 61.46 144.92 62.18 142.48 60.66 140.30 C 61.66 140.68 62.66 141.06 63.66 141.45 C 64.72 139.95 65.74 138.37 67.21 137.23 C 68.52 136.05 70.60 135.21 70.26 133.09 C 71.59 126.06 70.78 118.95 71.05 111.87 C 72.51 108.20 73.91 104.32 76.59 101.34 C 75.23 98.71 74.00 95.50 75.86 92.77 C 78.46 88.91 73.35 85.83 73.94 81.95 C 74.17 76.77 78.30 73.06 79.33 68.12 C 81.06 65.03 84.48 63.16 85.81 59.71 C 83.93 57.96 81.66 56.37 79.01 57.54 C 78.14 56.95 77.22 56.39 76.45 55.66 C 74.78 50.15 74.84 44.27 73.27 38.72 C 74.01 36.21 74.38 33.25 76.77 31.70 C 80.54 28.99 85.31 27.93 89.90 27.88 C 94.43 28.58 97.66 32.49 99.34 36.52 C 100.58 39.84 99.80 43.41 99.37 46.80 C 100.06 48.84 100.85 50.85 101.72 52.83 C 105.74 54.69 106.99 59.20 109.75 62.32 C 109.72 45.23 109.69 28.14 109.76 11.04 M 73.55 111.90 C 72.62 117.75 74.17 123.74 72.79 129.55 C 72.24 131.97 72.04 134.45 71.93 136.92 C 68.95 139.66 65.96 142.39 62.83 144.94 C 64.34 147.12 65.69 149.93 68.45 150.70 C 71.20 151.34 74.23 152.84 76.72 150.72 C 74.67 149.97 73.11 148.45 71.51 147.06 C 72.95 144.20 75.82 142.49 79.02 143.84 C 78.65 143.11 77.93 141.65 77.57 140.92 C 78.83 135.83 77.26 130.28 79.62 125.47 C 81.23 121.01 82.29 116.37 81.28 111.62 C 78.75 108.93 77.60 105.39 77.64 101.73 C 76.43 105.18 74.82 108.48 73.55 111.90 M 108.42 118.65 C 107.79 122.96 106.57 127.25 104.26 130.98 C 102.53 133.77 100.68 136.60 100.04 139.88 C 100.03 142.30 101.03 144.59 101.32 146.98 C 100.79 147.56 99.72 148.74 99.18 149.32 C 102.30 150.33 105.48 151.16 108.79 151.11 C 108.98 145.42 108.23 139.65 109.59 134.06 C 109.67 128.93 110.50 123.50 108.42 118.65 M 79.76 133.14 C 79.57 135.34 79.69 137.54 79.59 139.74 C 80.04 141.98 82.82 144.21 81.27 146.51 C 79.86 145.94 78.45 145.40 77.02 144.88 C 76.14 145.67 75.26 146.46 74.39 147.26 C 74.86 147.63 75.81 148.38 76.28 148.75 C 77.92 148.98 79.56 149.26 81.18 149.57 C 82.07 147.74 82.96 145.81 84.53 144.45 C 83.76 144.02 83.01 143.58 82.26 143.13 C 86.31 142.82 87.54 138.84 88.61 135.63 C 90.77 130.56 90.05 124.99 90.80 119.69 C 88.51 120.14 86.19 120.13 83.87 120.07 C 82.78 124.54 79.79 128.43 79.76 133.14 M 77.67 150.92 C 76.93 151.99 76.12 153.00 75.24 153.96 C 78.15 154.74 81.13 155.27 84.15 155.46 C 82.92 152.82 80.69 150.88 77.67 150.92 M 97.14 150.48 C 96.97 151.24 96.64 152.77 96.47 153.54 C 100.52 154.62 104.77 154.90 108.67 156.52 C 108.73 155.46 108.79 154.41 108.85 153.35 C 104.93 152.46 101.03 151.48 97.14 150.48 M 106.56 187.90 C 107.08 193.13 109.18 198.03 109.65 203.27 C 109.79 196.85 109.70 190.43 109.75 184.00 C 109.81 182.30 109.49 180.62 108.90 179.03 C 108.69 175.08 108.84 171.12 108.86 167.17 C 105.71 173.62 105.68 180.93 106.56 187.90 Z" />
<path fill="#333333" opacity="1.00" d=" M 81.09 93.87 C 82.37 93.24 83.84 93.04 84.94 94.20 C 86.79 96.10 88.77 98.37 88.94 101.15 C 85.52 99.53 84.88 95.00 81.09 93.87 Z" />
<path fill="#333333" opacity="1.00" d=" M 88.33 102.43 C 88.61 102.33 89.16 102.13 89.44 102.03 C 90.05 103.87 90.68 105.70 91.16 107.58 C 89.52 106.31 89.03 104.27 88.33 102.43 Z" />
<path fill="#333333" opacity="1.00" d=" M 123.42 142.57 C 126.36 137.93 131.16 133.79 136.95 134.00 C 141.02 134.66 145.64 135.12 148.53 138.43 C 153.89 144.66 154.82 153.32 154.95 161.22 C 157.32 161.43 159.69 161.76 162.00 162.36 L 162.00 164.61 C 157.58 163.38 153.04 162.65 148.62 161.42 C 145.95 160.79 143.22 159.76 140.45 160.35 C 140.36 160.72 140.16 161.46 140.07 161.83 C 147.16 164.39 154.79 165.01 162.00 167.23 L 162.00 169.41 C 158.92 168.60 155.79 167.97 152.72 167.11 C 152.86 171.78 150.29 175.90 147.77 179.62 C 144.90 183.62 140.37 187.17 135.17 186.56 C 131.56 186.02 127.34 186.33 124.55 183.56 C 119.02 178.43 117.12 170.29 117.53 162.98 C 118.69 156.01 119.09 148.48 123.42 142.57 M 126.73 141.66 C 119.33 150.80 117.84 163.96 121.44 174.96 C 122.84 179.59 126.54 183.19 131.26 184.34 C 131.12 183.57 130.98 182.79 130.83 182.02 C 127.59 180.79 126.90 177.07 126.02 174.13 C 123.07 163.01 125.37 150.57 132.32 141.38 C 133.81 139.56 135.63 137.17 138.31 137.63 L 138.24 138.87 C 132.63 142.92 129.23 149.29 127.90 155.99 C 126.38 164.48 126.27 174.16 131.93 181.27 C 131.84 181.90 131.67 183.15 131.59 183.78 C 134.77 184.06 138.24 184.72 141.13 182.94 C 147.08 179.69 149.15 172.81 152.04 167.16 C 147.78 165.75 143.21 165.48 139.04 163.83 C 137.60 161.72 138.77 158.76 140.81 157.52 C 145.05 158.02 149.15 159.37 153.26 160.48 C 152.30 153.39 152.46 145.37 147.23 139.80 C 144.53 136.39 139.83 136.71 136.00 135.77 C 132.58 137.14 129.01 138.61 126.73 141.66 Z" />
<path fill="#333333" opacity="1.00" d=" M 92.08 172.96 C 92.33 172.08 92.72 171.26 93.23 170.50 C 93.68 171.15 94.58 172.46 95.03 173.11 C 95.56 172.81 96.62 172.22 97.15 171.93 C 97.89 172.11 98.63 172.29 99.36 172.48 C 98.48 174.85 99.17 177.33 99.45 179.75 C 98.58 181.10 97.58 182.41 97.05 183.95 C 96.41 185.74 98.34 187.92 96.52 189.33 C 95.03 186.36 95.84 183.27 97.28 180.50 C 96.89 178.80 96.53 177.11 96.19 175.40 C 94.80 174.63 93.17 174.16 92.08 172.96 Z" />
<path fill="#333333" opacity="1.00" d=" M 120.33 184.05 C 120.88 184.25 121.99 184.65 122.54 184.85 C 122.39 211.57 122.45 238.30 122.32 265.02 C 122.17 267.61 122.99 271.03 120.19 272.48 C 119.45 262.68 120.26 252.85 119.91 243.04 C 120.07 223.38 120.27 203.71 120.33 184.05 Z" />
<path fill="#333333" opacity="1.00" d=" M 98.40 202.59 C 99.50 207.70 99.25 213.03 100.35 218.18 C 97.48 213.49 97.98 207.83 98.40 202.59 Z" />
</g>
</svg>
