<?xml version="1.0" encoding="UTF-8" ?>
<!DOCTYPE svg PUBLIC "-//W3C//DTD SVG 1.1//EN" "http://www.w3.org/Graphics/SVG/1.1/DTD/svg11.dtd">
<svg width="203pt" height="275pt" viewBox="0 0 203 275" version="1.1" xmlns="http://www.w3.org/2000/svg"><g id="#414241ff">
<path fill="#333333" opacity="1.00" d=" M 96.63 0.00 L 98.27 0.00 C 98.53 20.01 98.30 40.02 98.38 60.04 C 100.40 60.58 102.54 60.82 104.46 61.73 C 106.43 63.00 107.82 64.97 109.15 66.86 C 111.20 69.91 110.72 73.79 111.87 77.15 C 113.73 79.21 116.26 80.76 117.24 83.50 C 118.73 87.28 122.27 89.64 124.14 93.17 C 124.99 97.80 124.69 102.63 124.22 107.30 C 122.29 109.58 118.91 110.82 115.98 110.03 C 112.21 109.71 110.09 106.28 107.44 104.05 C 106.66 105.40 105.87 106.75 105.08 108.10 C 105.94 109.69 107.46 111.12 107.52 113.02 C 106.28 113.80 104.97 114.47 103.67 115.16 C 103.80 117.33 103.71 119.59 104.42 121.68 C 105.26 123.18 106.51 124.43 107.21 126.01 C 107.97 128.60 106.35 131.09 106.42 133.65 C 107.83 138.42 110.47 142.80 111.19 147.78 C 111.37 149.73 112.61 151.26 113.81 152.72 C 113.87 153.28 114.00 154.40 114.06 154.97 C 113.18 155.42 112.30 155.87 111.42 156.33 C 112.13 160.94 112.34 165.61 112.28 170.28 C 112.24 173.28 114.41 175.97 113.76 179.00 C 112.45 184.96 112.22 191.20 113.43 197.19 C 115.04 205.54 112.62 214.34 115.56 222.47 C 117.23 224.48 119.43 225.98 121.14 227.96 C 123.59 230.65 126.10 233.86 129.92 234.49 C 132.07 234.81 134.22 235.63 135.33 237.63 C 136.99 238.96 135.74 241.27 134.26 242.16 C 131.14 243.93 127.60 245.48 123.95 244.54 C 118.96 244.94 115.13 240.18 110.11 241.35 C 106.74 242.15 103.36 241.44 100.47 239.60 C 99.05 231.17 104.55 223.30 102.51 214.91 C 101.89 210.11 98.48 206.37 97.19 201.80 C 96.88 196.51 97.62 191.21 98.78 186.06 C 96.42 182.48 95.71 178.33 95.38 174.15 C 93.82 170.20 90.88 166.93 89.22 162.99 C 88.36 163.93 87.51 164.88 86.65 165.83 C 86.38 170.81 86.01 176.07 83.35 180.45 C 80.76 184.59 79.51 189.37 77.99 193.96 C 75.56 200.92 78.70 208.60 75.81 215.44 C 73.36 221.58 73.01 228.48 73.91 234.97 C 74.34 239.11 77.03 242.41 78.95 245.94 C 81.46 250.97 86.87 254.39 87.46 260.35 C 85.87 261.12 84.24 261.82 82.59 262.48 C 77.78 265.34 71.11 265.02 66.91 261.17 C 64.38 259.63 64.89 256.36 63.98 253.92 C 61.71 247.96 60.07 241.43 61.18 235.04 C 62.40 226.75 57.76 219.13 57.65 210.95 C 57.86 205.36 60.37 200.23 61.79 194.91 C 62.57 190.01 62.48 184.94 64.20 180.23 C 66.48 174.76 64.05 168.85 65.28 163.20 C 62.75 165.26 60.73 161.83 59.77 159.84 C 60.79 157.59 62.82 155.72 62.86 153.11 C 63.10 148.30 64.95 143.75 65.15 138.95 C 65.36 135.23 63.56 131.70 64.01 127.99 C 65.73 124.83 68.60 122.15 68.57 118.29 C 63.66 118.93 58.25 120.76 53.49 118.54 C 52.04 113.60 51.70 108.35 49.45 103.65 C 46.84 97.89 51.17 91.93 49.80 86.02 C 48.67 79.21 49.30 69.96 56.32 66.51 C 61.71 64.20 65.37 59.42 70.23 56.30 C 70.25 54.32 70.29 52.34 70.34 50.36 C 68.93 48.43 67.32 46.46 67.09 43.98 C 66.46 39.62 65.70 34.43 69.09 30.95 C 72.49 26.91 78.24 26.89 83.06 27.38 C 86.59 27.61 90.05 30.26 90.66 33.85 C 91.23 37.59 92.55 41.20 92.78 44.98 C 92.41 49.59 91.81 54.28 89.98 58.57 C 92.15 59.18 94.34 59.70 96.55 60.16 C 96.72 40.11 96.57 20.05 96.63 0.00 M 71.48 31.60 C 68.16 34.23 67.88 38.75 67.87 42.65 C 68.40 42.46 69.46 42.10 69.99 41.92 C 71.07 43.24 69.21 44.86 69.05 46.24 C 70.55 47.72 72.30 48.89 73.95 50.19 C 75.17 51.96 75.65 54.29 77.48 55.62 C 80.17 57.02 83.13 57.82 86.00 58.78 C 86.73 58.47 88.20 57.83 88.93 57.51 C 90.06 54.45 90.61 51.22 91.06 48.00 C 91.79 43.68 90.22 39.47 89.62 35.25 C 89.15 32.22 86.52 30.38 84.32 28.59 C 79.91 28.47 74.98 28.50 71.48 31.60 M 71.16 50.42 C 71.16 52.91 71.19 55.40 71.22 57.90 C 68.32 60.94 64.25 62.67 61.79 66.15 C 58.40 67.78 54.27 69.27 52.88 73.14 C 50.89 77.18 50.78 81.84 52.22 86.07 C 52.25 92.58 49.95 99.74 53.05 105.88 C 56.06 103.16 53.31 99.35 53.99 95.98 C 56.82 98.36 56.31 102.15 56.07 105.44 C 55.15 105.90 54.23 106.38 53.35 106.92 C 54.57 110.28 53.05 115.70 56.95 117.46 C 62.44 116.70 67.99 116.32 73.44 115.28 C 76.46 112.13 80.31 109.95 84.27 108.22 C 87.20 106.48 90.77 109.74 93.53 107.43 C 97.29 104.71 95.32 99.49 95.46 95.61 C 92.83 95.70 90.15 95.96 87.56 95.38 C 87.04 94.42 86.60 93.43 86.21 92.41 C 85.40 92.71 83.76 93.31 82.95 93.61 C 83.14 94.08 83.52 95.02 83.72 95.50 L 82.74 95.50 C 82.36 97.38 81.93 99.30 80.86 100.92 C 79.07 102.35 76.82 103.06 74.81 104.14 C 72.43 103.59 70.22 102.57 67.98 101.62 C 65.75 101.27 63.48 101.31 61.24 101.14 C 61.71 100.58 62.65 99.47 63.12 98.91 C 62.10 96.93 60.80 95.13 59.36 93.45 C 59.85 93.03 60.34 92.62 60.83 92.20 C 63.07 94.56 64.54 97.46 66.02 100.32 C 67.67 97.40 66.86 93.96 66.79 90.79 C 66.32 89.48 66.64 88.61 67.76 88.17 C 68.63 91.87 69.08 95.75 68.29 99.51 C 70.89 100.94 73.96 102.74 76.88 101.00 C 80.72 99.29 80.48 94.51 81.73 91.08 C 84.06 90.42 86.52 89.89 88.49 88.40 C 86.58 88.24 84.66 88.11 82.74 88.02 C 84.75 86.93 88.27 86.89 88.36 83.91 C 89.48 80.85 87.81 77.88 87.85 74.82 C 88.39 75.34 89.47 76.40 90.01 76.93 C 91.93 72.88 93.15 68.49 95.42 64.61 C 92.48 65.97 89.17 66.63 86.55 68.62 C 85.27 69.61 83.62 69.76 82.12 70.18 C 77.92 68.54 73.24 69.59 68.83 69.02 C 66.98 68.07 64.98 67.53 62.95 67.13 C 67.28 64.53 72.31 67.98 76.97 67.00 C 79.64 66.28 82.30 67.03 84.27 68.95 C 88.53 66.78 91.83 61.93 97.33 63.44 C 94.30 61.27 90.54 60.45 87.00 59.46 C 83.18 61.04 79.14 59.32 75.96 57.12 C 74.06 55.10 73.54 52.05 71.16 50.42 M 98.11 62.16 C 97.96 64.49 99.02 65.92 101.36 66.06 C 103.94 70.03 102.60 74.93 104.60 79.05 C 103.59 84.45 104.75 91.02 109.99 93.85 C 111.69 92.34 113.35 90.77 115.29 89.57 C 115.28 91.98 113.37 93.57 112.10 95.38 C 108.70 96.12 106.39 93.72 104.58 91.24 C 103.47 93.86 101.20 95.53 98.80 96.89 C 98.75 95.38 98.70 93.87 98.64 92.37 C 99.49 92.28 101.20 92.11 102.05 92.03 C 103.84 85.61 102.14 79.00 101.61 72.53 C 100.96 70.73 101.12 67.82 98.85 67.27 C 97.32 68.00 96.86 69.76 95.98 71.06 C 96.94 71.72 97.85 72.44 98.72 73.21 C 99.18 76.47 97.99 79.71 98.45 82.97 C 98.83 86.14 98.46 89.33 97.91 92.46 C 97.05 96.78 97.95 101.19 97.60 105.55 C 99.81 106.46 102.22 107.06 104.41 105.76 C 105.69 102.91 107.08 100.05 106.98 96.85 C 109.81 97.76 109.17 100.95 109.24 103.25 C 110.86 104.48 112.41 105.83 114.16 106.88 C 116.76 108.41 120.58 108.02 122.49 105.58 C 122.93 102.09 122.80 98.49 122.27 95.02 C 120.58 91.07 116.70 88.48 115.47 84.27 C 114.53 81.50 111.71 80.14 110.04 77.89 C 109.16 75.17 109.15 72.24 108.26 69.53 C 106.31 65.57 102.99 61.73 98.11 62.16 M 94.07 72.44 C 90.14 79.20 90.82 87.28 89.15 94.68 C 90.94 94.27 92.73 93.85 94.53 93.51 C 96.44 89.87 94.72 85.79 95.18 81.92 C 95.03 78.73 96.78 74.96 94.07 72.44 M 88.69 110.67 C 88.02 111.64 87.53 112.72 87.01 113.78 C 89.14 113.90 90.72 112.63 92.09 111.17 L 93.71 112.98 C 94.03 112.02 94.66 110.10 94.97 109.14 C 95.18 110.93 95.33 112.72 95.49 114.51 C 95.85 114.51 96.58 114.52 96.95 114.52 C 96.32 115.65 95.69 116.77 95.05 117.90 C 94.24 116.56 93.36 115.27 92.46 113.99 C 89.63 116.44 85.58 116.09 82.84 113.68 C 84.84 112.98 86.03 111.56 86.42 109.42 C 83.26 110.70 80.19 112.26 77.57 114.45 C 75.06 116.62 71.83 117.70 69.36 119.92 C 72.17 121.00 74.83 122.89 77.99 122.61 C 81.73 122.45 85.30 123.84 89.00 123.91 C 93.54 122.96 98.40 122.57 102.34 119.91 C 103.51 115.39 99.53 112.75 96.37 110.57 C 96.79 109.25 97.43 108.01 97.97 106.74 C 95.14 108.63 92.00 109.90 88.69 110.67 M 99.35 108.76 C 99.35 109.16 99.36 109.95 99.36 110.35 C 101.06 111.46 102.74 112.59 104.40 113.77 C 105.71 111.15 103.66 109.43 101.41 108.63 C 100.89 108.67 99.86 108.73 99.35 108.76 M 92.00 125.81 C 87.26 127.08 82.61 124.78 77.87 124.80 C 74.56 124.90 71.80 122.94 69.08 121.36 C 69.19 122.08 69.42 123.54 69.54 124.27 C 68.94 124.29 67.74 124.32 67.14 124.34 C 66.53 126.47 65.17 128.68 65.94 130.96 C 67.57 136.44 67.87 142.58 65.57 147.92 C 64.73 151.95 64.51 156.24 61.99 159.70 C 62.44 160.30 63.34 161.50 63.79 162.10 C 64.86 160.40 65.11 157.66 67.63 157.62 C 67.65 159.40 67.61 161.18 67.62 162.96 C 73.23 166.38 80.65 167.24 86.18 163.20 C 88.61 161.38 87.05 157.82 88.39 155.52 C 90.61 154.29 93.11 153.81 95.56 153.30 C 96.62 150.95 97.91 148.67 99.84 146.93 C 99.31 149.64 98.39 152.38 96.63 154.55 C 93.88 155.83 89.75 155.63 89.09 159.42 C 93.02 159.67 97.04 162.03 100.92 160.23 C 105.12 158.92 107.86 155.13 111.97 153.63 C 108.63 150.40 109.49 145.45 107.58 141.54 C 106.59 139.01 105.27 136.60 104.48 134.00 C 104.70 131.67 105.95 129.40 105.41 127.03 C 104.63 125.46 103.33 124.23 102.30 122.83 C 98.94 124.07 95.43 124.82 92.00 125.81 M 89.79 160.04 L 89.20 162.43 C 91.30 163.40 92.99 165.01 94.15 167.00 C 96.23 170.43 99.13 173.76 98.97 178.02 C 98.85 182.04 101.51 185.28 102.71 188.93 C 102.36 189.73 101.64 191.33 101.29 192.13 L 100.52 188.66 C 99.50 190.92 98.90 193.38 99.35 195.87 C 100.08 199.99 99.86 204.45 102.27 208.07 C 105.46 213.23 103.95 219.54 104.31 225.26 C 102.43 229.25 102.63 233.82 102.40 238.13 C 104.10 241.30 108.35 239.60 111.23 239.77 C 114.83 239.09 117.96 240.98 121.11 242.35 C 123.76 242.61 126.42 242.96 129.09 242.95 C 130.94 242.29 132.55 241.12 134.13 239.98 C 133.76 238.90 132.96 238.08 132.30 237.18 C 123.43 237.10 119.71 228.00 113.56 223.22 C 113.13 220.50 112.49 217.81 112.06 215.09 C 111.53 209.11 112.71 202.99 111.27 197.08 C 110.09 192.74 111.18 188.26 111.12 183.85 C 112.20 179.95 112.95 175.70 110.53 172.10 C 109.12 174.31 107.99 177.48 104.96 177.83 C 101.69 177.43 101.40 173.36 100.91 170.82 C 102.13 172.97 103.10 175.85 105.86 176.38 C 108.12 174.85 108.46 171.85 109.26 169.46 C 109.71 169.56 110.61 169.78 111.05 169.89 C 110.99 165.48 110.80 161.07 110.39 156.68 C 104.94 161.37 96.13 165.50 89.79 160.04 M 66.77 164.54 C 66.74 168.69 67.57 172.82 67.25 176.97 C 66.62 179.40 65.35 181.61 64.78 184.06 C 62.64 190.95 66.02 197.86 67.83 204.43 C 67.40 204.39 66.54 204.33 66.11 204.30 C 65.29 201.68 64.39 199.10 63.41 196.55 C 60.17 203.05 57.69 210.73 60.20 217.91 C 62.36 225.35 64.42 233.28 62.05 240.96 C 63.60 244.88 64.57 249.01 66.37 252.84 C 67.49 255.14 66.91 258.22 69.07 259.97 C 72.32 263.08 77.62 263.13 81.07 260.32 C 80.63 259.82 79.75 258.84 79.31 258.34 C 75.99 258.80 72.67 258.83 69.34 258.51 C 69.49 258.12 69.78 257.35 69.93 256.96 C 72.98 257.19 76.02 256.90 79.05 256.50 C 81.07 256.34 81.33 258.93 82.27 260.16 C 83.55 259.84 84.83 259.53 86.12 259.21 C 84.34 256.05 82.18 253.13 79.66 250.53 C 77.70 247.36 76.01 244.02 74.01 240.88 C 71.07 234.75 70.97 227.65 71.80 221.03 C 72.24 217.15 74.82 213.88 75.15 209.97 C 75.42 207.15 75.03 204.33 74.84 201.52 C 73.38 204.09 72.03 206.89 72.06 209.92 C 71.71 212.11 72.50 215.05 70.24 216.42 C 69.38 210.11 71.13 203.62 74.75 198.41 C 76.93 191.86 78.45 184.95 82.25 179.10 C 84.21 175.18 84.76 170.73 85.28 166.43 C 81.85 167.20 78.38 168.24 74.83 167.95 C 71.94 167.38 69.44 165.70 66.77 164.54 Z" />
<path fill="#333333" opacity="1.00" d=" M 66.09 87.76 C 64.30 84.92 63.72 80.38 67.58 78.99 C 67.29 80.75 66.75 82.45 66.04 84.08 C 69.88 86.62 74.70 87.77 79.28 88.34 C 75.63 92.13 70.72 88.33 67.28 86.22 C 66.88 86.73 66.48 87.25 66.09 87.76 Z" />
<path fill="#333333" opacity="1.00" d=" M 82.95 115.59 C 85.38 117.88 87.68 120.30 90.05 122.66 C 86.24 122.81 83.15 119.20 82.95 115.59 Z" />
<path fill="#333333" opacity="1.00" d=" M 87.07 128.48 C 92.43 128.22 97.95 127.25 102.65 124.53 C 101.78 125.60 101.31 127.21 99.90 127.75 C 93.73 130.24 86.91 131.00 80.35 129.83 C 79.43 135.04 74.31 137.17 70.08 139.18 C 69.91 138.86 69.56 138.20 69.39 137.87 C 73.32 135.98 77.27 133.64 79.11 129.45 C 77.27 128.64 75.40 127.93 73.52 127.24 C 72.28 129.73 71.50 132.40 70.99 135.13 C 69.03 131.95 71.24 128.58 72.62 125.66 C 77.36 126.92 82.07 128.79 87.07 128.48 Z" />
<path fill="#333333" opacity="1.00" d=" M 83.31 136.39 C 87.66 134.80 92.22 133.87 96.80 133.22 C 96.52 133.73 95.96 134.75 95.68 135.27 C 90.62 135.63 85.85 137.54 80.88 138.46 C 81.66 137.74 82.25 136.73 83.31 136.39 Z" />
<path fill="#333333" opacity="1.00" d=" M 97.17 134.20 C 97.03 132.23 100.68 132.72 101.69 133.67 C 100.89 134.99 98.47 134.73 97.17 134.20 Z" />
<path fill="#333333" opacity="1.00" d=" M 85.53 141.63 C 90.90 138.68 96.40 135.65 102.56 134.77 C 97.84 138.88 90.37 138.94 86.25 143.78 C 92.20 143.87 98.46 142.96 104.22 141.05 C 101.36 145.44 95.48 144.70 90.94 145.14 C 86.77 145.06 82.23 147.65 78.37 145.19 C 80.52 144.86 82.69 144.63 84.87 144.50 C 85.08 143.54 85.30 142.58 85.53 141.63 Z" />
<path fill="#333333" opacity="1.00" d=" M 70.10 180.03 C 72.45 179.64 74.80 179.20 76.94 178.11 C 77.59 179.84 78.26 181.57 78.76 183.36 C 77.94 182.48 77.16 181.55 76.38 180.66 C 74.56 181.01 72.77 181.46 70.97 181.90 C 70.75 182.73 70.32 184.39 70.10 185.22 C 69.16 183.58 69.55 181.73 70.10 180.03 Z" />
<path fill="#333333" opacity="1.00" d=" M 71.79 191.06 C 71.78 190.34 71.78 189.61 71.77 188.89 C 73.05 189.09 74.33 189.29 75.61 189.50 C 75.49 189.87 75.24 190.62 75.12 190.99 C 74.29 191.01 72.62 191.04 71.79 191.06 Z" />
<path fill="#333333" opacity="1.00" d=" M 107.88 234.30 C 105.25 232.31 104.56 228.57 106.57 225.90 C 106.80 228.73 107.24 231.53 107.88 234.30 Z" />
<path fill="#333333" opacity="1.00" d=" M 64.76 242.66 C 66.14 239.71 67.13 235.35 70.75 234.54 C 69.09 237.47 68.10 241.18 64.76 242.66 Z" />
</g>
</svg>
