<?xml version="1.0" encoding="UTF-8" ?>
<!DOCTYPE svg PUBLIC "-//W3C//DTD SVG 1.1//EN" "http://www.w3.org/Graphics/SVG/1.1/DTD/svg11.dtd">
<svg width="184pt" height="200pt" viewBox="0 0 184 200" version="1.1" xmlns="http://www.w3.org/2000/svg"><g id="#252624ff">
<path fill="#333333" opacity="1.00" d=" M 130.98 23.96 C 135.14 20.08 141.91 18.94 146.86 21.98 C 150.92 24.25 155.53 27.72 155.12 32.96 C 154.12 40.96 150.76 49.09 144.51 54.40 C 141.26 56.17 137.42 53.88 134.48 52.31 C 132.09 50.58 129.12 51.33 126.49 51.83 C 124.97 56.04 124.11 60.71 120.97 64.09 C 118.23 67.66 115.81 71.63 111.83 73.98 C 109.85 74.14 107.86 73.36 105.89 73.80 C 103.53 74.83 101.22 75.97 98.84 76.98 C 99.83 79.59 101.09 82.19 101.25 85.02 L 99.67 85.01 C 98.40 82.78 97.70 80.29 96.84 77.89 C 92.32 78.33 87.77 76.32 83.36 77.87 C 88.34 79.49 93.42 81.11 98.01 83.63 L 97.05 84.01 C 93.02 84.99 89.45 82.01 85.93 80.52 C 82.50 80.91 79.68 83.25 76.46 84.34 C 75.46 85.04 74.51 84.08 73.60 83.76 C 76.49 81.70 80.02 80.71 82.69 78.32 C 81.26 78.24 79.83 78.18 78.41 78.16 C 75.34 76.23 71.65 76.13 68.19 75.44 C 64.63 74.95 60.55 73.81 57.42 76.23 C 55.09 76.27 52.76 76.25 50.43 76.21 L 50.58 74.30 C 52.60 74.53 54.62 74.73 56.65 74.72 C 56.11 73.89 55.19 73.22 55.10 72.16 C 56.30 71.44 57.70 72.00 58.99 72.00 C 63.25 73.15 67.78 72.76 72.07 73.88 C 76.61 74.77 81.18 76.30 85.82 75.03 C 88.91 75.63 92.09 76.27 95.23 75.64 C 98.76 75.14 101.70 72.98 104.86 71.51 C 107.04 71.24 109.25 71.53 111.43 71.73 C 114.86 68.71 117.65 65.02 120.11 61.18 C 121.69 57.13 123.79 53.30 125.20 49.18 C 125.44 49.47 125.93 50.06 126.17 50.35 C 127.80 49.78 129.45 49.27 131.10 48.75 C 134.16 49.80 136.75 51.80 139.80 52.87 C 139.76 53.18 139.70 53.80 139.66 54.11 C 141.48 53.55 143.75 53.71 145.03 52.06 C 149.53 47.41 151.57 41.04 153.22 34.93 C 154.06 32.14 153.07 28.98 150.62 27.35 C 146.49 23.60 140.26 21.63 134.97 23.90 C 131.61 26.24 129.42 29.85 126.55 32.71 C 123.67 32.52 120.81 33.01 118.13 34.07 C 115.69 33.41 113.34 32.49 110.94 31.72 C 107.54 30.73 104.13 32.23 100.94 33.26 C 95.75 35.03 89.62 33.84 85.05 37.36 C 80.76 40.57 75.75 42.56 70.86 44.65 C 71.91 44.77 72.96 44.90 74.02 45.02 C 69.67 47.17 67.49 51.96 63.01 53.89 C 64.78 50.56 67.11 47.57 69.57 44.72 C 63.02 46.23 58.22 50.98 53.73 55.65 C 54.06 55.78 54.71 56.05 55.03 56.18 C 57.61 55.54 59.57 53.53 62.01 52.54 C 60.28 55.39 57.56 57.78 54.10 58.04 C 52.75 59.29 53.11 61.61 52.05 63.14 C 51.06 65.83 48.20 66.88 45.91 68.17 C 41.26 66.50 36.16 65.01 32.71 61.30 C 31.07 65.97 27.02 69.08 25.26 73.63 C 27.80 75.64 30.46 77.50 33.13 79.32 C 41.23 75.96 48.77 71.44 56.79 67.90 C 60.09 66.17 63.45 64.48 66.47 62.28 C 69.07 59.69 71.71 57.13 74.16 54.40 C 74.15 55.10 74.12 56.52 74.11 57.23 C 75.79 56.58 77.47 55.92 79.09 55.14 L 76.33 54.44 C 79.84 53.42 83.32 52.34 86.77 51.13 C 85.19 53.44 82.58 54.41 79.94 54.86 C 79.89 55.16 79.81 55.77 79.77 56.07 C 82.50 56.36 85.23 56.89 87.99 56.85 C 90.12 56.36 92.20 55.65 94.35 55.20 C 97.89 52.47 101.89 50.12 106.41 49.57 C 109.69 51.83 113.81 51.90 117.39 50.36 C 116.14 51.87 115.24 54.15 113.04 54.42 C 110.74 54.03 108.55 53.16 106.56 51.97 C 102.29 51.82 99.21 54.84 95.96 57.09 C 93.73 58.15 91.29 58.73 88.93 59.43 C 85.89 59.62 83.05 58.15 80.09 57.64 C 77.89 57.53 75.68 57.78 73.48 57.45 C 71.36 60.29 69.23 63.25 66.32 65.33 C 62.53 68.33 57.81 69.68 53.39 71.44 C 49.49 75.88 43.19 76.56 38.58 80.06 C 39.32 84.11 35.89 87.04 33.65 89.91 C 30.98 93.40 26.17 91.33 22.85 90.07 C 18.58 88.93 13.93 85.75 13.90 80.89 C 14.83 76.11 18.62 71.62 23.62 70.92 C 22.44 71.94 21.13 72.80 19.81 73.62 C 18.52 76.67 17.02 79.71 16.48 83.01 C 18.02 86.05 21.02 88.15 24.40 88.57 C 27.25 89.34 30.20 89.42 33.10 88.90 C 34.65 86.46 35.83 83.81 36.98 81.16 C 36.18 81.31 34.59 81.61 33.80 81.76 C 30.37 79.31 26.24 77.46 23.76 73.95 C 25.39 69.49 28.53 65.80 30.57 61.53 L 31.14 61.93 C 31.55 61.15 31.96 60.37 32.37 59.59 L 31.52 59.78 C 27.85 53.53 35.02 45.07 41.81 47.13 C 45.97 48.63 49.91 50.86 53.06 54.00 C 56.25 50.53 58.94 46.35 63.30 44.22 C 65.86 42.67 69.04 43.08 71.69 41.77 C 75.61 39.65 79.63 37.68 83.19 34.96 C 89.19 30.88 96.81 32.48 103.46 30.58 C 108.14 29.54 112.94 30.23 117.45 31.66 C 120.74 31.25 124.03 30.84 127.35 30.73 C 128.51 28.46 129.33 25.95 130.98 23.96 M 37.47 49.43 C 35.87 52.38 30.89 55.56 34.06 59.03 C 37.33 64.41 44.10 64.21 49.60 63.87 C 50.60 62.13 52.10 60.15 51.00 58.08 C 49.77 52.03 43.00 49.51 37.47 49.43 Z" />
<path fill="#333333" opacity="1.00" d=" M 104.51 37.55 C 103.79 36.54 104.70 34.12 106.11 34.50 C 106.99 35.54 105.98 37.97 104.51 37.55 Z" />
<path fill="#333333" opacity="1.00" d=" M 112.50 35.35 C 116.44 37.56 118.20 41.94 120.70 45.46 C 117.70 43.92 115.42 41.49 114.59 38.17 C 113.86 37.25 113.16 36.31 112.50 35.35 Z" />
<path fill="#333333" opacity="1.00" d=" M 90.84 38.32 C 91.38 39.20 91.88 40.10 92.33 41.03 C 91.02 46.28 83.80 47.50 79.72 44.79 C 84.25 44.45 89.05 42.97 90.84 38.32 Z" />
<path fill="#333333" opacity="1.00" d=" M 134.44 39.11 C 134.72 39.22 135.28 39.44 135.56 39.55 C 135.24 40.29 134.92 41.03 134.60 41.77 C 136.58 44.78 139.11 47.59 140.01 51.17 C 135.89 50.13 135.61 44.92 133.15 42.03 C 133.58 41.06 134.01 40.08 134.44 39.11 Z" />
<path fill="#333333" opacity="1.00" d=" M 36.77 52.81 C 40.62 55.71 44.83 57.94 49.61 58.86 C 46.51 61.23 42.59 59.07 39.76 57.23 C 38.04 56.35 37.48 54.45 36.77 52.81 Z" />
<path fill="#333333" opacity="1.00" d=" M 103.53 65.84 C 104.02 62.67 105.74 59.76 107.56 57.16 C 107.27 59.83 106.33 62.34 105.41 64.83 C 106.16 66.53 106.87 68.24 107.43 70.01 C 105.59 69.25 103.41 68.20 103.53 65.84 Z" />
<path fill="#333333" opacity="1.00" d=" M 96.89 59.39 C 97.70 59.59 98.50 59.83 99.29 60.10 C 100.46 62.35 98.33 64.76 97.51 66.80 C 97.16 64.34 97.07 61.86 96.89 59.39 Z" />
<path fill="#333333" opacity="1.00" d=" M 91.57 60.86 C 91.93 61.12 92.66 61.64 93.02 61.90 C 92.54 64.16 92.44 66.48 92.29 68.78 C 90.59 66.41 90.81 63.54 91.57 60.86 Z" />
<path fill="#333333" opacity="1.00" d=" M 22.02 75.95 C 25.00 76.82 25.61 80.66 28.54 81.64 C 30.26 82.53 32.23 82.28 34.09 82.31 C 32.46 85.72 28.72 84.30 26.23 82.77 C 23.77 81.42 22.21 78.72 22.02 75.95 Z" />
<path fill="#333333" opacity="1.00" d=" M 108.89 76.34 C 109.30 76.53 110.12 76.91 110.52 77.10 C 110.28 82.76 111.93 88.33 111.41 93.97 C 113.34 99.74 121.47 99.60 122.96 105.78 C 121.26 112.34 125.45 118.85 123.61 125.37 C 125.07 130.46 125.71 135.72 126.05 140.99 C 126.84 145.94 126.16 151.20 128.09 155.91 C 130.39 158.90 133.81 160.86 135.95 164.01 C 138.48 168.13 142.97 170.36 147.28 172.16 C 148.05 172.89 148.81 173.63 149.57 174.38 C 147.00 176.88 143.78 179.03 140.06 179.05 C 136.03 179.04 132.01 178.48 127.98 178.54 C 122.60 178.40 117.16 179.44 111.84 178.23 C 108.88 174.57 111.75 170.16 111.83 166.10 C 112.04 161.71 113.67 157.33 112.48 152.94 C 112.14 147.37 108.69 142.78 107.36 137.48 C 105.06 130.47 107.99 122.79 105.30 115.88 C 102.05 119.34 98.98 123.00 95.41 126.14 C 96.24 121.18 100.69 118.17 103.90 114.73 C 103.07 114.07 102.24 113.42 101.41 112.77 C 100.94 113.14 100.00 113.89 99.54 114.26 C 88.11 115.83 76.49 115.54 64.98 115.11 C 58.61 114.95 52.21 115.47 45.87 114.62 C 47.22 114.01 48.55 113.24 50.05 113.07 C 61.27 112.03 72.54 112.57 83.79 112.59 C 88.71 112.28 93.62 112.77 98.53 112.92 C 98.10 111.86 97.70 110.79 97.27 109.73 C 100.90 112.05 106.90 111.45 108.72 116.09 C 110.14 121.98 107.51 127.99 108.77 133.91 C 109.05 137.19 110.74 140.05 111.91 143.06 C 113.73 148.54 114.91 154.28 115.02 160.05 C 114.33 163.74 113.93 167.47 113.29 171.17 C 113.12 172.71 112.52 175.00 114.48 175.62 C 116.94 176.29 119.52 175.69 122.01 175.49 C 130.30 174.86 138.89 177.58 146.98 174.95 C 143.71 172.47 139.30 171.71 136.64 168.39 C 133.53 164.48 129.52 161.44 126.25 157.71 C 123.31 148.14 124.94 137.85 122.55 128.15 C 121.55 125.23 122.77 122.07 121.65 119.18 C 119.89 114.81 121.12 110.03 120.26 105.53 C 119.27 102.05 115.16 101.42 112.76 99.24 C 109.51 96.53 107.77 92.33 104.06 90.14 C 101.94 88.71 99.29 88.19 97.43 86.37 C 97.61 86.06 97.98 85.44 98.16 85.14 C 102.56 86.07 106.31 89.48 110.02 92.05 C 109.10 86.86 109.18 81.58 108.89 76.34 Z" />
<path fill="#333333" opacity="1.00" d=" M 73.13 78.06 C 74.51 76.87 76.44 79.29 74.85 80.29 C 73.46 81.41 71.56 79.10 73.13 78.06 Z" />
<path fill="#333333" opacity="1.00" d=" M 43.43 80.07 C 43.80 80.19 44.54 80.45 44.90 80.58 C 43.86 84.96 43.06 90.20 45.90 94.10 C 47.75 96.95 48.66 100.37 50.93 102.95 C 53.60 104.98 57.18 104.77 60.36 104.96 C 64.59 105.55 68.90 104.87 73.12 105.65 C 75.86 106.22 78.45 104.90 81.12 104.54 C 82.46 99.93 84.95 95.77 88.36 92.40 C 91.66 89.65 93.30 85.34 97.62 83.77 C 96.35 86.16 95.22 88.62 93.89 90.98 C 88.40 94.06 84.48 99.77 83.29 105.95 C 87.58 106.98 91.93 107.76 96.13 109.15 C 97.20 109.44 96.72 110.70 96.67 111.47 C 91.18 109.67 85.36 109.18 80.02 106.96 C 77.84 107.46 75.70 108.61 73.42 107.91 C 67.69 106.71 61.76 107.74 56.03 106.58 C 52.93 105.54 50.03 103.96 47.10 102.52 C 46.04 99.09 43.78 96.24 42.41 92.97 C 41.15 88.69 42.74 84.30 43.43 80.07 Z" />
<path fill="#333333" opacity="1.00" d=" M 113.35 101.00 C 113.70 101.33 113.70 101.33 113.35 101.00 Z" />
<path fill="#333333" opacity="1.00" d=" M 96.21 105.45 C 102.25 106.44 110.70 104.57 113.83 111.41 C 112.18 110.65 110.62 109.72 108.98 108.92 C 104.88 107.08 99.66 108.82 96.21 105.45 Z" />
<path fill="#333333" opacity="1.00" d=" M 114.88 107.22 C 116.65 108.93 117.39 111.22 117.24 113.67 C 114.23 112.81 115.13 109.53 114.88 107.22 Z" />
<path fill="#333333" opacity="1.00" d=" M 77.82 119.91 C 79.27 118.61 80.55 115.34 82.82 116.19 C 83.60 126.43 85.44 136.71 84.45 146.99 C 84.18 151.70 84.90 156.40 84.57 161.11 C 82.66 164.87 80.82 168.68 78.73 172.35 C 80.39 175.30 80.49 178.70 80.79 181.98 C 84.19 181.92 87.58 181.63 90.98 181.47 C 91.83 179.01 92.76 176.57 93.32 174.02 C 93.28 169.94 91.29 166.11 91.53 162.00 C 91.60 156.86 91.50 151.72 91.36 146.59 C 91.85 146.69 92.82 146.90 93.30 147.00 C 92.88 150.99 93.27 154.99 93.43 158.97 C 93.58 163.79 95.72 168.25 96.31 172.99 C 95.45 176.41 94.60 179.92 92.87 183.02 C 91.44 184.05 89.60 183.68 87.96 183.63 C 84.64 183.40 81.31 183.73 78.00 183.31 C 77.51 179.56 77.23 175.75 75.95 172.16 C 77.24 170.07 78.50 167.95 79.43 165.67 C 77.72 163.93 75.21 165.49 73.11 165.24 C 67.19 164.84 59.69 165.69 56.00 159.90 C 55.29 155.77 58.53 152.69 60.28 149.33 C 62.56 144.78 67.02 141.89 69.44 137.43 C 73.73 132.31 73.11 124.78 77.82 119.91 M 76.57 126.10 C 74.65 133.91 70.21 140.99 64.44 146.52 C 62.44 149.31 61.11 152.51 59.24 155.39 C 57.62 157.43 57.83 160.97 60.12 162.38 C 66.97 164.73 74.15 162.65 81.16 162.71 C 83.13 156.83 80.98 150.59 81.99 144.58 C 80.89 146.01 79.88 147.50 78.78 148.93 C 76.22 145.51 82.53 142.80 81.96 139.12 C 81.32 131.90 81.40 124.63 81.62 117.39 C 79.77 120.18 77.23 122.70 76.57 126.10 Z" />
<path fill="#333333" opacity="1.00" d=" M 91.12 144.05 C 91.57 134.97 89.98 125.60 92.49 116.73 C 93.75 126.73 92.58 136.85 93.27 146.89 C 92.22 146.23 90.71 145.60 91.12 144.05 Z" />
<path fill="#333333" opacity="1.00" d=" M 68.39 150.83 C 67.79 148.35 70.24 146.81 71.82 145.40 C 71.40 147.41 70.75 149.36 70.14 151.33 C 71.23 153.14 72.00 155.12 72.75 157.09 C 72.27 157.25 71.31 157.58 70.84 157.74 C 69.94 155.46 69.08 153.17 68.39 150.83 Z" />
<path fill="#333333" opacity="1.00" d=" M 117.69 162.97 C 118.14 162.81 119.03 162.48 119.47 162.32 C 119.80 164.30 120.19 166.28 120.41 168.28 C 118.67 167.01 118.09 164.99 117.69 162.97 Z" />
</g>
</svg>
