<?xml version="1.0" encoding="UTF-8" ?>
<!DOCTYPE svg PUBLIC "-//W3C//DTD SVG 1.1//EN" "http://www.w3.org/Graphics/SVG/1.1/DTD/svg11.dtd">
<svg width="263pt" height="275pt" viewBox="0 0 263 275" version="1.1" xmlns="http://www.w3.org/2000/svg"><g id="#494c49ff">
<path fill="#333333" opacity="1.00" d=" M 168.08 64.12 C 172.24 62.63 176.64 61.57 181.07 62.50 C 185.99 62.76 189.92 65.94 194.01 68.32 C 193.14 68.78 192.28 69.23 191.42 69.69 C 193.93 71.39 194.59 74.37 195.43 77.07 C 194.72 77.86 194.00 78.65 193.30 79.45 C 190.02 79.36 186.74 79.28 183.46 79.23 C 183.38 89.35 174.59 95.90 170.41 104.34 C 168.94 106.98 167.53 110.74 164.00 110.90 C 160.56 110.65 157.16 109.97 153.70 110.22 C 157.55 114.06 161.41 118.07 163.21 123.34 C 165.55 123.52 167.93 123.42 170.25 123.84 C 172.43 124.67 172.44 127.39 172.78 129.31 C 179.75 130.54 186.86 131.40 193.61 133.58 C 195.70 134.04 196.64 136.02 197.48 137.76 C 199.39 137.24 201.33 136.80 203.27 136.43 C 203.54 137.03 204.08 138.21 204.35 138.80 C 210.17 141.28 216.36 143.55 220.83 148.23 C 223.89 151.54 228.73 153.93 229.30 158.87 C 229.51 163.87 225.25 167.21 223.23 171.38 C 218.29 177.20 214.85 184.21 208.97 189.24 C 212.87 190.36 214.56 194.17 216.91 197.07 C 219.07 199.75 223.15 200.25 224.76 203.45 C 224.64 205.40 223.80 207.20 223.17 209.03 C 221.17 207.60 221.30 205.42 221.71 203.26 C 218.45 201.27 215.07 199.13 213.24 195.64 C 211.82 192.95 209.79 190.67 207.21 189.05 C 209.83 184.83 213.67 181.54 216.08 177.18 C 218.15 173.32 221.44 170.33 223.53 166.49 C 224.83 164.11 227.12 161.92 226.74 158.98 C 226.79 156.10 224.22 154.36 222.37 152.59 C 219.54 150.10 217.13 147.02 213.69 145.33 C 209.43 143.21 205.05 141.36 200.82 139.19 C 193.87 142.58 191.82 150.86 192.02 157.99 L 193.79 157.06 C 193.64 157.64 193.32 158.80 193.16 159.38 C 199.19 161.15 205.40 163.44 211.77 162.23 C 214.15 163.77 216.77 164.89 219.50 165.66 C 217.23 168.01 214.48 166.18 212.04 165.16 C 209.86 167.91 207.41 170.41 205.15 173.10 C 203.11 175.54 204.09 179.05 202.85 181.83 C 201.91 183.99 200.81 186.08 199.72 188.17 C 199.38 186.65 198.63 185.05 199.55 183.58 C 201.04 180.39 201.79 176.96 202.00 173.46 C 200.12 175.19 198.13 176.81 196.08 178.33 C 191.95 182.64 185.80 183.49 180.49 185.60 C 180.70 191.52 181.77 197.46 180.66 203.36 C 184.74 201.68 188.55 199.45 192.40 197.31 C 195.46 195.14 198.25 198.94 200.56 200.59 C 202.68 203.71 202.00 207.87 202.42 211.46 C 190.21 218.92 177.35 225.26 165.07 232.62 C 164.51 232.04 163.96 231.47 163.41 230.91 C 175.89 224.32 188.27 217.51 200.44 210.36 C 200.23 208.00 200.24 205.60 199.64 203.30 C 198.16 201.47 196.15 200.11 194.06 199.07 C 189.28 200.91 185.00 203.80 180.40 206.05 C 180.74 208.48 181.12 210.90 181.49 213.33 C 180.97 213.52 179.91 213.89 179.39 214.07 C 177.43 204.37 179.62 194.55 179.74 184.79 C 179.04 184.63 177.66 184.31 176.96 184.14 C 176.69 183.66 176.14 182.70 175.86 182.22 C 183.52 183.84 190.60 179.58 196.88 175.79 C 200.35 173.83 200.75 169.64 200.85 166.08 C 200.20 165.26 199.56 164.44 198.93 163.62 C 196.56 162.76 194.31 161.62 192.25 160.16 C 191.59 160.35 190.93 160.55 190.27 160.74 C 189.74 160.47 188.68 159.92 188.15 159.65 C 183.09 160.08 177.70 159.59 173.77 156.02 C 172.28 157.29 170.74 158.54 169.51 160.07 C 169.50 161.40 169.56 162.73 169.70 164.05 C 169.41 164.60 168.85 165.69 168.57 166.24 C 171.56 170.26 173.99 174.85 174.35 179.94 C 175.26 182.94 176.80 186.08 175.90 189.27 C 174.83 193.24 172.65 196.79 171.43 200.71 C 170.70 202.88 170.73 205.45 168.79 206.99 C 167.85 209.41 167.02 211.87 166.32 214.37 C 167.53 212.39 168.57 210.32 169.70 208.29 C 169.98 209.72 170.22 211.17 170.49 212.62 C 168.14 214.02 165.94 215.70 164.28 217.89 C 165.10 221.94 161.16 225.04 161.91 229.10 C 161.68 232.75 164.61 235.26 165.95 238.37 C 167.34 241.17 167.70 244.65 170.36 246.65 C 172.74 248.90 176.98 249.43 177.79 253.04 C 172.54 250.77 167.16 247.80 164.46 242.50 C 162.08 237.60 159.98 232.45 159.15 227.04 C 159.00 222.31 161.87 218.30 163.64 214.11 C 165.51 210.21 166.74 206.06 168.10 201.96 C 169.43 197.94 171.99 194.51 174.43 191.11 C 174.38 187.55 172.93 184.32 171.46 181.16 C 169.87 177.85 170.56 174.05 169.52 170.61 C 168.06 167.62 165.61 164.71 162.14 164.18 C 156.22 164.72 150.63 169.36 149.12 175.06 C 150.32 178.22 152.62 180.77 154.67 183.40 C 157.02 186.33 158.57 189.78 160.29 193.10 C 155.25 195.37 153.53 201.08 151.61 205.80 C 148.65 212.56 150.70 220.15 148.53 227.10 C 147.49 232.89 144.37 238.13 143.68 243.98 C 147.31 247.21 151.87 250.07 156.69 250.84 C 155.00 245.51 153.84 240.02 153.22 234.47 C 154.22 235.24 155.30 236.04 155.48 237.39 C 156.84 241.93 157.44 246.63 158.24 251.29 C 157.75 251.62 156.79 252.30 156.30 252.63 C 158.45 255.98 161.93 258.34 166.01 258.36 C 171.13 259.57 175.82 256.62 179.51 253.40 C 177.30 260.34 168.76 263.20 162.28 261.06 C 157.72 259.13 154.56 255.21 151.05 251.90 C 148.32 249.22 143.89 248.45 142.18 244.75 C 140.84 241.49 143.01 238.22 144.19 235.27 C 147.56 228.76 146.48 221.20 147.64 214.19 C 148.66 209.34 150.82 204.84 152.25 200.12 C 153.23 196.79 155.69 194.22 156.98 191.05 C 155.56 185.33 150.49 181.55 148.28 176.18 C 147.94 177.02 147.26 178.70 146.92 179.53 C 146.68 178.53 145.71 177.48 146.34 176.44 C 148.90 170.33 152.97 164.07 159.50 161.76 C 162.25 160.69 164.99 162.40 167.59 163.13 C 166.90 160.82 166.03 158.39 166.62 155.95 C 167.23 153.51 168.70 151.41 169.47 149.04 C 169.59 146.15 168.69 142.90 171.06 140.65 C 171.54 144.74 172.00 148.97 170.51 152.92 C 171.12 153.14 172.35 153.58 172.96 153.80 C 171.87 153.62 170.79 153.45 169.71 153.28 C 169.75 154.25 169.82 156.17 169.86 157.14 C 171.75 156.40 173.63 155.64 175.52 154.89 C 179.55 158.09 184.77 157.88 189.63 157.74 C 190.20 150.69 191.74 143.34 196.84 138.08 C 192.00 135.92 187.18 133.51 181.92 132.57 C 178.65 131.79 175.27 131.64 172.01 130.84 C 169.84 129.36 171.47 124.62 167.90 124.66 C 159.72 122.06 151.55 126.29 145.24 131.23 C 141.19 134.81 137.38 139.41 136.65 144.91 C 138.20 148.20 139.90 151.42 141.43 154.73 C 139.25 161.30 142.80 167.90 145.08 173.96 C 139.10 169.90 138.35 161.74 138.54 155.09 C 137.14 151.60 136.24 147.91 134.12 144.74 C 136.91 135.69 143.94 128.24 152.83 124.93 C 155.06 122.98 158.03 123.21 160.79 123.27 C 159.02 120.08 157.31 116.75 154.52 114.31 C 152.35 112.36 150.79 109.74 150.26 106.86 C 149.70 104.52 149.79 101.85 148.08 99.97 C 146.05 97.60 144.23 94.71 141.14 93.64 C 137.00 92.12 134.13 88.25 129.73 87.33 C 126.23 86.71 122.54 85.42 119.04 86.75 C 115.32 87.97 111.43 88.60 107.66 89.66 C 103.76 90.79 102.10 94.94 98.92 97.11 C 96.27 98.61 93.04 98.71 90.47 100.34 C 87.29 102.74 86.28 106.96 86.42 110.76 C 84.00 111.74 81.28 112.47 79.54 114.54 C 76.52 117.79 75.14 122.11 72.52 125.64 C 75.09 126.56 77.00 128.46 78.08 130.97 C 73.92 129.13 69.71 126.51 64.94 127.31 C 61.24 127.91 57.64 126.79 54.12 125.80 C 52.99 127.17 51.84 128.51 50.67 129.84 C 50.57 129.11 50.51 128.38 50.50 127.65 C 50.97 126.37 51.41 125.08 51.81 123.78 C 49.24 120.86 46.45 118.12 43.51 115.58 C 42.51 114.82 41.38 113.58 40.00 114.30 C 37.05 115.25 34.88 117.62 32.59 119.58 C 35.09 122.56 37.84 125.31 40.77 127.86 C 43.30 127.35 46.94 125.06 49.08 127.12 C 49.54 129.33 49.44 131.62 47.96 133.45 C 47.27 133.27 45.91 132.91 45.23 132.73 L 47.65 133.81 C 41.84 136.81 35.61 139.45 28.98 139.59 C 25.78 139.09 22.98 137.31 20.07 135.99 C 13.40 144.58 7.19 153.55 0.00 161.72 L 0.00 158.90 C 6.32 150.33 13.47 142.32 19.06 133.25 C 22.94 135.63 27.09 138.02 31.85 137.37 C 32.00 136.95 32.30 136.09 32.44 135.67 C 29.00 135.79 26.12 134.00 23.26 132.37 C 21.28 128.77 20.21 123.59 23.45 120.38 C 26.88 115.95 33.71 116.76 36.97 112.14 C 31.91 114.56 25.86 115.70 21.96 120.05 C 20.20 122.73 19.80 126.04 18.70 129.01 C 19.28 130.31 19.24 131.61 18.17 132.69 C 15.26 128.74 17.04 123.35 19.31 119.54 C 23.09 115.29 28.44 111.79 34.31 111.81 C 37.61 111.52 41.42 110.56 44.27 112.78 C 47.82 115.46 50.69 118.90 54.02 121.82 C 58.65 126.58 65.79 123.57 71.55 125.19 C 72.54 119.90 75.59 115.33 79.35 111.60 C 75.61 109.04 69.79 106.46 70.53 100.97 C 70.11 98.02 72.74 96.16 74.41 94.16 C 78.45 93.25 81.61 89.05 85.91 89.90 C 81.30 83.42 85.89 74.88 91.48 70.68 C 97.59 66.34 105.66 68.74 111.28 72.73 C 114.86 75.07 115.88 79.56 116.66 83.47 C 116.13 84.01 115.08 85.10 114.55 85.64 C 113.81 82.34 114.49 77.93 111.29 75.73 C 107.39 72.87 102.87 70.48 97.95 70.18 C 95.33 69.90 93.11 71.60 91.48 73.46 C 88.67 76.68 85.76 80.47 86.08 85.01 C 85.83 88.76 89.58 90.79 91.97 93.02 C 94.46 95.81 98.51 93.88 100.48 91.44 C 104.33 87.19 110.37 86.94 115.53 85.42 C 121.22 83.80 127.32 84.06 132.88 86.06 C 136.50 87.46 139.31 90.34 142.93 91.76 C 146.84 93.53 151.04 94.50 155.02 96.07 C 157.36 93.04 160.10 90.34 163.26 88.19 C 165.59 86.32 168.81 84.52 168.88 81.15 C 169.89 77.49 164.57 74.96 166.50 71.43 C 168.40 68.13 171.82 64.69 176.00 65.56 C 179.64 66.55 182.87 68.83 185.53 71.46 C 187.17 73.22 185.58 75.70 185.29 77.66 C 188.14 77.84 191.00 77.57 193.64 76.40 C 192.09 73.40 190.67 70.33 189.86 67.04 C 188.28 66.30 186.67 65.60 185.06 64.93 C 184.35 65.60 183.64 66.27 182.93 66.95 C 182.33 66.78 181.14 66.46 180.54 66.29 C 180.54 65.79 180.55 64.80 180.55 64.30 C 179.03 63.99 177.51 63.67 176.00 63.34 C 173.53 64.32 171.08 65.34 168.66 66.43 C 168.52 65.86 168.23 64.70 168.08 64.12 M 167.76 72.20 C 168.80 74.33 171.06 75.61 171.93 77.81 C 171.89 79.97 172.27 82.52 170.56 84.19 C 166.36 88.97 160.38 91.79 156.44 96.85 C 157.98 98.56 159.27 100.48 160.47 102.44 C 159.82 102.92 159.19 103.43 158.58 103.95 C 155.58 100.84 153.15 95.09 147.91 96.26 C 149.97 98.35 152.64 100.57 152.50 103.82 C 152.96 105.33 152.38 107.65 153.69 108.67 C 157.47 107.90 161.39 107.22 165.16 108.52 C 167.84 105.57 169.04 101.67 171.42 98.51 C 175.73 92.60 180.32 86.75 182.48 79.63 C 182.04 79.11 181.59 78.59 181.15 78.08 C 183.33 77.54 185.26 74.49 183.15 72.75 C 180.44 70.33 176.92 69.11 173.76 67.40 C 171.61 68.78 169.22 70.02 167.76 72.20 M 84.32 91.39 C 80.18 93.87 75.80 96.07 72.26 99.42 C 71.25 105.65 77.88 108.64 82.90 109.66 C 84.17 105.40 85.88 101.21 88.84 97.82 C 90.65 97.45 92.40 96.84 94.22 96.46 C 93.23 95.95 92.25 95.45 91.26 94.95 C 89.47 93.22 87.14 89.55 84.32 91.39 M 22.91 124.16 C 23.95 126.95 24.23 130.02 25.78 132.60 C 27.83 132.84 29.82 133.61 31.90 133.62 C 34.29 132.30 36.50 130.68 38.88 129.32 C 35.55 126.09 32.45 122.61 29.62 118.94 C 27.11 120.30 24.82 122.04 22.91 124.16 M 42.62 129.41 C 39.45 131.70 36.25 134.54 32.25 135.09 C 32.97 135.55 33.69 136.02 34.40 136.49 C 36.48 135.86 38.56 135.22 40.60 134.50 C 42.56 132.51 44.93 131.02 47.12 129.31 C 45.62 129.31 44.12 129.35 42.62 129.41 M 201.36 163.35 C 203.76 165.80 202.27 169.29 202.24 172.26 C 204.56 169.66 206.92 167.09 209.27 164.52 C 206.58 164.65 203.86 164.41 201.36 163.35 Z" />
<path fill="#333333" opacity="1.00" d=" M 185.61 66.33 C 186.13 66.99 186.13 66.99 185.61 66.33 Z" />
<path fill="#333333" opacity="1.00" d=" M 187.50 67.36 C 188.07 68.07 188.07 68.07 187.50 67.36 Z" />
<path fill="#333333" opacity="1.00" d=" M 196.09 70.03 C 212.12 72.26 228.03 75.30 244.02 77.74 C 245.78 78.11 248.10 78.13 248.68 80.29 C 246.49 80.24 244.32 79.99 242.17 79.57 C 227.53 77.01 212.82 74.83 198.21 72.08 C 198.76 74.73 199.54 77.67 198.15 80.21 C 193.68 82.39 188.31 83.32 183.70 80.96 C 187.47 79.63 191.78 80.78 195.68 79.48 C 196.17 77.54 196.48 75.55 196.72 73.56 C 196.49 72.38 196.28 71.21 196.09 70.03 Z" />
<path fill="#333333" opacity="1.00" d=" M 104.26 85.97 C 105.39 82.57 106.44 78.36 110.01 76.75 C 109.31 79.67 107.15 82.06 107.00 85.15 C 106.08 85.42 105.17 85.70 104.26 85.97 Z" />
<path fill="#333333" opacity="1.00" d=" M 170.24 89.24 C 172.13 86.76 173.65 83.14 177.09 82.65 C 175.19 85.18 173.47 88.29 170.24 89.24 Z" />
<path fill="#333333" opacity="1.00" d=" M 117.96 98.57 C 120.92 96.49 124.42 93.63 128.27 94.91 C 124.85 96.10 121.77 99.16 117.96 98.57 Z" />
<path fill="#333333" opacity="1.00" d=" M 135.88 96.73 C 139.75 96.31 144.42 97.06 146.04 101.13 C 142.92 100.04 139.67 99.30 136.60 98.10 L 135.88 96.73 Z" />
<path fill="#333333" opacity="1.00" d=" M 127.59 99.80 C 128.87 98.56 130.68 99.14 132.25 99.10 C 131.81 99.70 130.93 100.90 130.49 101.50 C 129.75 104.29 127.92 106.57 126.38 108.96 C 126.56 111.09 126.89 113.27 126.30 115.38 C 129.03 113.52 130.76 117.19 132.56 118.52 C 129.25 119.43 126.87 116.25 124.14 114.96 C 124.62 111.28 123.93 105.86 128.31 104.36 C 127.71 102.91 127.15 101.39 127.59 99.80 Z" />
<path fill="#333333" opacity="1.00" d=" M 133.42 98.75 C 139.94 99.28 142.99 106.41 144.34 111.97 C 146.08 114.17 149.16 116.71 147.26 119.77 C 145.40 116.02 141.49 113.49 140.82 109.17 C 139.96 104.78 136.63 101.59 133.42 98.75 Z" />
<path fill="#333333" opacity="1.00" d=" M 101.58 102.63 C 105.79 99.20 112.29 98.31 116.98 101.15 C 114.06 102.09 111.00 101.44 108.01 101.62 C 105.03 101.96 103.02 104.82 100.06 105.07 C 95.75 104.88 92.84 108.88 88.56 109.13 C 91.98 105.40 97.04 104.23 101.58 102.63 Z" />
<path fill="#333333" opacity="1.00" d=" M 116.03 110.50 C 112.14 109.50 114.85 105.80 116.59 104.09 C 116.88 104.44 117.47 105.12 117.77 105.46 C 117.34 105.89 116.48 106.74 116.06 107.17 C 116.05 108.00 116.03 109.67 116.03 110.50 Z" />
<path fill="#333333" opacity="1.00" d=" M 97.61 120.16 C 99.05 116.80 99.26 112.90 101.60 109.97 C 103.19 113.66 100.56 117.24 100.72 120.96 C 105.66 124.00 111.26 125.50 116.62 127.54 C 120.41 129.18 123.17 132.34 126.41 134.79 C 129.14 137.21 132.49 139.82 132.45 143.85 C 126.82 140.54 123.72 134.31 117.92 131.24 C 111.71 129.59 105.17 127.78 100.33 123.32 C 99.45 123.76 97.69 124.63 96.80 125.07 C 103.44 130.92 111.43 134.98 118.13 140.78 C 124.73 144.83 130.78 149.67 137.06 154.20 C 137.38 154.93 138.03 156.38 138.36 157.10 C 132.87 155.92 129.57 150.78 124.83 148.25 C 116.10 152.09 107.90 157.15 99.39 161.48 C 93.90 164.50 88.23 167.18 82.80 170.31 C 80.36 168.63 77.96 166.89 75.61 165.09 C 75.27 162.09 74.93 159.09 74.77 156.08 C 80.32 152.94 85.97 149.97 91.36 146.58 C 92.04 141.48 91.48 136.27 91.49 131.13 L 93.62 131.24 C 93.66 136.81 93.96 142.40 93.54 147.96 C 88.04 150.88 82.70 154.08 77.20 156.98 C 77.22 159.24 77.04 161.53 77.48 163.76 C 79.11 165.31 80.86 166.87 82.97 167.72 C 96.13 160.88 109.26 153.94 122.34 146.94 C 118.78 143.55 114.88 140.56 111.07 137.47 C 108.69 138.78 106.26 140.09 103.59 140.72 C 103.63 140.29 103.71 139.41 103.74 138.97 C 105.52 138.05 107.29 137.11 109.05 136.16 C 104.68 133.18 100.50 129.72 95.59 127.71 C 95.19 128.13 94.40 128.97 94.00 129.39 C 93.45 128.96 92.90 128.52 92.35 128.09 C 94.58 125.81 96.74 123.30 97.61 120.16 Z" />
<path fill="#333333" opacity="1.00" d=" M 105.55 110.79 C 110.15 110.59 114.85 111.72 118.18 115.06 C 116.86 115.80 115.55 116.59 114.26 117.39 C 114.17 116.61 113.99 115.05 113.91 114.27 C 111.15 112.90 108.14 112.06 105.04 112.35 C 105.17 111.96 105.42 111.18 105.55 110.79 Z" />
<path fill="#333333" opacity="1.00" d=" M 81.42 126.19 C 84.17 121.44 88.25 116.20 94.03 115.36 C 92.44 117.99 89.53 119.33 87.42 121.48 C 85.47 123.11 84.07 125.59 81.42 126.19 Z" />
<path fill="#333333" opacity="1.00" d=" M 118.07 116.00 C 120.05 117.50 119.59 120.51 120.50 122.66 C 119.65 122.50 118.79 122.33 117.95 122.16 C 117.57 120.11 116.76 117.89 118.07 116.00 Z" />
<path fill="#333333" opacity="1.00" d=" M 125.15 121.52 C 125.89 119.25 128.87 119.12 130.88 119.13 C 134.71 120.15 137.40 123.28 140.00 126.07 C 140.90 126.95 141.34 128.05 141.31 129.38 C 137.91 127.30 135.17 124.36 131.88 122.15 C 129.87 120.82 127.39 121.59 125.15 121.52 Z" />
<path fill="#333333" opacity="1.00" d=" M 148.74 132.97 C 153.09 129.64 158.40 126.17 164.14 127.24 C 158.63 128.18 154.03 131.48 148.74 132.97 Z" />
<path fill="#333333" opacity="1.00" d=" M 76.48 139.83 C 81.42 135.94 85.95 131.41 91.75 128.76 C 91.54 129.65 91.13 131.42 90.93 132.31 C 85.47 135.24 81.53 140.16 76.33 143.46 C 72.23 142.71 68.10 144.24 64.02 143.29 C 57.71 141.70 52.40 137.73 46.38 135.41 C 46.96 134.78 47.54 134.17 48.14 133.57 C 50.24 135.10 52.89 135.41 55.18 136.54 C 58.31 138.09 61.41 139.93 64.92 140.43 C 68.78 140.80 72.65 140.25 76.48 139.83 Z" />
<path fill="#333333" opacity="1.00" d=" M 155.29 136.06 C 158.20 132.70 162.22 129.18 167.01 130.09 C 163.06 132.00 159.01 133.70 155.29 136.06 Z" />
<path fill="#333333" opacity="1.00" d=" M 152.70 144.23 C 155.09 137.57 163.34 136.79 168.73 133.45 C 168.13 135.06 167.51 136.99 165.63 137.47 C 160.98 139.04 156.78 141.55 152.70 144.23 Z" />
<path fill="#333333" opacity="1.00" d=" M 143.13 148.30 C 143.26 145.99 144.11 143.83 145.45 141.96 C 147.08 144.34 145.21 147.00 143.13 148.30 Z" />
<path fill="#333333" opacity="1.00" d=" M 156.07 150.14 C 159.48 148.34 162.89 146.06 166.82 145.68 C 165.69 148.10 163.08 148.77 160.83 149.66 C 161.42 149.66 162.62 149.65 163.22 149.65 C 163.20 150.28 163.17 151.54 163.15 152.18 C 160.62 152.20 158.08 152.20 155.54 152.17 C 155.68 151.66 155.94 150.65 156.07 150.14 Z" />
<path fill="#333333" opacity="1.00" d=" M 202.02 153.12 C 204.25 153.94 205.90 155.68 206.89 157.81 C 204.05 158.29 203.15 155.05 202.02 153.12 Z" />
<path fill="#333333" opacity="1.00" d=" M 211.28 153.12 C 213.95 154.99 215.97 157.76 218.97 159.16 C 220.82 159.26 222.66 158.91 224.49 158.65 C 224.43 159.55 224.39 160.45 224.35 161.36 C 221.78 161.67 218.72 162.52 216.56 160.63 C 214.30 158.60 211.64 156.32 211.28 153.12 Z" />
<path fill="#333333" opacity="1.00" d=" M 206.83 180.06 C 209.00 178.63 210.11 175.38 212.96 175.29 C 211.81 177.62 210.09 179.59 208.21 181.35 C 207.78 181.35 206.93 181.35 206.50 181.35 C 206.58 181.03 206.75 180.38 206.83 180.06 Z" />
<path fill="#333333" opacity="1.00" d=" M 165.36 189.27 C 166.28 187.39 166.68 184.93 168.80 184.00 C 168.43 186.06 168.30 189.55 165.36 189.27 Z" />
</g>
</svg>
