<?xml version="1.0" encoding="UTF-8" ?>
<!DOCTYPE svg PUBLIC "-//W3C//DTD SVG 1.1//EN" "http://www.w3.org/Graphics/SVG/1.1/DTD/svg11.dtd">
<svg width="225pt" height="222pt" viewBox="0 0 225 222" version="1.1" xmlns="http://www.w3.org/2000/svg"><g id="#545652ff">
<path fill="#333333" opacity="1.00" d=" M 150.08 68.58 C 153.08 67.28 155.58 65.16 158.17 63.20 C 160.12 65.29 159.83 67.93 158.45 70.24 C 158.72 70.94 159.26 72.33 159.53 73.02 C 161.78 73.11 164.19 72.69 166.19 73.99 C 169.80 76.13 173.91 77.24 177.45 79.51 C 177.93 77.85 178.55 76.24 179.11 74.61 C 184.08 74.19 188.60 76.79 192.77 79.15 C 195.65 81.03 199.03 82.89 200.41 86.23 C 200.28 88.05 199.55 89.98 197.91 90.94 C 196.31 91.01 194.73 90.83 193.18 90.39 C 191.72 93.30 190.42 96.29 189.07 99.25 C 190.35 100.90 192.23 102.95 190.94 105.17 C 190.47 107.92 187.42 108.73 185.15 107.55 C 179.61 105.28 174.23 102.24 169.86 98.12 C 167.45 96.02 169.20 93.05 170.17 90.73 C 171.45 90.69 172.73 90.65 174.01 90.63 C 169.83 89.55 165.52 89.10 161.20 89.26 C 161.06 90.47 160.92 91.67 160.79 92.88 C 161.15 93.14 161.88 93.67 162.24 93.93 C 162.86 92.66 163.49 91.40 164.20 90.18 C 166.98 88.63 164.28 93.22 164.43 94.41 C 167.57 97.39 167.48 101.93 167.98 105.92 C 168.63 111.08 166.06 117.16 160.62 118.51 C 159.45 118.77 156.62 119.64 157.15 117.53 C 160.97 116.89 164.85 115.03 165.83 110.94 C 166.14 106.29 166.14 101.55 165.31 96.95 C 164.54 95.01 162.12 95.17 160.46 94.61 C 159.68 96.71 158.86 98.80 157.81 100.78 C 156.18 103.63 157.34 107.04 157.41 110.13 C 157.94 113.85 156.98 118.40 153.51 120.43 C 149.40 122.39 144.94 123.74 140.39 124.06 C 143.93 120.14 150.72 123.35 153.72 118.74 C 157.56 114.28 155.58 108.13 155.05 102.91 C 156.37 99.29 159.11 96.09 158.97 92.03 C 158.83 89.39 159.82 86.91 161.87 85.22 C 161.94 85.92 162.08 87.32 162.15 88.02 C 167.93 87.02 175.06 86.96 178.60 92.56 C 181.75 94.12 184.71 96.04 187.61 98.02 C 188.88 95.46 190.34 92.96 191.24 90.23 C 190.26 88.49 189.14 86.72 187.42 85.64 C 185.15 83.85 181.95 84.98 179.54 83.53 C 176.23 81.52 173.49 78.71 170.20 76.67 C 167.09 74.87 163.44 74.50 160.05 73.46 C 160.77 76.52 161.92 80.50 159.56 83.16 C 156.31 86.41 156.17 91.32 155.07 95.54 C 153.84 95.41 152.52 94.47 151.33 95.16 C 150.51 96.51 149.81 97.94 149.04 99.32 C 148.17 95.96 150.59 93.21 153.86 92.82 C 154.94 90.09 155.60 87.22 155.57 84.27 C 152.26 84.42 148.72 83.43 145.55 84.64 C 142.79 85.80 142.64 89.20 143.68 91.59 C 141.63 97.58 141.65 104.04 142.54 110.24 C 141.57 110.80 140.55 111.27 139.55 111.77 L 139.11 108.98 L 140.97 108.98 C 140.52 105.26 140.48 101.50 140.93 97.78 C 138.68 97.48 136.43 97.19 134.18 96.97 C 134.87 96.49 135.57 96.02 136.29 95.56 C 137.73 95.85 139.17 96.13 140.62 96.40 C 140.97 95.09 141.34 93.79 141.74 92.50 C 141.24 91.01 140.73 89.52 140.24 88.02 C 136.95 88.80 134.51 90.90 133.88 94.36 L 136.16 95.30 C 130.68 95.52 125.24 94.92 119.95 93.49 C 116.35 92.33 113.08 94.73 109.57 95.02 C 109.64 95.35 109.79 96.00 109.87 96.32 C 106.41 97.75 103.59 100.24 100.65 102.47 C 100.62 102.89 100.57 103.72 100.55 104.13 C 98.95 104.74 97.37 105.41 95.94 106.34 C 95.44 105.86 94.94 105.38 94.46 104.89 L 95.93 103.86 C 94.55 104.42 93.19 105.01 91.82 105.60 C 92.72 106.28 93.61 106.96 94.51 107.63 C 97.92 108.84 101.43 110.39 103.86 113.17 C 104.12 113.66 104.63 114.65 104.89 115.15 L 105.32 115.69 C 107.95 118.52 108.71 122.82 107.66 126.48 C 113.13 123.54 119.60 123.36 125.56 124.62 C 130.52 125.66 135.51 124.53 140.44 123.93 C 134.84 128.32 126.95 127.61 120.53 125.68 C 116.84 124.71 113.07 125.95 109.63 127.26 C 108.57 128.57 107.06 129.19 105.44 129.49 C 103.21 135.09 96.63 137.36 91.01 137.08 C 86.75 136.68 82.77 138.28 78.83 139.65 C 76.48 138.93 74.19 139.93 71.91 140.43 C 67.21 141.67 62.24 140.33 57.59 141.93 C 57.26 141.90 56.60 141.84 56.26 141.81 C 56.01 141.60 55.49 141.17 55.23 140.96 C 54.16 148.55 59.06 155.40 58.47 163.03 C 57.68 169.41 58.32 175.82 59.45 182.12 C 60.77 187.42 64.70 192.11 64.25 197.82 C 64.35 200.26 62.71 202.20 61.17 203.90 C 55.97 204.92 50.44 205.14 45.77 207.89 C 41.78 210.15 37.28 211.17 32.98 212.63 C 29.17 212.75 25.42 211.22 22.52 208.78 C 21.41 208.20 20.33 207.58 19.28 206.91 C 19.84 202.61 24.66 200.86 28.13 199.28 C 32.75 198.46 35.40 194.32 38.19 191.02 C 33.19 191.45 29.13 194.24 25.33 197.24 C 21.87 198.47 17.99 198.15 14.44 199.24 C 12.15 200.02 10.45 198.08 8.83 196.82 C 9.25 195.25 9.55 193.63 10.14 192.11 C 12.54 189.00 17.00 188.39 19.13 184.97 C 22.28 180.45 28.15 177.86 29.18 171.99 C 30.29 164.49 26.57 157.43 26.11 150.03 C 25.84 142.39 25.09 134.79 24.53 127.17 C 24.77 123.42 26.43 119.47 30.22 118.14 C 37.39 112.68 46.01 109.02 55.02 108.27 C 57.12 108.08 58.89 106.84 60.87 106.23 C 63.94 106.27 66.95 107.11 70.03 106.94 C 73.15 107.04 75.93 105.38 78.97 104.95 C 82.26 104.70 85.52 105.44 88.77 105.82 C 91.36 103.67 94.64 102.99 97.83 102.34 C 101.40 100.07 104.94 97.71 108.92 96.19 C 108.33 95.28 107.73 94.37 107.14 93.46 C 109.27 93.53 111.43 93.45 113.41 92.56 C 117.13 90.88 121.22 92.19 125.12 91.83 C 124.59 90.16 123.32 88.89 122.28 87.53 C 126.00 89.03 130.32 89.61 134.08 87.92 C 138.04 86.20 142.52 85.19 145.64 82.00 C 149.79 80.86 153.78 84.03 157.92 82.51 C 159.55 79.25 157.92 75.54 157.72 72.12 C 157.23 71.81 156.24 71.18 155.74 70.87 C 156.71 69.13 157.65 67.37 158.22 65.46 C 156.35 66.34 154.93 67.83 153.59 69.35 C 149.33 69.27 148.41 73.53 145.99 76.04 C 139.88 77.19 133.51 76.90 127.53 78.75 C 124.92 79.46 123.15 81.65 120.78 82.80 C 118.60 84.18 116.02 84.64 113.74 85.79 C 111.56 87.24 110.27 89.71 107.89 90.92 C 108.89 88.72 110.10 86.54 111.90 84.90 C 114.05 83.69 116.54 83.16 118.54 81.68 C 121.12 79.81 123.64 77.60 126.87 77.00 C 132.71 76.02 138.76 76.13 144.47 74.47 C 146.25 72.44 147.44 69.70 150.08 68.58 M 180.42 75.86 C 179.84 77.00 179.24 78.13 178.64 79.26 C 180.28 81.60 182.68 83.14 185.52 83.61 C 188.73 84.19 190.54 87.09 193.08 88.79 C 194.75 89.08 196.45 89.06 198.15 89.13 C 197.58 88.10 197.01 87.09 196.43 86.08 C 197.15 86.44 198.60 87.16 199.32 87.52 C 198.96 86.77 198.23 85.25 197.87 84.50 C 193.02 80.20 187.01 76.39 180.42 75.86 M 126.53 93.31 C 128.58 93.38 130.63 93.42 132.68 93.48 C 132.92 92.65 133.40 91.00 133.64 90.17 C 131.22 91.00 127.55 90.30 126.53 93.31 M 171.43 91.87 C 170.85 93.21 170.26 94.55 169.67 95.89 C 174.89 101.02 181.48 106.04 189.10 106.12 C 188.64 105.09 188.17 104.08 187.69 103.06 C 188.35 103.34 189.66 103.91 190.32 104.19 C 189.72 101.90 188.18 100.05 186.27 98.72 C 181.86 95.51 176.98 92.43 171.43 91.87 M 74.18 108.08 C 75.42 108.75 76.73 109.26 78.05 109.78 C 76.78 110.65 75.46 111.42 74.10 112.12 L 73.95 113.00 C 76.04 112.98 78.14 112.96 80.23 112.98 C 82.55 114.74 85.91 113.93 88.16 115.85 C 89.29 116.71 89.58 118.20 90.16 119.43 C 89.57 120.64 89.02 121.87 88.51 123.12 C 89.20 118.41 84.22 115.11 79.93 116.18 C 80.03 115.77 80.23 114.93 80.33 114.51 C 77.28 114.83 74.23 114.72 71.18 114.52 C 71.88 113.10 72.60 111.68 73.45 110.35 C 73.73 109.93 74.29 109.11 74.56 108.70 C 70.44 108.63 66.30 108.44 62.21 107.89 C 63.88 110.32 63.00 113.42 62.84 116.13 C 60.87 114.60 61.34 111.13 59.07 110.10 C 49.87 109.49 40.82 113.07 33.38 118.26 C 31.01 119.94 27.48 120.81 26.83 124.06 C 25.11 127.26 27.73 130.54 27.16 133.86 C 27.00 139.24 26.83 144.65 27.16 150.02 C 29.05 158.15 32.50 166.66 30.05 175.05 C 29.16 179.06 25.03 180.67 22.53 183.49 C 20.37 185.65 19.05 188.88 15.93 189.86 C 13.63 190.62 11.82 192.23 10.25 194.03 C 11.41 193.84 13.74 193.46 14.90 193.27 C 13.76 194.15 12.56 194.92 11.37 195.72 C 8.77 196.90 12.83 198.24 13.95 197.63 C 17.11 196.63 20.40 196.27 23.64 195.66 C 25.89 194.32 27.79 192.46 30.10 191.22 C 33.08 189.50 36.63 189.56 39.95 189.16 C 41.46 187.26 43.39 185.54 44.00 183.10 C 45.69 178.78 43.83 174.26 42.93 169.99 C 41.40 164.80 41.49 159.27 39.69 154.15 C 38.09 149.89 38.79 145.20 37.34 140.90 C 35.68 136.24 37.17 130.17 41.64 127.66 C 45.46 125.59 48.10 121.82 52.27 120.33 C 57.67 118.20 63.07 115.29 68.95 114.99 C 76.17 119.93 81.15 129.36 79.36 138.18 C 84.07 136.32 88.92 134.46 94.09 134.70 C 100.12 134.95 104.46 129.26 106.09 124.06 C 105.82 119.71 103.68 115.41 100.56 112.36 C 92.74 107.85 83.02 105.21 74.18 108.08 M 52.15 122.10 C 48.51 123.47 46.34 126.95 42.94 128.73 C 40.22 130.01 39.54 133.15 38.12 135.53 C 38.82 139.35 40.48 143.04 40.17 147.00 C 39.87 150.82 42.50 154.03 42.60 157.82 C 43.07 166.29 46.19 174.35 46.56 182.82 C 46.41 186.20 42.97 187.70 41.04 190.00 C 37.74 193.83 35.31 199.29 29.92 200.53 C 26.54 201.86 21.90 202.99 20.68 206.87 C 21.49 206.86 23.12 206.83 23.94 206.82 C 24.85 207.82 25.76 208.82 26.70 209.80 C 33.28 211.87 39.94 208.75 45.72 205.73 C 50.61 203.24 56.41 203.64 61.32 201.32 C 64.42 198.23 61.90 193.62 60.85 190.14 C 57.00 181.68 56.35 172.13 56.96 162.97 C 57.39 155.34 53.61 148.39 52.47 140.98 C 54.90 140.02 57.41 138.73 60.11 139.41 C 66.07 140.40 72.48 139.70 77.78 136.68 C 79.34 129.25 74.61 122.11 69.69 116.94 C 63.34 116.40 57.81 119.85 52.15 122.10 Z" />
<path fill="#333333" opacity="1.00" d=" M 117.49 94.93 C 119.81 97.12 124.34 98.97 123.17 102.87 C 122.16 104.67 121.62 108.92 118.81 107.24 C 119.96 104.74 121.38 102.20 121.19 99.35 C 120.22 98.96 119.25 98.57 118.29 98.18 C 118.02 97.10 117.76 96.01 117.49 94.93 Z" />
<path fill="#333333" opacity="1.00" d=" M 109.76 102.04 C 110.76 100.28 111.89 98.59 113.29 97.12 C 112.89 98.75 112.46 100.38 112.01 102.00 C 109.71 102.90 107.38 103.74 105.05 104.59 C 103.83 103.85 102.60 103.11 101.50 102.20 C 103.37 102.39 105.19 102.89 106.96 103.51 C 107.90 103.02 108.83 102.53 109.76 102.04 Z" />
<path fill="#333333" opacity="1.00" d=" M 125.14 98.46 C 126.74 99.06 128.32 99.69 129.94 100.22 C 130.62 100.83 131.29 101.45 131.97 102.07 C 129.24 101.77 126.00 101.62 125.14 98.46 Z" />
<path fill="#333333" opacity="1.00" d=" M 132.52 99.76 C 133.62 100.37 134.72 100.97 135.84 101.54 C 136.45 101.57 137.06 101.55 137.67 101.49 C 137.93 101.69 138.44 102.10 138.69 102.30 C 138.24 102.72 137.33 103.55 136.87 103.97 C 136.57 104.75 135.98 106.32 135.68 107.11 C 134.75 104.59 134.54 101.75 132.52 99.76 Z" />
<path fill="#333333" opacity="1.00" d=" M 125.70 104.13 C 127.59 105.19 129.42 106.34 131.24 107.50 C 128.54 108.67 126.57 106.45 125.70 104.13 Z" />
<path fill="#333333" opacity="1.00" d=" M 146.73 112.35 C 148.41 109.21 150.54 106.27 153.27 103.95 C 152.43 107.58 150.06 110.67 146.73 112.35 Z" />
<path fill="#333333" opacity="1.00" d=" M 107.16 104.82 C 108.68 104.88 110.20 104.94 111.71 105.02 C 112.41 106.20 113.11 107.39 113.77 108.59 C 111.35 107.76 109.25 106.27 107.16 104.82 Z" />
<path fill="#333333" opacity="1.00" d=" M 128.38 110.91 C 130.93 109.80 132.80 107.60 135.42 106.62 C 134.78 107.70 133.95 108.60 132.92 109.31 C 133.31 110.17 133.71 111.04 134.12 111.91 C 136.33 112.04 138.82 111.39 140.72 112.88 C 139.97 114.44 139.23 116.03 137.97 117.24 C 138.41 115.85 138.89 114.48 139.43 113.13 C 136.78 114.55 133.98 115.68 131.44 117.31 C 129.59 118.53 128.55 121.04 126.12 121.25 C 124.01 121.69 121.75 121.90 119.80 120.76 C 122.02 119.74 124.38 119.13 126.79 118.80 C 127.74 118.04 128.69 117.29 129.64 116.53 C 128.34 114.95 127.50 113.09 127.72 111.01 C 125.92 110.49 124.23 109.67 122.76 108.50 C 124.51 108.67 126.25 108.88 128.00 109.12 L 128.38 110.91 M 129.78 113.99 C 131.28 114.84 132.97 114.48 134.54 114.10 C 133.12 113.10 131.83 111.92 131.14 110.27 C 130.13 111.22 129.04 112.50 129.78 113.99 Z" />
<path fill="#333333" opacity="1.00" d=" M 79.50 110.11 C 84.05 110.83 89.72 111.10 92.42 115.45 C 88.00 114.00 83.47 112.56 79.50 110.11 Z" />
<path fill="#333333" opacity="1.00" d=" M 107.74 111.27 C 110.20 111.20 112.65 111.51 115.05 112.03 C 115.21 112.53 115.52 113.53 115.68 114.03 C 112.98 113.27 110.31 112.41 107.74 111.27 Z" />
<path fill="#333333" opacity="1.00" d=" M 120.64 110.51 C 122.85 111.37 124.97 112.52 126.69 114.18 C 123.88 114.59 121.71 113.00 120.64 110.51 Z" />
<path fill="#333333" opacity="1.00" d=" M 104.06 112.77 C 107.10 112.92 110.09 113.56 112.99 114.47 C 110.00 115.60 106.29 115.21 104.06 112.77 Z" />
<path fill="#333333" opacity="1.00" d=" M 141.67 112.24 C 142.17 112.21 143.17 112.14 143.67 112.11 C 145.94 114.65 140.87 115.18 141.67 112.24 Z" />
<path fill="#333333" opacity="1.00" d=" M 119.25 115.02 C 122.56 115.46 117.51 117.87 119.25 115.02 Z" />
<path fill="#333333" opacity="1.00" d=" M 33.63 121.20 C 33.97 120.97 34.65 120.53 34.98 120.31 C 36.15 123.42 39.20 124.00 42.17 124.12 C 39.10 126.92 35.01 124.53 33.63 121.20 Z" />
<path fill="#333333" opacity="1.00" d=" M 57.65 130.16 C 61.24 126.30 65.89 123.35 71.08 122.23 C 66.71 124.99 62.93 129.25 57.65 130.16 Z" />
<path fill="#333333" opacity="1.00" d=" M 155.39 126.58 C 157.96 126.12 160.09 124.58 162.25 123.22 C 161.79 124.32 161.71 125.75 160.55 126.39 C 156.84 129.00 152.20 129.51 147.93 130.69 C 145.40 131.42 142.79 131.85 140.15 131.80 C 140.41 137.83 140.33 143.87 140.99 149.87 C 145.28 151.60 149.67 153.10 153.94 154.91 C 157.21 156.01 156.11 160.31 156.56 162.98 C 153.65 164.75 151.05 167.17 147.84 168.35 C 142.23 167.33 137.67 162.98 132.03 162.13 C 116.61 172.31 101.54 183.09 86.69 194.09 C 83.24 191.83 79.84 189.50 76.50 187.08 C 76.38 174.33 76.48 161.58 76.37 148.82 C 72.36 149.88 69.45 154.06 64.91 153.08 C 61.50 151.95 57.67 150.48 55.90 147.09 C 58.80 148.04 61.28 149.88 64.10 151.00 C 68.28 151.49 71.82 148.68 75.66 147.57 C 93.02 142.39 110.50 137.61 128.00 132.92 C 136.98 130.18 146.22 128.49 155.39 126.58 M 130.99 133.92 C 130.79 138.19 130.82 142.47 130.63 146.74 C 126.86 146.28 123.26 145.02 119.75 143.60 C 117.45 144.78 115.18 146.03 112.91 147.27 C 113.10 148.29 113.35 149.30 113.66 150.30 C 116.45 152.13 119.59 153.32 122.57 154.82 C 120.06 159.53 115.07 161.82 110.96 164.86 C 103.09 170.41 94.93 175.58 87.35 181.53 C 86.78 181.29 86.20 181.04 85.63 180.80 C 86.17 169.27 86.26 157.69 86.01 146.15 C 83.42 146.83 80.85 147.59 78.31 148.44 C 78.26 160.85 78.12 173.27 78.32 185.67 C 80.44 187.74 83.01 189.28 85.31 191.13 C 87.12 190.49 88.94 189.76 90.39 188.47 C 94.32 185.21 98.61 182.42 102.78 179.47 C 112.23 172.89 121.48 166.03 130.83 159.32 C 135.32 161.62 140.22 162.91 144.69 165.25 C 148.37 167.54 151.70 163.58 154.71 161.89 C 154.46 160.24 154.21 158.59 153.96 156.94 C 148.84 154.82 143.53 153.14 138.47 150.91 C 138.36 144.67 137.78 138.45 137.72 132.20 C 135.48 132.81 133.23 133.37 130.99 133.92 M 105.53 140.72 C 99.59 142.46 93.34 143.36 87.70 145.98 C 88.25 156.67 88.47 167.38 88.49 178.10 C 99.22 170.77 109.71 163.10 120.56 155.97 C 117.67 154.57 114.77 153.19 111.88 151.81 C 111.67 150.00 110.44 148.00 111.29 146.26 C 112.97 144.85 114.93 143.83 116.85 142.78 C 120.82 140.17 125.07 143.88 129.00 144.92 C 128.97 141.40 128.95 137.88 128.92 134.36 C 121.16 136.59 113.28 138.44 105.53 140.72 Z" />
<path fill="#333333" opacity="1.00" d=" M 29.64 126.90 C 29.98 126.65 30.66 126.16 31.00 125.91 C 32.05 127.78 33.36 129.75 32.35 131.97 C 32.64 132.00 33.22 132.04 33.51 132.06 C 32.72 134.05 32.02 136.08 30.99 137.96 C 30.87 135.91 31.07 133.89 31.58 131.91 L 30.39 132.92 C 30.43 130.88 30.10 128.87 29.64 126.90 Z" />
<path fill="#333333" opacity="1.00" d=" M 47.78 129.35 C 49.49 129.85 51.20 130.38 52.94 130.82 C 52.67 131.20 52.12 131.96 51.85 132.34 C 50.02 132.07 48.18 131.38 47.78 129.35 Z" />
<path fill="#333333" opacity="1.00" d=" M 42.51 141.49 C 43.25 138.04 42.60 132.95 47.08 132.09 C 46.48 133.11 45.86 134.12 45.22 135.12 C 45.34 137.65 44.59 139.96 42.51 141.49 Z" />
<path fill="#333333" opacity="1.00" d=" M 45.23 150.27 C 45.84 150.77 45.84 150.77 45.23 150.27 Z" />
<path fill="#333333" opacity="1.00" d=" M 49.79 157.12 C 49.22 154.84 49.65 152.48 50.31 150.27 C 50.44 157.85 53.47 164.98 53.85 172.50 C 51.21 167.79 50.87 162.30 49.79 157.12 Z" />
<path fill="#333333" opacity="1.00" d=" M 46.52 152.39 C 47.12 153.51 47.88 154.65 47.78 156.00 C 47.85 161.08 48.77 166.08 49.24 171.12 C 47.16 165.12 46.26 158.73 46.52 152.39 Z" />
<path fill="#333333" opacity="1.00" d=" M 40.06 175.17 C 40.56 175.44 41.57 175.97 42.08 176.24 C 42.74 180.75 40.00 185.49 35.89 187.40 C 37.75 184.29 39.83 181.28 41.01 177.82 C 40.69 176.94 40.37 176.05 40.06 175.17 Z" />
<path fill="#333333" opacity="1.00" d=" M 26.08 187.98 C 27.43 184.95 29.76 182.44 32.90 181.28 C 30.95 183.81 28.62 186.03 26.08 187.98 Z" />
<path fill="#333333" opacity="1.00" d=" M 54.35 194.28 C 55.20 193.52 56.17 191.05 57.07 193.16 C 56.47 195.69 53.58 196.34 51.44 196.96 C 52.26 195.91 53.27 195.05 54.35 194.28 Z" />
<path fill="#333333" opacity="1.00" d=" M 41.57 201.33 C 42.18 198.28 44.22 195.79 46.72 194.04 C 45.55 196.81 43.76 199.28 41.57 201.33 Z" />
<path fill="#333333" opacity="1.00" d=" M 26.49 204.12 C 29.43 203.11 32.90 204.18 34.47 206.94 C 31.58 206.79 28.95 205.54 26.49 204.12 Z" />
</g>
</svg>
