<?xml version="1.0" encoding="UTF-8" ?>
<!DOCTYPE svg PUBLIC "-//W3C//DTD SVG 1.1//EN" "http://www.w3.org/Graphics/SVG/1.1/DTD/svg11.dtd">
<svg width="216pt" height="300pt" viewBox="0 0 216 300" version="1.1" xmlns="http://www.w3.org/2000/svg"><g id="#4c4d48ff">
<path fill="#333333" opacity="1.00" d=" M 123.47 42.65 C 128.29 41.79 134.03 41.60 137.86 45.18 C 140.27 48.15 140.64 52.22 140.90 55.89 C 140.54 61.10 140.95 66.90 137.32 71.13 C 135.88 71.18 134.45 71.24 133.01 71.30 C 131.66 72.14 130.30 72.97 128.95 73.80 C 131.48 75.32 134.11 76.82 137.11 77.15 C 138.05 75.42 138.74 73.43 140.33 72.16 C 143.50 71.03 146.96 71.70 150.23 71.90 C 153.11 71.97 154.88 74.50 157.23 75.77 C 161.21 76.27 165.23 75.54 169.23 75.53 C 170.05 67.56 172.98 58.51 180.70 54.75 C 185.47 52.14 191.01 55.17 194.48 58.58 C 200.59 65.06 201.69 74.52 201.56 83.05 C 201.23 91.16 197.36 98.78 191.14 103.98 C 196.04 102.49 200.08 98.66 201.81 93.84 C 205.81 83.73 205.88 71.50 199.78 62.19 C 197.41 58.16 192.95 56.20 189.50 53.28 C 192.88 54.30 196.44 55.43 199.00 58.00 C 203.38 62.27 205.28 68.36 206.26 74.25 C 209.50 74.49 212.75 74.66 216.00 74.58 L 216.00 76.74 C 212.60 76.71 209.25 76.16 206.01 75.12 C 206.13 78.71 206.31 82.31 206.64 85.89 C 205.54 92.67 202.02 99.30 196.34 103.32 C 193.56 105.30 190.02 104.37 186.86 104.77 C 183.45 104.12 179.82 103.38 177.29 100.81 C 172.48 96.12 169.55 89.46 169.55 82.73 C 164.47 82.69 159.41 82.36 154.33 82.48 C 154.84 84.26 155.44 86.11 154.86 87.96 C 153.37 93.48 154.68 99.25 153.67 104.82 C 152.75 109.61 149.28 113.37 148.17 118.08 C 147.67 119.55 147.60 121.25 146.61 122.51 C 145.25 123.16 143.68 123.04 142.22 123.27 C 141.60 122.60 140.37 121.24 139.75 120.57 C 137.31 124.24 137.26 128.69 136.45 132.86 C 135.44 134.45 133.85 135.56 132.53 136.88 C 128.73 137.56 124.54 139.22 120.88 137.21 C 124.82 136.67 128.73 135.92 132.52 134.70 C 132.68 131.59 132.81 128.47 133.19 125.37 C 133.38 128.62 133.36 131.87 133.62 135.11 C 135.83 131.94 135.29 128.04 135.85 124.45 C 136.81 121.60 138.81 119.19 139.49 116.24 C 140.53 112.59 139.61 108.82 139.04 105.19 C 140.90 101.15 143.92 96.95 142.73 92.27 C 141.57 88.05 137.59 85.56 135.40 81.94 C 137.13 83.16 138.69 84.60 140.23 86.06 C 142.61 85.29 141.34 82.43 140.02 81.19 C 136.46 78.57 132.03 77.55 128.36 75.11 C 126.63 76.00 124.88 76.83 123.07 77.53 C 124.96 75.18 127.08 72.98 129.53 71.20 C 125.97 69.73 122.18 67.69 121.60 63.46 C 124.83 68.04 130.19 70.08 135.61 70.61 C 139.74 64.22 138.91 56.15 137.57 49.04 C 137.14 44.95 132.71 42.92 128.99 43.35 C 124.91 43.59 119.38 42.99 117.13 47.27 C 114.37 53.00 116.74 59.47 116.51 65.53 C 115.31 67.59 114.16 69.69 113.17 71.86 C 109.82 72.63 106.50 73.55 103.32 74.85 C 105.52 76.82 107.79 78.78 109.33 81.34 C 107.23 80.05 105.22 78.62 103.16 77.28 C 103.21 76.89 103.31 76.11 103.37 75.72 C 100.82 76.86 98.02 77.22 95.46 78.30 C 90.76 81.44 89.01 87.43 88.78 92.82 C 92.97 90.63 97.61 88.70 102.45 89.40 C 96.82 91.38 91.48 94.02 85.91 96.12 C 84.89 98.02 83.96 99.98 83.09 101.96 C 85.55 104.61 87.69 107.53 89.73 110.51 C 89.35 110.40 88.58 110.19 88.20 110.09 C 85.99 106.92 83.28 104.15 80.32 101.69 C 76.54 98.65 75.10 93.64 75.12 88.96 C 76.74 87.57 78.79 86.82 80.47 85.50 C 80.77 83.62 80.69 81.71 80.72 79.82 C 80.08 79.50 78.80 78.84 78.16 78.52 C 78.34 77.78 78.69 76.31 78.87 75.57 C 73.97 73.47 67.32 73.11 63.06 76.69 C 63.47 79.43 64.01 82.32 62.55 84.86 C 58.81 84.71 55.07 84.75 51.33 84.52 C 51.36 93.88 49.87 105.14 41.22 110.59 C 37.07 109.98 32.24 111.12 28.84 108.05 C 23.09 102.93 20.70 94.93 20.24 87.45 C 15.56 87.67 10.87 88.40 6.17 88.10 C 5.02 86.11 4.13 83.14 6.40 81.55 C 10.70 81.10 15.04 81.09 19.36 80.86 C 19.93 72.96 21.42 64.15 27.49 58.52 C 32.35 55.59 39.67 55.96 43.51 60.51 C 48.38 65.72 49.74 72.94 51.43 79.62 C 54.51 79.50 57.58 79.41 60.66 79.33 C 60.63 78.70 60.59 77.44 60.57 76.81 C 62.50 75.31 64.27 73.10 66.93 73.05 C 71.59 72.56 77.16 72.04 80.37 76.25 C 86.79 76.27 93.39 76.29 99.61 74.46 C 103.15 72.83 106.65 70.94 110.61 70.55 C 112.02 68.82 113.99 67.28 114.33 64.93 C 115.76 59.64 112.99 54.15 114.91 48.92 C 115.77 45.00 119.97 43.38 123.47 42.65 M 175.63 61.61 C 172.48 65.77 172.32 71.15 170.01 75.67 C 174.57 75.46 179.14 75.39 183.70 75.24 C 184.83 77.27 185.99 80.09 183.71 81.82 C 179.28 82.46 174.77 82.16 170.31 82.33 C 172.19 87.59 173.16 93.43 177.22 97.60 C 179.51 100.81 183.48 101.68 187.07 102.60 C 195.40 100.21 198.97 90.86 199.35 82.94 C 200.41 75.52 198.64 67.73 194.34 61.58 C 192.39 58.52 188.85 57.18 185.95 55.24 C 181.69 55.56 177.89 58.03 175.63 61.61 M 27.52 60.60 C 22.22 66.04 21.90 73.97 20.21 80.94 C 24.11 80.23 28.06 79.78 32.04 79.83 C 32.70 81.94 33.06 84.13 33.27 86.34 C 29.25 87.19 25.13 87.28 21.03 87.31 C 22.73 94.48 24.27 103.21 31.22 107.21 C 35.55 108.12 41.29 109.60 44.34 105.31 C 48.98 99.31 50.00 91.29 49.94 83.92 C 49.39 74.32 46.60 63.35 37.54 58.35 C 34.17 58.84 30.05 57.65 27.52 60.60 M 138.54 76.73 C 139.51 76.94 141.45 77.35 142.43 77.55 C 142.21 78.06 141.78 79.09 141.56 79.60 C 143.58 82.15 144.02 85.34 144.19 88.48 C 143.83 88.67 143.12 89.06 142.76 89.26 C 143.86 91.33 144.84 93.60 144.67 96.01 C 144.07 99.46 142.15 102.52 141.45 105.93 C 143.19 110.60 142.85 115.62 140.88 120.15 C 142.31 120.90 143.80 121.67 145.46 121.31 C 145.61 118.32 146.17 115.30 148.15 112.95 C 152.04 107.89 152.28 101.19 152.05 95.08 C 151.48 91.31 153.62 87.77 153.00 84.00 C 152.45 81.73 154.05 79.84 154.93 77.90 C 154.01 76.58 153.22 75.14 152.05 74.02 C 149.03 73.39 145.91 73.63 142.86 73.80 C 141.21 74.37 140.04 75.86 138.54 76.73 M 181.53 77.04 C 175.36 77.93 169.12 78.08 162.90 77.87 C 160.12 77.91 156.07 76.95 155.89 80.85 C 161.26 80.88 166.61 80.24 171.99 80.24 C 176.09 80.01 180.34 80.54 184.28 79.14 C 183.37 78.43 182.45 77.73 181.53 77.04 M 80.99 78.11 C 81.49 78.87 82.49 80.38 82.99 81.14 C 85.04 81.25 87.08 81.49 89.10 81.84 C 89.86 80.59 90.62 79.34 91.40 78.09 C 87.93 78.07 84.46 78.05 80.99 78.11 M 50.97 80.08 C 51.08 81.30 51.20 82.53 51.31 83.75 C 54.36 83.35 57.41 83.65 60.39 84.30 C 61.15 82.97 61.89 81.62 62.57 80.26 C 58.72 80.41 54.70 81.59 50.97 80.08 M 9.61 83.14 C 9.69 83.90 9.86 85.42 9.95 86.17 C 17.34 85.91 24.70 85.05 32.10 84.72 C 31.80 83.80 31.49 82.88 31.18 81.97 C 23.99 82.33 16.81 83.03 9.61 83.14 M 7.11 83.50 C 6.25 84.74 6.48 85.47 7.79 85.71 C 8.62 84.47 8.40 83.73 7.11 83.50 M 83.07 82.78 C 82.77 84.21 82.64 85.69 82.11 87.07 C 80.55 88.36 78.52 88.91 76.82 90.01 C 76.85 94.31 78.70 98.47 82.01 101.25 C 82.40 97.84 84.49 95.18 86.83 92.85 C 87.09 89.53 87.87 86.30 88.90 83.15 C 86.95 83.03 85.01 82.89 83.07 82.78 Z" />
<path fill="#333333" opacity="1.00" d=" M 35.04 59.95 C 36.41 60.52 38.10 60.79 38.80 62.29 C 45.12 72.50 46.43 85.45 43.46 96.99 C 42.33 100.92 41.10 105.58 36.89 107.26 C 39.03 103.08 41.71 99.09 42.48 94.36 C 43.92 85.91 43.64 76.92 40.38 68.90 C 39.09 65.65 36.79 62.95 35.04 59.95 Z" />
<path fill="#333333" opacity="1.00" d=" M 109.71 80.02 C 114.70 79.66 119.81 79.86 124.60 81.41 C 125.94 82.38 126.58 83.97 127.33 85.38 C 125.96 84.46 124.66 83.43 123.39 82.38 C 119.22 81.97 115.01 81.08 110.82 81.83 C 110.54 81.38 109.99 80.47 109.71 80.02 Z" />
<path fill="#333333" opacity="1.00" d=" M 207.74 79.90 C 210.09 78.47 213.31 79.58 216.00 79.26 L 216.00 81.47 C 213.24 81.22 210.44 81.39 207.70 80.96 C 207.71 80.70 207.73 80.16 207.74 79.90 Z" />
<path fill="#333333" opacity="1.00" d=" M 129.22 81.26 C 131.14 79.83 133.46 80.58 135.54 81.15 C 134.25 81.37 132.96 81.57 131.67 81.78 C 130.68 82.57 129.67 83.35 128.64 84.11 C 128.79 83.40 129.08 81.97 129.22 81.26 Z" />
<path fill="#333333" opacity="1.00" d=" M 62.76 84.80 C 64.05 86.14 65.20 87.61 66.32 89.11 C 66.59 88.64 67.14 87.70 67.41 87.23 C 65.94 97.09 69.45 107.07 74.46 115.44 C 76.52 119.20 77.79 123.72 81.69 126.08 C 85.83 122.50 91.40 119.95 93.42 114.51 C 94.93 110.84 97.53 107.78 99.24 104.22 C 96.23 106.67 92.03 109.13 88.35 106.48 C 94.36 106.02 99.12 101.83 103.18 97.74 C 101.75 102.54 100.55 107.57 97.18 111.46 C 99.40 115.97 101.00 120.93 100.90 126.01 C 101.04 129.01 100.55 132.75 103.43 134.70 C 108.44 137.73 114.50 138.31 120.22 137.59 C 120.19 138.00 120.14 138.82 120.11 139.22 C 114.59 139.43 109.00 139.06 103.74 137.27 C 101.98 136.80 100.97 135.19 99.74 133.99 C 99.62 137.98 94.75 139.02 94.46 142.88 C 93.58 148.04 93.59 153.31 93.43 158.52 L 94.76 158.44 C 95.01 164.29 92.64 169.82 91.92 175.58 C 98.93 179.12 107.36 183.40 115.09 179.33 C 115.85 180.42 116.55 181.55 117.26 182.67 C 116.54 185.20 116.29 187.83 116.21 190.46 C 120.89 198.61 117.11 208.34 120.88 216.74 C 120.42 216.53 119.51 216.11 119.05 215.90 C 119.06 223.21 115.08 229.82 115.22 237.11 C 117.14 243.42 119.72 250.08 117.68 256.73 C 118.14 257.40 118.60 258.06 119.08 258.72 C 119.41 256.78 118.86 254.13 121.37 253.67 C 121.04 256.02 120.59 258.35 120.18 260.69 C 121.34 262.86 121.72 265.27 121.64 267.71 C 121.19 267.65 120.29 267.51 119.84 267.44 C 119.14 264.38 118.42 261.31 117.33 258.36 C 115.56 260.75 111.72 262.59 112.33 266.04 C 114.78 269.49 119.21 270.23 122.66 272.28 C 124.76 274.85 126.06 278.08 126.84 281.30 C 128.28 281.82 129.72 282.33 131.17 282.85 C 132.84 284.03 134.77 284.55 136.81 284.50 C 138.51 283.03 140.27 281.63 142.03 280.25 C 141.61 279.62 140.76 278.37 140.34 277.75 C 138.33 276.68 135.69 275.91 134.71 273.67 C 133.52 268.11 132.11 262.58 129.86 257.35 C 129.24 252.33 127.88 247.05 129.81 242.13 C 131.81 233.91 131.22 225.29 131.06 216.91 C 133.02 209.68 135.96 202.34 134.47 194.70 C 134.78 194.16 135.38 193.08 135.69 192.54 C 133.90 194.86 132.15 197.28 129.67 198.92 C 128.52 196.81 125.77 198.37 124.59 196.76 C 124.77 195.21 123.86 193.93 123.14 192.65 C 123.75 192.87 124.95 193.30 125.55 193.52 C 125.56 194.67 125.99 195.58 126.84 196.25 C 131.80 197.83 132.87 191.47 133.72 188.03 C 134.03 188.08 134.66 188.19 134.97 188.24 C 135.33 189.73 135.71 191.22 136.13 192.69 C 138.50 187.91 138.83 182.64 139.01 177.40 C 132.58 181.00 124.88 181.08 117.89 179.47 C 117.44 178.99 117.00 178.51 116.57 178.02 C 119.82 176.34 118.34 172.35 118.81 169.44 C 120.43 168.00 121.94 166.43 123.28 164.73 C 123.74 164.70 124.66 164.64 125.13 164.61 C 124.26 167.05 122.43 168.89 120.85 170.89 C 120.39 173.27 120.53 175.72 120.46 178.13 C 126.79 179.09 133.48 178.27 139.03 174.95 C 139.67 168.69 136.98 162.82 136.05 156.72 C 136.88 154.03 135.86 151.42 134.99 148.91 C 135.48 146.59 136.66 144.48 137.40 142.24 C 136.57 140.61 135.80 138.95 135.11 137.25 C 135.56 136.38 136.01 135.50 136.45 134.63 C 137.26 136.98 138.54 139.16 139.28 141.54 C 139.20 143.87 138.15 146.06 137.49 148.28 C 137.99 150.90 140.23 153.82 138.08 156.28 C 139.15 161.18 140.50 166.03 141.33 170.97 C 141.23 177.88 140.99 184.96 138.24 191.41 C 136.34 195.38 137.86 199.84 136.58 203.93 C 135.47 208.26 134.08 212.52 133.12 216.88 C 132.80 220.59 133.75 224.27 133.72 227.98 C 133.69 234.77 131.78 241.34 130.81 248.01 C 131.01 251.00 131.23 254.02 131.89 256.95 C 134.66 262.14 134.55 268.34 137.68 273.41 C 138.97 274.63 140.16 275.95 141.20 277.40 C 142.20 277.61 143.21 277.81 144.21 278.02 C 145.47 283.19 139.61 287.17 134.97 286.01 C 131.51 285.45 127.64 285.36 124.77 283.10 C 123.37 280.93 123.01 278.25 121.55 276.10 C 119.58 272.14 113.70 272.35 112.18 267.96 C 109.82 263.45 113.54 259.22 116.67 256.33 C 116.43 252.15 116.04 247.95 114.85 243.92 C 114.05 240.97 112.70 238.09 112.94 234.97 C 112.94 229.99 115.47 225.55 116.47 220.78 C 117.74 215.88 116.05 210.84 116.80 205.89 C 117.49 201.19 116.30 196.58 115.63 191.97 C 114.64 195.54 112.91 198.79 110.96 201.90 C 112.01 208.72 106.75 213.78 104.99 219.92 C 101.66 226.14 102.73 233.43 101.02 240.08 C 100.09 245.40 96.37 250.27 97.57 255.87 C 97.95 263.97 102.59 270.98 103.86 278.89 C 104.92 283.28 110.21 283.90 113.78 285.26 C 113.04 285.24 112.31 285.24 111.57 285.23 C 111.49 286.72 111.40 288.23 111.27 289.73 C 110.14 290.32 109.02 290.95 107.90 291.57 C 102.11 291.99 95.92 294.46 90.33 291.64 C 85.93 290.03 85.79 284.68 84.37 280.93 C 83.68 277.95 81.19 275.91 80.05 273.14 C 79.23 269.78 79.48 266.22 80.92 263.06 C 81.67 264.36 82.28 265.72 82.90 267.09 C 82.99 266.06 83.16 263.99 83.24 262.95 C 82.79 263.11 81.88 263.41 81.42 263.56 C 81.98 261.14 83.28 258.69 82.72 256.14 C 81.46 249.89 79.83 243.52 80.83 237.11 C 81.48 230.45 84.71 224.51 87.53 218.58 C 89.65 214.12 88.92 209.02 90.55 204.45 C 92.72 199.92 91.04 194.85 91.03 190.08 C 91.06 186.16 90.44 182.18 91.18 178.30 C 90.56 177.61 89.99 176.89 89.45 176.14 C 91.13 172.06 91.05 167.56 92.46 163.42 C 93.76 159.94 91.43 156.45 91.87 152.92 C 92.36 149.32 92.19 145.66 92.69 142.07 C 93.11 138.14 97.92 136.86 98.34 132.89 C 99.69 126.49 99.45 119.52 96.38 113.62 C 93.82 119.88 88.06 123.67 82.74 127.41 C 79.83 126.23 77.13 124.33 75.69 121.46 C 73.22 116.26 69.89 111.45 68.26 105.88 C 67.11 102.29 66.32 98.59 65.79 94.85 C 65.52 91.28 63.14 88.34 62.76 84.80 M 93.61 179.04 C 92.56 184.94 92.63 190.93 93.66 196.83 C 94.91 202.06 91.63 206.72 91.44 211.85 C 90.98 218.08 86.97 223.10 84.94 228.83 C 82.06 235.45 82.31 242.93 83.73 249.88 C 85.00 255.70 85.21 261.67 85.62 267.59 C 86.64 265.59 87.56 263.55 88.76 261.66 C 88.59 263.65 88.20 265.61 87.50 267.48 C 87.65 268.85 88.14 270.16 88.15 271.56 C 87.10 270.21 86.06 268.85 85.03 267.50 C 84.62 267.44 83.80 267.32 83.39 267.26 C 83.10 267.27 82.54 267.28 82.25 267.29 C 81.80 267.65 80.88 268.37 80.43 268.73 C 81.59 272.02 83.25 275.08 84.99 278.09 C 86.84 282.26 87.88 287.28 92.09 289.81 C 93.53 289.65 95.02 289.29 96.44 289.82 C 100.96 291.46 105.60 289.07 110.11 288.52 C 109.70 287.38 109.28 286.25 108.83 285.13 C 108.17 285.29 106.84 285.60 106.17 285.76 C 104.45 284.05 102.03 282.55 101.79 279.89 C 100.82 273.64 97.44 268.18 96.18 262.01 C 95.17 262.44 94.15 262.87 93.13 263.29 C 93.36 262.74 93.81 261.65 94.04 261.10 C 94.53 260.84 95.51 260.32 96.00 260.06 C 95.65 256.36 94.89 252.53 95.93 248.87 C 97.30 244.26 99.90 239.91 99.95 234.98 C 100.04 230.55 100.19 225.97 101.94 221.83 C 103.58 218.14 104.54 214.14 106.77 210.73 C 108.86 207.77 108.73 203.97 110.44 200.85 C 110.68 200.05 110.93 199.26 111.18 198.46 C 113.70 193.73 114.39 188.30 114.34 183.01 C 107.14 183.97 99.99 182.40 93.61 179.04 Z" />
<path fill="#333333" opacity="1.00" d=" M 103.18 90.94 C 104.40 89.90 105.51 87.88 107.43 88.33 C 109.07 88.78 110.05 90.29 110.21 91.92 C 109.13 91.39 108.06 90.84 107.00 90.27 C 106.05 90.44 104.14 90.77 103.18 90.94 Z" />
<path fill="#333333" opacity="1.00" d=" M 106.14 93.10 C 108.61 95.44 109.97 98.60 112.01 101.26 C 116.40 103.93 121.77 103.45 126.66 102.97 C 127.85 101.22 129.11 99.40 131.24 98.73 C 130.52 100.92 129.82 103.54 127.34 104.30 C 122.04 106.05 116.08 105.25 111.04 102.98 C 108.71 100.16 106.07 96.97 106.14 93.10 Z" />
<path fill="#333333" opacity="1.00" d=" M 131.51 100.78 C 133.89 101.20 136.48 101.30 138.37 103.02 C 136.13 103.10 133.90 103.05 131.66 103.02 C 131.61 102.27 131.56 101.53 131.51 100.78 Z" />
<path fill="#333333" opacity="1.00" d=" M 130.80 107.52 C 131.56 107.08 132.32 106.64 133.07 106.20 C 133.87 106.89 134.66 107.57 135.45 108.26 C 136.30 110.00 137.29 111.66 138.20 113.37 C 135.90 112.28 135.26 109.12 133.20 108.16 C 133.98 113.85 132.35 119.67 129.36 124.51 C 128.34 126.50 128.45 128.91 127.05 130.75 C 127.08 128.47 126.26 125.77 127.87 123.83 C 131.02 119.23 133.41 112.89 130.80 107.52 Z" />
<path fill="#333333" opacity="1.00" d=" M 105.08 109.55 C 107.69 109.85 109.74 108.45 111.51 106.73 C 111.15 107.93 110.78 109.12 110.41 110.32 C 112.16 111.50 113.93 112.69 115.44 114.19 C 113.18 113.46 110.98 112.44 109.31 110.71 C 107.90 110.75 106.49 110.80 105.08 110.84 C 105.08 110.52 105.08 109.87 105.08 109.55 Z" />
<path fill="#333333" opacity="1.00" d=" M 123.51 110.78 C 124.84 108.80 126.77 107.38 129.08 106.73 C 126.46 109.83 123.63 112.87 119.56 113.99 C 119.13 117.46 117.84 120.97 114.47 122.58 C 115.65 119.98 116.87 117.40 117.99 114.78 C 118.72 112.30 121.51 111.85 123.51 110.78 Z" />
<path fill="#333333" opacity="1.00" d=" M 106.34 115.38 C 107.36 114.73 108.08 113.72 108.90 112.84 C 109.60 115.32 111.55 117.04 113.16 118.92 C 111.55 118.19 109.96 117.41 108.37 116.62 C 105.77 117.69 103.81 116.55 102.54 114.26 C 103.80 114.65 105.06 115.02 106.34 115.38 Z" />
<path fill="#333333" opacity="1.00" d=" M 99.44 182.44 C 100.48 184.33 100.34 186.51 99.08 188.28 C 98.92 186.32 99.01 184.35 99.44 182.44 Z" />
<path fill="#333333" opacity="1.00" d=" M 97.46 198.74 C 99.55 196.68 102.63 196.37 105.30 195.44 C 105.32 195.92 105.36 196.88 105.38 197.36 C 102.81 198.16 100.16 198.70 97.46 198.74 Z" />
<path fill="#333333" opacity="1.00" d=" M 126.66 200.37 C 128.35 201.93 129.86 203.68 131.41 205.39 C 129.17 208.19 126.64 203.44 125.52 201.75 C 125.80 201.40 126.37 200.72 126.66 200.37 Z" />
<path fill="#333333" opacity="1.00" d=" M 96.47 202.73 C 99.34 202.16 99.89 204.93 100.75 206.92 C 102.78 207.16 104.82 206.96 106.84 206.74 C 106.10 208.21 105.11 210.51 103.07 209.92 C 99.37 209.49 97.23 206.07 96.47 202.73 Z" />
<path fill="#333333" opacity="1.00" d=" M 128.44 214.53 C 124.88 214.69 124.43 208.89 127.47 207.59 C 127.87 209.89 128.38 212.19 128.44 214.53 Z" />
<path fill="#333333" opacity="1.00" d=" M 95.21 211.76 C 95.77 211.72 96.90 211.63 97.46 211.59 C 97.47 212.91 97.47 214.24 97.51 215.57 C 98.07 216.70 98.40 217.89 98.51 219.15 C 96.65 217.10 95.44 214.53 95.21 211.76 Z" />
<path fill="#333333" opacity="1.00" d=" M 122.58 221.18 C 123.05 221.23 124.00 221.32 124.48 221.37 C 125.16 227.23 126.10 233.21 124.99 239.08 C 124.58 240.05 124.19 241.03 123.79 242.01 C 124.08 235.03 123.53 228.09 122.58 221.18 Z" />
<path fill="#333333" opacity="1.00" d=" M 91.86 230.85 C 93.05 227.81 91.85 223.92 94.51 221.51 C 94.89 225.16 94.90 228.95 93.55 232.42 C 91.09 238.68 92.72 245.52 91.33 251.99 C 91.17 251.96 90.84 251.89 90.68 251.86 C 89.24 244.89 89.64 237.62 91.86 230.85 Z" />
<path fill="#333333" opacity="1.00" d=" M 87.92 226.59 C 88.36 226.50 89.24 226.33 89.69 226.25 C 87.62 232.14 85.62 238.18 86.32 244.53 C 85.89 244.48 85.05 244.39 84.62 244.34 C 84.07 238.18 85.42 232.20 87.92 226.59 Z" />
<path fill="#333333" opacity="1.00" d=" M 124.70 244.53 C 125.13 244.51 126.00 244.47 126.43 244.45 C 126.56 247.44 126.64 250.43 126.56 253.43 C 123.61 251.59 125.30 247.40 124.70 244.53 Z" />
<path fill="#333333" opacity="1.00" d=" M 91.54 258.98 C 94.46 257.95 93.03 262.37 90.86 261.91 C 89.12 261.60 90.48 259.29 91.54 258.98 Z" />
<path fill="#333333" opacity="1.00" d=" M 127.24 260.54 C 129.93 263.90 130.85 268.23 131.63 272.36 C 127.99 269.81 128.28 264.48 127.24 260.54 Z" />
<path fill="#333333" opacity="1.00" d=" M 90.01 266.82 C 90.45 266.71 91.33 266.48 91.77 266.37 C 91.59 271.25 91.06 276.11 91.03 280.99 C 90.52 280.96 89.50 280.88 88.99 280.84 C 89.46 276.18 89.97 271.51 90.01 266.82 Z" />
<path fill="#333333" opacity="1.00" d=" M 93.89 284.72 C 97.35 284.54 100.98 284.28 104.12 286.06 C 100.96 288.19 96.99 286.30 93.48 286.65 C 93.59 286.17 93.79 285.20 93.89 284.72 Z" />
</g>
</svg>
