<?xml version="1.0" encoding="UTF-8" ?>
<!DOCTYPE svg PUBLIC "-//W3C//DTD SVG 1.1//EN" "http://www.w3.org/Graphics/SVG/1.1/DTD/svg11.dtd">
<svg width="236pt" height="200pt" viewBox="0 0 236 200" version="1.1" xmlns="http://www.w3.org/2000/svg"><g id="#30322eff">
<path fill="#333333" opacity="1.00" d=" M 110.19 22.19 C 113.55 19.10 118.46 17.69 122.96 18.49 C 126.87 20.05 130.61 22.90 131.94 27.07 C 133.14 32.25 132.13 37.63 130.43 42.58 C 134.52 43.11 138.68 42.83 142.76 43.51 C 147.11 44.66 150.97 47.39 155.56 47.64 C 160.12 48.18 164.07 51.62 168.82 50.52 C 175.38 51.51 181.42 54.75 186.88 58.41 C 190.26 60.92 194.73 60.51 198.70 60.81 C 200.28 59.37 201.30 57.40 203.00 56.08 C 205.35 54.99 207.91 54.46 210.34 53.58 C 213.68 55.26 217.56 58.49 216.76 62.66 C 214.86 65.70 212.21 68.30 208.90 69.78 C 206.69 74.67 200.89 75.52 196.58 77.78 C 194.51 79.16 192.21 77.97 190.08 77.53 C 187.30 79.25 184.65 81.19 181.82 82.84 C 177.73 87.63 171.22 89.39 167.41 94.46 C 164.47 95.26 162.15 97.31 159.39 98.51 C 160.44 96.55 162.24 95.24 164.01 93.99 C 164.07 93.19 164.21 91.60 164.27 90.80 C 165.60 90.82 166.92 90.87 168.24 90.94 C 170.14 89.58 172.03 88.21 174.02 86.97 C 173.82 86.46 173.44 85.44 173.25 84.93 C 174.16 84.47 175.07 84.01 175.99 83.56 C 178.75 84.38 180.74 82.20 182.73 80.70 C 183.21 80.62 184.18 80.46 184.67 80.38 C 186.96 78.77 189.80 77.55 190.89 74.76 C 191.90 72.28 194.12 70.73 196.09 69.07 C 190.16 69.73 183.87 70.69 178.13 68.47 C 173.39 66.87 168.44 66.00 163.69 64.43 C 157.90 67.80 151.09 65.27 144.98 64.27 C 142.98 67.85 141.98 72.02 138.96 74.96 C 137.05 76.76 136.09 79.16 135.45 81.64 C 134.77 84.78 131.00 86.08 130.71 89.37 C 131.63 89.51 133.46 89.78 134.38 89.92 C 133.95 90.47 133.52 91.03 133.08 91.58 C 130.77 89.72 128.13 90.09 126.16 92.25 L 126.10 91.31 C 125.97 91.85 125.71 92.93 125.58 93.47 C 129.59 92.52 133.60 93.36 137.44 94.57 L 134.54 92.87 C 135.09 92.37 135.65 91.87 136.22 91.38 C 140.73 96.06 146.42 101.01 146.60 108.02 C 146.63 112.79 144.27 117.25 144.40 122.04 C 144.32 127.89 143.78 133.79 142.30 139.46 C 140.25 144.47 138.78 149.70 137.85 155.03 C 138.11 157.31 138.45 159.58 138.65 161.87 L 139.80 161.33 C 139.66 161.79 139.38 162.71 139.24 163.16 C 142.20 162.90 145.17 162.87 148.14 162.87 C 148.64 160.76 149.90 157.76 147.57 156.27 C 145.29 153.65 141.59 155.82 138.82 154.50 C 138.97 154.18 139.28 153.54 139.43 153.23 C 143.19 152.56 146.89 153.04 150.11 155.15 C 151.99 158.13 150.33 161.49 150.09 164.67 C 146.67 165.30 143.15 165.11 140.02 163.50 C 141.96 167.35 144.03 171.15 145.71 175.11 C 146.66 178.02 144.04 180.38 142.07 182.07 C 137.24 186.38 128.88 186.45 124.54 181.40 C 124.99 180.73 125.44 180.06 125.89 179.40 C 130.41 186.12 140.58 183.20 143.93 176.80 C 142.51 172.78 141.60 168.41 138.94 164.96 C 137.63 163.09 137.26 160.77 136.50 158.65 C 134.94 158.09 133.54 157.26 132.31 156.15 C 133.17 156.29 134.89 156.57 135.75 156.71 C 136.31 150.75 138.16 145.01 140.28 139.44 C 141.64 133.45 143.02 127.35 142.21 121.16 C 143.02 115.17 146.34 109.24 143.85 103.17 C 141.45 100.80 139.61 97.73 136.74 95.91 C 132.44 94.80 127.52 94.21 123.54 96.62 C 120.91 99.50 119.02 102.97 116.56 106.00 C 116.53 107.46 116.49 108.92 116.46 110.38 C 118.72 112.67 121.58 114.86 125.03 113.92 C 127.24 112.90 124.53 110.48 124.45 108.80 C 127.50 110.33 128.65 113.91 129.21 117.04 C 129.78 121.00 127.13 124.36 126.57 128.14 C 125.11 135.76 128.52 143.41 126.89 151.02 C 126.28 155.31 124.30 159.63 125.59 163.98 C 126.87 167.79 125.53 172.03 123.28 175.19 C 123.39 172.84 123.50 170.51 123.63 168.17 L 125.51 167.66 C 124.93 167.55 123.77 167.33 123.19 167.23 C 122.61 162.55 123.30 157.85 124.40 153.31 C 122.83 153.38 121.26 153.45 119.69 153.51 C 119.50 143.44 120.05 133.35 119.51 123.29 C 116.82 123.41 114.14 123.59 111.45 123.70 C 113.95 131.85 111.79 140.63 114.24 148.82 C 115.01 151.91 117.16 154.52 117.50 157.74 C 118.10 161.91 119.10 166.17 121.45 169.73 C 122.62 174.45 124.88 179.87 121.24 184.15 C 117.27 185.73 113.06 186.70 108.77 186.42 C 108.62 185.78 108.32 184.52 108.17 183.89 C 110.44 184.23 112.74 185.10 115.05 184.65 C 117.69 183.48 119.57 181.27 121.18 178.96 C 120.04 171.81 116.25 165.29 116.10 157.98 C 114.90 154.54 113.03 151.32 112.28 147.71 C 110.12 141.06 111.48 133.98 110.39 127.18 C 108.59 120.95 105.55 115.08 104.40 108.66 C 105.55 109.58 106.67 110.54 107.77 111.53 C 108.57 111.23 110.17 110.63 110.97 110.33 C 111.20 109.50 111.41 108.67 111.62 107.83 C 112.40 109.39 113.89 110.18 115.47 110.76 C 114.61 105.15 117.65 100.13 121.16 96.07 C 122.21 94.71 123.99 94.39 125.52 93.83 C 124.91 93.38 124.30 92.94 123.70 92.51 C 121.11 92.91 118.56 93.52 115.96 93.88 C 113.17 93.86 110.70 92.35 108.03 91.78 C 106.45 91.64 105.49 93.11 104.29 93.85 C 105.96 94.86 108.37 95.42 109.06 97.51 C 109.95 100.30 110.36 103.21 110.83 106.09 C 108.13 102.66 107.85 97.63 104.02 95.11 C 99.37 92.01 93.01 92.26 88.50 95.55 C 88.00 94.72 87.50 93.90 86.99 93.09 C 86.12 97.46 86.61 101.97 85.28 106.28 C 86.00 107.75 86.71 109.24 87.40 110.73 C 88.11 110.65 89.52 110.50 90.22 110.43 C 90.74 118.84 89.71 127.92 94.22 135.49 C 96.65 141.84 102.19 146.49 103.97 153.14 C 104.71 155.53 103.19 157.82 102.72 160.11 C 103.09 162.75 104.51 165.39 103.65 168.08 C 103.01 170.42 102.15 172.71 101.51 175.05 C 103.18 178.17 104.25 181.56 103.45 185.14 C 101.60 181.88 100.12 178.43 98.86 174.91 C 99.98 171.37 102.05 168.02 101.65 164.14 C 95.98 164.23 90.11 165.58 84.57 163.98 C 84.27 161.14 84.07 158.30 83.79 155.46 C 84.34 154.80 84.88 154.14 85.43 153.48 C 90.57 152.92 95.75 152.98 100.92 152.98 C 100.24 148.09 97.08 143.96 94.50 139.86 C 92.38 135.59 89.51 131.64 88.33 126.95 C 87.96 124.28 88.45 121.58 88.13 118.91 C 86.82 114.44 83.12 110.84 82.92 106.03 C 83.23 102.98 84.19 100.05 84.75 97.05 C 84.92 94.26 87.34 92.49 88.93 90.46 L 88.11 92.22 C 88.90 92.58 89.68 92.94 90.47 93.30 L 89.70 92.05 C 90.84 91.77 93.10 91.20 94.23 90.91 C 94.19 90.18 94.16 89.45 94.13 88.72 C 93.15 88.90 91.19 89.25 90.21 89.43 C 90.34 89.25 90.60 88.90 90.73 88.73 C 88.46 85.09 89.31 80.56 87.34 76.85 C 85.27 72.86 84.40 68.40 83.13 64.12 C 76.95 64.82 71.26 67.82 64.98 67.95 C 59.03 70.46 52.81 73.54 46.21 73.23 C 41.99 71.95 37.60 71.67 33.22 71.96 C 34.10 74.11 34.62 76.40 34.18 78.73 C 38.96 81.37 43.14 84.94 47.88 87.66 C 48.66 87.42 50.23 86.93 51.02 86.68 C 50.85 87.18 50.51 88.19 50.34 88.70 C 54.58 90.69 58.08 93.88 61.85 96.61 C 62.00 97.04 62.30 97.90 62.45 98.33 C 59.21 96.02 55.89 93.83 52.79 91.35 C 51.85 91.98 50.89 92.56 49.89 93.09 C 48.09 92.85 47.65 90.91 46.82 89.62 C 41.98 86.20 36.95 83.02 32.70 78.85 C 32.50 77.74 32.35 76.62 32.25 75.49 C 31.87 75.20 31.10 74.61 30.71 74.32 C 30.45 75.45 29.92 77.72 29.65 78.85 C 28.86 77.13 28.32 75.31 27.40 73.65 C 24.06 69.78 19.24 67.92 14.74 65.79 C 14.85 65.46 15.08 64.80 15.20 64.47 C 18.07 65.73 21.04 66.78 23.80 68.28 C 26.05 69.96 28.02 71.99 30.18 73.78 L 29.08 73.87 C 30.26 74.04 31.44 74.25 32.62 74.47 C 27.63 69.83 21.97 66.05 16.24 62.38 C 17.45 62.60 19.87 63.03 21.08 63.24 C 19.24 61.60 17.35 59.98 15.20 58.76 C 14.44 59.28 12.92 60.32 12.16 60.83 C 12.72 60.93 13.84 61.11 14.40 61.21 C 13.85 62.81 13.31 64.42 12.85 66.05 C 14.11 66.76 15.35 67.50 16.58 68.25 C 15.14 68.20 13.31 69.21 12.14 67.98 C 11.14 66.52 10.76 64.76 10.17 63.13 L 11.40 63.33 C 10.97 62.63 10.53 61.93 10.09 61.24 C 8.67 62.34 7.22 63.42 5.78 64.51 C 6.35 69.06 8.85 74.75 14.08 75.12 C 16.44 75.97 18.68 74.73 20.83 73.91 C 22.74 73.04 24.88 73.75 26.86 73.90 C 24.73 76.38 21.07 75.07 18.51 76.84 C 23.09 79.51 28.41 80.86 33.69 79.89 C 33.10 81.47 31.86 82.65 30.06 82.36 C 25.38 82.46 21.26 79.90 17.34 77.67 C 13.81 76.48 9.12 76.59 7.15 72.81 C 5.71 69.97 3.30 66.85 4.62 63.51 C 6.83 59.78 11.02 57.77 14.97 56.39 C 18.61 58.15 21.35 61.15 24.44 63.68 C 30.05 61.94 34.45 57.67 40.17 56.24 C 43.44 55.50 46.29 53.68 49.43 52.61 C 53.92 50.98 58.78 51.66 63.45 51.58 C 66.20 49.64 68.67 47.25 71.74 45.84 C 74.35 44.99 77.20 45.43 79.84 44.69 C 82.98 43.30 85.79 41.11 89.18 40.35 C 92.10 39.85 94.94 41.39 97.86 40.92 C 100.62 40.59 103.41 40.50 106.17 40.19 C 107.47 34.22 105.85 27.20 110.19 22.19 M 112.49 22.32 C 106.81 27.39 108.74 35.57 106.96 42.19 C 102.97 42.31 98.78 41.47 95.12 43.53 C 94.59 43.16 93.53 42.42 93.00 42.05 C 86.63 40.89 82.32 47.59 75.98 47.01 C 70.55 46.93 67.60 53.43 62.07 52.65 C 59.00 52.58 55.90 51.99 52.85 52.59 C 49.34 53.68 46.42 56.14 42.88 57.14 C 35.91 58.09 31.07 63.91 24.25 65.42 C 26.92 67.12 29.61 68.81 31.94 70.95 C 34.60 70.34 37.33 69.54 40.08 69.96 C 43.67 70.34 47.23 72.39 50.85 71.13 C 54.67 69.45 59.22 69.77 62.48 66.84 C 60.03 65.63 57.40 64.88 54.77 64.20 C 57.98 61.73 60.94 58.98 63.69 56.01 C 63.93 56.74 64.15 57.48 64.34 58.23 C 62.75 60.36 60.45 61.83 58.39 63.48 C 60.59 64.27 62.71 65.24 64.93 65.99 C 72.67 66.39 80.30 63.78 86.77 59.64 C 85.48 58.17 84.18 56.71 82.99 55.17 C 88.56 59.33 95.74 59.89 102.45 59.07 C 98.10 62.67 92.24 60.99 87.40 59.49 C 86.55 60.89 85.66 62.27 84.73 63.62 C 86.43 68.59 87.86 73.73 90.51 78.30 C 90.07 81.69 90.90 85.25 93.27 87.79 C 93.82 87.91 94.92 88.14 95.47 88.26 C 95.62 89.28 95.77 90.29 95.92 91.30 C 97.26 90.96 98.59 90.60 99.93 90.23 C 101.20 91.29 102.51 92.30 103.85 93.27 C 103.55 92.51 102.94 91.00 102.64 90.25 C 107.12 90.79 111.57 92.44 116.12 91.67 C 119.37 91.10 122.65 90.82 125.95 90.85 C 129.73 87.39 133.84 83.79 134.68 78.42 C 131.78 78.80 128.84 79.14 126.09 80.19 C 124.62 79.79 123.16 79.37 121.72 78.92 C 123.10 77.90 124.74 77.64 126.39 78.16 C 128.75 77.64 131.18 77.40 133.46 76.60 C 135.28 75.43 136.93 74.02 138.52 72.56 C 141.20 70.27 141.54 66.48 142.69 63.36 C 140.38 63.30 138.18 62.80 136.70 60.91 C 138.98 61.26 141.39 61.56 143.55 60.52 C 146.50 59.42 148.88 57.00 152.08 56.56 C 149.91 58.94 147.31 60.85 144.73 62.74 C 149.58 64.19 154.63 65.00 159.69 64.14 C 162.01 63.07 164.09 61.55 166.11 60.00 C 164.12 59.02 162.07 58.16 160.05 57.26 C 162.64 57.38 165.23 57.79 167.67 58.73 C 167.08 59.96 166.46 61.17 165.84 62.38 C 171.38 63.83 176.45 66.66 181.96 68.13 C 186.73 68.46 191.53 68.15 196.30 68.52 C 198.43 66.79 200.56 65.06 202.54 63.15 C 202.43 64.50 202.32 65.85 202.20 67.19 C 204.24 64.85 207.34 63.53 209.99 65.78 C 206.06 66.24 203.02 68.81 200.01 71.11 C 200.55 72.05 201.05 73.02 201.52 74.00 C 203.87 72.80 206.17 71.44 207.94 69.44 C 205.61 70.35 203.43 71.56 201.23 72.70 C 201.54 72.11 202.17 70.94 202.49 70.35 C 207.16 67.82 213.34 67.25 215.80 61.83 C 214.63 59.45 212.84 57.48 211.04 55.56 C 208.80 56.54 206.48 57.32 204.15 58.03 C 202.87 59.67 201.79 61.68 199.90 62.68 C 194.29 63.86 189.36 60.45 184.46 58.36 C 178.05 55.71 171.70 51.26 164.41 52.77 C 162.05 50.74 159.27 49.09 156.06 49.09 C 151.00 49.26 146.85 45.96 142.06 44.93 C 137.97 43.87 133.73 46.00 129.84 43.94 C 129.23 45.64 129.88 47.05 131.11 48.25 L 130.86 48.78 C 130.43 48.51 129.56 47.98 129.13 47.71 C 126.98 49.97 125.28 53.02 122.21 54.10 C 115.29 55.65 109.98 48.19 109.79 41.97 C 112.23 45.06 112.98 49.43 116.44 51.67 C 118.61 53.37 121.95 52.93 124.07 51.36 C 129.17 44.82 131.14 36.18 130.13 28.01 C 129.20 24.46 126.22 21.74 123.05 20.14 C 119.47 19.98 115.59 20.48 112.49 22.32 M 191.70 77.35 C 194.83 77.13 197.58 75.58 200.58 74.88 C 199.95 74.37 199.32 73.86 198.70 73.35 C 197.83 73.79 196.09 74.65 195.22 75.08 C 196.92 72.54 199.01 70.29 200.86 67.85 C 197.23 70.31 192.63 72.62 191.70 77.35 M 107.91 114.02 C 107.92 116.86 109.19 119.64 111.05 121.75 C 115.74 121.75 120.46 121.86 125.15 121.59 C 128.21 121.47 127.36 117.49 127.00 115.51 C 122.01 116.05 117.47 113.50 113.13 111.44 C 111.42 112.31 109.19 112.51 107.91 114.02 M 121.21 123.45 C 121.96 128.94 121.62 134.51 121.24 140.01 C 121.13 143.91 121.49 147.84 120.75 151.70 C 122.14 151.55 123.53 151.41 124.93 151.28 C 125.04 145.13 125.59 138.94 124.71 132.83 C 124.35 129.72 125.00 126.62 125.81 123.64 C 124.66 123.59 122.36 123.50 121.21 123.45 M 85.44 155.04 C 85.28 156.31 85.12 157.60 84.96 158.88 C 85.14 160.37 85.27 161.86 85.37 163.36 C 90.31 162.31 95.42 162.06 100.42 162.80 C 100.07 160.23 100.25 157.64 100.76 155.11 C 95.65 155.14 90.54 154.99 85.44 155.04 Z" />
<path fill="#333333" opacity="1.00" d=" M 94.25 45.43 C 95.89 46.57 97.25 48.05 98.68 49.44 L 97.97 50.13 C 102.55 49.40 105.57 53.19 109.05 55.38 C 112.91 56.27 116.97 56.39 120.55 58.29 C 120.11 58.51 119.21 58.94 118.77 59.15 C 112.60 57.82 106.01 56.47 101.32 51.90 C 100.22 52.26 99.13 52.64 98.03 53.00 C 97.86 50.00 95.71 47.86 94.25 45.43 Z" />
<path fill="#333333" opacity="1.00" d=" M 136.45 48.84 C 136.77 48.73 137.41 48.52 137.74 48.42 C 137.81 49.97 137.88 51.53 137.92 53.09 C 136.21 53.95 134.59 54.97 132.90 55.87 C 130.03 57.41 126.45 57.03 123.91 59.26 C 123.47 59.23 122.59 59.15 122.15 59.11 C 123.08 58.06 123.98 56.97 125.09 56.09 C 128.43 55.28 131.77 54.47 135.08 53.50 C 136.07 52.12 136.59 50.55 136.45 48.84 Z" />
<path fill="#333333" opacity="1.00" d=" M 202.67 62.93 C 205.63 61.65 208.30 59.05 211.70 59.18 C 214.23 60.40 214.59 62.89 212.39 64.75 C 211.70 64.23 211.01 63.70 210.33 63.17 C 210.87 62.57 211.95 61.37 212.49 60.77 C 209.28 61.31 206.47 63.02 203.84 64.82 C 203.44 64.19 203.05 63.56 202.67 62.93 Z" />
<path fill="#333333" opacity="1.00" d=" M 93.77 62.93 C 96.61 64.90 97.20 68.49 98.32 71.52 C 100.76 73.69 103.46 75.67 106.78 76.17 C 110.73 76.99 114.96 77.01 118.40 79.40 C 112.39 80.21 106.39 78.63 100.87 76.33 C 97.23 72.66 94.32 68.18 93.77 62.93 Z" />
<path fill="#333333" opacity="1.00" d=" M 62.47 99.04 C 63.30 98.29 64.16 97.58 65.02 96.88 C 65.84 98.00 66.68 99.14 67.56 100.23 C 70.89 104.00 76.09 105.30 79.33 109.13 C 77.15 108.28 75.12 107.08 73.08 105.92 C 70.92 104.73 68.81 103.44 66.78 102.03 C 66.33 102.13 65.42 102.31 64.96 102.41 C 64.12 101.29 63.30 100.16 62.47 99.04 Z" />
<path fill="#333333" opacity="1.00" d=" M 124.67 99.36 C 125.83 100.75 126.85 102.24 127.83 103.76 C 129.66 103.88 131.49 103.96 133.32 104.02 C 134.45 102.62 135.55 101.19 136.64 99.76 C 137.53 101.82 136.35 103.70 135.35 105.46 C 132.39 105.50 129.05 106.10 126.48 104.28 C 124.82 103.24 125.05 101.01 124.67 99.36 Z" />
<path fill="#333333" opacity="1.00" d=" M 89.07 102.53 C 90.97 104.36 92.60 106.45 94.19 108.54 C 91.46 107.65 89.99 105.07 89.07 102.53 Z" />
<path fill="#333333" opacity="1.00" d=" M 134.13 108.27 C 136.11 109.62 136.68 112.12 135.93 114.31 C 134.99 112.41 134.39 110.37 134.13 108.27 Z" />
<path fill="#333333" opacity="1.00" d=" M 93.03 111.62 C 95.82 113.30 97.36 116.29 99.35 118.76 C 96.82 116.80 94.33 114.61 93.03 111.62 Z" />
<path fill="#333333" opacity="1.00" d=" M 134.76 139.79 C 136.31 132.63 135.94 125.23 137.15 118.02 C 138.24 124.95 137.67 131.98 136.65 138.88 C 135.91 142.18 133.83 144.98 133.02 148.27 C 133.58 145.44 134.04 142.59 134.76 139.79 Z" />
<path fill="#333333" opacity="1.00" d=" M 100.34 123.58 C 102.99 126.02 102.44 129.96 103.56 133.11 C 105.38 141.84 109.51 149.94 110.72 158.81 C 108.00 156.31 108.27 152.29 106.90 149.08 C 105.24 144.98 104.29 140.63 102.54 136.56 C 101.23 133.64 101.60 130.39 101.57 127.29 C 101.12 126.07 100.71 124.83 100.34 123.58 Z" />
<path fill="#333333" opacity="1.00" d=" M 107.16 162.34 C 108.70 162.45 107.74 164.84 106.65 165.00 C 105.04 164.89 106.02 162.49 107.16 162.34 Z" />
</g>
</svg>
