<?xml version="1.0" encoding="UTF-8" ?>
<!DOCTYPE svg PUBLIC "-//W3C//DTD SVG 1.1//EN" "http://www.w3.org/Graphics/SVG/1.1/DTD/svg11.dtd">
<svg width="180pt" height="250pt" viewBox="0 0 180 250" version="1.1" xmlns="http://www.w3.org/2000/svg"><g id="#464746ff">
<path fill="#333333" opacity="1.00" d=" M 72.21 25.94 C 73.22 21.45 77.18 17.59 81.85 17.24 C 86.73 16.77 92.52 17.11 95.66 21.46 C 99.73 28.08 100.51 36.34 99.28 43.89 C 99.86 44.04 101.04 44.34 101.62 44.49 C 103.45 41.41 107.66 41.13 110.63 42.56 C 112.70 43.88 113.01 46.62 113.47 48.83 C 115.66 49.23 117.78 49.91 119.85 50.71 C 121.78 47.57 125.50 46.18 129.06 47.02 C 133.29 47.46 134.02 52.55 134.89 55.88 C 136.16 63.60 133.84 74.21 125.24 76.48 C 125.06 82.93 124.13 89.35 122.46 95.58 C 122.06 97.21 120.77 98.85 118.95 98.84 C 113.29 98.16 108.36 94.00 106.60 88.58 C 105.19 83.98 101.32 80.08 101.77 75.01 C 101.44 73.26 103.03 69.89 100.04 70.21 C 98.43 73.41 97.45 77.16 94.48 79.44 C 91.78 82.03 86.90 82.26 84.62 78.91 C 85.84 85.48 82.98 92.01 80.02 97.74 C 78.59 100.63 77.77 104.34 74.57 105.85 C 73.16 106.51 71.64 105.60 70.64 104.64 C 67.50 101.38 63.52 98.59 62.01 94.13 C 60.60 88.30 60.97 82.24 61.71 76.34 C 62.00 76.29 62.57 76.20 62.86 76.15 C 64.15 80.32 62.87 85.00 63.17 89.37 C 63.61 89.96 64.05 90.55 64.49 91.14 C 63.96 97.25 70.08 100.91 74.09 104.45 C 76.80 100.43 78.55 95.86 80.55 91.47 C 82.62 87.16 82.44 82.26 83.96 77.79 C 80.09 71.40 81.56 63.48 83.81 56.79 C 81.58 56.19 79.40 54.77 77.01 55.28 C 75.18 55.76 73.61 56.89 71.93 57.72 C 73.61 61.32 73.68 65.46 75.70 68.90 C 74.90 73.21 73.78 77.47 72.37 81.63 C 71.42 85.06 67.71 86.53 65.94 89.45 C 65.36 88.96 64.77 88.47 64.19 87.98 C 65.27 86.80 66.37 85.64 67.48 84.48 C 66.91 82.57 66.40 80.64 66.04 78.69 C 68.17 79.32 68.74 81.50 69.64 83.27 C 71.02 77.92 74.21 72.51 72.45 66.85 C 71.29 63.36 71.56 59.66 71.52 56.04 C 73.33 54.63 75.31 53.37 77.72 53.46 C 76.49 51.05 74.54 49.23 72.23 47.87 C 68.47 49.75 65.40 52.99 64.38 57.14 C 62.97 62.37 62.80 68.99 66.89 73.09 C 67.99 74.40 70.32 73.46 71.19 74.99 C 70.85 77.37 67.87 75.98 66.45 75.46 C 61.48 72.35 61.89 65.90 61.91 60.80 C 58.76 64.52 58.52 69.52 56.60 73.81 C 56.11 74.19 55.12 74.96 54.63 75.35 C 55.73 70.62 56.51 65.58 59.32 61.50 C 62.62 57.07 64.13 51.57 68.05 47.56 C 70.62 46.61 73.36 46.72 75.98 47.36 C 76.85 42.75 72.85 39.47 72.63 35.06 C 72.34 32.04 71.32 28.95 72.21 25.94 M 74.42 25.54 C 73.28 28.93 74.66 32.46 74.58 35.92 C 76.09 38.98 79.07 40.62 82.39 40.92 C 81.93 41.36 81.03 42.24 80.58 42.67 C 82.46 45.86 85.25 48.92 89.12 49.45 C 92.33 50.01 96.86 48.76 97.27 44.96 C 97.78 37.75 97.62 30.08 94.18 23.54 C 92.12 19.95 87.60 19.71 83.93 19.46 C 80.13 19.75 75.59 21.53 74.42 25.54 M 77.81 41.66 C 77.77 44.41 77.70 47.16 77.44 49.90 C 77.78 50.79 78.12 51.68 78.46 52.57 C 80.62 53.35 82.68 54.37 84.60 55.62 C 86.06 54.07 87.76 52.78 89.70 51.89 C 87.79 51.45 85.78 51.12 84.14 49.96 C 81.04 48.06 80.14 44.27 77.81 41.66 M 98.67 55.03 C 96.05 52.71 98.63 49.73 99.28 47.15 L 100.30 47.31 C 99.89 46.66 99.49 46.02 99.07 45.38 C 98.76 46.25 98.14 47.98 97.83 48.85 C 97.00 49.82 96.17 50.79 95.39 51.80 C 99.96 55.56 100.15 61.97 100.29 67.42 C 102.43 68.62 104.79 69.28 107.20 69.72 C 106.30 70.71 105.06 71.15 103.76 71.41 C 103.72 75.59 103.89 79.97 106.17 83.63 C 108.36 86.92 109.10 91.20 112.37 93.70 C 114.91 95.37 118.26 97.41 121.07 95.13 C 121.20 92.98 121.39 90.80 122.29 88.82 C 124.09 84.93 123.10 80.54 122.75 76.45 C 120.46 74.85 118.24 72.82 117.59 69.98 C 116.28 64.23 116.03 57.78 119.16 52.53 C 115.79 51.15 112.14 50.18 108.54 51.35 C 109.21 54.82 114.35 52.50 114.68 56.26 C 113.64 56.80 112.61 57.34 111.58 57.88 C 111.67 57.24 111.87 55.98 111.97 55.34 C 110.07 55.34 108.17 55.48 106.29 55.75 C 106.32 56.51 106.37 58.04 106.40 58.81 C 108.30 60.66 110.79 61.61 113.02 62.97 C 115.66 65.53 115.05 69.62 115.12 72.96 C 115.34 77.79 111.97 81.63 111.00 86.19 C 107.72 80.97 114.00 76.36 113.81 71.00 C 111.94 68.49 108.72 67.87 105.92 66.97 C 107.88 64.25 111.10 66.72 113.47 67.28 C 112.45 64.26 110.03 62.38 107.07 61.53 C 104.47 60.92 104.59 57.92 104.20 55.84 C 105.69 54.03 107.24 52.28 109.02 50.74 C 109.25 50.21 109.72 49.14 109.95 48.60 C 110.68 48.66 112.15 48.76 112.88 48.82 C 111.60 46.24 109.53 44.27 107.28 42.55 C 102.58 45.16 99.43 49.71 98.67 55.03 M 118.94 58.09 C 118.20 62.77 117.97 68.16 120.94 72.15 C 122.67 74.63 126.68 74.86 128.67 72.59 C 133.43 67.87 134.08 60.45 132.90 54.17 C 132.39 51.10 130.14 48.90 127.81 47.07 C 123.05 48.78 119.76 53.17 118.94 58.09 M 92.14 52.30 C 87.42 54.31 84.40 59.00 83.79 64.00 C 83.23 68.36 83.14 73.29 85.84 77.02 C 87.51 79.58 91.60 79.92 93.63 77.63 C 98.43 72.90 99.08 65.44 97.89 59.13 C 97.39 56.30 95.50 54.09 93.15 52.55 C 93.22 52.07 93.37 51.10 93.44 50.62 C 93.11 51.04 92.46 51.88 92.14 52.30 Z" />
<path fill="#333333" opacity="1.00" d=" M 61.03 70.08 C 62.52 70.49 63.03 72.68 63.89 73.89 C 64.71 75.13 62.44 75.37 62.31 74.23 C 61.72 72.96 60.63 71.54 61.03 70.08 Z" />
<path fill="#333333" opacity="1.00" d=" M 53.62 76.45 C 55.91 74.49 59.16 74.26 61.99 73.66 C 61.15 77.18 56.68 75.51 55.22 78.39 C 53.05 81.86 54.54 86.09 55.64 89.68 C 58.55 97.53 61.74 105.32 65.84 112.64 C 68.55 112.81 71.31 113.09 73.99 112.52 C 90.89 108.87 107.70 104.80 124.55 100.95 C 126.63 100.42 129.40 99.46 129.60 96.95 C 130.86 90.07 128.16 83.24 126.56 76.63 C 127.18 76.42 128.42 76.02 129.04 75.82 C 129.23 82.36 132.86 88.30 132.55 94.86 C 131.86 97.47 131.81 101.52 128.45 102.09 C 119.93 103.77 111.59 106.66 102.91 107.36 L 105.01 107.84 C 105.01 108.05 105.00 108.48 104.99 108.70 C 103.01 109.71 100.92 110.74 99.68 112.68 C 96.39 116.34 98.05 121.74 95.74 125.90 C 98.02 127.01 100.27 128.49 102.88 128.62 C 106.22 128.85 109.72 128.26 112.92 129.52 C 115.89 130.31 117.83 132.88 120.45 134.30 C 122.13 135.01 123.93 135.39 125.69 135.85 C 125.75 136.27 125.86 137.10 125.92 137.52 C 124.88 137.78 123.85 138.03 122.82 138.29 C 118.74 136.26 115.28 133.15 111.12 131.31 C 105.85 131.31 100.33 131.42 95.71 128.41 C 93.68 129.33 91.65 128.74 89.68 128.01 C 89.59 132.02 89.27 136.02 89.24 140.03 C 89.99 150.52 88.98 161.04 89.15 171.54 C 88.67 172.38 88.20 173.22 87.71 174.06 C 87.06 164.15 88.09 154.22 87.73 144.30 C 87.91 133.31 88.33 122.32 88.58 111.34 C 86.56 111.77 84.54 112.22 82.51 112.57 C 81.01 117.14 80.90 122.19 81.82 126.87 C 84.04 130.90 86.01 135.25 85.87 139.96 C 86.17 148.15 80.80 155.08 79.97 163.07 C 79.96 166.75 80.54 170.45 80.10 174.13 C 79.44 177.82 77.33 181.11 77.11 184.90 C 76.75 190.37 76.20 196.26 78.65 201.36 C 81.05 205.24 83.04 209.44 86.29 212.73 C 87.77 214.73 90.05 216.79 89.44 219.56 C 89.30 221.69 86.81 221.75 85.21 222.01 C 80.26 226.02 71.41 224.43 68.63 218.57 C 68.36 214.22 65.49 210.57 65.50 206.20 C 65.29 204.57 64.74 203.02 64.33 201.44 C 65.05 197.69 65.44 193.80 64.89 190.00 C 63.99 184.62 61.83 179.46 61.46 173.99 C 62.16 166.75 66.63 160.35 66.24 152.94 C 67.33 148.15 65.55 143.41 63.22 139.28 C 61.63 138.89 59.63 138.76 58.83 137.06 C 58.68 135.67 58.90 134.26 58.96 132.88 C 58.05 133.38 57.14 133.88 56.23 134.39 C 55.43 134.34 53.82 134.25 53.02 134.20 C 50.39 131.09 47.60 128.10 44.20 125.81 C 40.69 123.38 40.16 118.76 40.79 114.86 C 42.45 110.42 47.82 110.58 51.39 108.56 C 49.56 103.45 52.33 98.79 53.94 94.10 C 53.34 88.31 50.10 81.86 53.62 76.45 M 55.09 95.91 C 53.47 101.08 52.70 106.45 53.50 111.84 C 55.39 114.45 57.27 117.08 58.92 119.84 C 59.29 123.32 59.14 126.91 60.67 130.17 C 62.34 127.73 63.50 124.47 66.66 123.62 C 70.71 121.92 75.12 122.73 79.20 123.84 C 79.47 120.32 79.70 116.80 79.76 113.26 C 75.02 114.61 69.56 117.13 64.91 114.16 C 60.02 109.12 58.07 102.12 55.09 95.91 M 90.47 110.82 C 90.32 114.56 90.06 118.31 90.30 122.05 C 91.27 123.68 92.48 125.15 93.55 126.71 C 94.52 123.27 94.94 119.73 95.16 116.18 C 96.20 112.99 98.87 110.67 100.92 108.13 C 97.52 109.33 94.01 110.14 90.47 110.82 M 42.64 115.53 C 41.67 118.91 43.13 122.91 46.14 124.81 C 49.50 126.94 51.90 130.15 54.85 132.76 C 56.05 132.11 57.25 131.47 58.45 130.83 C 57.51 127.29 56.88 123.67 56.77 120.01 C 53.95 117.75 52.94 114.06 51.11 111.07 C 48.16 112.13 44.18 112.35 42.64 115.53 M 67.52 125.65 C 64.60 126.91 63.28 130.15 61.58 132.64 C 64.49 136.71 67.73 140.88 68.05 146.09 C 69.28 149.52 67.14 153.03 68.31 156.45 C 69.06 160.42 70.43 164.24 71.54 168.11 C 68.34 167.42 68.57 163.18 66.92 160.88 C 65.24 165.41 63.43 170.07 63.44 174.96 C 64.04 181.74 67.05 188.10 67.28 194.94 C 67.43 197.96 65.47 200.96 66.77 203.91 C 67.90 208.82 70.95 213.19 71.05 218.33 C 73.91 222.28 79.90 223.26 83.69 220.05 C 83.16 219.61 82.12 218.73 81.60 218.29 C 78.72 219.42 75.71 218.78 72.76 218.51 C 72.97 218.05 73.38 217.14 73.59 216.68 C 76.06 217.22 78.56 217.04 81.02 216.52 C 83.38 215.82 84.13 218.76 85.29 220.14 C 86.37 219.74 87.44 219.32 88.51 218.90 C 85.48 214.40 81.36 210.71 79.06 205.73 C 73.28 197.40 72.90 185.90 77.10 176.81 C 78.42 173.24 77.86 169.35 77.86 165.64 C 75.57 168.63 75.47 172.44 75.10 176.01 C 74.84 177.12 74.90 178.89 73.31 178.81 C 72.55 173.85 73.69 168.65 76.40 164.42 C 78.45 161.38 78.79 157.64 80.18 154.32 C 82.77 149.10 81.80 142.83 78.87 137.98 C 81.65 139.29 83.56 141.85 83.67 144.99 C 84.89 138.08 82.26 131.25 77.83 126.01 C 74.55 125.00 70.88 124.97 67.52 125.65 Z" />
<path fill="#333333" opacity="1.00" d=" M 107.94 108.20 C 111.67 107.00 114.94 109.43 118.02 111.11 C 120.57 112.45 122.71 114.38 124.92 116.19 C 127.18 118.09 130.36 118.47 132.47 120.61 C 134.89 122.52 135.53 125.69 136.57 128.44 C 137.81 131.26 135.97 134.09 135.90 136.94 C 135.94 140.56 135.48 144.23 136.26 147.80 C 138.30 156.07 135.64 164.83 138.45 172.98 C 142.74 175.52 145.05 180.25 149.23 182.89 C 151.21 184.11 154.04 183.41 155.63 185.31 C 156.77 186.49 158.61 188.40 156.96 189.99 C 154.48 192.50 150.59 194.28 147.01 193.49 C 145.75 193.27 144.47 193.32 143.21 193.41 C 140.00 191.89 136.82 189.50 133.06 190.41 C 129.81 191.04 126.35 190.68 123.90 188.25 C 123.34 182.98 124.66 177.85 126.12 172.85 C 127.65 165.77 123.44 159.55 120.92 153.32 C 120.80 148.79 120.28 143.36 123.17 139.63 C 123.48 146.36 122.47 153.78 126.28 159.74 C 128.66 164.12 127.92 169.34 127.85 174.12 C 126.79 178.37 126.08 182.70 125.97 187.09 C 126.58 187.72 127.19 188.35 127.81 188.98 C 132.21 189.06 136.97 187.59 141.03 189.97 C 143.50 191.30 146.37 191.21 149.08 191.63 C 151.68 192.08 153.71 189.95 155.90 188.92 C 154.00 185.17 149.14 186.59 146.50 183.76 C 142.99 180.50 140.29 176.43 136.43 173.51 C 134.00 166.16 135.27 158.43 134.49 150.89 C 132.83 144.33 133.73 137.45 135.16 130.94 C 134.59 127.95 133.23 125.06 131.66 122.45 C 129.25 120.35 125.92 119.69 123.54 117.52 C 119.13 113.76 114.04 110.90 108.61 108.91 C 108.44 108.74 108.11 108.38 107.94 108.20 Z" />
<path fill="#333333" opacity="1.00" d=" M 123.47 121.61 C 123.89 121.60 124.73 121.60 125.15 121.59 C 126.55 123.80 128.17 126.14 128.01 128.89 C 127.12 130.34 125.73 131.37 124.50 132.50 C 120.54 132.15 116.47 130.18 115.21 126.14 C 117.85 127.96 120.40 129.93 123.13 131.64 C 124.10 130.46 125.53 129.53 126.01 128.02 C 125.64 125.73 124.47 123.68 123.47 121.61 Z" />
<path fill="#333333" opacity="1.00" d=" M 75.84 138.50 C 76.34 138.47 77.35 138.40 77.85 138.37 C 76.11 140.29 74.59 143.21 71.54 142.78 C 72.88 141.27 74.38 139.90 75.84 138.50 Z" />
<path fill="#333333" opacity="1.00" d=" M 74.68 153.56 C 75.86 153.62 77.05 153.69 78.23 153.77 C 78.26 154.21 78.33 155.10 78.36 155.55 C 77.14 155.56 75.92 155.57 74.71 155.56 C 74.70 155.06 74.69 154.06 74.68 153.56 Z" />
<path fill="#333333" opacity="1.00" d=" M 131.19 183.63 C 128.68 182.06 127.49 177.85 130.08 175.86 C 130.21 178.48 130.59 181.07 131.19 183.63 Z" />
<path fill="#333333" opacity="1.00" d=" M 70.36 199.11 C 71.04 197.60 72.15 196.35 73.88 196.14 C 72.70 198.84 71.45 201.56 69.57 203.86 C 67.77 202.36 69.76 200.62 70.36 199.11 Z" />
</g>
</svg>
