<?xml version="1.0" encoding="UTF-8" ?>
<!DOCTYPE svg PUBLIC "-//W3C//DTD SVG 1.1//EN" "http://www.w3.org/Graphics/SVG/1.1/DTD/svg11.dtd">
<svg width="113pt" height="200pt" viewBox="0 0 113 200" version="1.1" xmlns="http://www.w3.org/2000/svg"><g id="#202120ff">
<path fill="#333333" opacity="1.00" d=" M 56.14 19.94 C 59.78 18.22 64.03 16.52 68.07 17.88 C 72.61 18.86 75.94 23.37 75.93 27.96 C 77.33 33.92 72.43 38.98 73.18 44.95 C 73.74 46.23 74.27 47.53 74.77 48.84 C 78.40 50.99 81.50 53.96 85.28 55.86 C 88.38 57.57 92.06 59.02 93.64 62.46 C 96.05 66.34 94.64 71.20 96.65 75.21 C 98.70 81.22 99.43 87.71 99.07 94.04 C 98.49 93.28 97.92 92.52 97.36 91.75 C 97.45 88.14 97.65 84.47 96.79 80.94 C 94.85 82.98 94.45 86.21 92.16 88.12 C 91.97 91.38 92.35 94.62 93.43 97.70 C 94.17 98.24 94.96 98.56 95.81 98.67 C 97.48 97.33 95.98 94.57 96.98 92.93 C 97.55 93.70 98.12 94.48 98.69 95.26 C 97.11 100.22 98.88 106.09 95.32 110.37 C 92.14 113.63 90.39 117.92 87.55 121.44 C 83.66 126.55 78.43 130.38 74.02 135.01 C 71.86 137.45 68.64 138.26 65.56 138.80 C 69.86 147.69 69.67 158.44 65.29 167.25 C 64.28 167.74 63.28 168.24 62.28 168.73 C 61.13 171.80 58.00 173.07 55.26 174.34 L 54.49 173.19 C 55.25 178.43 56.90 183.50 58.27 188.60 C 58.82 188.55 59.90 188.44 60.45 188.38 C 59.97 188.50 59.01 188.75 58.54 188.88 C 59.36 190.79 60.00 192.78 60.39 194.83 C 57.52 193.51 57.63 189.85 56.45 187.42 L 55.53 189.45 C 56.84 184.82 52.89 180.44 54.46 175.92 C 54.00 175.40 53.53 174.88 53.07 174.37 C 48.46 175.04 43.80 172.99 40.03 170.46 C 40.56 172.46 40.33 174.44 39.08 176.11 C 38.77 174.04 38.58 171.94 38.05 169.91 C 35.65 167.03 31.91 165.24 30.43 161.59 C 28.61 157.18 25.68 153.06 25.45 148.15 C 24.79 142.66 26.19 137.17 28.51 132.23 C 27.09 130.43 26.42 128.29 26.62 125.99 C 27.52 123.99 27.98 121.83 28.55 119.72 C 25.77 113.86 26.40 107.25 26.26 100.96 C 25.80 96.16 29.75 92.56 30.19 87.93 C 30.46 84.53 32.39 81.65 33.49 78.50 C 34.12 74.33 33.17 70.07 33.81 65.89 C 35.13 62.13 38.11 59.26 41.00 56.64 C 42.19 56.65 43.38 56.65 44.57 56.65 C 47.93 54.15 51.76 52.43 55.27 50.16 C 55.29 49.38 55.32 47.83 55.34 47.05 C 51.68 44.18 51.16 39.28 50.91 34.97 C 51.95 29.81 51.04 23.23 56.14 19.94 M 54.30 25.26 C 53.32 29.67 52.25 34.13 52.42 38.67 C 53.74 41.71 54.94 44.79 56.69 47.62 C 62.04 47.53 67.85 44.81 70.06 39.68 C 71.14 42.09 69.26 44.14 67.67 45.76 C 64.71 48.00 60.85 48.84 57.20 48.30 C 57.61 51.21 58.04 54.13 58.07 57.07 C 57.38 55.53 56.72 53.98 56.05 52.44 C 51.57 54.07 47.72 56.87 43.69 59.34 C 41.62 59.26 39.19 58.93 37.73 60.78 C 34.14 65.75 35.70 72.19 35.37 77.88 C 34.68 81.33 32.53 84.36 32.29 87.93 C 31.87 91.87 29.63 95.24 28.34 98.90 C 27.88 104.41 28.78 109.96 29.78 115.35 C 32.37 120.18 28.66 125.10 28.73 130.07 C 29.38 132.34 30.63 134.39 31.96 136.33 C 34.72 134.52 38.62 135.33 40.74 132.45 C 39.69 130.72 38.50 129.06 37.67 127.20 C 38.04 126.15 37.97 122.62 39.80 124.21 C 39.87 124.78 39.99 125.92 40.05 126.49 C 43.86 124.57 47.84 127.08 50.03 130.21 C 50.65 129.23 51.25 128.25 51.86 127.27 C 50.22 126.62 48.66 125.80 47.26 124.73 C 45.41 124.56 43.55 124.44 41.70 124.40 C 41.25 123.99 40.35 123.17 39.90 122.76 C 39.73 122.31 39.37 121.41 39.19 120.96 C 38.26 120.10 37.27 119.29 36.45 118.31 C 35.11 112.76 38.29 107.55 38.25 102.06 C 37.35 96.27 41.48 91.41 42.86 86.01 C 41.61 81.99 38.77 78.21 39.78 73.77 C 40.63 69.03 41.28 62.55 46.50 60.61 C 45.09 63.17 43.33 65.52 41.51 67.80 C 39.91 71.70 40.23 75.97 42.57 79.48 C 45.23 80.87 48.16 81.41 51.10 81.82 C 49.47 82.74 47.67 83.27 45.83 83.62 C 45.15 85.62 44.49 87.64 43.58 89.55 C 41.22 93.61 42.99 98.43 43.03 102.81 C 44.49 101.07 43.71 98.68 43.93 96.65 C 45.77 99.56 47.32 102.65 48.68 105.81 C 47.07 104.42 45.40 103.10 43.46 102.19 C 44.60 105.40 44.17 108.77 44.31 112.09 C 44.92 113.89 45.78 115.60 46.49 117.37 C 49.19 118.61 51.79 120.57 54.93 120.18 C 58.92 119.73 63.45 120.95 66.88 118.29 C 66.55 117.71 65.90 116.54 65.58 115.96 C 66.73 117.17 68.39 118.48 67.35 120.31 C 66.13 121.26 64.61 121.69 63.11 121.95 C 57.50 122.64 51.05 123.62 46.39 119.58 C 40.72 115.35 43.59 107.38 41.32 101.59 C 40.11 106.45 38.14 111.23 37.76 116.24 C 39.51 118.37 41.67 120.17 43.17 122.52 C 46.71 122.57 50.17 123.45 53.70 123.59 C 57.22 123.53 60.10 126.51 63.71 125.85 C 65.72 123.77 67.94 121.93 70.07 120.00 C 73.94 114.08 75.32 107.01 78.70 100.86 C 76.94 94.58 77.40 87.97 76.49 81.61 C 75.37 84.61 71.83 84.86 69.18 84.35 C 66.08 83.77 62.92 83.26 59.76 83.69 C 58.00 81.94 56.52 79.92 55.29 77.76 C 56.24 78.54 57.13 79.40 57.97 80.30 C 62.16 83.03 67.69 79.98 71.47 83.46 C 72.77 82.63 74.04 81.75 75.28 80.83 C 75.87 80.86 77.04 80.92 77.63 80.95 C 75.44 77.60 73.67 73.97 73.02 69.99 C 73.26 69.83 73.74 69.52 73.98 69.36 C 75.11 71.91 77.24 73.68 79.14 75.61 C 79.58 81.59 77.72 87.78 80.07 93.56 C 80.88 92.00 81.63 90.41 82.49 88.88 C 82.59 92.36 81.27 95.73 82.10 99.21 C 79.92 102.74 78.48 106.59 77.38 110.58 C 74.35 117.24 69.89 123.08 65.19 128.64 C 60.87 128.45 57.10 126.28 53.19 124.70 C 56.57 128.41 51.81 130.98 49.58 133.45 C 49.62 135.60 49.69 137.74 49.87 139.89 C 52.21 141.28 53.53 145.23 56.56 144.72 C 59.10 142.43 59.41 138.19 63.16 137.09 C 63.76 137.39 64.95 138.00 65.55 138.30 C 66.81 137.23 68.06 136.15 69.33 135.08 C 70.44 134.72 71.72 134.56 72.52 133.60 C 78.35 127.77 84.97 122.45 88.63 114.86 C 91.85 111.15 94.80 107.19 95.53 102.15 C 95.08 101.55 94.63 100.96 94.18 100.37 C 92.66 104.22 88.41 105.46 84.81 106.47 C 86.78 103.82 89.67 102.22 92.28 100.30 C 93.65 99.53 92.29 98.26 91.90 97.36 C 91.33 93.53 90.02 89.79 90.59 85.86 C 92.57 84.61 93.72 82.66 94.27 80.42 C 94.64 80.25 95.40 79.91 95.78 79.75 C 97.02 78.42 95.46 77.36 94.74 76.27 C 94.07 74.18 93.70 72.00 94.27 69.83 C 93.09 63.05 87.63 57.63 80.89 56.30 C 80.42 56.96 79.96 57.63 79.50 58.29 C 77.85 58.99 76.22 59.74 74.65 60.59 C 74.32 61.73 73.98 62.88 73.64 64.02 C 73.49 63.26 73.18 61.74 73.02 60.98 C 74.72 58.46 77.66 57.33 79.66 55.11 C 77.63 53.64 75.66 52.07 73.82 50.37 C 71.55 47.04 70.92 43.09 71.57 39.15 L 70.10 39.34 C 70.71 36.83 71.33 34.32 71.88 31.79 C 72.63 33.11 73.35 34.44 74.03 35.80 C 74.26 31.17 75.38 25.79 72.21 21.86 C 69.70 19.80 66.21 19.28 63.05 19.38 C 59.59 20.09 55.23 21.31 54.30 25.26 M 40.14 96.54 C 39.29 97.29 39.51 99.66 40.91 99.51 C 41.81 98.77 41.50 96.41 40.14 96.54 M 40.93 127.53 C 41.44 129.60 43.45 131.80 41.76 133.83 C 39.48 138.14 33.14 138.14 29.67 135.29 C 26.33 142.51 26.61 151.12 30.46 158.09 C 34.03 166.20 42.40 171.33 50.98 172.43 C 53.84 172.26 56.55 171.18 59.21 170.18 C 62.47 168.91 63.31 165.04 64.64 162.20 C 62.62 161.51 63.74 160.82 65.36 160.49 C 64.60 153.42 66.11 145.96 63.45 139.19 C 62.43 140.54 60.57 141.92 61.55 143.82 C 63.02 148.06 63.03 152.62 62.66 157.04 C 62.14 160.88 61.50 165.05 58.45 167.77 C 60.95 160.83 62.09 153.21 60.02 146.01 C 58.92 146.38 57.83 146.79 56.76 147.24 C 53.19 146.39 50.84 143.41 48.41 140.89 C 47.22 137.83 47.74 134.47 47.94 131.27 C 46.47 128.71 43.82 127.57 40.93 127.53 Z" />
<path fill="#333333" opacity="1.00" d=" M 49.77 60.08 C 51.63 59.38 53.49 58.48 55.50 58.32 C 56.70 59.48 57.75 60.79 58.85 62.05 C 61.65 57.92 67.22 58.73 71.53 58.76 C 71.58 59.25 71.68 60.23 71.73 60.72 C 67.35 62.03 61.37 59.58 58.71 64.58 C 58.64 64.12 58.50 63.19 58.43 62.73 C 56.93 61.78 55.54 60.68 54.23 59.48 C 52.78 59.92 51.29 60.24 49.77 60.08 Z" />
<path fill="#333333" opacity="1.00" d=" M 86.38 79.15 C 86.13 76.01 87.82 72.61 91.09 71.90 C 89.82 74.49 88.30 76.99 86.38 79.15 Z" />
<path fill="#333333" opacity="1.00" d=" M 45.45 90.09 C 47.18 87.83 49.36 85.91 51.58 84.12 C 51.52 85.81 51.49 87.74 49.57 88.35 C 47.30 89.07 44.88 91.80 47.07 93.96 C 48.63 94.77 50.12 93.51 51.52 92.95 C 52.32 90.84 53.05 88.65 54.60 86.95 C 54.32 89.85 53.26 92.65 53.58 95.61 C 55.52 93.73 58.43 93.59 60.28 95.72 C 61.99 95.77 63.70 95.78 65.42 95.77 C 67.95 97.99 67.52 101.33 67.44 104.37 C 68.40 104.77 69.38 105.14 70.36 105.50 C 68.90 107.82 67.49 110.18 65.92 112.44 C 66.11 110.49 66.61 108.60 67.56 106.88 C 67.00 106.40 66.43 105.92 65.87 105.45 L 65.05 107.27 C 66.25 104.03 66.21 100.53 63.98 97.73 C 61.08 97.37 57.97 97.30 55.65 95.22 C 54.32 97.29 54.09 99.77 53.64 102.14 C 54.43 103.51 55.17 104.91 56.09 106.19 C 57.61 106.42 59.13 106.60 60.66 106.74 C 58.85 108.66 56.26 107.57 54.07 107.11 C 53.55 107.34 52.51 107.79 51.99 108.01 C 50.91 107.49 49.83 106.98 48.77 106.43 C 50.55 106.54 52.33 106.67 54.11 106.83 C 51.57 103.27 52.41 98.75 52.42 94.67 C 50.58 95.17 48.78 95.80 47.05 96.59 C 46.74 96.26 46.13 95.61 45.82 95.28 C 43.17 94.62 44.92 91.76 45.45 90.09 Z" />
<path fill="#333333" opacity="1.00" d=" M 59.36 85.19 C 60.43 86.03 61.44 86.93 62.41 87.89 C 64.04 89.12 66.74 90.22 65.37 92.72 C 62.13 91.41 59.96 88.63 59.36 85.19 Z" />
<path fill="#333333" opacity="1.00" d=" M 68.97 92.51 C 70.50 90.32 72.97 89.24 75.31 88.14 C 74.03 90.63 71.68 92.08 68.97 92.51 Z" />
<path fill="#333333" opacity="1.00" d=" M 69.94 98.14 C 71.82 96.10 73.80 94.10 76.24 92.74 C 75.06 95.37 73.15 98.11 69.94 98.14 Z" />
<path fill="#333333" opacity="1.00" d=" M 46.64 107.20 C 47.31 107.77 47.97 108.35 48.63 108.93 C 48.55 111.16 48.49 113.39 48.30 115.61 C 46.15 113.36 46.92 110.02 46.64 107.20 Z" />
<path fill="#333333" opacity="1.00" d=" M 54.57 112.20 C 56.28 112.69 57.42 113.94 58.24 115.48 C 56.64 114.99 55.06 114.48 53.47 113.96 C 53.75 113.52 54.29 112.64 54.57 112.20 Z" />
<path fill="#333333" opacity="1.00" d=" M 83.31 132.20 C 83.32 130.50 81.58 127.92 84.18 127.13 C 85.74 132.65 85.95 138.81 82.74 143.81 C 82.83 148.27 81.29 152.75 82.51 157.16 C 83.19 160.14 81.30 162.94 81.48 165.93 C 81.75 171.53 80.18 176.95 79.32 182.43 C 78.86 182.47 77.95 182.53 77.49 182.56 C 78.69 176.61 80.01 170.63 79.74 164.51 C 76.11 166.18 72.10 166.44 68.18 166.60 C 68.24 166.15 68.37 165.25 68.44 164.80 C 72.59 164.68 76.84 164.42 80.48 162.19 C 81.26 157.77 79.53 153.35 80.57 148.92 C 80.24 143.10 84.62 138.03 83.31 132.20 Z" />
<path fill="#333333" opacity="1.00" d=" M 40.78 183.27 C 40.35 180.44 38.74 177.39 40.89 174.89 C 41.43 178.19 42.32 181.45 42.49 184.80 C 41.92 184.29 41.35 183.78 40.78 183.27 Z" />
</g>
</svg>
