<?xml version="1.0" encoding="UTF-8" ?>
<!DOCTYPE svg PUBLIC "-//W3C//DTD SVG 1.1//EN" "http://www.w3.org/Graphics/SVG/1.1/DTD/svg11.dtd">
<svg width="284pt" height="175pt" viewBox="0 0 284 175" version="1.1" xmlns="http://www.w3.org/2000/svg"><g id="#50514eff">
<path fill="#333333" opacity="1.00" d=" M 179.87 38.51 C 183.64 38.31 187.56 38.98 190.29 41.80 C 190.30 42.61 190.33 44.22 190.34 45.03 C 194.97 46.43 199.68 47.77 204.09 49.76 C 204.55 50.21 205.48 51.12 205.95 51.57 C 199.41 51.70 193.79 46.71 187.23 47.61 C 192.58 50.95 199.16 51.45 204.64 54.60 C 206.27 52.14 208.12 49.83 209.96 47.53 C 211.68 47.60 213.41 47.69 215.14 47.78 C 216.79 48.42 218.68 48.72 219.98 50.02 C 221.55 51.28 221.15 53.46 221.53 55.22 C 223.43 56.15 225.41 56.95 227.28 57.95 C 227.55 59.79 227.43 61.67 227.43 63.53 C 224.85 63.58 222.38 62.84 219.88 62.31 C 218.44 62.76 217.11 63.46 215.75 64.07 C 214.11 64.07 212.47 64.24 210.87 64.60 C 210.08 67.14 209.23 69.68 208.38 72.20 C 211.57 73.41 214.88 74.22 218.29 74.55 C 219.64 70.58 223.90 68.09 228.02 68.87 C 233.16 69.64 239.87 70.13 242.57 75.31 C 243.71 80.61 245.20 86.54 242.58 91.64 C 241.35 94.79 237.95 95.96 235.08 97.12 C 234.38 96.87 232.97 96.39 232.27 96.15 C 230.56 97.72 229.05 99.91 226.56 100.20 C 220.03 101.45 213.79 104.51 207.01 104.11 C 199.89 104.15 192.40 101.99 185.66 105.25 C 184.50 106.68 182.80 107.23 181.06 107.53 C 180.96 108.07 180.77 109.16 180.68 109.70 C 178.39 111.50 176.20 113.64 173.27 114.31 C 169.68 115.53 165.85 114.78 162.17 115.32 C 159.10 115.98 156.21 117.23 153.32 118.39 C 153.45 117.97 153.72 117.12 153.86 116.70 C 149.41 118.32 144.70 119.42 139.93 118.99 C 136.07 118.47 132.73 120.79 129.10 121.60 C 125.83 122.32 122.40 122.72 119.39 124.27 C 115.26 127.11 112.40 131.68 107.61 133.54 C 103.21 135.10 98.56 135.83 93.94 136.40 C 87.08 137.46 80.37 139.28 73.53 140.43 C 71.19 140.72 70.48 143.29 69.05 144.80 C 65.05 148.24 60.03 151.33 54.50 150.13 C 52.04 146.08 46.21 146.17 44.30 141.65 C 43.31 138.54 43.61 135.04 41.82 132.20 C 39.96 128.59 35.94 126.58 34.60 122.65 C 33.69 119.81 33.10 116.83 32.98 113.85 C 33.61 109.47 37.60 106.23 41.95 106.02 C 44.24 105.33 45.35 108.03 46.63 109.33 C 48.83 110.28 51.45 110.92 52.85 113.03 C 54.52 115.46 55.30 118.44 57.49 120.52 C 65.98 119.39 72.98 114.19 80.40 110.34 C 83.90 108.31 87.80 107.10 91.33 105.11 C 93.81 103.73 95.23 101.06 97.71 99.66 C 101.60 96.91 106.81 97.48 110.68 94.67 C 116.08 91.17 122.03 88.59 128.34 87.27 C 130.75 86.45 133.19 85.72 135.54 84.72 C 137.92 83.53 140.53 84.63 143.01 84.82 C 149.11 85.93 154.62 81.48 160.76 83.20 C 159.71 82.04 157.40 80.98 158.13 79.01 C 160.04 72.87 159.38 65.40 164.89 61.00 C 144.57 66.36 124.65 73.16 104.23 78.12 C 101.96 78.94 99.75 79.94 97.42 80.59 C 75.22 86.72 53.04 92.92 30.83 99.03 C 27.09 100.04 23.39 101.31 19.52 101.69 C 20.22 100.34 21.36 99.34 22.89 99.05 C 70.86 85.78 118.77 72.32 166.47 58.16 C 169.50 55.36 171.41 51.51 173.14 47.80 C 172.27 44.94 175.19 43.86 177.06 42.59 C 174.89 42.15 171.70 39.81 169.94 41.96 C 170.57 42.55 171.83 43.73 172.45 44.33 C 171.46 44.92 170.30 45.11 169.21 45.45 C 168.97 43.57 167.90 41.12 169.37 39.49 C 170.89 38.64 172.46 39.54 173.93 40.02 C 175.38 40.14 176.84 40.26 178.30 40.38 C 178.69 39.91 179.48 38.98 179.87 38.51 M 178.14 44.19 C 174.67 48.37 172.43 53.38 169.30 57.79 C 172.13 56.63 175.13 55.95 177.97 54.82 C 179.61 53.83 180.63 52.08 181.93 50.72 C 182.82 50.72 184.61 50.73 185.50 50.74 C 187.18 51.60 189.05 51.75 190.89 52.00 C 189.31 51.30 187.76 50.53 186.20 49.78 C 186.88 47.81 187.57 45.85 188.37 43.93 C 187.40 42.72 186.41 41.54 185.43 40.35 C 183.98 40.47 182.54 40.58 181.10 40.68 C 180.14 41.87 179.16 43.05 178.14 44.19 M 211.24 49.63 C 207.22 53.71 204.33 58.68 201.46 63.59 C 198.51 68.62 194.84 73.20 191.79 78.15 C 190.31 83.27 189.07 88.53 189.05 93.89 C 194.15 98.15 200.42 100.94 206.99 101.93 C 211.78 102.39 216.11 99.77 220.80 99.36 C 224.30 98.99 227.87 98.05 230.38 95.42 C 231.87 92.76 232.26 89.67 232.73 86.70 C 233.11 88.36 233.43 90.04 233.76 91.71 C 233.42 92.89 233.10 94.07 232.78 95.26 C 236.98 95.42 240.40 92.90 242.00 89.13 C 241.67 84.45 243.07 79.07 239.92 75.07 C 235.99 71.31 230.18 70.41 224.94 70.41 C 222.18 70.06 220.78 72.88 219.90 75.02 C 222.67 76.79 225.68 78.40 227.59 81.20 C 229.78 82.03 231.45 83.67 232.35 85.84 C 230.45 84.69 228.62 83.40 226.93 81.97 C 224.12 80.55 221.69 78.53 219.00 76.93 C 215.70 74.97 211.33 75.92 208.41 73.14 C 208.14 76.46 207.16 79.66 205.95 82.76 C 207.06 82.64 209.28 82.41 210.39 82.29 C 210.80 81.90 211.64 81.13 212.06 80.74 C 212.17 81.29 212.39 82.39 212.50 82.94 C 214.61 83.39 216.74 83.76 218.89 84.03 C 217.00 82.50 214.96 81.17 213.29 79.38 C 215.26 80.06 216.93 81.30 218.42 82.74 C 218.92 82.42 219.93 81.79 220.44 81.48 C 220.25 83.61 219.72 85.79 218.06 87.28 C 214.51 86.68 211.41 83.34 207.55 84.69 C 204.06 85.27 203.66 89.22 201.98 91.68 C 200.99 87.38 204.19 83.92 205.10 79.94 C 206.84 73.37 207.03 65.65 212.30 60.68 C 214.26 61.38 216.06 60.78 217.32 59.15 C 220.01 59.86 222.74 60.44 225.50 60.83 L 225.80 58.77 C 222.16 58.23 218.65 56.95 215.85 54.53 C 216.85 54.50 218.85 54.43 219.86 54.40 C 218.64 52.69 217.30 51.08 215.93 49.50 C 214.36 49.58 212.79 49.62 211.24 49.63 M 180.00 56.93 C 178.01 61.27 178.36 66.32 176.23 70.65 C 179.20 70.08 182.17 70.61 184.98 71.61 C 186.42 72.43 187.41 70.59 188.58 70.09 C 190.63 70.30 192.67 70.54 194.71 70.81 C 197.82 66.25 200.64 61.52 203.63 56.89 C 202.12 55.79 200.53 54.74 198.74 54.17 C 192.49 51.52 185.90 54.90 180.00 56.93 M 168.26 60.18 C 162.25 64.84 161.74 72.82 160.62 79.75 C 161.08 81.01 161.50 82.28 161.88 83.57 C 162.92 83.66 163.96 83.74 165.00 83.83 C 165.81 83.19 166.62 82.55 167.44 81.92 C 165.71 77.96 166.87 73.07 169.22 69.59 C 169.63 73.64 168.83 77.64 168.27 81.63 C 174.55 81.15 179.41 76.86 184.03 73.00 C 181.48 72.47 178.89 72.33 176.30 72.52 C 176.44 73.06 176.72 74.13 176.86 74.66 C 175.28 75.92 173.75 77.24 172.06 78.33 C 172.49 74.25 174.95 70.79 175.75 66.81 C 176.38 63.57 177.05 60.33 177.98 57.16 C 174.79 58.34 171.40 58.89 168.26 60.18 M 187.84 73.61 C 183.19 73.96 180.43 78.24 176.63 80.43 C 176.61 80.84 176.57 81.66 176.54 82.07 C 174.82 82.78 173.12 83.55 171.49 84.46 C 171.31 83.66 171.19 82.86 171.12 82.05 C 169.94 82.70 168.75 83.34 167.58 84.00 C 171.88 85.88 176.15 87.93 179.92 90.78 C 181.53 90.89 183.12 91.09 184.72 91.31 C 183.49 91.79 182.25 92.25 181.01 92.70 C 183.21 96.17 185.03 100.31 183.68 104.46 C 188.17 102.15 193.22 101.70 198.16 101.28 C 196.99 100.99 195.82 100.71 194.65 100.44 C 191.65 97.96 188.42 95.77 185.41 93.30 C 185.62 92.51 186.02 90.95 186.22 90.17 C 185.60 89.95 184.37 89.51 183.75 89.29 C 184.62 89.34 186.36 89.43 187.23 89.48 C 188.16 86.36 185.86 84.41 183.60 82.83 C 184.96 82.85 186.33 82.87 187.69 82.89 C 188.11 81.73 188.95 79.41 189.38 78.25 C 186.54 81.36 180.78 83.98 177.42 80.22 C 179.33 80.40 181.18 80.90 182.99 81.54 C 183.96 81.04 184.94 80.55 185.92 80.05 C 186.67 78.60 187.44 77.15 188.21 75.70 C 188.57 75.97 189.30 76.51 189.66 76.78 C 190.92 75.19 192.17 73.59 193.38 71.95 C 191.36 71.94 189.36 72.16 187.84 73.61 M 150.17 86.06 C 151.41 86.75 152.71 87.28 154.03 87.80 C 152.46 88.85 150.91 89.92 149.35 90.98 C 151.61 91.00 153.87 90.99 156.13 90.99 C 158.31 92.51 161.19 92.10 163.47 93.39 C 165.00 94.16 165.45 95.92 166.16 97.33 C 165.60 98.56 165.07 99.81 164.57 101.08 C 165.08 96.50 160.55 93.35 156.29 94.06 C 156.17 93.71 155.92 93.01 155.80 92.66 C 152.72 93.28 149.94 91.98 147.47 90.30 C 148.62 89.15 149.73 87.95 150.83 86.74 C 145.75 86.77 140.71 85.81 135.63 86.00 C 136.83 86.46 138.04 86.89 139.26 87.32 C 139.22 89.61 138.71 92.02 139.49 94.24 C 141.59 93.69 144.27 91.90 146.23 93.78 C 152.52 99.16 157.16 107.77 155.34 116.21 C 160.03 114.36 164.86 112.48 170.01 112.71 C 176.09 113.01 180.48 107.26 182.13 102.02 C 181.78 97.70 179.73 93.41 176.60 90.39 C 168.80 85.77 159.02 83.24 150.17 86.06 M 109.72 97.89 C 109.01 99.91 108.10 101.88 107.74 104.00 C 112.95 106.09 116.07 100.51 120.27 98.75 C 118.01 101.71 115.25 104.47 111.78 105.96 C 109.70 106.48 107.62 105.78 105.66 105.17 C 105.73 102.82 106.26 100.58 107.73 98.68 C 105.03 99.31 102.02 99.20 99.55 100.63 C 97.46 102.54 96.03 105.12 93.65 106.75 C 89.69 109.97 84.49 110.76 80.10 113.18 C 73.27 116.50 66.80 120.79 59.32 122.55 C 62.56 124.30 66.09 126.19 69.91 125.49 C 77.72 124.19 85.16 121.04 91.95 117.02 C 97.15 113.75 103.95 113.86 108.64 109.64 C 110.09 108.30 111.89 107.43 113.82 107.05 C 119.72 106.16 124.02 101.46 129.69 99.85 C 127.27 103.59 122.59 104.65 119.32 107.43 C 116.90 109.60 113.04 108.27 110.55 110.37 C 109.48 111.32 108.60 112.45 107.51 113.38 C 101.34 115.93 94.73 117.47 89.01 121.02 C 82.26 123.88 75.43 127.01 68.10 128.00 C 65.50 128.62 63.46 126.69 61.33 125.61 C 59.13 124.38 56.56 123.33 55.36 120.96 C 53.55 117.42 51.10 114.26 48.20 111.57 C 46.68 111.72 45.17 111.86 43.66 111.99 C 43.56 115.43 43.63 118.92 42.54 122.24 C 43.44 124.47 44.55 126.66 46.42 128.24 C 45.58 128.77 44.71 129.24 43.85 129.73 C 42.65 126.48 39.72 123.66 40.07 119.98 C 40.68 117.18 41.24 114.27 42.76 111.79 C 43.02 110.69 45.03 109.28 43.56 108.34 C 41.87 105.99 38.91 107.48 37.43 109.24 C 33.59 112.26 35.21 117.68 35.76 121.75 C 40.26 126.25 44.42 131.45 45.54 137.89 C 45.73 140.35 47.37 142.20 49.03 143.86 C 49.20 138.88 46.19 134.60 44.02 130.36 C 48.08 129.36 48.55 134.54 50.00 137.12 C 52.10 141.03 52.65 146.99 57.81 148.08 C 65.20 148.26 67.84 139.02 74.86 138.23 C 79.33 137.46 83.50 135.55 87.99 134.86 C 92.89 133.87 98.04 134.52 102.80 132.77 C 107.33 131.05 111.67 128.55 115.03 125.01 C 117.90 122.08 121.74 120.14 125.82 119.65 C 129.31 119.18 132.41 116.60 136.05 117.42 C 142.03 118.38 148.47 117.74 153.78 114.69 C 155.40 107.26 150.60 100.10 145.70 94.92 C 139.36 94.23 134.09 98.17 128.22 99.65 C 130.43 96.51 134.60 95.48 138.20 95.06 C 137.97 94.01 137.74 92.96 137.49 91.92 C 136.78 90.39 136.43 87.64 134.12 88.01 C 124.94 87.55 117.22 93.43 109.72 97.89 Z" />
<path fill="#333333" opacity="1.00" d=" M 224.33 71.45 C 226.00 72.79 226.83 74.75 227.35 76.78 C 224.72 76.25 224.82 73.49 224.33 71.45 Z" />
<path fill="#333333" opacity="1.00" d=" M 197.57 81.50 C 199.74 86.37 195.97 91.64 198.80 96.39 C 197.42 95.68 195.49 95.01 195.47 93.14 C 195.22 89.17 196.28 85.23 197.57 81.50 Z" />
<path fill="#333333" opacity="1.00" d=" M 155.43 88.15 C 160.06 88.79 165.71 89.15 168.48 93.50 C 164.03 92.03 159.53 90.46 155.43 88.15 Z" />
<path fill="#333333" opacity="1.00" d=" M 203.20 93.55 C 205.84 92.72 208.51 92.05 211.20 91.41 C 211.65 92.99 212.09 94.56 212.54 96.14 C 214.54 95.57 216.52 94.89 218.52 94.26 C 217.74 96.47 215.92 97.78 213.84 98.65 C 211.94 97.58 210.29 96.16 209.18 94.26 C 207.18 94.04 205.19 93.81 203.20 93.55 Z" />
<path fill="#333333" opacity="1.00" d=" M 133.61 108.19 C 137.26 104.34 141.89 101.35 147.12 100.20 C 142.72 102.99 138.90 107.22 133.61 108.19 Z" />
<path fill="#333333" opacity="1.00" d=" M 98.93 105.13 C 100.84 104.24 103.04 104.19 104.76 105.54 C 103.07 105.28 99.08 108.15 98.93 105.13 Z" />
<path fill="#333333" opacity="1.00" d=" M 122.19 107.72 C 122.95 107.81 123.70 107.87 124.47 107.89 C 123.08 111.42 119.90 114.07 116.05 114.40 C 117.19 112.59 118.98 111.46 120.81 110.48 C 121.27 109.56 121.73 108.64 122.19 107.72 Z" />
<path fill="#333333" opacity="1.00" d=" M 109.55 118.93 C 110.28 115.69 114.17 116.77 116.55 116.66 C 114.35 117.77 111.96 118.45 109.55 118.93 Z" />
<path fill="#333333" opacity="1.00" d=" M 119.46 119.48 C 121.75 116.59 126.87 114.74 129.74 117.73 C 126.27 118.02 122.85 118.70 119.46 119.48 Z" />
<path fill="#333333" opacity="1.00" d=" M 96.71 119.63 C 98.97 118.67 101.28 117.76 103.77 117.68 C 101.64 120.29 98.25 121.05 95.27 122.25 C 91.36 123.59 87.58 125.35 83.52 126.25 C 87.18 122.73 92.20 121.60 96.71 119.63 Z" />
<path fill="#333333" opacity="1.00" d=" M 55.91 132.00 C 55.57 129.39 52.59 127.03 54.13 124.33 C 58.15 129.17 58.55 135.55 60.23 141.35 C 57.25 139.15 56.53 135.42 55.91 132.00 Z" />
<path fill="#333333" opacity="1.00" d=" M 66.77 136.55 C 69.19 134.90 71.95 133.89 74.79 133.27 C 73.18 136.20 69.63 136.98 66.93 138.58 C 64.39 138.29 62.95 135.91 61.70 133.95 C 63.43 134.72 65.11 135.63 66.77 136.55 Z" />
</g>
</svg>
