<?xml version="1.0" encoding="UTF-8" ?>
<!DOCTYPE svg PUBLIC "-//W3C//DTD SVG 1.1//EN" "http://www.w3.org/Graphics/SVG/1.1/DTD/svg11.dtd">
<svg width="285pt" height="200pt" viewBox="0 0 285 200" version="1.1" xmlns="http://www.w3.org/2000/svg"><g id="#4c4d4bff">
<path fill="#333333" opacity="1.00" d=" M 231.69 32.71 C 237.89 29.72 244.70 31.91 251.03 33.13 C 256.13 34.69 259.87 38.91 262.72 43.23 C 270.03 55.21 271.21 70.39 266.96 83.64 C 264.54 90.54 260.67 97.36 254.36 101.38 C 251.35 103.47 247.67 104.68 243.98 104.34 C 238.25 103.83 232.58 102.62 227.19 100.61 C 221.61 107.21 214.32 112.12 208.31 118.33 C 198.78 128.84 187.26 137.24 176.80 146.77 C 169.13 152.72 162.81 160.38 154.49 165.48 C 155.34 170.36 151.29 174.51 147.07 176.15 C 142.71 175.31 137.88 175.73 134.04 173.19 C 130.31 171.12 127.34 167.56 123.00 166.70 C 117.78 165.99 112.52 165.50 107.38 164.36 C 101.67 162.89 97.15 158.99 92.54 155.54 C 90.15 153.63 87.08 153.06 84.48 151.54 C 82.51 149.80 81.36 147.35 79.74 145.30 C 77.11 141.34 72.95 138.60 70.73 134.34 C 69.07 131.03 67.74 127.48 67.52 123.75 C 58.32 116.65 50.14 108.33 41.43 100.66 C 35.54 95.63 30.27 89.91 24.19 85.08 C 21.27 82.84 18.89 79.42 14.98 78.89 C 13.00 79.17 11.22 80.17 9.41 80.94 C 12.57 85.56 15.47 90.50 19.57 94.38 C 31.33 103.91 42.33 114.36 54.27 123.69 C 61.07 129.72 68.49 135.14 74.54 141.96 C 71.68 141.42 69.31 139.74 67.26 137.79 C 62.24 133.11 57.19 128.45 51.83 124.16 C 41.51 115.85 31.92 106.67 21.59 98.35 C 15.72 93.92 11.21 87.83 7.55 81.53 C 9.14 78.39 12.75 76.84 16.13 76.86 C 20.34 79.01 23.90 82.23 27.78 84.91 C 25.49 77.62 29.74 70.65 34.18 65.20 C 39.06 59.50 47.89 59.85 54.18 62.83 C 60.30 65.66 67.32 68.48 70.52 74.88 C 69.63 77.22 68.62 79.52 67.71 81.86 C 66.42 84.75 68.34 87.71 68.82 90.57 C 71.84 90.32 74.80 89.29 77.85 89.44 C 81.36 90.73 84.67 92.64 88.47 93.05 C 88.87 89.11 87.82 84.77 89.90 81.16 C 92.81 77.01 98.03 74.83 103.02 74.90 C 105.73 74.97 108.42 74.55 110.98 73.65 C 108.04 64.66 108.42 54.49 112.51 45.91 C 115.43 40.05 120.28 34.57 126.90 33.05 C 130.69 31.94 134.66 32.62 138.41 33.54 C 138.62 33.85 139.04 34.48 139.25 34.79 C 141.04 35.98 143.18 34.92 145.12 34.81 C 155.68 33.61 166.35 34.12 176.93 33.04 C 180.71 32.76 185.03 32.40 188.30 34.68 C 195.55 41.30 199.74 50.36 204.38 58.80 C 207.62 59.71 211.04 59.68 214.37 60.02 C 216.12 49.23 221.14 37.44 231.69 32.71 M 228.78 36.79 C 224.85 41.31 220.96 46.08 219.03 51.85 C 215.19 61.21 216.44 71.47 216.54 81.31 C 221.40 88.38 224.88 97.96 234.01 100.47 C 238.94 100.81 243.95 101.09 248.88 100.59 C 257.96 97.93 263.16 88.75 265.51 80.16 C 269.42 69.65 267.04 58.00 262.88 47.96 C 259.75 41.29 254.00 34.66 246.14 34.21 C 240.40 32.80 233.42 32.54 228.78 36.79 M 121.26 38.17 C 117.65 41.88 114.45 46.13 112.93 51.14 C 110.47 58.30 111.61 65.94 111.52 73.33 C 115.32 72.80 119.11 71.82 122.98 72.12 C 129.97 72.62 136.99 72.49 143.97 73.03 C 149.41 70.01 150.38 62.94 147.36 57.83 C 144.97 54.31 148.46 50.84 150.68 48.30 C 152.16 49.15 153.78 49.82 155.09 50.95 C 156.13 52.32 156.36 54.10 156.97 55.68 C 155.08 53.93 152.97 52.46 150.75 51.16 C 149.98 52.64 149.23 54.14 148.51 55.65 C 150.12 59.48 151.96 63.71 150.81 67.92 C 149.37 70.94 146.93 73.55 144.11 75.32 C 136.06 75.46 128.04 74.58 120.01 74.28 C 113.81 74.16 108.17 77.48 101.97 77.28 C 97.94 77.19 94.10 79.38 91.62 82.45 C 90.05 85.70 90.66 89.49 90.40 92.99 C 93.32 94.94 97.09 95.83 99.22 98.84 C 101.20 101.07 101.66 104.09 102.24 106.90 C 102.90 107.44 104.23 108.52 104.89 109.06 C 102.31 102.26 104.07 94.98 103.35 87.94 C 103.23 81.66 110.76 78.77 116.05 79.30 C 119.84 80.02 123.32 77.13 127.12 78.20 C 133.66 79.75 140.38 78.49 146.98 79.39 C 150.20 79.91 153.04 78.01 156.11 77.44 C 158.93 74.61 159.17 70.45 160.41 66.86 C 161.43 64.47 159.21 62.38 159.35 60.00 C 159.34 56.58 158.18 52.05 162.10 50.29 C 166.74 52.27 172.17 53.40 175.60 57.44 C 179.75 64.66 177.85 73.24 179.49 81.08 C 179.62 85.37 182.34 91.10 178.23 94.29 C 172.37 96.32 165.95 95.66 159.91 94.78 C 156.43 95.14 152.79 96.01 150.07 98.34 C 147.47 98.98 144.85 99.50 142.22 99.94 C 139.72 103.55 136.04 106.05 132.32 108.25 C 133.02 109.45 133.79 110.61 134.38 111.87 C 134.20 113.23 135.77 117.60 133.18 115.78 C 131.84 113.16 131.33 110.21 130.20 107.51 C 129.29 106.29 127.92 106.32 126.81 107.24 C 125.69 104.46 124.01 101.92 123.00 99.09 C 122.41 96.62 122.59 94.07 122.49 91.56 C 122.91 91.58 123.74 91.62 124.16 91.63 C 124.41 94.64 124.90 97.62 125.38 100.61 C 125.76 100.50 126.52 100.30 126.90 100.20 C 127.93 102.94 129.93 105.10 131.80 107.28 C 134.65 104.73 137.71 102.41 140.54 99.83 C 135.61 99.69 130.68 99.66 125.75 99.31 L 127.13 97.64 C 132.33 96.98 137.61 97.75 142.81 97.17 C 147.79 95.67 152.66 93.80 157.73 92.58 C 161.49 91.24 165.23 93.79 169.08 93.16 C 172.30 92.58 176.28 93.68 178.73 91.03 C 177.53 84.14 176.26 77.18 176.53 70.14 C 176.65 64.06 174.76 56.92 168.42 54.62 C 167.49 56.26 166.59 57.91 165.69 59.55 C 165.04 58.82 164.43 58.06 163.86 57.27 C 164.51 56.09 165.20 54.94 165.93 53.80 C 164.44 53.26 162.94 52.73 161.44 52.22 C 161.34 56.54 160.90 60.96 162.86 64.97 C 162.15 68.70 160.90 72.33 159.90 76.00 C 157.27 81.80 149.73 83.18 144.23 80.98 C 140.59 79.05 136.80 81.84 133.02 81.29 C 128.96 81.21 124.80 79.05 120.88 80.97 C 118.37 82.11 115.67 81.16 113.07 81.16 C 110.30 82.16 107.10 83.27 105.56 85.98 C 104.97 89.15 105.96 92.37 105.75 95.57 C 106.50 95.52 107.98 95.44 108.72 95.40 C 107.58 96.25 106.42 97.07 105.25 97.87 C 103.90 104.23 107.25 110.32 107.85 116.59 C 104.90 113.65 103.66 109.41 100.18 106.93 C 99.46 103.05 97.72 99.02 93.95 97.24 C 89.59 94.34 84.02 94.94 79.53 92.40 C 75.87 90.14 71.55 92.65 67.57 91.40 C 66.96 88.88 66.37 86.35 65.44 83.93 C 64.68 82.54 63.43 84.07 62.56 84.49 C 60.46 86.00 57.58 84.91 55.43 86.27 C 52.60 87.89 49.22 89.41 46.02 87.80 C 43.20 87.29 42.88 84.20 42.41 81.92 C 44.47 83.51 46.16 86.12 49.09 85.88 C 51.96 86.29 54.27 84.15 57.01 83.81 C 60.25 83.39 63.30 82.18 66.54 81.79 C 67.22 79.53 68.18 77.35 68.58 75.03 C 66.43 70.95 62.10 68.89 58.18 66.89 C 52.65 64.06 46.40 61.12 40.09 63.09 C 34.73 65.34 31.52 70.72 29.82 76.05 C 27.14 82.07 30.92 89.49 36.92 91.79 C 39.55 92.37 42.30 92.15 44.91 92.89 C 47.36 94.33 50.56 95.17 51.79 98.01 C 53.89 101.33 53.69 105.39 54.96 108.98 C 56.68 112.02 59.58 114.10 61.94 116.59 C 61.38 111.21 62.72 105.51 66.36 101.43 C 69.65 99.17 72.43 94.94 76.90 95.46 C 81.63 97.13 85.19 101.25 87.34 105.68 C 88.73 108.32 87.91 111.78 89.99 114.08 C 91.77 116.11 93.29 118.43 93.87 121.11 C 94.81 121.15 95.75 121.18 96.69 121.21 C 97.21 119.04 97.55 116.83 97.98 114.64 L 98.40 116.31 C 100.75 116.03 103.07 115.53 105.43 115.37 C 103.43 117.11 100.86 117.86 98.44 118.79 C 99.80 120.04 101.48 120.87 102.98 121.97 C 103.90 121.40 104.83 120.83 105.76 120.26 C 105.63 120.78 105.38 121.81 105.26 122.32 C 104.62 122.30 103.34 122.25 102.70 122.23 C 101.70 124.58 100.23 126.77 97.70 127.65 C 98.79 125.33 101.45 123.18 99.73 120.43 C 99.24 120.64 98.25 121.05 97.76 121.26 C 97.11 122.49 95.79 122.76 94.61 123.13 C 97.12 127.60 100.23 132.13 99.72 137.53 C 101.75 139.08 103.88 140.49 106.09 141.78 C 108.98 139.53 111.08 136.54 111.97 132.96 C 111.04 129.31 109.53 125.87 108.16 122.38 C 112.79 125.00 113.08 130.82 115.47 135.07 C 117.99 139.32 113.37 142.85 111.09 145.95 C 113.44 147.71 115.75 149.64 118.59 150.56 C 122.65 151.96 126.58 154.21 130.94 154.40 C 137.57 153.12 140.89 144.96 138.75 138.95 C 136.91 134.05 137.92 128.62 135.90 123.79 C 136.68 121.19 137.71 118.69 138.77 116.20 C 132.69 122.56 123.46 123.73 115.11 123.45 C 111.72 122.99 107.47 121.81 106.61 117.97 C 107.77 115.61 109.23 118.75 109.62 119.90 C 111.51 120.58 113.43 121.18 115.35 121.78 C 115.02 120.12 114.69 118.46 114.37 116.80 C 113.92 117.03 113.03 117.48 112.58 117.70 C 112.13 111.64 108.80 106.33 108.05 100.38 C 111.90 104.18 112.25 110.10 113.06 115.14 C 113.36 115.45 113.96 116.06 114.25 116.37 C 113.78 111.83 114.40 107.30 114.96 102.80 C 115.27 109.00 116.01 115.18 117.30 121.26 C 124.43 120.63 131.84 119.12 137.69 114.75 C 136.39 113.45 135.05 112.16 133.86 110.77 C 137.50 111.07 139.98 113.78 141.46 116.84 C 140.77 118.56 140.05 120.27 139.30 121.96 C 140.28 125.58 139.46 129.33 139.73 133.02 C 139.79 136.81 141.61 140.30 141.75 144.07 C 141.69 146.83 140.04 149.16 138.68 151.44 C 141.74 150.20 145.07 149.93 148.25 150.88 C 144.35 153.62 139.07 152.50 134.96 154.96 C 129.87 158.20 123.87 155.34 119.04 153.02 C 111.10 149.76 105.73 142.55 97.99 138.94 C 95.62 137.36 92.00 136.46 91.41 133.26 C 93.71 134.41 95.82 135.89 98.05 137.15 C 97.75 134.67 97.47 132.09 96.02 129.98 C 93.02 125.24 91.90 119.58 88.45 115.09 C 87.75 116.63 87.04 118.18 86.18 119.64 C 86.34 116.46 87.60 113.38 87.33 110.18 C 85.39 104.67 81.78 99.29 76.03 97.28 C 73.53 98.18 70.96 99.27 69.16 101.29 C 64.35 105.36 63.77 111.99 63.50 117.86 C 65.49 119.96 68.35 121.57 69.02 124.59 C 70.18 128.53 71.99 132.26 74.21 135.71 C 76.34 138.61 79.59 140.41 81.92 143.12 C 83.27 145.00 84.17 147.15 85.15 149.23 C 93.00 151.37 97.84 158.76 105.57 161.11 C 107.96 161.94 110.40 162.72 112.95 162.70 C 119.06 162.84 125.38 163.99 130.62 167.25 C 133.34 169.63 136.29 171.95 140.07 172.15 C 142.34 173.05 144.75 173.51 147.14 173.93 C 149.95 171.36 154.41 167.75 151.55 163.59 C 150.30 158.75 144.58 158.42 141.95 154.75 C 142.72 154.75 144.26 154.74 145.03 154.74 C 150.10 149.85 155.27 145.07 160.90 140.82 C 172.64 130.06 185.10 120.06 196.58 109.01 C 190.22 107.81 184.32 104.95 177.87 104.13 C 171.32 103.42 165.06 101.38 158.63 100.09 C 158.66 100.75 158.73 102.08 158.76 102.75 C 152.74 106.71 148.45 112.87 141.92 116.09 C 146.53 110.71 151.74 105.61 157.78 101.86 C 155.74 99.96 153.02 99.47 150.38 99.00 C 159.34 96.32 168.16 101.02 177.10 101.41 C 186.62 103.38 195.82 106.61 205.11 109.42 C 208.67 110.55 211.21 106.96 214.22 105.74 C 213.01 108.39 210.73 110.39 208.03 111.44 C 204.19 111.40 200.54 109.94 196.82 109.18 C 196.77 109.79 196.66 111.01 196.61 111.62 C 189.04 118.69 181.23 125.50 173.41 132.30 C 168.40 136.29 164.04 141.03 158.86 144.81 C 154.25 148.06 150.53 152.36 146.00 155.69 C 149.64 157.40 153.40 159.94 154.10 164.24 C 166.03 153.11 178.44 142.48 190.57 131.55 C 202.63 121.10 214.09 109.96 226.34 99.75 C 224.96 98.29 223.61 96.80 222.29 95.29 C 218.94 98.19 215.56 101.05 212.52 104.28 C 211.11 95.26 211.52 85.85 208.27 77.19 C 205.10 68.17 202.35 58.88 197.39 50.62 C 194.53 44.84 190.51 39.63 185.63 35.43 C 176.43 34.48 167.19 36.20 157.98 36.29 C 151.40 36.36 144.81 36.56 138.29 37.49 C 135.98 38.22 133.86 39.43 131.74 40.57 C 139.47 39.93 147.20 39.19 154.96 38.80 C 163.12 38.76 171.29 38.92 179.45 38.60 C 179.52 39.06 179.66 39.97 179.73 40.42 C 171.20 41.82 162.59 40.02 154.03 40.74 C 145.95 41.47 137.81 41.96 129.72 41.25 C 133.14 50.54 138.31 59.26 139.69 69.24 C 139.11 68.83 137.94 68.02 137.36 67.61 C 135.12 60.42 132.51 53.31 129.43 46.43 C 128.66 44.43 126.88 42.27 127.97 40.06 C 130.53 37.21 134.75 37.24 138.04 35.69 C 137.22 34.33 135.28 34.73 133.96 34.37 C 129.52 33.98 124.29 34.49 121.26 38.17 M 205.01 61.18 C 205.71 62.75 206.36 64.37 207.31 65.81 C 209.40 66.47 211.63 66.52 213.78 66.84 C 213.84 65.29 213.90 63.74 213.96 62.19 C 210.98 61.80 208.00 61.45 205.01 61.18 M 207.92 68.12 C 211.33 76.24 212.83 85.03 213.21 93.79 C 214.71 92.88 215.86 90.37 217.87 91.14 C 217.91 93.43 215.07 94.31 213.80 95.93 C 214.04 97.45 214.26 98.97 214.46 100.50 C 216.65 98.19 219.01 96.07 221.45 94.04 C 220.17 91.54 218.54 89.23 217.33 86.70 C 214.92 80.97 214.15 74.73 213.65 68.58 C 211.74 68.42 209.83 68.26 207.92 68.12 M 39.19 94.98 C 43.44 99.62 47.95 104.03 52.71 108.15 C 52.24 104.47 51.59 100.64 49.51 97.48 C 47.83 96.04 45.77 95.18 43.87 94.08 C 42.32 94.40 40.75 94.70 39.19 94.98 M 106.45 142.40 C 107.36 142.95 108.27 143.50 109.18 144.05 C 110.82 142.07 112.38 140.03 113.91 137.96 C 113.86 137.24 113.76 135.81 113.71 135.09 C 112.22 138.30 110.04 141.39 106.45 142.40 Z" />
<path fill="#333333" opacity="1.00" d=" M 231.71 39.65 C 233.11 38.25 235.13 37.88 236.94 37.29 C 232.79 42.45 227.88 47.35 226.12 53.96 C 223.32 62.29 223.56 71.25 224.68 79.85 C 225.97 87.27 230.74 93.27 235.35 98.94 C 231.87 99.67 229.93 96.24 228.22 93.87 C 222.03 83.98 220.39 71.72 222.14 60.32 C 223.77 52.88 226.12 45.13 231.71 39.65 Z" />
<path fill="#333333" opacity="1.00" d=" M 182.05 40.67 C 185.60 42.97 187.23 46.97 189.41 50.41 C 193.70 57.32 196.65 64.92 199.77 72.40 C 201.63 78.51 203.03 84.98 202.21 91.40 C 199.71 85.33 199.61 78.56 197.06 72.49 C 192.33 61.76 187.09 51.25 182.05 40.67 Z" />
<path fill="#333333" opacity="1.00" d=" M 268.36 53.79 C 268.58 49.02 273.96 46.81 277.73 45.10 C 274.76 48.15 271.87 51.34 268.36 53.79 Z" />
<path fill="#333333" opacity="1.00" d=" M 269.64 62.17 C 272.61 58.02 276.56 54.44 281.03 51.95 C 279.37 55.48 276.12 57.77 273.34 60.34 C 272.36 61.38 270.96 61.79 269.64 62.17 Z" />
<path fill="#333333" opacity="1.00" d=" M 241.80 62.75 C 248.93 62.94 256.03 63.64 263.16 63.94 C 265.01 66.86 266.45 70.41 265.07 73.85 C 264.01 75.30 262.59 76.44 261.27 77.64 C 255.12 77.07 248.88 77.18 242.79 76.12 C 240.63 75.65 240.34 73.13 239.93 71.35 C 239.32 68.32 240.82 65.51 241.80 62.75 M 243.50 74.27 C 249.22 74.97 255.03 75.35 260.80 75.56 C 264.78 73.45 264.01 68.39 261.77 65.30 C 259.68 68.22 260.95 71.95 259.22 74.91 C 257.30 71.95 257.72 68.56 259.77 65.79 C 254.31 65.42 248.86 64.98 243.41 64.56 C 241.88 67.42 240.69 71.93 243.50 74.27 Z" />
<path fill="#333333" opacity="1.00" d=" M 93.33 92.45 C 93.19 88.08 96.51 84.02 100.78 83.26 C 101.52 83.75 102.22 84.30 102.93 84.84 C 101.16 85.37 99.12 85.41 97.63 86.63 C 96.05 88.45 94.87 90.58 93.33 92.45 Z" />
<path fill="#333333" opacity="1.00" d=" M 130.96 86.32 C 135.35 84.92 139.96 84.45 144.56 84.52 C 144.52 84.92 144.45 85.70 144.41 86.10 C 139.92 86.08 135.44 86.40 130.96 86.32 Z" />
<path fill="#333333" opacity="1.00" d=" M 169.86 85.74 C 170.98 85.02 172.12 84.34 173.27 83.69 C 172.71 87.66 168.57 87.84 165.41 87.71 C 165.47 87.23 165.58 86.28 165.64 85.80 C 167.05 85.79 168.45 85.77 169.86 85.74 Z" />
<path fill="#333333" opacity="1.00" d=" M 50.47 89.45 C 55.57 89.59 62.39 89.82 65.22 94.75 C 61.75 93.80 58.47 92.23 54.91 91.61 C 53.22 91.37 51.68 90.66 50.47 89.45 Z" />
<path fill="#333333" opacity="1.00" d=" M 131.63 91.84 C 137.28 91.60 142.93 91.33 148.54 90.54 C 147.56 91.44 146.55 92.53 145.08 92.42 C 140.59 92.73 136.10 93.11 131.59 93.28 C 131.60 92.92 131.62 92.20 131.63 91.84 Z" />
<path fill="#333333" opacity="1.00" d=" M 136.48 111.45 C 139.74 106.22 144.96 102.37 150.01 98.97 C 146.60 104.13 141.52 107.99 136.48 111.45 Z" />
<path fill="#333333" opacity="1.00" d=" M 89.71 111.44 C 91.70 108.41 95.24 107.82 98.57 107.36 C 98.48 107.81 98.31 108.70 98.22 109.14 C 95.36 109.81 92.52 110.57 89.71 111.44 Z" />
<path fill="#333333" opacity="1.00" d=" M 127.55 107.96 C 130.26 108.87 131.12 111.74 132.10 114.14 C 133.22 115.53 131.61 116.69 131.13 117.89 C 130.54 114.39 129.38 111.01 127.55 107.96 Z" />
<path fill="#333333" opacity="1.00" d=" M 183.22 128.30 C 187.11 125.00 190.29 120.88 194.58 118.05 C 190.16 126.25 181.96 131.18 175.45 137.50 C 169.07 143.76 162.10 149.38 155.40 155.28 C 154.09 156.44 152.52 157.27 150.88 157.87 C 153.87 154.21 157.62 151.31 161.05 148.11 C 168.40 141.46 175.73 134.79 183.22 128.30 Z" />
<path fill="#333333" opacity="1.00" d=" M 69.50 119.30 C 73.19 119.04 76.40 120.87 79.46 122.70 C 79.44 123.18 79.40 124.15 79.38 124.63 C 76.26 123.05 73.11 121.32 69.52 121.21 C 69.52 120.73 69.50 119.78 69.50 119.30 Z" />
<path fill="#333333" opacity="1.00" d=" M 72.17 127.82 C 73.83 129.59 75.23 131.57 76.38 133.70 C 73.13 133.57 72.54 130.38 72.17 127.82 Z" />
<path fill="#333333" opacity="1.00" d=" M 76.31 131.44 C 77.50 130.75 78.54 128.98 80.11 129.63 C 83.71 131.81 84.64 136.42 84.37 140.33 C 81.84 138.11 81.23 134.68 79.93 131.73 C 79.03 131.66 77.22 131.51 76.31 131.44 Z" />
<path fill="#333333" opacity="1.00" d=" M 117.97 139.65 C 117.76 136.43 119.18 133.54 121.81 131.71 C 120.91 134.52 119.58 137.18 117.97 139.65 Z" />
<path fill="#333333" opacity="1.00" d=" M 86.05 145.11 C 91.12 146.51 96.34 146.31 101.55 146.29 C 101.56 146.76 101.58 147.72 101.59 148.20 C 96.36 147.54 89.82 150.06 86.05 145.11 Z" />
<path fill="#333333" opacity="1.00" d=" M 138.85 169.89 C 140.54 166.84 143.15 164.30 146.27 162.74 C 145.17 166.26 142.20 168.63 138.85 169.89 Z" />
<path fill="#333333" opacity="1.00" d=" M 182.09 164.73 C 186.47 164.26 190.76 162.83 195.22 163.34 C 188.62 166.16 181.26 165.86 174.39 167.62 C 168.79 169.07 163.10 170.13 157.46 171.41 C 157.48 171.00 157.52 170.18 157.54 169.77 C 165.65 167.73 173.76 165.59 182.09 164.73 Z" />
<path fill="#333333" opacity="1.00" d=" M 177.98 176.17 C 182.46 175.48 186.94 174.46 191.50 174.61 C 189.37 175.73 187.06 176.37 184.72 176.86 C 164.85 180.34 144.88 183.24 125.11 187.33 C 120.87 188.06 116.92 190.01 112.59 190.30 C 115.77 188.30 119.45 187.47 122.89 186.06 C 128.38 183.75 134.47 183.93 140.19 182.45 C 152.63 179.48 165.43 178.53 177.98 176.17 Z" />
</g>
</svg>
