<?xml version="1.0" encoding="UTF-8" ?>
<!DOCTYPE svg PUBLIC "-//W3C//DTD SVG 1.1//EN" "http://www.w3.org/Graphics/SVG/1.1/DTD/svg11.dtd">
<svg width="215pt" height="250pt" viewBox="0 0 215 250" version="1.1" xmlns="http://www.w3.org/2000/svg"><g id="#474846ff">
<path fill="#333333" opacity="1.00" d=" M 110.43 37.75 C 113.92 34.79 118.27 32.17 123.06 32.96 C 128.59 32.96 133.56 35.48 138.92 36.36 C 144.49 38.22 150.76 41.31 152.32 47.52 C 153.77 52.89 154.94 58.36 155.49 63.90 C 155.59 65.76 156.84 67.19 157.92 68.59 C 158.07 69.23 158.23 69.87 158.39 70.51 C 157.26 71.81 156.13 73.10 154.99 74.39 C 154.50 74.03 153.53 73.31 153.04 72.95 C 153.52 76.62 153.31 80.31 153.02 83.98 C 152.35 89.16 156.52 93.35 156.26 98.51 C 156.16 105.66 160.21 111.92 161.01 118.92 C 161.72 128.11 155.85 136.63 157.64 145.87 C 158.75 149.95 157.13 153.95 156.86 158.02 C 156.15 160.72 154.25 163.08 154.17 165.95 C 154.38 171.12 148.45 173.93 143.99 174.08 C 139.75 174.69 136.15 172.04 132.31 170.73 C 131.75 169.33 131.97 167.77 131.85 166.30 C 134.18 162.52 137.76 159.71 139.76 155.72 C 141.46 152.32 144.20 149.37 144.67 145.46 C 145.72 138.36 145.46 130.78 142.62 124.10 C 140.54 118.57 142.49 112.59 141.61 106.90 C 140.47 101.63 138.45 96.60 136.60 91.55 C 136.17 93.87 135.83 96.21 135.39 98.53 C 133.92 100.38 132.53 102.30 131.02 104.12 C 134.84 108.09 136.00 113.94 135.23 119.26 C 134.50 122.70 131.02 124.87 127.76 125.44 C 125.42 125.87 123.50 124.24 121.59 123.18 C 120.72 123.90 119.83 124.60 118.94 125.30 C 119.17 128.55 119.71 133.18 115.65 134.21 C 118.65 138.59 118.48 144.23 118.20 149.31 C 114.94 151.84 110.83 151.45 107.00 151.04 C 102.94 150.50 99.97 154.34 95.97 154.17 C 90.99 155.25 84.91 153.73 82.25 149.10 C 83.39 147.62 84.21 145.76 85.81 144.72 C 88.01 143.84 90.60 144.03 92.52 142.47 C 96.40 139.62 98.60 134.95 103.05 132.77 C 98.70 128.86 96.06 123.00 96.41 117.13 C 96.84 112.79 101.07 110.37 104.80 109.14 C 106.54 102.23 106.43 94.94 104.97 88.00 C 104.98 86.76 105.11 85.54 105.35 84.32 C 108.02 92.30 109.01 101.17 106.88 109.37 C 109.11 110.24 111.26 111.31 113.24 112.66 C 113.68 112.02 114.12 111.38 114.57 110.74 C 112.78 106.69 115.70 103.21 119.13 101.45 C 116.90 104.22 114.76 107.18 115.36 110.99 C 117.74 108.84 119.10 105.85 119.80 102.77 C 119.52 101.04 118.88 99.40 118.42 97.72 C 118.15 98.75 117.62 100.82 117.36 101.85 C 114.02 97.90 118.82 93.82 119.78 89.84 C 114.04 85.64 106.36 85.58 100.97 80.87 C 97.17 81.83 93.12 81.22 89.73 79.29 L 89.04 78.98 C 88.59 78.62 87.68 77.89 87.23 77.53 C 85.65 81.26 82.99 85.69 85.48 89.60 C 88.48 91.47 91.79 93.49 92.78 97.14 C 94.84 102.19 96.16 110.20 90.26 113.18 C 87.28 115.32 83.47 114.51 80.82 112.27 C 79.97 112.90 79.12 113.52 78.27 114.14 C 78.39 116.40 78.57 118.72 77.95 120.93 C 75.88 123.07 72.97 124.14 70.17 124.97 C 70.20 143.37 70.35 161.76 70.33 180.16 C 56.35 187.56 42.28 194.80 28.30 202.19 C 27.00 202.99 25.51 203.26 24.07 202.64 C 27.49 200.04 31.47 198.34 35.23 196.31 C 46.34 190.47 57.48 184.68 68.61 178.88 C 68.03 165.58 68.33 152.26 68.11 138.95 C 67.51 131.13 68.02 123.29 67.71 115.46 C 65.80 118.86 62.14 121.77 62.36 125.99 C 62.30 142.23 62.26 158.46 62.32 174.69 C 50.52 180.48 39.12 187.15 27.09 192.44 C 27.50 190.76 28.66 189.61 30.20 188.96 C 39.63 184.17 49.05 179.34 58.43 174.44 C 60.31 173.80 60.22 171.60 60.28 169.98 C 60.38 155.06 60.20 140.13 60.62 125.21 C 50.77 139.41 40.05 152.96 29.83 166.89 C 29.08 168.30 27.68 168.81 26.14 168.76 C 27.82 165.67 30.04 162.94 32.12 160.12 C 47.64 139.31 63.03 118.41 78.54 97.59 C 80.56 95.04 82.49 92.38 83.81 89.38 C 82.51 87.60 81.41 85.65 79.95 83.99 C 74.45 81.83 68.49 81.50 62.78 80.14 C 59.25 79.48 55.60 79.07 52.01 79.53 C 49.11 80.11 47.48 82.81 45.71 84.90 C 35.30 97.47 24.75 109.91 14.36 122.49 C 13.74 122.24 13.12 122.00 12.50 121.76 C 23.21 108.41 34.44 95.49 45.30 82.26 C 47.28 79.65 50.15 77.99 52.96 76.41 C 54.30 76.84 55.64 77.28 56.98 77.71 C 55.12 70.48 58.67 62.82 64.63 58.64 C 67.74 56.76 68.75 52.64 72.39 51.41 C 76.61 49.92 80.19 47.20 84.05 45.02 C 87.80 43.30 92.04 43.29 96.08 43.12 C 100.66 40.86 105.49 39.00 110.43 37.75 M 112.89 37.88 C 117.94 39.17 123.35 39.49 128.04 41.91 C 132.53 45.01 135.26 50.39 135.69 55.78 C 135.85 55.69 136.18 55.51 136.34 55.43 C 136.09 59.08 136.17 63.12 133.31 65.86 L 135.01 67.03 C 133.37 67.03 131.73 67.02 130.09 66.99 C 130.94 69.11 131.10 71.52 132.36 73.44 C 137.84 76.77 145.38 77.03 150.38 72.59 C 150.29 73.57 150.20 74.55 150.12 75.52 C 147.47 76.50 144.92 78.20 141.98 78.02 C 138.82 77.86 135.74 77.04 132.64 76.46 C 135.71 80.32 139.76 84.86 137.66 90.17 C 140.67 95.97 141.90 102.47 144.45 108.44 C 147.66 113.61 149.26 119.73 148.52 125.82 C 146.43 125.06 147.14 122.56 146.88 120.81 C 146.98 117.21 145.47 113.85 143.85 110.72 C 143.69 113.16 143.44 115.59 143.44 118.03 C 143.53 122.98 146.96 127.12 147.12 132.06 C 147.63 138.33 147.52 145.00 144.67 150.75 C 142.77 153.78 141.14 156.98 139.14 159.95 C 136.64 162.71 134.33 165.64 132.63 168.97 C 133.80 169.34 134.98 169.72 136.16 170.07 C 137.08 168.67 137.91 167.20 139.06 165.97 C 142.67 167.19 146.84 165.82 150.10 168.00 C 146.59 168.64 143.05 168.45 139.52 168.23 C 139.03 168.70 138.05 169.64 137.56 170.12 C 141.95 173.53 148.29 172.30 151.52 167.93 C 151.65 161.65 155.71 156.30 156.43 150.16 C 155.71 145.79 155.28 141.33 156.14 136.94 C 157.27 131.62 159.27 126.46 159.60 120.99 C 159.44 115.70 157.46 110.69 155.50 105.84 C 154.10 108.85 153.77 112.53 151.12 114.79 C 152.12 109.99 153.78 105.36 154.56 100.50 C 155.77 96.26 152.93 92.45 151.64 88.61 C 149.70 83.78 152.83 78.60 151.23 73.73 C 150.71 71.58 150.98 69.33 150.92 67.15 C 152.79 68.34 153.59 70.45 154.75 72.24 C 157.23 69.45 154.09 66.73 153.79 63.81 C 153.04 58.54 151.02 53.51 151.09 48.12 C 147.44 41.78 140.27 38.24 133.15 37.67 C 126.76 35.00 118.88 33.37 112.89 37.88 M 97.18 44.09 C 93.80 45.86 89.78 44.99 86.22 46.22 C 82.20 47.05 79.72 50.75 75.91 52.05 C 73.24 52.96 70.83 54.44 68.82 56.43 C 72.09 57.19 75.20 59.67 78.67 58.58 C 80.48 57.83 79.15 60.07 79.07 60.91 C 80.62 62.64 81.91 64.61 82.33 66.94 C 84.19 66.24 86.14 65.78 88.12 65.54 C 86.38 67.45 84.01 68.52 81.67 69.51 C 80.58 67.51 80.07 65.18 78.69 63.36 C 76.39 61.18 73.28 59.81 70.18 59.31 C 61.62 60.17 56.28 70.08 59.37 77.85 C 66.73 78.94 74.08 80.08 81.28 82.00 C 81.71 82.81 82.14 83.62 82.56 84.44 C 83.58 81.01 85.20 77.79 87.97 75.43 C 90.76 79.37 96.08 78.84 100.33 79.00 C 103.47 80.75 106.49 82.88 110.01 83.80 C 113.36 84.08 116.68 83.29 120.01 83.08 C 118.69 84.07 117.33 85.01 115.94 85.90 C 118.65 87.62 121.79 88.62 124.98 88.85 C 127.33 88.45 129.64 87.66 132.06 87.80 C 129.73 89.94 126.27 90.28 123.93 92.20 C 122.06 97.57 123.02 103.75 119.83 108.75 C 118.32 110.78 116.10 112.09 113.94 113.33 C 115.25 115.16 116.42 117.08 117.53 119.04 C 117.92 118.52 118.68 117.48 119.06 116.97 C 118.72 117.51 118.03 118.60 117.68 119.14 C 117.90 120.58 118.12 122.02 118.34 123.46 C 120.01 121.85 121.69 120.24 123.39 118.65 C 121.06 113.00 124.90 107.66 128.62 103.73 C 133.47 99.06 134.91 92.23 136.98 86.09 C 135.77 82.84 133.49 80.13 131.06 77.70 C 132.62 75.83 131.02 73.90 129.88 72.32 C 129.31 73.35 128.79 74.41 128.22 75.44 C 123.83 71.96 116.63 71.35 114.70 65.21 C 116.27 66.42 117.70 67.79 119.15 69.14 C 120.11 66.17 120.27 63.03 120.98 60.02 C 122.88 57.42 125.52 55.47 127.76 53.18 C 127.71 56.84 124.12 58.40 122.29 61.06 C 121.83 63.87 121.63 66.72 121.03 69.50 C 121.64 69.92 122.87 70.74 123.48 71.15 C 126.36 69.18 128.16 66.06 131.07 64.12 C 133.09 62.94 133.60 60.58 134.27 58.53 C 132.90 54.82 133.29 50.50 130.66 47.31 C 126.39 40.40 117.24 40.35 110.08 39.47 C 105.73 40.85 101.28 42.04 97.18 44.09 M 125.02 71.90 C 125.62 72.28 126.23 72.65 126.84 73.03 C 127.63 72.57 128.43 72.13 129.24 71.69 C 129.33 70.79 129.51 68.99 129.60 68.09 C 128.21 69.53 126.66 70.78 125.02 71.90 M 120.57 94.13 C 119.33 96.45 120.89 98.96 121.29 101.32 C 121.38 97.24 122.97 93.45 123.77 89.50 C 122.57 90.94 121.30 92.38 120.57 94.13 M 82.62 94.00 C 86.64 96.78 90.30 100.92 89.37 106.21 C 88.70 103.79 88.19 101.34 87.44 98.95 C 85.24 98.63 83.54 97.22 81.84 95.92 C 81.13 97.07 80.44 98.24 79.75 99.41 C 80.59 100.51 81.44 101.63 82.25 102.76 C 80.88 102.27 79.52 101.75 78.17 101.22 C 77.25 102.45 76.33 103.69 75.41 104.92 C 76.44 107.26 77.40 109.64 78.11 112.10 C 79.27 110.96 80.44 109.82 81.61 108.68 C 81.68 109.12 81.82 110.01 81.90 110.46 C 83.53 111.19 85.07 112.09 86.53 113.11 C 89.37 111.99 91.97 109.84 92.76 106.79 C 93.47 103.21 92.14 99.71 90.99 96.38 C 89.10 94.80 87.15 93.27 84.97 92.11 C 84.38 92.59 83.21 93.53 82.62 94.00 M 128.03 106.96 C 131.10 109.46 132.26 113.59 130.39 117.21 C 129.32 114.48 129.69 110.68 126.85 109.07 C 124.44 112.00 124.21 115.61 125.55 119.08 C 125.13 119.58 124.29 120.59 123.87 121.09 C 124.98 122.14 126.10 123.19 127.21 124.24 C 130.16 123.15 132.92 120.99 133.76 117.83 C 134.47 114.28 133.21 110.80 131.98 107.53 C 131.44 106.96 130.37 105.82 129.83 105.26 C 129.38 105.68 128.48 106.54 128.03 106.96 M 73.80 107.00 C 73.16 108.02 72.52 109.05 71.88 110.09 C 72.50 112.94 73.01 115.86 72.61 118.79 C 71.04 116.70 70.75 114.04 69.96 111.63 C 69.29 115.35 69.66 119.22 70.19 122.94 C 72.86 123.20 75.20 121.31 76.36 119.05 C 77.44 114.84 75.52 110.74 73.80 107.00 M 97.60 122.08 C 100.52 127.11 103.94 133.09 110.08 134.43 C 112.99 135.17 115.11 132.54 116.99 130.79 C 117.94 122.85 113.81 113.84 105.95 111.11 C 100.47 110.68 96.77 117.18 97.60 122.08 M 104.01 133.98 C 100.29 136.63 97.80 140.49 94.60 143.65 C 91.66 146.73 86.21 145.34 84.29 149.67 C 85.60 150.45 86.90 151.27 88.24 152.01 C 90.97 153.81 94.25 151.86 97.23 152.15 C 100.31 150.78 103.46 148.99 106.97 149.45 C 110.04 149.82 113.21 150.21 116.16 148.98 C 116.36 144.44 115.89 139.91 115.32 135.42 C 114.64 135.32 113.27 135.11 112.59 135.01 C 113.77 138.19 113.48 141.64 110.99 144.11 C 111.43 141.29 111.95 138.47 112.18 135.62 C 109.37 135.57 106.57 135.18 104.01 133.98 Z" />
<path fill="#333333" opacity="1.00" d=" M 104.39 46.31 C 107.89 43.78 112.21 42.93 116.40 42.38 C 114.96 43.17 113.44 43.80 111.89 44.32 C 106.62 45.84 102.68 50.42 97.05 50.94 C 91.67 51.65 87.90 55.90 83.69 58.88 C 85.67 55.30 88.93 52.66 92.44 50.68 C 96.41 49.18 100.86 48.89 104.39 46.31 Z" />
<path fill="#333333" opacity="1.00" d=" M 76.55 53.27 C 79.53 51.99 84.11 49.10 86.41 52.95 C 83.17 53.53 79.73 54.86 76.55 53.27 Z" />
<path fill="#333333" opacity="1.00" d=" M 100.42 60.95 C 101.15 56.86 104.05 53.77 108.19 53.07 C 107.13 54.80 105.62 56.15 104.00 57.34 C 103.02 59.22 101.79 60.96 100.93 62.90 C 101.43 65.81 104.52 67.64 104.53 70.80 C 102.28 69.69 100.59 67.82 99.16 65.80 C 98.63 63.44 97.72 61.20 96.96 58.92 C 98.12 59.58 99.27 60.26 100.42 60.95 Z" />
<path fill="#333333" opacity="1.00" d=" M 106.58 57.07 C 108.17 56.38 109.77 55.71 111.39 55.12 C 114.31 58.17 112.98 63.05 110.52 65.98 C 114.28 70.32 104.83 71.65 106.51 76.29 C 104.68 76.18 102.85 76.10 101.05 75.74 C 101.54 73.67 103.57 74.19 105.21 74.23 C 106.15 71.21 108.89 69.22 109.73 66.18 C 110.75 63.29 111.60 60.34 111.70 57.26 C 110.00 57.21 108.29 57.16 106.58 57.07 Z" />
<path fill="#333333" opacity="1.00" d=" M 78.77 70.27 C 83.31 70.33 84.25 75.50 82.52 78.87 C 82.21 78.90 81.58 78.94 81.26 78.97 C 81.77 77.25 82.25 75.53 82.76 73.81 C 81.40 72.66 80.04 71.52 78.77 70.27 Z" />
<path fill="#333333" opacity="1.00" d=" M 84.09 73.36 C 86.27 70.27 90.38 70.52 93.73 70.16 C 93.79 70.59 93.90 71.46 93.96 71.89 C 90.63 72.05 87.38 72.86 84.09 73.36 Z" />
<path fill="#333333" opacity="1.00" d=" M 76.09 86.84 C 76.61 86.76 77.64 86.61 78.16 86.53 C 74.34 92.19 70.64 97.92 66.08 103.03 C 61.19 110.12 55.94 116.94 50.86 123.90 C 48.14 127.35 45.79 131.14 42.50 134.10 C 42.39 132.46 42.81 130.92 43.93 129.70 C 48.85 123.39 53.33 116.70 58.97 110.99 C 64.72 102.98 71.22 95.44 76.09 86.84 Z" />
<path fill="#333333" opacity="1.00" d=" M 140.15 93.23 C 140.48 91.49 140.93 89.79 141.41 88.09 C 143.69 89.08 146.08 89.76 148.56 89.95 C 148.83 91.52 149.14 93.10 149.19 94.70 C 148.78 93.86 147.96 92.18 147.55 91.33 C 145.82 90.88 144.11 90.41 142.40 89.91 C 141.84 90.74 140.71 92.40 140.15 93.23 Z" />
<path fill="#333333" opacity="1.00" d=" M 142.29 99.76 C 143.92 99.52 147.31 97.06 147.29 100.17 C 145.64 100.87 143.91 100.15 142.29 99.76 Z" />
<path fill="#333333" opacity="1.00" d=" M 101.49 113.16 C 107.27 114.04 111.51 119.26 112.95 124.68 C 112.52 124.53 111.64 124.22 111.21 124.07 C 109.31 119.32 104.94 116.62 101.49 113.16 Z" />
<path fill="#333333" opacity="1.00" d=" M 148.08 143.70 C 151.90 144.93 152.61 149.29 154.06 152.52 C 150.78 150.64 149.66 146.88 148.08 143.70 Z" />
</g>
</svg>
