<?xml version="1.0" encoding="UTF-8" ?>
<!DOCTYPE svg PUBLIC "-//W3C//DTD SVG 1.1//EN" "http://www.w3.org/Graphics/SVG/1.1/DTD/svg11.dtd">
<svg width="215pt" height="250pt" viewBox="0 0 215 250" version="1.1" xmlns="http://www.w3.org/2000/svg"><g id="#494a48ff">
<path fill="#333333" opacity="1.00" d=" M 109.63 39.31 C 112.39 35.88 116.39 32.82 120.99 32.89 C 125.47 33.03 130.04 33.51 134.15 35.40 C 140.22 36.25 146.46 38.63 150.50 43.44 C 152.71 47.10 153.13 51.45 154.21 55.51 C 155.26 57.10 156.21 58.75 157.20 60.37 C 159.43 59.08 159.74 56.34 160.84 54.23 C 163.53 52.57 166.67 50.99 169.87 52.40 C 177.21 55.05 179.79 63.94 178.19 70.99 C 176.15 76.06 169.59 77.39 165.16 74.64 C 164.16 75.46 163.18 76.29 162.21 77.14 C 163.05 82.77 157.59 87.40 152.25 87.10 C 154.76 90.64 156.26 94.88 156.33 99.24 C 156.31 106.51 160.82 112.85 161.07 120.09 C 161.24 126.28 158.55 132.04 157.67 138.09 C 156.73 142.05 157.80 146.08 158.18 150.03 C 156.94 154.08 157.54 158.56 155.13 162.24 C 153.49 164.61 154.92 167.91 152.92 170.05 C 150.58 172.38 147.44 174.12 144.06 174.08 C 141.49 174.07 137.89 174.45 136.57 171.64 C 135.15 171.56 133.44 171.92 132.35 170.76 C 131.58 169.38 132.08 167.71 131.96 166.21 C 134.12 162.37 137.87 159.76 139.73 155.75 C 141.39 152.32 144.23 149.41 144.66 145.47 C 145.77 138.14 145.40 130.33 142.38 123.47 C 140.82 118.42 142.21 113.10 141.76 107.94 C 141.11 103.16 138.97 98.79 137.70 94.18 C 135.94 89.75 131.96 86.18 132.00 81.11 C 132.19 77.57 131.50 74.13 129.19 71.33 C 132.23 74.53 136.13 76.95 140.70 76.88 C 140.51 74.20 139.25 71.55 139.90 68.84 C 140.47 66.90 141.20 65.01 142.00 63.15 C 139.93 61.91 137.89 60.61 135.77 59.44 C 135.51 64.79 130.53 67.65 127.45 71.39 C 122.10 76.86 113.65 74.45 107.14 77.26 C 107.79 77.89 109.09 79.16 109.74 79.79 C 110.21 82.14 111.29 84.29 112.97 86.01 C 115.33 84.67 116.95 82.54 118.18 80.18 C 117.78 82.83 116.55 85.23 114.90 87.32 C 111.62 87.07 109.54 84.54 108.39 81.68 C 107.68 83.09 106.84 84.47 106.43 86.02 C 106.27 89.08 107.86 91.96 107.68 95.04 C 107.57 98.36 108.52 101.68 107.82 104.98 C 106.68 109.88 106.54 114.95 106.88 119.96 C 107.28 124.31 105.75 128.51 105.35 132.81 C 102.56 135.22 99.61 137.52 97.46 140.56 C 95.38 143.45 92.39 145.86 88.75 146.28 C 86.53 146.26 85.38 148.16 84.36 149.81 C 86.33 150.77 88.07 152.19 90.17 152.88 C 92.50 152.80 94.76 151.96 97.12 152.25 C 100.24 150.83 103.42 148.96 107.00 149.43 C 110.05 149.81 113.23 150.32 116.12 148.94 C 116.31 144.19 116.25 139.33 114.57 134.82 C 114.18 130.70 114.35 126.53 114.66 122.41 C 115.01 118.97 117.76 116.40 118.30 113.01 C 119.18 107.97 120.01 102.79 118.68 97.74 C 118.21 99.09 117.74 100.44 117.28 101.80 C 114.35 98.34 118.05 94.83 119.09 91.42 C 120.35 88.45 119.27 84.94 121.08 82.17 C 123.44 78.54 125.07 73.87 129.58 72.41 C 127.83 77.52 122.55 81.23 122.99 87.01 C 123.57 91.07 118.98 94.04 120.46 98.05 C 121.55 102.30 121.29 106.71 121.80 111.03 C 120.10 115.83 116.66 119.96 116.12 125.15 C 114.60 133.36 119.74 140.99 118.18 149.22 C 115.00 151.96 110.80 151.43 106.97 151.03 C 102.90 150.44 99.98 154.43 95.96 154.14 C 91.03 155.27 84.71 153.77 82.31 149.00 C 83.91 146.00 86.43 143.28 90.19 143.88 C 95.58 141.46 97.75 135.26 103.11 132.82 C 105.58 124.76 104.57 116.25 105.07 107.97 C 106.45 101.44 106.44 94.58 104.96 88.07 C 104.39 84.65 107.09 81.75 106.65 78.30 C 100.64 80.87 94.35 78.39 88.80 75.95 C 86.18 78.40 84.87 81.72 84.50 85.23 C 83.70 87.25 86.27 89.13 85.10 91.04 C 80.22 98.84 74.43 106.02 69.26 113.63 C 69.83 117.05 70.09 120.53 70.18 124.00 C 70.20 142.71 70.37 161.43 70.32 180.14 C 57.18 187.17 43.90 193.93 30.74 200.92 C 28.70 202.00 26.62 203.30 24.20 203.21 C 25.13 202.11 26.06 200.94 27.41 200.35 C 41.15 193.28 54.77 185.98 68.54 178.96 C 68.15 165.99 68.21 153.00 68.15 140.02 C 67.60 131.84 67.81 123.63 67.77 115.43 C 65.86 118.85 61.99 121.64 62.36 125.93 C 62.27 142.07 62.33 158.21 62.27 174.34 C 60.36 175.97 57.99 176.88 55.81 178.06 C 46.31 182.76 37.05 187.96 27.47 192.49 C 27.57 191.92 27.79 190.78 27.89 190.20 C 38.04 184.92 48.26 179.74 58.42 174.45 C 60.28 173.81 60.24 171.63 60.27 170.01 C 60.35 155.04 60.22 140.08 60.60 125.11 C 50.19 140.26 38.83 154.75 27.77 169.43 C 26.18 168.44 26.80 167.06 27.78 165.94 C 44.46 143.58 61.03 121.12 77.68 98.74 C 79.80 95.86 82.22 93.16 83.76 89.90 C 82.80 87.70 81.28 85.81 80.02 83.78 C 73.44 82.00 66.71 80.95 60.04 79.68 C 56.23 79.44 51.50 78.33 48.57 81.51 C 38.25 93.87 27.92 106.23 17.60 118.59 C 16.13 120.22 14.99 122.72 12.34 122.31 C 14.70 118.44 17.90 115.19 20.73 111.67 C 29.26 101.50 37.77 91.31 46.27 81.11 C 48.09 79.02 50.61 77.81 52.94 76.43 C 54.33 76.86 55.73 77.29 57.12 77.73 C 56.42 74.81 56.21 71.77 57.22 68.90 C 57.90 65.23 60.86 62.74 63.00 59.90 C 61.77 57.59 60.32 55.40 59.35 52.95 C 57.23 53.08 55.40 54.35 53.27 54.44 C 52.02 58.72 46.95 62.76 42.68 59.97 C 45.49 58.15 49.34 57.93 51.36 54.98 C 48.74 55.77 46.08 56.58 43.60 57.71 L 43.01 57.96 C 42.77 58.37 42.29 59.18 42.05 59.58 C 40.41 59.21 39.31 60.57 38.10 61.35 C 38.93 66.14 34.93 69.43 31.03 71.18 C 28.99 71.72 27.07 70.60 25.35 69.67 C 20.04 66.35 17.18 60.04 16.78 53.96 C 17.51 49.97 20.77 46.28 24.98 45.96 C 27.76 46.42 30.48 47.43 32.52 49.43 C 33.22 49.03 34.61 48.23 35.31 47.83 C 34.57 44.85 34.97 41.28 37.98 39.73 C 42.20 36.26 47.98 39.50 50.66 43.35 C 53.95 39.56 59.10 38.50 63.90 38.89 C 67.60 38.28 71.14 39.35 74.69 40.24 C 78.64 37.03 84.16 36.84 88.36 39.70 C 91.94 39.32 95.92 37.99 99.13 40.58 C 102.62 40.08 106.11 39.52 109.63 39.31 M 114.09 38.16 C 118.71 39.19 123.46 39.79 127.87 41.64 C 130.72 40.88 133.60 40.04 135.88 38.06 C 132.87 38.65 130.64 36.25 127.85 35.74 C 123.21 34.88 117.39 33.82 114.09 38.16 M 135.36 39.99 C 136.15 40.13 137.71 40.41 138.49 40.55 C 143.66 43.97 148.37 48.09 152.47 52.75 C 150.66 49.64 150.89 45.54 148.10 42.98 C 145.05 40.39 141.14 39.08 137.31 38.13 C 136.67 38.76 136.02 39.37 135.36 39.99 M 73.90 42.96 C 74.74 43.46 75.58 43.95 76.43 44.44 L 77.10 42.54 C 76.69 47.29 71.98 49.42 67.96 50.53 C 69.37 48.25 71.80 47.05 74.25 46.19 C 73.90 45.55 73.54 44.92 73.17 44.29 C 71.51 45.03 69.78 45.71 67.93 45.53 C 66.81 47.00 65.57 48.39 63.91 49.27 C 64.29 47.67 64.61 46.02 65.39 44.56 C 68.13 44.42 70.89 43.88 72.46 41.39 C 69.88 40.34 67.12 40.31 64.46 41.06 C 64.68 41.79 65.14 43.25 65.37 43.98 L 64.70 42.68 C 62.49 44.89 60.71 47.72 60.87 50.96 C 60.63 54.09 63.19 56.37 64.58 58.91 C 65.67 58.13 66.76 57.36 67.85 56.58 C 71.47 56.97 74.72 58.65 78.15 59.74 C 79.85 62.00 82.18 64.01 82.21 67.08 C 84.02 66.20 85.99 65.68 88.01 65.70 C 86.36 67.65 83.95 68.47 81.70 69.50 C 80.57 67.52 80.05 65.21 78.72 63.36 C 76.38 61.21 73.31 59.82 70.21 59.31 C 61.67 60.15 56.33 70.01 59.35 77.76 C 66.56 79.22 74.00 79.65 80.98 82.12 C 81.44 82.57 82.34 83.47 82.80 83.92 C 83.64 80.72 85.23 77.84 87.78 75.69 C 91.02 74.88 94.02 76.40 97.08 77.19 C 100.15 77.55 103.25 77.39 106.34 77.52 C 106.40 76.28 106.56 75.06 106.82 73.86 C 107.08 74.57 107.60 75.99 107.86 76.69 C 108.47 76.07 109.08 75.44 109.69 74.81 C 114.46 73.72 119.60 73.48 123.96 71.08 C 127.95 67.39 132.92 64.49 135.44 59.49 C 134.22 57.95 132.98 56.42 131.78 54.86 C 130.83 59.84 125.33 61.84 121.02 63.07 C 115.81 63.37 113.03 68.45 108.68 70.58 C 105.91 71.41 102.96 71.78 100.07 71.53 C 98.94 71.52 96.89 71.00 98.04 69.49 C 101.39 69.34 104.76 69.17 108.07 68.62 C 112.85 66.56 115.35 61.72 118.78 58.12 C 118.46 59.02 117.83 60.81 117.52 61.71 C 122.52 60.17 128.56 59.52 131.23 54.33 C 129.93 53.74 128.57 53.18 127.62 52.07 C 130.67 51.96 133.40 53.52 135.26 55.87 C 137.48 58.59 140.91 59.74 143.65 61.82 C 145.57 60.84 147.71 59.27 149.94 60.40 C 156.46 61.90 160.88 68.28 161.54 74.72 C 163.27 73.18 165.06 71.72 167.01 70.47 C 166.47 68.33 165.77 66.23 164.80 64.24 C 162.22 63.97 159.63 63.70 157.08 63.21 C 153.93 57.27 149.49 52.14 144.74 47.43 C 144.46 47.96 144.19 48.50 143.93 49.04 C 144.86 50.29 145.24 51.67 145.08 53.20 C 143.32 51.41 141.95 49.30 140.36 47.37 L 142.25 46.59 L 139.71 45.78 C 140.62 45.97 142.45 46.36 143.37 46.55 C 141.07 44.95 138.91 43.18 136.78 41.38 C 131.90 41.79 127.41 44.17 122.47 44.16 C 118.16 44.08 114.35 46.14 110.55 47.85 C 112.61 49.19 114.90 50.12 117.12 51.18 C 117.40 51.66 117.97 52.60 118.25 53.08 C 114.28 52.77 110.74 50.70 107.89 48.03 C 112.46 44.56 117.98 43.03 123.49 41.92 C 119.28 40.99 114.91 40.75 110.80 39.34 C 104.36 44.09 96.34 39.79 89.35 41.43 C 84.33 42.36 83.00 47.83 79.14 50.42 C 80.40 46.67 82.86 43.38 86.07 41.09 C 84.40 40.42 82.78 39.56 81.01 39.19 C 78.34 39.56 75.57 40.76 73.90 42.96 M 38.53 41.57 C 36.69 42.57 37.10 44.92 36.83 46.65 C 38.98 47.17 41.11 47.85 43.07 48.91 C 45.71 48.40 46.10 46.34 45.79 44.08 C 47.13 45.12 48.52 45.53 49.89 44.22 C 47.35 40.73 42.33 39.30 38.53 41.57 M 42.05 51.14 C 40.22 50.77 38.78 49.46 37.22 48.52 C 35.73 49.31 34.24 50.11 32.74 50.89 C 33.79 52.11 34.85 53.32 35.94 54.50 C 36.39 56.09 36.81 57.69 37.23 59.29 C 40.01 56.54 44.13 56.33 47.45 54.50 C 50.44 52.77 54.35 54.52 57.07 52.19 C 59.04 50.61 59.63 47.91 61.59 46.27 C 61.72 45.52 61.99 44.03 62.13 43.28 L 63.33 43.46 C 62.93 42.61 62.53 41.75 62.13 40.89 C 53.54 39.45 49.19 48.43 42.05 51.14 M 17.66 56.68 C 19.96 61.80 23.33 67.55 29.07 69.18 C 31.97 70.18 34.16 67.62 35.97 65.80 C 36.58 60.42 34.60 55.08 31.04 51.08 C 28.92 49.20 26.23 46.81 23.17 47.91 C 19.57 49.37 18.43 53.23 17.66 56.68 M 160.99 61.54 C 163.06 62.14 166.44 61.32 167.18 63.99 C 168.60 66.73 169.66 69.77 168.86 72.88 C 169.46 73.06 170.66 73.42 171.27 73.60 C 172.71 72.98 174.16 72.37 175.62 71.76 C 179.78 64.93 174.98 52.52 165.90 54.09 C 162.22 54.32 160.54 58.26 160.99 61.54 M 140.03 71.91 C 143.20 77.77 147.08 84.45 154.20 85.86 C 156.69 84.73 160.04 83.26 160.13 80.07 C 160.75 72.39 155.84 63.56 148.00 61.82 C 143.08 62.48 140.79 67.55 140.03 71.91 M 132.91 76.42 C 133.58 80.57 133.78 85.08 136.47 88.52 C 141.41 95.49 141.68 104.53 146.18 111.71 C 148.43 115.97 148.84 120.90 148.60 125.64 C 148.21 125.51 147.44 125.25 147.06 125.13 C 147.18 120.17 146.61 115.06 143.82 110.82 C 143.75 113.84 143.15 116.89 143.63 119.92 C 144.34 124.10 147.04 127.75 147.12 132.07 C 147.85 139.76 147.25 148.13 142.41 154.49 C 140.09 159.97 135.08 163.56 132.68 168.98 C 133.90 169.32 135.12 169.68 136.33 170.08 C 137.14 168.64 137.90 167.13 139.07 165.93 C 141.33 166.26 143.57 167.02 145.89 166.74 C 147.21 166.75 149.16 166.41 149.41 168.23 C 146.06 168.75 142.72 168.31 139.37 168.21 C 138.96 168.71 138.14 169.71 137.72 170.21 C 142.10 173.59 148.60 172.24 151.60 167.69 C 151.66 161.49 155.75 156.22 156.44 150.15 C 156.08 147.21 155.44 144.28 155.66 141.30 C 155.90 134.32 159.26 127.91 159.61 120.95 C 159.41 115.69 157.49 110.68 155.49 105.87 C 153.91 108.66 154.12 112.88 150.99 114.47 C 152.52 109.37 154.00 104.24 154.82 98.97 C 155.19 94.66 151.85 91.20 151.56 86.99 C 148.16 86.00 145.75 83.40 143.27 81.05 C 142.83 79.92 142.34 78.82 141.81 77.75 C 138.80 77.64 135.84 77.06 132.91 76.42 Z" />
<path fill="#333333" opacity="1.00" d=" M 91.89 44.45 C 92.62 44.93 93.35 45.42 94.08 45.91 C 93.36 47.48 92.72 49.09 91.94 50.64 C 95.00 52.45 97.50 55.11 98.69 58.51 C 96.04 59.21 95.58 56.19 94.61 54.46 C 92.94 53.35 91.29 52.23 89.62 51.13 C 91.33 49.29 91.88 46.88 91.89 44.45 Z" />
<path fill="#333333" opacity="1.00" d=" M 94.97 45.53 C 96.13 43.33 99.00 44.60 100.97 44.24 C 101.81 45.00 102.66 45.76 103.51 46.52 C 104.96 45.06 106.94 45.09 108.09 46.80 C 106.74 46.95 105.39 47.12 104.05 47.31 C 102.29 49.08 100.87 51.22 98.65 52.48 C 99.24 50.00 101.05 48.00 101.30 45.41 C 99.19 45.25 97.08 45.37 94.97 45.53 Z" />
<path fill="#333333" opacity="1.00" d=" M 120.65 45.83 C 123.80 48.34 127.36 46.39 130.17 44.43 C 129.48 45.28 128.80 46.14 128.12 47.01 C 126.40 47.67 124.69 48.36 122.99 49.07 C 121.74 48.23 120.48 47.40 119.23 46.56 C 119.58 46.38 120.30 46.02 120.65 45.83 Z" />
<path fill="#333333" opacity="1.00" d=" M 21.77 49.73 C 25.99 49.94 28.98 53.67 31.01 57.02 C 32.10 59.49 33.59 63.25 31.13 65.36 C 30.50 62.82 30.51 60.10 29.51 57.66 C 27.45 54.54 24.36 52.36 21.77 49.73 Z" />
<path fill="#333333" opacity="1.00" d=" M 99.50 53.04 C 101.56 54.12 103.99 54.09 106.04 55.17 C 104.98 55.85 103.93 56.53 102.87 57.22 C 102.47 59.93 102.13 62.70 102.79 65.40 C 98.94 64.45 100.22 59.37 101.78 56.87 C 100.85 55.70 100.14 54.38 99.50 53.04 Z" />
<path fill="#333333" opacity="1.00" d=" M 171.18 58.11 C 174.60 60.29 175.32 64.67 173.53 68.17 C 172.19 65.50 172.51 62.22 170.53 59.85 C 170.69 59.42 171.01 58.55 171.18 58.11 Z" />
<path fill="#333333" opacity="1.00" d=" M 144.88 65.20 C 145.46 64.34 146.41 63.97 147.32 64.66 C 152.46 67.36 156.53 72.84 156.23 78.84 C 156.27 79.75 155.54 80.38 154.98 80.99 C 154.27 77.84 154.40 74.29 152.31 71.64 C 150.46 68.88 147.83 66.71 144.88 65.20 Z" />
<path fill="#333333" opacity="1.00" d=" M 79.00 70.33 C 83.51 70.33 84.24 75.75 82.43 78.95 C 82.10 78.92 81.44 78.85 81.11 78.82 C 82.00 77.13 82.65 75.34 82.52 73.40 C 81.15 72.61 79.83 71.70 79.00 70.33 Z" />
<path fill="#333333" opacity="1.00" d=" M 84.63 73.54 C 85.02 70.40 89.11 70.97 91.42 70.33 C 89.80 72.50 87.12 73.04 84.63 73.54 Z" />
<path fill="#333333" opacity="1.00" d=" M 76.06 86.84 C 76.56 86.75 77.56 86.57 78.06 86.48 C 73.30 94.67 66.67 101.50 61.55 109.44 C 55.11 117.47 49.80 126.43 42.75 133.95 C 42.69 133.45 42.56 132.46 42.49 131.97 C 45.28 127.39 48.96 123.40 52.03 118.99 C 54.55 115.20 58.25 112.42 60.78 108.64 C 65.93 101.41 71.82 94.67 76.06 86.84 Z" />
<path fill="#333333" opacity="1.00" d=" M 140.32 93.11 C 140.30 91.31 140.90 89.61 141.59 87.98 C 143.66 89.13 145.92 89.88 148.32 89.80 C 148.60 90.97 149.02 92.10 149.60 93.16 C 149.33 93.45 148.79 94.03 148.52 94.32 C 148.31 93.57 147.88 92.07 147.67 91.32 C 145.85 90.89 144.04 90.40 142.24 89.89 C 141.76 90.70 140.80 92.31 140.32 93.11 Z" />
<path fill="#333333" opacity="1.00" d=" M 142.50 99.77 C 144.03 99.21 145.56 98.66 147.18 98.40 C 147.55 101.48 144.18 100.49 142.50 99.77 Z" />
<path fill="#333333" opacity="1.00" d=" M 112.23 135.37 C 114.05 138.16 113.54 141.79 110.89 143.86 C 111.53 141.05 112.00 138.24 112.23 135.37 Z" />
<path fill="#333333" opacity="1.00" d=" M 148.06 144.05 C 152.07 144.54 152.53 149.31 153.96 152.30 C 150.69 150.73 149.82 146.92 148.06 144.05 Z" />
</g>
</svg>
