<?xml version="1.0" encoding="UTF-8" ?>
<!DOCTYPE svg PUBLIC "-//W3C//DTD SVG 1.1//EN" "http://www.w3.org/Graphics/SVG/1.1/DTD/svg11.dtd">
<svg width="228pt" height="200pt" viewBox="0 0 228 200" version="1.1" xmlns="http://www.w3.org/2000/svg"><g id="#1f201dff">
<path fill="#333333" opacity="1.00" d=" M 75.39 15.26 C 78.92 13.23 83.15 13.52 87.03 14.06 C 91.95 13.94 96.97 16.80 98.89 21.43 C 99.44 24.95 99.31 28.56 98.84 32.09 C 99.52 35.85 98.29 39.56 96.42 42.78 C 95.83 42.23 95.26 41.67 94.70 41.10 C 95.99 39.37 96.88 37.30 96.92 35.11 C 97.09 30.19 97.19 25.17 95.74 20.40 C 94.49 17.30 90.64 17.01 87.97 15.69 C 84.10 14.93 79.81 15.31 76.35 17.35 C 74.70 18.82 73.85 20.95 72.88 22.89 C 70.44 28.07 76.86 33.51 73.11 38.32 C 71.95 40.57 70.83 42.84 69.72 45.10 C 68.63 47.74 65.94 49.35 65.02 52.08 C 63.97 55.60 63.37 59.28 63.55 62.96 C 63.69 65.98 62.39 68.78 61.87 71.70 C 61.87 73.42 63.55 74.29 64.65 75.30 C 66.11 78.63 66.14 82.56 68.40 85.51 C 72.76 90.56 70.03 97.96 72.97 103.63 C 74.41 103.95 75.85 104.28 77.30 104.61 C 77.61 105.04 78.23 105.89 78.55 106.32 C 80.39 106.67 82.25 107.00 84.09 107.36 C 86.48 106.15 89.00 105.13 91.69 104.86 C 91.03 104.52 90.38 104.19 89.72 103.87 C 84.40 103.80 81.31 98.04 80.28 93.43 C 76.67 88.71 72.81 83.56 72.74 77.35 C 72.63 73.92 70.42 71.22 68.33 68.73 C 69.18 68.86 70.89 69.12 71.75 69.26 C 72.85 71.81 74.74 74.16 74.58 77.09 C 74.91 83.44 79.11 88.60 83.22 93.08 C 83.09 96.00 84.73 98.38 86.38 100.63 C 87.44 101.39 88.47 102.20 89.48 103.03 C 94.80 99.59 98.76 94.54 102.77 89.73 C 106.72 85.76 107.64 79.99 109.93 75.07 C 107.79 75.15 105.66 75.39 103.53 75.60 C 105.12 73.08 108.15 73.53 110.70 73.25 C 113.00 72.17 115.32 71.05 117.42 69.60 C 118.65 67.94 119.32 65.94 120.18 64.07 C 119.11 64.31 116.95 64.79 115.88 65.03 C 115.68 65.54 115.28 66.58 115.08 67.09 C 113.20 67.98 111.47 69.89 109.24 69.49 C 106.85 69.06 104.31 69.04 102.09 68.02 C 99.54 66.65 102.28 61.24 98.36 61.65 C 98.89 63.50 98.88 65.36 98.33 67.24 C 99.23 69.28 100.27 71.27 101.49 73.15 C 99.68 75.70 98.02 78.39 96.68 81.22 C 93.21 83.00 89.57 84.41 85.89 85.70 C 86.34 83.71 86.72 81.70 86.85 79.66 C 85.67 78.15 84.56 76.59 83.70 74.87 C 85.68 75.72 87.28 77.16 88.74 78.70 C 88.73 79.53 88.70 81.19 88.68 82.02 C 89.82 81.74 90.96 81.46 92.09 81.18 C 91.99 78.78 92.38 76.41 92.34 74.01 C 91.25 72.65 89.95 71.48 88.72 70.26 C 87.25 70.57 85.89 71.88 84.34 71.56 C 83.95 69.72 86.91 69.23 87.87 68.01 C 88.69 64.97 88.09 61.84 86.97 58.97 C 86.08 55.85 83.67 52.74 80.14 52.71 C 80.29 53.49 80.60 55.03 80.75 55.80 C 76.64 55.88 73.46 58.62 69.78 60.00 C 71.33 55.48 77.51 56.04 79.04 51.47 C 81.50 50.17 84.08 50.85 86.39 52.09 C 85.75 51.67 84.48 50.83 83.85 50.41 C 85.00 48.58 86.18 46.77 87.48 45.04 C 85.08 43.08 82.13 41.52 80.76 38.58 C 82.86 39.87 84.42 42.24 87.05 42.47 C 90.10 43.10 93.22 42.47 96.30 42.75 C 94.65 44.99 91.85 45.11 89.37 45.53 C 88.55 46.38 87.74 47.22 86.92 48.07 C 87.88 51.01 90.49 52.48 92.99 53.94 C 94.17 48.00 96.80 41.60 102.47 38.66 C 106.38 36.14 111.35 36.15 115.70 37.23 C 119.35 39.50 123.32 42.00 125.01 46.15 C 125.71 51.08 126.33 56.52 123.66 61.00 C 121.87 64.01 121.99 67.88 119.62 70.59 C 117.72 72.62 114.80 73.01 112.56 74.50 C 109.66 80.87 108.02 88.07 103.26 93.44 C 100.89 96.55 97.78 98.99 95.28 102.00 C 99.10 101.59 102.93 100.90 106.35 99.04 C 106.75 99.19 107.56 99.49 107.96 99.64 C 111.57 98.53 115.22 97.10 119.08 97.41 C 125.60 98.16 132.05 93.62 138.46 96.43 C 141.18 97.25 142.96 99.48 144.55 101.69 C 145.84 103.47 148.22 103.81 149.74 105.30 C 151.23 110.30 151.88 115.62 154.96 119.98 C 155.34 126.16 158.81 131.34 160.89 137.01 C 163.44 145.42 165.85 154.74 173.17 160.37 C 175.66 159.75 178.14 159.10 180.65 158.57 C 180.80 157.31 180.96 156.05 181.11 154.80 C 176.62 153.73 171.87 153.38 167.64 151.44 C 167.33 150.83 166.70 149.61 166.39 149.00 C 167.79 149.51 169.17 150.11 170.52 150.75 C 174.61 151.80 179.56 151.20 182.90 154.16 C 184.65 155.61 183.95 158.18 182.74 159.73 C 181.50 162.35 178.08 161.46 175.85 162.55 C 179.53 164.34 183.74 164.14 187.56 165.44 C 189.92 166.21 191.43 168.28 193.02 170.05 C 190.28 176.09 182.86 177.30 176.94 176.78 C 169.74 176.10 162.83 180.14 155.68 178.36 C 152.85 176.18 150.86 172.68 151.45 169.03 C 152.27 163.51 151.50 157.90 149.90 152.60 C 149.45 155.15 148.74 157.64 148.04 160.13 C 148.91 161.75 152.48 163.07 150.81 165.06 C 148.82 163.78 146.50 162.50 145.67 160.13 C 145.63 155.75 148.07 151.57 147.09 147.15 C 144.67 143.32 141.16 140.16 139.45 135.88 C 138.23 131.73 136.73 127.65 136.10 123.35 C 134.90 123.60 133.70 123.85 132.50 124.10 C 129.16 127.97 124.69 133.15 119.08 131.86 C 119.08 131.67 119.07 131.29 119.07 131.10 C 122.09 129.98 124.94 128.46 127.32 126.28 C 129.73 122.34 134.16 121.01 138.30 119.75 C 139.21 120.04 140.13 120.33 141.04 120.63 C 140.07 121.29 139.10 121.96 138.13 122.62 C 139.71 126.96 141.41 131.27 142.26 135.83 C 144.26 141.56 150.15 144.91 152.14 150.67 C 153.18 153.80 154.94 156.69 155.65 159.92 C 155.50 164.30 154.78 168.64 153.92 172.93 C 154.65 174.02 155.38 175.11 156.12 176.20 C 162.71 178.72 168.58 172.95 175.15 174.36 C 179.87 175.29 185.05 174.74 188.80 171.49 C 190.15 169.64 188.98 168.07 187.29 167.09 C 184.34 167.33 181.38 166.83 178.48 166.35 C 175.35 164.21 172.61 161.37 168.87 160.26 C 164.43 153.62 161.61 146.14 159.42 138.51 C 157.57 131.94 152.75 126.51 152.28 119.53 C 149.34 115.26 149.00 109.91 146.66 105.34 C 144.13 103.57 140.77 104.28 137.87 103.89 C 130.34 102.86 122.70 104.11 115.49 106.32 C 120.31 110.85 119.98 118.00 119.28 124.05 C 118.79 128.11 115.45 131.66 116.64 135.88 C 116.01 136.65 115.38 137.43 114.75 138.21 C 111.86 137.76 108.99 136.74 106.03 137.34 C 107.99 139.94 110.60 142.56 110.74 146.02 C 110.49 150.86 108.68 155.42 108.02 160.19 C 106.46 165.88 104.01 171.78 99.18 175.46 C 87.73 182.27 73.75 183.04 60.90 180.76 C 56.19 180.73 51.35 180.39 47.12 178.12 C 37.45 175.01 28.40 168.50 23.91 159.21 C 22.15 155.39 22.34 151.04 22.32 146.94 C 24.12 138.52 28.05 130.43 34.36 124.46 C 37.77 120.11 43.14 118.30 48.14 116.47 C 53.90 114.43 60.14 115.32 66.09 115.81 C 66.37 113.55 66.84 111.25 68.86 109.89 C 68.37 107.63 68.44 105.31 69.82 103.36 C 69.80 99.04 69.05 94.78 68.91 90.47 C 66.58 87.27 63.89 84.06 63.44 79.98 C 63.12 77.06 60.94 74.71 60.52 71.89 C 61.76 65.03 60.05 57.66 63.04 51.15 C 64.09 48.26 67.42 47.02 68.37 44.10 C 69.45 41.26 70.68 38.47 72.28 35.89 C 71.07 31.82 68.98 27.57 70.26 23.25 C 71.54 20.37 72.50 16.98 75.39 15.26 M 95.73 57.62 C 97.07 60.10 100.37 60.11 102.46 61.73 C 104.50 62.63 103.40 65.29 103.70 66.95 C 106.19 67.48 108.75 67.72 111.30 67.46 C 113.31 66.24 114.73 64.07 117.06 63.33 C 118.27 62.78 119.79 62.70 120.71 61.65 C 123.84 56.58 124.70 49.77 121.60 44.48 C 119.43 41.89 116.78 39.01 113.11 39.09 C 103.12 36.93 92.30 47.56 95.73 57.62 M 87.16 53.43 C 88.51 57.25 90.33 60.90 91.24 64.87 C 90.58 65.99 89.92 67.11 89.25 68.22 C 92.90 70.61 94.25 74.92 94.15 79.10 C 95.96 77.13 97.56 74.99 99.00 72.73 C 96.16 69.72 97.47 65.74 96.86 62.08 C 93.26 59.52 91.74 54.67 87.16 53.43 M 124.83 99.71 C 120.18 101.45 115.15 100.96 110.30 101.34 C 111.68 102.72 113.19 103.96 114.68 105.22 C 118.63 103.82 122.80 103.20 126.83 102.03 C 131.76 100.49 136.96 101.48 142.01 101.55 C 137.54 96.98 130.36 97.94 124.83 99.71 M 98.30 103.39 C 94.40 105.88 90.45 108.44 85.85 109.43 C 85.48 109.21 84.73 108.79 84.36 108.58 C 80.52 109.91 76.83 107.28 73.01 107.00 C 72.34 106.27 71.01 104.82 70.34 104.10 C 70.31 105.40 70.23 108.02 70.19 109.33 C 70.56 109.77 71.29 110.65 71.66 111.09 C 65.18 115.39 66.14 126.35 72.89 129.98 C 78.14 133.27 83.38 136.71 89.26 138.78 C 89.38 138.45 89.62 137.79 89.74 137.45 C 93.66 140.80 98.00 134.91 102.37 135.77 C 106.09 134.76 109.87 134.86 113.62 135.69 C 113.86 132.83 115.55 130.49 116.49 127.87 C 117.29 122.79 117.35 117.57 116.90 112.46 C 116.80 110.32 114.87 109.06 113.70 107.49 C 109.62 106.75 105.88 108.80 101.93 109.37 C 103.33 104.77 110.76 108.08 112.41 103.69 C 110.27 103.75 108.26 103.14 106.57 101.85 C 104.04 103.46 101.11 103.18 98.30 103.39 M 91.83 103.67 C 92.41 104.71 95.35 104.24 94.12 102.82 C 93.55 103.03 92.40 103.46 91.83 103.67 M 37.35 123.21 C 31.80 127.93 27.63 134.22 25.49 141.17 C 24.43 148.75 23.91 157.59 29.48 163.65 C 32.89 168.64 38.49 171.23 43.49 174.28 C 49.36 175.62 54.78 179.25 60.98 178.65 C 66.69 178.55 72.43 178.90 78.12 178.17 C 83.44 177.55 89.08 177.44 93.82 174.61 C 96.61 172.84 99.78 171.45 101.96 168.89 C 107.63 160.21 111.54 147.84 104.76 138.65 C 102.57 138.41 100.37 138.34 98.17 138.34 C 92.90 143.34 86.01 139.09 80.25 137.66 C 73.89 134.40 66.56 130.47 64.69 122.96 C 64.98 121.11 65.43 119.29 65.75 117.45 C 55.96 115.60 45.82 118.25 37.35 123.21 Z" />
<path fill="#333333" opacity="1.00" d=" M 78.17 80.64 C 81.06 82.08 81.76 85.41 82.95 88.12 C 82.78 88.71 82.42 89.89 82.25 90.48 C 80.54 87.36 79.04 84.10 78.17 80.64 Z" />
<path fill="#333333" opacity="1.00" d=" M 85.61 93.46 C 89.16 91.91 91.02 87.67 94.90 87.06 C 93.77 88.94 92.38 90.64 91.09 92.41 C 89.32 93.01 87.49 93.42 85.61 93.46 Z" />
<path fill="#333333" opacity="1.00" d=" M 86.30 112.00 C 89.69 111.12 92.79 109.48 95.95 108.01 C 95.81 109.60 95.28 111.08 94.46 112.44 C 92.17 113.04 89.85 113.56 87.48 113.68 C 87.09 113.12 86.69 112.56 86.30 112.00 Z" />
<path fill="#333333" opacity="1.00" d=" M 77.82 112.27 C 77.64 111.64 77.46 111.02 77.27 110.40 C 79.46 111.71 81.97 112.06 84.47 111.80 C 84.45 112.27 84.43 113.22 84.41 113.70 C 82.17 113.43 79.99 112.85 77.82 112.27 Z" />
<path fill="#333333" opacity="1.00" d=" M 97.70 110.34 C 98.56 110.72 99.43 111.11 100.29 111.49 C 100.87 110.66 101.61 110.23 102.53 110.19 C 102.21 112.09 101.62 113.95 101.14 115.83 C 100.43 114.63 99.74 113.43 99.06 112.23 C 97.74 115.41 96.06 118.41 93.91 121.11 C 93.47 121.30 92.57 121.66 92.12 121.84 C 94.74 118.43 97.47 114.81 97.70 110.34 Z" />
</g>
</svg>
