<?xml version="1.0" encoding="UTF-8" ?>
<!DOCTYPE svg PUBLIC "-//W3C//DTD SVG 1.1//EN" "http://www.w3.org/Graphics/SVG/1.1/DTD/svg11.dtd">
<svg width="216pt" height="275pt" viewBox="0 0 216 275" version="1.1" xmlns="http://www.w3.org/2000/svg"><g id="#484948ff">
<path fill="#333333" opacity="1.00" d=" M 154.34 0.00 L 156.15 0.00 C 156.55 37.80 156.23 75.61 156.62 113.41 C 157.75 113.95 158.89 114.49 160.04 115.02 C 160.91 76.69 159.84 38.34 160.42 0.00 L 161.67 0.00 C 161.92 17.34 161.78 34.68 161.79 52.02 C 161.62 64.37 162.34 76.73 161.36 89.06 C 161.66 97.60 162.39 106.15 161.63 114.70 C 163.04 114.17 164.45 113.63 165.85 113.09 C 164.06 104.85 165.37 96.36 164.87 88.02 C 164.39 80.67 164.71 73.32 164.65 65.97 C 164.66 43.98 164.50 21.99 164.67 0.00 L 167.25 0.00 C 167.30 34.34 167.22 68.69 167.30 103.03 C 167.34 105.77 166.80 108.46 166.26 111.14 C 168.15 108.48 169.88 105.26 173.15 104.10 C 176.88 102.93 181.29 101.80 184.81 104.19 C 190.86 108.28 192.76 115.88 194.10 122.64 C 199.03 121.41 204.03 120.40 209.07 119.69 C 209.54 121.50 210.04 123.31 210.29 125.17 C 205.31 127.06 199.94 127.60 194.73 128.51 C 194.30 137.88 192.53 148.69 184.66 154.81 C 180.54 155.98 175.43 157.06 171.71 154.24 C 169.82 152.88 168.55 150.89 167.17 149.05 C 167.46 179.03 167.11 209.04 167.31 239.03 C 167.20 241.38 167.84 244.31 165.37 245.71 C 164.67 234.15 165.33 222.56 164.95 211.00 C 165.08 193.75 164.68 176.50 165.12 159.26 C 164.36 159.36 162.84 159.58 162.09 159.69 C 161.98 188.12 162.26 216.55 161.88 244.97 C 161.40 244.98 160.46 245.00 159.98 245.00 C 159.76 234.32 160.47 223.66 160.32 212.98 C 160.37 195.55 160.21 178.11 160.34 160.68 C 159.11 160.22 157.89 159.76 156.67 159.30 C 156.71 178.55 156.93 197.80 157.07 217.05 C 156.56 226.63 157.85 236.28 156.53 245.82 C 153.80 242.45 154.86 237.96 154.69 233.98 C 154.51 210.31 154.67 186.63 154.49 162.96 C 154.65 160.65 153.88 158.47 152.65 156.55 C 152.22 150.13 152.72 143.69 152.73 137.27 C 144.03 138.92 135.40 140.88 126.68 142.43 C 126.11 144.09 126.53 146.61 124.59 147.43 C 122.24 148.53 119.55 148.37 117.04 148.78 C 118.15 150.10 119.28 151.41 120.44 152.70 C 120.39 153.52 120.35 154.34 120.31 155.17 C 119.72 155.45 118.52 156.02 117.93 156.31 C 118.59 160.53 118.92 164.80 118.86 169.07 C 118.62 172.78 120.99 176.25 120.03 179.96 C 118.83 185.55 118.80 191.41 119.90 197.02 C 121.17 205.00 119.59 213.26 121.65 221.14 C 121.96 222.99 123.68 223.93 124.94 225.11 C 127.72 227.38 129.63 230.53 132.48 232.73 C 134.50 234.36 137.22 234.42 139.54 235.38 C 140.95 236.47 142.03 237.92 143.23 239.23 C 140.49 243.52 134.86 245.63 129.94 244.49 C 125.38 244.64 121.84 240.51 117.24 241.30 C 113.78 241.78 109.28 242.30 107.06 238.96 C 105.63 231.16 110.54 223.85 109.13 216.05 C 108.88 210.82 105.20 206.78 103.73 201.94 C 103.34 197.28 104.07 192.61 104.80 188.02 C 105.41 185.78 104.01 183.81 103.26 181.81 C 101.73 178.53 102.66 174.57 100.68 171.46 C 99.08 168.69 97.43 165.94 96.01 163.08 C 95.13 163.96 94.25 164.85 93.37 165.75 C 93.20 169.20 93.04 172.70 92.04 176.03 C 91.12 179.70 88.10 182.38 87.12 186.03 C 85.93 190.00 84.25 193.86 83.60 197.98 C 83.05 203.75 84.75 209.81 82.36 215.34 C 79.91 221.27 79.66 227.86 80.26 234.18 C 80.69 239.00 83.82 242.80 86.02 246.91 C 87.95 250.71 91.80 253.14 93.47 257.09 C 93.88 258.41 94.08 260.49 92.61 261.23 C 88.73 262.67 84.84 264.96 80.54 264.28 C 76.55 263.93 71.72 261.43 71.36 257.00 C 70.93 252.87 68.09 249.31 68.52 245.05 C 68.06 243.46 67.59 241.88 67.12 240.29 C 68.01 236.61 68.29 232.78 67.90 229.01 C 67.14 222.92 64.47 217.17 64.34 210.98 C 64.60 205.25 67.22 200.00 68.65 194.52 C 69.22 189.89 69.23 185.14 70.80 180.69 C 73.12 175.01 70.98 168.87 71.93 162.98 C 71.43 163.35 70.43 164.09 69.93 164.45 C 68.73 163.02 67.48 161.62 66.46 160.05 C 67.48 157.80 68.99 155.82 70.30 153.74 C 62.73 155.20 55.17 156.73 47.58 158.08 C 48.35 160.65 48.56 163.34 48.47 166.01 C 48.07 199.35 48.36 232.70 48.25 266.04 C 48.54 267.65 47.55 268.76 46.34 269.65 C 45.84 262.12 46.20 254.57 45.95 247.03 C 46.03 225.00 45.71 202.97 46.11 180.95 C 45.39 181.22 43.95 181.75 43.23 182.01 C 42.74 204.64 43.29 227.31 43.10 249.95 C 42.66 256.28 42.95 262.62 42.88 268.96 C 42.41 268.97 41.46 269.00 40.98 269.01 C 40.77 258.32 41.47 247.65 41.32 236.97 C 41.32 218.84 41.30 200.71 41.27 182.59 C 40.07 182.16 38.86 181.73 37.66 181.30 C 37.70 201.20 37.91 221.09 38.07 240.98 C 37.56 250.59 38.86 260.26 37.53 269.83 C 34.82 266.46 35.85 262.00 35.69 258.03 C 35.54 237.70 35.63 217.38 35.55 197.05 C 35.52 191.56 35.61 186.07 35.08 180.60 C 36.74 179.80 38.54 179.53 40.37 179.49 C 39.80 172.50 41.05 165.13 38.77 158.43 C 38.19 164.98 37.48 171.53 35.19 177.74 C 34.94 177.92 34.44 178.26 34.18 178.43 C 32.71 181.63 30.54 185.07 26.99 186.16 C 23.08 186.67 18.52 187.67 15.21 184.81 C 9.59 180.35 7.28 172.81 6.98 165.88 C 4.68 166.48 2.34 166.95 0.00 167.39 L 0.00 165.41 C 6.27 164.25 12.65 163.37 18.75 161.50 C 18.70 160.86 18.60 159.60 18.55 158.97 C 12.36 160.08 6.23 161.51 0.00 162.43 L 0.00 159.92 L 0.01 160.69 C 2.13 160.28 4.26 159.93 6.40 159.60 C 6.68 152.04 7.95 143.89 13.05 137.97 C 16.67 133.44 23.97 131.98 28.89 135.14 C 34.52 139.62 36.68 146.88 38.16 153.62 C 38.67 153.31 39.69 152.68 40.21 152.36 C 40.07 147.94 40.47 143.50 40.05 139.10 C 38.88 138.32 37.67 137.60 36.43 136.94 C 36.19 139.19 35.96 141.44 35.70 143.69 C 34.88 141.84 33.60 140.05 33.59 137.95 C 34.14 135.94 35.36 134.12 35.48 132.02 C 35.28 92.68 35.41 53.34 35.31 14.01 C 35.20 12.14 35.68 10.33 36.83 8.84 C 37.58 14.89 37.16 20.99 37.27 27.07 C 37.43 63.21 37.23 99.36 37.66 135.50 C 38.83 135.98 40.00 136.46 41.17 136.93 C 41.10 126.28 41.79 115.65 41.33 105.00 C 41.50 73.19 40.77 41.35 41.82 9.55 C 42.62 17.01 42.71 24.53 42.78 32.02 C 42.83 56.01 42.79 80.00 42.82 103.99 C 41.60 114.89 43.61 125.76 42.77 136.68 C 43.83 136.27 44.89 135.86 45.96 135.45 C 46.17 119.62 45.43 103.82 45.65 88.00 C 45.80 61.45 45.14 34.88 46.06 8.34 C 48.86 7.40 48.21 10.19 48.29 12.00 C 48.24 58.34 48.24 104.69 48.35 151.03 C 55.76 149.42 63.22 148.03 70.68 146.67 C 71.60 142.72 72.54 138.61 71.51 134.58 C 70.76 131.48 70.02 127.93 72.24 125.22 C 73.33 124.05 73.69 121.45 75.59 121.53 C 75.80 122.23 76.21 123.62 76.42 124.32 C 75.72 124.29 74.33 124.22 73.64 124.19 C 72.97 126.70 72.05 129.31 72.86 131.92 C 73.95 136.58 74.00 141.44 73.12 146.15 C 76.77 145.42 80.42 144.75 84.04 143.95 C 84.43 141.31 86.50 139.44 87.33 137.02 C 87.04 133.67 85.06 130.78 83.89 127.69 C 80.93 124.69 78.40 121.31 76.06 117.81 C 76.17 119.01 76.39 121.42 76.51 122.62 C 73.92 119.16 74.96 114.60 73.80 110.65 C 71.07 107.48 69.34 103.63 66.95 100.21 C 64.61 96.53 60.69 93.72 59.85 89.21 C 59.17 85.54 58.32 81.92 56.77 78.51 C 55.01 74.47 56.66 70.11 58.70 66.53 C 60.85 63.10 64.66 61.29 67.37 58.36 C 69.75 55.85 72.80 54.03 76.20 53.29 C 76.27 52.47 76.40 50.84 76.46 50.02 C 73.21 45.61 72.22 39.63 73.53 34.36 C 75.49 28.39 82.39 26.47 88.04 27.21 C 92.28 26.97 96.82 29.74 97.50 34.13 C 98.16 38.46 99.95 42.73 99.30 47.17 C 98.84 50.59 98.21 53.98 97.63 57.38 C 98.31 58.24 98.97 59.12 99.64 60.00 C 99.96 60.38 100.60 61.13 100.92 61.50 C 100.49 61.54 99.64 61.63 99.21 61.68 L 98.89 60.58 C 98.80 57.18 95.77 59.74 94.72 60.91 C 95.30 63.04 97.48 65.87 95.40 67.80 C 93.78 65.66 93.32 63.00 94.54 60.54 C 91.15 60.49 87.65 60.17 84.65 58.46 C 81.41 57.17 80.29 53.62 78.67 50.87 C 78.46 52.42 78.26 53.97 78.05 55.52 C 70.94 54.71 67.17 61.39 62.40 65.29 C 58.84 68.03 58.08 72.98 59.24 77.11 C 60.53 81.62 60.63 86.38 62.04 90.86 C 63.00 94.20 66.27 95.95 68.18 98.67 C 69.99 101.25 72.09 103.60 74.52 105.61 C 75.78 110.14 76.11 115.18 79.18 118.98 C 83.24 124.39 88.78 129.06 90.15 136.03 C 88.53 139.30 85.78 142.15 85.82 146.04 C 86.83 147.03 87.84 148.03 88.84 149.03 C 93.06 149.22 97.59 149.86 101.30 147.31 C 100.73 143.46 102.90 137.68 98.00 136.06 C 97.43 130.14 95.47 124.57 92.93 119.23 C 91.18 113.42 88.47 107.95 85.08 102.93 C 82.77 99.67 79.34 97.49 76.58 94.65 C 78.17 95.04 79.75 95.48 81.32 95.93 C 80.32 92.78 78.70 89.87 76.37 87.50 C 73.36 84.34 72.26 80.03 70.55 76.13 C 71.76 73.55 72.90 70.93 74.26 68.42 C 74.05 71.29 73.31 74.09 73.23 76.97 C 73.75 80.78 76.39 83.82 78.72 86.71 C 78.88 86.18 79.20 85.12 79.37 84.59 C 81.05 85.17 82.75 85.71 84.44 86.28 C 82.76 86.67 81.09 87.05 79.43 87.51 C 81.94 90.28 82.46 94.02 83.24 97.51 C 87.29 100.91 89.57 105.75 91.46 110.57 C 94.25 108.88 97.45 108.40 100.67 108.73 C 101.73 106.25 101.95 103.55 102.03 100.89 C 102.94 103.16 104.82 106.25 102.60 108.34 C 101.09 110.50 98.34 110.42 96.00 110.59 C 94.78 111.09 93.56 111.60 92.34 112.10 C 93.14 116.23 94.70 120.13 96.63 123.86 C 100.01 123.01 103.42 122.28 106.76 121.26 C 108.04 121.60 109.34 121.92 110.64 122.24 C 111.35 122.91 112.07 123.60 112.78 124.28 C 113.18 125.87 113.74 127.40 114.56 128.82 C 113.71 130.48 112.87 132.15 112.05 133.83 C 113.43 133.29 114.80 132.77 116.20 132.28 C 115.07 134.67 113.26 136.59 111.24 138.25 C 114.27 139.89 113.60 143.08 112.24 145.61 C 112.62 146.08 113.38 147.03 113.76 147.50 C 117.02 146.80 120.39 146.63 123.59 145.68 C 124.41 144.66 125.05 143.52 125.77 142.43 C 125.34 142.55 124.47 142.80 124.03 142.93 C 124.33 140.31 124.71 137.70 124.88 135.08 C 125.24 130.99 123.56 127.11 123.51 123.05 C 123.11 117.74 124.04 112.19 122.04 107.12 C 120.76 103.38 119.43 99.65 118.33 95.86 C 118.01 90.85 118.58 85.71 117.21 80.82 C 115.51 75.44 116.98 69.59 115.17 64.25 C 113.76 61.89 111.57 60.14 109.57 58.31 C 108.15 59.81 106.10 59.76 104.21 59.98 C 104.46 59.50 104.96 58.55 105.20 58.08 C 103.30 56.79 101.46 55.38 100.14 53.47 C 103.96 54.63 107.20 57.17 111.12 58.03 C 113.64 60.05 116.45 62.15 117.47 65.36 C 119.13 70.04 117.29 75.16 119.11 79.79 C 120.79 84.85 119.92 90.26 119.67 95.46 C 122.02 98.91 122.83 103.05 124.06 106.96 C 125.77 112.50 124.79 118.34 124.90 124.02 C 125.74 127.82 127.32 131.47 127.25 135.45 C 135.72 133.81 144.14 131.93 152.67 130.63 C 152.60 125.35 152.57 120.06 152.67 114.78 C 153.59 113.34 154.71 111.88 154.51 110.05 C 154.27 73.37 154.41 36.68 154.34 0.00 M 77.80 31.82 C 74.73 34.37 74.27 38.69 74.65 42.42 C 75.25 42.30 76.45 42.07 77.05 41.96 C 76.60 43.57 76.18 45.19 75.82 46.82 C 77.41 47.97 79.02 49.09 80.67 50.15 C 81.50 52.19 82.31 54.49 84.27 55.73 C 86.96 57.13 89.92 57.92 92.82 58.76 C 93.76 58.32 94.70 57.89 95.64 57.46 C 98.15 50.91 98.71 43.64 96.64 36.89 C 96.58 33.21 93.88 30.65 91.16 28.59 C 86.57 28.54 81.38 28.44 77.80 31.82 M 171.08 107.18 C 169.29 108.75 168.20 110.92 167.04 112.96 C 167.29 117.82 167.16 122.70 167.37 127.56 C 169.97 127.04 172.60 126.65 175.20 126.11 C 175.86 128.14 177.00 130.47 175.36 132.39 C 172.72 133.29 169.88 133.49 167.18 134.24 C 167.47 139.72 165.76 146.31 170.45 150.47 C 173.59 154.16 178.69 154.25 183.01 153.04 C 186.67 151.38 188.85 147.69 190.31 144.11 C 193.96 134.24 193.86 122.95 189.74 113.23 C 188.07 109.16 184.70 105.95 180.64 104.29 C 177.35 104.67 173.62 104.75 171.08 107.18 M 155.17 115.26 C 155.07 129.16 155.07 143.07 155.22 156.97 C 156.59 157.32 157.96 157.65 159.34 157.98 C 159.45 151.32 158.81 144.67 158.90 138.01 C 158.89 130.88 159.51 123.74 159.06 116.61 C 157.76 116.16 156.47 115.71 155.17 115.26 M 160.81 116.93 C 160.49 130.56 160.40 144.23 161.15 157.86 C 162.33 157.58 163.52 157.30 164.70 157.01 C 164.75 143.32 164.80 129.63 164.71 115.93 C 163.40 116.24 162.09 116.51 160.81 116.93 M 194.21 123.62 C 194.30 124.59 194.48 126.52 194.57 127.49 C 199.35 125.87 204.44 125.52 209.28 124.13 C 208.69 123.17 208.09 122.22 207.48 121.27 C 203.08 122.15 198.71 123.37 194.21 123.62 M 97.14 124.70 C 97.74 125.83 98.32 126.96 98.89 128.10 C 102.57 126.71 108.28 127.09 109.44 122.37 C 105.58 123.76 101.31 126.17 97.14 124.70 M 98.80 129.75 C 99.15 132.47 100.15 135.01 101.63 137.31 C 103.08 136.49 104.51 135.66 106.04 134.99 C 104.16 134.92 102.28 134.83 100.41 134.68 C 102.25 132.18 105.69 133.19 108.35 132.85 C 108.07 134.00 107.76 135.15 107.40 136.28 C 105.68 137.23 103.80 137.83 101.98 138.56 C 103.46 140.89 106.41 139.91 108.57 139.47 C 109.90 138.16 110.00 136.08 111.09 134.58 C 111.48 131.88 111.91 129.18 112.03 126.44 C 111.37 125.84 110.05 124.63 109.40 124.02 C 107.91 128.55 102.80 129.01 98.80 129.75 M 167.21 129.32 C 167.19 130.07 167.16 131.57 167.15 132.32 C 169.75 131.94 172.38 131.58 174.87 130.68 C 175.24 129.54 174.89 128.68 173.85 128.09 C 171.60 128.25 169.42 128.90 167.21 129.32 M 126.62 137.58 C 126.43 138.37 126.07 139.95 125.88 140.74 C 134.87 139.18 143.77 137.13 152.74 135.47 C 152.73 134.65 152.70 133.00 152.69 132.18 C 143.97 133.86 135.29 135.72 126.62 137.58 M 17.43 136.27 C 9.48 141.06 8.77 151.02 7.17 159.21 C 11.12 158.49 15.06 157.76 18.98 156.91 C 19.75 158.93 20.10 161.05 20.26 163.20 C 16.14 164.81 11.46 164.49 7.53 166.62 C 9.11 169.60 9.34 173.06 10.79 176.10 C 12.36 179.72 15.12 183.32 19.12 184.33 C 23.18 184.21 28.26 184.75 30.79 180.81 C 35.88 173.80 37.49 164.57 36.72 156.05 C 35.55 148.72 33.49 140.26 26.56 136.26 C 23.92 133.87 20.47 136.23 17.43 136.27 M 41.76 138.70 C 41.59 143.18 41.67 147.67 41.61 152.16 C 43.01 151.99 44.40 151.82 45.80 151.65 C 45.76 147.13 45.75 142.60 45.74 138.07 C 44.74 138.23 42.75 138.54 41.76 138.70 M 102.99 142.22 C 103.04 142.81 103.16 143.99 103.21 144.58 C 104.46 144.38 109.12 144.11 107.18 146.07 C 103.66 146.24 102.33 150.18 99.08 150.83 C 95.50 151.67 91.81 151.07 88.19 151.24 C 87.72 151.01 86.79 150.54 86.32 150.30 C 81.27 151.46 76.10 152.10 71.08 153.43 C 71.02 156.50 67.56 159.58 70.52 162.16 C 71.55 160.47 71.87 158.02 74.07 157.43 C 74.07 159.25 74.06 161.08 74.03 162.91 C 77.26 164.15 80.38 166.29 83.98 165.99 C 87.49 165.77 90.89 164.59 93.87 162.74 C 94.46 160.36 94.00 157.58 95.23 155.44 C 98.14 153.95 101.40 153.35 104.60 152.82 C 102.64 156.44 96.72 154.77 95.81 159.36 C 99.82 159.72 104.03 162.15 107.92 159.99 C 110.20 159.27 112.35 156.68 114.82 158.30 C 109.61 162.19 101.85 164.85 96.33 160.01 L 96.09 162.42 C 100.06 164.41 101.62 168.75 103.93 172.25 C 106.09 175.42 104.77 179.60 106.57 182.93 C 107.79 185.82 110.60 189.16 107.96 192.12 C 107.52 191.28 106.65 189.60 106.22 188.76 C 105.58 193.52 105.97 198.32 106.90 203.02 C 107.27 206.66 110.27 209.39 110.62 213.05 C 111.03 218.03 111.50 223.24 109.93 228.08 C 108.85 231.65 109.04 235.42 109.00 239.10 C 112.48 240.65 116.29 239.64 119.94 239.74 C 122.89 239.66 125.41 241.37 128.01 242.51 C 130.64 242.39 133.26 243.17 135.87 242.81 C 137.67 242.01 139.31 240.90 141.06 240.00 C 139.26 236.33 134.87 237.16 131.93 235.12 C 128.96 233.43 127.45 230.23 125.06 227.94 C 123.26 226.18 121.42 224.47 119.60 222.74 C 119.67 222.37 119.81 221.65 119.88 221.28 C 117.14 213.96 119.47 206.15 118.03 198.65 C 117.66 196.09 116.69 193.54 117.17 190.94 C 118.02 187.24 117.15 183.37 118.54 179.76 C 119.59 177.05 118.19 174.45 116.83 172.17 C 115.63 174.58 114.27 177.81 111.09 177.87 C 108.38 176.98 108.09 173.72 107.12 171.45 C 107.34 171.44 107.79 171.41 108.01 171.40 C 108.64 173.54 110.25 176.91 113.01 176.01 C 114.59 174.20 115.06 171.78 115.60 169.52 C 116.09 169.59 117.07 169.73 117.57 169.80 C 117.37 165.47 117.12 161.13 117.02 156.80 C 116.46 157.02 115.33 157.46 114.77 157.67 C 114.86 155.54 116.42 154.38 118.23 153.59 C 117.37 152.23 116.63 150.80 116.08 149.29 C 114.10 149.15 111.81 149.37 110.53 147.55 C 110.54 146.99 110.57 145.87 110.59 145.31 C 110.30 145.01 109.73 144.40 109.45 144.10 C 109.81 143.36 110.54 141.89 110.91 141.15 C 108.24 141.29 105.64 141.97 102.99 142.22 M 52.15 152.12 C 47.44 152.88 42.91 154.69 38.09 154.72 C 38.11 156.00 38.11 157.27 38.09 158.55 C 40.87 157.31 43.89 156.92 46.84 156.33 C 59.60 153.97 72.21 150.90 85.00 148.71 C 84.99 147.99 84.97 146.54 84.96 145.82 C 73.99 147.75 63.10 150.10 52.15 152.12 M 41.42 159.21 C 41.59 166.15 41.81 173.08 42.21 180.02 C 43.37 179.67 44.51 179.25 45.61 178.77 C 46.01 172.04 45.51 165.28 45.84 158.55 C 44.37 158.78 42.90 159.01 41.42 159.21 M 73.02 164.69 C 73.15 169.49 75.06 174.51 73.15 179.17 C 71.84 182.60 70.90 186.18 70.61 189.86 C 71.88 194.89 72.86 199.99 74.47 204.93 C 71.38 203.38 71.69 199.21 70.02 196.55 C 67.43 202.45 64.98 208.95 66.38 215.48 C 67.72 221.30 69.74 227.01 70.02 233.03 C 70.09 235.71 69.07 238.27 69.05 240.95 C 70.05 245.28 71.81 249.37 73.21 253.57 C 74.02 255.80 73.71 258.68 75.88 260.18 C 79.09 263.18 84.25 262.96 87.57 260.25 C 87.03 259.77 85.96 258.81 85.42 258.34 C 82.13 259.01 78.80 258.82 75.50 258.38 C 77.85 255.72 81.93 257.44 85.06 256.53 C 87.29 255.92 87.79 258.72 88.68 260.06 C 90.10 259.88 91.50 259.63 92.84 259.13 C 89.94 254.12 85.17 250.49 82.98 245.01 C 77.74 238.17 77.26 229.14 78.25 220.90 C 78.77 217.74 80.44 214.93 81.34 211.88 C 82.28 208.48 81.63 204.92 81.48 201.47 C 78.08 205.84 78.71 211.51 77.65 216.61 C 76.03 214.75 76.72 212.20 76.79 209.97 C 77.00 205.55 79.36 201.71 81.35 197.89 C 83.55 191.67 84.88 185.00 88.56 179.41 C 90.89 175.50 91.44 170.89 92.10 166.47 C 88.40 167.17 84.64 168.41 80.83 167.88 C 78.12 167.10 75.66 165.65 73.02 164.69 Z" />
<path fill="#333333" opacity="1.00" d=" M 67.42 63.17 C 68.71 62.54 70.03 61.95 71.36 61.40 C 72.40 62.49 75.78 64.39 73.05 65.48 C 71.51 63.97 69.65 63.01 67.42 63.17 Z" />
<path fill="#333333" opacity="1.00" d=" M 88.30 62.79 C 90.04 64.95 90.99 68.45 94.38 68.27 C 92.97 69.05 91.47 70.15 89.83 69.27 C 86.30 67.70 82.41 68.59 78.77 67.65 C 81.91 66.61 85.23 66.60 88.49 66.83 C 88.44 65.82 88.35 63.80 88.30 62.79 Z" />
<path fill="#333333" opacity="1.00" d=" M 105.74 63.48 C 111.60 67.06 113.02 75.50 109.55 81.24 C 106.52 79.62 110.07 76.56 109.34 74.02 C 109.81 70.05 107.15 66.93 105.74 63.48 Z" />
<path fill="#333333" opacity="1.00" d=" M 94.30 74.84 C 97.58 77.16 99.17 82.26 96.58 85.67 C 95.50 88.40 92.18 88.56 89.73 89.11 C 91.07 87.44 93.08 86.69 94.88 85.66 C 95.24 84.50 94.29 83.46 94.21 82.32 C 94.65 82.64 95.54 83.28 95.99 83.60 C 96.12 80.57 94.89 77.76 94.30 74.84 Z" />
<path fill="#333333" opacity="1.00" d=" M 99.77 86.08 C 98.48 85.77 98.23 84.77 98.48 83.60 C 101.17 85.24 104.16 85.52 107.06 84.26 C 108.13 84.53 109.21 84.79 110.30 85.04 C 110.81 89.29 113.31 93.76 111.52 97.99 C 110.52 93.81 109.63 89.60 108.99 85.35 C 105.96 85.64 102.63 88.13 99.77 86.08 Z" />
<path fill="#333333" opacity="1.00" d=" M 103.53 88.49 C 104.96 88.59 105.99 89.89 107.18 90.60 C 104.91 89.99 102.65 89.69 100.84 91.56 C 101.82 93.06 102.42 94.73 102.60 96.52 C 105.31 95.70 108.22 95.71 110.39 97.74 C 112.22 103.44 109.05 109.29 110.51 115.08 C 113.46 118.81 115.31 123.17 116.15 127.85 C 115.08 127.20 113.90 126.56 113.80 125.16 C 113.16 122.30 111.26 119.98 108.97 118.25 C 108.50 114.62 107.96 110.99 107.75 107.33 C 107.38 107.64 106.64 108.26 106.27 108.57 C 106.00 108.36 105.44 107.93 105.16 107.72 C 108.17 106.43 111.21 102.38 109.85 99.17 C 107.60 97.48 104.71 97.58 102.04 97.36 C 100.58 98.29 98.96 98.91 97.28 99.30 C 96.91 99.65 96.17 100.37 95.79 100.73 C 93.72 101.10 92.18 102.48 90.87 104.04 C 89.86 103.40 88.86 102.77 87.86 102.14 C 90.02 102.41 91.64 101.33 92.88 99.73 C 93.79 99.43 94.70 99.14 95.61 98.85 C 95.92 98.41 96.55 97.52 96.86 97.08 C 98.13 97.00 99.40 96.86 100.67 96.68 C 101.77 94.69 100.75 92.51 99.30 91.04 C 100.76 90.27 102.12 89.33 103.53 88.49 Z" />
<path fill="#333333" opacity="1.00" d=" M 62.69 88.95 C 64.50 89.02 66.56 88.73 68.01 90.06 C 71.01 92.80 71.32 97.58 75.15 99.57 C 72.27 101.41 70.92 97.33 69.63 95.49 C 68.36 92.34 65.66 90.37 62.69 88.95 Z" />
<path fill="#333333" opacity="1.00" d=" M 92.18 92.99 C 93.23 90.94 94.79 89.19 97.23 88.97 C 95.85 91.02 94.33 92.97 93.09 95.11 C 91.57 96.07 90.05 97.03 88.50 97.93 C 88.52 95.54 91.37 95.01 92.18 92.99 Z" />
<path fill="#333333" opacity="1.00" d=" M 178.63 105.61 C 183.26 107.78 185.00 113.05 186.36 117.59 C 188.95 127.39 188.50 138.09 184.39 147.41 C 183.57 149.53 181.96 151.22 179.93 152.23 C 181.97 147.90 184.76 143.84 185.47 139.00 C 186.90 130.37 186.72 121.07 182.91 113.05 C 181.79 110.37 179.03 108.59 178.63 105.61 Z" />
<path fill="#333333" opacity="1.00" d=" M 102.37 114.16 C 105.10 113.43 102.75 118.35 101.05 117.54 C 100.13 116.37 101.20 114.68 102.37 114.16 Z" />
<path fill="#333333" opacity="1.00" d=" M 76.61 134.10 C 76.36 130.82 77.69 127.42 80.15 125.22 C 80.61 125.83 81.52 127.03 81.98 127.64 C 77.69 126.88 79.53 133.23 76.61 134.10 Z" />
<path fill="#333333" opacity="1.00" d=" M 114.79 131.29 C 114.23 130.55 115.18 126.93 116.06 128.98 C 116.66 129.75 115.95 132.83 114.79 131.29 Z" />
<path fill="#333333" opacity="1.00" d=" M 21.95 137.08 C 25.81 137.26 27.20 141.40 28.67 144.32 C 32.52 154.13 32.57 165.30 29.40 175.30 C 28.14 178.39 27.04 182.55 23.24 183.27 C 28.13 176.60 30.46 168.32 30.02 160.07 C 30.35 151.68 27.37 143.44 21.95 137.08 Z" />
<path fill="#333333" opacity="1.00" d=" M 76.26 138.80 C 75.42 137.50 77.56 135.94 78.63 136.93 C 79.44 138.20 77.33 139.85 76.26 138.80 Z" />
<path fill="#333333" opacity="1.00" d=" M 106.21 147.24 C 107.99 146.65 107.63 148.95 108.02 150.03 C 108.25 151.65 108.30 153.28 108.17 154.93 C 105.72 153.28 105.35 149.85 106.21 147.24 Z" />
<path fill="#333333" opacity="1.00" d=" M 76.48 179.83 C 78.92 179.87 81.25 179.22 83.37 178.01 C 84.11 179.78 84.83 181.56 85.32 183.42 C 84.43 182.52 83.59 181.56 82.82 180.56 C 81.12 181.04 79.41 181.51 77.70 181.97 C 77.20 183.10 76.68 184.23 76.11 185.33 C 76.16 183.49 76.31 181.66 76.48 179.83 Z" />
<path fill="#333333" opacity="1.00" d=" M 77.67 189.13 C 79.21 189.18 80.75 189.25 82.28 189.36 C 81.75 191.89 78.10 191.61 77.67 189.13 Z" />
<path fill="#333333" opacity="1.00" d=" M 114.49 234.17 C 111.73 232.59 110.79 228.20 113.26 225.98 C 113.07 228.78 113.66 231.51 114.49 234.17 Z" />
<path fill="#333333" opacity="1.00" d=" M 71.66 242.73 C 72.66 239.69 73.63 235.39 77.18 234.45 C 75.66 237.41 74.66 240.88 71.66 242.73 Z" />
</g>
</svg>
