<?xml version="1.0" encoding="UTF-8" ?>
<!DOCTYPE svg PUBLIC "-//W3C//DTD SVG 1.1//EN" "http://www.w3.org/Graphics/SVG/1.1/DTD/svg11.dtd">
<svg width="216pt" height="275pt" viewBox="0 0 216 275" version="1.1" xmlns="http://www.w3.org/2000/svg"><g id="#3f4140ff">
<path fill="#333333" opacity="1.00" d=" M 72.99 36.97 C 73.32 31.86 77.91 27.60 82.97 27.34 C 87.08 27.20 92.04 26.55 95.16 29.86 C 98.20 32.39 97.52 36.70 98.70 40.11 C 100.56 45.85 98.33 51.77 97.52 57.49 C 98.74 58.64 99.67 60.05 100.91 61.19 C 100.30 61.39 99.69 61.59 99.08 61.79 C 98.97 61.19 98.75 59.99 98.64 59.39 L 96.76 58.34 C 96.18 59.63 95.48 60.85 94.90 62.13 C 96.26 63.84 96.51 65.96 96.01 68.03 C 93.81 66.01 93.18 63.03 94.41 60.30 C 90.06 60.91 85.60 59.49 82.18 56.83 C 80.75 54.97 79.81 52.81 78.64 50.80 C 78.43 52.42 78.25 54.04 78.06 55.66 C 73.57 54.83 69.66 57.68 66.98 60.96 C 64.59 63.95 60.58 65.64 59.38 69.49 C 57.48 74.29 60.17 79.11 60.62 83.91 C 61.13 87.90 61.61 92.55 64.98 95.24 C 68.63 98.23 70.43 102.90 74.48 105.50 C 75.84 110.05 75.97 115.22 79.18 118.99 C 83.28 124.43 88.69 129.11 90.20 136.07 C 88.75 139.36 85.12 142.05 86.09 146.04 C 86.84 147.20 87.89 148.12 88.83 149.13 C 93.06 149.02 97.83 150.26 101.34 147.11 C 100.61 143.50 103.10 137.19 97.97 136.23 C 97.56 129.97 95.30 124.19 92.65 118.58 C 91.21 112.91 88.22 107.86 85.14 102.95 C 82.92 99.60 79.32 97.62 76.65 94.70 C 78.25 94.97 79.79 95.51 81.29 96.11 C 80.44 92.85 78.88 89.84 76.40 87.52 C 73.15 84.38 72.46 79.74 70.34 75.92 C 72.91 74.37 71.78 70.40 74.40 68.79 C 74.08 72.44 72.09 76.34 74.05 79.84 C 75.02 82.21 76.70 84.17 78.07 86.31 C 78.57 85.86 79.08 85.42 79.59 84.98 C 81.19 85.38 82.81 85.76 84.39 86.22 C 82.69 86.65 80.97 87.01 79.32 87.60 C 82.23 90.11 82.30 94.12 83.17 97.57 C 87.42 100.85 89.56 105.89 91.48 110.73 C 94.11 108.87 97.20 108.24 100.36 108.89 C 102.16 106.58 101.93 103.68 101.86 100.94 C 103.41 103.22 104.84 106.97 102.01 108.89 C 100.54 110.72 98.06 110.35 96.00 110.54 C 94.76 111.02 93.51 111.50 92.26 111.97 C 93.08 116.16 94.64 120.13 96.66 123.88 C 100.03 122.98 103.47 122.36 106.77 121.24 C 108.04 121.61 109.32 121.97 110.60 122.29 C 111.43 122.97 112.25 123.65 113.09 124.32 C 113.20 125.87 113.25 127.43 113.34 128.99 C 113.20 130.56 112.95 132.11 112.61 133.65 L 113.50 134.03 L 114.05 132.11 C 114.54 132.83 115.02 133.57 115.49 134.31 C 113.89 135.84 112.25 137.34 110.62 138.85 C 111.32 139.15 112.72 139.74 113.42 140.04 C 113.41 142.13 112.76 144.12 111.25 145.60 C 112.19 146.18 113.11 146.80 114.00 147.46 C 117.23 146.79 120.52 146.41 123.78 145.88 C 124.36 144.83 124.93 143.76 125.54 142.72 C 123.51 140.15 124.98 136.94 124.98 134.00 C 125.18 131.09 123.97 128.34 123.69 125.48 C 122.93 118.60 124.51 111.27 121.20 104.86 C 120.47 100.77 117.70 97.12 118.24 92.86 C 118.34 88.03 118.23 83.10 116.60 78.50 C 115.97 73.78 116.71 68.82 115.21 64.23 C 113.62 61.69 111.25 59.75 108.98 57.85 C 108.92 60.83 106.04 59.55 104.21 59.74 C 104.51 59.30 105.11 58.41 105.41 57.97 C 103.42 56.88 101.36 55.72 100.32 53.58 C 103.50 54.19 105.94 56.49 108.98 57.47 C 112.25 58.23 114.73 60.76 116.57 63.43 C 118.59 66.94 118.34 71.17 118.18 75.07 C 117.78 77.85 119.70 80.20 119.92 82.90 C 120.30 87.11 120.00 91.35 119.53 95.54 C 120.34 96.73 121.13 97.93 121.89 99.15 C 122.32 102.85 124.15 106.19 124.73 109.85 C 125.44 114.54 124.90 119.29 124.75 124.00 C 125.71 127.84 127.63 131.52 127.03 135.61 C 129.39 135.08 131.78 134.62 134.12 134.01 C 136.20 135.79 136.81 138.52 135.10 140.79 C 132.21 141.29 129.35 141.95 126.46 142.39 C 126.23 143.80 126.51 145.43 125.61 146.66 C 123.33 148.77 119.93 148.19 117.12 148.66 C 117.82 150.19 119.03 151.35 120.30 152.40 C 120.31 153.09 120.34 154.48 120.36 155.17 C 119.72 155.45 118.44 156.00 117.80 156.28 C 118.93 160.77 119.22 165.40 119.03 170.02 C 118.71 173.11 121.21 175.77 120.55 178.87 C 118.97 185.16 118.93 191.84 120.37 198.17 C 121.18 204.99 120.29 211.91 121.31 218.72 C 121.83 220.63 122.20 222.87 124.01 224.03 C 127.90 226.79 130.00 231.47 134.25 233.77 C 136.29 235.04 139.27 234.14 140.82 236.21 C 141.69 237.16 142.48 238.18 143.30 239.18 C 142.03 242.31 138.80 243.28 135.91 244.37 C 137.86 249.52 138.60 256.29 134.00 260.29 C 140.08 262.65 146.09 265.17 152.18 267.50 C 153.92 268.12 155.54 269.04 156.95 270.24 C 155.63 270.38 154.23 270.55 152.99 269.96 C 145.74 267.11 138.61 263.92 131.21 261.45 C 131.34 261.21 131.61 260.72 131.74 260.48 C 129.88 262.33 127.60 263.65 124.91 263.59 C 118.13 259.36 116.70 248.92 121.95 242.97 C 122.83 242.80 124.60 242.46 125.49 242.28 C 124.49 244.44 122.28 245.83 121.41 248.01 C 121.14 252.03 120.49 257.08 123.94 260.00 C 125.67 261.72 128.72 260.95 129.99 259.05 C 132.40 255.24 131.55 250.21 129.29 246.55 C 128.40 245.08 125.96 244.67 125.76 242.89 C 125.80 240.01 129.10 240.43 131.07 240.00 C 132.66 241.01 134.13 242.18 135.52 243.45 C 137.35 242.25 139.21 241.09 141.15 240.07 C 140.43 239.10 139.71 238.15 138.99 237.20 C 135.13 236.90 131.32 235.30 128.94 232.17 C 126.34 228.75 123.34 225.67 120.04 222.93 C 120.47 228.50 121.76 233.94 122.51 239.47 C 123.33 240.20 125.40 240.34 124.81 241.84 C 123.68 242.26 122.52 242.62 121.35 242.92 C 120.68 240.11 117.89 241.32 115.89 241.46 C 112.96 242.09 109.10 241.64 107.34 238.97 C 105.63 231.21 111.04 223.91 109.42 216.13 C 109.15 210.81 105.51 206.72 103.68 201.95 C 103.61 197.25 103.74 192.43 105.03 187.86 C 105.52 188.68 106.00 189.51 106.46 190.35 C 105.43 194.57 106.60 198.82 107.10 203.02 C 107.40 206.61 110.44 209.23 110.83 212.79 C 111.31 216.86 111.09 220.96 111.00 225.04 C 109.44 229.36 108.94 234.11 109.30 238.67 C 112.42 241.39 117.02 239.37 120.76 239.64 C 117.21 219.82 114.04 199.94 110.69 180.09 C 110.47 178.09 109.32 176.41 108.44 174.67 C 108.69 174.37 109.20 173.76 109.46 173.46 C 109.26 169.67 108.21 165.96 107.71 162.20 C 105.51 162.52 103.30 162.66 101.09 162.66 C 99.50 161.76 97.92 160.72 96.06 160.48 C 99.31 164.89 102.45 169.39 104.99 174.25 C 106.05 177.07 105.36 180.31 106.86 183.03 C 108.03 185.89 110.75 189.07 108.28 192.08 C 106.59 188.64 104.88 185.21 103.17 181.79 C 101.65 178.72 102.83 174.96 101.03 172.01 C 99.37 169.33 98.12 166.32 95.81 164.11 C 94.82 164.29 93.96 164.77 93.24 165.55 C 93.35 169.65 92.86 173.78 91.50 177.67 C 90.51 180.18 88.52 182.15 87.47 184.64 C 86.37 189.47 83.92 193.95 83.46 198.94 C 83.35 202.61 83.81 206.28 83.62 209.95 C 83.51 214.13 80.84 217.68 80.49 221.82 C 79.77 228.72 79.09 236.59 83.49 242.49 C 85.38 245.32 86.46 248.72 89.00 251.08 C 90.78 252.70 92.03 254.78 93.52 256.65 C 93.44 258.09 94.08 259.78 93.04 261.00 C 92.07 262.20 90.28 261.83 88.94 262.18 C 83.12 267.08 70.71 263.71 71.09 255.07 C 70.55 251.67 67.59 248.75 68.70 245.12 C 68.14 243.48 67.58 241.84 67.06 240.19 C 69.72 232.14 66.84 223.90 64.97 216.04 C 63.03 208.84 66.48 201.83 68.61 195.11 C 69.18 191.73 69.01 188.26 69.73 184.90 C 70.16 181.20 72.46 177.86 72.00 174.05 C 71.74 170.44 71.35 166.78 72.07 163.18 C 69.41 165.47 66.65 161.21 66.57 158.71 C 69.29 157.06 69.72 153.90 69.88 151.01 C 70.08 146.59 72.23 142.47 72.00 138.00 C 72.00 135.41 71.00 132.97 70.75 130.41 C 70.20 126.83 73.42 124.29 74.69 121.24 C 74.95 121.49 75.47 122.00 75.73 122.25 C 75.82 122.74 75.98 123.71 76.07 124.20 C 73.01 123.33 72.87 127.00 72.38 129.04 C 73.28 134.58 74.74 140.42 72.87 145.93 C 71.40 150.04 71.76 154.66 69.47 158.50 C 68.26 159.86 69.94 161.01 70.57 162.17 C 71.60 160.52 71.80 157.95 74.07 157.50 C 74.07 159.31 74.05 161.13 74.03 162.94 C 77.56 164.33 81.07 166.66 85.05 165.91 C 88.09 165.40 91.37 164.78 93.71 162.60 C 94.61 160.49 94.29 158.11 94.85 155.91 C 97.55 153.81 101.28 153.54 104.55 152.84 C 102.62 156.48 96.62 154.71 95.81 159.40 C 98.57 159.65 101.19 160.71 103.96 160.93 C 105.34 160.98 108.35 160.85 107.18 158.43 C 108.38 158.67 109.59 158.88 110.80 159.06 C 112.97 156.87 115.35 154.82 118.29 153.74 C 117.47 152.29 116.76 150.79 116.22 149.22 C 111.97 150.87 110.36 145.40 106.40 145.92 C 107.62 148.29 108.25 150.88 108.69 153.50 C 108.69 154.53 108.69 156.58 108.68 157.61 C 108.15 157.47 107.08 157.19 106.55 157.04 C 106.45 156.19 106.25 154.49 106.15 153.64 C 106.07 151.43 105.92 149.23 105.87 147.03 C 105.34 146.52 103.30 145.61 104.82 144.89 C 106.97 144.31 111.88 144.61 110.78 141.19 C 109.19 140.88 107.68 141.56 106.20 142.03 C 105.40 142.03 103.79 142.03 102.99 142.03 C 103.12 144.04 103.28 146.04 103.46 148.05 C 99.62 152.54 93.28 150.93 88.13 151.26 C 87.67 150.99 86.76 150.44 86.30 150.16 C 82.47 151.16 78.56 151.87 74.65 152.53 C 74.61 150.36 74.61 148.19 74.58 146.02 C 77.77 145.22 81.02 144.71 84.22 143.97 C 84.13 141.45 85.90 139.77 87.33 137.94 C 87.16 129.77 80.04 124.44 76.25 117.85 C 76.55 119.16 76.43 120.23 75.89 121.06 C 75.65 120.93 75.15 120.68 74.91 120.55 C 74.93 117.18 74.70 113.79 73.75 110.54 C 71.07 107.71 69.67 103.99 67.40 100.85 C 65.52 97.39 62.05 95.05 60.53 91.37 C 59.02 87.85 59.48 83.76 57.50 80.40 C 54.10 74.13 57.35 65.96 63.01 62.20 C 67.33 59.19 70.47 53.85 76.23 53.50 C 76.31 52.59 76.45 50.78 76.52 49.87 C 73.37 46.34 73.02 41.47 72.99 36.97 M 78.41 31.29 C 74.86 33.79 74.15 38.49 74.61 42.52 C 75.22 42.37 76.44 42.09 77.05 41.94 C 76.59 43.58 76.16 45.21 75.80 46.87 C 77.40 48.00 79.01 49.10 80.66 50.15 C 81.55 52.40 82.49 55.03 84.88 56.08 C 87.42 57.22 90.09 58.01 92.77 58.78 C 93.74 58.33 94.72 57.89 95.70 57.44 C 98.01 51.06 98.81 44.01 96.76 37.45 C 96.70 33.59 94.15 30.72 91.20 28.57 C 86.84 28.55 81.98 28.34 78.41 31.29 M 97.27 124.79 C 97.78 125.92 98.28 127.05 98.77 128.20 C 102.47 126.70 108.31 127.16 109.47 122.33 C 105.63 123.84 101.46 125.88 97.27 124.79 M 98.72 129.66 C 98.98 133.68 101.56 136.80 103.34 140.23 C 106.13 139.97 110.02 140.20 109.81 136.32 C 110.37 135.79 110.92 135.26 111.48 134.74 C 110.81 131.98 112.31 129.23 112.02 126.42 C 111.36 125.81 110.04 124.60 109.38 123.99 C 107.84 128.48 102.78 129.13 98.72 129.66 M 126.64 137.52 C 126.42 138.62 126.21 139.72 126.00 140.83 C 128.95 139.84 132.91 140.52 134.97 137.89 C 132.98 134.98 129.41 137.47 126.64 137.52 M 79.16 146.77 C 79.65 147.70 80.15 148.62 80.63 149.55 C 82.07 149.27 83.51 149.00 84.95 148.74 C 84.91 148.02 84.84 146.59 84.80 145.87 C 82.92 146.16 81.04 146.46 79.16 146.77 M 109.52 161.49 C 110.34 166.21 111.18 170.93 111.77 175.70 C 112.26 175.76 113.24 175.88 113.73 175.94 C 114.58 173.87 115.32 171.76 115.96 169.61 C 116.46 169.62 117.47 169.63 117.97 169.63 C 117.69 165.28 117.48 160.93 116.92 156.60 C 114.62 158.46 112.23 160.25 109.52 161.49 M 73.01 164.70 C 73.26 168.53 74.07 172.33 73.97 176.17 C 72.97 180.51 70.80 184.59 70.69 189.13 C 71.42 194.51 72.91 199.74 74.47 204.94 C 71.40 203.34 71.70 199.20 70.03 196.53 C 68.27 200.20 66.99 204.10 66.19 208.09 C 64.75 217.66 71.28 226.48 69.72 236.07 C 67.29 243.87 73.79 250.60 74.07 258.25 C 77.00 262.66 83.53 263.87 87.57 260.22 C 87.04 259.74 85.98 258.79 85.45 258.31 C 82.17 258.98 78.85 258.75 75.55 258.42 C 77.53 255.71 81.36 257.56 84.18 256.64 C 86.77 255.55 87.68 258.41 88.92 260.00 C 90.33 260.09 91.63 259.77 92.85 259.03 C 90.60 254.77 86.42 251.95 84.41 247.57 C 82.72 243.99 79.90 240.95 79.03 237.01 C 77.61 232.09 77.75 226.90 78.13 221.85 C 78.51 217.33 81.63 213.56 81.82 209.02 C 81.92 206.46 81.65 203.90 81.50 201.36 C 78.11 205.75 78.66 211.40 77.68 216.53 C 75.97 214.70 76.78 212.08 76.82 209.85 C 77.07 205.48 79.40 201.65 81.38 197.88 C 83.58 191.65 84.90 184.97 88.60 179.38 C 90.93 175.46 91.46 170.85 92.12 166.42 C 88.44 167.16 84.70 168.36 80.90 167.87 C 78.17 167.10 75.69 165.64 73.01 164.70 M 112.30 178.15 C 114.48 191.16 116.84 204.14 118.63 217.20 C 118.41 210.46 119.63 203.62 118.00 196.97 C 117.20 194.04 117.38 191.02 117.76 188.05 C 117.35 182.70 120.76 177.18 117.45 172.19 C 115.98 174.38 114.54 176.65 112.30 178.15 M 119.15 219.43 C 118.36 220.66 118.62 221.41 119.96 221.68 C 120.72 220.47 120.45 219.72 119.15 219.43 M 128.14 242.32 C 133.25 246.09 134.66 253.40 132.36 259.14 C 137.54 253.95 135.81 244.36 129.22 241.23 C 128.95 241.50 128.41 242.05 128.14 242.32 Z" />
<path fill="#333333" opacity="1.00" d=" M 67.42 63.28 C 69.58 61.10 72.67 61.45 74.28 64.05 C 73.42 67.27 71.61 63.65 70.02 63.41 C 69.37 63.38 68.07 63.32 67.42 63.28 Z" />
<path fill="#333333" opacity="1.00" d=" M 88.32 62.75 C 89.98 65.07 91.07 68.28 94.34 68.70 C 92.86 69.09 91.32 70.00 89.80 69.24 C 86.29 67.67 82.42 68.56 78.78 67.71 C 81.92 66.62 85.24 66.59 88.52 66.86 C 88.47 65.83 88.37 63.77 88.32 62.75 Z" />
<path fill="#333333" opacity="1.00" d=" M 105.75 63.46 C 111.42 67.05 112.95 75.11 109.78 80.86 C 109.30 80.67 108.33 80.30 107.84 80.11 C 108.91 77.89 109.68 75.50 109.34 73.01 C 109.54 69.40 106.92 66.66 105.75 63.46 Z" />
<path fill="#333333" opacity="1.00" d=" M 94.31 74.89 C 97.58 77.16 99.13 82.29 96.56 85.66 C 95.52 88.31 92.34 88.44 90.01 89.17 C 90.30 88.73 90.89 87.85 91.19 87.41 C 92.47 86.91 93.77 86.43 94.97 85.77 C 96.18 84.47 94.51 83.19 93.96 82.07 C 94.48 82.58 95.51 83.61 96.02 84.12 C 96.24 80.92 94.98 77.95 94.31 74.89 Z" />
<path fill="#333333" opacity="1.00" d=" M 98.21 85.39 C 98.37 84.96 98.68 84.11 98.84 83.68 C 101.41 85.46 104.35 85.44 107.14 84.23 C 108.24 84.64 109.36 85.04 110.47 85.45 C 110.75 89.59 113.33 93.90 111.51 97.97 C 110.55 93.78 109.65 89.58 108.98 85.34 C 105.38 86.27 101.56 87.88 98.21 85.39 Z" />
<path fill="#333333" opacity="1.00" d=" M 99.19 91.01 C 101.04 90.55 102.44 89.21 103.95 88.14 C 104.99 89.03 106.04 89.92 107.07 90.84 C 105.85 90.46 104.64 90.05 103.45 89.61 C 102.64 90.35 101.84 91.08 101.03 91.82 C 101.93 93.26 102.41 94.89 102.57 96.58 C 105.30 95.67 108.89 95.66 110.60 98.31 C 111.89 103.92 109.13 109.50 110.50 115.13 C 113.47 118.84 115.29 123.20 116.16 127.86 C 113.35 126.97 113.81 123.67 112.32 121.67 C 111.46 120.29 110.19 119.27 108.98 118.23 C 108.56 114.91 108.05 111.59 107.86 108.25 C 106.78 108.16 105.71 108.06 104.63 107.94 C 105.24 107.74 106.47 107.32 107.08 107.12 C 108.29 104.68 111.47 102.05 109.86 99.18 C 107.63 97.40 104.71 97.57 102.03 97.33 C 100.58 98.29 98.96 98.90 97.27 99.27 C 96.90 99.64 96.14 100.37 95.76 100.74 C 93.66 101.05 92.16 102.47 90.88 104.04 C 89.87 103.38 88.87 102.71 87.86 102.05 C 90.03 102.42 91.66 101.42 92.85 99.76 C 93.77 99.46 94.69 99.16 95.61 98.87 C 95.94 98.42 96.58 97.51 96.91 97.06 C 98.34 96.87 100.07 97.28 101.16 96.05 C 101.42 94.08 100.69 92.27 99.19 91.01 Z" />
<path fill="#333333" opacity="1.00" d=" M 62.84 89.13 C 64.40 89.09 66.12 88.72 67.49 89.71 C 71.02 92.16 70.98 97.53 75.07 99.41 C 72.64 101.62 71.05 97.61 69.95 96.00 C 68.56 92.81 66.12 90.36 62.84 89.13 Z" />
<path fill="#333333" opacity="1.00" d=" M 92.57 92.42 C 93.44 90.50 95.10 89.22 97.23 89.05 C 95.80 91.05 94.26 92.98 93.09 95.15 C 91.48 96.07 89.87 97.01 88.18 97.77 C 89.19 95.60 91.66 94.67 92.57 92.42 Z" />
<path fill="#333333" opacity="1.00" d=" M 102.37 114.16 C 105.11 113.40 102.69 118.35 101.00 117.56 C 100.11 116.36 101.22 114.70 102.37 114.16 Z" />
<path fill="#333333" opacity="1.00" d=" M 76.32 133.41 C 77.07 130.40 77.51 126.46 80.94 125.31 C 80.91 126.42 80.88 127.53 80.85 128.64 L 79.89 127.46 C 78.96 129.52 78.33 131.68 77.71 133.85 C 77.36 133.74 76.67 133.52 76.32 133.41 Z" />
<path fill="#333333" opacity="1.00" d=" M 114.89 129.00 C 116.41 126.21 116.87 133.49 114.79 131.27 C 114.82 130.70 114.87 129.57 114.89 129.00 Z" />
<path fill="#333333" opacity="1.00" d=" M 100.37 134.71 C 102.26 132.29 105.64 133.15 108.31 132.84 C 108.29 135.81 106.27 138.00 103.09 137.57 C 103.65 136.87 104.76 135.46 105.32 134.76 C 103.67 134.77 102.02 134.76 100.37 134.71 Z" />
<path fill="#333333" opacity="1.00" d=" M 76.26 138.80 C 75.46 137.50 77.59 135.92 78.66 136.93 C 79.40 138.21 77.32 139.88 76.26 138.80 Z" />
<path fill="#333333" opacity="1.00" d=" M 76.49 179.85 C 78.97 179.86 81.32 179.17 83.54 178.10 C 84.18 179.85 84.81 181.61 85.27 183.42 C 84.37 182.53 83.58 181.54 82.90 180.47 C 81.17 181.00 79.43 181.48 77.69 181.96 C 77.19 183.09 76.66 184.20 76.11 185.30 C 76.17 183.48 76.32 181.66 76.49 179.85 Z" />
<path fill="#333333" opacity="1.00" d=" M 77.63 189.24 C 79.15 189.23 80.67 189.25 82.19 189.32 C 81.83 191.89 78.19 191.57 77.63 189.24 Z" />
<path fill="#333333" opacity="1.00" d=" M 114.65 234.30 C 111.97 232.37 111.28 228.48 113.32 225.84 C 113.50 228.69 113.99 231.51 114.65 234.30 Z" />
<path fill="#333333" opacity="1.00" d=" M 71.70 242.74 C 72.63 239.66 73.68 235.48 77.15 234.43 C 75.65 237.39 74.64 240.82 71.70 242.74 Z" />
</g>
</svg>
