<?xml version="1.0" encoding="UTF-8" ?>
<!DOCTYPE svg PUBLIC "-//W3C//DTD SVG 1.1//EN" "http://www.w3.org/Graphics/SVG/1.1/DTD/svg11.dtd">
<svg width="276pt" height="225pt" viewBox="0 0 276 225" version="1.1" xmlns="http://www.w3.org/2000/svg"><g id="#535452ff">
<path fill="#333333" opacity="1.00" d=" M 212.45 19.67 C 215.04 19.77 217.81 19.54 220.17 20.82 C 225.35 23.26 228.60 28.18 231.58 32.84 C 235.59 30.24 239.90 28.16 244.22 26.11 C 245.30 27.41 246.35 28.73 247.38 30.06 C 242.92 33.05 237.99 35.22 233.31 37.83 C 235.16 45.17 237.57 53.51 233.60 60.59 C 231.52 64.92 226.20 65.74 222.01 66.63 C 214.62 66.17 210.95 58.89 205.86 54.62 C 206.12 52.19 206.69 49.30 204.01 48.05 C 200.97 45.51 197.69 48.66 195.06 50.21 C 195.36 51.20 195.66 52.20 195.97 53.20 C 183.86 60.15 171.33 66.36 159.03 72.96 C 143.36 82.03 126.79 89.42 111.26 98.73 C 111.19 99.03 111.07 99.63 111.01 99.93 C 112.61 100.32 114.00 99.19 115.44 98.69 C 139.29 87.23 162.05 73.65 185.78 61.95 C 189.75 59.99 193.32 56.63 197.87 56.22 C 197.16 57.15 196.35 58.00 195.56 58.86 C 195.47 59.22 195.30 59.94 195.22 60.29 C 196.31 61.12 197.38 61.96 198.45 62.83 C 196.80 68.24 195.47 73.80 192.85 78.85 C 191.01 82.15 190.48 85.92 189.35 89.48 C 189.97 89.85 191.20 90.60 191.82 90.97 C 185.41 94.68 178.38 99.51 176.87 107.29 C 178.98 107.58 181.32 107.39 183.04 108.89 C 180.13 109.12 177.21 108.90 174.29 108.84 C 171.68 110.66 168.63 111.81 166.21 113.90 C 166.41 114.50 166.82 115.70 167.03 116.30 C 166.93 116.93 166.72 118.18 166.62 118.81 C 169.32 117.87 172.36 116.82 175.18 117.95 C 177.19 120.32 178.81 122.99 180.56 125.55 C 183.56 124.14 186.93 123.44 189.43 121.12 C 190.86 116.65 189.41 112.24 188.04 107.97 C 187.02 105.44 189.17 103.50 190.60 101.73 C 190.14 103.22 189.67 104.70 189.19 106.18 C 189.45 106.92 189.97 108.39 190.23 109.12 C 189.27 111.74 191.04 113.57 192.87 115.12 C 194.04 112.69 195.81 110.49 196.24 107.76 C 195.81 107.44 194.96 106.78 194.54 106.46 L 195.57 106.81 C 192.87 102.18 196.32 97.82 198.98 94.24 C 199.67 95.04 200.37 95.84 201.09 96.62 C 203.48 89.83 200.59 82.71 202.39 75.81 C 202.65 78.48 202.88 81.23 204.18 83.64 C 207.20 74.36 204.81 64.48 206.14 54.97 C 206.53 55.71 207.33 57.18 207.72 57.92 C 207.09 65.35 208.75 72.89 206.95 80.22 C 206.31 82.37 205.39 84.42 204.77 86.57 C 204.00 89.61 204.71 92.93 203.41 95.84 C 199.78 102.10 199.87 110.21 194.60 115.59 C 191.35 118.40 188.74 121.88 186.83 125.72 C 185.39 126.79 183.99 127.90 182.63 129.05 C 182.89 130.17 183.16 131.29 183.44 132.41 C 183.93 132.72 184.90 133.34 185.39 133.65 C 185.92 136.71 186.78 139.93 185.57 142.96 C 184.15 147.20 179.91 149.31 176.29 151.36 C 176.29 151.82 176.31 152.74 176.31 153.20 C 176.00 153.59 175.37 154.39 175.05 154.79 C 172.94 157.34 169.85 158.69 167.13 160.46 C 164.30 162.15 161.79 164.42 158.62 165.49 C 154.71 167.06 150.47 166.14 146.42 165.91 C 146.75 175.58 145.96 185.23 146.60 194.88 C 143.45 196.23 140.59 198.20 138.31 200.77 C 120.61 194.70 103.04 188.21 85.08 182.97 C 78.87 180.33 72.49 178.06 65.98 176.29 C 58.73 178.49 52.09 182.21 45.23 185.33 C 42.68 184.35 40.03 183.68 37.34 183.19 C 37.10 179.32 36.70 175.46 36.68 171.59 C 41.71 169.16 46.87 167.03 51.83 164.47 C 51.46 159.43 52.98 154.49 52.55 149.46 C 53.32 144.67 52.18 139.81 52.88 135.00 C 53.73 129.90 52.40 124.84 51.95 119.78 C 52.02 116.34 52.34 112.91 52.55 109.48 C 50.90 108.36 49.30 107.18 47.65 106.06 C 48.05 105.47 48.44 104.88 48.84 104.30 C 53.43 108.23 58.70 111.22 63.86 114.33 C 65.31 115.12 66.26 116.52 67.34 117.72 C 65.36 110.82 64.98 102.54 69.38 96.48 C 72.70 93.60 77.23 90.65 81.83 92.10 C 85.26 93.04 88.04 95.38 90.58 97.76 C 91.75 97.88 93.37 97.17 94.02 98.56 C 93.30 98.55 91.86 98.51 91.14 98.50 C 93.09 100.29 93.50 104.35 96.60 104.49 C 95.33 106.98 97.62 107.67 99.39 108.61 C 97.46 111.01 99.19 113.90 99.52 116.53 C 100.87 121.88 100.11 127.66 97.68 132.59 C 95.78 136.68 90.98 137.81 86.99 138.81 C 79.95 138.45 74.67 132.66 71.33 126.95 C 71.42 128.66 71.48 130.37 71.51 132.08 C 69.50 133.03 67.49 134.00 65.51 135.01 C 65.14 142.90 65.54 150.79 65.62 158.69 C 70.79 156.58 75.71 153.79 81.05 152.18 C 83.48 152.77 85.68 154.02 87.96 155.01 C 88.52 156.16 89.10 157.30 89.69 158.44 C 89.56 160.35 89.75 162.31 89.23 164.16 C 86.84 166.23 83.71 167.12 80.90 168.44 C 92.93 173.10 105.36 176.59 117.60 180.65 C 122.55 181.95 127.28 184.00 132.34 184.89 C 131.49 176.25 131.97 167.45 131.04 158.88 C 123.22 152.80 114.02 148.71 105.79 143.22 C 102.40 140.48 98.56 138.40 94.96 135.98 L 96.99 135.06 C 104.26 138.28 110.13 144.00 117.52 147.03 C 115.30 144.01 111.79 142.40 108.92 140.12 C 107.17 135.47 104.32 131.27 103.34 126.34 C 102.54 125.32 100.82 124.63 101.08 123.10 C 101.48 122.93 102.29 122.58 102.69 122.41 C 101.81 118.91 98.89 115.51 99.96 111.83 C 100.24 112.00 100.80 112.36 101.08 112.54 C 102.48 116.38 104.03 120.16 105.34 124.04 C 105.25 124.56 105.07 125.60 104.98 126.12 C 106.51 130.11 108.44 133.93 110.22 137.82 C 110.51 137.70 111.08 137.45 111.37 137.32 C 110.58 139.59 113.03 140.47 114.43 141.62 C 117.59 143.76 120.13 146.70 123.38 148.75 C 124.40 147.32 125.42 145.89 126.43 144.46 C 124.92 143.33 123.41 142.20 121.93 141.03 C 123.85 141.93 125.70 142.94 127.58 143.92 C 127.74 144.48 128.06 145.60 128.22 146.16 C 127.03 147.09 125.80 147.99 124.56 148.86 C 128.33 148.24 131.51 150.60 135.11 150.97 C 138.59 150.59 142.47 150.46 145.29 148.14 C 148.69 147.30 152.15 146.56 155.68 146.94 C 155.44 146.20 154.96 144.71 154.72 143.97 C 155.51 144.89 156.29 145.82 157.08 146.74 C 157.67 146.08 158.85 144.76 159.44 144.10 C 158.89 144.20 157.81 144.42 157.26 144.53 C 157.31 142.83 157.32 141.13 157.32 139.44 C 159.61 145.09 165.14 148.81 170.97 149.91 C 175.42 149.62 180.72 147.84 182.58 143.40 C 183.25 142.02 183.93 140.62 184.35 139.14 C 184.37 136.85 182.88 134.95 181.96 132.95 C 179.25 127.91 176.86 122.62 172.98 118.32 C 168.05 118.01 165.12 122.92 163.24 126.77 C 162.08 129.05 163.36 132.56 160.74 133.94 C 160.63 131.57 160.39 129.15 160.90 126.82 C 161.68 124.83 162.94 123.07 164.06 121.26 C 162.37 121.24 160.67 121.19 158.98 121.13 C 161.53 120.44 164.09 119.83 166.62 119.08 C 163.38 114.72 157.72 118.21 153.31 116.69 C 155.15 119.17 151.68 120.34 150.73 122.18 C 151.81 125.93 154.38 129.19 154.55 133.20 C 154.98 135.21 158.89 135.06 158.42 137.56 C 155.60 137.28 153.11 135.72 150.78 134.23 C 149.84 132.73 152.57 132.63 153.51 132.69 C 151.94 130.34 150.73 127.77 149.64 125.16 C 150.40 121.76 151.09 118.31 152.77 115.22 C 156.75 117.51 161.18 116.35 165.42 115.73 C 166.20 113.69 167.02 111.66 167.90 109.66 C 167.79 109.19 167.55 108.25 167.43 107.78 C 166.26 107.15 165.10 106.53 163.93 105.91 C 163.84 105.32 163.66 104.12 163.57 103.53 C 157.43 101.39 150.36 98.82 144.15 102.12 C 144.49 102.53 145.18 103.34 145.53 103.75 C 143.09 107.05 138.76 105.73 135.49 107.44 C 132.83 108.66 131.31 111.35 129.23 113.28 C 128.79 118.65 129.59 124.13 132.53 128.74 C 133.26 128.13 133.97 127.52 134.67 126.89 C 134.15 125.59 133.64 124.29 133.16 122.98 C 134.38 125.08 134.95 127.43 134.97 129.86 C 135.46 130.17 136.46 130.80 136.95 131.11 C 136.96 129.51 137.01 127.91 137.10 126.31 C 138.55 127.41 138.95 129.04 138.60 130.79 C 139.45 130.67 141.15 130.43 142.00 130.31 C 142.59 129.97 143.77 129.29 144.36 128.95 C 145.89 130.26 146.93 131.96 147.62 133.84 C 145.20 133.36 142.76 132.52 140.27 132.82 C 138.70 134.00 137.31 135.41 135.71 136.57 C 134.89 135.19 135.94 134.11 136.75 133.09 C 132.61 130.81 127.91 129.73 123.19 129.99 C 123.40 131.06 123.61 132.13 123.81 133.21 C 121.73 130.86 120.51 127.90 118.43 125.56 C 114.27 121.58 110.44 116.69 109.17 110.97 C 109.62 106.68 109.88 102.39 109.56 98.08 C 108.35 96.84 106.78 96.08 105.30 95.25 C 101.95 97.59 98.51 99.85 95.60 102.75 C 95.10 102.01 94.64 101.25 94.22 100.48 C 97.53 98.23 100.95 96.12 103.99 93.50 C 106.74 93.60 109.29 94.58 111.60 96.01 C 114.08 94.79 116.50 93.48 118.98 92.29 C 115.04 92.52 111.08 92.38 107.14 92.72 L 107.03 91.31 C 109.95 90.40 112.97 89.72 116.06 89.92 C 116.07 89.71 116.11 89.30 116.13 89.09 L 118.18 89.24 C 115.42 85.19 109.33 86.44 107.03 81.83 C 104.28 80.78 101.68 79.38 99.58 77.28 C 96.24 73.61 90.71 75.08 86.65 76.60 C 85.33 78.45 84.00 80.29 82.70 82.15 C 83.38 82.27 84.76 82.53 85.45 82.65 C 84.78 82.99 83.44 83.67 82.76 84.01 C 86.18 85.31 89.94 82.63 93.12 84.62 C 89.86 86.22 85.95 87.49 82.51 85.63 C 78.35 83.49 73.79 80.92 68.94 82.02 C 60.91 84.99 57.46 95.59 61.63 102.93 C 61.61 103.44 61.56 104.46 61.54 104.97 C 63.86 105.27 66.00 106.03 65.45 108.96 C 62.16 108.55 59.35 106.76 57.55 103.99 C 57.57 103.45 57.61 102.36 57.63 101.82 C 53.05 99.88 50.09 95.82 46.52 92.59 C 44.67 90.89 42.85 93.64 41.29 94.49 C 39.63 95.36 40.61 97.49 40.29 98.95 C 42.72 100.37 45.10 101.90 47.65 103.11 C 47.01 103.63 46.36 104.14 45.71 104.66 C 45.19 109.75 44.75 114.87 44.64 119.99 C 45.31 125.74 48.39 131.43 46.54 137.28 C 43.75 138.09 40.92 139.12 37.96 138.82 C 34.90 138.73 32.80 136.14 30.06 135.12 C 26.06 133.58 21.61 132.57 18.40 129.54 C 17.24 127.80 17.08 125.44 17.51 123.44 C 18.97 121.39 21.42 120.19 23.91 120.03 C 27.10 119.69 30.12 118.53 33.29 118.05 C 33.92 115.09 34.80 112.17 34.95 109.13 C 35.49 102.71 33.44 96.34 34.39 89.92 C 35.15 84.30 35.88 78.62 37.31 73.12 C 39.33 69.59 44.20 68.15 48.03 69.08 C 51.82 70.02 56.16 70.41 58.80 73.66 C 59.29 73.70 60.29 73.78 60.79 73.82 C 60.94 70.62 60.43 67.32 61.31 64.20 C 62.44 62.37 64.25 61.02 66.09 59.96 C 71.46 58.88 77.34 60.10 81.85 63.23 C 85.99 66.03 90.38 68.55 93.88 72.19 C 95.17 73.82 97.28 73.86 99.18 73.97 C 101.73 76.94 105.30 78.45 108.59 80.31 C 110.84 83.97 115.59 83.74 118.59 86.40 C 119.47 87.98 119.94 89.74 120.51 91.44 C 129.14 86.21 138.66 82.65 147.13 77.16 C 154.12 72.42 162.49 70.28 169.39 65.38 C 177.29 61.57 184.91 57.21 192.63 53.05 C 192.63 51.92 192.64 50.79 192.64 49.66 C 196.05 47.86 199.41 43.87 203.61 45.80 C 201.28 39.78 201.33 32.68 203.82 26.71 C 205.23 22.94 209.27 21.56 212.45 19.67 M 205.31 27.27 C 202.31 33.05 203.94 39.61 204.45 45.74 C 205.98 47.01 207.51 48.28 209.02 49.57 C 211.19 47.65 214.82 46.90 215.48 43.70 C 212.47 44.44 209.73 45.91 206.79 46.86 C 208.11 43.70 211.87 43.06 214.50 41.34 C 215.61 42.91 217.44 44.52 216.64 46.66 C 214.18 49.30 209.27 49.31 208.22 53.12 C 210.03 57.41 213.81 60.71 217.63 63.26 C 220.04 65.07 223.10 64.40 225.80 63.80 C 231.45 49.75 226.01 31.75 212.45 24.43 C 210.91 23.67 213.86 22.15 214.57 23.47 C 221.50 27.39 225.95 34.68 228.31 42.11 C 230.05 48.24 231.45 55.46 227.71 61.15 C 228.20 61.65 228.70 62.14 229.21 62.63 C 235.51 56.79 235.29 46.93 232.43 39.44 C 229.49 30.75 223.02 21.61 212.98 21.20 C 210.20 22.87 206.60 23.98 205.31 27.27 M 232.00 33.77 C 232.16 34.45 232.48 35.81 232.64 36.49 C 236.79 34.11 241.08 31.97 245.39 29.88 C 244.71 29.23 244.02 28.59 243.34 27.95 C 239.69 30.14 235.91 32.10 232.00 33.77 M 165.36 74.37 C 155.66 80.03 145.66 85.14 135.89 90.68 C 134.30 91.60 132.68 92.56 131.46 93.96 C 135.53 94.52 139.66 93.46 143.77 93.54 C 144.46 94.07 145.06 94.69 145.58 95.40 C 146.74 96.21 147.85 97.09 148.98 97.95 C 154.26 97.79 158.88 100.17 163.09 103.11 C 166.91 104.65 169.53 108.89 174.05 108.41 C 176.20 101.35 181.12 94.99 187.75 91.64 C 188.31 87.93 188.44 84.09 189.76 80.55 C 192.33 75.06 195.16 69.43 195.68 63.31 C 194.36 62.32 192.88 61.58 191.45 60.77 C 182.37 64.56 174.17 70.04 165.36 74.37 M 63.42 62.55 C 61.27 66.57 63.91 70.99 62.34 75.16 C 65.05 76.47 68.39 77.28 69.72 80.30 C 73.27 80.26 76.84 80.54 80.21 81.75 C 81.59 80.00 82.90 78.16 84.53 76.63 C 87.06 75.13 90.07 74.74 92.92 74.22 C 90.41 71.27 87.96 67.99 84.14 66.69 C 77.82 63.57 70.57 59.14 63.42 62.55 M 41.73 71.74 C 38.64 74.05 37.46 78.22 37.33 81.93 C 37.14 88.27 36.31 94.59 36.39 100.94 C 36.35 105.73 38.40 110.18 39.00 114.89 C 38.38 113.86 37.13 111.79 36.50 110.76 C 36.43 113.54 35.55 116.17 34.54 118.73 C 29.49 121.45 23.81 122.33 18.22 123.18 C 18.70 127.27 21.80 130.08 25.50 131.42 C 31.68 133.62 38.08 138.42 44.84 135.45 C 45.46 128.51 43.38 121.80 42.76 114.95 C 42.41 111.16 43.62 107.44 43.35 103.65 C 41.93 102.34 40.22 101.42 38.78 100.14 C 38.30 98.15 38.58 96.00 39.05 94.02 C 40.40 91.79 43.32 91.41 45.41 90.10 C 49.59 92.40 52.95 95.82 56.87 98.50 C 56.95 95.14 56.76 91.50 58.75 88.58 C 60.95 84.65 64.99 82.28 69.07 80.71 C 63.36 77.78 57.63 74.89 52.06 71.71 C 48.91 69.85 45.01 70.84 41.73 71.74 M 70.51 97.45 C 66.38 103.42 67.25 111.19 68.70 117.90 C 71.61 117.49 74.10 115.86 76.72 114.66 C 76.73 113.99 76.75 112.67 76.76 112.00 C 76.93 112.29 77.27 112.86 77.44 113.14 C 79.87 113.70 82.21 115.89 81.63 118.57 C 79.88 120.47 75.80 120.69 76.45 124.02 C 76.21 123.59 75.72 122.72 75.48 122.29 C 74.04 123.04 72.60 123.80 71.16 124.56 C 75.07 129.56 79.12 135.92 86.03 136.63 C 90.21 135.89 95.35 134.48 96.81 129.92 C 100.20 119.93 97.09 108.49 90.44 100.54 C 87.42 96.45 82.73 94.03 77.77 93.26 C 75.35 94.62 72.48 95.42 70.51 97.45 M 122.63 97.11 C 126.25 97.99 129.75 99.32 132.98 101.19 C 133.33 99.66 133.67 98.12 133.99 96.59 C 132.29 95.81 130.63 94.91 128.83 94.37 C 126.62 94.90 124.69 96.21 122.63 97.11 M 134.69 97.93 C 134.66 99.50 134.67 101.06 134.50 102.62 C 129.24 103.05 125.10 98.31 119.81 98.65 C 116.96 99.70 114.37 101.32 111.69 102.71 C 111.59 105.08 111.45 107.45 111.27 109.82 L 112.55 109.34 C 111.89 112.25 112.57 115.23 114.60 117.46 C 117.71 120.83 119.43 125.17 122.52 128.57 C 124.91 127.87 127.34 127.31 129.80 126.91 C 126.54 121.84 126.91 114.44 130.69 109.64 C 133.97 106.46 137.97 103.99 142.57 103.39 C 143.80 101.22 145.79 99.72 147.99 98.61 C 144.45 96.90 140.78 95.27 136.77 95.22 C 136.08 96.12 135.38 97.02 134.69 97.93 M 198.34 97.39 C 197.37 99.22 196.36 101.08 196.11 103.17 C 195.28 103.59 196.05 106.99 197.05 105.14 C 198.20 102.20 199.41 99.28 200.70 96.39 C 200.11 96.64 198.93 97.14 198.34 97.39 M 54.54 111.03 C 53.91 120.68 55.27 130.34 54.30 139.99 C 54.59 148.72 53.71 157.49 54.49 166.21 C 49.48 168.53 44.18 170.16 39.23 172.63 C 39.21 175.59 39.23 178.55 39.30 181.51 C 41.40 182.07 43.50 182.61 45.62 183.09 C 45.70 182.60 45.86 181.60 45.94 181.11 C 46.11 181.55 46.44 182.45 46.60 182.89 C 54.29 179.67 61.39 175.10 69.37 172.56 C 69.39 173.10 69.42 174.19 69.43 174.74 C 92.29 182.68 115.35 189.93 138.25 197.70 C 140.40 196.22 142.54 194.72 144.74 193.32 C 142.79 184.35 144.69 175.16 145.61 166.22 C 142.66 162.79 137.74 162.78 133.85 161.02 C 134.39 169.95 134.35 178.91 134.47 187.85 C 124.32 184.80 114.25 181.51 104.11 178.42 C 95.10 175.02 85.99 171.62 76.46 169.98 C 76.45 169.22 76.44 168.45 76.43 167.69 C 80.36 166.89 83.95 165.07 87.46 163.19 C 87.21 160.71 87.39 157.99 86.11 155.76 C 83.06 154.28 79.65 154.20 76.41 155.01 C 72.67 158.10 67.96 159.54 63.80 161.93 C 63.57 151.23 62.65 140.51 63.57 129.82 C 63.90 129.59 64.57 129.12 64.90 128.88 C 65.10 129.65 65.48 131.19 65.68 131.96 C 66.93 131.62 68.19 131.27 69.45 130.92 C 69.95 128.96 70.48 127.00 70.89 125.01 C 66.67 126.90 62.56 128.98 58.59 131.35 C 57.08 129.88 55.37 128.22 55.92 125.88 C 58.30 124.19 61.05 123.12 63.58 121.69 C 63.95 119.90 64.34 118.12 64.75 116.35 C 61.28 114.69 57.83 113.00 54.54 111.03 M 60.04 125.16 C 60.52 126.08 61.01 127.00 61.50 127.93 C 67.42 123.85 74.17 121.20 80.13 117.24 L 79.26 115.98 C 72.35 117.73 66.81 122.88 60.04 125.16 M 65.48 120.14 C 66.79 121.10 68.22 118.73 67.03 117.80 C 65.61 116.68 64.45 119.16 65.48 120.14 M 58.12 126.57 C 57.25 127.76 57.50 128.46 58.85 128.66 C 59.70 127.47 59.46 126.77 58.12 126.57 M 143.97 152.21 C 141.33 152.54 138.74 153.36 136.07 153.38 C 132.55 152.68 129.15 150.96 125.47 151.73 C 124.36 151.19 123.26 150.65 122.16 150.13 C 122.68 150.52 123.72 151.32 124.24 151.72 C 127.32 152.57 130.06 154.30 132.65 156.14 C 136.76 159.15 141.63 160.85 145.85 163.70 C 149.91 163.72 154.10 164.35 158.02 163.01 C 161.76 161.85 164.39 158.77 167.77 156.98 C 170.40 155.64 172.97 154.16 175.21 152.22 C 169.81 152.86 163.33 151.82 160.97 146.20 C 156.04 150.07 149.41 149.45 143.97 152.21 Z" />
<path fill="#333333" opacity="1.00" d=" M 66.86 71.12 C 71.05 69.69 76.76 68.20 80.00 72.20 C 75.65 71.50 71.22 71.70 66.86 71.12 Z" />
<path fill="#333333" opacity="1.00" d=" M 66.49 74.33 C 69.05 75.02 71.64 75.59 74.26 75.99 C 74.36 76.42 74.55 77.28 74.65 77.71 C 71.77 77.26 68.91 76.70 66.05 76.11 C 66.16 75.66 66.38 74.77 66.49 74.33 Z" />
<path fill="#333333" opacity="1.00" d=" M 39.27 85.60 C 40.99 85.05 42.69 84.46 44.37 83.81 C 45.96 85.52 47.48 87.35 49.47 88.61 C 51.28 89.93 53.87 90.67 54.26 93.22 C 49.80 91.94 46.47 88.69 43.10 85.72 C 42.14 85.69 40.23 85.63 39.27 85.60 Z" />
<path fill="#333333" opacity="1.00" d=" M 89.27 89.58 C 91.22 91.98 93.63 89.88 95.89 89.41 C 97.46 88.71 99.04 89.43 100.48 90.05 C 96.44 91.75 91.88 90.65 87.91 92.49 C 88.36 91.52 88.81 90.55 89.27 89.58 Z" />
<path fill="#333333" opacity="1.00" d=" M 76.41 94.67 C 79.31 95.34 81.89 96.96 83.68 99.35 C 90.43 106.44 94.23 116.18 94.06 125.97 C 91.13 123.16 92.09 118.80 90.79 115.27 C 89.39 109.16 85.61 103.99 81.39 99.52 C 79.68 97.91 76.80 97.35 76.41 94.67 Z" />
<path fill="#333333" opacity="1.00" d=" M 118.57 108.06 C 122.08 107.01 124.90 103.99 128.77 104.25 C 129.04 104.74 129.59 105.73 129.87 106.22 C 128.99 106.28 127.25 106.41 126.38 106.47 C 126.04 106.85 125.37 107.62 125.03 108.01 C 122.74 108.70 120.45 109.42 118.16 110.11 C 118.26 109.60 118.47 108.57 118.57 108.06 Z" />
<path fill="#333333" opacity="1.00" d=" M 120.16 113.99 C 121.11 113.32 122.12 112.73 123.13 112.15 C 123.19 112.82 123.30 114.17 123.36 114.84 C 122.25 114.70 121.18 114.42 120.16 113.99 Z" />
<path fill="#333333" opacity="1.00" d=" M 120.67 116.60 C 121.15 116.47 122.11 116.22 122.59 116.09 C 122.46 117.53 122.33 118.97 122.20 120.42 C 121.73 120.46 120.77 120.56 120.29 120.60 C 120.41 119.26 120.53 117.93 120.67 116.60 Z" />
<path fill="#333333" opacity="1.00" d=" M 40.05 119.48 C 40.68 119.66 41.32 119.86 41.94 120.08 C 41.98 123.08 41.75 126.08 41.35 129.05 C 40.44 127.80 39.67 126.46 38.80 125.19 C 36.86 123.89 35.66 126.93 34.06 127.62 C 33.09 126.89 32.12 126.16 31.16 125.43 C 33.84 124.84 36.59 124.35 39.05 123.06 C 39.77 122.06 40.10 120.87 40.05 119.48 Z" />
<path fill="#333333" opacity="1.00" d=" M 92.06 124.99 C 94.36 127.14 93.30 130.14 93.07 132.88 C 92.35 133.35 90.90 134.29 90.18 134.76 C 90.98 131.54 91.96 128.34 92.06 124.99 Z" />
<path fill="#333333" opacity="1.00" d=" M 124.94 132.58 C 126.28 133.43 127.99 133.96 128.80 135.45 C 127.47 135.50 126.14 135.51 124.81 135.50 C 124.84 134.53 124.88 133.54 124.94 132.58 Z" />
<path fill="#333333" opacity="1.00" d=" M 143.66 136.54 C 148.03 136.66 149.43 142.36 147.47 145.62 C 146.62 142.42 145.40 139.35 143.66 136.54 Z" />
<path fill="#333333" opacity="1.00" d=" M 130.35 140.64 C 134.12 140.14 134.95 144.13 135.36 146.92 C 134.03 146.51 132.64 146.29 131.37 145.72 C 131.68 145.09 132.16 144.56 132.83 144.14 C 132.21 143.27 130.97 141.51 130.35 140.64 Z" />
</g>
</svg>
