<?xml version="1.0" encoding="UTF-8" ?>
<!DOCTYPE svg PUBLIC "-//W3C//DTD SVG 1.1//EN" "http://www.w3.org/Graphics/SVG/1.1/DTD/svg11.dtd">
<svg width="263pt" height="275pt" viewBox="0 0 263 275" version="1.1" xmlns="http://www.w3.org/2000/svg"><g id="#444844ff">
<path fill="#333333" opacity="1.00" d=" M 172.44 0.00 L 174.12 0.00 C 169.94 7.03 170.39 15.35 169.07 23.13 C 173.29 21.81 177.53 20.51 181.86 19.55 C 182.47 21.78 183.88 24.24 182.44 26.47 C 173.09 29.30 163.73 32.28 154.21 34.45 C 153.01 35.14 152.64 34.07 152.23 33.22 C 162.22 30.21 172.50 28.03 182.28 24.37 C 181.92 23.71 181.20 22.40 180.84 21.75 C 171.25 23.98 161.93 27.21 152.40 29.71 C 151.25 28.80 150.17 27.80 148.90 27.06 C 145.94 27.15 143.00 28.11 140.45 29.61 C 139.18 31.08 138.51 32.96 137.64 34.68 C 137.90 36.46 138.14 38.24 138.38 40.02 C 139.73 39.89 141.08 39.76 142.43 39.63 C 143.83 41.91 145.79 44.15 145.83 46.97 C 146.16 54.82 141.66 61.73 140.83 69.42 C 142.94 68.35 145.17 67.69 147.51 67.44 C 144.70 70.33 140.67 72.12 138.85 75.89 C 137.36 78.75 136.34 81.81 135.02 84.74 C 135.84 85.70 136.64 86.68 137.44 87.67 C 137.83 87.98 138.61 88.59 139.01 88.89 C 138.20 89.02 136.58 89.26 135.77 89.38 C 134.93 88.21 134.11 87.03 133.29 85.85 C 124.29 89.39 115.04 92.33 106.16 96.17 C 104.02 97.60 102.28 99.54 100.27 101.13 C 102.10 103.60 103.71 106.22 105.18 108.92 C 104.87 109.16 104.26 109.65 103.95 109.89 C 100.51 104.46 95.53 100.21 90.05 96.92 C 85.44 93.58 80.08 91.40 74.56 90.08 C 73.18 90.54 71.78 90.96 70.37 91.32 C 72.11 89.11 74.76 88.48 77.44 88.42 C 76.57 84.02 76.11 79.33 73.34 75.62 C 71.03 71.60 66.49 67.81 68.01 62.70 C 67.96 62.08 67.87 60.84 67.82 60.22 L 68.81 63.19 C 69.91 59.61 71.57 56.26 73.28 52.93 C 72.10 50.60 70.41 48.56 69.03 46.34 C 63.92 46.01 59.94 49.28 55.58 51.33 C 54.90 52.79 54.20 54.24 53.48 55.69 C 55.23 55.24 56.98 54.82 58.73 54.41 C 58.65 54.94 58.47 56.00 58.38 56.53 C 51.67 58.23 45.14 60.68 38.28 61.76 C 38.42 62.67 38.71 64.51 38.85 65.42 C 45.66 63.32 52.48 61.16 59.48 59.79 C 58.64 61.10 57.56 62.33 55.97 62.68 C 50.36 64.23 44.76 65.83 39.17 67.43 C 40.20 77.63 39.50 89.94 30.94 96.95 C 26.75 97.12 22.08 99.49 18.20 96.91 C 11.55 92.98 8.73 85.30 6.50 78.32 L 7.69 77.92 C 7.05 77.54 6.40 77.17 5.75 76.80 C 3.83 77.40 1.91 77.95 0.00 78.56 L 0.00 76.39 C 5.83 74.62 11.80 73.34 17.55 71.32 C 19.61 71.07 17.76 66.72 16.12 68.42 C 10.77 70.00 5.38 71.48 0.00 72.95 L 0.00 71.05 C 1.62 70.54 3.26 70.12 4.90 69.71 C 4.93 60.57 4.92 49.85 11.92 42.99 C 16.08 40.34 21.87 38.53 26.41 41.41 C 32.99 45.51 36.07 53.23 38.05 60.39 C 42.87 58.61 47.86 57.38 52.81 56.03 C 52.67 54.22 52.49 52.41 52.25 50.61 C 57.21 48.32 61.97 45.30 67.46 44.48 C 69.35 45.69 71.27 46.84 73.19 47.98 C 73.28 48.51 73.45 49.57 73.53 50.10 C 93.70 44.23 113.97 38.72 134.13 32.84 C 136.03 27.43 142.17 26.44 146.99 25.06 C 149.63 24.08 151.90 25.70 153.76 27.37 C 158.70 26.11 163.52 24.41 168.52 23.35 C 167.64 15.43 168.53 7.06 172.44 0.00 M 74.64 51.83 C 74.64 52.76 74.63 54.63 74.63 55.56 C 79.62 53.58 84.86 52.37 90.01 50.90 C 105.87 46.58 121.59 41.76 137.46 37.47 C 137.44 36.61 137.40 34.90 137.38 34.05 C 116.52 40.17 95.53 45.82 74.64 51.83 M 106.91 48.48 C 96.00 50.69 85.60 54.90 74.68 57.06 C 74.63 57.55 74.53 58.54 74.48 59.03 C 72.99 60.22 70.95 61.08 70.08 62.83 C 69.49 67.79 72.99 71.71 75.23 75.76 C 77.30 79.28 79.07 83.01 79.93 87.02 C 80.65 90.60 84.88 91.24 87.49 92.93 C 86.26 86.38 86.24 78.30 92.00 73.78 C 96.64 69.87 103.15 71.94 108.17 73.93 C 111.42 76.14 116.42 77.57 117.14 81.98 C 117.09 84.37 116.72 86.74 116.86 89.13 C 122.28 88.13 127.46 85.98 132.40 83.56 C 135.46 79.73 137.17 75.18 139.50 70.92 C 139.96 65.04 139.90 58.87 142.72 53.52 C 144.27 50.62 145.04 46.94 143.41 43.91 C 142.09 41.80 139.38 42.38 137.28 41.95 C 136.99 41.43 136.42 40.39 136.13 39.87 C 126.37 42.68 116.56 45.32 106.91 48.48 M 12.57 44.56 C 8.97 48.51 7.37 53.86 6.85 59.08 C 6.42 62.52 6.86 66.11 5.41 69.36 C 9.66 68.15 13.94 67.02 18.17 65.70 C 19.21 67.80 19.90 70.04 20.40 72.32 C 16.53 74.02 12.43 75.14 8.29 75.97 C 8.09 76.28 7.70 76.88 7.50 77.18 C 10.23 82.94 11.82 89.77 17.25 93.75 C 20.82 96.95 25.90 95.41 30.07 94.52 C 33.18 92.72 34.86 89.24 35.99 85.96 C 39.77 73.76 37.97 59.90 31.29 49.03 C 29.12 45.20 25.16 43.11 21.29 41.40 C 18.39 42.46 14.95 42.42 12.57 44.56 M 89.01 84.97 C 89.27 87.80 89.14 90.69 87.87 93.29 C 91.75 95.12 95.74 96.89 98.89 99.91 C 100.88 98.56 102.63 96.92 104.33 95.23 C 107.28 92.21 111.49 91.10 115.36 89.78 C 114.83 87.33 114.70 84.82 115.38 82.39 C 110.80 78.78 106.39 73.40 99.94 74.07 C 93.71 72.94 89.45 79.50 89.01 84.97 Z" />
<path fill="#333333" opacity="1.00" d=" M 184.63 0.00 L 187.41 0.00 C 193.92 8.12 195.91 18.83 196.19 28.97 C 195.85 35.05 195.21 41.60 191.45 46.63 L 190.94 47.00 C 190.39 47.74 189.92 48.53 189.53 49.38 C 196.81 48.49 199.68 40.74 200.77 34.50 C 202.05 22.63 200.56 9.47 192.66 0.00 L 196.05 0.00 L 195.32 0.01 C 198.13 4.45 200.20 9.34 201.37 14.46 C 206.34 11.99 211.83 10.96 217.18 9.63 C 217.94 11.62 218.82 13.63 218.83 15.80 C 213.64 17.98 208.07 19.13 202.63 20.57 C 203.58 29.68 202.91 39.75 197.51 47.47 C 194.84 51.63 189.44 51.44 185.10 51.76 C 179.34 50.82 175.72 45.50 173.22 40.68 C 171.79 37.45 169.71 33.95 170.73 30.29 C 173.09 35.48 174.47 41.30 178.51 45.53 C 180.92 48.64 184.86 49.59 188.62 49.47 C 189.18 47.78 189.75 46.09 190.65 44.55 C 194.40 37.70 194.75 29.58 193.87 21.98 C 192.99 14.02 190.38 5.82 184.63 0.00 M 201.78 15.44 C 201.87 16.51 202.04 18.65 202.13 19.71 C 206.91 17.10 212.44 16.44 217.56 14.73 C 216.94 13.62 216.29 12.52 215.58 11.46 C 211.08 13.10 206.40 14.20 201.78 15.44 Z" />
<path fill="#333333" opacity="1.00" d=" M 154.15 37.99 C 153.68 36.33 155.15 35.11 156.51 34.62 C 155.88 42.33 156.83 50.02 158.06 57.62 C 157.89 61.75 156.26 65.73 156.40 69.91 C 156.79 74.19 153.67 77.79 153.69 82.06 C 153.69 87.93 151.51 93.49 148.17 98.24 C 151.29 102.56 153.22 107.65 153.26 113.01 C 156.37 115.51 159.20 118.33 162.34 120.78 C 164.74 122.83 168.09 122.75 170.81 124.14 C 172.52 125.36 172.62 127.55 172.62 129.45 C 174.89 129.38 177.10 129.82 179.25 130.51 C 184.49 131.45 189.92 131.95 194.84 134.12 C 196.35 134.84 196.96 136.44 197.11 138.01 C 199.51 137.05 203.38 135.28 204.56 138.83 C 207.50 140.06 210.38 141.45 213.26 142.81 C 218.56 145.15 222.15 149.88 226.53 153.48 C 229.95 156.40 230.03 161.88 227.19 165.24 C 224.93 167.76 223.96 171.16 221.56 173.57 C 219.58 175.62 218.11 178.06 216.61 180.46 C 214.54 183.82 211.55 186.44 209.03 189.43 C 213.10 190.17 214.49 194.36 216.90 197.12 C 218.72 199.43 221.89 199.99 223.88 202.10 C 225.55 203.75 224.08 206.17 223.90 208.12 C 223.52 210.95 219.98 211.22 217.91 212.41 C 213.49 210.72 209.64 207.92 205.61 205.49 C 205.28 206.98 204.91 208.61 203.51 209.45 C 199.24 212.97 194.73 216.17 189.94 218.93 C 181.47 224.59 173.16 230.51 165.19 236.85 C 167.16 239.74 167.06 243.72 169.78 246.13 C 172.21 248.82 176.61 249.24 178.08 252.86 C 172.43 250.97 166.95 247.62 164.26 242.09 C 161.94 237.01 159.65 231.74 159.10 226.13 C 159.55 221.11 162.68 217.00 164.41 212.40 C 166.45 208.11 167.29 203.37 169.30 199.06 C 170.62 196.16 172.98 193.84 174.11 190.85 C 175.04 186.81 172.06 183.53 170.99 179.87 C 169.79 176.91 170.70 173.58 169.56 170.63 C 167.98 167.68 165.65 164.64 162.10 164.17 C 156.32 164.62 151.60 168.99 149.18 174.03 C 149.15 177.02 151.65 179.37 153.30 181.69 C 156.47 185.16 158.43 189.48 160.51 193.64 C 159.95 193.64 158.84 193.66 158.29 193.66 C 152.78 200.45 149.33 209.23 149.75 218.04 C 149.74 226.42 146.25 234.19 143.85 242.06 C 142.79 244.78 146.12 246.00 147.91 247.16 C 150.73 248.53 153.54 251.05 156.78 250.81 C 154.83 245.64 154.08 240.14 153.15 234.72 C 156.05 235.49 155.61 239.16 156.48 241.44 C 156.96 244.93 158.80 248.90 157.16 252.24 C 156.53 253.52 157.92 254.57 158.61 255.48 C 161.04 258.01 164.73 258.25 168.02 258.54 C 172.44 259.04 176.27 256.14 179.36 253.35 C 177.46 260.45 168.61 263.12 162.21 261.03 C 157.25 258.88 153.97 254.43 150.02 250.95 C 147.20 248.80 142.89 247.89 141.73 244.11 C 141.27 240.47 143.50 237.25 144.64 233.94 C 148.24 225.76 146.43 216.61 148.04 208.05 C 142.55 205.03 137.52 201.28 132.19 198.01 C 125.74 193.53 118.68 190.06 112.12 185.76 C 111.21 185.16 110.73 184.15 110.09 183.30 C 123.31 190.39 137.16 196.74 149.00 206.09 C 150.32 203.23 150.73 199.69 153.38 197.68 C 142.41 192.51 131.43 186.81 122.10 178.98 C 122.72 178.56 123.35 178.16 123.98 177.76 C 128.89 181.88 135.02 184.20 140.36 187.72 C 144.39 190.11 148.10 192.99 152.12 195.40 L 151.22 196.14 C 152.41 196.13 153.61 196.10 154.81 196.07 L 154.34 195.53 C 155.33 194.11 156.52 192.75 157.02 191.06 C 155.70 185.32 150.32 181.75 148.50 176.22 C 147.78 177.58 147.28 179.19 145.63 179.75 C 147.47 170.58 154.98 160.17 165.41 161.22 C 164.94 156.95 166.06 152.12 169.01 148.87 C 174.32 144.32 180.40 140.59 187.09 138.48 C 189.78 138.57 192.11 140.21 193.56 142.40 C 194.59 140.98 195.69 139.61 196.81 138.26 C 189.26 133.89 180.64 132.03 172.08 130.94 C 170.31 129.73 170.84 127.06 170.01 125.28 C 167.43 124.08 164.50 124.18 161.84 125.03 C 161.15 123.77 160.47 122.50 159.78 121.24 C 159.72 123.79 159.54 126.48 157.06 127.97 C 159.37 127.19 161.81 126.69 164.22 127.26 C 160.55 128.33 156.65 129.04 153.46 131.27 C 150.38 133.47 148.07 136.52 145.40 139.16 C 145.72 140.87 146.04 142.57 146.39 144.27 C 145.51 145.77 144.52 147.23 143.19 148.36 C 143.30 146.12 144.76 143.74 143.57 141.59 C 142.86 142.30 142.16 143.01 141.46 143.73 C 142.32 141.58 143.21 139.43 143.98 137.24 C 146.74 135.63 148.79 133.12 151.03 130.89 C 145.19 133.13 140.53 138.11 138.58 144.05 C 137.96 144.18 136.72 144.44 136.10 144.57 C 138.52 147.63 139.60 151.41 141.48 154.77 C 140.73 157.04 140.69 159.52 139.77 161.72 C 137.10 161.28 138.83 156.74 138.83 154.83 C 138.20 154.17 137.56 153.51 136.92 152.85 C 136.84 151.74 136.77 150.62 136.69 149.51 C 135.92 147.91 134.26 146.18 135.40 144.28 C 131.04 141.55 126.41 138.96 123.33 134.70 C 116.91 131.32 109.84 129.11 103.09 126.39 C 103.48 129.44 103.54 132.53 104.21 135.54 C 103.48 135.04 102.75 134.56 102.01 134.08 C 101.90 131.21 102.20 128.29 101.55 125.47 C 99.58 123.62 97.87 120.96 94.96 120.62 C 89.70 119.91 84.73 117.66 80.63 114.32 C 77.35 111.32 75.03 107.38 71.42 104.73 C 68.97 102.72 66.13 101.23 63.82 99.05 C 62.95 96.78 63.61 94.08 62.34 91.92 C 60.85 89.33 59.09 86.83 58.25 83.93 C 57.59 81.30 57.52 78.55 56.66 75.97 C 55.26 72.04 55.05 67.65 52.32 64.30 C 53.57 64.05 54.82 63.81 56.07 63.58 C 56.93 69.52 59.95 74.91 60.37 80.93 C 60.94 87.30 67.12 91.94 66.33 98.59 C 69.59 100.24 72.95 101.87 75.56 104.50 C 79.12 107.66 80.92 112.54 85.26 114.85 C 90.22 117.33 95.90 116.93 101.28 117.21 C 101.14 118.98 100.82 121.26 102.41 122.55 C 105.57 125.55 110.25 125.69 113.80 128.06 C 116.54 129.86 119.88 130.04 123.03 130.43 C 123.51 131.75 124.00 133.13 125.30 133.86 C 129.34 136.76 133.23 139.89 137.47 142.50 C 139.27 139.25 141.35 136.15 144.03 133.55 C 141.08 127.91 135.23 124.77 131.62 119.64 C 137.64 122.00 142.09 126.79 145.69 132.00 C 150.03 129.51 155.42 128.75 158.49 124.34 C 155.52 120.42 153.05 116.16 149.97 112.32 C 153.04 108.11 149.76 103.06 145.95 100.74 C 145.85 100.25 145.65 99.28 145.55 98.79 C 144.72 98.26 143.88 97.73 143.05 97.20 C 143.83 97.38 145.39 97.73 146.17 97.91 C 150.80 92.00 150.17 84.20 152.68 77.45 C 153.47 75.07 153.93 72.58 153.85 70.06 C 153.69 65.34 155.73 60.80 155.26 56.08 C 154.26 50.11 154.06 44.03 154.15 37.99 M 193.69 146.47 C 193.41 150.75 193.28 155.07 193.65 159.35 C 199.39 161.48 205.64 163.41 211.80 162.18 C 214.05 163.76 216.51 165.05 219.28 165.37 C 218.59 166.04 217.91 166.70 217.22 167.36 C 215.49 166.61 213.77 165.84 212.05 165.07 C 209.92 167.87 207.47 170.41 205.14 173.05 C 202.84 175.47 204.31 179.16 202.81 181.91 C 201.78 183.93 200.88 186.01 199.96 188.08 C 198.61 191.54 195.10 193.32 192.55 195.77 C 192.99 196.36 193.45 196.94 193.91 197.52 C 198.30 196.17 203.15 197.58 206.54 200.56 C 206.06 201.78 205.58 203.01 205.12 204.24 C 209.18 205.10 212.59 207.64 216.09 209.74 C 217.66 209.34 219.25 209.02 220.78 208.47 C 221.39 206.78 221.57 204.98 221.94 203.24 C 218.63 201.39 215.22 199.34 213.39 195.88 C 211.95 193.11 210.01 190.62 207.23 189.11 C 208.73 186.70 210.46 184.45 212.41 182.40 C 215.55 179.05 217.06 174.54 220.29 171.27 C 222.48 168.94 223.58 165.86 225.53 163.35 C 227.73 160.57 226.98 156.13 224.06 154.13 C 220.30 151.13 217.48 146.87 212.94 144.94 C 208.95 143.11 205.05 141.10 200.99 139.44 C 197.64 140.37 194.84 143.24 193.69 146.47 M 173.12 148.25 C 169.08 150.45 168.38 155.54 167.33 159.59 C 166.56 161.69 169.14 162.61 170.25 163.89 C 172.03 159.95 171.77 155.17 174.80 151.83 C 177.80 148.48 182.05 145.72 186.71 145.87 C 184.01 149.16 179.16 149.49 176.62 152.98 C 174.38 155.38 174.30 158.93 172.29 161.47 C 171.02 163.12 169.80 164.81 168.80 166.64 C 170.36 168.51 171.70 170.56 172.88 172.70 C 177.26 169.47 181.57 166.15 186.08 163.12 C 187.54 162.07 189.55 161.34 190.07 159.44 C 191.09 155.71 191.25 151.80 191.35 147.95 C 191.02 145.46 191.35 141.70 188.07 141.27 C 182.57 142.08 177.81 145.43 173.12 148.25 M 189.20 164.31 C 184.01 167.57 178.79 170.79 173.68 174.19 C 173.86 177.88 174.36 181.58 176.12 184.88 C 177.64 187.38 176.84 190.31 176.63 193.04 C 176.11 193.63 175.59 194.23 175.07 194.83 C 177.51 198.13 179.42 201.81 182.28 204.78 C 186.32 203.30 189.74 200.60 193.65 198.83 C 192.58 198.23 191.49 197.67 190.40 197.13 C 190.96 194.84 191.89 192.62 193.92 191.27 C 197.67 188.59 199.45 184.20 201.00 180.04 C 201.84 177.62 201.42 174.91 202.42 172.55 C 204.25 169.54 206.94 167.21 209.23 164.59 C 203.50 164.36 197.74 163.31 192.44 161.08 C 191.46 162.24 190.57 163.56 189.20 164.31 M 173.32 196.66 C 172.17 199.32 171.35 202.10 170.23 204.77 C 172.51 207.39 174.70 210.08 177.04 212.65 C 176.48 213.42 175.93 214.21 175.38 214.99 C 173.04 212.20 170.92 209.24 168.96 206.18 C 168.19 208.67 167.34 211.15 166.30 213.55 C 167.69 214.76 169.10 215.94 170.52 217.12 C 167.83 219.82 164.53 221.95 162.21 224.98 C 161.20 228.39 162.52 231.97 164.20 234.94 C 168.93 229.57 175.22 226.03 181.01 221.96 C 186.96 217.81 193.18 214.07 198.97 209.71 C 200.26 208.71 201.72 207.99 203.21 207.34 C 202.76 205.15 202.39 202.94 202.18 200.72 C 199.97 199.91 197.22 198.25 195.01 199.89 C 191.50 202.28 187.83 204.40 184.13 206.46 C 186.00 207.93 187.83 209.54 188.84 211.76 C 185.69 211.16 183.62 208.43 180.67 207.33 C 178.21 203.78 176.19 199.92 173.32 196.66 M 165.26 215.89 C 164.77 217.27 164.30 218.65 163.86 220.05 C 164.88 219.21 165.88 218.36 166.88 217.50 C 166.34 216.96 165.80 216.43 165.26 215.89 Z" />
<path fill="#333333" opacity="1.00" d=" M 19.14 44.02 C 22.21 43.27 23.89 46.34 25.46 48.39 C 32.00 58.49 33.96 71.24 32.01 83.01 C 31.03 86.99 30.45 92.23 26.07 93.93 C 32.40 82.35 32.23 68.02 27.45 55.92 C 25.86 51.21 22.38 47.64 19.14 44.02 Z" />
<path fill="#333333" opacity="1.00" d=" M 58.53 65.01 C 59.61 62.54 62.41 62.98 64.61 62.59 C 64.50 62.96 64.28 63.71 64.17 64.08 C 62.31 64.53 60.43 64.88 58.53 65.01 Z" />
<path fill="#333333" opacity="1.00" d=" M 144.45 79.28 C 146.00 76.74 147.60 74.21 149.60 71.99 C 149.49 73.78 149.17 75.59 148.15 77.11 C 145.60 81.20 144.13 85.83 142.08 90.17 C 142.52 86.49 142.45 82.54 144.45 79.28 Z" />
<path fill="#333333" opacity="1.00" d=" M 104.30 90.98 C 104.19 87.62 104.64 82.48 108.76 81.77 C 106.85 84.64 106.01 88.01 104.30 90.98 Z" />
<path fill="#333333" opacity="1.00" d=" M 128.01 93.28 C 130.67 92.37 133.53 92.56 136.29 92.34 C 133.47 93.72 130.52 94.75 127.48 95.51 C 126.82 96.30 126.21 97.11 125.64 97.96 C 121.12 98.79 117.04 100.78 113.81 104.08 C 114.48 100.71 117.76 99.14 120.50 97.66 C 123.11 96.38 125.22 94.21 128.01 93.28 Z" />
<path fill="#333333" opacity="1.00" d=" M 76.39 98.42 C 76.51 97.96 76.74 97.05 76.85 96.59 C 79.89 97.93 83.43 98.67 85.73 101.24 C 82.46 102.72 79.48 99.30 76.39 98.42 Z" />
<path fill="#333333" opacity="1.00" d=" M 133.19 98.69 C 137.32 98.31 141.33 100.95 142.83 104.77 C 144.10 107.31 144.62 110.12 145.35 112.85 C 146.09 115.72 149.99 116.83 149.87 120.05 C 147.94 118.36 146.29 116.38 144.64 114.42 C 142.13 111.71 142.71 107.63 140.74 104.59 C 140.13 104.21 138.89 103.46 138.27 103.09 L 137.20 104.23 C 137.64 103.17 138.72 102.65 139.52 101.90 C 136.13 100.61 132.52 100.77 128.97 100.64 C 128.52 102.49 128.66 104.37 129.41 106.13 C 127.16 107.56 127.43 112.38 124.29 111.72 C 124.45 109.72 125.44 107.96 126.67 106.43 C 126.48 104.69 126.19 102.94 126.17 101.18 C 127.63 99.97 129.55 99.61 131.32 99.07 C 131.96 99.56 132.61 100.05 133.26 100.54 L 133.19 98.69 Z" />
<path fill="#333333" opacity="1.00" d=" M 80.57 106.32 C 81.48 105.41 82.50 104.36 83.93 104.60 C 88.45 104.86 93.23 105.38 97.05 108.03 L 97.43 109.28 C 95.19 110.19 93.18 108.29 91.13 107.68 C 87.84 106.10 84.11 106.36 80.57 106.32 Z" />
<path fill="#333333" opacity="1.00" d=" M 111.68 113.20 C 114.74 110.59 118.73 110.02 122.52 109.19 C 122.53 109.94 122.55 111.44 122.56 112.19 C 121.36 111.56 120.50 109.76 118.95 110.24 C 117.25 111.43 115.63 112.74 113.89 113.87 C 115.81 116.98 117.94 119.98 119.47 123.31 C 117.56 122.28 115.97 120.77 114.77 118.96 C 112.74 115.53 107.84 115.45 105.98 111.85 C 108.02 111.58 109.89 112.39 111.68 113.20 Z" />
<path fill="#333333" opacity="1.00" d=" M 121.70 114.00 C 125.69 113.55 131.61 113.50 132.11 118.75 C 128.64 117.13 124.70 116.55 121.70 114.00 Z" />
<path fill="#333333" opacity="1.00" d=" M 106.74 128.55 C 114.52 133.92 120.47 141.38 126.85 148.24 C 130.29 152.83 134.76 156.70 137.49 161.79 L 137.90 162.14 C 139.08 162.84 140.46 163.31 141.45 164.31 C 142.53 167.54 143.69 170.74 145.00 173.89 C 140.81 172.26 140.79 167.14 137.52 164.58 C 132.98 160.32 129.03 155.48 125.30 150.51 C 122.16 146.43 117.82 143.48 114.61 139.47 C 112.76 142.84 115.43 146.40 115.57 149.88 C 115.85 155.17 116.73 160.38 117.61 165.60 C 120.98 163.26 124.43 161.05 127.99 159.02 C 128.08 160.38 127.66 161.73 126.48 162.52 C 123.89 164.63 120.88 166.13 117.98 167.75 C 114.80 167.77 115.64 164.03 114.89 161.96 C 113.74 157.40 113.93 152.66 113.03 148.07 C 112.46 145.16 112.30 142.18 112.60 139.22 L 110.94 138.78 C 111.74 138.94 113.36 139.28 114.16 139.45 C 111.66 135.91 106.99 133.26 106.74 128.55 Z" />
<path fill="#333333" opacity="1.00" d=" M 154.47 138.43 C 156.02 133.42 161.66 129.33 166.95 130.21 C 162.07 131.78 158.25 135.12 154.47 138.43 Z" />
<path fill="#333333" opacity="1.00" d=" M 157.02 138.97 C 160.43 136.15 164.89 135.39 168.79 133.53 C 168.04 135.07 167.45 137.00 165.58 137.47 C 160.97 139.04 156.79 141.53 152.74 144.20 C 153.06 141.76 155.36 140.47 157.02 138.97 Z" />
<path fill="#333333" opacity="1.00" d=" M 102.17 135.10 C 102.74 135.42 103.89 136.07 104.46 136.39 C 103.26 148.25 107.35 160.01 106.83 171.80 C 98.86 176.59 90.73 181.26 82.26 185.14 C 82.62 187.60 82.33 190.36 83.61 192.58 C 85.21 193.88 86.82 195.80 88.96 195.91 C 92.25 194.28 95.28 192.18 98.53 190.49 C 102.03 188.67 105.00 185.83 108.94 184.92 C 103.93 191.59 95.58 194.49 88.70 198.84 C 86.33 197.80 83.96 196.55 82.26 194.55 C 79.26 191.84 80.98 187.38 80.22 183.87 C 88.10 179.14 96.42 175.23 104.51 170.90 C 104.10 158.98 102.33 147.07 102.17 135.10 Z" />
<path fill="#333333" opacity="1.00" d=" M 202.03 153.07 C 204.22 153.98 205.86 155.72 206.96 157.80 C 204.06 158.26 203.16 155.04 202.03 153.07 Z" />
<path fill="#333333" opacity="1.00" d=" M 211.18 153.14 C 213.90 154.99 215.99 157.71 218.96 159.20 C 220.81 159.25 222.65 158.93 224.48 158.67 C 224.42 159.57 224.37 160.47 224.32 161.38 C 221.78 161.59 218.73 162.51 216.59 160.63 C 214.22 158.65 211.85 156.26 211.18 153.14 Z" />
<path fill="#333333" opacity="1.00" d=" M 120.84 175.83 C 125.24 172.88 130.03 170.54 134.57 167.82 C 134.37 168.55 133.98 170.03 133.78 170.76 C 130.56 173.14 126.94 174.92 123.67 177.22 C 122.47 177.00 118.51 177.98 120.84 175.83 Z" />
<path fill="#333333" opacity="1.00" d=" M 206.85 180.07 C 208.96 178.71 210.07 175.42 212.75 175.33 C 211.96 177.80 209.94 179.55 208.21 181.36 C 207.78 181.36 206.91 181.34 206.48 181.34 C 206.57 181.02 206.76 180.39 206.85 180.07 Z" />
<path fill="#333333" opacity="1.00" d=" M 165.33 189.24 C 166.20 187.30 166.91 185.13 168.75 183.88 C 168.43 185.95 168.33 189.57 165.33 189.24 Z" />
</g>
</svg>
