<?xml version="1.0" encoding="UTF-8" ?>
<!DOCTYPE svg PUBLIC "-//W3C//DTD SVG 1.1//EN" "http://www.w3.org/Graphics/SVG/1.1/DTD/svg11.dtd">
<svg width="237pt" height="250pt" viewBox="0 0 237 250" version="1.1" xmlns="http://www.w3.org/2000/svg"><g id="#1c1d1bff">
<path fill="#333333" opacity="1.00" d=" M 121.77 93.04 C 125.71 89.29 131.46 90.57 136.18 91.68 C 145.27 91.90 154.30 93.50 162.94 96.36 C 169.38 98.03 172.22 104.96 177.54 108.39 C 179.31 109.04 181.21 109.35 182.93 110.16 C 185.02 111.76 186.71 113.81 188.73 115.50 C 190.08 115.60 191.39 115.17 192.69 114.83 C 197.66 115.16 204.07 115.28 206.59 120.48 C 209.12 125.81 211.31 132.10 209.35 137.96 C 207.73 145.35 198.18 149.47 191.66 145.68 C 196.26 145.71 201.56 145.47 204.66 141.54 C 207.66 137.42 208.80 131.78 207.05 126.91 C 205.75 122.78 203.90 116.86 198.56 117.14 C 195.45 116.41 192.63 118.61 189.58 118.01 C 191.53 121.82 191.60 126.25 193.64 130.03 C 194.62 133.93 195.54 138.52 193.19 142.12 C 191.56 144.75 188.93 146.65 186.26 148.11 C 183.33 148.95 180.20 148.46 177.21 148.88 C 172.50 151.75 168.17 155.42 162.93 157.31 C 158.68 158.42 154.23 158.73 149.86 158.46 C 148.56 157.78 147.41 156.86 146.20 156.04 C 145.64 153.75 145.14 151.45 144.73 149.13 L 143.52 149.21 C 143.52 159.21 146.10 169.05 145.54 179.06 C 145.24 188.45 148.32 197.49 148.69 206.84 C 147.98 206.59 147.27 206.36 146.57 206.12 C 143.38 207.45 139.90 207.59 136.56 208.34 C 128.70 210.77 120.78 213.07 112.84 215.23 C 106.41 216.03 100.39 218.68 93.92 219.21 C 88.51 220.20 83.22 221.89 77.72 222.43 C 75.93 222.06 74.30 221.21 73.49 219.49 C 70.81 214.72 68.09 209.95 66.13 204.82 C 64.95 204.61 63.77 204.39 62.59 204.17 C 61.20 207.86 59.46 211.41 57.63 214.90 C 56.39 216.80 58.38 218.85 58.37 220.84 C 58.05 222.82 57.66 224.80 57.21 226.76 C 55.50 227.01 53.66 227.80 51.99 226.94 C 49.04 225.73 47.54 222.74 45.36 220.60 C 43.46 219.10 43.98 216.49 43.80 214.36 C 44.13 209.48 44.16 204.50 42.37 199.87 C 40.86 196.31 43.81 193.17 46.70 191.57 C 44.99 189.86 43.73 187.64 41.63 186.36 C 39.98 185.49 38.56 186.95 37.26 187.74 C 36.97 192.78 36.40 197.80 36.50 202.86 C 35.15 204.45 34.50 206.41 34.78 208.51 C 38.85 210.00 40.79 213.88 42.86 217.37 C 40.25 217.41 38.58 215.49 37.24 213.54 C 35.80 211.38 33.44 210.08 31.94 207.98 C 31.80 205.09 34.51 202.87 34.57 199.99 C 34.47 195.44 34.79 190.89 35.67 186.43 C 36.70 185.47 37.73 184.52 38.74 183.54 C 37.30 181.84 34.94 180.47 34.88 178.01 C 34.33 170.55 40.35 163.15 47.68 161.79 C 50.13 162.66 52.96 163.08 54.81 165.09 C 57.85 168.19 61.42 170.75 65.27 172.75 C 66.74 167.32 68.21 161.42 72.59 157.54 C 76.68 153.04 82.25 150.46 87.24 147.18 C 90.20 145.34 91.81 142.10 92.61 138.82 C 94.08 132.94 97.93 128.09 102.07 123.83 C 99.80 123.45 97.50 123.44 95.26 123.98 C 92.84 127.92 91.29 132.26 89.82 136.61 C 87.64 138.98 84.59 140.41 82.75 143.12 C 75.93 145.99 68.41 149.21 64.83 156.15 C 62.69 160.06 62.46 165.41 58.10 167.67 C 60.25 157.68 66.78 148.59 75.94 143.90 C 80.43 141.71 84.41 138.52 87.84 134.92 C 89.37 131.35 90.21 127.33 93.08 124.50 C 92.59 123.70 92.12 122.89 91.65 122.09 C 93.40 119.39 95.46 116.93 97.63 114.56 C 100.69 111.41 99.22 106.36 101.92 102.99 C 105.93 96.87 112.83 91.05 120.57 92.55 C 120.43 92.92 120.16 93.67 120.02 94.05 C 118.58 93.78 117.14 93.50 115.71 93.22 C 111.88 96.53 107.50 99.23 104.05 102.96 C 101.41 105.88 103.11 110.38 100.65 113.37 C 98.44 116.55 96.34 119.84 93.54 122.56 C 96.48 121.45 99.58 121.29 102.60 122.10 C 103.80 119.85 105.28 117.77 106.72 115.68 C 108.44 113.32 107.84 109.97 109.99 107.83 C 110.31 110.22 111.18 112.75 110.37 115.13 C 108.80 118.31 106.34 120.94 103.68 123.24 C 107.83 124.02 112.41 124.25 115.70 127.22 C 119.97 129.82 122.83 134.03 123.58 138.98 C 124.32 140.25 124.91 141.61 125.42 143.00 C 124.04 143.65 122.72 144.43 121.26 144.91 C 118.11 149.74 113.03 152.44 107.83 154.53 C 111.63 155.32 115.76 155.68 118.99 158.07 C 122.02 160.05 125.39 161.60 129.00 162.08 C 134.46 157.81 138.17 151.87 142.88 146.87 C 145.87 143.80 147.90 139.80 151.37 137.23 C 153.17 135.62 155.02 137.66 156.81 138.21 C 158.80 139.34 160.90 138.17 162.66 137.18 C 162.84 133.07 162.99 128.95 162.75 124.84 C 162.22 122.44 161.15 120.20 160.69 117.79 C 156.81 114.85 152.97 110.88 147.97 110.28 C 148.33 109.71 148.69 109.14 149.04 108.57 C 153.47 111.97 159.79 113.06 162.84 118.14 C 166.23 124.67 164.31 132.15 164.30 139.15 C 162.13 139.99 159.85 140.50 157.54 140.80 C 156.10 142.68 154.51 144.45 152.63 145.89 C 151.76 143.39 154.13 141.82 155.35 140.05 C 151.85 137.28 149.07 142.00 146.58 143.85 C 148.17 142.80 149.89 142.13 151.75 141.83 C 150.08 144.64 147.31 146.32 144.49 147.77 C 146.66 150.25 147.54 153.51 149.22 156.30 C 153.88 156.53 158.65 155.95 163.00 154.19 C 167.90 152.86 171.62 149.02 176.45 147.58 C 179.60 147.28 182.76 146.98 185.93 146.80 C 188.09 145.23 190.08 143.37 191.25 140.93 C 191.34 136.76 191.75 132.34 189.78 128.49 C 187.96 124.91 188.55 120.65 186.69 117.11 C 185.67 114.82 183.54 113.36 181.78 111.69 C 172.59 111.68 170.05 100.35 161.82 98.27 C 154.46 96.08 146.89 93.98 139.14 94.18 C 139.98 94.82 140.82 95.46 141.67 96.09 C 141.65 96.65 141.62 97.76 141.60 98.31 C 143.59 100.15 145.35 102.22 146.55 104.66 C 147.26 105.03 147.98 105.40 148.69 105.77 C 148.12 106.99 147.56 108.22 147.02 109.47 C 146.62 109.57 145.81 109.78 145.40 109.88 C 144.15 103.83 139.38 99.24 133.82 96.94 C 132.62 96.55 133.27 95.17 133.51 94.36 C 135.34 95.10 137.21 95.79 139.05 96.52 C 136.71 94.57 134.00 92.99 130.97 92.46 C 130.66 92.80 130.06 93.46 129.76 93.80 L 132.69 93.86 C 132.45 94.29 131.98 95.16 131.74 95.60 C 128.61 94.08 125.12 93.81 121.77 93.04 M 102.48 125.00 C 99.38 129.95 95.71 134.66 94.08 140.36 C 94.84 140.16 96.36 139.74 97.11 139.53 C 96.34 139.83 95.57 140.13 94.80 140.42 C 94.64 140.99 94.34 142.12 94.18 142.68 C 91.15 145.50 88.54 148.84 84.92 150.95 C 81.63 152.91 78.41 154.97 75.17 157.02 C 73.55 159.13 71.50 160.93 70.19 163.27 C 69.23 166.83 69.94 171.10 66.40 173.43 C 68.29 178.04 73.13 179.90 77.32 181.83 C 82.25 176.86 87.73 172.28 91.26 166.13 C 92.85 163.03 96.47 162.06 99.14 160.16 C 101.74 158.69 102.94 155.85 104.59 153.51 C 108.34 150.68 113.23 149.83 116.93 146.90 C 118.74 145.50 120.12 143.67 121.50 141.88 C 120.93 139.63 120.93 137.31 120.87 135.01 C 119.55 133.65 118.42 132.08 116.91 130.94 C 112.30 128.45 108.22 123.99 102.48 125.00 M 134.22 161.39 C 134.10 164.96 133.90 168.60 134.81 172.09 C 135.72 176.53 135.76 181.09 135.59 185.60 C 136.51 190.20 136.40 194.86 136.23 199.52 C 135.65 199.61 134.48 199.79 133.89 199.88 C 127.46 202.57 120.49 203.50 113.84 205.47 C 107.40 207.45 100.59 207.89 94.24 210.20 C 90.19 211.75 85.85 211.97 81.65 212.86 C 79.17 209.30 77.61 204.99 74.19 202.18 C 72.39 203.03 70.55 203.81 68.81 204.79 C 72.60 210.09 74.03 216.74 78.34 221.65 C 86.72 218.99 95.45 217.68 103.77 214.77 C 112.54 212.67 121.22 210.20 130.05 208.35 C 135.61 206.40 141.41 205.41 147.15 204.17 C 145.37 194.86 143.51 185.50 143.40 176.00 C 143.00 167.88 141.59 159.83 141.52 151.69 C 138.74 154.66 136.85 158.30 134.22 161.39 M 106.15 155.77 C 104.04 160.94 98.76 163.20 94.02 165.36 C 89.62 171.57 85.25 177.87 79.76 183.18 C 80.94 186.40 82.63 190.01 81.23 193.42 C 79.55 195.83 77.36 197.84 75.34 199.96 C 78.05 203.47 80.81 207.21 81.68 211.66 C 93.26 207.27 105.43 204.73 117.54 202.33 C 122.61 200.53 127.84 199.28 133.10 198.20 C 133.73 197.92 134.98 197.37 135.61 197.09 C 135.44 190.08 134.36 183.14 134.37 176.12 L 133.52 176.48 C 133.64 172.02 133.70 167.56 133.74 163.11 C 127.46 166.43 121.15 162.47 116.02 158.97 C 113.20 156.73 109.55 156.43 106.15 155.77 M 38.38 172.09 C 37.68 174.68 35.89 178.15 38.43 180.29 C 43.33 184.11 47.76 188.48 52.41 192.59 C 54.03 194.05 55.69 195.49 56.88 197.35 C 60.20 198.55 62.76 201.08 65.72 202.92 C 69.86 201.33 73.70 198.92 76.43 195.37 C 78.45 193.53 81.13 190.00 78.65 187.56 C 70.01 179.67 60.44 172.84 51.90 164.83 C 46.32 162.28 40.36 167.00 38.38 172.09 M 44.10 197.96 C 44.32 201.11 45.84 203.97 46.36 207.06 C 46.37 210.73 46.01 214.39 46.07 218.07 C 48.69 220.17 50.07 224.76 53.85 224.76 C 57.58 222.98 56.28 217.50 56.50 214.08 C 57.58 210.47 59.96 207.16 59.82 203.24 C 59.38 200.77 57.21 199.21 55.42 197.69 C 53.26 196.39 51.31 194.76 49.04 193.65 C 46.87 193.85 43.67 195.28 44.10 197.96 Z" />
<path fill="#333333" opacity="1.00" d=" M 135.24 128.36 C 137.38 123.12 141.40 118.97 145.73 115.47 C 143.86 118.84 142.01 122.28 139.38 125.13 C 134.54 130.39 131.26 137.10 125.15 141.13 C 126.68 135.71 131.32 132.08 135.24 128.36 Z" />
<path fill="#333333" opacity="1.00" d=" M 150.58 119.72 C 153.42 117.54 157.19 117.61 160.24 119.30 C 157.43 119.59 154.29 118.87 151.86 120.71 C 146.06 124.27 143.41 131.01 137.95 134.91 C 141.18 129.11 145.43 123.91 150.58 119.72 Z" />
<path fill="#333333" opacity="1.00" d=" M 165.69 128.02 C 168.07 129.04 169.03 131.51 169.94 133.75 C 172.14 133.33 174.32 132.78 176.40 131.93 C 176.92 130.46 177.74 129.17 179.22 128.49 C 179.33 130.72 178.66 132.76 176.88 134.16 C 173.70 134.86 169.32 133.20 167.12 136.12 C 168.15 133.31 166.23 130.70 165.69 128.02 Z" />
<path fill="#333333" opacity="1.00" d=" M 85.36 146.89 C 87.35 143.52 89.45 140.19 91.84 137.08 C 91.06 140.78 89.96 146.35 85.36 146.89 Z" />
<path fill="#333333" opacity="1.00" d=" M 79.58 168.44 C 82.94 165.66 85.36 161.80 89.26 159.67 C 85.67 166.05 79.64 170.38 73.64 174.31 C 75.26 172.02 77.43 170.21 79.58 168.44 Z" />
</g>
</svg>
