<?xml version="1.0" encoding="UTF-8" ?>
<!DOCTYPE svg PUBLIC "-//W3C//DTD SVG 1.1//EN" "http://www.w3.org/Graphics/SVG/1.1/DTD/svg11.dtd">
<svg width="184pt" height="275pt" viewBox="0 0 184 275" version="1.1" xmlns="http://www.w3.org/2000/svg"><g id="#464845ff">
<path fill="#333333" opacity="1.00" d=" M 47.44 19.42 C 50.85 14.99 56.97 14.89 62.04 15.36 C 66.08 15.46 69.95 18.85 70.12 22.98 C 70.42 27.09 72.78 30.94 72.05 35.13 C 71.25 39.46 70.85 43.94 69.06 48.02 C 71.52 48.48 74.02 48.69 76.52 48.83 L 76.46 50.37 C 73.60 50.31 70.76 49.89 68.02 49.05 C 68.00 50.50 67.96 51.96 67.91 53.41 C 70.95 52.39 74.79 49.84 77.43 53.08 C 73.94 53.16 70.58 54.09 67.29 55.17 C 66.83 56.20 66.37 57.22 65.92 58.25 C 62.52 58.42 59.36 56.67 55.95 57.03 C 53.16 57.19 50.21 58.83 47.66 56.97 C 50.36 56.39 53.07 55.92 55.78 55.39 C 54.86 52.43 53.82 49.51 52.56 46.68 C 52.62 46.59 52.73 46.40 52.78 46.31 C 54.62 48.94 57.09 51.63 56.63 55.10 C 59.45 55.41 62.16 56.17 64.89 56.89 C 66.38 56.32 66.96 54.73 67.82 53.52 C 67.25 52.09 66.73 50.64 66.29 49.17 C 62.35 49.08 58.44 47.97 55.12 45.82 C 53.01 43.52 52.29 40.18 49.58 38.35 C 49.80 41.96 49.50 45.56 49.49 49.17 C 48.81 45.61 48.62 41.99 48.76 38.38 C 47.58 36.72 45.87 35.18 45.92 32.97 C 45.32 28.45 44.31 23.30 47.44 19.42 M 50.97 19.11 C 47.13 21.59 46.55 26.67 46.83 30.85 C 47.45 30.63 48.68 30.19 49.30 29.97 C 48.88 31.62 48.33 33.24 48.05 34.93 C 49.79 37.25 53.27 37.79 54.20 40.77 C 55.79 45.22 60.99 46.09 65.03 47.01 C 69.65 46.99 69.28 41.32 70.06 38.06 C 71.44 33.02 69.54 28.04 68.74 23.10 C 68.33 20.23 65.77 18.55 63.89 16.65 C 59.49 16.40 54.71 16.41 50.97 19.11 Z" />
<path fill="#333333" opacity="1.00" d=" M 38.55 57.82 C 41.85 54.77 44.39 50.52 48.93 49.15 C 46.30 53.04 42.45 55.91 39.35 59.40 C 35.20 61.78 30.56 64.01 27.85 68.15 C 25.72 73.00 27.92 78.34 28.17 83.34 C 27.67 82.64 26.67 81.24 26.17 80.54 C 25.38 83.14 24.94 85.84 24.86 88.55 C 25.24 90.71 28.13 91.22 28.48 93.44 C 28.57 95.20 27.89 96.87 27.49 98.55 C 26.53 96.54 26.29 94.31 26.40 92.10 C 25.81 91.93 24.62 91.58 24.03 91.41 C 24.41 95.47 25.99 99.25 27.32 103.06 C 27.75 102.85 28.62 102.42 29.05 102.20 C 27.29 110.29 25.49 118.73 27.72 126.93 C 29.25 132.11 29.89 137.47 29.48 142.86 C 30.78 146.76 31.67 150.75 32.21 154.82 C 34.01 156.49 36.75 156.50 39.00 157.28 C 39.25 158.08 39.51 158.88 39.76 159.69 C 36.23 158.85 32.46 158.12 29.97 155.24 C 29.77 151.21 29.04 147.25 27.87 143.40 C 27.40 139.05 28.50 134.59 27.06 130.32 C 21.78 134.10 18.65 140.53 18.98 147.03 C 18.74 151.51 20.55 156.25 24.16 159.01 C 25.71 160.28 27.77 159.65 29.58 159.64 C 29.47 160.13 29.24 161.10 29.12 161.59 C 23.20 163.05 19.00 157.15 18.01 152.04 C 16.40 143.75 18.47 133.28 26.64 129.16 C 24.68 122.58 24.71 115.55 26.25 108.89 C 27.79 103.48 22.68 99.20 22.74 93.92 C 22.68 88.47 23.83 83.06 25.47 77.88 C 24.96 73.69 24.68 69.03 27.31 65.42 C 30.41 62.05 34.45 59.76 38.55 57.82 Z" />
<path fill="#333333" opacity="1.00" d=" M 78.48 49.18 C 83.25 48.70 88.26 51.46 90.23 55.88 C 92.42 59.20 91.98 63.29 92.22 67.06 C 92.93 69.75 94.45 72.17 94.89 74.95 C 95.69 78.28 95.53 82.21 98.26 84.72 C 101.00 87.43 103.64 90.51 104.34 94.43 C 105.24 100.00 107.90 105.14 108.21 110.82 C 108.49 115.60 110.44 119.98 112.58 124.18 C 114.50 121.85 117.80 122.66 120.12 123.79 C 123.84 126.19 125.22 130.80 125.71 134.97 C 126.24 141.35 124.57 148.29 119.88 152.87 C 117.72 155.05 114.23 155.89 111.45 154.42 C 108.00 152.61 106.47 148.62 105.82 144.98 C 104.34 137.52 106.44 129.47 111.65 123.88 C 111.22 123.87 110.36 123.86 109.93 123.86 C 108.77 119.42 106.96 115.15 106.65 110.52 C 104.99 104.49 103.14 98.49 101.26 92.53 C 99.94 87.71 94.36 85.24 94.14 80.01 C 94.12 76.60 93.34 73.25 91.77 70.23 C 89.48 66.33 91.89 61.41 89.38 57.53 C 87.66 52.78 82.45 51.43 78.48 49.18 M 110.24 128.39 C 106.88 133.11 106.42 139.24 107.23 144.81 C 107.97 147.63 108.98 150.79 111.59 152.43 C 114.29 154.01 117.87 153.11 119.75 150.68 C 126.45 143.02 126.67 128.87 117.27 123.20 C 114.77 124.68 111.83 125.81 110.24 128.39 Z" />
<path fill="#333333" opacity="1.00" d=" M 67.02 63.30 C 69.04 65.87 71.55 69.45 69.81 72.79 C 69.15 74.90 67.92 76.97 65.53 77.32 C 61.14 78.24 58.08 83.26 53.15 81.84 C 49.92 80.58 46.09 78.50 45.53 74.73 C 49.15 77.01 52.68 81.62 57.49 79.57 C 60.65 77.43 64.04 75.78 67.75 74.82 C 69.32 70.94 67.60 67.15 67.02 63.30 Z" />
<path fill="#333333" opacity="1.00" d=" M 82.02 74.86 C 83.09 72.51 84.04 70.11 85.04 67.74 C 85.23 68.41 85.62 69.77 85.81 70.44 C 86.95 71.52 88.07 72.62 89.07 73.83 C 87.46 73.48 85.87 73.04 84.29 72.60 C 83.30 77.56 85.34 82.28 85.91 87.14 C 85.60 90.56 83.10 93.41 83.05 96.88 C 82.92 101.51 82.83 106.19 83.80 110.73 C 83.97 112.47 85.58 113.43 86.65 114.62 C 86.90 116.64 86.99 118.69 87.47 120.68 C 88.74 118.95 90.46 117.66 92.42 116.82 C 91.79 119.35 89.41 120.69 87.68 122.40 C 87.10 121.64 86.51 120.88 85.92 120.14 C 85.88 126.46 89.95 131.72 90.81 137.85 C 91.21 140.36 93.01 142.27 94.03 144.52 C 92.99 145.03 91.94 145.53 90.90 146.02 C 91.61 150.65 92.02 155.33 91.80 160.02 C 91.47 163.46 94.67 166.43 93.37 169.90 C 91.79 174.41 92.37 179.25 92.29 183.93 C 95.19 193.03 92.47 202.79 94.88 211.96 C 95.36 215.08 98.93 216.04 100.59 218.43 C 103.71 222.34 107.58 226.35 113.03 226.04 C 114.16 227.74 117.22 229.41 115.66 231.69 C 114.89 233.94 112.19 234.20 110.34 235.17 C 107.74 236.66 104.76 235.74 101.96 235.63 C 97.69 235.70 94.59 231.00 90.14 232.27 C 86.76 233.02 82.98 232.96 80.18 230.64 C 77.60 222.63 83.72 215.05 82.15 207.01 C 81.48 201.58 78.13 197.08 76.22 192.08 C 76.67 187.54 76.55 182.93 77.60 178.45 C 78.72 174.65 74.62 171.86 75.04 168.04 C 75.40 162.23 70.50 158.25 68.57 153.16 C 67.73 153.94 66.88 154.72 66.04 155.50 C 65.79 159.96 65.35 164.50 63.65 168.68 C 62.58 171.29 60.37 173.30 59.71 176.09 C 58.47 180.35 56.55 184.45 56.07 188.90 C 55.83 193.28 56.29 197.68 56.00 202.06 C 55.58 205.49 53.47 208.46 53.13 211.91 C 52.29 218.78 51.53 226.41 55.32 232.58 C 57.31 235.64 58.58 239.23 61.30 241.77 C 63.21 243.57 64.61 245.81 65.91 248.06 C 66.29 249.83 66.68 252.70 64.16 252.89 C 61.14 253.10 59.17 255.99 56.07 255.92 C 50.55 256.55 43.37 253.25 43.46 246.94 C 43.12 243.83 40.87 241.29 40.71 238.16 C 40.61 235.78 39.79 233.53 39.14 231.27 C 40.13 227.32 40.37 223.16 39.84 219.12 C 38.79 213.04 36.32 207.17 36.33 200.93 C 36.93 195.39 39.11 190.19 40.86 184.96 C 41.68 178.60 41.61 171.83 44.99 166.14 C 41.35 163.32 40.61 158.36 40.02 154.09 C 40.20 147.58 42.21 140.51 47.43 136.24 C 49.98 134.13 53.68 135.12 56.20 136.76 C 61.18 141.72 61.74 149.50 60.38 156.05 C 62.02 155.11 63.77 154.35 65.29 153.22 C 68.08 151.62 66.06 147.74 67.52 145.47 C 69.62 144.03 72.22 143.60 74.65 143.01 C 75.96 140.72 77.39 138.49 79.15 136.51 C 78.69 139.58 77.33 142.42 75.40 144.83 C 73.16 145.06 71.06 145.86 69.04 146.78 C 68.97 148.70 68.90 150.62 68.79 152.54 C 73.02 154.66 74.64 159.27 76.97 163.06 C 78.79 166.01 77.55 169.74 79.16 172.79 C 80.33 175.98 83.87 179.66 80.54 182.76 C 80.15 181.22 79.78 179.69 79.43 178.15 C 78.02 184.42 78.54 191.21 80.84 197.17 C 84.65 202.29 83.98 208.98 83.77 214.99 C 82.80 219.81 81.23 224.82 82.10 229.75 C 84.79 232.17 88.74 230.48 91.97 230.75 C 95.31 230.28 98.18 232.11 100.86 233.81 C 103.54 233.70 106.20 234.29 108.87 234.15 C 110.85 233.29 112.61 232.01 114.49 230.95 C 112.66 227.18 107.91 228.25 104.99 225.95 C 101.78 223.87 100.02 220.33 97.22 217.82 C 95.99 216.54 94.42 215.53 93.49 213.99 C 92.46 209.76 91.04 205.48 91.45 201.06 C 91.83 196.00 91.56 190.90 90.43 185.96 C 89.51 182.62 90.76 179.26 90.64 175.89 C 90.53 172.91 91.86 170.11 91.92 167.15 C 91.67 165.46 90.66 164.00 89.95 162.47 C 88.53 164.79 86.78 168.45 83.42 167.65 C 81.09 166.20 80.43 163.41 79.91 160.91 C 81.20 163.03 82.42 165.57 84.99 166.37 C 87.88 165.49 87.92 161.85 88.67 159.44 C 89.14 159.66 90.08 160.09 90.55 160.30 C 90.46 155.59 90.11 150.89 90.05 146.18 C 86.33 149.94 81.30 152.47 75.97 152.70 C 73.33 152.89 70.71 151.43 69.22 149.29 C 72.53 149.96 75.93 151.72 79.34 150.52 C 84.08 149.54 86.86 145.14 91.24 143.42 C 90.07 141.60 88.89 139.72 88.73 137.51 C 88.15 132.64 85.63 128.37 83.98 123.83 C 84.35 121.15 85.10 118.51 85.01 115.77 C 83.76 114.66 82.57 113.49 81.45 112.24 C 77.46 113.88 73.19 114.82 68.93 115.41 C 64.59 115.45 60.35 114.24 56.00 114.15 C 53.01 114.16 50.55 112.28 47.99 110.99 C 48.02 111.73 48.08 113.21 48.11 113.95 C 47.57 113.80 46.50 113.50 45.96 113.35 C 45.40 115.82 43.99 118.37 44.92 120.94 C 46.47 126.68 46.98 133.27 43.82 138.59 C 44.06 130.88 43.89 123.16 44.23 115.46 C 45.10 113.72 46.21 112.11 47.24 110.47 C 46.87 105.33 47.44 99.92 44.43 95.39 L 44.04 96.07 C 42.71 99.72 41.95 103.55 40.38 107.11 C 42.22 111.50 43.52 116.20 43.24 121.01 C 43.37 124.46 41.75 127.61 41.22 130.97 C 40.88 134.56 43.19 137.90 42.43 141.47 C 41.15 139.51 40.18 137.36 39.70 135.07 C 38.99 136.69 38.54 138.40 38.14 140.13 C 37.09 137.29 36.46 134.24 37.45 131.29 C 37.63 132.47 37.99 134.85 38.17 136.04 C 39.58 133.48 38.90 130.44 39.87 127.75 C 42.25 121.71 41.84 114.72 39.22 108.82 C 38.41 109.97 37.59 111.12 36.77 112.27 C 37.12 108.25 39.48 104.89 40.71 101.16 C 41.10 97.08 40.71 92.97 41.20 88.90 C 41.70 86.30 39.93 84.08 39.32 81.67 C 42.07 81.05 42.83 83.81 43.05 85.92 C 43.26 89.02 42.84 92.11 42.81 95.21 C 43.03 95.09 43.48 94.84 43.70 94.72 C 44.08 93.32 44.58 91.97 45.37 90.75 C 47.36 91.68 49.39 91.17 51.42 90.83 C 52.25 91.46 53.04 92.14 53.80 92.87 C 51.08 93.05 48.21 92.62 45.59 93.54 C 48.64 98.41 48.17 104.16 48.92 109.60 C 53.01 112.40 57.91 111.82 62.54 112.58 C 69.06 114.25 75.83 112.22 81.80 109.58 C 81.74 105.15 80.80 100.79 80.61 96.36 C 80.18 96.95 79.33 98.12 78.90 98.71 C 77.94 98.30 76.98 97.89 76.02 97.48 C 73.12 99.88 69.29 99.83 65.84 100.84 C 63.67 101.84 62.48 99.34 61.19 98.12 C 62.50 98.54 63.81 98.98 65.11 99.44 C 67.56 97.36 70.79 98.34 73.60 97.54 C 74.92 95.23 74.70 92.52 74.73 89.97 C 75.36 91.03 76.01 92.07 76.67 93.11 C 76.67 93.92 76.66 95.54 76.66 96.35 C 77.48 96.37 79.14 96.43 79.96 96.46 C 81.32 94.00 83.09 91.71 83.85 88.98 C 84.63 84.17 82.57 79.57 82.02 74.86 M 45.20 141.10 C 41.84 145.95 41.47 152.17 42.22 157.85 C 43.00 161.45 44.89 165.72 48.96 166.41 C 53.51 166.90 56.68 162.74 58.08 158.92 C 61.17 151.01 60.36 140.28 52.40 135.54 C 49.82 137.12 46.86 138.44 45.20 141.10 M 60.22 156.63 C 59.02 161.22 56.65 166.25 51.92 168.03 C 49.85 168.75 46.81 166.91 45.48 169.19 C 44.25 172.31 43.19 175.58 43.01 178.95 C 43.36 184.68 45.39 190.12 46.62 195.69 C 43.90 193.60 43.69 189.87 42.37 186.95 C 40.08 191.30 38.23 196.05 38.00 201.01 C 37.61 208.96 42.31 216.10 42.13 224.03 C 42.27 226.71 41.40 229.30 41.19 231.95 C 42.37 237.91 45.94 243.23 46.23 249.38 C 47.98 251.58 50.33 253.33 53.16 253.83 C 55.84 254.67 58.09 252.56 60.15 251.22 C 59.62 250.84 58.55 250.06 58.01 249.68 C 54.50 250.25 50.95 250.12 47.47 249.40 C 49.58 247.53 52.49 248.50 55.02 248.06 C 56.66 248.09 59.06 247.02 59.93 249.06 C 60.96 251.12 63.33 252.25 65.19 250.33 C 63.56 246.72 60.67 243.96 58.22 240.93 C 55.40 235.95 51.90 231.20 50.76 225.48 C 49.45 218.96 49.63 211.83 52.69 205.81 C 54.87 201.46 54.19 196.49 53.83 191.84 C 52.63 194.45 51.04 197.02 50.86 199.96 C 50.69 202.55 50.60 205.26 49.19 207.54 C 48.57 202.67 48.71 197.47 51.31 193.15 C 54.91 187.35 56.18 180.54 58.46 174.18 C 58.00 174.01 57.07 173.67 56.60 173.51 C 56.40 172.80 56.00 171.40 55.80 170.70 C 53.85 171.24 51.88 171.71 49.90 172.15 C 49.46 173.31 48.99 174.45 48.51 175.60 C 48.42 173.72 48.56 171.86 48.72 169.99 C 50.14 169.96 51.56 169.93 52.98 169.90 C 53.85 169.24 54.72 168.59 55.60 167.94 C 56.54 169.96 57.59 171.93 58.83 173.78 C 62.38 168.78 63.96 162.81 64.56 156.78 C 63.11 156.77 61.66 156.71 60.22 156.63 Z" />
<path fill="#333333" opacity="1.00" d=" M 70.77 72.18 C 72.40 72.83 73.99 73.59 75.58 74.33 C 77.60 73.64 79.66 73.05 81.79 72.80 C 79.56 76.42 71.35 77.57 70.77 72.18 Z" />
<path fill="#333333" opacity="1.00" d=" M 89.80 75.37 C 91.99 79.02 93.71 83.04 94.35 87.27 C 94.49 90.45 93.66 93.63 92.42 96.55 C 91.97 93.01 93.11 89.53 92.83 86.01 C 91.95 82.42 90.08 79.11 89.80 75.37 Z" />
<path fill="#333333" opacity="1.00" d=" M 73.55 80.37 C 74.34 79.24 74.80 77.34 76.53 77.45 C 77.91 77.93 78.94 79.03 80.09 79.89 C 78.77 79.51 77.45 79.09 76.15 78.64 C 75.62 79.16 74.56 80.21 74.02 80.73 C 74.50 82.16 74.96 83.59 75.38 85.04 C 78.43 84.77 81.63 85.22 83.64 87.76 C 80.59 87.34 77.53 86.88 74.48 86.41 C 74.10 86.81 73.33 87.59 72.95 87.99 C 72.28 88.03 70.95 88.11 70.28 88.16 C 67.98 89.71 65.42 90.86 63.42 92.82 C 60.80 92.33 58.02 91.53 57.27 88.56 C 58.87 89.35 60.37 90.35 62.03 91.02 C 63.38 91.11 64.27 89.88 65.33 89.26 C 67.92 87.58 70.62 86.14 73.67 85.49 C 73.80 84.25 73.76 82.99 73.75 81.75 C 73.00 80.95 72.27 80.14 71.56 79.32 C 72.05 79.58 73.05 80.11 73.55 80.37 Z" />
<path fill="#333333" opacity="1.00" d=" M 63.43 83.88 C 65.17 81.71 66.35 77.70 69.85 78.33 C 68.43 80.22 66.71 81.92 65.66 84.07 C 64.08 85.17 62.47 86.23 60.79 87.16 C 61.46 85.91 62.28 84.73 63.43 83.88 Z" />
<path fill="#333333" opacity="1.00" d=" M 33.72 81.29 C 35.29 80.81 36.87 80.33 38.46 79.93 C 36.96 81.61 35.32 83.16 33.74 84.76 C 33.74 83.60 33.73 82.45 33.72 81.29 Z" />
<path fill="#333333" opacity="1.00" d=" M 45.26 87.27 C 45.27 85.25 46.33 83.64 47.80 82.34 C 48.14 82.72 48.84 83.50 49.19 83.89 C 48.51 84.05 47.14 84.37 46.46 84.54 C 46.88 89.66 52.78 84.39 54.50 88.14 C 51.35 89.26 48.08 89.18 45.26 87.27 Z" />
<path fill="#333333" opacity="1.00" d=" M 59.09 95.32 C 60.21 94.93 61.32 94.56 62.45 94.20 C 61.91 97.88 56.88 98.52 55.41 95.13 C 56.33 95.17 58.17 95.27 59.09 95.32 Z" />
<path fill="#333333" opacity="1.00" d=" M 50.46 96.44 C 52.93 97.76 55.27 99.31 57.71 100.68 C 54.97 102.41 49.08 99.95 50.46 96.44 Z" />
<path fill="#333333" opacity="1.00" d=" M 86.47 98.83 C 89.35 102.07 90.23 106.61 93.50 109.53 C 96.74 112.88 99.19 117.19 99.10 121.98 C 99.60 125.81 97.59 129.27 97.24 133.01 C 97.69 135.51 98.97 137.80 100.07 140.07 C 101.47 140.86 103.03 141.33 104.50 141.96 C 104.01 142.91 103.52 143.87 103.04 144.82 C 102.53 144.10 102.02 143.39 101.52 142.67 C 98.79 142.03 97.07 140.07 96.54 137.36 C 94.68 133.91 95.78 130.07 95.73 126.39 C 96.12 126.45 96.92 126.57 97.32 126.63 C 97.91 123.10 97.47 119.42 96.10 116.11 C 94.51 112.84 91.79 110.35 89.58 107.53 C 88.17 104.79 87.22 101.82 86.47 98.83 Z" />
<path fill="#333333" opacity="1.00" d=" M 62.55 101.94 C 63.82 101.09 65.36 103.26 64.73 104.41 C 63.48 105.08 61.79 103.12 62.55 101.94 Z" />
<path fill="#333333" opacity="1.00" d=" M 75.58 103.34 C 77.30 103.97 75.32 106.85 74.10 107.14 C 72.45 106.27 74.01 103.43 75.58 103.34 Z" />
<path fill="#333333" opacity="1.00" d=" M 62.02 104.85 C 64.51 107.32 66.93 109.87 69.51 112.25 C 65.35 112.57 62.54 108.56 62.02 104.85 Z" />
<path fill="#333333" opacity="1.00" d=" M 33.53 107.10 C 34.79 106.62 35.83 108.73 34.94 109.61 C 33.65 110.17 32.74 107.97 33.53 107.10 Z" />
<path fill="#333333" opacity="1.00" d=" M 66.01 118.00 C 71.31 118.17 76.47 116.48 81.24 114.30 C 81.04 114.89 80.65 116.06 80.46 116.65 C 73.89 119.50 66.44 121.03 59.38 119.20 C 58.32 124.73 52.67 127.61 47.71 128.87 C 50.86 125.14 56.38 123.88 58.07 118.82 C 56.25 118.11 54.41 117.45 52.58 116.79 C 51.09 119.11 50.21 121.71 49.76 124.42 C 47.81 121.23 50.16 117.86 51.50 114.94 C 56.27 116.26 60.94 118.46 66.01 118.00 Z" />
<path fill="#333333" opacity="1.00" d=" M 68.00 124.23 C 72.19 123.17 76.48 122.58 80.78 122.14 C 80.72 123.32 80.67 124.51 80.61 125.69 C 75.07 127.96 69.64 130.46 64.24 133.03 C 68.11 128.24 74.52 126.53 80.05 124.39 L 80.10 124.02 C 73.03 123.95 66.46 126.91 59.64 128.30 C 61.64 125.64 64.99 125.05 68.00 124.23 Z" />
<path fill="#333333" opacity="1.00" d=" M 58.21 134.67 C 66.80 133.54 75.55 133.27 83.94 130.91 C 80.80 134.72 75.56 134.48 71.10 134.98 C 66.73 134.95 62.49 136.36 58.11 136.05 C 58.13 135.71 58.18 135.01 58.21 134.67 Z" />
<path fill="#333333" opacity="1.00" d=" M 34.25 138.92 C 33.70 143.15 29.50 137.84 32.89 137.07 C 33.23 137.53 33.91 138.46 34.25 138.92 Z" />
<path fill="#333333" opacity="1.00" d=" M 11.23 169.27 C 11.84 169.75 11.84 169.75 11.23 169.27 Z" />
<path fill="#333333" opacity="1.00" d=" M 50.52 179.29 C 52.19 179.51 53.78 180.11 55.33 180.76 C 53.70 181.45 49.32 182.46 50.52 179.29 Z" />
<path fill="#333333" opacity="1.00" d=" M 85.11 217.24 C 85.41 217.29 86.01 217.39 86.31 217.44 C 86.11 220.15 86.85 222.78 87.35 225.42 C 84.96 223.32 84.64 220.23 85.11 217.24 Z" />
<path fill="#333333" opacity="1.00" d=" M 43.76 234.06 C 44.73 230.74 45.91 226.69 49.41 225.25 C 48.03 228.47 46.69 231.91 43.76 234.06 Z" />
</g>
</svg>
