<?xml version="1.0" encoding="UTF-8" ?>
<!DOCTYPE svg PUBLIC "-//W3C//DTD SVG 1.1//EN" "http://www.w3.org/Graphics/SVG/1.1/DTD/svg11.dtd">
<svg width="268pt" height="275pt" viewBox="0 0 268 275" version="1.1" xmlns="http://www.w3.org/2000/svg"><g id="#3f403fff">
<path fill="#333333" opacity="1.00" d=" M 207.70 58.95 C 211.35 58.18 215.31 59.43 217.71 62.34 C 221.30 66.61 222.82 72.18 223.70 77.58 C 227.56 76.29 231.56 75.45 235.55 74.73 C 235.67 75.06 235.91 75.72 236.03 76.05 C 232.14 77.50 227.90 77.90 223.82 78.61 C 223.86 79.38 223.92 80.91 223.96 81.68 C 227.94 80.73 231.97 80.04 235.99 79.27 C 235.90 79.72 235.73 80.63 235.64 81.08 C 231.79 81.51 228.00 82.40 224.14 82.76 C 224.02 90.91 222.62 99.75 216.96 106.01 C 215.13 108.21 211.23 109.54 209.12 107.01 C 211.77 106.25 214.93 106.10 216.68 103.64 C 221.42 97.97 222.43 90.20 222.52 83.05 C 222.32 76.23 220.98 68.88 216.40 63.56 C 214.11 61.78 211.36 59.35 208.27 60.55 C 208.13 60.15 207.84 59.35 207.70 58.95 Z" />
<path fill="#333333" opacity="1.00" d=" M 189.07 64.05 C 191.20 61.11 194.86 60.51 198.15 59.79 C 204.37 61.15 207.04 67.53 209.04 72.88 C 210.64 78.76 209.40 84.91 209.85 90.91 C 210.35 96.74 208.26 102.45 205.22 107.32 C 202.76 111.08 197.74 113.99 193.34 111.73 C 186.54 107.92 183.75 99.76 183.18 92.39 C 179.66 93.17 176.11 93.86 172.55 94.44 C 169.22 103.04 173.80 112.22 172.76 121.07 C 171.79 124.53 171.21 128.09 170.39 131.58 C 168.38 134.86 163.85 134.84 160.50 134.23 C 156.51 133.22 152.40 133.86 148.35 133.91 C 148.29 134.34 148.17 135.20 148.11 135.63 C 143.12 136.61 138.08 137.64 133.36 139.56 C 130.25 141.66 127.69 144.45 124.88 146.90 C 126.65 146.41 128.82 146.21 129.85 144.45 C 133.44 143.53 136.42 141.22 139.89 140.01 C 139.06 144.36 133.82 144.79 130.30 145.67 C 130.43 146.25 130.69 147.39 130.82 147.96 C 128.42 150.52 126.35 153.59 125.52 157.03 C 125.20 161.82 125.36 166.80 127.44 171.23 C 128.99 168.93 130.12 166.00 132.82 164.80 C 138.42 162.41 145.93 162.60 149.75 167.96 C 149.59 166.52 149.42 165.08 149.23 163.65 C 151.56 163.26 153.91 162.90 156.19 162.26 C 158.84 163.35 161.74 164.75 162.17 167.91 C 162.83 165.32 163.85 162.80 163.85 160.09 C 163.58 153.67 168.82 148.62 174.04 145.71 C 168.75 144.59 163.14 145.20 158.05 143.15 C 157.39 141.80 156.82 140.41 156.22 139.03 C 158.10 139.33 159.78 140.14 160.49 142.04 C 164.55 143.08 168.80 142.66 172.88 143.61 C 175.27 144.16 178.08 144.39 179.58 146.62 C 185.16 148.91 190.56 151.87 195.04 155.96 C 197.88 158.74 202.56 158.69 204.80 162.25 C 207.20 166.16 209.19 171.06 207.57 175.65 C 206.85 179.97 207.03 184.45 207.35 188.81 C 209.44 198.00 207.13 207.77 210.20 216.80 C 214.70 220.46 217.93 225.50 222.96 228.57 C 226.53 228.07 229.01 230.48 231.00 233.08 C 229.91 236.04 226.96 237.19 224.31 238.37 C 221.39 240.01 218.13 237.98 215.01 238.66 C 213.16 237.63 211.39 236.43 209.42 235.66 C 205.85 234.36 202.06 236.65 198.48 235.42 C 197.14 234.90 195.97 234.05 194.75 233.31 C 193.39 225.16 198.53 217.61 196.83 209.49 C 196.44 204.46 192.79 200.61 191.60 195.84 C 191.48 190.52 191.39 184.97 193.73 180.04 C 193.33 178.46 191.43 178.38 190.25 177.71 C 187.64 176.77 185.58 174.86 183.44 173.17 C 183.77 174.14 184.10 175.11 184.44 176.09 C 183.65 177.66 183.07 179.71 181.12 180.18 C 173.30 182.93 165.28 185.07 157.21 186.96 C 157.05 196.23 157.15 205.50 156.86 214.76 C 162.27 213.07 167.61 211.15 173.02 209.44 C 176.21 207.83 179.19 210.49 181.99 211.71 C 181.14 214.41 181.64 218.58 178.01 219.15 C 166.76 223.13 155.72 227.66 144.47 231.60 C 144.13 237.63 143.95 244.35 147.66 249.50 C 149.76 252.67 151.30 256.24 154.07 258.93 C 155.89 261.25 158.36 263.78 157.70 267.02 C 157.27 269.05 154.95 268.99 153.35 269.36 C 148.38 273.12 140.56 271.64 136.47 267.14 C 135.47 265.98 135.70 264.35 135.43 262.95 C 135.34 259.73 132.56 257.30 132.72 254.04 C 132.74 251.88 131.95 249.88 131.47 247.82 C 131.77 244.22 132.75 240.65 132.27 237.02 C 131.40 230.59 128.93 224.45 128.39 217.97 C 129.16 212.49 131.18 207.27 132.86 202.03 C 133.09 197.00 134.73 191.74 132.84 186.85 C 132.23 184.64 131.04 182.65 129.93 180.67 C 127.78 181.27 125.00 179.50 125.59 177.10 C 125.89 173.84 125.01 170.70 124.06 167.62 C 110.72 172.49 97.41 177.51 84.17 182.68 C 83.20 181.83 82.16 181.03 81.32 180.04 C 81.12 177.81 81.26 175.56 81.32 173.32 C 87.43 170.63 93.73 168.40 99.97 166.01 C 99.89 158.01 100.15 150.00 100.14 142.01 C 99.97 141.53 99.62 140.56 99.44 140.08 C 97.92 143.77 99.83 149.40 95.56 151.50 C 93.78 152.68 90.54 153.11 89.38 150.89 C 87.33 147.31 83.47 144.97 82.23 140.91 C 80.80 137.48 80.35 133.74 80.55 130.04 C 80.86 124.68 79.08 119.45 79.58 114.07 C 72.95 115.86 66.18 117.25 59.39 118.21 C 59.82 116.96 60.66 116.24 61.89 116.05 C 68.23 114.70 74.56 113.36 80.91 112.08 C 80.87 111.28 80.80 109.68 80.77 108.88 C 73.74 110.11 66.90 112.26 59.80 113.12 C 58.25 113.65 59.27 115.80 59.08 117.03 C 59.57 126.11 57.81 135.75 52.21 143.12 C 50.27 145.71 47.03 146.52 44.26 147.86 C 48.43 143.72 53.48 139.89 55.26 134.01 C 58.91 123.16 58.76 110.71 53.64 100.36 C 51.70 96.09 47.36 94.01 43.87 91.26 C 47.38 90.33 50.70 92.75 52.66 95.45 C 56.36 100.27 58.01 106.28 58.82 112.21 C 59.55 111.85 60.30 111.52 61.05 111.21 C 66.57 109.94 72.18 109.04 77.64 107.52 C 78.90 105.75 79.52 103.57 80.91 101.90 C 85.10 100.68 89.62 98.63 93.97 100.42 C 96.19 101.23 95.64 104.10 96.07 105.91 C 99.65 101.28 106.16 102.25 111.25 100.66 C 110.27 98.69 109.92 96.15 107.93 94.88 C 106.59 94.26 105.22 93.70 103.83 93.19 C 103.79 95.85 102.65 98.29 101.58 100.67 C 99.32 98.32 102.53 95.23 103.30 92.78 C 99.71 92.35 95.48 90.45 92.37 93.24 C 89.65 95.02 88.72 99.11 85.24 99.63 C 87.42 95.34 90.76 90.53 95.96 90.01 C 100.40 90.22 104.55 92.04 108.68 93.53 C 111.62 94.36 111.79 97.91 112.28 100.37 C 125.86 97.66 139.41 94.85 152.96 92.05 C 155.44 91.64 155.01 88.13 156.83 86.88 C 159.72 86.10 162.66 85.50 165.56 84.76 C 168.24 83.94 170.20 86.51 172.03 87.99 C 175.39 87.18 178.76 86.42 182.20 86.10 C 181.02 89.69 176.14 88.30 173.31 89.71 C 172.93 90.66 172.18 92.54 171.81 93.49 C 178.17 90.48 185.49 90.79 192.01 88.22 C 194.63 88.82 197.94 87.85 197.17 84.46 C 192.18 85.08 187.50 87.11 182.49 87.64 C 182.76 79.49 183.74 70.60 189.07 64.05 M 190.20 65.14 C 185.44 70.78 184.54 78.44 184.07 85.53 C 188.43 84.26 192.90 83.44 197.22 82.08 C 197.99 83.34 199.72 84.28 199.36 85.99 C 199.80 90.38 194.32 89.52 191.51 90.32 C 189.30 91.37 186.86 91.65 184.48 92.02 C 185.46 97.90 187.07 104.25 191.78 108.30 C 194.35 110.81 198.84 110.85 201.58 108.60 C 205.69 105.05 207.24 99.57 208.71 94.56 C 210.24 84.96 209.50 74.49 203.90 66.24 C 202.28 63.56 199.22 62.42 196.69 60.82 C 194.34 61.93 191.81 62.99 190.20 65.14 M 157.74 87.66 C 157.46 88.16 156.90 89.16 156.61 89.67 C 159.09 89.51 161.54 89.05 164.02 88.88 L 163.18 90.21 L 161.47 91.05 C 162.69 91.48 163.85 92.05 165.02 92.61 C 163.38 94.20 159.15 97.24 158.49 93.17 C 159.55 93.15 161.66 93.10 162.72 93.08 C 162.05 92.44 161.38 91.81 160.71 91.18 C 159.27 91.67 156.34 90.89 156.10 93.07 C 155.68 94.78 155.28 96.54 155.41 98.32 C 156.69 99.32 158.18 100.20 159.85 100.25 C 161.84 99.04 163.79 97.67 166.15 97.30 C 164.78 99.34 162.50 100.46 160.58 101.90 C 161.19 104.26 161.87 106.64 162.06 109.08 C 161.38 111.69 159.68 113.85 158.24 116.07 C 159.46 117.65 161.19 118.97 161.86 120.90 C 161.39 123.55 159.74 126.36 157.01 127.15 C 153.01 128.09 148.78 127.40 145.13 125.56 C 146.00 127.45 146.42 129.66 147.91 131.21 C 149.81 132.23 152.05 132.03 154.13 132.10 C 151.97 130.85 149.83 129.57 147.71 128.25 C 155.01 128.75 162.02 135.65 169.41 131.16 C 169.86 125.76 172.29 120.48 171.12 115.02 C 170.56 109.64 170.13 104.25 169.56 98.88 C 166.28 98.93 168.00 103.14 167.32 105.26 C 166.39 102.53 167.00 99.75 167.80 97.09 C 172.24 98.21 171.34 93.00 171.69 90.27 C 170.14 89.11 168.71 87.75 166.97 86.88 C 163.90 87.31 160.83 87.60 157.74 87.66 M 96.71 105.72 C 96.62 106.41 96.44 107.79 96.35 108.48 C 100.00 108.27 103.52 107.31 106.83 105.79 C 111.05 103.99 115.67 104.05 120.15 103.67 C 131.57 101.47 142.88 98.62 154.42 97.11 C 154.34 96.31 154.18 94.70 154.10 93.90 C 134.96 97.76 115.77 101.43 96.71 105.72 M 153.68 98.23 C 146.59 101.02 138.76 101.18 131.43 103.22 C 132.68 104.81 136.94 105.90 135.20 108.35 C 136.78 110.56 140.90 110.40 141.22 113.91 C 137.98 112.30 134.43 110.97 131.98 108.17 C 129.32 108.29 126.65 108.45 123.98 108.44 C 125.28 107.93 126.52 107.04 127.98 107.10 C 129.49 106.71 132.34 108.36 133.15 106.87 C 131.46 103.57 126.89 105.07 123.98 105.59 C 121.42 105.52 122.86 108.90 121.05 109.68 C 118.63 110.24 116.16 110.59 113.90 111.67 C 112.04 113.83 110.44 116.21 108.57 118.36 C 106.73 119.95 104.08 119.24 101.89 119.12 C 103.60 118.34 105.42 117.88 107.28 117.56 C 108.94 114.90 111.19 112.68 113.62 110.72 C 116.01 108.83 119.23 108.83 122.02 107.90 C 115.26 103.69 106.78 107.02 100.74 111.03 C 100.96 111.43 101.40 112.23 101.62 112.63 C 99.99 112.76 98.36 112.83 96.73 113.01 C 96.11 116.21 92.44 116.68 90.04 118.01 C 89.76 114.42 95.47 115.54 95.36 112.03 C 95.38 110.07 96.52 107.70 95.12 106.02 C 93.39 105.28 91.41 105.62 89.56 105.50 C 91.00 104.34 95.58 104.97 93.80 102.16 C 89.83 100.54 85.82 102.53 81.94 103.35 C 81.43 104.38 80.93 105.41 80.43 106.45 C 81.36 107.84 82.85 109.13 82.62 110.97 C 82.92 112.89 81.00 113.97 80.02 115.31 C 81.58 115.45 82.99 115.98 84.25 116.90 L 86.37 115.35 C 87.22 116.66 86.05 117.85 85.34 118.88 C 85.40 120.72 85.47 122.57 85.43 124.43 C 84.77 122.83 84.50 121.13 84.26 119.43 C 83.02 118.14 81.75 116.87 80.44 115.65 C 80.99 119.44 81.68 123.20 82.23 126.98 C 82.58 131.19 81.85 135.60 83.58 139.59 C 84.80 143.54 87.98 146.36 90.51 149.49 C 92.18 151.50 94.69 149.53 96.56 148.93 C 96.79 144.99 97.80 141.07 97.48 137.11 C 97.29 134.40 95.48 132.32 93.72 130.44 C 90.63 127.47 91.43 122.80 90.52 118.98 C 92.94 119.78 96.25 120.04 97.02 122.99 C 98.13 126.97 97.49 131.23 98.42 135.28 C 102.27 137.88 107.07 138.51 110.89 141.08 C 113.86 143.95 117.74 145.61 120.70 148.49 C 120.46 149.05 119.97 150.17 119.73 150.73 C 114.00 146.68 109.19 140.61 101.77 139.76 C 105.56 144.16 110.56 147.21 114.70 151.23 C 116.80 153.29 119.14 155.08 121.47 156.88 C 120.92 155.24 120.72 153.58 120.87 151.89 C 121.20 150.35 122.24 152.01 122.61 152.55 C 123.10 151.48 123.70 150.48 124.43 149.55 C 125.87 152.53 123.05 154.59 122.96 157.36 C 124.83 154.69 126.18 151.73 127.36 148.71 C 126.38 148.17 125.42 147.62 124.45 147.08 C 123.41 148.16 122.37 149.24 121.23 150.22 C 121.87 145.56 126.32 143.23 129.40 140.28 C 134.37 135.67 141.41 135.00 147.79 133.96 C 146.59 131.03 144.35 128.63 143.44 125.58 C 142.69 122.30 142.33 118.92 142.46 115.56 C 143.82 115.59 145.19 115.60 146.56 115.60 C 144.82 111.10 140.62 108.69 136.78 106.23 C 142.11 105.04 145.18 110.47 147.92 114.00 C 151.35 112.38 154.96 113.02 157.93 115.27 C 160.50 111.51 161.32 106.97 160.15 102.55 C 157.61 101.75 155.14 100.56 153.68 98.23 M 97.03 110.16 C 97.29 113.42 99.93 108.53 97.03 110.16 M 143.10 116.87 C 144.13 118.11 144.52 119.64 144.61 121.23 C 145.71 122.37 146.84 123.50 147.95 124.63 C 151.39 125.38 155.16 126.36 158.47 124.59 C 159.64 123.95 161.71 122.86 160.55 121.24 C 158.59 118.98 156.71 116.36 153.89 115.14 C 150.15 114.19 146.83 116.97 143.10 116.87 M 95.72 130.93 C 96.88 127.32 96.66 122.44 92.49 120.91 C 91.83 124.59 93.46 128.14 95.72 130.93 M 101.22 167.11 C 95.06 169.31 89.08 171.97 82.94 174.24 C 82.88 176.59 82.36 179.25 84.51 180.87 C 88.80 178.57 93.53 177.28 98.04 175.49 C 106.72 172.50 115.14 168.87 123.78 165.78 C 123.44 163.83 124.03 161.36 122.03 160.15 C 117.05 161.00 112.53 163.71 107.53 164.68 C 107.23 159.19 107.73 153.71 107.74 148.22 C 105.62 146.41 103.55 144.54 101.46 142.70 C 101.27 150.83 101.34 158.97 101.22 167.11 M 166.91 155.60 C 166.10 159.36 166.10 163.30 164.51 166.89 C 166.92 167.96 169.31 169.17 171.92 169.67 C 175.48 169.91 179.19 169.23 182.63 170.53 C 185.44 171.37 187.58 173.45 189.95 175.07 C 192.24 176.61 195.53 176.33 197.32 178.64 C 196.52 178.83 194.94 179.21 194.15 179.40 C 193.97 184.99 193.32 190.59 194.60 196.12 C 194.72 200.47 198.44 203.67 198.58 208.00 C 199.07 211.72 198.23 215.53 199.15 219.21 C 198.79 219.64 198.06 220.50 197.69 220.93 C 197.54 225.20 195.98 229.67 197.64 233.79 C 201.71 233.99 205.79 233.46 209.85 233.80 C 211.98 234.37 213.85 235.61 215.84 236.51 C 218.25 236.24 220.59 236.92 222.95 237.25 C 224.96 236.14 226.94 234.97 229.06 234.07 C 227.05 230.28 222.36 231.29 219.35 228.91 C 216.49 227.01 214.96 223.79 212.53 221.45 C 210.95 219.90 209.32 218.40 207.78 216.82 C 207.25 212.87 205.97 208.99 206.29 204.97 C 206.69 199.67 206.42 194.33 205.23 189.14 C 204.43 186.04 205.75 182.96 205.44 179.84 C 205.15 176.80 206.82 173.99 206.72 170.96 C 204.92 167.12 204.08 161.95 199.46 160.50 C 194.90 159.07 191.98 155.03 187.77 152.99 C 184.43 150.72 180.73 149.12 176.88 147.93 C 172.29 148.24 168.80 151.63 166.91 155.60 M 109.36 149.28 C 109.24 153.73 109.11 158.18 109.01 162.63 C 112.70 161.30 116.32 159.78 120.09 158.67 C 116.34 155.74 112.71 152.65 109.36 149.28 M 151.44 167.00 C 151.37 168.70 151.01 170.49 151.99 172.03 C 153.87 176.17 154.89 180.66 154.38 185.22 C 163.55 183.16 172.70 180.84 181.47 177.42 C 182.90 175.06 180.48 172.15 177.99 172.43 C 173.26 172.96 168.55 171.61 164.58 169.05 C 160.57 171.88 158.48 166.47 155.84 164.48 C 154.37 165.33 152.91 166.17 151.44 167.00 M 128.31 173.95 C 132.88 179.12 135.76 185.79 135.50 192.75 C 134.30 199.23 136.98 205.54 138.66 211.69 C 138.22 211.59 137.32 211.39 136.87 211.30 C 136.12 208.85 135.30 206.44 134.41 204.05 C 132.13 208.37 130.75 213.17 130.31 218.02 C 130.52 225.55 134.27 232.50 134.29 240.07 C 134.39 242.74 133.48 245.32 133.35 247.98 C 134.50 254.01 137.85 259.45 138.37 265.61 C 141.65 269.61 147.91 271.00 151.98 267.34 C 151.47 266.82 150.44 265.77 149.92 265.25 C 146.62 266.14 143.23 265.93 139.89 265.40 C 140.50 264.50 141.25 263.67 142.47 263.89 C 144.97 263.90 147.47 263.75 149.96 263.36 C 152.22 263.19 151.85 267.05 153.99 267.12 C 154.72 266.87 156.18 266.36 156.91 266.10 C 155.14 262.70 152.57 259.86 150.11 256.97 C 147.65 252.53 144.21 248.51 143.11 243.44 C 142.88 243.35 142.43 243.17 142.20 243.08 C 139.28 244.40 138.81 248.11 136.19 249.91 C 136.25 246.22 138.40 242.38 141.91 240.97 L 142.41 240.47 C 142.06 235.89 141.89 231.25 142.81 226.73 C 143.54 223.77 145.24 221.12 145.80 218.11 C 146.12 215.09 145.90 212.04 145.97 209.01 C 145.43 208.06 144.18 208.56 143.33 208.53 C 146.91 205.12 146.42 199.82 148.83 195.78 C 149.99 194.00 150.24 191.88 149.36 189.92 C 149.88 188.08 149.95 186.17 149.70 184.28 C 148.59 183.04 147.51 181.78 146.44 180.51 C 145.97 180.71 145.01 181.11 144.53 181.31 C 143.10 183.01 141.53 184.73 139.18 184.97 C 141.43 182.32 143.96 179.16 147.89 180.17 C 149.05 181.35 150.48 182.36 151.24 183.87 C 151.42 186.21 151.43 188.56 151.50 190.90 C 152.60 186.39 152.64 181.59 151.60 177.07 C 150.28 173.34 148.04 170.00 145.82 166.75 C 142.03 165.77 137.82 165.62 133.99 166.54 C 131.29 168.20 130.04 171.40 128.31 173.95 M 126.92 177.14 C 126.54 178.51 127.05 179.06 128.43 178.80 C 128.76 177.42 128.26 176.87 126.92 177.14 M 153.50 188.43 C 151.59 192.66 150.35 197.17 148.74 201.52 C 146.28 207.80 149.20 214.66 147.19 221.02 C 146.13 223.92 144.98 226.80 144.14 229.78 C 155.71 225.34 167.48 221.38 178.90 216.53 C 179.21 215.20 179.51 213.86 179.81 212.53 C 178.26 211.96 176.77 211.17 175.13 210.90 C 168.33 212.62 161.89 215.55 155.05 217.12 C 154.60 207.01 155.64 196.92 155.51 186.83 C 155.01 187.23 154.00 188.03 153.50 188.43 Z" />
<path fill="#333333" opacity="1.00" d=" M 208.73 61.93 C 212.19 61.92 213.40 65.63 214.80 68.13 C 218.99 78.16 218.98 89.86 214.95 99.95 C 213.84 101.97 212.90 104.96 210.09 104.89 C 211.74 101.93 213.79 99.15 214.82 95.88 C 216.71 89.60 216.67 82.88 215.79 76.42 C 214.92 70.98 211.83 66.34 208.73 61.93 Z" />
<path fill="#333333" opacity="1.00" d=" M 28.37 96.19 C 32.76 94.02 38.66 92.73 42.82 96.13 C 48.27 100.67 49.57 108.00 51.35 114.47 C 51.50 124.69 51.30 136.13 44.33 144.34 C 41.70 147.94 36.97 147.25 33.08 147.69 C 27.14 147.13 23.83 141.18 22.07 136.11 C 21.28 133.03 19.42 129.72 20.85 126.59 C 16.24 127.72 11.43 127.91 6.93 129.48 C 6.50 128.92 5.65 127.80 5.23 127.25 L 4.97 124.65 C 6.01 125.44 7.04 126.25 8.07 127.05 C 7.98 126.22 7.81 124.56 7.72 123.73 L 6.93 125.89 C 6.37 125.08 5.82 124.27 5.27 123.45 C 9.63 121.45 14.68 121.50 19.34 120.45 C 20.00 111.87 21.62 102.17 28.37 96.19 M 28.15 98.27 C 23.16 103.49 21.74 110.92 20.94 117.84 C 20.60 118.41 19.93 119.54 19.59 120.10 C 23.74 119.47 27.75 118.24 31.89 117.56 C 32.79 119.61 33.18 121.81 33.12 124.06 C 29.15 125.13 25.11 125.90 21.06 126.52 C 22.20 131.72 23.38 137.14 26.59 141.52 C 28.15 143.52 30.35 145.38 33.01 145.42 C 36.61 145.26 41.00 145.81 43.47 142.56 C 48.99 135.79 50.18 126.51 49.87 118.04 C 49.17 109.34 46.47 98.98 37.53 95.36 C 34.38 96.22 30.57 95.70 28.15 98.27 M 9.57 123.60 C 9.64 124.46 9.80 126.18 9.88 127.04 C 17.23 125.39 24.66 124.08 32.03 122.53 C 31.63 121.58 31.78 119.23 30.02 120.06 C 23.19 121.18 16.46 122.90 9.57 123.60 Z" />
<path fill="#333333" opacity="1.00" d=" M 35.10 97.21 C 36.76 97.59 38.50 98.10 39.24 99.81 C 45.70 110.22 46.28 123.50 42.95 135.07 C 41.76 138.46 40.71 142.76 36.88 144.05 C 43.89 133.52 45.01 119.83 41.31 107.90 C 40.19 103.83 37.25 100.73 35.10 97.21 Z" />
<path fill="#333333" opacity="1.00" d=" M 164.00 100.70 C 165.83 102.07 164.87 105.62 164.49 107.70 C 163.29 106.18 163.70 102.77 164.00 100.70 Z" />
<path fill="#333333" opacity="1.00" d=" M 86.89 105.63 C 88.88 107.50 91.16 108.48 93.95 107.92 C 92.37 108.63 90.53 110.92 88.78 109.29 C 87.37 108.64 87.17 106.96 86.89 105.63 Z" />
<path fill="#333333" opacity="1.00" d=" M 119.45 117.46 C 122.00 115.39 124.29 113.03 126.70 110.81 C 127.44 114.27 123.29 115.35 121.28 117.24 C 117.85 119.40 118.65 124.17 119.94 127.37 C 119.31 128.80 118.65 130.22 117.61 131.41 C 122.48 132.41 126.91 136.58 132.08 134.35 C 131.91 137.02 128.47 137.46 126.57 136.35 C 126.65 136.95 126.82 138.15 126.91 138.75 L 128.25 137.78 C 128.42 138.36 128.77 139.51 128.94 140.09 C 127.39 139.66 125.98 138.94 124.76 137.89 C 125.33 137.26 125.90 136.62 126.48 135.99 C 123.94 134.54 121.03 134.13 118.16 133.99 C 117.17 133.55 116.32 132.93 115.60 132.13 C 116.12 130.75 116.74 129.42 117.31 128.07 C 116.31 124.46 116.94 120.31 119.45 117.46 Z" />
<path fill="#333333" opacity="1.00" d=" M 128.75 111.15 C 131.20 111.24 133.58 111.86 135.94 112.53 C 133.55 113.79 130.46 113.28 128.75 111.15 Z" />
<path fill="#333333" opacity="1.00" d=" M 130.59 115.47 C 131.27 115.69 131.96 115.92 132.64 116.16 C 132.90 118.40 133.70 120.72 133.00 122.96 C 131.54 125.01 128.57 124.31 126.57 125.47 C 125.25 127.21 124.35 129.43 122.04 130.06 C 123.58 126.08 126.52 121.88 131.35 122.44 C 131.53 120.08 131.19 117.74 130.59 115.47 Z" />
<path fill="#333333" opacity="1.00" d=" M 88.54 126.12 C 87.50 122.80 85.91 118.41 89.35 115.93 C 89.07 118.95 89.50 121.94 89.87 124.92 C 89.53 125.22 88.87 125.82 88.54 126.12 Z" />
<path fill="#333333" opacity="1.00" d=" M 111.35 119.84 C 113.53 118.99 113.10 122.35 111.38 122.47 C 109.27 123.29 109.88 120.12 111.35 119.84 Z" />
<path fill="#333333" opacity="1.00" d=" M 135.76 120.46 C 137.68 120.50 139.68 120.42 141.30 121.62 C 138.93 121.81 136.54 121.97 134.26 122.69 C 134.74 121.94 135.24 121.19 135.76 120.46 Z" />
<path fill="#333333" opacity="1.00" d=" M 100.28 123.81 C 102.19 120.92 105.25 122.12 108.01 122.90 C 108.08 123.86 108.22 125.77 108.29 126.73 C 110.53 126.40 112.78 123.48 114.95 125.01 C 111.58 126.44 110.86 131.51 106.69 130.98 C 107.96 130.26 109.14 129.42 110.36 128.64 C 108.55 128.01 106.69 127.51 104.77 127.30 C 103.44 130.24 107.26 132.34 108.54 134.69 C 108.16 135.55 107.79 136.41 107.43 137.28 C 105.75 134.54 104.08 131.80 102.37 129.09 C 103.67 127.50 104.94 125.89 106.23 124.30 C 104.24 124.19 102.26 124.03 100.28 123.81 Z" />
<path fill="#333333" opacity="1.00" d=" M 133.13 124.85 C 135.86 124.05 136.35 127.19 136.99 129.06 C 134.96 128.49 134.15 126.49 133.13 124.85 Z" />
<path fill="#333333" opacity="1.00" d=" M 110.64 134.79 C 111.56 133.07 113.64 133.57 115.23 133.35 C 114.54 135.33 112.21 134.54 110.64 134.79 Z" />
<path fill="#333333" opacity="1.00" d=" M 136.66 149.98 C 141.38 144.95 148.03 140.80 155.11 140.53 C 150.97 143.39 146.24 145.27 141.61 147.15 C 142.13 147.59 142.65 148.03 143.17 148.48 C 147.12 145.82 151.81 144.94 156.40 144.03 C 155.07 147.13 151.32 145.98 148.83 147.18 C 146.19 148.50 143.19 149.05 140.72 150.69 C 140.97 150.04 141.48 148.76 141.73 148.11 C 140.15 149.06 138.46 149.68 136.66 149.98 Z" />
<path fill="#333333" opacity="1.00" d=" M 157.19 153.26 C 156.85 150.36 157.43 147.37 160.16 145.82 C 158.96 148.22 157.98 150.71 157.19 153.26 Z" />
<path fill="#333333" opacity="1.00" d=" M 132.99 155.18 C 136.52 153.77 140.22 152.85 143.98 152.33 C 141.10 155.37 136.90 155.57 132.99 155.18 Z" />
<path fill="#333333" opacity="1.00" d=" M 194.39 161.79 C 197.35 163.38 198.71 166.76 198.80 169.98 C 197.67 171.66 196.09 173.62 193.84 173.42 C 190.00 173.36 187.02 170.40 185.35 167.19 C 188.38 168.74 190.65 171.82 194.13 172.40 C 199.01 170.31 195.76 165.19 194.39 161.79 Z" />
<path fill="#333333" opacity="1.00" d=" M 142.32 196.31 C 143.51 196.29 144.70 196.28 145.89 196.28 C 145.84 196.80 145.73 197.84 145.68 198.36 C 144.70 198.33 143.73 198.30 142.76 198.27 C 142.65 197.78 142.43 196.80 142.32 196.31 Z" />
<path fill="#333333" opacity="1.00" d=" M 142.84 210.49 C 143.47 210.30 144.05 210.44 144.57 210.91 C 142.73 214.03 142.86 217.63 142.58 221.09 C 142.53 222.13 142.04 222.93 141.10 223.49 C 140.63 219.10 140.89 214.52 142.84 210.49 Z" />
<path fill="#333333" opacity="1.00" d=" M 202.55 228.04 C 199.60 226.80 198.79 222.16 201.19 220.02 C 201.12 222.77 201.68 225.45 202.55 228.04 Z" />
</g>
</svg>
