<?xml version="1.0" encoding="UTF-8" ?>
<!DOCTYPE svg PUBLIC "-//W3C//DTD SVG 1.1//EN" "http://www.w3.org/Graphics/SVG/1.1/DTD/svg11.dtd">
<svg width="186pt" height="300pt" viewBox="0 0 186 300" version="1.1" xmlns="http://www.w3.org/2000/svg"><g id="#474844ff">
<path fill="#333333" opacity="1.00" d=" M 98.43 17.66 C 103.46 16.81 109.58 16.59 113.32 20.69 C 116.70 26.43 116.05 33.43 115.02 39.74 C 127.35 40.22 139.59 42.21 151.92 42.92 C 151.18 43.54 150.44 44.16 149.70 44.78 C 146.55 44.11 143.32 43.91 140.13 44.38 C 142.06 45.00 144.09 44.97 146.07 44.51 C 146.22 45.12 146.52 46.34 146.66 46.95 C 140.42 46.53 134.18 45.17 127.92 45.41 C 127.78 44.84 127.51 43.69 127.37 43.12 C 132.00 43.64 136.69 44.28 141.35 43.69 C 132.45 42.65 123.47 42.17 114.60 40.76 C 117.93 43.43 122.89 42.22 126.87 42.94 C 126.17 43.55 125.47 44.15 124.76 44.75 C 113.90 43.18 102.94 42.47 92.06 41.13 C 87.62 41.37 83.36 39.34 78.91 40.25 C 78.84 39.81 78.70 38.93 78.63 38.49 C 82.25 38.94 85.91 38.96 89.54 39.36 C 90.63 34.50 88.14 29.64 89.71 24.82 C 90.16 20.47 94.61 18.34 98.43 17.66 M 93.03 20.95 C 88.59 26.28 92.30 33.25 91.03 39.33 C 93.25 40.05 95.69 40.31 97.87 39.29 C 98.51 39.76 99.15 40.22 99.78 40.69 C 104.16 40.69 108.50 41.32 112.86 41.72 C 114.00 35.58 113.84 29.18 112.35 23.11 C 112.04 20.83 109.76 19.86 108.22 18.51 C 103.21 18.74 97.05 17.17 93.03 20.95 Z" />
<path fill="#333333" opacity="1.00" d=" M 60.38 39.60 C 66.32 40.18 72.21 39.65 77.86 37.68 C 77.10 38.35 76.33 39.01 75.56 39.67 L 77.61 38.96 C 78.43 40.87 79.07 42.86 79.37 44.93 C 85.61 44.91 91.72 46.27 97.90 46.85 C 105.03 46.79 111.98 48.58 119.09 48.83 C 140.70 51.57 162.50 52.91 184.04 56.17 C 182.82 56.95 181.46 57.54 179.98 57.23 C 166.18 55.80 152.39 54.07 138.55 53.01 C 138.33 54.60 138.38 56.26 137.86 57.79 C 135.41 59.72 131.99 59.01 129.08 59.19 C 129.45 61.45 129.56 63.74 129.27 66.01 C 128.66 71.34 129.86 76.89 128.04 82.05 C 126.82 85.89 123.98 89.02 123.16 93.00 C 122.79 94.33 122.60 95.74 122.01 97.01 C 120.88 98.62 118.68 97.84 117.04 98.13 C 116.49 97.50 115.40 96.23 114.86 95.60 C 112.15 99.51 111.66 104.43 111.73 109.05 C 111.68 111.94 113.87 114.21 114.25 116.99 C 114.00 119.17 113.13 121.21 112.46 123.28 C 113.09 125.26 113.69 127.24 114.40 129.19 C 114.04 129.64 113.32 130.55 112.97 131.01 C 114.12 135.68 115.26 140.36 116.19 145.08 C 116.52 149.43 116.01 153.82 115.55 158.15 C 115.00 163.23 111.82 167.75 112.17 172.96 C 112.44 178.54 110.00 183.72 108.77 189.05 C 107.12 193.89 109.11 198.95 108.42 203.89 C 107.56 211.71 104.29 219.59 106.88 227.44 C 109.25 232.96 109.71 239.13 112.63 244.45 C 114.08 245.89 115.43 247.43 117.03 248.72 C 120.07 248.45 122.94 246.86 126.05 247.35 C 146.03 249.06 166.03 250.69 186.00 252.58 L 186.00 254.65 C 171.12 252.82 156.14 251.94 141.22 250.51 C 141.28 252.89 141.76 255.28 141.50 257.66 C 138.81 258.63 135.96 259.19 133.39 260.48 C 136.76 261.22 140.20 261.68 143.64 262.02 L 143.76 260.94 C 144.01 261.71 144.52 263.25 144.78 264.03 C 137.27 263.65 129.47 260.86 122.12 263.63 C 111.02 267.20 99.88 270.62 88.78 274.19 C 85.84 275.29 82.71 275.01 79.66 274.73 C 99.79 269.09 119.49 262.03 139.54 256.15 C 139.59 255.13 139.69 253.07 139.75 252.05 C 117.44 258.98 95.19 266.11 72.94 273.25 C 71.68 272.76 70.43 272.26 69.17 271.80 C 74.87 271.33 80.02 268.59 85.55 267.31 C 102.45 261.23 119.98 257.03 136.74 250.55 C 130.85 249.33 124.60 248.43 118.81 250.57 C 119.44 254.48 115.51 256.84 112.13 257.06 C 108.68 256.97 105.29 256.29 101.96 255.47 C 96.90 258.30 91.08 259.20 85.78 261.44 C 86.11 262.19 86.76 263.68 87.09 264.43 C 85.66 265.10 84.24 265.78 82.82 266.45 C 77.11 267.23 71.24 269.00 65.57 266.89 C 65.29 267.26 64.73 267.99 64.45 268.36 C 61.50 269.19 58.55 270.03 55.62 270.94 C 82.34 277.64 109.22 283.69 136.03 290.04 C 135.21 290.55 134.39 291.06 133.57 291.57 C 106.85 285.04 80.02 278.95 53.27 272.52 C 53.19 277.62 53.10 282.71 53.18 287.81 C 64.66 291.03 76.11 294.34 87.60 297.47 C 90.05 298.13 92.45 298.98 94.77 300.00 L 89.61 300.00 C 78.08 296.85 66.60 293.52 55.05 290.43 C 53.30 289.79 50.28 289.50 50.57 286.95 C 50.50 281.39 50.50 275.80 51.07 270.27 C 55.21 268.74 59.29 266.95 63.67 266.20 C 61.33 263.21 60.40 259.53 59.40 255.95 C 58.67 252.94 56.15 250.85 55.07 248.02 C 54.29 244.95 54.40 241.63 55.66 238.69 C 55.89 238.86 56.37 239.20 56.60 239.37 C 56.71 239.69 56.92 240.33 57.03 240.65 L 58.11 241.55 C 57.84 240.29 57.56 239.04 57.25 237.80 C 58.94 230.45 55.23 223.42 55.53 216.07 C 55.57 209.03 58.07 202.32 61.33 196.18 C 63.38 192.41 64.25 188.16 64.58 183.92 C 64.68 180.50 66.92 177.50 66.64 174.05 C 66.30 167.18 65.47 160.28 66.12 153.40 C 65.56 152.65 65.04 151.88 64.55 151.08 C 66.03 146.15 66.75 141.03 67.87 136.03 C 66.37 129.81 67.12 123.46 67.69 117.16 C 68.12 113.26 72.78 111.81 73.36 107.93 C 74.71 101.50 74.47 94.48 71.34 88.57 C 68.87 94.90 63.04 98.61 57.79 102.43 C 54.88 101.21 52.14 99.34 50.71 96.45 C 47.61 90.32 43.81 84.43 42.32 77.63 C 40.57 72.50 41.29 66.98 39.83 61.81 C 38.07 61.23 35.25 61.81 34.58 59.62 C 33.96 58.26 33.18 56.62 34.46 55.37 C 35.79 53.85 38.01 53.80 39.79 53.19 C 39.79 52.48 39.79 51.07 39.79 50.36 C 44.06 47.89 48.99 47.30 53.75 48.51 C 54.72 49.53 55.69 50.53 56.69 51.51 C 56.61 49.01 56.26 46.52 56.43 44.02 C 57.20 42.13 58.95 40.94 60.38 39.60 M 61.67 41.26 C 60.56 42.15 59.43 43.01 58.46 44.05 C 58.01 47.02 58.83 50.11 57.86 53.02 C 56.98 54.72 55.06 52.96 53.72 52.87 C 53.43 51.29 52.31 50.15 51.29 49.01 C 47.95 49.21 44.02 48.64 42.04 52.00 C 42.54 54.11 45.91 54.46 45.58 57.12 C 46.53 59.65 44.25 61.05 42.15 61.55 C 42.21 63.03 42.23 64.51 42.10 65.98 C 41.57 71.45 43.56 76.71 45.15 81.84 C 46.38 85.88 49.09 89.21 50.77 93.05 C 52.18 96.12 53.61 99.50 56.88 101.02 C 59.54 98.91 62.22 96.83 64.89 94.74 C 67.79 92.36 68.52 88.48 70.51 85.47 C 71.88 83.46 73.26 81.43 74.17 79.16 C 71.39 81.50 66.99 84.41 63.72 81.32 C 69.55 81.03 74.14 76.78 78.05 72.85 C 76.74 77.61 75.58 82.63 72.14 86.38 C 74.38 90.93 75.99 95.93 75.88 101.04 C 76.03 104.03 75.53 107.73 78.38 109.68 C 83.01 112.39 88.63 113.46 93.95 112.59 C 98.56 111.80 103.30 111.35 107.66 109.52 C 107.73 106.56 107.53 103.53 108.27 100.64 C 108.53 103.64 108.31 106.66 108.20 109.67 C 112.67 106.86 108.74 100.58 111.96 96.87 C 115.62 92.01 115.45 85.72 114.00 80.11 C 115.93 76.33 118.66 72.37 117.87 67.91 C 117.32 64.21 114.27 61.71 111.89 59.12 C 108.65 59.16 105.41 59.17 102.18 59.09 L 102.80 60.41 C 94.23 56.56 83.36 59.31 76.08 52.33 C 68.17 52.11 63.29 60.75 63.89 67.89 C 66.19 66.70 68.47 65.38 71.04 64.86 C 73.03 64.48 75.30 63.37 77.03 64.97 C 71.31 65.92 66.59 69.38 61.10 70.94 C 59.76 72.84 58.83 74.96 58.14 77.16 C 60.72 79.60 62.68 82.56 64.67 85.47 C 64.27 85.37 63.47 85.17 63.07 85.07 C 61.06 81.81 58.33 79.10 55.34 76.74 C 51.59 73.71 50.05 68.65 50.19 63.98 C 51.33 62.31 53.59 62.17 55.10 60.97 C 55.99 59.62 56.61 58.12 57.31 56.67 C 57.95 56.71 59.22 56.79 59.86 56.83 C 61.11 53.04 60.51 48.99 61.17 45.14 C 66.15 41.32 72.84 46.63 78.05 43.09 C 77.47 42.62 76.30 41.68 75.72 41.21 C 71.05 41.15 66.35 41.93 61.67 41.26 M 63.31 45.89 C 63.05 48.01 62.79 50.13 62.56 52.26 C 65.95 52.73 69.06 51.56 72.19 50.52 C 76.16 50.86 80.84 51.45 83.65 54.61 C 88.45 54.91 93.34 54.67 98.02 56.01 C 102.15 57.28 106.72 57.07 110.79 55.69 C 112.57 55.05 111.90 52.71 111.79 51.29 C 108.44 48.63 103.88 49.46 99.95 48.68 C 90.59 47.69 81.25 46.31 71.85 46.26 C 69.01 46.01 66.16 45.35 63.31 45.89 M 113.33 50.05 C 113.31 51.91 113.28 53.76 113.20 55.62 C 120.82 56.31 128.52 57.73 136.22 56.68 C 136.51 55.32 136.79 53.97 137.06 52.61 C 129.13 51.89 121.21 51.13 113.33 50.05 M 57.93 59.48 C 57.89 62.93 54.34 63.44 51.99 64.84 C 51.54 69.13 53.74 73.53 57.09 76.25 C 57.32 72.79 59.52 70.18 61.87 67.86 C 62.27 64.25 62.58 60.31 64.85 57.31 C 64.76 56.33 64.66 55.35 64.55 54.37 C 60.97 54.72 61.91 60.47 57.93 59.48 M 36.93 55.95 C 35.43 56.61 35.92 58.94 37.09 59.66 C 38.86 59.73 40.62 59.44 42.39 59.63 C 44.31 58.83 43.77 56.89 43.38 55.33 C 41.26 55.43 38.80 54.59 36.93 55.95 M 112.45 58.24 C 114.13 59.88 115.76 61.56 117.42 63.23 C 116.69 61.45 117.12 58.99 115.59 57.59 C 114.47 57.21 113.34 57.49 112.45 58.24 M 118.70 58.13 C 118.78 59.84 118.87 61.55 118.95 63.27 C 118.51 63.29 117.64 63.35 117.20 63.37 C 118.37 65.37 119.57 67.50 119.62 69.88 C 120.01 74.75 114.92 78.95 117.13 83.79 C 118.48 87.55 117.15 91.47 115.88 95.04 C 117.34 96.02 120.18 97.89 120.57 95.00 C 120.46 89.48 125.79 86.13 126.40 80.81 C 126.93 77.25 127.43 73.62 127.07 70.02 C 126.57 66.36 128.18 62.89 128.69 59.33 C 125.33 59.18 122.00 58.74 118.70 58.13 M 70.30 115.27 C 68.13 121.06 68.83 127.43 68.40 133.50 L 69.66 133.45 C 70.16 139.11 67.63 144.45 67.02 150.03 C 68.98 152.62 72.70 153.03 75.50 154.42 C 80.34 156.70 85.96 156.38 90.78 154.23 C 91.71 153.22 92.66 152.21 93.63 151.22 C 93.66 148.98 93.69 146.73 93.75 144.49 C 95.81 142.76 97.40 140.50 99.69 139.06 C 100.03 142.06 97.36 143.73 95.76 145.82 C 95.42 148.25 95.50 150.71 95.48 153.16 C 101.77 154.09 108.46 153.34 113.96 149.98 C 115.19 142.78 110.47 136.15 111.35 128.97 C 111.51 127.14 110.38 125.54 109.78 123.90 C 110.73 121.66 111.69 119.43 112.43 117.12 C 111.74 115.31 109.01 112.69 111.18 111.02 C 110.82 110.43 110.46 109.85 110.09 109.27 C 108.20 111.83 105.13 112.67 102.13 112.93 C 96.72 113.36 91.28 114.99 85.86 113.90 C 81.82 113.09 77.09 112.80 74.66 108.93 C 74.61 111.91 72.18 113.41 70.30 115.27 M 100.00 155.63 C 98.17 155.83 96.52 155.01 94.97 154.17 C 93.61 154.61 92.26 155.07 90.92 155.55 C 91.35 156.30 91.79 157.04 92.25 157.78 C 91.44 160.31 91.24 162.96 91.23 165.61 C 95.93 173.67 92.02 183.41 95.87 191.74 C 95.40 191.52 94.46 191.09 93.99 190.87 C 93.43 193.81 94.36 197.73 91.45 199.64 C 90.48 203.27 89.41 207.30 91.00 210.91 C 93.01 215.78 93.79 221.14 93.21 226.38 C 93.99 225.99 95.55 225.21 96.34 224.82 C 96.20 227.18 95.62 229.47 95.12 231.76 C 96.44 233.87 96.77 236.29 96.55 238.73 C 96.11 238.65 95.25 238.47 94.82 238.39 C 94.19 235.01 92.40 231.74 93.71 228.25 C 91.58 230.47 88.96 232.30 87.32 234.97 C 86.99 236.38 87.39 237.53 88.53 238.41 C 91.20 241.10 95.38 241.44 98.20 243.82 C 99.67 246.51 101.45 249.18 101.71 252.33 C 103.24 252.85 104.78 253.34 106.32 253.84 C 107.87 255.24 109.81 255.67 111.86 255.43 C 113.43 254.07 115.07 252.80 116.78 251.63 C 115.89 250.85 115.42 249.87 115.37 248.70 C 113.39 247.77 111.14 247.01 109.85 245.11 C 108.55 239.44 107.31 233.70 104.83 228.40 C 104.34 225.61 104.26 222.75 103.84 219.94 C 103.25 215.77 105.79 212.01 105.84 207.89 C 105.86 203.60 106.60 199.32 106.05 195.05 C 105.33 190.12 108.69 185.91 108.94 181.07 C 110.21 177.37 109.94 173.47 109.42 169.66 C 109.74 169.17 110.38 168.19 110.70 167.70 C 108.48 169.65 107.34 172.83 104.36 173.88 C 104.00 173.45 103.29 172.59 102.93 172.17 C 102.34 172.23 101.17 172.34 100.59 172.40 C 100.35 172.24 99.89 171.92 99.65 171.75 C 100.86 170.09 98.75 168.86 98.00 167.63 C 99.81 168.42 100.66 170.11 100.48 172.08 C 102.89 171.84 105.93 171.52 106.94 168.91 C 108.14 166.93 107.56 163.81 109.90 162.70 C 110.21 164.34 110.39 166.06 111.27 167.53 C 113.57 162.77 113.81 157.57 114.01 152.40 C 109.78 154.89 104.79 155.34 100.00 155.63 M 68.59 154.05 C 68.17 158.01 67.41 161.99 67.92 165.98 C 68.32 170.65 69.85 175.55 67.86 180.06 C 66.15 184.24 66.82 188.97 64.89 193.08 C 61.84 199.76 57.74 206.40 57.75 213.98 C 57.35 219.08 58.68 224.06 59.46 229.06 C 60.15 233.20 60.16 237.41 60.61 241.58 C 61.02 241.54 61.83 241.45 62.23 241.40 C 62.55 243.04 62.90 244.67 63.04 246.35 C 61.94 245.04 60.95 243.63 59.97 242.24 C 59.58 242.44 58.79 242.84 58.39 243.04 C 57.22 240.24 56.35 242.53 55.48 243.85 C 56.58 247.99 59.54 251.27 60.84 255.29 C 62.20 258.91 63.66 262.84 67.20 264.87 C 68.40 264.75 69.64 264.17 70.83 264.62 C 75.35 266.61 80.17 264.25 84.78 263.78 C 85.64 261.91 83.80 260.96 82.55 260.01 C 81.46 260.94 80.38 261.87 79.30 262.81 C 78.91 262.47 78.51 262.14 78.11 261.82 C 74.89 262.27 71.63 261.58 68.40 261.60 C 68.53 261.13 68.81 260.21 68.95 259.74 C 71.87 259.57 74.79 259.62 77.70 259.93 L 77.61 261.68 C 79.21 261.32 80.23 260.18 80.45 258.56 L 79.20 259.45 C 75.89 255.85 76.57 250.59 74.34 246.44 C 72.48 243.31 72.59 239.36 70.29 236.48 C 71.50 232.77 69.82 228.90 70.65 225.14 C 71.67 220.32 74.56 216.00 74.91 211.02 C 75.09 206.49 75.03 201.81 76.67 197.51 C 78.60 193.36 79.57 188.79 82.22 184.99 C 84.17 182.26 83.58 178.62 85.49 175.87 C 85.70 175.06 85.92 174.25 86.15 173.44 C 88.58 169.10 89.35 163.97 89.33 159.05 C 89.39 157.23 87.00 158.15 85.94 158.05 C 79.82 158.95 74.03 156.50 68.59 154.05 M 85.82 176.81 C 86.12 180.06 85.82 183.40 84.03 186.22 C 81.51 190.04 80.32 194.47 78.43 198.59 C 77.02 203.96 77.39 209.63 76.03 215.03 C 75.12 220.37 71.32 225.25 72.57 230.86 C 72.82 238.73 77.45 245.48 78.61 253.15 C 79.02 257.01 83.35 259.31 86.95 258.67 C 92.03 257.58 96.74 255.04 101.97 254.61 C 98.42 252.55 97.78 248.34 95.36 245.37 C 92.70 243.15 88.48 242.59 87.21 238.96 C 85.06 234.51 88.46 230.18 91.67 227.37 C 91.47 224.89 91.42 222.39 90.98 219.94 C 90.24 213.99 86.60 208.36 88.34 202.22 C 88.37 199.55 91.45 198.49 91.49 195.83 C 92.80 190.91 91.04 185.87 91.81 180.90 C 92.52 176.18 91.34 171.55 90.59 166.93 C 89.60 170.49 88.08 173.87 85.82 176.81 Z" />
<path fill="#333333" opacity="1.00" d=" M 151.13 45.05 C 151.84 44.45 152.54 43.84 153.25 43.24 C 159.51 43.65 165.72 44.58 171.98 44.94 C 171.21 45.55 170.44 46.16 169.66 46.77 C 163.47 46.32 157.34 45.13 151.13 45.05 Z" />
<path fill="#333333" opacity="1.00" d=" M 173.25 45.20 C 177.50 45.64 181.78 45.72 186.00 46.44 L 186.00 48.23 C 180.88 49.36 176.25 46.13 171.12 47.00 C 171.83 46.40 172.55 45.80 173.25 45.20 Z" />
<path fill="#333333" opacity="1.00" d=" M 147.02 47.01 C 147.78 46.43 148.55 45.86 149.32 45.29 C 151.63 45.65 153.97 45.89 156.30 45.50 C 156.28 46.50 156.27 47.49 156.27 48.49 C 153.48 46.83 150.09 47.30 147.02 47.01 Z" />
<path fill="#333333" opacity="1.00" d=" M 157.95 48.45 C 157.79 47.84 157.47 46.62 157.30 46.01 C 163.19 46.63 169.08 47.35 175.00 47.34 C 177.88 47.33 180.36 49.18 183.27 49.11 L 183.31 50.32 C 174.82 50.23 166.42 48.09 157.95 48.45 Z" />
<path fill="#333333" opacity="1.00" d=" M 99.30 51.56 C 101.11 49.67 101.39 57.22 98.96 54.92 C 98.62 53.85 98.45 52.45 99.30 51.56 Z" />
<path fill="#333333" opacity="1.00" d=" M 78.34 65.97 C 79.42 64.79 80.53 62.85 82.46 63.35 C 83.74 64.03 85.96 65.04 84.63 66.74 C 83.74 66.28 82.86 65.79 82.01 65.25 C 81.09 65.43 79.26 65.79 78.34 65.97 Z" />
<path fill="#333333" opacity="1.00" d=" M 80.93 68.66 C 84.11 70.12 84.82 73.90 87.03 76.31 C 91.48 78.91 96.83 78.50 101.76 77.96 C 102.86 76.27 103.92 74.37 106.05 73.86 C 105.63 76.10 104.70 78.52 102.34 79.29 C 97.00 81.09 91.03 80.21 85.97 77.94 C 83.76 75.22 81.54 72.21 80.93 68.66 Z" />
<path fill="#333333" opacity="1.00" d=" M 106.45 75.81 C 108.82 76.23 111.46 76.22 113.30 78.01 C 111.06 78.26 108.77 78.18 106.57 77.68 C 106.54 77.21 106.48 76.27 106.45 75.81 Z" />
<path fill="#333333" opacity="1.00" d=" M 105.85 82.65 C 106.56 82.14 107.28 81.65 108.02 81.18 C 108.85 81.87 109.68 82.56 110.49 83.27 C 111.06 85.06 112.17 86.58 113.21 88.12 C 110.51 87.54 110.42 83.83 108.19 83.20 C 108.97 89.11 107.24 95.25 103.88 100.16 C 103.37 102.00 103.66 104.21 101.96 105.51 C 101.59 102.42 101.81 99.24 104.16 96.95 C 106.23 92.65 108.26 87.27 105.85 82.65 Z" />
<path fill="#333333" opacity="1.00" d=" M 80.11 84.45 C 82.69 84.95 84.73 83.57 86.46 81.82 C 86.12 82.97 85.79 84.13 85.49 85.29 C 87.09 86.54 88.84 87.61 90.26 89.09 C 88.17 88.31 85.75 87.69 84.54 85.62 C 83.07 85.69 81.59 85.78 80.12 85.86 C 80.12 85.51 80.11 84.80 80.11 84.45 Z" />
<path fill="#333333" opacity="1.00" d=" M 98.60 85.79 C 99.83 83.77 101.68 82.18 104.13 82.05 C 101.15 84.71 98.67 88.03 94.52 88.94 C 94.13 92.33 92.96 95.98 89.53 97.42 C 91.06 94.49 92.21 91.39 93.67 88.43 C 94.93 87.02 96.97 86.66 98.60 85.79 Z" />
<path fill="#333333" opacity="1.00" d=" M 83.59 87.67 C 84.54 90.10 86.47 91.88 88.11 93.85 C 86.46 93.16 84.87 92.35 83.29 91.55 C 80.81 92.70 78.51 91.64 77.75 89.07 C 79.00 89.61 80.25 90.17 81.49 90.74 C 82.21 89.73 82.91 88.71 83.59 87.67 Z" />
<path fill="#333333" opacity="1.00" d=" M 74.36 157.68 C 75.84 159.22 75.18 161.46 74.29 163.13 C 73.83 161.33 73.98 159.47 74.36 157.68 Z" />
<path fill="#333333" opacity="1.00" d=" M 72.83 173.83 C 74.19 171.21 77.88 171.62 80.30 170.48 C 80.32 170.93 80.35 171.82 80.37 172.26 C 77.94 173.15 75.40 173.67 72.83 173.83 Z" />
<path fill="#333333" opacity="1.00" d=" M 101.60 175.50 C 103.57 176.54 104.54 178.98 106.40 180.29 C 104.37 183.35 101.60 178.43 100.53 176.74 C 100.80 176.43 101.33 175.81 101.60 175.50 Z" />
<path fill="#333333" opacity="1.00" d=" M 71.60 177.89 C 74.47 176.99 74.81 179.88 75.60 181.79 C 77.64 182.39 79.72 182.05 81.77 181.72 C 81.24 183.19 80.26 184.37 79.05 185.33 C 75.27 184.59 72.09 181.84 71.60 177.89 Z" />
<path fill="#333333" opacity="1.00" d=" M 103.37 189.33 C 100.06 190.15 99.18 183.32 102.60 182.93 C 102.90 185.05 103.39 187.17 103.37 189.33 Z" />
<path fill="#333333" opacity="1.00" d=" M 70.48 186.66 C 70.98 186.64 71.97 186.61 72.47 186.60 C 72.44 188.03 72.42 189.47 72.40 190.92 C 72.83 191.44 73.68 192.47 74.10 192.99 C 70.98 193.13 70.45 189.06 70.48 186.66 Z" />
<path fill="#333333" opacity="1.00" d=" M 97.51 196.34 C 97.97 196.33 98.89 196.30 99.36 196.28 C 100.70 201.68 101.49 207.87 98.76 212.97 C 98.71 207.41 99.38 201.70 97.51 196.34 Z" />
<path fill="#333333" opacity="1.00" d=" M 67.60 202.05 C 67.78 200.15 67.53 197.74 69.63 196.86 C 70.99 203.87 66.47 210.07 67.05 217.01 C 67.23 220.33 66.82 223.62 66.35 226.90 C 66.18 226.87 65.84 226.83 65.67 226.81 C 64.80 221.88 64.42 216.83 65.40 211.89 C 65.79 208.52 67.48 205.45 67.60 202.05 Z" />
<path fill="#333333" opacity="1.00" d=" M 62.99 201.87 C 63.40 201.66 64.24 201.23 64.66 201.02 C 62.78 207.05 60.48 213.11 61.33 219.56 C 60.91 219.49 60.06 219.34 59.64 219.27 C 59.19 213.25 60.19 207.25 62.99 201.87 Z" />
<path fill="#333333" opacity="1.00" d=" M 99.70 215.52 C 100.12 215.51 100.98 215.49 101.40 215.48 C 101.50 218.13 101.72 220.79 101.57 223.44 C 101.23 223.65 100.55 224.06 100.21 224.27 C 99.85 221.37 99.80 218.44 99.70 215.52 Z" />
<path fill="#333333" opacity="1.00" d=" M 102.23 231.74 C 105.10 234.75 105.55 239.14 106.69 242.97 C 105.57 242.82 104.68 242.19 104.50 241.03 C 103.68 237.95 102.58 234.92 102.23 231.74 Z" />
<path fill="#333333" opacity="1.00" d=" M 65.24 242.33 C 67.44 245.49 66.00 249.40 66.11 252.93 C 67.12 253.72 68.12 254.53 69.10 255.38 C 68.70 255.09 67.91 254.51 67.51 254.22 C 66.39 254.94 65.26 255.66 64.12 256.37 C 64.33 251.68 64.80 247.00 65.24 242.33 Z" />
<path fill="#333333" opacity="1.00" d=" M 145.89 264.10 C 145.42 263.31 144.93 262.52 144.45 261.74 C 158.23 263.86 172.19 264.69 186.00 266.60 L 186.00 268.69 C 175.61 267.01 165.09 266.30 154.65 265.08 L 155.01 263.48 C 152.00 264.06 149.00 264.89 145.89 264.10 Z" />
<path fill="#333333" opacity="1.00" d=" M 135.05 291.96 C 135.83 291.42 136.60 290.89 137.38 290.36 C 150.52 293.69 163.87 296.25 176.89 300.00 L 170.22 300.00 C 158.44 297.58 146.83 294.39 135.05 291.96 Z" />
</g>
</svg>
