<?xml version="1.0" encoding="UTF-8" ?>
<!DOCTYPE svg PUBLIC "-//W3C//DTD SVG 1.1//EN" "http://www.w3.org/Graphics/SVG/1.1/DTD/svg11.dtd">
<svg width="284pt" height="208pt" viewBox="0 0 284 208" version="1.1" xmlns="http://www.w3.org/2000/svg"><g id="#1a1a1aff">
<path fill="#333333" opacity="1.00" d=" M 184.64 27.49 C 186.67 22.63 192.09 20.77 196.90 20.02 C 200.96 19.94 204.28 22.50 207.91 23.92 C 209.63 26.99 212.28 30.15 211.48 33.91 C 211.57 38.95 208.07 43.41 209.27 48.50 C 211.85 51.23 215.74 53.15 216.67 57.09 C 217.12 60.56 220.47 62.08 222.59 64.41 C 224.10 68.02 223.73 72.05 224.21 75.85 C 226.80 81.78 230.35 88.10 228.59 94.79 C 230.62 99.61 230.30 104.92 231.54 109.92 C 232.92 117.20 234.22 124.55 234.28 131.98 C 234.09 135.74 237.10 139.74 234.01 143.06 C 231.04 145.37 227.80 147.56 224.13 148.62 C 226.38 145.98 229.25 144.08 232.15 142.25 C 234.13 141.05 234.00 138.51 234.55 136.55 C 233.92 136.45 232.65 136.24 232.02 136.14 C 231.73 130.78 232.55 125.28 230.97 120.07 C 229.82 115.62 229.91 110.95 228.55 106.56 C 227.67 103.61 228.12 100.47 227.31 97.51 C 225.98 93.62 227.43 89.43 226.28 85.52 C 224.55 81.49 221.55 77.66 221.78 73.05 C 222.04 69.39 220.27 66.05 218.73 62.86 C 218.62 63.27 218.40 64.10 218.28 64.52 C 215.13 62.81 209.65 63.46 208.65 59.16 C 211.53 59.94 214.24 61.21 216.97 62.42 C 215.56 57.63 212.04 53.99 208.67 50.51 C 206.62 48.30 207.75 45.24 207.58 42.57 C 211.26 36.58 209.57 27.89 203.91 23.66 C 198.32 21.77 191.01 21.89 187.16 27.00 C 185.34 30.06 183.26 33.31 183.46 37.03 C 183.44 41.88 182.35 46.99 184.50 51.58 C 187.19 53.38 190.78 52.27 193.73 51.69 C 197.84 50.77 199.54 46.60 202.59 44.18 C 202.15 49.07 199.09 53.20 196.61 57.27 C 197.54 58.02 198.48 58.74 199.44 59.45 C 200.49 58.63 201.56 57.83 202.64 57.06 C 201.60 60.31 199.78 63.53 200.41 67.06 C 201.23 69.31 202.67 71.25 204.02 73.21 C 205.25 73.60 206.47 74.00 207.69 74.43 C 207.44 72.95 207.21 71.46 207.01 69.98 C 210.17 72.72 210.59 77.26 210.81 81.19 C 209.96 79.94 209.20 78.62 208.48 77.29 C 207.52 76.67 206.55 76.05 205.58 75.44 C 205.64 78.30 204.98 81.31 206.12 84.05 C 207.95 88.64 209.53 93.60 213.62 96.75 C 213.49 94.03 213.28 91.30 213.58 88.58 C 215.62 92.66 215.00 97.31 215.29 101.71 C 214.48 100.60 213.68 99.50 212.89 98.39 C 213.72 102.34 213.98 106.45 215.57 110.20 C 216.86 113.82 219.10 117.01 220.17 120.71 C 220.56 120.08 220.95 119.45 221.33 118.82 C 220.83 115.55 220.37 112.04 222.10 109.03 C 223.71 105.95 224.13 102.50 223.65 99.09 C 218.69 95.50 216.66 89.32 214.46 83.86 C 214.61 81.26 215.58 78.80 216.39 76.36 C 217.71 75.94 219.05 75.53 220.40 75.18 C 219.25 76.23 217.98 77.15 216.87 78.24 C 216.35 81.47 216.29 84.76 216.27 88.02 C 219.44 91.07 222.07 94.62 224.60 98.20 C 225.83 99.54 225.85 101.45 226.35 103.11 C 225.39 105.59 223.97 107.88 223.25 110.45 C 222.56 114.29 224.55 119.00 221.42 122.12 C 224.05 126.07 224.75 130.85 225.74 135.40 C 226.86 136.75 228.05 138.07 228.90 139.62 C 226.53 140.40 225.40 137.57 223.78 136.39 C 220.23 137.45 216.91 139.51 213.12 139.51 L 215.03 140.37 C 214.16 142.62 212.90 144.71 212.16 147.00 C 212.78 148.97 213.74 150.82 214.50 152.73 C 216.01 153.46 217.53 154.16 219.08 154.81 C 221.04 152.76 222.76 150.45 224.99 148.67 C 224.45 152.02 222.05 154.59 219.32 156.39 C 216.58 155.77 212.37 155.76 211.78 152.24 C 210.71 148.04 206.47 146.17 203.49 143.50 C 198.81 139.53 193.51 136.24 189.40 131.64 C 192.27 131.89 194.27 134.03 196.42 135.68 C 200.89 139.38 205.58 142.79 209.94 146.62 C 210.86 144.39 211.93 142.23 212.83 139.99 C 205.73 134.69 197.45 130.55 192.18 123.19 C 195.00 123.30 196.63 125.78 198.61 127.42 C 203.16 131.68 208.70 134.69 213.47 138.68 C 215.94 135.78 219.19 133.75 223.13 133.97 C 221.35 126.17 217.21 119.25 214.24 111.90 C 210.91 107.41 213.11 101.66 211.65 96.64 C 208.86 100.97 207.01 105.87 203.91 110.01 C 199.92 114.53 195.33 118.51 190.52 122.12 C 189.78 125.66 188.91 129.12 189.31 132.80 C 188.26 136.05 187.30 139.50 185.29 142.32 C 184.05 144.32 181.59 144.59 179.61 145.47 C 177.91 146.36 176.50 147.72 174.82 148.65 C 171.63 149.39 168.19 148.74 165.17 150.20 C 159.09 149.48 154.85 155.23 148.88 154.82 C 146.83 154.82 145.34 153.23 143.71 152.22 C 136.76 154.81 128.71 151.95 122.30 156.23 C 118.57 159.03 113.57 157.95 109.63 160.24 C 106.42 161.53 103.65 163.61 100.65 165.25 C 96.48 166.46 92.41 168.54 87.96 168.30 C 83.18 168.32 78.38 167.79 73.82 166.30 C 61.63 162.68 51.55 176.45 39.34 172.59 C 37.21 170.97 34.80 169.01 34.44 166.17 C 33.24 160.14 33.74 153.85 31.49 148.01 C 33.80 148.86 35.11 151.12 35.20 153.50 C 35.70 157.90 35.35 162.51 37.17 166.66 C 37.66 167.70 38.15 168.75 38.64 169.79 C 40.49 170.41 42.38 170.90 44.28 171.37 C 46.16 170.33 48.10 169.33 50.28 169.10 C 51.12 168.59 51.97 168.08 52.82 167.58 C 56.65 168.38 59.54 165.53 62.47 163.65 C 66.92 162.60 71.62 162.63 76.00 163.99 C 85.91 166.91 96.73 164.76 105.42 159.40 C 109.03 157.00 113.43 156.56 117.50 155.35 C 121.86 154.24 125.51 151.02 130.18 150.99 C 136.71 150.48 144.73 152.29 149.55 146.59 C 149.31 147.53 149.08 148.49 148.85 149.44 C 147.79 150.08 146.75 150.74 145.71 151.40 C 146.60 151.98 147.49 152.56 148.38 153.14 C 149.13 152.20 149.90 151.27 150.68 150.35 C 150.72 146.61 151.32 142.76 150.38 139.08 C 148.28 133.68 143.87 129.63 139.19 126.40 C 133.39 128.12 127.53 130.70 123.43 135.30 L 123.07 135.01 C 122.87 135.74 122.48 137.21 122.29 137.94 C 124.20 135.93 126.11 133.84 128.63 132.59 C 126.13 136.14 123.17 139.39 121.60 143.50 C 118.46 144.74 114.99 145.30 111.61 145.31 C 111.25 145.07 110.52 144.61 110.16 144.37 C 112.91 143.69 115.76 143.54 118.49 142.76 C 120.09 141.59 121.06 139.77 122.32 138.27 C 121.94 137.60 121.55 136.95 121.16 136.29 C 113.51 136.72 108.77 143.41 102.05 146.06 C 96.18 147.03 90.06 146.92 84.44 149.12 C 81.07 150.52 77.19 150.13 74.00 151.95 C 70.25 154.09 66.07 155.76 63.18 159.11 C 59.84 162.42 56.22 167.05 50.94 166.24 C 46.76 166.20 45.39 161.73 42.53 159.53 C 38.28 156.40 37.03 150.67 32.53 147.78 C 26.82 143.99 23.56 136.07 26.51 129.61 C 23.07 129.48 19.56 129.51 16.24 130.57 C 13.70 133.52 15.28 137.52 15.21 140.99 C 15.25 149.30 15.41 157.62 15.62 165.93 C 15.63 174.62 16.74 183.29 16.13 191.99 C 15.53 191.41 14.54 190.96 14.70 189.95 C 14.12 170.60 13.53 151.27 13.26 131.91 C 14.07 130.87 14.82 129.76 15.78 128.85 C 19.13 128.24 22.54 127.93 25.92 127.50 C 26.17 127.76 26.66 128.29 26.91 128.56 C 26.75 125.43 29.69 124.85 31.86 123.82 C 32.82 124.33 33.79 124.84 34.75 125.35 C 34.96 125.02 35.37 124.36 35.58 124.03 C 35.50 124.42 35.33 125.21 35.25 125.61 C 35.78 125.87 36.83 126.41 37.36 126.68 C 39.76 128.96 42.91 130.35 45.06 132.95 C 47.77 136.63 52.67 136.90 56.59 138.57 C 60.80 140.58 65.90 140.00 69.92 137.79 C 76.40 135.39 82.96 132.99 89.87 132.23 C 95.44 131.72 98.83 126.84 103.16 123.98 C 106.26 121.78 110.42 122.58 113.63 120.68 C 119.47 116.73 127.12 118.15 133.11 114.46 C 137.50 113.85 142.28 115.09 146.45 112.81 C 149.09 112.48 149.92 109.94 151.22 108.03 C 152.43 107.68 153.68 107.50 154.96 107.49 C 156.38 105.47 157.74 103.36 158.23 100.89 C 158.65 98.72 160.78 97.63 161.93 95.91 C 162.56 93.76 162.82 91.50 163.61 89.40 C 165.05 87.28 167.17 85.62 168.18 83.22 C 170.41 78.24 167.66 72.30 170.60 67.53 C 172.21 64.65 172.46 61.33 173.03 58.15 C 175.81 55.43 179.09 52.55 183.11 52.15 C 179.48 44.36 181.15 35.03 184.64 27.49 M 186.15 55.14 C 186.09 56.46 187.82 56.48 188.62 57.16 C 188.44 57.56 188.08 58.37 187.90 58.78 C 186.84 58.25 185.79 57.71 184.73 57.19 C 184.58 56.64 184.27 55.56 184.11 55.02 C 183.31 54.84 181.69 54.48 180.88 54.30 C 177.43 55.77 175.24 58.58 174.62 62.31 C 177.10 60.63 179.68 58.90 182.63 58.14 C 178.05 61.23 173.70 65.22 171.75 70.53 C 170.84 72.93 171.96 75.41 172.47 77.76 C 175.93 78.46 178.15 75.68 180.48 73.69 C 181.33 70.42 182.97 67.41 184.58 64.47 C 185.16 63.09 186.74 63.07 187.96 62.64 C 185.68 66.59 183.54 70.63 181.92 74.90 C 180.77 76.34 181.69 78.02 182.18 79.51 C 182.67 79.64 183.65 79.90 184.14 80.03 C 185.42 81.54 186.91 82.85 188.23 84.33 C 185.66 83.45 183.32 82.03 180.77 81.09 C 180.43 80.14 180.10 79.18 179.78 78.23 C 176.73 80.50 171.87 78.86 170.16 82.93 L 172.80 82.47 C 172.50 83.00 171.90 84.08 171.60 84.61 C 170.35 85.38 169.12 86.17 167.90 86.98 C 169.49 87.84 171.03 88.79 172.52 89.81 C 172.64 88.50 172.75 87.19 172.87 85.89 C 173.50 85.30 174.13 84.71 174.76 84.13 C 173.90 83.34 173.06 82.54 172.29 81.68 C 173.30 81.75 175.33 81.90 176.35 81.97 C 176.40 84.68 175.16 87.15 174.15 89.59 C 178.10 90.52 180.60 93.67 182.42 97.09 C 178.78 97.00 178.15 91.87 174.29 92.38 C 171.42 91.27 168.53 90.24 165.77 88.88 C 165.32 90.86 164.89 92.85 164.39 94.82 C 164.79 95.04 165.59 95.48 165.99 95.70 C 161.16 97.82 160.03 103.05 157.85 107.30 C 163.36 109.10 168.64 111.49 173.82 114.08 C 173.53 113.28 172.97 111.68 172.68 110.88 L 173.94 110.96 C 174.11 107.72 178.07 107.22 180.14 105.44 C 177.12 105.18 173.44 105.04 172.25 101.65 C 170.88 101.29 169.52 100.92 168.17 100.53 C 167.49 100.99 166.83 101.45 166.16 101.92 L 168.45 102.81 C 167.32 104.14 165.94 105.28 164.14 105.45 C 164.40 104.89 164.92 103.78 165.18 103.22 C 166.76 99.28 168.17 95.21 170.84 91.83 C 171.35 92.54 171.87 93.25 172.39 93.97 C 170.99 95.62 169.77 97.42 168.52 99.19 C 170.35 99.42 172.18 99.67 174.01 99.93 C 174.45 100.97 174.89 102.01 175.32 103.06 C 177.66 103.48 180.03 103.81 182.42 103.82 C 180.20 106.99 176.49 108.61 174.44 111.91 C 174.92 112.56 175.41 113.20 175.90 113.85 C 179.72 114.94 182.41 118.04 184.76 121.09 C 181.99 119.06 179.00 117.43 175.74 116.44 C 175.85 120.69 176.14 124.94 175.81 129.20 C 174.56 124.57 173.07 119.96 172.60 115.16 C 167.83 114.25 163.47 110.98 158.47 111.86 C 156.42 111.39 154.39 110.82 152.38 110.24 C 151.68 111.51 151.30 112.91 150.97 114.32 C 147.75 114.24 144.96 116.04 141.86 116.57 C 138.67 117.15 135.47 116.37 132.28 116.23 C 134.00 117.37 135.95 118.18 137.49 119.57 C 138.53 121.17 138.91 123.09 139.39 124.91 C 142.26 124.99 144.94 124.03 147.57 122.99 C 148.47 121.35 149.45 119.76 150.48 118.20 C 151.21 118.77 151.94 119.35 152.66 119.93 C 152.25 120.28 151.43 120.99 151.03 121.34 C 151.50 122.26 151.98 123.19 152.46 124.12 C 149.77 125.57 146.69 125.43 143.73 125.62 C 147.31 129.77 150.83 134.08 153.09 139.11 C 155.35 143.28 150.90 148.14 153.61 152.21 C 155.80 150.98 157.83 149.48 160.05 148.32 C 164.69 146.44 169.93 147.97 174.64 146.65 C 176.80 144.78 179.27 143.35 181.68 141.84 C 186.22 137.30 187.40 130.64 187.45 124.45 C 186.26 123.24 185.09 122.02 183.91 120.80 C 187.33 120.71 191.01 120.11 193.53 117.57 C 196.67 114.29 200.53 111.52 202.61 107.37 C 204.76 103.36 207.62 99.71 209.07 95.36 C 207.61 92.85 206.40 90.20 205.00 87.67 C 203.98 92.39 203.10 97.23 200.77 101.52 C 199.51 102.19 198.27 102.88 197.04 103.59 C 197.26 102.87 197.70 101.43 197.92 100.71 C 193.86 98.19 189.18 100.98 184.95 101.63 C 184.31 98.75 188.82 99.74 190.33 98.08 C 192.15 97.88 193.98 97.70 195.81 97.61 C 196.29 97.10 196.77 96.60 197.26 96.09 C 197.56 97.56 197.90 99.03 198.27 100.48 C 199.88 99.28 200.82 97.49 201.65 95.71 C 200.49 94.91 199.34 94.10 198.20 93.26 C 195.23 94.11 192.23 94.84 189.18 95.34 C 189.53 91.59 194.53 92.99 197.04 91.95 C 197.49 90.82 198.00 89.70 198.61 88.64 C 198.49 89.86 198.33 91.07 198.14 92.28 C 199.42 92.68 200.70 93.05 201.99 93.43 C 202.23 91.15 202.13 88.67 203.70 86.82 C 205.31 85.40 204.12 83.49 203.83 81.76 C 198.79 83.39 194.12 85.90 189.47 88.37 C 189.65 87.80 190.03 86.66 190.22 86.09 C 194.49 82.66 200.33 81.89 204.00 77.66 C 203.78 76.65 203.56 75.64 203.36 74.63 C 201.61 73.38 199.65 72.49 197.45 72.58 C 197.56 74.16 197.67 75.74 197.78 77.32 C 197.11 76.23 196.46 75.12 195.82 74.01 C 197.15 72.77 198.47 71.52 199.90 70.40 C 198.43 67.04 198.12 63.48 199.78 60.13 C 195.89 60.14 192.00 60.21 188.20 61.14 C 189.66 58.74 192.60 58.04 195.24 58.28 C 195.25 57.83 195.26 56.94 195.27 56.49 C 196.14 54.96 196.97 53.41 197.82 51.87 C 194.33 54.30 190.08 54.25 186.15 55.14 M 114.23 122.66 C 114.92 122.89 116.30 123.33 116.99 123.55 C 114.94 125.95 112.39 128.06 111.13 131.01 C 112.05 131.96 113.11 132.71 114.30 133.28 C 115.66 136.73 119.87 134.50 121.80 132.76 C 125.96 129.05 131.44 127.63 136.34 125.23 C 136.06 122.24 133.85 119.28 130.93 118.50 C 125.13 118.52 119.39 120.04 114.23 122.66 M 105.12 125.48 C 101.14 127.52 97.82 130.61 94.92 133.98 C 88.57 135.18 82.10 136.08 76.04 138.45 C 70.78 139.86 65.52 141.82 60.03 141.84 C 55.70 139.98 50.78 139.85 46.76 137.26 C 43.77 135.69 41.88 132.78 39.17 130.84 C 36.18 128.73 33.72 125.44 29.83 125.11 C 29.42 125.75 28.61 127.02 28.21 127.65 C 29.48 131.40 27.20 135.08 27.95 138.89 C 29.75 141.17 31.09 143.81 33.18 145.86 C 35.92 148.44 38.99 150.69 41.53 153.48 C 43.04 156.37 44.87 159.06 46.61 161.81 C 49.25 163.59 52.95 164.81 55.82 162.86 C 59.91 160.71 61.95 156.24 65.70 153.67 C 69.45 150.31 74.67 149.82 79.24 148.19 C 85.00 147.95 90.36 145.37 96.00 144.34 C 103.46 143.98 108.36 137.38 115.14 135.00 C 111.98 135.12 109.86 133.00 109.68 129.94 C 108.79 131.05 107.91 132.17 106.92 133.19 C 107.80 131.57 108.96 130.15 110.13 128.74 C 110.97 126.47 112.75 124.83 114.58 123.33 C 111.47 124.26 108.21 124.49 105.12 125.48 Z" />
<path fill="#333333" opacity="1.00" d=" M 176.31 83.83 C 177.27 83.25 178.24 82.68 179.21 82.11 C 180.53 83.30 181.89 84.45 183.34 85.49 C 183.79 87.31 184.03 89.16 184.29 91.02 C 184.14 93.04 188.08 92.93 187.05 95.14 C 182.51 95.91 182.43 89.68 181.69 86.63 C 179.89 85.71 178.11 84.74 176.31 83.83 Z" />
<path fill="#333333" opacity="1.00" d=" M 223.32 93.33 C 219.56 90.95 217.93 84.97 222.30 82.32 C 223.61 83.88 222.09 85.39 221.43 86.83 C 222.42 88.88 223.20 91.03 223.32 93.33 Z" />
<path fill="#333333" opacity="1.00" d=" M 183.85 104.32 C 186.30 103.95 188.74 103.51 191.21 103.27 C 190.56 106.88 186.29 103.57 183.85 104.32 Z" />
<path fill="#333333" opacity="1.00" d=" M 156.80 114.75 C 161.69 115.91 166.27 118.81 169.76 122.40 C 164.52 122.06 160.57 117.98 156.80 114.75 Z" />
<path fill="#333333" opacity="1.00" d=" M 38.30 127.51 C 39.63 124.97 42.74 125.84 45.07 125.42 C 47.23 125.04 49.22 126.04 51.16 126.80 C 51.86 130.31 52.77 133.77 53.48 137.27 C 50.26 135.06 50.61 130.80 49.38 127.49 C 45.70 127.01 41.99 127.45 38.30 127.51 Z" />
<path fill="#333333" opacity="1.00" d=" M 98.91 135.94 C 100.86 134.02 103.43 132.73 106.22 133.54 C 104.29 135.49 101.48 135.66 98.91 135.94 Z" />
<path fill="#333333" opacity="1.00" d=" M 116.71 147.57 C 120.48 145.71 125.62 143.20 129.49 145.91 C 125.24 146.56 121.01 147.34 116.71 147.57 Z" />
<path fill="#333333" opacity="1.00" d=" M 48.95 148.90 C 50.29 151.36 51.75 153.74 53.25 156.10 C 51.66 155.14 50.10 154.15 48.59 153.09 C 48.73 151.69 48.86 150.30 48.95 148.90 Z" />
<path fill="#333333" opacity="1.00" d=" M 225.28 149.05 C 227.94 148.99 229.91 150.76 231.94 152.19 C 238.26 155.38 243.49 160.30 249.52 163.98 C 249.60 164.54 249.76 165.67 249.84 166.24 C 243.78 162.27 237.94 157.96 232.07 153.70 C 229.51 152.64 227.05 151.23 225.28 149.05 Z" />
<path fill="#333333" opacity="1.00" d=" M 77.69 155.13 C 87.03 154.42 95.88 149.59 105.42 151.39 C 102.31 152.68 98.93 152.90 95.65 153.47 C 90.82 154.56 85.92 155.33 81.00 155.82 C 79.83 156.05 78.77 155.46 77.69 155.13 Z" />
<path fill="#333333" opacity="1.00" d=" M 106.25 154.21 C 109.26 153.82 112.48 153.05 115.37 154.37 C 112.35 154.79 109.20 155.24 106.25 154.21 Z" />
<path fill="#333333" opacity="1.00" d=" M 219.68 156.26 C 221.24 155.11 222.45 156.57 223.63 157.31 C 229.05 161.58 234.39 165.94 239.86 170.15 C 241.21 171.14 242.29 172.43 243.20 173.83 C 240.41 173.30 238.37 171.20 236.23 169.52 C 230.76 165.05 225.09 160.81 219.68 156.26 Z" />
<path fill="#333333" opacity="1.00" d=" M 62.40 173.35 C 62.94 173.04 63.48 172.74 64.03 172.44 C 65.98 179.72 67.76 187.10 70.47 194.15 C 70.19 195.01 69.88 195.87 69.55 196.73 C 66.42 189.22 64.88 181.10 62.40 173.35 Z" />
</g>
</svg>
