<?xml version="1.0" encoding="UTF-8" ?>
<!DOCTYPE svg PUBLIC "-//W3C//DTD SVG 1.1//EN" "http://www.w3.org/Graphics/SVG/1.1/DTD/svg11.dtd">
<svg width="171pt" height="300pt" viewBox="0 0 171 300" version="1.1" xmlns="http://www.w3.org/2000/svg"><g id="#545553ff">
<path fill="#333333" opacity="1.00" d=" M 44.89 61.87 C 49.01 57.67 55.95 57.58 60.97 60.12 C 64.49 62.17 64.05 66.61 65.12 70.00 C 66.73 75.59 64.96 81.48 63.26 86.84 C 65.67 87.19 68.15 87.41 70.40 88.40 C 67.68 89.17 64.88 88.81 62.19 88.13 L 62.16 91.13 C 65.34 89.83 69.22 88.64 71.95 91.52 C 68.54 91.26 65.08 91.46 62.01 93.11 C 61.07 94.11 60.44 95.67 58.97 95.99 C 56.97 95.64 55.04 94.95 53.01 94.77 C 50.20 94.66 47.31 96.16 44.62 94.83 C 46.95 94.12 49.33 93.60 51.70 93.03 C 50.70 90.36 49.62 87.72 48.43 85.12 C 50.40 87.32 52.77 89.59 52.61 92.81 C 54.81 93.19 56.98 93.72 59.09 94.45 C 59.78 94.13 61.17 93.49 61.87 93.17 C 61.53 91.51 61.17 89.86 60.81 88.20 C 58.10 87.95 55.33 87.52 52.94 86.10 C 49.92 84.58 48.66 81.20 46.59 78.73 C 46.51 80.64 46.85 82.68 45.89 84.43 C 45.83 81.27 45.82 78.07 43.57 75.58 C 42.52 71.18 41.39 65.54 44.89 61.87 M 46.22 63.40 C 44.17 65.62 44.32 68.84 44.05 71.64 C 44.66 71.69 45.86 71.78 46.46 71.82 C 46.09 72.67 45.33 74.36 44.96 75.20 C 46.84 76.95 49.12 78.37 50.35 80.70 C 52.24 84.45 57.02 85.75 60.90 85.87 C 64.17 83.46 63.67 78.67 64.30 75.05 C 63.62 69.96 63.90 63.34 58.78 60.42 C 54.55 59.64 49.28 59.97 46.22 63.40 Z" />
<path fill="#333333" opacity="1.00" d=" M 36.27 92.24 C 38.92 89.29 41.51 86.01 45.45 84.74 C 44.04 87.80 40.84 89.32 38.84 91.90 C 36.42 95.39 31.67 95.79 29.00 99.04 C 25.00 102.66 27.05 108.46 27.60 113.01 C 27.07 112.87 25.99 112.57 25.45 112.42 C 25.22 115.15 24.93 117.88 24.40 120.58 C 28.46 119.72 28.34 124.85 27.11 127.29 C 25.93 125.08 26.32 122.04 24.06 120.47 C 24.32 124.33 25.70 127.95 26.95 131.55 L 28.56 129.53 C 27.82 134.98 25.84 140.33 26.35 145.91 C 26.53 151.05 28.93 155.85 28.92 161.00 C 28.36 166.15 30.62 170.97 30.99 176.06 C 33.43 176.93 36.44 177.04 37.92 179.52 C 34.80 179.27 30.50 179.34 29.08 175.92 C 28.53 173.30 28.54 170.59 27.69 168.03 C 26.28 163.82 27.69 159.36 26.94 155.05 C 19.47 159.66 17.70 170.65 22.15 177.89 C 23.49 180.39 26.50 180.33 28.96 180.42 C 28.76 180.87 28.35 181.78 28.15 182.23 C 23.67 182.81 20.03 179.20 19.01 175.11 C 17.05 167.55 18.75 158.11 25.89 153.82 C 25.45 150.24 24.65 146.68 24.90 143.04 C 24.86 139.65 26.06 136.36 25.91 132.97 C 25.21 129.53 22.51 126.70 22.54 123.08 C 22.46 119.12 23.34 115.20 24.53 111.44 C 25.62 107.97 24.17 104.13 25.69 100.75 C 27.38 96.18 32.44 94.54 36.27 92.24 Z" />
<path fill="#333333" opacity="1.00" d=" M 70.62 87.91 C 73.25 86.65 75.96 88.52 78.16 89.85 C 81.16 92.71 82.39 96.99 82.24 101.05 C 82.01 104.58 84.24 107.56 84.80 110.94 C 85.33 113.05 85.13 115.53 86.75 117.21 C 88.99 119.69 91.45 122.16 92.26 125.53 C 93.64 130.83 95.44 136.02 96.56 141.38 C 102.74 140.14 108.33 143.14 114.02 144.95 C 118.45 147.91 119.18 154.20 116.84 158.72 C 117.27 161.78 116.48 164.75 115.34 167.57 C 113.45 172.26 114.51 177.66 111.98 182.17 C 109.52 186.82 107.36 191.71 107.03 197.04 C 113.83 195.59 120.22 192.70 126.97 191.02 C 129.57 190.13 131.57 192.53 133.95 193.07 C 143.17 195.15 151.98 198.67 161.11 201.07 C 161.85 202.33 162.85 203.49 163.15 204.96 C 162.71 206.44 162.06 207.83 161.44 209.24 C 155.81 210.79 150.68 214.17 144.72 214.44 C 144.56 220.98 144.70 227.51 144.62 234.05 C 144.71 235.33 144.47 236.75 145.20 237.90 C 149.14 239.98 153.49 241.35 157.12 244.00 C 157.72 245.94 157.61 248.03 157.65 250.04 C 157.95 252.75 154.68 253.58 152.87 254.81 C 151.60 255.82 150.19 254.55 149.02 254.04 C 140.27 249.05 131.29 244.46 122.57 239.45 C 119.74 235.84 122.60 231.05 126.32 229.36 C 130.61 229.72 133.85 232.69 137.50 234.57 L 137.85 237.19 C 134.30 235.26 130.78 233.26 127.10 231.58 C 124.87 232.94 122.40 234.86 123.68 237.83 C 129.66 240.92 135.39 244.52 141.58 247.21 C 145.17 248.73 148.31 251.15 151.97 252.50 C 154.61 252.26 156.42 249.65 155.70 247.10 C 155.46 244.88 153.18 244.21 151.50 243.33 C 148.39 241.91 145.35 240.33 142.28 238.81 C 142.41 231.19 141.75 223.52 142.81 215.95 C 135.31 219.09 127.80 222.30 120.08 224.87 C 120.32 225.36 120.81 226.34 121.05 226.84 C 120.07 225.29 118.74 225.07 117.24 226.07 C 97.58 233.91 77.77 241.37 58.11 249.19 C 61.02 251.95 65.46 256.17 62.40 260.38 C 61.62 260.32 60.07 260.21 59.29 260.16 C 58.98 260.65 58.34 261.64 58.02 262.13 C 54.02 262.58 49.27 263.12 46.25 259.85 C 43.98 258.44 44.10 255.63 43.49 253.36 C 42.18 252.30 40.65 251.56 39.20 250.74 C 39.06 259.82 39.07 268.90 39.20 277.98 C 43.57 280.65 47.92 283.49 51.67 287.00 C 52.23 289.30 52.27 291.73 52.03 294.08 C 50.40 295.63 48.36 296.63 46.47 297.81 C 37.18 289.79 26.65 283.35 17.11 275.65 C 16.27 273.72 16.36 271.47 16.43 269.40 C 17.98 267.54 20.28 266.60 22.37 265.49 C 25.75 268.02 29.14 270.53 32.57 272.98 C 32.29 274.42 31.77 275.77 31.01 277.03 C 30.46 275.93 29.93 274.82 29.40 273.72 C 26.80 271.84 24.61 269.41 21.82 267.82 C 19.28 268.21 17.85 270.85 18.02 273.28 C 26.81 280.48 36.30 286.74 45.31 293.63 C 48.35 296.24 52.02 291.03 49.62 288.40 C 46.42 284.49 41.26 282.82 37.85 279.05 C 36.89 279.19 35.92 279.33 34.95 279.47 C 35.53 278.69 36.12 277.92 36.71 277.15 C 36.66 268.76 36.74 260.38 36.72 252.00 C 36.89 249.08 33.06 248.76 31.28 247.35 C 31.97 255.70 32.74 264.06 32.10 272.45 C 31.73 271.89 31.01 270.78 30.64 270.22 C 30.35 262.65 29.80 255.01 30.75 247.47 C 26.17 244.24 21.09 241.76 16.60 238.39 C 14.15 236.56 15.09 233.26 14.55 230.67 C 15.80 229.65 17.01 228.50 18.54 227.93 C 25.12 225.57 31.76 223.34 38.27 220.78 C 36.63 214.26 39.72 208.03 41.58 201.95 C 42.19 197.33 42.24 192.61 43.89 188.19 L 43.05 188.39 C 41.27 185.67 38.95 183.16 38.22 179.89 C 36.95 173.18 38.03 165.42 43.37 160.67 C 42.07 154.48 41.24 146.97 45.95 141.88 C 45.47 141.44 44.51 140.55 44.04 140.11 C 43.97 137.74 44.00 135.37 44.22 133.01 C 43.18 130.55 41.91 128.19 40.45 125.95 C 39.97 129.00 38.85 131.90 38.25 134.92 C 40.03 140.46 41.24 146.53 39.39 152.23 C 37.79 156.23 39.68 160.34 40.19 164.34 C 38.88 163.19 38.13 161.77 37.92 160.07 C 37.59 159.96 36.92 159.74 36.58 159.63 C 36.50 160.52 36.34 162.29 36.26 163.17 C 34.99 160.83 34.51 158.21 34.94 155.55 C 35.29 156.62 35.98 158.74 36.32 159.81 C 37.21 157.42 36.71 154.80 37.49 152.39 C 39.20 147.42 39.02 141.84 37.29 136.91 C 36.61 137.18 35.25 137.70 34.58 137.97 C 36.00 134.38 38.46 130.95 38.23 126.92 C 37.85 122.24 39.39 117.44 37.11 113.05 L 38.02 112.65 C 41.72 114.93 39.78 120.25 39.98 123.86 C 40.72 124.27 42.18 125.09 42.92 125.50 C 42.97 125.05 43.07 124.13 43.12 123.68 C 45.46 123.86 48.24 123.06 49.80 125.39 C 47.61 125.63 45.31 125.64 43.32 126.69 C 45.76 130.36 45.25 134.76 45.82 138.89 C 46.98 141.02 49.67 141.94 52.00 141.89 C 55.72 141.87 59.32 143.17 63.04 142.92 C 66.81 142.45 70.56 141.54 73.97 139.82 C 73.51 136.17 73.09 132.51 72.99 128.84 C 72.55 129.28 71.65 130.18 71.20 130.63 C 70.73 130.35 69.78 129.81 69.31 129.54 C 67.28 130.76 65.04 131.51 62.67 131.63 C 60.26 133.34 57.72 132.29 55.97 130.24 C 57.24 130.39 58.52 130.56 59.79 130.74 C 62.07 129.66 64.63 129.85 67.03 129.24 C 68.05 127.33 67.70 125.09 67.88 123.02 C 69.00 124.72 69.94 126.53 70.22 128.58 C 73.51 128.81 74.28 124.84 75.58 122.53 C 76.53 118.11 74.77 113.53 73.27 109.42 C 71.57 110.05 69.83 110.58 68.10 111.10 C 66.55 110.50 64.98 109.95 63.41 109.40 C 61.70 112.34 57.95 112.44 55.56 114.59 C 53.02 116.78 49.00 116.96 46.48 114.66 C 43.91 112.39 40.65 110.81 38.71 107.92 C 42.93 108.50 45.52 112.16 49.06 114.07 C 52.12 115.20 55.01 113.13 57.14 111.13 C 58.71 110.74 60.27 110.33 61.83 109.90 C 63.35 106.54 61.67 103.20 61.37 99.81 C 63.04 101.90 64.36 104.36 64.38 107.11 C 65.75 108.08 67.27 108.79 68.79 109.48 C 71.11 108.76 73.47 108.17 75.79 107.44 C 75.98 107.41 76.35 107.35 76.54 107.31 C 75.55 111.07 76.47 114.86 77.40 118.52 C 78.51 121.90 75.92 124.82 75.19 127.97 C 74.77 131.37 74.99 134.80 75.05 138.22 C 75.97 138.83 76.89 139.44 77.81 140.06 C 78.32 140.98 78.84 141.90 79.36 142.82 C 80.26 142.57 82.06 142.07 82.95 141.82 C 79.72 138.56 77.82 134.22 77.24 129.70 C 79.92 133.52 81.27 138.36 85.15 141.26 C 88.30 141.36 91.38 140.53 94.48 140.13 C 93.58 137.04 92.45 134.02 91.51 130.95 C 90.50 127.62 90.15 123.91 87.82 121.16 C 85.87 118.74 83.38 116.32 83.46 112.96 C 83.36 108.44 80.21 104.56 80.66 99.98 C 80.87 96.83 79.55 93.75 77.49 91.43 C 75.32 90.03 72.91 89.07 70.62 87.91 M 61.03 145.01 C 56.49 144.15 51.71 144.56 47.37 142.80 C 46.37 144.52 45.25 146.19 44.45 148.03 C 44.07 151.96 44.94 155.93 44.20 159.85 C 46.25 159.13 48.37 159.47 50.46 159.70 C 57.12 164.43 56.62 173.93 54.39 180.88 C 57.74 179.82 60.99 178.36 63.64 176.01 C 63.67 172.34 64.14 167.76 67.80 165.86 C 72.09 162.82 77.50 164.82 82.16 165.72 C 81.01 163.95 79.23 162.27 79.23 160.00 C 79.36 156.37 81.44 153.24 82.66 149.92 C 83.55 147.23 85.12 144.87 86.88 142.68 C 81.56 142.93 77.15 145.74 72.94 148.66 C 74.07 146.95 75.44 145.42 76.97 144.05 C 76.68 142.81 76.40 141.57 76.13 140.33 C 72.06 144.00 66.29 144.78 61.03 145.01 M 85.30 148.23 C 83.30 153.42 78.90 159.22 82.72 164.67 C 87.90 164.73 92.23 161.70 97.04 160.38 C 101.07 160.86 105.48 159.93 109.17 162.00 C 106.62 163.70 103.77 162.14 101.12 161.65 C 99.03 161.89 96.96 162.27 94.90 162.70 C 95.28 165.73 95.70 168.80 97.10 171.56 C 98.52 168.74 100.46 166.27 102.82 164.19 C 102.06 166.26 101.22 168.32 100.18 170.28 C 95.65 177.74 99.17 187.24 94.85 194.82 C 92.27 199.01 89.02 203.08 88.60 208.18 C 92.39 209.15 96.44 208.68 100.13 210.06 C 102.39 210.89 103.84 212.94 105.87 214.15 C 110.43 215.43 115.22 216.32 119.92 215.09 C 119.56 210.98 114.47 211.61 112.86 208.42 C 110.84 204.44 107.17 201.45 105.85 197.11 C 105.34 192.76 106.64 188.37 108.70 184.56 C 111.76 179.16 111.86 172.79 113.68 166.98 C 114.51 164.40 114.95 161.72 114.94 159.01 C 112.85 158.85 111.02 157.86 109.71 156.24 C 107.89 155.24 105.74 155.72 103.80 155.14 C 102.03 154.05 100.43 152.68 98.52 151.83 C 98.61 151.47 98.78 150.75 98.87 150.39 C 97.79 150.45 95.64 150.56 94.57 150.62 C 95.98 149.32 97.89 148.89 99.67 148.34 C 99.53 148.99 99.24 150.31 99.09 150.96 C 102.48 150.55 104.47 155.41 107.73 153.71 C 110.35 152.92 111.12 150.09 112.29 147.97 C 112.68 149.63 112.46 151.32 112.01 152.95 C 111.70 153.51 111.07 154.63 110.75 155.19 C 111.22 156.27 112.09 156.92 113.34 157.13 C 113.94 157.58 114.52 158.04 115.11 158.50 C 116.20 154.36 116.62 149.03 112.48 146.37 C 107.20 144.61 101.73 141.95 96.08 143.87 C 95.05 144.36 94.02 144.84 92.98 145.31 C 93.48 144.64 94.48 143.30 94.97 142.63 C 90.72 141.91 86.90 144.34 85.30 148.23 M 39.99 168.99 C 38.40 174.44 38.56 181.72 43.58 185.35 C 46.72 187.65 50.40 184.59 52.08 181.92 C 55.86 175.09 56.10 164.04 48.19 160.02 C 44.39 161.77 41.04 164.81 39.99 168.99 M 84.01 168.30 C 79.95 167.26 75.87 166.32 71.68 165.88 C 70.41 166.26 69.13 166.63 67.85 166.98 C 66.03 169.28 66.23 172.11 65.92 174.83 C 61.63 178.75 62.97 185.02 60.51 189.88 C 58.53 193.97 56.50 198.09 55.47 202.55 C 54.31 206.67 55.13 210.98 55.08 215.18 C 65.31 211.22 75.75 207.88 86.17 204.48 C 88.25 204.06 88.47 201.57 89.45 200.06 C 90.94 196.16 94.74 193.42 95.17 189.10 C 95.99 184.04 95.66 178.87 96.22 173.79 C 94.72 170.29 93.57 166.65 93.46 162.80 C 91.07 165.51 88.13 169.19 84.01 168.30 M 84.27 165.79 C 84.28 169.13 87.32 164.40 84.27 165.79 M 54.01 181.85 C 52.04 185.03 49.43 187.99 45.53 188.58 C 44.82 191.37 43.90 194.14 43.67 197.03 C 44.00 201.90 45.87 206.47 46.69 211.25 C 44.43 209.48 43.99 206.49 42.78 204.05 C 40.60 209.18 38.78 214.77 39.86 220.40 C 42.72 219.30 45.61 218.29 48.49 217.27 C 48.33 210.80 53.03 205.82 54.52 199.77 C 53.13 198.93 51.45 199.05 49.92 198.73 C 48.70 195.90 52.94 197.13 53.65 198.64 C 54.09 198.36 54.97 197.80 55.40 197.52 C 56.39 191.25 60.96 186.24 61.73 179.84 C 59.31 181.00 56.76 182.07 54.01 181.85 M 108.39 199.41 C 110.44 201.81 112.35 204.31 114.20 206.86 C 115.61 208.90 118.25 209.39 120.10 210.90 C 120.82 212.32 120.97 213.95 121.36 215.48 C 118.99 216.41 116.82 218.86 114.08 217.96 C 110.70 217.05 106.86 217.41 103.96 215.15 C 101.76 213.79 100.00 211.23 97.14 211.37 C 94.06 211.35 91.01 210.91 88.11 209.87 C 87.72 208.73 87.34 207.58 86.97 206.44 C 64.53 214.21 41.97 221.67 19.63 229.70 C 18.35 230.33 17.26 231.28 16.11 232.11 C 16.78 233.65 16.92 235.60 18.40 236.63 C 23.16 240.38 28.68 242.97 33.93 245.94 C 37.96 248.25 42.30 250.25 46.95 250.83 C 55.71 248.38 63.95 244.33 72.56 241.39 C 98.31 231.12 124.37 221.62 150.11 211.31 C 153.87 209.54 158.09 208.25 161.03 205.16 C 160.70 204.77 160.04 203.98 159.70 203.59 C 152.84 200.09 145.22 198.61 138.01 196.01 C 133.47 194.75 128.69 192.09 123.94 193.99 C 118.73 195.71 113.49 197.36 108.39 199.41 M 50.17 216.87 C 54.57 216.26 52.50 211.27 52.87 208.28 C 51.40 210.93 50.37 213.82 50.17 216.87 M 45.91 253.77 C 45.85 258.33 50.83 261.40 54.97 260.35 C 56.01 259.73 59.69 258.58 56.75 257.22 C 53.71 257.55 50.65 257.86 47.65 257.04 C 49.37 254.85 52.50 256.08 54.88 255.57 C 58.15 254.04 59.61 261.03 62.33 257.22 C 60.75 254.32 58.47 251.90 56.07 249.67 C 52.85 251.43 49.34 252.52 45.91 253.77 Z" />
<path fill="#333333" opacity="1.00" d=" M 38.47 103.16 C 38.36 101.16 39.39 99.65 41.25 98.98 C 40.62 100.55 39.76 102.04 38.47 103.16 Z" />
<path fill="#333333" opacity="1.00" d=" M 80.28 109.83 C 82.92 115.42 85.78 122.40 81.82 128.10 C 81.78 125.06 82.59 122.06 82.38 119.03 C 81.64 115.97 80.19 113.05 80.28 109.83 Z" />
<path fill="#333333" opacity="1.00" d=" M 31.90 115.40 C 31.81 112.60 33.79 111.30 36.31 111.05 C 35.40 112.99 33.67 114.29 31.90 115.40 Z" />
<path fill="#333333" opacity="1.00" d=" M 65.09 115.04 C 66.50 114.08 67.87 113.07 69.22 112.02 C 69.73 112.21 70.74 112.59 71.25 112.77 C 71.39 113.13 71.65 113.86 71.79 114.22 C 70.14 114.22 68.49 114.28 66.84 114.36 C 67.54 115.73 68.22 117.10 68.90 118.49 C 71.40 118.35 73.94 118.93 75.23 121.27 C 72.90 120.77 70.55 120.39 68.18 120.15 C 65.44 121.40 62.70 122.63 59.95 123.83 C 59.60 124.34 58.91 125.35 58.56 125.86 C 56.22 125.28 53.89 124.32 52.70 122.06 C 55.21 122.77 58.01 124.92 60.08 122.21 C 62.28 120.75 64.60 119.50 67.23 119.04 C 67.24 118.23 67.25 116.61 67.25 115.80 C 66.53 115.55 65.81 115.30 65.09 115.04 Z" />
<path fill="#333333" opacity="1.00" d=" M 55.81 120.42 C 57.94 117.82 59.83 115.00 62.22 112.64 C 62.57 112.88 63.26 113.35 63.61 113.59 C 61.54 116.40 59.31 119.35 55.81 120.42 Z" />
<path fill="#333333" opacity="1.00" d=" M 42.13 118.58 C 43.49 117.86 44.87 117.16 46.28 116.54 C 45.64 117.26 44.36 118.69 43.72 119.41 C 45.45 120.67 47.41 120.45 49.32 119.80 C 49.52 120.28 49.91 121.25 50.11 121.73 C 46.99 122.74 43.11 122.15 42.13 118.58 Z" />
<path fill="#333333" opacity="1.00" d=" M 51.54 127.45 C 53.53 127.35 55.53 127.28 57.52 127.29 C 56.22 129.61 52.58 130.50 51.54 127.45 Z" />
<path fill="#333333" opacity="1.00" d=" M 46.36 128.45 C 48.72 129.46 51.00 130.64 53.32 131.75 C 51.30 134.79 46.66 131.30 46.36 128.45 Z" />
<path fill="#333333" opacity="1.00" d=" M 57.51 132.69 C 59.58 133.69 59.27 135.85 59.04 137.76 C 60.56 139.21 62.07 140.67 63.47 142.25 C 59.93 142.55 58.16 139.20 56.48 136.72 C 57.24 136.15 58.00 135.58 58.76 135.00 L 57.01 134.77 L 57.51 132.69 Z" />
<path fill="#333333" opacity="1.00" d=" M 66.21 137.00 C 67.29 135.99 68.41 135.02 69.59 134.12 C 69.20 135.29 68.78 136.45 68.36 137.62 C 67.82 137.46 66.75 137.16 66.21 137.00 Z" />
<path fill="#333333" opacity="1.00" d=" M 50.51 150.03 C 52.17 148.30 53.24 145.20 56.11 145.47 C 54.58 148.83 51.89 151.93 47.84 151.64 C 48.72 151.09 49.61 150.55 50.51 150.03 Z" />
<path fill="#333333" opacity="1.00" d=" M 61.99 152.07 C 66.75 151.43 71.44 150.19 76.27 150.20 C 74.80 151.73 72.96 152.79 71.21 153.94 C 71.00 153.39 70.58 152.29 70.36 151.74 C 68.27 153.44 65.50 153.47 62.96 153.92 C 59.97 154.34 57.04 155.12 54.03 155.41 C 56.35 153.63 59.06 152.40 61.99 152.07 Z" />
<path fill="#333333" opacity="1.00" d=" M 86.55 153.29 C 91.53 153.83 96.41 156.06 100.36 159.09 C 95.51 157.90 90.88 155.76 86.55 153.29 Z" />
<path fill="#333333" opacity="1.00" d=" M 68.59 153.24 C 68.69 154.04 68.84 155.01 67.91 155.38 C 64.82 157.54 61.32 159.07 57.68 160.02 C 61.02 157.32 64.92 155.44 68.59 153.24 Z" />
<path fill="#333333" opacity="1.00" d=" M 64.59 166.00 C 67.53 161.16 72.24 157.49 77.21 154.91 C 73.23 158.85 69.29 162.91 64.59 166.00 Z" />
<path fill="#333333" opacity="1.00" d=" M 72.30 162.65 C 71.52 160.90 75.40 159.11 76.18 160.77 C 75.55 162.08 73.73 163.19 72.30 162.65 Z" />
<path fill="#333333" opacity="1.00" d=" M 98.96 182.47 C 99.25 178.57 100.88 174.91 103.43 171.95 C 104.06 175.94 101.39 179.57 98.96 182.47 Z" />
<path fill="#333333" opacity="1.00" d=" M 105.56 173.49 C 106.50 173.97 107.44 174.45 108.38 174.92 C 107.34 179.92 105.18 184.96 101.14 188.26 C 102.73 183.38 106.77 178.93 105.56 173.49 Z" />
<path fill="#333333" opacity="1.00" d=" M 48.16 194.10 C 48.27 192.33 48.46 190.57 48.67 188.82 C 50.19 189.22 51.70 189.64 53.21 190.08 C 52.33 190.32 50.57 190.82 49.69 191.07 C 49.19 192.08 48.68 193.10 48.16 194.10 Z" />
<path fill="#333333" opacity="1.00" d=" M 135.88 218.91 C 139.28 222.51 136.90 228.04 137.69 232.45 C 137.32 232.50 136.56 232.61 136.19 232.67 C 135.48 228.13 135.72 223.48 135.88 218.91 Z" />
</g>
</svg>
