<?xml version="1.0" encoding="UTF-8" ?>
<!DOCTYPE svg PUBLIC "-//W3C//DTD SVG 1.1//EN" "http://www.w3.org/Graphics/SVG/1.1/DTD/svg11.dtd">
<svg width="275pt" height="250pt" viewBox="0 0 275 250" version="1.1" xmlns="http://www.w3.org/2000/svg"><g id="#282928ff">
<path fill="#333333" opacity="1.00" d=" M 158.23 41.54 C 162.21 31.26 179.49 31.52 182.97 42.08 C 184.21 48.79 182.52 55.61 182.24 62.35 C 184.44 63.04 186.61 63.90 188.90 64.26 C 198.66 64.56 208.43 64.62 218.20 64.49 C 219.19 62.54 220.38 60.71 221.78 59.04 C 225.82 59.26 229.93 59.41 233.82 60.58 C 235.56 61.06 235.98 63.11 236.94 64.41 C 241.25 64.43 245.57 64.50 249.88 64.75 C 249.87 57.58 251.17 50.10 255.01 43.95 C 256.32 41.61 259.30 42.02 261.55 41.58 C 268.08 47.20 268.83 56.49 269.17 64.52 C 271.11 64.57 273.05 64.65 275.00 64.73 L 275.00 66.39 C 273.16 66.44 271.33 66.49 269.50 66.55 C 269.48 67.22 269.45 68.57 269.43 69.24 C 271.28 69.24 273.14 69.27 275.00 69.29 L 275.00 71.10 C 273.05 71.13 271.11 71.16 269.17 71.17 C 268.60 79.60 268.08 89.20 261.66 95.50 C 259.84 95.09 258.02 94.69 256.19 94.33 C 250.56 88.37 249.67 79.44 250.03 71.63 C 252.55 78.51 251.29 87.14 257.24 92.49 C 258.16 92.03 259.08 91.57 260.01 91.10 L 258.95 90.64 C 264.12 80.71 264.55 69.03 263.32 58.10 C 262.98 53.55 260.83 49.38 260.46 44.84 C 263.58 48.04 264.18 52.67 264.83 56.89 C 266.13 68.30 265.77 80.36 261.01 91.00 L 259.93 90.23 C 260.03 91.40 260.13 92.57 260.24 93.74 C 262.97 91.38 264.96 88.26 265.79 84.73 C 268.46 74.11 268.74 62.76 265.96 52.13 C 265.21 49.09 263.53 46.42 261.76 43.89 C 260.26 43.98 258.77 44.01 257.30 44.21 C 251.96 49.13 252.83 57.10 250.41 63.40 C 252.63 64.89 255.38 64.59 257.94 64.73 C 258.23 66.88 258.31 69.06 257.76 71.18 C 249.08 70.83 240.28 71.87 231.69 70.36 C 233.38 69.71 235.12 69.15 236.96 69.27 C 243.60 69.28 250.24 69.41 256.88 69.27 C 256.87 68.52 256.84 67.01 256.82 66.26 C 249.42 66.53 242.01 66.21 234.61 66.28 C 234.51 64.91 234.40 63.54 234.27 62.18 C 230.26 61.79 226.21 61.07 222.17 61.50 C 220.86 62.88 219.86 64.52 218.88 66.14 C 209.45 66.70 200.00 65.92 190.57 66.35 C 193.89 68.74 197.93 69.78 202.01 69.06 C 201.09 69.78 200.19 70.55 199.21 71.19 C 195.51 70.50 192.15 68.68 188.77 67.10 C 186.24 66.15 183.48 66.08 180.86 65.54 C 179.46 66.69 177.82 67.67 176.82 69.19 C 176.91 70.07 176.99 70.95 177.05 71.83 C 176.72 73.08 176.34 74.31 175.96 75.55 C 175.08 75.51 174.21 75.49 173.34 75.46 C 174.07 73.76 175.72 72.17 175.60 70.21 C 172.30 68.74 168.43 70.25 165.00 68.97 C 164.50 69.22 164.00 69.47 163.51 69.73 C 163.93 71.67 164.28 73.62 164.46 75.60 C 161.86 73.27 161.61 69.57 160.38 66.51 L 162.35 66.85 L 162.08 68.05 C 162.76 68.19 164.12 68.47 164.80 68.61 C 163.05 66.51 161.41 64.32 159.81 62.11 C 159.04 64.43 158.27 66.75 157.50 69.08 C 157.44 67.68 157.38 66.29 157.32 64.90 C 152.90 66.31 149.08 69.12 144.55 70.25 C 138.67 72.28 132.41 70.72 126.35 71.30 C 124.30 73.82 121.70 75.77 119.13 77.71 C 119.50 81.89 120.03 86.11 121.80 89.96 C 124.80 87.76 127.90 85.69 131.19 83.96 C 131.42 81.82 131.89 79.69 132.83 77.74 C 134.21 74.89 135.53 71.15 139.42 71.31 C 137.13 75.04 134.68 78.68 132.56 82.52 C 133.77 83.02 134.98 83.55 136.19 84.08 C 133.61 84.79 130.47 84.40 128.54 86.55 C 126.93 88.13 125.23 89.62 123.30 90.80 C 124.51 92.99 125.38 95.35 125.77 97.82 C 122.54 93.30 118.20 88.98 117.91 83.08 C 116.73 77.43 121.52 73.20 125.45 70.01 C 124.80 69.44 124.13 68.89 123.49 68.30 C 128.93 69.37 134.49 69.41 140.02 69.27 C 143.66 68.75 147.00 67.00 150.56 66.10 C 140.58 66.21 130.51 67.09 120.61 65.40 C 120.58 64.88 120.51 63.84 120.48 63.32 C 120.00 62.80 119.03 61.76 118.54 61.24 C 114.59 61.43 110.63 61.70 106.70 62.15 C 105.77 66.33 106.25 70.67 106.81 74.86 C 109.86 79.67 109.08 85.64 108.74 91.05 C 107.16 98.34 110.74 105.36 114.22 111.53 C 116.60 112.53 119.01 111.09 121.18 110.22 C 122.42 107.77 125.07 106.74 127.25 105.33 C 125.91 107.02 124.49 108.66 123.13 110.33 C 127.06 108.70 130.81 106.63 134.33 104.25 C 138.47 101.37 141.05 96.91 143.76 92.78 C 142.79 90.99 141.78 89.21 140.81 87.42 C 140.30 88.42 139.29 90.43 138.78 91.43 C 138.66 90.23 138.41 87.82 138.29 86.61 C 138.78 86.26 139.75 85.56 140.24 85.21 C 141.54 86.21 142.84 87.23 144.18 88.19 C 145.26 90.99 146.90 93.68 147.08 96.75 C 146.48 96.10 145.30 94.82 144.70 94.17 C 143.72 95.31 142.72 96.43 141.71 97.54 C 141.66 97.96 141.55 98.79 141.50 99.21 C 136.44 107.89 126.38 111.83 116.96 113.63 C 115.25 114.04 113.24 113.21 112.55 111.54 C 110.93 108.06 109.37 104.54 107.89 100.99 C 105.06 93.74 106.58 85.84 106.57 78.29 C 104.96 76.20 104.18 73.72 104.36 71.08 C 95.66 71.16 86.96 71.14 78.25 71.18 C 77.64 69.01 77.77 66.76 78.11 64.56 C 80.58 64.60 83.04 64.68 85.51 64.80 C 83.74 57.79 83.83 49.92 78.99 44.06 C 77.38 44.06 75.78 44.04 74.18 44.01 C 68.32 51.63 68.03 61.83 68.17 71.04 C 68.93 78.92 69.19 88.20 75.74 93.73 C 75.89 92.57 76.02 91.40 76.16 90.24 L 74.98 90.97 C 70.23 80.32 69.87 68.26 71.17 56.84 C 71.83 52.63 72.42 48.03 75.55 44.84 C 75.07 49.72 72.79 54.23 72.54 59.16 C 71.58 69.59 71.93 80.75 76.90 90.22 C 76.84 90.88 76.70 92.20 76.63 92.86 C 78.08 91.98 80.09 91.66 80.97 90.02 C 84.51 84.49 83.73 77.59 85.98 71.60 C 86.32 79.43 85.45 88.39 79.78 94.34 C 77.96 94.69 76.14 95.09 74.33 95.49 C 67.90 89.19 67.40 79.57 66.82 71.13 C 61.35 70.98 55.74 71.78 50.36 70.81 C 49.88 70.20 48.92 68.98 48.44 68.36 C 54.41 69.67 60.52 69.21 66.57 69.25 C 66.55 68.56 66.51 67.19 66.50 66.50 C 60.48 66.65 54.35 65.90 48.55 67.94 C 49.12 67.11 50.25 65.46 50.81 64.64 C 56.14 64.24 61.49 64.74 66.83 64.60 C 67.18 56.54 67.90 47.21 74.46 41.58 C 76.71 42.01 79.70 41.62 81.01 43.98 C 85.03 50.12 85.69 57.67 86.48 64.77 C 92.31 64.32 98.16 64.53 104.00 64.35 C 104.80 63.18 105.35 61.78 106.46 60.86 C 110.54 59.42 114.94 59.29 119.21 59.04 C 120.71 60.74 121.89 62.69 122.79 64.77 C 130.53 64.34 138.29 64.60 146.04 64.52 C 150.11 65.08 154.05 63.93 158.01 63.20 C 159.53 56.04 156.14 48.65 158.23 41.54 M 162.14 39.18 C 158.54 43.26 160.25 49.10 159.40 54.01 C 160.26 59.27 163.04 64.31 166.99 67.93 C 169.73 68.56 172.60 67.70 175.38 67.69 C 178.51 65.83 179.93 62.42 180.03 58.89 C 182.85 55.04 180.90 50.28 181.20 45.94 C 181.50 41.62 178.54 37.71 174.49 36.43 C 170.34 34.28 165.35 36.24 162.14 39.18 M 79.44 66.33 C 78.35 67.52 78.47 68.48 79.79 69.22 C 88.37 69.72 97.00 68.79 105.56 69.55 C 105.63 68.72 105.76 67.07 105.83 66.24 C 97.03 66.38 88.23 66.32 79.44 66.33 Z" />
<path fill="#333333" opacity="1.00" d=" M 202.08 68.96 C 207.33 69.44 212.67 69.62 217.89 68.73 C 217.26 68.93 216.00 69.33 215.37 69.53 C 219.00 73.16 224.40 77.16 223.07 83.04 C 222.84 88.84 218.68 93.17 215.32 97.49 C 215.42 94.95 216.55 92.68 217.99 90.65 C 215.21 90.08 213.32 88.06 211.16 86.46 C 207.53 84.78 202.90 83.32 199.13 85.29 C 198.87 84.81 198.62 84.34 198.38 83.86 C 201.40 81.23 205.67 83.15 209.12 83.60 C 206.69 79.44 204.21 75.31 201.40 71.40 C 202.36 71.58 204.30 71.95 205.26 72.14 C 206.95 75.90 209.82 79.43 209.65 83.74 C 212.99 85.50 216.08 87.69 219.10 89.95 C 221.14 86.17 221.44 81.85 221.86 77.68 C 219.31 75.70 216.57 73.88 214.56 71.31 C 211.33 71.09 208.09 71.18 204.85 71.14 C 203.35 71.40 202.72 69.99 202.08 68.96 Z" />
<path fill="#333333" opacity="1.00" d=" M 145.62 71.52 C 147.08 71.29 148.54 71.00 150.03 70.85 C 151.96 71.87 153.34 73.65 154.94 75.09 C 155.94 75.29 156.93 75.51 157.93 75.73 C 159.43 77.28 161.56 77.58 163.58 77.98 C 161.23 78.23 158.78 78.99 156.45 78.25 C 152.60 76.38 149.78 72.82 145.62 71.52 Z" />
<path fill="#333333" opacity="1.00" d=" M 190.65 72.08 C 191.91 70.70 193.83 71.41 195.43 71.33 C 193.32 72.49 190.60 73.07 189.65 75.56 C 186.91 74.88 189.28 72.71 190.65 72.08 Z" />
<path fill="#333333" opacity="1.00" d=" M 234.61 72.24 C 235.15 72.01 236.21 71.55 236.75 71.31 C 236.84 73.88 236.03 76.24 234.39 78.19 C 234.69 87.50 236.22 97.73 230.76 105.96 C 229.79 108.24 229.33 110.90 227.61 112.75 C 225.03 114.89 221.79 112.88 219.00 112.35 C 214.32 111.65 210.38 108.92 206.32 106.71 C 201.62 103.56 198.86 98.37 196.12 93.59 C 194.93 95.63 194.31 98.28 191.90 99.29 C 191.34 100.32 190.78 101.35 190.22 102.38 C 189.08 108.95 186.24 115.03 182.03 120.19 C 182.99 122.02 186.04 121.20 187.67 122.38 C 191.13 123.41 190.02 128.33 193.15 129.69 C 196.51 131.60 199.94 133.81 201.86 137.28 C 202.92 140.41 203.95 143.57 205.60 146.45 C 207.52 149.71 207.52 153.60 208.41 157.19 C 209.39 160.35 206.34 162.89 206.42 165.99 C 206.65 170.01 207.14 174.04 206.83 178.07 C 204.93 185.51 199.26 191.95 199.43 199.88 C 201.60 203.76 204.93 206.90 206.73 211.03 C 208.74 212.63 210.33 214.67 211.59 216.91 C 209.76 220.75 207.36 224.99 202.81 225.89 C 197.32 228.15 191.56 225.14 187.93 221.03 C 186.57 218.36 187.11 215.05 185.34 212.55 C 184.20 210.90 182.94 209.12 183.56 207.00 C 184.71 202.96 187.30 199.42 187.92 195.20 C 188.53 191.14 188.83 186.89 187.59 182.91 C 186.07 177.60 189.00 172.56 190.85 167.77 C 190.50 165.31 189.59 162.96 189.08 160.54 C 186.65 159.61 184.26 158.61 181.83 157.71 C 179.15 156.90 175.62 157.87 173.88 155.10 C 170.41 150.44 164.16 147.51 158.39 149.16 C 154.31 149.79 151.91 153.54 149.59 156.56 C 148.18 158.14 148.12 160.29 147.87 162.27 C 144.61 163.47 141.13 163.16 137.75 163.36 C 134.94 160.90 132.33 164.74 129.54 165.38 C 122.64 167.09 118.70 173.55 112.58 176.65 C 108.19 179.39 102.91 179.91 98.24 182.02 C 93.77 183.50 90.88 187.48 86.83 189.68 C 80.68 193.10 73.16 192.84 67.08 196.43 C 64.67 197.59 62.39 199.02 60.25 200.63 C 62.84 203.41 63.90 207.22 64.00 210.93 C 62.07 214.06 58.43 214.94 55.07 215.57 C 52.20 216.10 50.65 218.98 47.91 219.85 C 43.09 222.54 37.03 222.90 32.15 220.15 C 28.62 219.18 28.91 214.85 29.11 211.97 C 30.85 208.92 34.94 208.68 37.06 205.99 C 39.62 202.89 42.24 199.84 44.37 196.43 C 46.66 192.50 51.85 192.06 54.60 188.58 C 60.68 181.56 68.14 175.94 75.58 170.48 C 80.10 167.82 85.61 167.86 90.50 166.41 C 94.96 163.09 101.31 162.44 104.61 157.62 C 109.22 146.60 119.44 139.59 128.43 132.35 C 130.73 130.40 134.27 129.33 135.11 126.13 C 135.82 123.96 136.31 121.73 137.05 119.58 C 137.53 119.90 138.05 120.15 138.60 120.34 C 139.32 125.80 135.86 130.77 131.19 133.28 C 126.78 136.41 122.21 139.51 118.71 143.69 C 116.04 146.73 112.52 148.97 110.27 152.39 C 108.10 155.25 106.84 158.74 104.34 161.35 C 100.78 164.62 95.90 165.89 92.29 169.11 C 90.15 170.47 88.86 173.07 86.36 173.83 C 85.83 172.08 87.44 170.94 88.25 169.63 C 84.07 170.34 79.68 170.82 75.91 172.90 C 71.32 176.08 66.90 179.52 62.69 183.19 C 68.86 179.43 74.98 175.20 82.32 174.15 C 82.28 174.62 82.20 175.56 82.16 176.02 C 73.03 177.29 66.38 184.08 58.25 187.67 C 56.86 189.15 55.65 190.80 54.18 192.21 C 51.32 194.25 47.67 195.40 45.66 198.47 C 42.15 203.59 38.72 209.94 31.98 211.03 C 31.04 213.15 30.19 216.08 32.69 217.51 C 38.42 221.09 46.41 219.46 51.10 214.85 C 54.34 212.50 59.70 213.98 61.84 209.94 C 61.58 207.02 60.83 204.05 59.02 201.67 C 57.83 204.47 56.54 207.23 54.86 209.78 C 52.06 208.12 54.93 206.04 55.88 204.23 C 53.17 203.85 54.40 201.64 54.80 200.03 C 55.89 200.60 56.96 201.20 58.02 201.84 C 58.06 198.62 61.21 197.07 63.53 195.52 C 70.55 192.08 78.05 189.77 85.45 187.34 C 89.13 185.08 93.21 183.39 96.43 180.46 C 98.82 178.46 102.59 178.89 104.57 176.30 C 100.43 176.01 96.84 177.78 93.04 178.99 C 93.15 179.38 93.37 180.15 93.48 180.53 C 89.05 181.55 84.52 182.00 80.04 182.69 C 75.92 184.50 72.27 187.40 67.81 188.38 C 65.03 189.09 62.62 190.74 60.01 191.89 C 67.50 186.67 75.84 182.94 83.90 178.73 C 86.60 180.44 89.88 179.58 92.88 179.87 C 92.79 179.18 92.60 177.80 92.51 177.11 C 96.43 175.94 100.11 173.43 104.40 174.55 C 104.45 175.07 104.56 176.10 104.61 176.62 C 110.25 176.28 114.75 172.84 118.80 169.25 C 116.94 170.12 115.05 171.19 112.91 170.94 C 111.34 170.60 110.45 172.17 109.30 172.91 C 110.54 171.17 111.72 169.39 112.71 167.49 C 114.96 168.49 117.55 169.28 120.00 168.54 C 122.11 167.39 123.99 165.89 125.93 164.48 C 127.93 161.66 130.37 159.17 132.86 156.77 C 132.56 159.48 130.62 161.39 128.98 163.38 C 131.77 162.01 134.49 160.51 137.18 158.96 C 137.85 160.31 138.48 161.67 139.08 163.05 C 139.22 162.45 139.50 161.24 139.64 160.63 C 141.86 160.82 144.09 161.01 146.32 161.12 C 145.50 159.36 143.78 158.60 142.13 157.86 C 141.48 158.44 140.18 159.59 139.53 160.17 C 139.58 159.46 139.67 158.06 139.72 157.35 C 136.32 156.28 132.94 155.17 129.53 154.11 C 128.25 156.89 125.99 159.09 123.18 160.29 C 121.37 160.23 119.56 160.24 117.76 160.18 C 118.88 159.89 120.02 159.64 121.16 159.40 C 124.16 157.95 126.71 155.81 128.78 153.21 C 124.78 151.60 120.48 150.92 116.51 149.27 C 116.80 146.66 119.59 148.17 121.14 148.19 C 123.23 148.43 125.24 149.10 127.18 149.90 C 133.60 153.27 141.45 152.96 147.32 157.54 C 150.01 153.40 152.34 147.54 158.09 147.35 C 158.55 147.01 159.48 146.35 159.94 146.01 C 164.57 146.04 169.29 147.43 172.36 151.10 C 173.19 147.08 173.57 141.92 177.71 139.84 C 182.15 138.37 186.11 135.02 191.02 135.42 C 193.79 135.18 196.39 136.22 198.99 137.00 C 196.65 133.42 192.36 132.18 189.02 129.80 C 187.22 128.28 188.72 124.79 186.07 123.96 C 182.03 122.49 178.07 124.58 174.58 126.44 C 171.12 128.70 166.81 127.52 162.93 127.68 C 158.26 127.13 152.92 128.24 148.94 125.12 C 146.13 122.73 142.19 121.89 139.95 118.84 C 141.44 115.22 141.67 111.27 141.81 107.32 L 140.12 107.68 C 140.23 105.24 140.41 102.80 140.78 100.38 C 144.17 101.10 141.19 104.79 143.36 106.56 C 144.59 109.10 147.34 110.16 149.06 112.26 C 148.60 112.29 147.67 112.34 147.21 112.37 L 147.70 111.39 C 147.06 111.09 145.77 110.51 145.13 110.22 L 145.62 112.55 C 144.68 111.86 143.74 111.15 142.82 110.44 C 142.63 112.63 142.44 114.86 142.85 117.04 C 145.03 119.93 147.76 122.93 151.51 123.63 C 153.76 124.13 155.67 125.52 157.88 126.15 C 160.47 126.01 163.09 125.82 165.62 126.60 C 165.71 126.19 165.90 125.37 165.99 124.96 C 166.16 125.51 166.50 126.61 166.67 127.17 C 169.62 126.51 170.91 123.77 172.34 121.44 C 174.80 118.82 177.56 116.31 178.71 112.78 C 175.65 110.01 172.30 107.63 169.03 105.13 C 169.27 104.31 169.51 103.49 169.76 102.67 C 170.29 102.43 171.35 101.94 171.88 101.69 C 177.17 103.88 183.81 103.93 188.54 100.37 C 191.01 98.51 192.65 95.80 194.44 93.33 C 194.57 91.78 194.75 90.24 195.00 88.70 C 198.10 94.07 201.08 99.81 205.99 103.77 C 209.76 106.28 213.63 108.76 217.94 110.24 C 216.16 108.69 214.22 107.26 213.07 105.15 C 215.98 106.28 218.64 107.99 220.84 110.22 C 222.26 111.94 224.96 112.31 226.93 111.43 C 230.11 105.20 234.04 98.28 232.20 91.05 C 231.64 86.83 232.17 82.53 232.29 78.30 C 233.64 76.51 234.67 74.54 234.61 72.24 M 171.44 104.38 C 174.22 108.00 178.24 110.55 181.07 113.97 C 179.75 118.27 174.51 119.42 172.81 123.48 C 175.13 122.58 178.80 123.09 179.83 120.25 C 181.29 116.70 184.62 114.62 186.83 111.63 C 188.54 109.28 188.17 106.22 187.54 103.56 C 184.33 105.48 180.60 105.56 176.98 105.49 C 175.14 105.08 173.39 104.04 171.44 104.38 M 191.81 137.87 C 193.00 139.04 194.21 140.20 195.44 141.33 C 195.22 141.63 194.77 142.22 194.54 142.52 C 193.08 141.04 191.61 139.54 189.92 138.31 C 183.16 138.55 175.61 142.58 174.04 149.66 C 177.46 152.10 180.50 155.64 184.94 156.09 C 186.45 156.52 188.38 156.17 189.53 157.48 C 192.48 160.23 192.05 164.62 193.66 168.06 C 194.84 170.26 196.37 172.26 197.54 174.47 C 195.23 173.39 194.20 170.91 192.71 169.02 C 190.56 173.62 188.16 178.78 189.78 183.93 C 191.40 191.43 189.43 199.03 186.46 205.92 C 185.26 208.11 186.08 210.60 187.76 212.26 C 190.49 214.97 189.44 220.04 193.42 221.63 C 198.48 226.22 207.15 223.48 209.08 217.03 C 207.48 214.96 205.41 213.26 204.03 211.02 C 201.93 207.54 200.52 203.52 197.38 200.79 C 197.50 199.36 197.73 196.51 197.84 195.08 C 197.11 196.25 195.65 198.58 194.92 199.75 C 194.08 194.37 198.22 190.02 198.71 184.85 C 199.64 180.77 200.08 176.61 199.72 172.43 C 201.20 170.71 202.71 169.00 204.43 167.52 C 204.08 169.51 202.89 171.14 201.72 172.72 C 202.14 177.90 201.06 182.98 200.10 188.04 C 203.73 182.75 205.79 176.42 205.35 169.98 C 204.61 164.51 206.11 159.13 207.53 153.89 C 206.93 151.35 204.63 149.61 203.45 147.33 C 201.99 148.02 200.56 148.77 199.19 149.63 C 199.32 149.12 199.56 148.10 199.68 147.59 C 200.21 147.38 201.26 146.96 201.79 146.75 C 202.77 144.88 201.23 142.90 200.65 141.12 C 199.38 137.52 194.60 138.90 191.81 137.87 Z" />
<path fill="#333333" opacity="1.00" d=" M 172.12 79.82 C 176.27 78.27 180.05 75.20 184.61 75.20 C 184.64 75.62 184.70 76.47 184.73 76.89 C 180.93 77.61 177.56 79.68 173.76 80.36 C 173.27 81.35 172.79 82.34 172.29 83.32 C 172.25 82.45 172.17 80.70 172.12 79.82 Z" />
<path fill="#333333" opacity="1.00" d=" M 136.67 91.79 C 137.07 92.81 137.45 93.84 137.84 94.86 C 135.75 96.85 134.19 100.05 131.03 100.39 C 129.06 100.43 125.75 102.08 125.41 99.00 C 127.60 98.82 129.78 98.57 131.95 98.26 C 132.89 97.36 133.83 96.47 134.76 95.57 L 135.62 95.57 L 135.30 94.37 L 136.34 94.49 C 136.42 93.82 136.59 92.47 136.67 91.79 Z" />
<path fill="#333333" opacity="1.00" d=" M 168.81 93.10 C 169.63 93.24 170.45 93.38 171.26 93.52 C 171.25 96.06 170.94 98.58 170.25 101.03 C 169.19 102.19 168.16 103.37 167.12 104.54 C 166.65 104.31 165.70 103.84 165.23 103.61 C 161.65 104.84 157.78 105.63 154.01 104.91 C 151.28 104.22 148.93 102.59 146.48 101.26 C 146.23 99.68 145.97 98.10 145.70 96.53 C 148.88 99.49 152.07 103.39 156.94 102.98 C 160.93 102.29 165.75 103.49 168.73 100.18 C 168.81 97.82 168.83 95.46 168.81 93.10 Z" />
<path fill="#333333" opacity="1.00" d=" M 146.08 105.35 C 147.96 105.68 149.83 106.11 151.70 106.51 C 151.59 107.03 151.36 108.08 151.25 108.60 C 149.07 108.33 146.99 107.50 146.08 105.35 Z" />
<path fill="#333333" opacity="1.00" d=" M 154.89 109.83 C 157.16 108.19 159.59 106.77 162.19 105.72 C 161.89 109.32 157.75 109.86 154.89 109.83 Z" />
<path fill="#333333" opacity="1.00" d=" M 166.56 112.02 C 166.61 109.89 165.79 106.56 168.63 106.00 C 168.57 108.71 168.51 111.46 167.95 114.11 C 167.59 116.15 165.50 116.88 164.00 117.91 C 164.77 115.91 165.65 113.96 166.56 112.02 Z" />
<path fill="#333333" opacity="1.00" d=" M 151.44 115.98 C 149.52 113.45 151.40 110.43 154.31 110.23 C 153.17 112.68 153.14 115.30 153.40 117.93 C 153.75 119.00 152.28 119.08 151.74 119.62 C 151.60 118.41 151.50 117.19 151.44 115.98 Z" />
<path fill="#333333" opacity="1.00" d=" M 143.58 128.98 C 149.19 128.45 154.47 131.20 160.02 131.54 C 163.26 131.52 166.45 130.92 169.67 130.57 C 169.22 131.34 168.77 132.12 168.33 132.90 L 169.08 130.93 C 161.75 134.82 153.55 132.23 146.05 130.43 C 145.15 130.08 144.33 129.59 143.58 128.98 Z" />
<path fill="#333333" opacity="1.00" d=" M 160.09 142.19 C 165.22 137.10 171.64 133.65 177.37 129.31 C 177.37 129.76 177.36 130.65 177.36 131.09 C 176.77 131.27 175.58 131.63 174.99 131.81 C 172.66 135.13 171.34 139.36 167.92 141.78 C 167.85 140.81 167.71 138.88 167.63 137.91 C 165.40 139.98 163.15 142.11 160.51 143.67 C 160.40 143.30 160.20 142.56 160.09 142.19 Z" />
<path fill="#333333" opacity="1.00" d=" M 134.42 134.69 C 140.35 134.61 146.20 135.65 152.11 135.94 C 149.12 137.08 146.03 136.18 143.04 135.58 C 140.10 135.62 137.23 136.58 134.27 136.46 C 134.31 136.02 134.38 135.13 134.42 134.69 Z" />
<path fill="#333333" opacity="1.00" d=" M 196.41 141.32 C 196.97 140.55 197.54 139.78 198.13 139.03 C 198.48 141.41 198.66 143.80 198.75 146.20 C 197.96 144.58 197.19 142.94 196.41 141.32 Z" />
<path fill="#333333" opacity="1.00" d=" M 185.58 143.97 C 188.58 145.82 189.21 149.72 192.00 151.71 C 194.14 151.70 196.27 151.44 198.40 151.25 C 197.91 151.73 196.92 152.69 196.43 153.17 L 195.60 152.21 C 195.85 154.33 196.49 156.36 197.53 158.22 C 198.97 160.62 198.33 163.52 198.34 166.17 C 197.17 163.31 196.46 160.30 196.24 157.22 C 195.72 156.77 194.68 155.88 194.16 155.44 L 195.92 154.96 C 193.20 153.01 190.14 151.60 187.47 149.60 C 186.26 147.99 186.15 145.85 185.58 143.97 Z" />
<path fill="#333333" opacity="1.00" d=" M 106.26 161.53 C 108.33 160.45 110.14 158.96 111.93 157.47 C 112.37 157.78 113.25 158.41 113.70 158.73 C 113.80 160.94 111.32 160.77 109.84 161.48 C 108.64 161.48 107.45 161.49 106.26 161.53 Z" />
<path fill="#333333" opacity="1.00" d=" M 194.45 185.22 C 194.42 182.08 193.27 178.40 195.40 175.70 C 195.59 178.91 195.05 182.09 194.45 185.22 Z" />
<path fill="#333333" opacity="1.00" d=" M 45.30 208.86 C 46.10 205.00 48.33 201.53 51.06 198.75 C 49.75 202.33 48.68 206.67 45.30 208.86 Z" />
<path fill="#333333" opacity="1.00" d=" M 192.43 203.03 C 192.93 202.14 193.72 201.46 194.41 200.73 C 192.10 205.66 194.88 210.58 195.58 215.53 C 195.10 215.52 194.14 215.51 193.66 215.50 C 192.24 211.50 191.96 207.22 192.43 203.03 Z" />
</g>
</svg>
