<?xml version="1.0" encoding="UTF-8" ?>
<!DOCTYPE svg PUBLIC "-//W3C//DTD SVG 1.1//EN" "http://www.w3.org/Graphics/SVG/1.1/DTD/svg11.dtd">
<svg width="268pt" height="275pt" viewBox="0 0 268 275" version="1.1" xmlns="http://www.w3.org/2000/svg"><g id="#4f504fff">
<path fill="#333333" opacity="1.00" d=" M 62.31 0.00 L 64.20 0.00 C 64.25 15.36 64.26 30.71 64.30 46.07 C 65.46 46.58 66.62 47.10 67.78 47.62 C 68.50 31.76 67.93 15.87 68.50 0.00 L 69.49 0.00 C 69.93 16.04 69.46 32.09 69.92 48.13 C 71.11 47.04 72.73 45.98 72.35 44.09 C 72.39 29.40 72.34 14.70 72.46 0.00 L 74.88 0.00 C 74.84 13.00 74.89 26.01 74.82 39.01 C 74.82 41.27 74.97 43.54 75.31 45.78 C 76.27 51.36 75.58 57.04 75.98 62.66 C 78.13 60.82 79.31 58.22 80.92 55.96 C 84.90 54.28 89.52 53.19 93.80 54.29 C 95.75 54.98 95.30 57.53 95.97 59.07 C 96.26 58.98 96.83 58.81 97.11 58.73 C 98.49 57.42 100.26 56.74 102.10 56.41 C 118.88 52.99 135.67 49.60 152.43 46.14 C 155.36 45.81 154.91 41.59 157.46 40.73 C 160.61 39.79 163.82 38.96 167.10 38.59 C 169.02 39.10 170.42 40.65 172.00 41.78 C 173.40 41.29 174.71 41.38 175.91 42.07 C 175.92 43.27 175.07 43.86 173.37 43.84 C 173.02 44.57 172.32 46.04 171.96 46.77 C 173.91 46.36 175.87 45.97 177.83 45.60 C 178.00 37.40 177.32 29.16 178.41 21.00 C 178.84 14.01 178.45 7.00 178.58 0.00 L 180.73 0.00 C 180.48 7.43 180.65 14.87 180.71 22.30 C 181.91 22.58 183.13 22.86 184.34 23.15 C 184.34 15.43 184.29 7.71 184.41 0.00 L 185.89 0.00 C 186.34 7.89 185.88 15.78 185.93 23.67 C 186.61 23.46 187.95 23.03 188.63 22.81 C 188.71 15.21 188.66 7.60 188.65 0.00 L 191.25 0.00 C 191.28 5.21 191.34 10.42 191.17 15.62 C 194.74 14.56 199.12 12.72 202.31 15.64 C 207.44 20.22 209.67 27.27 210.57 33.91 C 213.85 33.14 217.12 32.36 220.38 31.53 C 221.26 33.67 222.78 36.51 220.54 38.38 C 217.88 39.21 215.03 40.18 212.23 39.83 C 212.15 39.53 211.98 38.93 211.89 38.62 C 214.55 37.63 217.36 37.14 220.12 36.48 C 219.95 35.90 219.61 34.74 219.45 34.16 C 216.60 34.31 213.84 35.07 211.04 35.56 C 211.46 45.25 210.08 55.90 203.49 63.48 C 200.66 66.93 195.81 67.01 191.92 65.53 C 190.88 70.61 191.34 75.83 191.28 80.98 C 191.25 104.86 191.31 128.74 191.25 152.62 C 193.76 154.91 196.31 157.29 199.56 158.51 C 205.18 160.31 207.92 166.54 208.17 172.02 C 207.22 177.90 206.56 183.93 207.60 189.85 C 209.08 198.20 207.66 206.83 209.69 215.10 C 210.00 216.93 211.59 218.01 212.83 219.21 C 215.85 221.86 218.12 225.34 221.58 227.50 C 223.75 228.87 226.66 228.58 228.61 230.32 C 229.80 231.53 231.65 233.20 230.04 234.91 C 226.22 239.13 220.29 239.41 215.01 238.63 C 212.76 237.45 210.61 235.87 208.07 235.40 C 205.35 235.17 202.67 235.93 199.96 235.78 C 198.03 235.47 196.38 234.36 194.68 233.49 C 193.49 225.29 198.32 217.65 196.80 209.47 C 196.32 204.71 193.10 200.93 191.74 196.47 C 190.78 190.44 192.60 184.46 192.68 178.44 C 188.12 176.74 183.13 175.94 179.20 172.88 C 179.38 173.43 179.73 174.54 179.91 175.10 C 174.94 177.02 169.97 178.95 165.14 181.20 C 165.26 192.79 165.55 204.41 165.08 215.99 C 161.40 218.29 157.38 220.02 153.70 222.34 C 151.42 221.12 149.20 219.80 147.00 218.43 C 146.17 219.93 145.33 221.43 144.50 222.94 C 145.20 220.31 145.83 217.64 145.86 214.90 C 146.04 212.40 145.50 209.45 147.87 207.69 C 147.64 210.15 147.05 212.57 146.83 215.03 C 149.06 217.31 152.44 220.71 155.83 218.71 C 158.34 217.67 160.89 216.53 162.87 214.63 C 163.53 203.82 162.82 192.95 163.18 182.12 C 160.42 183.27 157.46 183.61 154.50 183.17 C 154.40 192.16 155.10 201.20 154.11 210.15 C 152.10 209.22 150.12 208.27 148.08 207.42 C 147.94 206.33 147.81 205.25 147.69 204.17 C 149.42 205.16 151.14 206.19 152.86 207.20 C 153.23 198.80 152.24 190.32 153.35 181.98 L 153.49 181.69 C 153.24 181.47 152.73 181.04 152.48 180.83 C 151.46 177.69 150.66 174.48 150.12 171.22 C 150.71 171.23 151.89 171.23 152.48 171.23 C 154.10 167.28 155.87 163.05 159.47 160.50 C 165.23 156.71 171.79 154.44 178.37 152.53 C 180.51 153.59 182.47 155.03 183.61 157.20 C 184.70 156.81 185.81 156.43 186.92 156.06 C 185.37 158.37 183.14 160.29 182.20 162.98 C 181.19 166.09 179.48 169.45 181.04 172.69 C 186.82 173.79 192.42 175.80 197.72 178.37 C 196.64 178.68 194.50 179.32 193.42 179.63 C 194.42 187.12 192.97 195.20 196.66 202.12 C 199.69 207.22 198.64 213.34 198.82 218.98 C 197.55 222.20 197.01 225.64 196.93 229.10 C 197.06 230.56 196.50 232.69 198.08 233.56 C 201.97 234.25 205.93 233.28 209.83 233.85 C 211.95 234.36 213.85 235.48 215.82 236.37 C 218.88 236.34 222.21 237.71 225.05 236.05 C 226.42 235.37 227.75 234.63 229.11 233.94 C 226.23 230.17 220.65 231.11 217.64 227.50 C 214.52 223.80 211.41 220.08 207.77 216.87 C 205.11 207.90 207.44 198.50 205.24 189.47 C 204.59 183.60 205.61 177.70 206.57 171.92 C 206.41 169.40 205.01 167.12 204.08 164.81 C 202.59 160.92 197.95 160.43 194.98 158.13 C 190.15 154.35 185.00 150.77 179.15 148.76 C 176.04 147.52 172.78 149.19 169.63 149.32 C 170.99 148.02 172.40 146.79 173.82 145.57 C 169.23 145.07 164.54 145.08 160.06 143.88 C 157.59 143.45 157.06 140.75 156.07 138.86 C 154.10 137.89 152.13 136.92 150.15 135.98 C 149.25 132.69 147.88 129.53 145.99 126.69 C 146.88 129.13 148.14 131.50 148.28 134.16 C 147.39 132.93 146.55 131.67 145.74 130.38 C 141.93 125.19 143.60 117.83 139.05 112.98 C 137.76 111.22 135.61 112.64 134.11 113.26 C 132.03 113.14 130.05 112.53 128.43 111.19 C 131.07 111.35 133.67 111.83 136.29 112.21 C 134.77 110.77 133.24 109.34 131.78 107.84 C 130.41 107.41 129.05 106.97 127.71 106.46 C 128.98 106.55 130.25 106.67 131.52 106.79 C 131.97 106.09 132.87 104.70 133.32 104.01 C 134.33 105.29 134.21 106.69 133.59 108.08 C 134.23 108.43 134.87 108.78 135.52 109.14 C 135.50 106.90 135.55 104.65 135.65 102.42 C 136.53 101.34 137.40 100.25 138.24 99.15 C 134.16 100.80 130.00 102.25 125.85 103.73 C 121.15 105.50 116.02 104.87 111.17 105.85 C 108.13 106.47 105.04 106.90 102.00 107.53 C 102.06 111.84 103.91 117.26 100.79 120.86 C 100.12 121.66 99.44 122.45 98.75 123.24 C 95.92 122.56 94.79 119.65 94.60 117.03 C 95.77 118.16 96.90 119.34 97.99 120.55 C 98.54 119.95 99.09 119.34 99.64 118.74 C 98.77 117.44 97.90 116.15 97.01 114.87 C 96.01 115.21 95.01 115.55 94.01 115.88 C 93.99 110.71 93.38 105.59 92.37 100.52 C 96.86 102.00 95.69 107.92 96.26 111.62 C 97.78 112.75 99.31 113.90 100.85 115.02 C 100.77 108.09 99.49 100.42 94.22 95.45 C 94.50 92.98 95.03 90.45 94.51 87.97 C 93.72 85.19 92.08 82.73 91.36 79.92 C 90.72 76.79 90.68 73.57 90.04 70.44 C 88.34 73.68 90.93 77.57 88.72 80.57 C 87.55 77.46 87.18 74.15 86.85 70.86 C 84.86 72.98 85.54 75.94 85.33 78.55 C 84.91 76.93 84.57 75.29 84.24 73.65 C 82.99 72.33 81.77 70.98 80.53 69.65 C 81.49 76.00 82.90 82.36 82.26 88.83 C 81.58 88.16 80.91 87.49 80.24 86.82 C 81.13 80.51 79.28 74.31 79.43 68.01 C 78.22 68.46 77.01 68.92 75.80 69.37 C 75.78 77.94 76.20 86.53 75.07 95.04 C 74.67 133.36 75.00 171.69 74.91 210.01 C 75.12 211.75 74.35 213.25 72.90 214.22 C 72.42 173.50 72.95 132.76 72.64 92.03 C 71.79 92.39 70.09 93.10 69.24 93.45 C 69.18 98.65 69.93 103.82 69.88 109.02 C 69.35 129.33 68.98 149.68 69.98 169.98 C 69.58 184.46 70.66 198.99 69.54 213.44 C 67.52 209.93 68.24 205.77 68.15 201.91 C 68.13 188.26 68.19 174.61 68.11 160.96 C 67.08 147.31 68.81 133.66 68.01 120.00 C 67.43 111.19 68.61 102.41 68.52 93.60 C 67.17 93.04 65.81 92.49 64.45 91.95 C 64.70 128.29 64.47 164.64 64.87 200.98 C 64.91 204.31 65.13 207.71 64.23 210.96 C 62.99 209.94 62.44 208.62 62.59 207.01 C 62.37 171.33 62.57 135.65 62.40 99.97 C 62.42 96.92 62.44 93.84 61.96 90.82 C 60.92 84.94 61.74 78.96 61.63 73.04 C 61.97 63.01 60.95 52.94 62.26 42.95 C 62.45 28.64 62.24 14.32 62.31 0.00 M 196.39 14.64 C 194.66 15.81 192.64 16.68 191.29 18.34 C 190.98 20.24 191.50 22.12 192.15 23.88 C 192.26 28.45 192.18 33.02 192.20 37.60 C 193.87 37.08 195.54 36.56 197.20 36.00 C 198.44 37.38 199.91 38.87 199.35 40.92 C 198.97 44.27 194.55 43.57 192.23 44.56 C 192.18 50.67 192.21 56.78 192.21 62.89 C 195.09 64.36 198.97 64.85 201.57 62.55 C 205.55 59.16 207.08 53.88 208.54 49.05 C 210.22 39.56 209.57 29.16 204.25 20.85 C 202.59 17.76 199.20 16.43 196.39 14.64 M 180.38 65.53 C 181.74 65.99 183.11 66.43 184.48 66.85 C 184.49 62.92 184.36 58.98 184.13 55.06 C 183.59 45.23 184.55 35.40 184.23 25.58 C 182.95 25.14 181.68 24.70 180.42 24.26 C 180.25 38.02 180.44 51.78 180.38 65.53 M 185.82 25.79 C 185.93 39.50 185.32 53.25 186.43 66.93 C 187.45 66.51 188.50 66.12 189.48 65.59 C 190.01 64.13 189.78 62.53 189.85 61.01 C 189.70 48.96 189.90 36.91 189.78 24.87 C 188.46 25.18 187.14 25.48 185.82 25.79 M 192.16 42.76 C 194.53 42.14 198.08 41.84 197.08 38.37 C 194.62 38.92 191.20 39.36 192.16 42.76 M 157.81 41.77 C 157.51 42.23 156.90 43.15 156.59 43.61 C 158.99 43.44 161.36 43.02 163.76 42.88 L 163.55 44.29 L 161.54 45.03 C 162.75 45.49 163.90 46.05 165.07 46.61 C 163.53 48.34 158.72 51.28 158.55 47.05 C 159.58 47.06 161.63 47.07 162.65 47.07 C 162.01 46.45 161.37 45.84 160.72 45.22 C 159.24 45.43 157.77 45.67 156.30 45.93 C 155.97 48.04 155.39 50.14 155.45 52.29 C 156.71 53.26 158.17 54.22 159.84 54.14 C 161.88 52.97 163.88 51.64 166.26 51.26 C 164.83 53.29 162.62 54.50 160.64 55.91 C 161.28 59.30 163.21 62.97 161.27 66.27 C 158.29 72.43 157.22 79.28 154.68 85.59 C 152.30 88.73 147.86 89.32 145.18 92.22 C 141.51 96.08 137.93 100.90 137.98 106.46 C 143.06 103.76 147.48 100.08 152.17 96.79 C 150.31 99.09 148.40 101.34 146.29 103.41 C 143.89 105.76 140.71 107.01 138.01 108.94 C 138.58 111.66 142.61 112.81 141.52 116.24 C 142.86 119.17 144.87 121.68 146.82 124.21 C 149.10 127.11 150.15 130.74 152.23 133.77 C 153.48 135.63 155.78 136.23 157.69 137.17 C 157.42 137.53 156.88 138.26 156.61 138.63 C 158.22 139.38 159.68 140.41 160.56 141.99 C 166.77 143.71 174.39 141.87 179.55 146.48 C 181.13 147.23 182.70 147.97 184.28 148.75 C 184.86 136.83 183.43 124.92 184.27 113.00 C 184.24 98.29 184.43 83.58 184.45 68.87 C 183.20 68.63 181.96 68.39 180.71 68.16 C 181.28 94.00 181.18 119.85 181.09 145.69 C 180.52 145.68 179.39 145.66 178.82 145.65 C 178.31 138.79 178.81 131.92 178.74 125.05 C 178.66 106.37 178.80 87.69 178.55 69.02 C 177.11 61.85 177.92 54.53 177.94 47.28 C 176.16 47.78 174.37 48.21 172.56 48.51 C 169.75 54.15 172.68 60.16 171.91 66.06 C 171.43 70.85 172.18 75.92 170.04 80.42 C 169.04 82.94 166.61 86.36 169.64 88.42 C 166.52 91.87 163.03 95.15 161.26 99.57 C 157.88 107.25 151.52 113.22 144.10 116.96 L 143.10 116.47 C 144.61 113.20 148.35 112.00 151.00 109.86 C 155.26 106.80 156.64 101.48 159.60 97.39 C 161.57 94.70 163.27 91.78 165.69 89.45 C 166.49 82.77 168.73 76.37 170.94 70.05 C 170.84 64.40 169.99 58.80 169.59 53.17 C 169.14 53.15 168.23 53.10 167.77 53.08 C 167.63 55.14 167.50 57.21 167.27 59.27 C 166.40 56.51 166.99 53.70 167.76 51.01 C 168.55 50.98 170.12 50.90 170.91 50.87 C 171.21 48.79 171.50 46.71 171.82 44.64 C 170.28 43.31 168.71 42.01 167.09 40.78 C 164.04 41.46 160.92 41.55 157.81 41.77 M 107.49 57.34 C 103.64 58.07 99.89 59.65 95.90 59.33 C 96.15 60.05 96.66 61.50 96.92 62.22 C 102.08 62.54 106.43 59.30 111.38 58.45 C 114.52 57.68 117.81 58.20 120.97 57.51 C 132.05 55.20 143.11 52.70 154.31 51.00 C 154.24 50.22 154.10 48.67 154.03 47.90 C 138.53 51.09 123.00 54.18 107.49 57.34 M 64.02 48.37 C 64.15 62.24 63.92 76.12 64.20 89.99 C 65.52 90.25 66.85 90.51 68.18 90.76 C 67.47 77.02 67.98 63.26 67.89 49.51 C 66.60 49.13 65.31 48.75 64.02 48.37 M 69.73 49.38 C 69.35 63.21 69.27 77.06 70.08 90.87 C 71.22 90.37 72.36 89.87 73.50 89.37 C 73.47 75.97 73.49 62.57 73.57 49.17 C 72.29 49.23 71.01 49.30 69.73 49.38 M 128.44 57.30 C 122.77 58.58 117.07 59.75 111.30 60.42 C 106.54 61.67 101.82 63.06 97.03 64.18 C 97.22 64.55 97.61 65.27 97.80 65.63 C 96.52 68.36 94.42 70.41 91.61 71.56 C 91.89 73.37 92.14 75.19 92.36 77.01 C 94.81 82.06 97.21 87.49 96.86 93.24 C 98.19 97.06 99.30 100.96 100.69 104.77 C 105.44 104.24 110.27 104.73 114.95 103.55 C 115.30 99.23 111.80 96.38 109.23 93.45 C 107.57 93.44 105.91 93.42 104.25 93.40 C 103.81 94.81 103.38 96.22 102.92 97.61 C 102.29 97.86 101.02 98.35 100.39 98.60 C 101.56 96.78 102.32 94.78 102.37 92.60 C 101.50 92.33 99.76 91.78 98.89 91.51 C 101.86 90.91 105.01 90.24 108.01 91.12 C 113.16 92.09 115.96 97.68 116.06 102.52 C 119.42 102.78 122.77 102.45 126.13 102.55 C 128.64 101.03 131.04 99.28 133.74 98.11 C 135.90 97.26 138.90 97.64 140.25 95.40 C 141.99 92.58 143.95 89.75 147.02 88.23 C 149.12 86.72 152.33 86.23 153.34 83.56 C 155.62 76.90 156.91 69.90 159.96 63.52 C 161.15 61.35 160.26 58.88 160.12 56.58 C 157.57 55.88 155.40 54.43 153.62 52.52 C 145.42 54.96 136.87 55.93 128.44 57.30 M 82.01 57.35 C 81.51 58.36 81.00 59.37 80.50 60.39 C 83.20 62.89 83.40 67.01 80.28 69.29 C 81.56 69.64 82.83 70.05 84.08 70.52 C 86.95 69.23 90.23 70.91 92.89 68.94 C 96.18 67.88 95.44 63.77 95.74 61.05 C 94.71 58.52 91.53 60.07 89.52 59.70 C 91.16 58.91 92.88 58.29 94.58 57.63 C 91.61 53.44 85.99 56.76 82.01 57.35 M 75.85 63.80 C 75.85 64.63 75.84 66.29 75.83 67.12 C 77.52 66.74 79.20 66.35 80.88 65.99 C 80.85 65.22 80.79 63.68 80.76 62.91 C 79.11 63.16 77.48 63.45 75.85 63.80 M 185.19 69.60 C 185.97 77.04 186.51 84.53 185.85 92.00 C 185.38 104.66 185.80 117.34 185.64 130.00 C 185.47 135.82 186.91 141.67 185.78 147.45 C 185.88 148.34 186.02 149.22 186.17 150.10 C 187.08 150.58 188.90 151.53 189.81 152.01 C 189.22 149.73 188.99 147.39 189.05 145.04 C 189.28 119.36 189.16 93.68 188.94 68.00 C 187.69 68.53 186.44 69.07 185.19 69.60 M 162.20 161.13 C 159.92 162.18 158.75 164.53 157.32 166.45 C 154.51 169.98 154.62 174.72 154.10 178.98 C 155.61 180.21 157.30 182.76 159.50 181.37 C 164.73 178.97 170.36 177.31 175.32 174.38 C 178.11 169.66 179.84 164.30 180.65 158.89 C 181.33 157.16 179.66 155.87 178.11 155.71 C 172.55 156.60 167.23 158.64 162.20 161.13 Z" />
<path fill="#333333" opacity="1.00" d=" M 37.18 48.21 C 40.59 44.87 46.92 43.70 50.63 47.18 C 55.85 52.07 57.70 59.29 59.00 66.07 C 59.58 65.76 60.72 65.15 61.29 64.84 C 61.34 65.54 61.42 66.94 61.46 67.64 C 60.84 67.29 59.60 66.59 58.98 66.24 C 59.76 76.44 59.03 87.45 53.01 96.11 C 50.49 99.99 45.06 102.79 40.66 100.31 C 37.75 99.11 35.81 96.53 34.30 93.88 C 31.73 89.52 30.24 84.54 30.02 79.49 C 32.04 80.50 32.07 82.92 32.65 84.80 C 33.65 89.28 35.69 93.70 39.19 96.75 C 42.10 99.21 46.76 99.29 49.57 96.65 C 54.13 92.75 56.00 86.73 57.00 81.02 C 58.51 72.65 57.70 63.78 54.38 55.93 C 52.51 51.38 48.62 47.91 44.11 46.08 C 33.72 49.60 31.47 62.14 31.08 71.71 C 35.37 70.74 39.64 69.67 43.97 68.93 C 46.04 70.79 45.66 73.79 44.24 75.91 C 38.39 76.52 32.71 78.18 26.92 79.16 C 23.56 77.34 25.36 69.27 29.36 72.96 C 29.38 64.25 31.27 54.91 37.18 48.21 M 28.01 73.51 C 27.32 74.37 27.31 75.50 27.10 76.53 C 27.96 76.09 28.76 75.50 29.69 75.22 C 31.77 77.64 35.03 75.08 37.63 75.02 C 39.80 74.34 44.80 74.59 43.20 71.04 C 38.15 71.85 33.14 73.48 28.01 73.51 Z" />
<path fill="#333333" opacity="1.00" d=" M 164.08 54.80 C 165.82 56.17 164.95 59.66 164.51 61.69 C 163.31 60.15 163.67 56.82 164.08 54.80 Z" />
<path fill="#333333" opacity="1.00" d=" M 86.72 59.62 C 88.79 61.29 91.10 62.46 93.87 61.92 C 92.61 62.76 91.33 63.57 90.05 64.37 C 88.49 63.14 86.87 61.76 86.72 59.62 Z" />
<path fill="#333333" opacity="1.00" d=" M 60.22 71.00 C 60.83 71.62 60.83 71.62 60.22 71.00 Z" />
<path fill="#333333" opacity="1.00" d=" M 159.79 89.45 C 160.10 86.91 158.99 83.05 162.35 82.29 C 162.28 84.01 162.19 85.74 162.13 87.46 C 161.35 88.12 160.57 88.79 159.79 89.45 Z" />
<path fill="#333333" opacity="1.00" d=" M 79.53 87.31 C 80.12 88.17 80.82 88.94 81.64 89.59 C 81.65 91.34 81.41 93.16 81.93 94.86 C 83.43 97.70 87.48 98.94 87.72 102.45 C 86.69 102.11 84.65 101.44 83.62 101.10 C 83.16 105.58 84.00 109.99 85.56 114.18 C 88.57 116.90 85.66 121.80 88.94 124.27 C 90.83 126.11 93.63 126.63 95.51 128.48 C 97.82 131.40 99.30 135.10 102.47 137.27 C 105.38 138.87 108.98 139.13 111.46 141.50 C 114.31 144.12 117.91 145.74 120.70 148.42 C 120.46 149.00 119.97 150.16 119.72 150.73 C 114.01 146.80 109.25 140.68 101.90 139.92 C 105.58 143.97 110.21 146.98 114.19 150.71 C 116.40 152.81 118.74 154.76 121.16 156.62 C 120.86 155.05 120.78 153.48 120.89 151.90 C 121.18 150.36 122.24 152.01 122.60 152.54 C 123.10 151.48 123.72 150.49 124.47 149.58 C 125.78 152.46 123.11 154.57 123.21 157.32 C 123.53 156.64 124.18 155.30 124.50 154.63 C 125.70 152.80 126.49 150.76 127.26 148.73 C 126.42 148.22 125.57 147.73 124.70 147.27 C 123.46 148.10 122.37 149.13 121.15 149.99 C 122.00 145.74 125.89 143.45 128.81 140.71 C 133.82 135.96 140.97 134.69 147.60 134.12 C 147.84 134.50 148.32 135.26 148.56 135.64 C 144.47 136.10 140.54 137.38 136.57 138.41 C 131.75 139.55 128.69 143.76 125.09 146.80 C 126.90 146.50 128.56 145.80 129.85 144.48 C 133.40 143.38 136.47 141.20 139.94 139.94 C 139.19 144.38 133.90 144.81 130.37 145.72 C 130.50 146.27 130.75 147.36 130.88 147.91 C 128.50 150.51 126.46 153.58 125.57 157.02 C 125.15 161.79 125.60 166.68 127.27 171.20 C 128.92 168.91 130.13 165.99 132.85 164.75 C 138.43 162.39 145.93 162.53 149.72 167.91 C 149.54 166.38 149.36 164.85 149.18 163.33 C 149.83 163.41 151.13 163.56 151.78 163.64 C 151.08 165.77 150.36 167.89 149.52 169.97 C 148.06 168.76 146.62 167.53 145.19 166.30 C 141.44 166.26 137.52 165.39 133.90 166.64 C 131.01 168.61 129.63 172.05 127.93 174.98 C 125.82 172.70 124.66 169.80 123.50 166.97 C 123.48 164.64 124.23 161.67 122.06 160.03 C 119.54 158.02 116.83 156.24 114.37 154.15 C 114.39 156.31 114.39 158.47 114.38 160.63 L 115.73 160.41 C 115.40 160.70 114.75 161.28 114.42 161.58 C 114.75 166.92 115.03 172.27 115.61 177.59 C 117.87 178.56 116.84 180.43 115.42 181.45 C 111.42 176.95 113.39 170.29 112.27 164.84 C 111.29 160.92 112.94 157.03 112.55 153.11 C 111.69 149.53 107.49 148.82 105.34 146.22 C 106.33 149.74 106.39 153.41 106.38 157.03 C 106.28 165.05 107.23 173.04 107.26 181.06 C 107.56 182.64 105.86 183.19 104.79 183.77 C 98.96 186.43 92.95 188.64 87.00 190.99 C 84.47 191.78 85.77 195.05 85.24 197.00 C 86.43 198.18 87.52 199.49 88.88 200.47 C 94.33 197.99 99.93 195.88 105.28 193.17 C 105.63 193.50 106.32 194.15 106.67 194.48 C 103.07 196.33 99.53 198.34 95.75 199.82 C 93.19 200.69 90.80 202.40 88.09 202.65 C 82.95 200.51 83.56 194.50 84.36 190.01 C 84.94 188.91 86.45 188.80 87.46 188.23 C 93.34 186.12 99.23 184.02 104.99 181.57 C 103.42 169.29 103.93 156.84 103.41 144.49 C 102.49 143.23 101.11 142.33 100.42 140.92 C 97.21 132.30 87.28 128.51 84.49 119.63 C 82.45 112.79 81.08 105.67 81.82 98.51 C 78.60 95.59 79.99 91.11 79.53 87.31 Z" />
<path fill="#333333" opacity="1.00" d=" M 152.12 97.26 C 153.44 93.71 154.67 90.09 156.63 86.83 C 156.63 88.91 157.03 91.13 156.21 93.10 C 155.07 94.69 153.51 95.91 152.12 97.26 Z" />
<path fill="#333333" opacity="1.00" d=" M 142.77 112.04 C 143.81 108.68 146.96 106.48 150.27 105.73 C 150.69 105.98 151.52 106.49 151.94 106.74 C 148.72 108.24 146.14 110.86 142.77 112.04 Z" />
<path fill="#333333" opacity="1.00" d=" M 106.66 109.02 C 110.15 106.30 115.03 107.60 119.12 106.62 C 119.45 107.11 120.12 108.07 120.45 108.56 C 122.36 107.96 124.29 107.47 126.26 107.14 C 125.08 110.13 121.46 109.23 118.94 109.73 C 116.31 112.21 113.53 114.52 111.09 117.20 C 110.10 118.47 108.47 118.70 107.01 119.06 C 110.27 115.64 113.44 111.88 117.81 109.87 C 117.74 109.52 117.59 108.84 117.52 108.49 C 113.90 108.69 110.28 108.90 106.66 109.02 Z" />
<path fill="#333333" opacity="1.00" d=" M 120.47 116.52 C 122.68 114.70 124.61 112.57 126.81 110.76 C 127.38 116.01 119.10 115.99 119.01 121.06 C 118.64 123.24 119.22 125.40 120.02 127.42 C 119.31 128.77 118.55 130.10 117.70 131.38 C 122.52 132.59 126.97 136.26 132.15 134.40 C 131.75 137.29 128.21 136.63 126.21 137.73 L 128.33 138.54 C 128.54 138.95 128.94 139.79 129.14 140.20 C 127.54 139.67 126.02 138.95 124.60 138.03 L 126.59 137.54 C 126.35 137.06 125.87 136.11 125.63 135.63 C 123.17 134.45 120.47 134.08 117.77 134.09 C 114.31 132.22 117.51 128.89 116.91 126.00 C 116.57 122.55 117.55 118.65 120.47 116.52 Z" />
<path fill="#333333" opacity="1.00" d=" M 130.60 115.45 C 131.30 115.68 132.01 115.92 132.72 116.15 C 132.98 118.43 133.69 120.78 133.01 123.05 C 131.45 124.96 128.59 124.37 126.63 125.56 C 125.26 127.26 124.29 129.50 121.97 130.09 C 123.53 126.07 126.48 121.91 131.33 122.36 C 131.43 120.03 131.08 117.72 130.60 115.45 Z" />
<path fill="#333333" opacity="1.00" d=" M 111.33 119.85 C 113.51 119.00 113.14 122.33 111.40 122.46 C 109.28 123.26 109.79 120.11 111.33 119.85 Z" />
<path fill="#333333" opacity="1.00" d=" M 133.91 122.52 C 135.58 119.82 139.01 120.04 141.43 121.52 C 138.93 121.93 136.42 122.23 133.91 122.52 Z" />
<path fill="#333333" opacity="1.00" d=" M 100.42 123.78 C 102.46 121.43 105.41 121.88 108.02 122.88 C 108.09 123.82 108.22 125.71 108.29 126.66 C 110.62 126.25 112.64 123.69 115.06 124.89 C 112.99 126.32 111.20 128.09 110.07 130.36 C 108.88 130.81 107.69 131.23 106.49 131.64 C 107.67 130.44 108.96 129.35 110.24 128.26 C 108.41 128.00 106.58 127.73 104.77 127.36 C 103.61 130.33 107.27 132.33 108.56 134.67 C 108.19 135.56 107.82 136.45 107.45 137.34 C 105.68 134.62 104.06 131.80 102.35 129.05 C 103.62 127.47 104.88 125.89 106.16 124.32 C 104.25 124.15 102.33 124.00 100.42 123.78 Z" />
<path fill="#333333" opacity="1.00" d=" M 133.05 124.82 C 135.85 124.03 136.39 127.19 137.09 129.11 C 135.00 128.51 134.09 126.53 133.05 124.82 Z" />
<path fill="#333333" opacity="1.00" d=" M 110.52 134.86 C 111.52 133.10 113.64 133.50 115.31 133.29 C 114.58 135.35 112.18 134.62 110.52 134.86 Z" />
<path fill="#333333" opacity="1.00" d=" M 143.96 144.13 C 147.34 142.03 151.11 140.45 155.16 140.50 C 152.65 142.44 149.75 143.72 146.84 144.92 C 143.26 146.33 140.58 149.54 136.67 150.16 C 138.25 147.31 141.37 145.90 143.96 144.13 Z" />
<path fill="#333333" opacity="1.00" d=" M 141.54 149.80 C 145.62 145.96 151.27 145.00 156.56 143.98 C 155.32 146.99 151.85 146.17 149.36 147.07 C 146.79 148.10 144.27 149.29 141.54 149.80 Z" />
<path fill="#333333" opacity="1.00" d=" M 157.13 153.12 C 156.77 150.22 157.52 147.34 160.11 145.70 C 159.12 148.18 158.08 150.64 157.13 153.12 Z" />
<path fill="#333333" opacity="1.00" d=" M 133.05 155.18 C 136.52 153.67 140.23 152.80 143.98 152.32 C 141.18 155.44 136.93 155.57 133.05 155.18 Z" />
<path fill="#333333" opacity="1.00" d=" M 161.11 166.94 C 164.48 162.34 170.01 159.92 175.54 159.18 C 175.48 159.73 175.37 160.82 175.32 161.37 C 170.17 162.15 165.93 165.27 161.11 166.94 Z" />
<path fill="#333333" opacity="1.00" d=" M 194.34 161.79 C 197.44 163.25 198.70 166.78 198.87 169.99 C 197.73 171.71 196.05 173.66 193.76 173.44 C 189.92 173.35 187.01 170.34 185.24 167.19 C 188.33 168.65 190.60 171.57 193.99 172.39 C 195.49 171.85 196.39 170.47 196.99 169.08 C 196.50 166.52 195.27 164.20 194.34 161.79 Z" />
<path fill="#333333" opacity="1.00" d=" M 117.38 179.30 C 119.09 176.81 122.33 176.53 124.85 175.27 C 122.80 177.29 120.35 179.03 117.38 179.30 Z" />
<path fill="#333333" opacity="1.00" d=" M 130.53 183.31 C 130.74 181.78 130.65 180.01 131.95 178.92 C 135.36 184.19 136.01 190.82 135.17 196.92 C 135.66 202.03 137.45 206.88 138.45 211.90 C 135.44 210.63 135.79 206.56 134.36 204.08 C 132.25 208.44 130.77 213.17 130.35 218.01 C 130.56 225.54 134.34 232.48 134.32 240.05 C 134.40 242.73 133.56 245.31 133.41 247.97 C 134.72 253.91 137.50 259.42 138.58 265.42 C 141.30 269.82 147.63 270.51 151.80 267.77 C 150.93 267.07 150.65 264.89 149.24 265.39 C 146.12 266.33 142.91 265.82 139.75 265.39 C 142.30 262.33 146.94 264.86 150.24 262.96 C 151.47 264.07 152.30 265.51 153.06 266.97 C 153.88 266.98 155.53 267.00 156.36 267.00 C 156.26 265.10 155.45 263.37 154.22 261.95 C 149.39 256.45 145.27 250.17 142.79 243.25 C 142.42 243.06 141.67 242.68 141.30 242.49 C 139.82 244.96 138.60 247.59 136.78 249.84 C 136.53 249.47 136.03 248.71 135.79 248.34 C 137.39 245.59 138.49 242.02 141.89 241.01 L 142.40 240.46 C 142.07 234.98 141.20 228.87 144.21 223.95 C 143.40 231.30 143.84 238.84 145.78 245.99 C 147.33 249.29 149.52 252.25 151.31 255.43 C 153.64 259.10 158.31 262.08 157.79 266.95 C 157.33 269.02 155.08 268.99 153.42 269.41 C 148.44 273.05 140.80 271.73 136.60 267.38 C 135.45 266.16 135.65 264.36 135.35 262.85 C 135.18 259.70 132.61 257.25 132.69 254.05 C 132.68 250.93 130.78 248.01 131.77 244.88 C 133.76 236.39 129.76 228.29 128.54 220.04 C 127.70 216.23 130.10 212.75 130.15 209.01 C 129.72 208.60 128.87 207.79 128.44 207.38 C 123.66 204.19 119.16 200.58 114.12 197.77 C 111.91 196.12 108.58 195.09 108.06 192.03 C 112.15 193.72 115.69 196.44 119.58 198.53 C 123.39 200.86 127.48 203.01 130.31 206.57 C 130.53 206.56 130.96 206.53 131.18 206.51 C 133.48 202.67 132.96 198.08 133.72 193.84 C 134.19 190.86 134.40 187.31 131.93 185.10 C 128.52 186.02 125.38 187.71 122.15 189.09 C 125.41 191.54 129.21 193.23 132.23 195.99 C 132.31 196.69 132.46 198.09 132.54 198.80 C 127.15 196.09 122.39 192.39 117.76 188.57 C 122.05 186.89 126.31 185.14 130.53 183.31 Z" />
<path fill="#333333" opacity="1.00" d=" M 139.19 184.75 C 140.70 183.16 142.30 181.67 143.93 180.21 C 145.24 180.22 146.56 180.22 147.88 180.21 C 150.46 181.79 151.64 184.32 151.44 187.30 C 150.61 188.53 149.81 189.77 148.98 191.00 C 149.33 189.95 149.69 188.91 150.07 187.88 C 150.47 184.31 147.93 182.05 144.97 180.72 C 143.47 182.54 141.91 184.99 139.19 184.75 Z" />
<path fill="#333333" opacity="1.00" d=" M 142.27 196.07 C 143.84 196.29 145.40 196.52 146.95 196.85 C 145.88 198.13 144.30 198.34 142.77 198.53 C 142.64 197.91 142.39 196.69 142.27 196.07 Z" />
<path fill="#333333" opacity="1.00" d=" M 140.99 223.65 C 140.27 217.00 141.78 209.96 146.20 204.81 C 147.31 208.67 143.39 211.22 143.23 214.94 C 142.42 217.79 143.79 221.71 140.99 223.65 Z" />
<path fill="#333333" opacity="1.00" d=" M 202.51 228.21 C 199.67 226.67 198.73 222.26 201.16 220.00 C 201.24 222.79 201.78 225.52 202.51 228.21 Z" />
</g>
</svg>
