<?xml version="1.0" encoding="UTF-8" ?>
<!DOCTYPE svg PUBLIC "-//W3C//DTD SVG 1.1//EN" "http://www.w3.org/Graphics/SVG/1.1/DTD/svg11.dtd">
<svg width="246pt" height="275pt" viewBox="0 0 246 275" version="1.1" xmlns="http://www.w3.org/2000/svg"><g id="#424340ff">
<path fill="#333333" opacity="1.00" d=" M 186.44 26.28 C 188.81 24.23 192.06 25.22 194.64 26.32 C 197.34 28.08 198.42 31.35 199.07 34.35 C 196.39 31.61 195.43 26.81 191.09 26.12 C 188.00 27.02 185.17 28.92 183.79 31.90 C 181.78 34.87 182.21 38.87 179.82 41.61 C 179.87 35.98 181.81 29.79 186.44 26.28 Z" />
<path fill="#333333" opacity="1.00" d=" M 111.62 31.49 C 115.47 26.46 122.62 26.68 128.21 27.80 C 132.62 29.13 134.20 33.78 134.43 37.94 C 137.04 44.87 134.98 52.24 133.15 59.10 C 134.02 60.68 135.89 60.04 137.35 60.08 C 139.31 57.41 142.23 55.46 145.43 54.61 C 148.49 54.02 151.54 55.14 154.57 55.50 C 154.23 56.52 153.89 57.55 153.55 58.58 L 152.61 57.72 C 150.32 59.84 150.36 63.02 149.17 65.69 C 148.06 62.59 149.18 59.50 150.96 56.93 C 146.73 55.48 142.30 56.91 139.05 59.79 C 137.37 61.53 136.50 63.93 134.66 65.52 C 133.37 65.76 132.08 65.96 130.79 66.10 C 132.60 65.13 134.35 64.02 135.85 62.59 C 134.85 61.99 133.85 61.38 132.85 60.77 C 127.17 60.51 119.60 60.09 116.96 54.07 C 116.25 52.68 115.27 51.46 114.20 50.34 C 114.16 51.83 114.14 53.32 114.13 54.81 C 113.58 57.05 114.03 59.69 112.75 61.67 C 109.74 63.35 106.33 64.36 103.84 66.88 C 106.31 68.90 108.99 70.61 111.78 72.13 C 109.34 72.30 106.98 71.75 104.97 70.35 C 99.87 66.99 92.57 67.04 88.02 71.37 C 85.98 73.57 82.87 73.19 80.17 73.69 C 76.79 74.48 73.57 76.00 70.08 76.21 C 66.80 76.13 63.63 73.71 60.39 75.33 C 57.67 76.53 54.79 75.41 52.12 74.68 C 54.72 78.41 55.67 82.89 56.26 87.32 C 59.18 87.42 62.09 87.63 64.98 88.09 C 68.15 88.76 70.92 86.64 73.77 85.66 C 72.75 84.44 71.74 83.21 70.75 81.97 C 69.81 82.11 68.87 82.25 67.93 82.40 C 71.19 80.47 74.15 77.56 78.10 77.22 C 76.04 79.24 73.50 80.67 70.96 82.00 C 76.71 86.48 84.17 86.55 91.09 86.56 C 93.75 86.01 96.09 84.56 98.62 83.63 C 98.16 84.80 97.68 85.96 97.19 87.11 C 100.17 93.29 104.58 98.49 108.86 103.78 C 109.39 103.15 109.91 102.52 110.44 101.89 C 112.15 102.93 113.75 102.46 115.21 101.37 C 116.06 102.30 116.90 103.24 117.73 104.19 C 115.44 104.10 113.14 104.06 110.87 103.79 C 110.52 104.14 110.19 104.49 109.86 104.85 C 112.95 109.34 112.64 114.87 113.03 120.05 C 115.55 121.30 118.07 122.89 121.01 122.61 C 124.75 122.47 128.32 123.84 132.02 123.90 C 136.63 123.07 141.35 122.34 145.48 119.98 C 145.29 117.74 145.09 115.50 144.89 113.26 C 144.37 113.21 143.33 113.12 142.81 113.08 C 143.35 112.99 144.44 112.83 144.99 112.75 C 144.90 111.32 144.73 108.47 144.65 107.04 C 144.08 107.68 142.94 108.97 142.37 109.61 C 141.77 109.26 140.56 108.56 139.96 108.21 C 138.14 109.43 136.15 110.40 133.92 110.48 C 131.69 110.54 129.63 112.27 127.38 111.38 C 127.88 112.84 128.34 114.32 128.79 115.81 C 127.85 115.14 126.94 114.42 126.07 113.67 C 126.31 112.71 126.68 111.80 127.03 110.88 C 126.53 110.46 125.54 109.61 125.05 109.18 C 128.77 110.86 132.21 108.01 136.00 108.80 C 136.48 108.54 137.44 108.02 137.91 107.76 C 138.25 105.50 138.48 103.22 138.73 100.94 C 139.67 102.91 140.49 104.97 140.58 107.18 C 145.31 108.13 146.25 101.86 147.91 98.75 C 147.25 98.72 145.94 98.66 145.29 98.63 C 143.21 97.57 140.88 97.51 138.61 97.35 C 137.03 98.21 135.35 98.87 133.64 99.42 C 131.46 100.80 128.99 101.82 127.27 103.83 C 124.66 103.36 121.61 102.41 121.59 99.20 C 123.23 100.11 124.64 102.35 126.73 101.83 C 128.32 100.70 129.85 99.46 131.69 98.74 C 132.05 98.30 132.78 97.44 133.15 97.00 C 134.49 96.98 135.83 96.96 137.18 96.93 C 138.23 94.51 136.99 92.49 135.22 90.88 C 137.21 90.90 138.53 89.42 140.02 88.35 C 141.45 88.90 142.67 89.83 143.93 90.68 C 142.61 90.47 141.29 90.23 139.98 89.97 C 139.01 90.56 138.05 91.15 137.09 91.74 C 138.06 92.92 138.85 94.22 139.14 95.74 C 141.65 95.94 144.47 95.54 146.33 97.70 C 148.57 94.29 145.49 90.39 145.84 86.68 C 143.65 85.31 141.27 86.53 138.97 86.87 C 137.35 86.87 135.94 85.87 134.45 85.36 L 135.03 83.68 C 137.75 85.38 140.80 85.37 143.76 84.31 C 144.79 84.70 145.83 85.08 146.88 85.44 C 147.75 89.49 148.81 93.51 149.30 97.63 C 149.28 101.31 146.69 104.40 146.47 108.07 C 146.20 112.63 146.53 117.23 147.30 121.73 C 148.29 123.52 150.37 124.75 150.39 126.99 C 150.71 129.11 149.61 131.09 149.24 133.13 C 150.72 138.34 153.75 143.07 154.31 148.54 C 154.41 150.27 155.80 151.42 156.87 152.61 C 156.91 153.21 156.97 154.41 157.00 155.01 C 156.13 155.45 155.27 155.89 154.40 156.34 C 155.09 160.86 155.42 165.43 155.25 170.00 C 154.88 173.18 157.71 175.90 156.80 179.10 C 155.29 185.22 155.23 191.75 156.59 197.91 C 157.99 206.18 155.48 215.07 158.86 222.96 C 162.40 225.73 165.12 229.34 168.42 232.35 C 170.42 234.33 173.24 234.55 175.82 235.15 C 177.36 236.43 180.14 238.47 178.67 240.66 C 177.62 242.74 175.03 243.06 173.15 244.07 C 170.24 245.87 166.97 243.71 163.85 244.48 C 161.53 243.44 159.32 242.14 156.90 241.32 C 153.98 240.67 151.03 242.10 148.09 241.62 C 146.43 241.24 144.98 240.29 143.49 239.52 C 141.99 231.09 147.64 223.24 145.50 214.86 C 144.89 210.09 141.53 206.38 140.16 201.88 C 139.87 196.54 140.75 191.27 141.65 186.04 C 140.94 184.04 139.75 182.25 139.09 180.24 C 138.58 177.36 139.16 174.08 137.23 171.63 C 135.33 168.86 133.63 165.96 132.25 162.90 C 131.39 163.88 130.52 164.86 129.65 165.83 C 129.38 170.80 129.01 176.07 126.38 180.44 C 123.67 184.36 122.79 189.13 121.10 193.52 C 118.38 200.83 121.96 209.02 118.55 216.14 C 116.63 220.49 116.68 225.35 116.43 230.02 C 116.60 233.97 117.04 238.18 119.36 241.53 C 121.53 244.72 122.90 248.47 125.66 251.25 C 127.96 253.76 130.07 256.66 130.33 260.19 C 128.95 261.31 127.36 262.07 125.57 262.22 C 119.59 266.98 107.25 263.77 107.38 255.13 C 106.90 252.35 104.87 250.02 104.84 247.14 C 104.81 244.77 104.11 242.51 103.43 240.26 C 104.19 236.58 104.71 232.76 104.15 229.01 C 103.43 222.66 100.43 216.66 100.67 210.18 C 101.17 204.94 103.28 200.04 104.82 195.05 C 105.56 190.09 105.43 184.95 107.20 180.19 C 109.67 174.67 106.81 168.64 108.35 162.93 C 105.96 165.70 104.35 161.76 102.55 160.47 C 103.43 157.89 105.95 155.98 105.88 153.09 C 105.95 147.97 108.31 143.20 108.17 138.07 C 108.20 135.32 107.13 132.73 106.91 130.02 C 106.41 126.30 110.38 124.26 111.36 121.00 C 111.23 118.00 111.14 115.01 111.05 112.02 C 110.38 108.60 108.10 105.77 105.71 103.35 C 101.44 98.96 98.93 93.26 95.55 88.24 C 90.05 89.14 84.47 88.21 78.95 87.87 C 74.38 86.59 70.57 90.76 66.00 90.07 C 62.68 89.48 59.11 89.90 56.00 88.48 C 55.44 94.98 53.41 102.68 46.93 105.66 C 42.10 107.66 37.28 103.48 36.04 98.96 C 33.89 92.18 34.14 84.07 38.12 77.98 C 37.79 77.42 37.45 76.85 37.10 76.30 C 32.98 79.16 28.42 81.21 23.80 83.10 C 24.68 85.93 25.27 89.09 27.84 90.93 C 27.36 91.42 26.88 91.91 26.39 92.40 C 24.16 89.43 22.70 85.94 22.42 82.22 C 25.95 80.47 29.78 79.31 32.99 76.96 C 34.94 75.50 37.40 75.07 39.79 75.21 C 41.42 73.90 43.22 72.83 45.10 71.93 C 47.03 72.52 48.98 73.08 50.90 73.71 C 54.26 73.67 57.66 74.03 60.97 73.23 C 64.00 72.39 66.94 73.67 69.89 74.18 C 74.13 74.18 77.85 71.67 82.08 71.67 C 85.45 71.77 87.57 68.71 90.40 67.38 C 93.90 65.26 98.12 65.98 101.98 66.23 C 103.61 64.77 105.22 63.15 107.38 62.51 C 109.06 61.64 111.67 61.51 112.31 59.41 C 113.02 56.44 113.19 53.38 113.47 50.34 C 112.28 48.71 110.46 47.28 110.23 45.14 C 109.75 40.63 108.43 35.35 111.62 31.49 M 114.50 31.59 C 111.21 34.17 110.86 38.65 110.90 42.50 C 111.42 42.38 112.48 42.14 113.01 42.02 C 114.06 43.26 112.15 44.94 112.06 46.30 C 113.59 47.71 115.32 48.88 116.92 50.21 C 118.28 52.11 118.80 54.84 121.08 55.94 C 123.63 57.11 126.32 57.91 128.99 58.77 C 129.94 58.37 130.89 57.98 131.84 57.59 C 134.14 51.36 135.00 44.48 133.14 38.01 C 133.05 33.97 130.59 30.73 127.33 28.58 C 122.92 28.49 118.00 28.49 114.50 31.59 M 36.84 85.05 C 35.59 90.57 35.88 96.95 39.40 101.62 C 41.46 104.46 45.91 105.06 48.53 102.68 C 54.82 97.16 55.76 87.52 53.38 79.92 C 52.53 76.65 49.77 74.62 47.01 73.02 C 41.69 74.78 37.73 79.53 36.84 85.05 M 126.42 125.47 C 121.43 124.82 116.17 124.81 112.08 121.37 C 112.19 122.09 112.42 123.55 112.54 124.27 C 111.94 124.29 110.73 124.32 110.13 124.33 C 109.55 126.46 108.20 128.65 108.94 130.92 C 110.27 135.13 110.48 139.66 109.86 144.01 C 107.63 149.10 108.29 155.06 104.99 159.73 C 105.45 160.32 106.35 161.50 106.80 162.09 C 107.84 160.42 108.18 157.68 110.64 157.57 C 110.63 159.36 110.61 161.15 110.60 162.95 C 112.10 163.61 113.59 164.30 115.11 164.92 C 119.40 166.97 124.54 165.83 128.56 163.68 C 131.70 162.06 130.01 157.99 131.42 155.48 C 133.63 154.26 136.21 154.06 138.48 153.05 C 139.83 150.91 141.04 148.66 142.82 146.84 C 142.32 149.60 141.41 152.40 139.59 154.60 C 136.79 155.74 132.96 155.75 132.02 159.30 C 135.95 159.79 140.05 161.97 143.95 160.22 C 148.12 158.88 150.87 155.16 154.95 153.62 C 153.33 151.76 152.31 149.50 152.09 147.03 C 151.56 142.38 148.86 138.41 147.50 134.02 C 147.70 131.70 148.90 129.43 148.42 127.08 C 147.68 125.46 146.28 124.26 145.22 122.86 C 139.15 124.63 132.80 127.45 126.42 125.47 M 132.44 159.97 C 131.63 163.22 135.49 163.97 136.70 166.35 C 138.93 169.94 142.04 173.45 141.97 177.94 C 141.85 182.00 144.52 185.29 145.72 188.99 C 145.38 189.79 144.69 191.40 144.35 192.20 L 143.44 188.61 C 141.17 193.23 142.82 198.30 143.35 203.10 C 143.79 206.65 146.69 209.35 147.08 212.92 C 147.52 217.01 147.23 221.12 147.29 225.23 C 145.58 228.92 145.69 233.10 145.40 237.07 C 145.03 238.57 146.49 239.93 147.91 239.93 C 152.31 240.41 157.13 238.56 161.16 241.06 C 164.41 243.02 168.35 242.70 171.99 242.95 C 173.93 242.23 175.63 241.01 177.44 240.01 C 175.70 235.88 170.34 237.29 167.49 234.43 C 163.73 230.86 160.41 226.84 156.75 223.17 C 154.12 215.72 155.31 207.80 154.81 200.09 C 153.11 193.16 153.60 185.88 155.13 178.97 C 155.72 176.52 154.38 174.23 153.61 172.00 C 152.13 174.28 150.98 177.57 147.82 177.83 C 144.61 177.23 144.37 173.30 144.05 170.69 C 145.06 172.97 146.09 175.82 148.86 176.40 C 151.09 174.83 151.45 171.87 152.28 169.46 C 152.72 169.57 153.61 169.78 154.06 169.89 C 153.99 165.48 153.80 161.07 153.40 156.67 C 147.83 161.55 138.96 165.38 132.44 159.97 M 109.72 164.55 C 109.80 168.68 110.55 172.79 110.26 176.92 C 109.05 180.88 106.96 184.70 107.01 188.95 C 107.46 194.39 109.25 199.56 110.97 204.70 C 110.50 204.54 109.55 204.23 109.08 204.07 C 108.24 201.53 107.34 199.01 106.38 196.52 C 104.13 201.02 102.55 205.93 102.09 210.95 C 102.34 218.14 105.94 224.78 106.09 232.01 C 106.41 235.02 105.46 237.92 105.22 240.89 C 106.61 246.88 109.67 252.32 110.85 258.36 C 113.46 262.93 120.21 263.60 124.12 260.28 C 123.67 259.82 122.75 258.88 122.29 258.42 C 118.98 258.66 115.67 258.93 112.36 258.50 C 112.50 258.12 112.78 257.36 112.92 256.98 C 116.25 257.19 119.56 256.71 122.87 256.52 C 124.10 257.38 124.50 258.93 125.30 260.12 C 126.53 259.87 127.99 260.01 128.82 258.88 C 126.95 254.45 122.76 251.63 120.76 247.30 C 119.04 243.82 116.35 240.78 115.51 236.91 C 113.74 229.41 113.66 221.12 117.09 214.06 C 118.87 210.08 118.13 205.64 117.82 201.45 C 116.43 204.09 115.03 206.89 115.06 209.95 C 114.81 212.19 115.31 214.96 113.28 216.54 C 112.59 211.49 113.41 206.24 115.83 201.74 C 119.84 195.09 120.33 186.92 124.52 180.37 C 127.10 176.20 127.68 171.21 128.29 166.45 C 124.84 167.19 121.36 168.25 117.79 167.95 C 114.91 167.35 112.40 165.69 109.72 164.55 Z" />
<path fill="#333333" opacity="1.00" d=" M 211.37 31.45 C 214.72 30.81 218.69 32.39 220.27 35.58 C 223.74 41.85 223.60 49.62 221.16 56.23 C 219.75 59.76 217.59 63.47 213.81 64.82 C 210.61 65.90 207.06 64.34 205.32 61.54 C 201.32 55.14 201.42 46.93 203.92 40.00 C 205.36 36.48 207.50 32.67 211.37 31.45 M 207.61 36.51 C 203.67 41.89 203.14 49.06 204.35 55.43 C 205.30 58.17 206.43 61.37 209.26 62.69 C 211.84 63.76 214.99 62.93 216.73 60.74 C 221.69 55.06 222.53 46.65 220.62 39.58 C 219.76 36.17 217.27 33.59 214.21 32.02 C 211.89 33.28 209.09 34.16 207.61 36.51 Z" />
<path fill="#333333" opacity="1.00" d=" M 191.04 38.89 C 195.50 37.22 200.27 36.69 205.00 36.53 C 203.60 38.45 201.20 38.34 199.14 38.75 C 194.63 39.36 190.48 41.38 185.98 42.02 C 182.07 42.61 179.16 45.67 175.34 46.59 C 172.06 47.47 169.71 49.95 167.17 52.01 C 163.44 54.27 159.31 55.81 155.13 57.01 C 155.48 56.41 156.17 55.20 156.52 54.60 C 160.93 53.69 164.99 51.39 168.24 48.30 C 171.20 45.31 175.66 45.20 179.06 42.96 C 182.67 40.62 187.08 40.37 191.04 38.89 Z" />
<path fill="#333333" opacity="1.00" d=" M 188.01 49.91 C 189.59 47.05 193.11 45.28 196.34 45.82 C 198.96 47.21 200.02 50.21 201.38 52.66 C 200.50 52.42 199.63 52.17 198.75 51.92 C 197.43 50.05 195.66 48.59 193.92 47.15 C 190.45 48.48 188.30 51.58 186.21 54.47 C 186.51 54.98 187.11 55.99 187.41 56.50 C 188.48 56.32 190.61 55.96 191.68 55.78 C 191.50 56.54 191.33 57.31 191.16 58.07 C 189.63 58.09 188.10 58.10 186.57 58.10 C 186.13 57.20 185.69 56.31 185.23 55.42 C 184.28 57.02 183.06 58.51 181.24 59.11 C 177.47 60.60 174.13 63.15 170.08 63.88 C 166.02 64.72 163.06 68.13 159.00 68.96 C 155.69 69.64 152.30 69.78 148.94 69.99 C 148.13 74.03 147.57 78.12 146.33 82.06 C 144.18 77.42 146.87 72.21 148.00 67.58 C 154.85 68.81 162.11 66.95 167.38 62.37 C 168.89 60.60 170.23 58.69 171.66 56.85 C 167.13 55.09 162.68 57.20 158.20 57.94 C 161.47 54.88 166.12 53.22 170.55 54.44 C 170.94 55.14 171.34 55.85 171.75 56.55 C 172.56 55.42 173.44 54.14 175.02 54.61 C 173.38 57.44 171.63 60.28 168.92 62.20 C 173.28 61.93 176.76 59.13 180.78 57.75 C 184.25 56.37 186.21 52.98 188.01 49.91 Z" />
<path fill="#333333" opacity="1.00" d=" M 116.34 57.29 C 118.38 59.99 121.07 62.84 120.60 66.50 C 124.00 66.78 127.29 67.65 130.63 68.30 C 127.66 70.97 124.27 68.05 120.95 68.11 C 118.39 68.16 115.95 69.03 113.45 69.51 C 113.33 69.11 113.09 68.32 112.97 67.92 C 115.27 67.52 117.55 67.03 119.84 66.57 C 118.68 63.48 117.42 60.42 116.34 57.29 Z" />
<path fill="#333333" opacity="1.00" d=" M 152.93 61.22 C 155.64 60.52 158.29 59.58 161.05 59.02 C 158.88 61.55 155.53 62.16 152.40 62.56 C 152.53 62.22 152.79 61.55 152.93 61.22 Z" />
<path fill="#333333" opacity="1.00" d=" M 19.03 67.07 C 21.27 65.24 24.27 66.22 26.65 67.21 C 29.76 68.78 30.98 72.31 31.56 75.51 C 29.24 72.26 27.46 68.51 23.65 66.71 C 13.11 70.34 10.49 84.51 15.34 93.50 C 17.10 96.99 20.93 97.56 24.45 97.33 C 22.94 99.98 19.18 99.57 17.05 97.93 C 12.94 95.07 11.76 89.66 11.63 84.95 C 11.46 78.39 13.28 70.94 19.03 67.07 Z" />
<path fill="#333333" opacity="1.00" d=" M 130.49 74.82 C 133.63 76.95 135.31 81.80 133.04 85.12 C 132.16 88.14 128.72 88.47 126.19 89.30 C 123.84 91.99 119.99 93.98 116.42 92.57 C 112.94 90.84 110.34 87.77 106.83 86.07 C 105.49 85.61 105.33 84.20 105.00 83.03 C 108.75 84.77 112.05 87.26 115.28 89.80 C 117.80 92.03 121.71 91.04 124.05 89.02 C 126.18 87.25 128.98 86.78 131.50 85.81 C 133.19 82.10 131.38 78.45 130.49 74.82 Z" />
<path fill="#333333" opacity="1.00" d=" M 79.12 79.79 C 83.77 77.35 89.36 78.20 94.44 77.52 C 93.02 79.06 90.82 79.17 88.87 79.43 C 85.62 79.63 82.37 80.08 79.12 79.79 Z" />
<path fill="#333333" opacity="1.00" d=" M 32.88 88.76 C 30.21 89.01 31.95 84.37 33.92 85.36 C 34.57 86.47 33.96 88.14 32.88 88.76 Z" />
<path fill="#333333" opacity="1.00" d=" M 129.93 90.87 C 130.66 89.43 132.24 89.13 133.70 89.43 C 130.98 92.51 128.78 96.22 124.89 97.98 C 126.13 95.33 128.41 93.36 129.93 90.87 Z" />
<path fill="#333333" opacity="1.00" d=" M 28.41 92.25 C 29.79 91.72 33.12 89.29 33.37 92.06 C 33.79 95.25 29.76 92.99 28.41 92.25 Z" />
<path fill="#333333" opacity="1.00" d=" M 109.76 98.01 C 109.15 95.59 111.09 94.27 113.02 93.38 L 113.16 95.18 L 111.04 95.13 C 110.70 98.79 114.90 98.05 117.06 97.05 C 117.33 97.50 117.86 98.41 118.12 98.86 C 116.52 99.22 114.91 99.57 113.29 99.88 C 112.12 99.23 110.95 98.61 109.76 98.01 Z" />
<path fill="#333333" opacity="1.00" d=" M 119.47 106.22 C 121.72 105.97 123.97 105.77 126.23 105.62 C 125.03 108.53 121.10 109.06 119.47 106.22 Z" />
<path fill="#333333" opacity="1.00" d=" M 114.48 107.29 C 116.98 108.68 119.91 109.75 121.62 112.16 C 118.77 112.35 113.66 111.10 114.48 107.29 Z" />
<path fill="#333333" opacity="1.00" d=" M 137.84 117.75 C 135.86 116.94 138.31 113.42 139.98 114.26 C 140.47 115.62 139.13 117.34 137.84 117.75 Z" />
<path fill="#333333" opacity="1.00" d=" M 125.82 115.56 C 127.94 118.06 131.30 119.76 132.68 122.73 C 128.96 122.61 126.27 119.00 125.82 115.56 Z" />
<path fill="#333333" opacity="1.00" d=" M 120.96 127.14 C 129.12 129.87 138.06 128.14 145.76 124.78 C 144.80 125.76 144.15 127.17 142.84 127.78 C 136.70 130.26 129.91 130.97 123.39 129.85 C 122.39 134.63 117.90 137.19 113.69 138.77 C 113.29 138.70 112.47 138.57 112.07 138.51 C 115.69 135.75 120.30 134.01 122.14 129.45 C 120.28 128.65 118.38 127.95 116.48 127.24 C 115.31 129.76 114.52 132.42 113.94 135.13 C 112.34 132.19 113.78 128.93 115.33 126.30 C 117.18 125.70 119.13 126.78 120.96 127.14 Z" />
<path fill="#333333" opacity="1.00" d=" M 123.82 138.45 C 127.94 134.36 134.44 134.42 139.82 133.22 C 139.53 133.73 138.95 134.74 138.67 135.24 C 133.60 135.69 128.81 137.54 123.82 138.45 Z" />
<path fill="#333333" opacity="1.00" d=" M 140.21 134.20 C 140.00 132.23 143.66 132.73 144.67 133.64 C 143.92 134.99 141.48 134.77 140.21 134.20 Z" />
<path fill="#333333" opacity="1.00" d=" M 128.36 141.70 C 133.81 138.78 139.33 135.61 145.58 134.81 C 140.80 138.84 133.41 138.97 129.24 143.77 C 135.21 143.92 141.48 142.89 147.28 141.07 C 144.33 145.37 138.56 144.73 133.99 145.15 C 129.77 145.11 125.28 147.54 121.30 145.25 C 123.56 144.86 125.84 144.60 128.13 144.43 C 128.19 143.52 128.27 142.61 128.36 141.70 Z" />
<path fill="#333333" opacity="1.00" d=" M 112.94 179.93 C 115.39 179.79 117.77 179.21 119.96 178.11 C 120.61 179.87 121.27 181.63 121.77 183.45 C 120.86 182.58 120.10 181.60 119.51 180.50 C 117.68 181.02 115.85 181.49 114.01 181.94 C 113.75 182.78 113.24 184.45 112.98 185.29 C 112.39 183.54 112.66 181.71 112.94 179.93 Z" />
<path fill="#333333" opacity="1.00" d=" M 114.78 191.04 C 114.78 190.33 114.77 189.62 114.77 188.91 C 116.05 189.10 117.33 189.28 118.61 189.47 C 118.48 189.86 118.23 190.63 118.10 191.01 C 117.27 191.02 115.61 191.03 114.78 191.04 Z" />
<path fill="#333333" opacity="1.00" d=" M 150.87 234.36 C 148.25 232.22 147.68 228.67 149.49 225.83 C 149.83 228.69 150.31 231.53 150.87 234.36 Z" />
<path fill="#333333" opacity="1.00" d=" M 107.65 242.68 C 109.22 239.73 110.09 235.43 113.76 234.47 C 112.09 237.45 111.11 241.25 107.65 242.68 Z" />
</g>
</svg>
