<?xml version="1.0" encoding="UTF-8" ?>
<!DOCTYPE svg PUBLIC "-//W3C//DTD SVG 1.1//EN" "http://www.w3.org/Graphics/SVG/1.1/DTD/svg11.dtd">
<svg width="246pt" height="275pt" viewBox="0 0 246 275" version="1.1" xmlns="http://www.w3.org/2000/svg"><g id="#464845ff">
<path fill="#333333" opacity="1.00" d=" M 108.86 36.03 C 108.89 31.02 113.34 26.96 118.14 26.35 C 123.40 25.31 130.76 26.10 132.94 31.87 C 133.71 36.90 135.83 41.86 135.01 47.03 C 134.40 50.99 133.79 55.00 132.38 58.78 C 135.12 59.30 138.09 59.15 140.61 60.52 C 137.43 61.55 134.18 60.77 131.12 59.77 C 131.17 61.14 131.21 62.51 131.24 63.89 C 133.64 63.00 136.10 62.18 138.68 62.00 C 140.57 63.73 142.68 65.20 144.75 66.69 C 142.62 66.09 140.57 65.24 138.90 63.74 C 136.38 63.96 133.95 64.61 131.57 65.43 C 130.50 66.68 129.45 68.08 127.93 68.81 C 125.88 68.90 124.00 67.85 121.99 67.60 C 118.37 66.65 114.72 69.50 111.22 67.75 C 113.89 66.92 116.61 66.30 119.34 65.75 C 117.88 62.82 116.79 59.72 115.62 56.67 C 117.50 59.46 120.85 62.02 119.94 65.79 C 122.80 65.77 125.59 66.41 128.23 67.50 C 129.16 66.41 130.06 65.30 130.89 64.14 C 130.57 63.06 129.94 60.90 129.62 59.81 C 124.75 59.68 118.82 58.31 116.47 53.56 C 115.65 51.99 114.65 50.53 113.48 49.20 C 113.56 53.43 112.60 57.59 112.65 61.82 L 112.19 60.97 C 108.62 63.74 105.67 67.16 102.51 70.35 C 98.46 72.43 94.21 74.68 91.59 78.56 C 89.65 83.18 91.27 88.25 92.08 92.95 C 91.20 92.62 90.33 92.33 89.44 92.06 C 89.00 95.03 88.65 98.02 88.16 100.99 C 87.34 105.39 89.95 109.31 91.01 113.41 C 91.45 113.08 92.32 112.41 92.75 112.08 C 91.90 118.02 90.04 123.87 90.43 129.94 C 90.43 136.46 93.91 142.52 93.23 149.09 C 93.00 151.42 93.19 153.77 94.09 155.95 C 95.28 158.83 94.71 162.12 95.84 164.98 C 98.17 167.03 102.57 165.86 103.86 169.32 C 100.53 168.68 96.19 168.88 94.12 165.66 C 93.02 162.53 93.42 159.08 92.30 155.94 C 90.37 150.88 92.61 145.39 90.86 140.25 C 87.36 142.99 84.40 146.56 83.61 151.07 C 82.43 156.57 82.52 163.11 86.37 167.60 C 88.15 169.80 91.17 169.52 93.69 169.54 C 91.87 173.06 87.06 171.25 85.13 168.80 C 81.78 164.41 80.55 158.51 81.54 153.11 C 82.61 147.60 84.95 141.64 90.37 139.12 C 88.31 132.60 88.59 125.58 90.01 118.96 C 91.38 113.55 86.43 109.28 86.42 104.01 C 86.38 98.57 87.79 93.26 89.19 88.06 C 88.86 83.82 88.39 78.91 91.47 75.50 C 94.31 72.91 97.29 70.30 100.97 69.00 C 102.94 68.43 103.87 66.46 105.20 65.09 C 106.97 62.83 109.56 61.48 111.76 59.71 C 112.85 56.43 112.25 52.83 112.52 49.41 C 108.68 46.04 108.98 40.67 108.86 36.03 M 113.68 30.70 C 110.49 33.32 109.97 37.72 110.22 41.59 C 110.92 41.47 112.32 41.23 113.02 41.12 C 112.45 42.56 111.87 43.99 111.31 45.43 C 113.22 47.66 116.37 48.71 117.51 51.58 C 119.08 55.20 123.31 55.97 126.56 57.44 C 129.11 58.93 132.06 56.57 132.32 53.93 C 133.23 49.41 134.65 44.69 133.26 40.11 C 132.61 37.61 132.40 35.01 131.61 32.54 C 130.51 30.53 128.62 29.15 126.98 27.61 C 122.42 27.43 117.24 27.39 113.68 30.70 Z" />
<path fill="#333333" opacity="1.00" d=" M 141.25 61.21 C 142.16 60.68 143.05 60.13 143.95 59.58 C 147.08 61.04 151.00 61.96 152.60 65.37 C 154.61 68.17 155.24 71.62 155.10 75.01 C 154.68 78.62 157.18 81.55 157.80 84.97 C 158.75 88.55 158.34 92.93 161.57 95.45 C 164.27 97.70 166.20 100.74 166.90 104.21 C 167.99 110.24 170.87 115.84 171.07 122.04 C 171.21 126.33 173.77 129.90 175.07 133.86 C 179.08 131.82 184.34 133.62 186.16 137.76 C 189.98 145.93 188.69 156.81 182.08 163.21 C 179.45 165.97 174.72 165.66 172.24 162.86 C 168.92 159.11 167.85 153.84 168.10 148.96 C 168.51 143.65 170.11 137.97 174.55 134.62 C 171.53 131.97 170.63 127.74 169.93 123.97 C 169.35 119.08 167.52 114.48 166.14 109.79 C 165.16 106.52 164.63 103.07 162.98 100.03 C 161.24 97.19 158.12 95.21 157.29 91.83 C 156.91 89.47 157.20 86.99 156.40 84.70 C 155.44 81.46 153.09 78.56 153.69 74.99 C 154.59 67.84 148.52 60.83 141.25 61.21 M 172.33 139.39 C 169.86 143.38 169.42 148.29 169.76 152.88 C 170.03 157.00 171.99 161.49 176.09 163.04 C 179.05 163.93 181.74 161.63 183.40 159.42 C 187.35 153.74 188.09 145.96 185.61 139.55 C 184.65 136.77 182.13 135.10 179.88 133.44 C 177.15 135.11 174.10 136.59 172.33 139.39 Z" />
<path fill="#333333" opacity="1.00" d=" M 130.92 85.03 C 132.98 81.23 130.33 77.56 130.53 73.66 C 132.02 75.95 133.05 78.48 134.06 81.01 C 133.09 83.02 132.40 85.23 130.88 86.90 C 128.64 88.05 126.01 88.43 124.14 90.23 C 121.28 92.87 116.43 93.26 113.35 90.77 C 111.39 89.33 108.93 87.79 109.12 85.01 C 112.64 87.49 116.22 92.35 121.08 89.99 C 124.21 88.05 127.33 86.09 130.92 85.03 Z" />
<path fill="#333333" opacity="1.00" d=" M 145.07 85.21 C 146.09 83.06 146.97 80.85 147.76 78.61 C 148.82 80.75 150.47 82.50 151.91 84.39 C 150.26 84.19 148.57 82.92 146.95 83.71 C 146.50 88.59 148.53 93.17 148.90 97.95 C 148.18 101.35 145.97 104.38 146.02 107.94 C 145.98 112.44 145.83 117.01 146.89 121.41 C 147.54 123.10 149.29 124.12 149.90 125.84 C 150.47 128.29 149.03 130.56 148.83 132.97 C 150.53 138.66 153.60 143.93 154.17 149.94 C 155.27 151.31 156.26 152.77 157.20 154.26 C 156.09 154.89 154.98 155.51 153.87 156.13 C 154.71 160.73 154.99 165.42 154.80 170.10 C 154.58 173.17 157.29 175.76 156.55 178.88 C 155.95 181.82 154.42 184.72 155.61 187.73 C 155.08 190.05 154.74 192.50 155.55 194.81 C 158.29 204.14 155.04 214.30 158.58 223.48 C 162.63 226.05 165.00 230.38 168.78 233.23 C 170.68 234.91 173.31 234.73 175.61 235.37 C 177.18 236.58 178.24 238.28 179.42 239.84 C 176.67 244.23 170.88 245.84 165.96 245.10 C 161.58 245.44 158.46 241.03 154.01 241.82 C 150.19 242.25 146.12 242.54 142.95 239.96 C 141.65 231.77 146.59 224.18 145.11 216.04 C 144.72 210.70 140.97 206.50 139.63 201.46 C 139.67 196.94 139.90 192.40 140.86 187.97 C 141.62 185.71 140.00 183.77 139.21 181.79 C 137.65 178.75 138.86 174.96 136.96 172.07 C 135.08 169.09 133.35 166.00 131.05 163.33 C 130.04 164.69 128.87 166.06 129.08 167.88 C 128.89 173.56 127.17 179.10 123.94 183.78 C 122.43 188.19 120.77 192.61 119.75 197.19 C 118.69 202.65 120.75 208.39 118.87 213.74 C 115.22 221.82 114.72 231.41 117.37 239.85 C 119.47 243.01 121.38 246.30 123.38 249.52 C 125.63 251.86 127.45 254.53 129.27 257.21 C 129.28 258.79 129.24 260.37 129.15 261.94 C 127.75 262.13 126.35 262.31 124.95 262.48 C 120.75 266.54 113.51 265.35 109.35 261.77 C 107.29 260.53 107.10 257.99 106.86 255.85 C 106.55 252.28 103.37 249.39 104.33 245.64 C 101.75 240.95 104.46 235.96 103.90 231.01 C 103.20 224.22 100.38 217.81 99.93 210.99 C 100.53 205.40 102.82 200.20 104.43 194.88 C 105.09 188.91 105.14 182.74 107.68 177.17 C 108.06 177.33 108.82 177.66 109.19 177.82 C 108.19 181.55 106.66 185.18 106.40 189.08 C 107.08 194.59 108.81 199.87 110.16 205.24 C 107.63 203.07 107.17 199.59 105.69 196.77 C 103.09 202.72 100.68 209.30 102.17 215.87 C 103.78 223.17 106.80 230.57 105.16 238.15 C 104.12 242.40 106.36 246.43 107.67 250.36 C 109.10 253.20 109.22 256.47 110.38 259.39 C 113.38 263.60 119.56 263.94 123.54 260.94 C 123.12 260.43 122.28 259.41 121.86 258.90 C 118.27 259.21 114.66 259.52 111.09 258.78 C 113.53 256.46 117.05 258.09 119.99 257.13 C 122.79 255.90 123.71 259.21 125.37 260.65 C 126.43 260.47 127.47 260.24 128.51 259.97 C 126.59 255.05 122.24 251.77 119.89 247.14 C 118.21 244.12 115.71 241.48 114.96 238.02 C 113.40 232.84 113.47 227.35 113.94 222.01 C 114.17 218.45 116.22 215.39 117.10 211.99 C 118.08 208.52 117.30 204.90 117.13 201.39 C 113.91 206.01 114.33 211.66 113.46 216.94 C 111.52 214.64 112.52 211.52 112.73 208.83 C 113.10 204.91 115.27 201.56 117.04 198.16 C 119.54 192.18 120.73 185.62 124.19 180.06 C 126.62 176.00 126.97 171.17 127.99 166.66 C 126.59 166.73 125.18 166.77 123.78 166.77 C 122.19 171.75 119.17 177.59 113.31 178.08 C 114.00 178.63 114.68 179.18 115.36 179.74 C 116.64 179.14 117.94 178.57 119.25 178.04 C 120.24 179.74 120.82 181.64 121.40 183.52 C 120.45 182.57 119.59 181.54 118.82 180.45 C 117.02 180.99 115.21 181.48 113.40 181.95 C 112.89 183.11 112.35 184.26 111.79 185.40 C 111.74 183.10 112.31 180.86 112.67 178.61 C 106.12 176.65 103.58 169.27 103.88 163.05 C 103.78 155.92 106.80 147.61 113.85 144.73 C 116.22 145.58 119.21 145.68 120.78 147.93 C 124.76 152.96 125.01 159.86 123.91 165.93 C 125.78 164.82 127.86 163.96 129.46 162.45 C 130.30 160.12 130.17 157.56 130.64 155.13 C 133.03 154.31 135.44 153.54 137.93 153.04 C 139.21 150.76 140.63 148.53 142.32 146.52 C 141.63 150.30 140.20 155.78 135.32 155.27 C 134.29 155.90 133.22 156.47 132.28 157.23 C 132.08 158.65 131.96 160.09 131.91 161.54 C 135.57 165.20 138.60 169.49 140.87 174.14 C 141.40 178.20 141.73 182.39 144.00 185.96 C 145.41 187.87 145.28 190.25 144.03 192.19 C 143.58 191.26 142.67 189.38 142.22 188.44 C 141.49 193.92 142.01 199.46 143.29 204.82 C 144.36 207.86 146.44 210.59 146.63 213.90 C 146.99 218.61 147.39 223.51 145.96 228.09 C 144.84 231.89 144.98 235.89 145.08 239.81 C 148.32 240.96 151.70 240.42 155.02 240.09 C 158.07 239.74 160.66 241.59 163.38 242.61 C 165.89 243.04 168.43 243.33 170.97 243.57 C 173.22 242.96 175.14 241.57 177.17 240.47 C 176.43 239.43 175.67 238.39 174.90 237.37 C 170.42 237.33 166.23 234.97 163.74 231.27 C 161.81 228.30 158.82 226.30 156.59 223.62 C 155.24 218.91 153.90 214.04 154.53 209.10 C 155.07 203.68 153.90 198.36 153.06 193.06 C 153.67 188.30 153.37 183.43 154.77 178.78 C 155.51 176.37 153.91 174.24 152.95 172.18 C 151.64 174.70 149.43 178.51 145.99 177.16 C 144.28 175.49 143.74 173.06 143.11 170.85 C 144.65 172.87 145.72 176.23 148.79 176.04 C 150.56 174.30 151.08 171.82 151.69 169.52 C 152.17 169.61 153.12 169.77 153.60 169.85 C 153.37 165.33 153.16 160.80 153.03 156.28 C 149.11 159.62 144.31 162.41 139.02 162.41 C 136.35 162.62 133.83 161.13 132.27 159.05 C 135.42 159.63 138.56 161.24 141.82 160.42 C 146.60 159.48 149.87 155.60 154.02 153.39 C 153.15 151.48 151.91 149.69 151.75 147.53 C 151.09 142.83 149.02 138.50 146.87 134.32 C 147.40 131.58 148.01 128.84 148.04 126.03 C 146.83 124.94 145.65 123.81 144.53 122.63 C 138.59 124.54 132.25 126.70 125.98 125.11 C 120.84 124.58 115.47 124.51 111.24 121.09 C 111.40 121.61 111.73 122.65 111.90 123.17 C 109.96 124.25 108.63 126.06 106.84 127.32 C 108.15 124.96 109.63 122.71 110.83 120.28 C 110.39 117.55 110.42 114.79 110.34 112.04 C 109.94 109.12 108.21 106.63 107.02 104.00 C 108.00 103.21 108.97 102.40 109.87 101.51 C 111.54 101.95 113.17 101.64 114.67 100.81 C 115.43 101.68 116.18 102.55 116.93 103.42 C 114.98 103.39 113.02 103.42 111.07 103.48 C 110.56 103.98 110.05 104.49 109.54 105.00 C 112.34 109.43 111.65 114.74 112.40 119.65 C 117.30 123.67 123.98 121.65 129.63 123.58 C 130.36 123.07 131.09 122.55 131.82 122.03 C 128.14 122.53 125.49 118.33 125.52 114.97 C 127.44 117.10 129.15 119.46 131.52 121.15 C 131.93 121.97 132.36 122.78 132.82 123.58 C 137.00 122.35 141.51 121.98 145.21 119.46 C 144.65 115.31 144.13 111.15 144.08 106.95 C 143.59 107.40 142.62 108.31 142.14 108.76 C 140.95 108.62 139.67 107.72 138.52 108.36 C 135.11 110.28 131.12 110.33 127.38 111.19 C 127.71 112.51 128.02 113.84 128.32 115.17 C 127.23 114.42 126.14 113.66 125.07 112.88 L 126.53 112.64 C 126.13 111.14 125.66 109.66 125.13 108.20 C 126.44 108.61 127.79 110.23 129.19 109.21 C 131.56 107.80 134.33 108.06 136.97 107.98 C 138.05 105.48 137.91 102.81 137.42 100.20 C 140.13 100.41 139.24 104.87 140.31 106.69 C 141.04 106.69 142.50 106.69 143.22 106.70 C 144.61 104.23 146.20 101.82 146.90 99.05 C 147.56 94.34 145.49 89.86 145.07 85.21 M 115.44 145.68 C 112.85 147.31 110.06 148.89 108.39 151.56 C 105.90 155.50 105.12 160.35 105.34 164.95 C 105.76 169.06 107.10 173.92 111.17 175.83 C 115.46 177.26 119.38 173.58 121.06 169.96 C 123.64 164.28 124.06 157.34 121.52 151.58 C 120.42 148.81 117.83 147.22 115.44 145.68 Z" />
<path fill="#333333" opacity="1.00" d=" M 134.02 83.02 C 135.65 83.43 137.22 84.05 138.80 84.63 C 140.82 84.20 143.05 82.98 144.99 84.38 C 141.70 85.55 135.07 88.00 134.02 83.02 Z" />
<path fill="#333333" opacity="1.00" d=" M 152.91 85.52 C 156.15 91.88 159.64 99.85 155.24 106.55 C 155.23 104.29 155.47 102.04 155.75 99.80 C 156.82 94.75 152.68 90.55 152.91 85.52 Z" />
<path fill="#333333" opacity="1.00" d=" M 138.65 88.47 C 139.14 88.37 140.14 88.18 140.63 88.09 C 141.46 88.84 142.29 89.59 143.12 90.33 C 140.83 89.44 138.53 89.50 136.35 90.66 C 137.38 92.08 138.30 93.61 138.58 95.37 C 141.54 95.12 144.95 95.25 146.45 98.28 C 143.78 97.44 141.03 97.04 138.25 96.77 C 136.08 97.87 133.73 98.56 131.58 99.70 C 129.58 100.56 127.82 101.81 126.50 103.55 C 124.02 102.80 121.74 101.41 120.69 98.92 C 122.69 99.78 124.63 100.78 126.64 101.61 C 127.06 101.00 127.90 99.77 128.32 99.16 C 128.87 99.06 129.97 98.85 130.52 98.74 C 132.28 96.70 134.97 96.38 137.35 95.50 C 137.21 94.67 136.93 93.01 136.79 92.19 C 136.11 91.76 135.43 91.34 134.75 90.92 C 136.13 90.24 137.42 89.39 138.65 88.47 Z" />
<path fill="#333333" opacity="1.00" d=" M 124.25 97.01 C 127.41 94.31 128.60 88.89 133.30 88.54 C 131.62 90.54 129.94 92.56 128.68 94.85 C 127.21 95.60 125.77 96.39 124.25 97.01 Z" />
<path fill="#333333" opacity="1.00" d=" M 97.69 91.71 C 99.12 91.06 100.68 90.79 102.21 90.48 C 100.60 92.17 98.82 93.66 97.09 95.22 C 97.24 94.04 97.44 92.87 97.69 91.71 Z" />
<path fill="#333333" opacity="1.00" d=" M 104.87 98.05 C 105.46 95.79 101.77 93.61 104.04 91.74 C 108.11 94.79 106.39 100.46 106.07 104.73 C 106.37 105.16 106.97 106.02 107.27 106.46 C 106.08 109.99 105.55 113.73 104.02 117.15 C 105.62 121.60 106.74 126.25 106.60 131.01 C 106.88 134.49 105.24 137.69 104.79 141.07 C 104.72 144.58 106.09 147.90 106.36 151.38 C 103.20 147.92 102.23 142.61 103.47 138.16 C 105.76 132.03 105.43 125.01 102.92 119.00 C 102.36 119.87 101.24 121.60 100.68 122.47 C 100.73 117.32 105.10 113.26 104.51 108.02 C 104.26 104.68 104.50 101.36 104.87 98.05 Z" />
<path fill="#333333" opacity="1.00" d=" M 108.86 94.96 C 109.88 94.28 110.91 93.59 111.94 92.91 C 112.13 93.30 112.50 94.07 112.68 94.46 C 111.95 94.57 110.49 94.80 109.76 94.91 C 110.97 97.63 113.83 97.81 116.20 96.61 C 116.78 97.18 117.36 97.76 117.94 98.34 C 114.98 99.20 111.90 99.42 109.14 97.83 C 109.07 97.11 108.93 95.68 108.86 94.96 Z" />
<path fill="#333333" opacity="1.00" d=" M 91.37 108.60 C 89.76 106.02 89.80 102.86 89.59 99.92 C 92.39 102.08 92.80 105.53 91.37 108.60 Z" />
<path fill="#333333" opacity="1.00" d=" M 118.89 105.85 C 121.17 105.56 123.47 105.33 125.76 105.10 C 124.90 106.04 124.25 107.47 122.86 107.73 C 121.27 107.87 120.05 106.73 118.89 105.85 Z" />
<path fill="#333333" opacity="1.00" d=" M 121.25 110.87 C 118.16 112.87 113.34 110.37 113.51 106.58 C 116.03 108.11 118.61 109.55 121.25 110.87 Z" />
<path fill="#333333" opacity="1.00" d=" M 152.51 117.60 C 151.15 114.87 150.15 111.93 149.59 108.93 C 152.13 112.27 153.18 116.58 156.27 119.51 C 159.17 122.70 161.93 126.45 162.04 130.95 C 162.74 135.41 160.62 139.54 160.10 143.89 C 161.25 145.99 162.21 148.19 163.17 150.39 C 164.60 150.87 166.02 151.39 167.43 151.93 C 166.96 152.73 166.48 153.53 166.01 154.33 C 164.17 152.36 160.86 151.75 160.14 148.88 C 159.41 146.97 158.58 145.06 158.33 143.02 C 158.39 140.79 159.07 138.57 158.68 136.33 C 159.11 136.45 159.97 136.69 160.39 136.80 C 160.81 133.47 160.58 130.02 159.37 126.86 C 157.80 123.29 154.73 120.72 152.51 117.60 Z" />
<path fill="#333333" opacity="1.00" d=" M 137.50 114.44 C 139.63 112.01 140.28 115.85 138.21 116.68 C 136.61 117.84 136.38 115.04 137.50 114.44 Z" />
<path fill="#333333" opacity="1.00" d=" M 123.85 127.59 C 131.19 128.98 138.64 127.00 145.45 124.31 C 142.88 128.19 138.04 128.70 133.87 129.59 C 130.15 130.33 126.32 130.03 122.64 129.19 C 122.17 134.83 116.10 138.09 111.02 138.45 C 114.76 135.47 120.25 133.86 121.35 128.57 C 119.46 128.01 117.57 127.46 115.68 126.87 C 114.55 129.43 113.76 132.11 113.00 134.79 C 111.39 131.51 113.44 128.26 114.71 125.26 C 117.80 125.88 120.82 126.77 123.85 127.59 Z" />
<path fill="#333333" opacity="1.00" d=" M 149.92 132.37 C 150.68 129.72 152.80 127.92 155.22 126.79 C 155.08 129.73 152.01 130.91 149.92 132.37 Z" />
<path fill="#333333" opacity="1.00" d=" M 107.63 130.11 C 108.58 131.55 109.12 133.13 109.25 134.84 C 109.58 139.64 109.82 144.69 107.34 149.02 C 107.27 142.72 107.90 136.42 107.63 130.11 Z" />
<path fill="#333333" opacity="1.00" d=" M 130.45 134.67 C 135.13 133.46 139.94 132.55 144.80 132.65 C 144.20 135.03 141.75 134.20 140.08 134.51 C 134.33 135.08 128.88 137.31 123.17 138.17 C 125.03 136.02 127.85 135.41 130.45 134.67 Z" />
<path fill="#333333" opacity="1.00" d=" M 127.37 142.97 C 131.84 138.08 138.66 135.64 145.08 134.76 C 142.19 136.99 138.60 137.84 135.32 139.30 C 132.62 140.41 130.16 142.06 127.37 142.97 Z" />
<path fill="#333333" opacity="1.00" d=" M 121.26 144.75 C 129.80 143.45 138.55 143.39 146.89 140.94 C 145.45 142.19 144.11 143.91 142.03 144.00 C 135.36 145.04 128.61 145.49 121.90 146.13 C 121.74 145.78 121.42 145.09 121.26 144.75 Z" />
<path fill="#333333" opacity="1.00" d=" M 102.51 150.14 C 100.73 147.52 100.10 144.40 101.23 141.38 C 101.94 144.25 102.34 147.19 102.51 150.14 Z" />
<path fill="#333333" opacity="1.00" d=" M 95.79 147.17 C 97.73 146.27 98.23 150.44 96.32 150.55 C 95.12 150.03 95.01 148.09 95.79 147.17 Z" />
<path fill="#333333" opacity="1.00" d=" M 77.22 152.27 C 77.81 152.76 77.81 152.76 77.22 152.27 Z" />
<path fill="#333333" opacity="1.00" d=" M 113.52 188.78 C 115.25 189.12 116.98 189.49 118.67 189.99 C 116.79 191.01 113.58 192.09 113.52 188.78 Z" />
<path fill="#333333" opacity="1.00" d=" M 148.52 226.00 C 149.16 227.26 149.29 228.67 149.32 230.07 C 149.73 231.57 150.13 233.07 150.46 234.60 C 147.68 232.53 147.53 229.08 148.52 226.00 Z" />
<path fill="#333333" opacity="1.00" d=" M 107.26 243.14 C 108.64 240.01 109.31 235.71 113.03 234.56 C 112.53 235.57 112.02 236.58 111.49 237.58 C 110.88 239.97 109.38 241.91 107.26 243.14 Z" />
</g>
</svg>
