<?xml version="1.0" encoding="UTF-8" ?>
<!DOCTYPE svg PUBLIC "-//W3C//DTD SVG 1.1//EN" "http://www.w3.org/Graphics/SVG/1.1/DTD/svg11.dtd">
<svg width="221pt" height="275pt" viewBox="0 0 221 275" version="1.1" xmlns="http://www.w3.org/2000/svg"><g id="#494a49ff">
<path fill="#333333" opacity="1.00" d=" M 168.33 0.00 L 170.27 0.00 C 170.33 11.77 170.27 23.53 170.39 35.30 C 171.67 35.75 172.94 36.20 174.22 36.65 C 174.19 24.43 174.33 12.22 174.36 0.00 L 175.76 0.00 C 175.87 12.32 175.74 24.64 175.88 36.95 C 176.77 36.59 177.67 36.23 178.57 35.87 C 178.66 23.91 178.52 11.96 178.65 0.00 L 181.26 0.00 C 181.21 10.39 181.40 20.79 181.15 31.18 C 182.95 29.33 184.57 27.15 186.97 26.04 C 191.00 24.72 195.82 23.84 199.47 26.65 C 205.09 30.91 206.70 38.25 208.08 44.78 C 212.38 43.78 216.71 42.90 221.00 41.82 L 221.00 43.72 C 216.70 44.50 212.43 45.46 208.09 45.95 C 208.11 47.15 208.12 48.35 208.14 49.56 C 212.39 48.51 216.75 47.97 221.00 46.90 L 221.00 48.61 C 216.78 49.33 212.58 50.22 208.33 50.74 C 208.40 59.30 206.90 68.49 201.23 75.23 C 198.55 78.67 193.89 78.24 190.01 78.30 C 186.60 78.45 184.26 75.68 182.19 73.40 C 181.60 80.92 180.95 88.44 181.27 96.00 C 181.28 143.00 181.24 189.99 181.29 236.99 C 181.46 238.85 180.77 240.57 179.51 241.93 C 178.81 236.62 179.17 231.26 179.00 225.92 C 178.61 177.68 179.55 129.44 178.79 81.20 C 177.63 81.71 176.47 82.23 175.31 82.74 C 175.16 88.83 176.15 94.88 175.97 100.97 C 175.83 107.65 175.38 114.33 175.54 121.02 C 175.67 133.36 175.12 145.72 176.01 158.04 C 176.09 179.02 176.07 200.01 176.14 220.99 C 175.70 227.64 175.91 234.31 175.89 240.97 C 175.41 240.98 174.46 240.99 173.98 241.00 C 173.97 234.00 173.92 227.00 174.27 220.00 C 174.40 199.34 174.23 178.68 174.31 158.01 C 174.38 150.67 173.66 143.34 173.98 136.00 C 174.58 123.03 174.00 110.04 174.26 97.06 C 174.49 92.22 174.57 87.37 174.48 82.53 C 173.15 82.00 171.82 81.48 170.49 80.97 C 170.74 124.63 170.52 168.30 171.09 211.96 C 170.53 221.95 171.94 232.03 170.45 241.96 C 169.70 240.40 168.74 238.82 168.74 237.03 C 168.43 187.02 168.57 137.01 168.42 86.99 C 168.41 84.87 168.37 82.74 168.09 80.63 C 166.85 73.58 167.80 66.41 167.74 59.30 C 155.32 62.63 142.55 64.42 130.01 67.23 C 127.38 68.08 125.56 70.39 123.23 71.80 C 123.56 74.06 123.95 76.32 124.13 78.60 C 124.38 81.47 122.39 83.94 122.26 86.76 C 122.34 90.58 123.93 94.20 124.06 98.02 C 123.77 101.52 121.59 104.54 121.22 108.04 C 120.82 112.37 121.21 116.75 122.09 121.00 C 122.32 122.89 124.04 124.03 125.16 125.40 C 125.19 128.16 124.49 130.86 124.31 133.59 C 125.58 138.49 128.23 142.94 129.04 147.98 C 129.25 150.13 130.73 151.76 132.08 153.31 C 131.19 154.48 130.27 155.63 129.37 156.80 C 130.39 163.53 129.40 170.46 131.49 177.02 C 131.06 182.90 129.65 188.87 130.78 194.81 C 132.45 202.44 131.32 210.30 132.21 218.00 C 132.60 220.14 133.14 222.49 134.94 223.91 C 138.08 226.50 140.38 229.92 143.47 232.55 C 145.50 234.38 148.30 234.65 150.86 235.13 C 152.09 236.52 153.29 237.93 154.50 239.35 C 150.04 245.91 140.82 245.90 134.41 242.44 C 129.51 239.28 122.91 244.09 118.56 239.48 C 116.25 231.64 122.08 224.03 120.40 216.10 C 120.09 210.69 116.12 206.57 114.90 201.47 C 114.60 197.46 115.18 193.44 115.60 189.46 C 116.22 189.40 116.84 189.36 117.47 189.33 C 116.66 194.21 117.37 199.14 118.33 203.94 C 119.09 207.05 121.33 209.61 121.83 212.81 C 122.37 216.88 122.12 221.00 121.94 225.09 C 120.83 228.67 120.25 232.42 120.15 236.17 C 120.17 237.43 119.92 239.06 121.45 239.52 C 124.49 240.55 127.82 239.57 130.99 239.75 C 133.96 239.57 136.55 241.22 139.12 242.45 C 141.72 242.55 144.32 243.04 146.92 242.79 C 148.76 242.11 150.43 241.04 152.17 240.15 C 151.48 239.22 150.78 238.29 150.08 237.37 C 146.50 236.76 142.75 235.63 140.39 232.66 C 137.72 229.32 134.62 226.37 131.73 223.25 C 128.16 215.32 130.93 206.49 129.19 198.23 C 127.78 191.89 128.74 185.35 129.83 179.04 C 130.36 176.66 129.27 174.39 128.53 172.19 C 126.75 174.38 125.42 177.99 122.03 177.87 C 119.54 176.44 119.19 173.28 118.14 170.86 C 119.85 172.94 121.12 175.79 123.97 176.49 C 125.51 174.47 126.22 172.00 127.03 169.64 C 127.51 169.62 128.48 169.59 128.96 169.57 C 128.66 165.30 128.42 161.03 128.16 156.75 C 124.33 159.70 119.96 162.42 115.01 162.69 C 111.97 162.91 109.35 161.01 106.55 160.20 C 109.88 165.07 114.65 169.20 116.24 175.08 C 116.80 178.49 117.15 182.01 118.86 185.09 C 120.18 187.34 120.40 189.92 120.06 192.48 C 117.81 189.35 116.31 185.78 114.70 182.30 C 113.00 178.80 114.04 174.47 111.71 171.20 C 110.01 168.45 108.30 165.71 106.77 162.87 C 103.39 166.16 104.46 171.05 103.26 175.19 C 102.48 179.09 99.74 182.16 98.48 185.87 C 97.11 189.88 95.48 193.86 94.91 198.09 C 94.40 203.42 95.93 208.97 94.04 214.14 C 91.51 220.37 90.65 227.29 91.48 233.95 C 92.02 239.26 95.46 243.51 97.98 248.02 C 100.13 251.70 104.42 254.46 104.75 258.99 C 104.96 261.71 101.85 261.91 99.95 262.40 C 99.27 262.95 98.59 263.50 97.92 264.05 C 94.54 264.21 90.93 264.72 87.73 263.35 C 85.51 262.15 82.89 260.65 82.56 257.88 C 81.99 253.45 79.31 249.53 79.46 244.99 C 79.03 243.43 78.59 241.88 78.15 240.33 C 78.77 237.57 79.09 234.74 79.06 231.91 C 79.07 224.73 75.45 218.12 75.34 210.96 C 75.60 205.23 78.22 199.99 79.62 194.52 C 80.21 189.91 80.24 185.18 81.77 180.73 C 84.06 175.04 82.08 168.89 82.88 162.98 C 82.38 163.36 81.40 164.12 80.91 164.49 C 79.75 163.06 78.52 161.67 77.55 160.10 C 78.81 157.41 80.65 154.90 80.76 151.83 C 81.08 146.50 83.69 141.39 82.75 136.00 C 82.42 133.51 81.45 131.05 81.74 128.52 C 82.64 125.24 85.80 122.81 85.80 119.25 C 85.82 115.66 86.07 111.85 84.30 108.58 C 82.61 104.82 79.06 102.43 76.93 98.98 C 73.84 94.79 73.59 89.40 71.83 84.65 C 68.93 83.80 66.05 82.86 63.17 81.93 C 63.24 89.96 63.46 98.02 62.32 105.99 C 62.21 157.66 62.28 209.34 62.28 261.01 C 62.55 262.93 61.70 264.51 60.48 265.90 C 59.73 259.31 60.21 252.67 60.05 246.06 C 59.48 206.74 60.58 167.41 59.92 128.09 C 59.79 119.68 60.38 111.24 59.44 102.87 C 55.38 104.60 56.37 109.34 56.40 112.87 C 57.70 123.55 56.28 134.27 56.54 144.98 C 56.67 157.33 56.12 169.69 57.01 182.02 C 57.09 202.99 57.07 223.97 57.14 244.94 C 56.70 251.61 56.91 258.29 56.89 264.98 C 56.41 264.98 55.46 264.99 54.98 265.00 C 54.97 258.00 54.92 251.00 55.27 244.01 C 55.40 223.35 55.23 202.68 55.31 182.01 C 55.37 174.34 54.62 166.68 55.02 159.01 C 55.66 144.66 54.78 130.30 55.46 115.96 C 55.58 112.14 55.47 108.32 55.41 104.50 C 54.10 103.98 52.80 103.47 51.50 102.97 C 51.73 147.29 51.52 191.62 52.09 235.94 C 51.52 245.94 52.94 256.02 51.44 265.97 C 50.48 264.15 49.56 262.21 49.69 260.09 C 49.57 216.07 49.43 172.04 49.50 128.02 C 49.57 118.02 48.83 107.98 49.97 98.03 C 51.08 100.21 52.94 101.71 55.23 102.52 C 55.54 95.02 54.71 87.54 54.92 80.04 C 54.91 73.72 55.58 67.38 55.04 61.08 C 53.84 60.28 52.53 59.69 51.27 59.02 C 51.14 62.50 51.05 65.98 50.78 69.46 C 49.69 67.09 48.45 64.65 48.58 61.97 C 50.05 47.71 49.06 33.33 49.33 19.01 C 49.64 14.25 48.28 9.05 50.73 4.68 C 51.02 6.76 51.24 8.85 51.26 10.95 C 51.30 26.40 51.25 41.86 51.39 57.31 C 52.66 57.75 53.94 58.19 55.21 58.63 C 55.40 40.89 55.05 23.14 55.82 5.42 C 57.52 23.35 56.38 41.40 56.99 59.38 C 60.51 57.94 59.50 54.01 59.64 51.01 C 59.54 37.35 59.60 23.69 59.76 10.03 C 59.95 7.64 59.41 4.61 62.06 3.39 C 62.52 20.00 62.15 36.64 62.26 53.26 C 66.54 53.79 70.73 54.86 74.94 55.76 C 80.69 56.24 86.47 55.92 92.23 56.00 C 95.27 56.78 96.94 59.75 99.64 61.13 C 101.91 62.28 104.22 63.36 106.30 64.83 C 106.83 64.82 107.90 64.79 108.43 64.78 C 109.78 61.20 111.34 57.68 112.18 53.93 C 112.82 51.00 115.78 49.59 117.85 47.76 C 123.65 43.50 125.69 35.64 132.20 32.16 C 136.40 29.79 141.22 32.03 145.72 31.48 C 149.06 36.03 145.83 41.37 145.34 46.24 C 144.50 50.59 143.30 56.77 138.30 58.00 C 140.78 54.35 142.66 50.33 143.64 46.02 C 138.19 50.40 131.15 51.72 125.11 55.00 C 126.29 56.90 127.55 58.75 128.82 60.59 C 141.78 58.15 154.59 54.90 167.68 53.09 C 167.62 48.38 167.49 43.67 167.67 38.97 C 169.01 26.03 168.07 12.99 168.33 0.00 M 187.43 27.50 C 184.43 28.85 182.75 31.88 181.22 34.62 C 183.10 39.40 181.86 44.68 182.19 49.68 C 184.41 49.20 186.65 48.81 188.89 48.41 C 189.90 50.53 190.33 52.79 189.28 54.99 C 186.93 55.47 184.57 55.97 182.21 56.39 C 182.28 60.83 181.96 65.29 182.35 69.72 C 183.73 74.17 188.30 76.73 192.85 76.36 C 193.08 75.45 193.33 74.54 193.59 73.64 C 200.63 65.67 200.98 54.20 199.71 44.19 C 198.97 38.05 195.43 32.88 191.95 27.97 C 195.44 28.33 196.91 31.74 198.38 34.44 C 201.08 40.21 201.97 46.69 202.02 53.01 C 201.56 61.31 200.07 70.56 193.32 76.21 C 199.20 76.69 202.55 71.13 204.38 66.41 C 208.14 55.75 207.89 43.43 202.69 33.29 C 201.05 29.74 197.52 27.85 194.23 26.10 C 191.98 26.62 189.66 26.89 187.43 27.50 M 125.73 40.64 C 122.44 46.01 117.67 50.20 113.33 54.68 C 113.50 57.79 112.81 60.82 111.03 63.40 C 111.30 64.16 111.56 64.93 111.83 65.69 C 109.85 66.14 107.88 66.62 105.93 67.20 C 106.24 68.05 106.84 69.74 107.15 70.59 C 106.61 72.24 106.30 73.98 105.51 75.53 C 101.29 78.01 96.41 78.93 91.99 80.96 C 91.02 80.73 90.07 80.46 89.13 80.14 C 88.87 79.14 88.60 78.13 88.34 77.13 C 89.62 77.85 90.88 79.75 92.35 78.32 C 95.72 76.13 99.74 75.65 103.50 74.52 C 104.90 71.62 104.49 68.32 103.60 65.36 C 102.61 63.81 100.59 63.63 99.08 62.82 C 95.96 61.78 94.39 58.05 91.02 57.65 C 85.34 57.92 79.62 58.48 73.94 57.85 C 70.07 56.91 66.23 55.75 62.21 55.62 C 63.76 60.64 63.03 65.91 63.26 71.07 C 67.12 70.61 70.84 69.38 74.14 67.33 C 77.11 65.33 81.59 65.27 84.03 68.16 C 81.62 68.27 79.21 68.07 76.80 67.95 C 77.62 68.62 79.27 69.96 80.09 70.63 C 75.18 68.50 70.70 71.54 66.04 72.71 C 65.30 72.50 63.81 72.10 63.07 71.90 C 63.33 72.31 63.84 73.12 64.10 73.52 C 66.34 72.80 68.75 72.83 70.95 71.97 C 74.25 71.25 78.16 69.24 81.10 71.90 C 75.08 72.94 69.11 74.18 63.12 75.32 C 63.18 76.36 63.25 77.39 63.32 78.43 C 68.43 77.26 73.55 76.11 78.73 75.20 C 79.22 76.98 77.47 77.90 76.29 78.81 C 78.47 78.95 80.60 79.40 82.72 79.90 C 81.54 78.27 80.31 76.68 79.22 74.98 C 82.13 74.55 85.00 73.96 87.91 73.52 C 87.77 72.79 87.49 71.32 87.35 70.58 C 85.69 70.91 84.03 71.25 82.37 71.59 C 81.56 71.09 80.76 70.58 79.96 70.07 C 81.07 69.87 83.30 69.46 84.42 69.26 C 84.26 67.17 84.46 65.09 85.16 63.10 C 86.86 64.37 86.96 66.37 86.92 68.31 C 88.27 70.39 89.91 72.25 91.34 74.27 C 90.73 75.17 90.01 75.97 89.17 76.68 C 88.98 75.54 88.80 74.40 88.65 73.25 C 88.16 76.42 84.58 75.75 82.26 76.32 C 85.01 80.02 88.36 83.32 90.45 87.47 C 87.13 86.94 85.90 83.45 83.83 81.27 C 80.44 81.26 76.22 81.46 74.07 78.32 C 70.34 79.03 66.64 79.82 62.90 80.45 C 66.51 80.16 69.93 81.36 72.91 83.35 C 74.93 87.05 75.07 91.41 76.81 95.18 C 79.10 98.06 81.31 101.03 83.71 103.83 C 83.88 103.27 84.20 102.15 84.36 101.59 C 86.26 103.05 88.24 102.47 90.13 101.45 C 90.88 102.33 91.62 103.21 92.37 104.10 C 89.72 104.17 86.94 103.58 84.41 104.59 C 86.69 108.35 87.29 112.65 87.18 116.96 C 86.61 120.47 90.50 121.51 93.06 122.38 C 97.42 122.55 101.72 123.18 106.01 123.92 C 110.09 123.32 114.31 122.76 118.09 121.03 C 121.62 119.96 120.32 114.76 118.41 112.59 C 118.73 112.62 119.38 112.69 119.70 112.72 C 119.62 111.39 119.45 108.74 119.37 107.42 C 118.82 107.93 117.72 108.97 117.18 109.49 C 116.20 109.09 115.23 108.70 114.25 108.32 C 111.57 110.91 107.64 110.09 104.47 111.62 C 102.50 112.57 101.07 110.28 99.55 109.44 C 101.75 109.63 103.99 110.01 106.08 109.07 C 108.31 108.19 111.89 109.86 112.80 106.86 C 113.34 104.86 113.40 102.79 113.63 100.75 C 114.44 102.75 115.11 104.81 115.39 106.96 C 116.07 107.08 117.44 107.31 118.12 107.43 C 120.24 104.01 123.04 100.36 122.17 96.07 C 121.45 92.77 121.38 89.17 119.83 86.14 C 117.07 85.21 114.18 87.97 111.55 86.39 C 110.39 85.83 108.38 85.40 109.79 83.86 C 112.64 85.16 115.64 85.34 118.62 84.32 C 119.15 84.49 120.21 84.84 120.74 85.01 C 123.31 80.80 121.57 75.77 121.48 71.19 C 119.26 71.85 117.05 72.56 114.73 72.74 C 117.15 69.53 121.15 68.79 124.93 68.86 C 125.85 66.90 126.85 64.98 127.57 62.94 C 127.10 60.93 125.81 59.26 124.77 57.53 C 123.89 56.53 123.11 55.45 122.41 54.33 C 121.56 53.46 120.71 52.60 119.88 51.73 C 121.73 51.79 123.42 52.38 124.54 53.93 C 129.09 49.65 135.71 49.04 140.91 45.82 C 144.59 42.89 146.98 37.74 145.30 33.10 C 142.18 33.55 139.03 33.36 135.90 33.23 C 131.34 33.45 128.15 37.17 125.73 40.64 M 170.11 38.00 C 170.13 51.62 170.08 65.24 170.18 78.85 C 171.56 79.26 172.93 79.66 174.32 80.04 C 174.46 73.37 173.81 66.71 173.90 60.04 C 173.90 52.83 174.49 45.62 174.05 38.42 C 172.74 38.28 171.42 38.14 170.11 38.00 M 175.72 40.34 C 175.65 53.57 175.25 66.84 176.26 80.05 C 177.41 79.67 178.56 79.29 179.70 78.90 C 179.73 65.22 179.83 51.54 179.69 37.86 C 178.28 38.58 175.31 38.00 175.72 40.34 M 182.19 51.31 C 182.19 52.46 182.20 53.61 182.20 54.77 C 184.57 53.99 187.76 54.46 189.11 51.96 C 187.67 49.08 184.56 51.22 182.19 51.31 M 129.04 62.48 C 128.75 63.26 128.16 64.82 127.86 65.60 C 138.97 63.68 150.02 61.43 161.02 58.95 C 163.20 58.47 165.41 58.08 167.65 58.02 C 167.69 57.12 167.75 55.33 167.78 54.43 C 154.90 57.24 141.92 59.64 129.04 62.48 M 56.71 62.35 C 56.66 75.58 56.24 88.84 57.26 102.05 C 58.41 101.67 59.56 101.28 60.71 100.89 C 60.73 87.22 60.82 73.55 60.70 59.89 C 59.27 60.54 56.30 60.02 56.71 62.35 M 87.11 121.66 C 87.05 122.25 86.93 123.43 86.87 124.02 C 86.37 124.16 85.36 124.43 84.85 124.56 C 81.77 129.11 85.17 134.21 84.74 139.10 C 85.15 144.06 82.76 148.62 82.29 153.49 C 82.08 156.53 78.58 159.50 81.48 162.17 C 82.51 160.44 83.00 158.18 85.02 157.29 C 85.06 159.18 85.07 161.06 85.08 162.95 C 87.67 163.96 90.18 165.28 92.91 165.89 C 97.14 166.41 101.40 164.95 104.91 162.66 C 105.41 160.26 105.05 157.55 106.25 155.40 C 108.36 154.31 110.69 153.82 113.01 153.46 C 114.34 151.07 115.75 148.69 117.67 146.71 C 117.12 149.58 116.28 152.81 114.01 154.77 C 111.18 155.58 107.85 156.05 106.75 159.26 C 110.78 159.74 115.03 162.05 119.01 160.09 C 123.01 158.71 125.70 155.13 129.64 153.63 C 128.40 151.96 127.13 150.20 127.03 148.03 C 126.38 143.08 124.05 138.59 122.03 134.08 C 122.83 131.56 123.32 128.93 123.07 126.28 C 121.95 125.19 120.85 124.09 119.78 122.97 C 113.83 124.63 107.66 127.43 101.41 125.55 C 96.47 124.85 91.27 124.86 87.11 121.66 M 84.03 164.68 C 84.29 168.48 85.10 172.26 84.99 176.09 C 84.07 180.45 81.82 184.52 81.75 189.07 C 82.36 194.53 84.06 199.78 85.46 205.08 C 82.54 203.21 82.57 199.32 81.03 196.51 C 78.47 202.41 75.99 208.89 77.38 215.42 C 78.70 221.25 80.76 226.98 81.02 233.01 C 81.09 235.71 80.07 238.30 80.08 241.00 C 81.26 246.94 84.63 252.27 85.16 258.36 C 87.74 261.76 92.55 263.45 96.57 261.70 C 98.56 261.12 98.08 259.56 97.43 258.07 C 94.84 258.55 92.14 259.50 89.56 258.40 C 88.55 258.52 87.53 258.64 86.52 258.75 C 86.81 258.35 87.39 257.55 87.68 257.14 C 90.98 256.84 94.32 256.76 97.64 256.51 C 98.75 257.56 99.43 258.97 100.28 260.24 C 101.45 259.87 102.62 259.49 103.78 259.10 C 102.07 255.97 99.77 253.24 97.45 250.55 C 95.38 247.29 93.59 243.85 91.57 240.56 C 88.85 234.42 88.48 227.40 89.54 220.83 C 90.08 217.42 91.98 214.42 92.78 211.08 C 93.20 207.82 92.94 204.51 92.82 201.23 C 89.34 205.77 90.12 211.60 88.74 216.81 C 87.16 214.82 87.60 212.20 87.86 209.86 C 88.42 205.55 90.58 201.74 92.55 197.95 C 94.76 191.80 96.10 185.20 99.68 179.64 C 101.93 175.63 102.35 170.93 103.10 166.47 C 99.73 167.18 96.34 168.20 92.86 168.00 C 89.74 167.43 87.00 165.70 84.03 164.68 Z" />
<path fill="#333333" opacity="1.00" d=" M 85.82 31.86 C 89.01 27.47 94.93 26.72 99.96 27.28 C 104.17 27.21 108.31 30.54 108.66 34.83 C 109.13 38.78 110.90 42.59 110.42 46.62 C 109.96 51.16 108.85 55.60 107.67 59.99 C 106.79 60.83 105.90 61.67 105.02 62.51 L 105.10 60.61 C 102.14 60.74 100.03 58.30 97.17 58.09 C 96.95 57.31 96.73 56.54 96.51 55.77 C 98.74 57.24 101.29 58.07 103.85 58.80 C 104.57 58.44 106.02 57.72 106.74 57.35 C 107.88 54.04 108.52 50.57 108.93 47.09 C 109.37 43.03 107.95 39.12 107.27 35.16 C 106.91 32.21 104.27 30.48 102.27 28.62 C 97.71 28.44 92.70 28.54 89.07 31.72 C 85.68 34.13 85.35 38.67 85.62 42.46 C 86.23 42.32 87.45 42.04 88.06 41.90 C 87.62 43.53 87.20 45.17 86.84 46.83 C 88.48 47.95 90.14 49.04 91.84 50.08 C 92.76 52.05 93.79 53.96 94.94 55.80 C 93.83 55.42 92.72 55.03 91.62 54.64 C 91.16 52.81 90.06 51.32 88.74 50.03 C 88.85 51.56 88.84 53.08 88.72 54.60 C 86.66 55.40 88.05 51.13 87.66 49.88 C 86.78 48.85 85.91 47.83 85.02 46.82 C 84.47 41.88 82.57 36.27 85.82 31.86 Z" />
<path fill="#333333" opacity="1.00" d=" M 28.31 59.20 C 32.32 57.26 37.57 55.82 41.67 58.36 C 45.19 60.33 46.88 64.21 48.71 67.60 C 46.49 68.41 45.66 65.72 44.71 64.30 C 43.30 61.33 40.18 59.96 37.51 58.39 C 34.42 59.26 30.62 58.71 28.23 61.25 C 23.16 66.44 21.80 73.95 20.94 80.88 C 20.61 81.45 19.93 82.58 19.60 83.15 C 23.76 82.38 27.83 81.20 32.00 80.53 C 32.73 82.63 33.11 84.83 33.22 87.05 C 29.22 88.15 25.14 88.90 21.05 89.56 C 22.50 95.47 23.71 102.09 28.39 106.42 C 31.51 109.42 36.14 108.26 39.98 107.89 C 43.78 106.56 45.77 102.61 47.21 99.12 C 50.20 91.17 50.71 82.35 48.82 74.08 C 48.35 72.54 48.28 70.63 46.74 69.70 C 47.52 69.25 48.32 68.83 49.11 68.40 C 49.78 71.43 50.41 74.48 51.37 77.44 C 51.50 87.68 51.36 99.15 44.33 107.37 C 41.69 110.95 36.97 110.27 33.07 110.71 C 27.93 110.29 24.64 105.52 22.83 101.15 C 21.54 97.50 19.75 93.63 20.56 89.68 C 16.04 90.67 11.41 91.11 6.96 92.41 L 6.07 92.01 C 5.79 91.02 5.24 89.03 4.96 88.04 C 5.91 88.63 6.87 89.21 7.84 89.76 C 7.89 89.01 7.99 87.51 8.04 86.76 L 6.88 88.97 C 6.34 88.09 5.80 87.20 5.28 86.31 C 9.76 84.65 14.63 84.32 19.31 83.42 C 20.00 74.87 21.59 65.19 28.31 59.20 M 9.61 86.62 C 9.69 87.47 9.85 89.17 9.93 90.02 C 17.32 88.29 24.83 87.11 32.23 85.39 C 31.54 84.58 31.63 82.31 30.00 83.08 C 23.20 84.22 16.49 85.91 9.61 86.62 Z" />
<path fill="#333333" opacity="1.00" d=" M 35.00 60.14 C 38.78 60.50 40.23 64.29 41.66 67.26 C 46.30 78.58 46.07 91.81 41.10 102.98 C 40.34 104.95 38.65 106.28 36.85 107.27 C 39.15 102.81 41.75 98.41 42.55 93.37 C 43.77 85.37 43.69 76.90 40.69 69.27 C 39.41 65.87 36.87 63.20 35.00 60.14 Z" />
<path fill="#333333" opacity="1.00" d=" M 113.49 63.49 C 114.39 64.27 115.31 65.05 116.05 65.99 C 116.19 67.78 114.94 69.26 114.18 70.77 C 113.84 68.35 113.67 65.92 113.49 63.49 Z" />
<path fill="#333333" opacity="1.00" d=" M 111.02 69.35 C 112.63 68.80 114.25 71.28 113.42 72.65 C 111.86 73.33 110.16 70.63 111.02 69.35 Z" />
<path fill="#333333" opacity="1.00" d=" M 89.93 81.89 C 92.97 83.28 95.65 85.31 98.60 86.85 C 98.68 87.25 98.85 88.05 98.94 88.45 C 101.18 87.52 103.50 86.80 105.76 85.93 C 106.45 84.12 107.10 82.09 109.19 81.45 C 108.39 83.46 107.93 85.77 106.35 87.34 C 104.70 88.38 102.72 88.71 100.88 89.32 C 98.60 92.19 95.04 93.27 91.46 93.14 C 91.60 92.64 91.89 91.66 92.03 91.16 C 94.23 90.90 96.41 90.49 98.58 89.97 C 95.59 87.39 92.41 84.99 89.93 81.89 Z" />
<path fill="#333333" opacity="1.00" d=" M 110.09 90.84 C 112.52 90.98 114.50 86.86 116.64 89.36 C 117.06 89.75 117.91 90.53 118.33 90.93 C 117.10 90.54 115.89 90.14 114.69 89.70 C 113.86 90.38 113.03 91.05 112.19 91.73 C 112.80 93.06 113.44 94.39 114.04 95.73 C 116.87 95.83 120.23 95.65 121.61 98.68 C 118.94 98.06 116.23 97.58 113.50 97.34 C 111.85 98.29 110.05 98.91 108.19 99.29 C 107.85 99.70 107.16 100.53 106.82 100.95 C 106.20 101.04 104.96 101.22 104.35 101.32 C 103.58 102.21 102.82 103.11 102.06 104.01 C 99.38 103.39 96.59 102.30 96.08 99.25 C 97.90 100.31 99.65 101.50 101.55 102.44 C 102.26 101.58 102.97 100.73 103.69 99.88 C 105.39 99.27 106.95 98.36 108.19 97.03 C 109.52 96.96 110.86 96.89 112.20 96.81 C 112.45 94.54 111.97 92.30 110.09 90.84 Z" />
<path fill="#333333" opacity="1.00" d=" M 101.05 95.92 C 103.56 93.56 104.63 88.74 108.82 89.24 C 105.79 92.09 103.78 95.90 99.98 97.89 C 100.25 97.40 100.78 96.41 101.05 95.92 Z" />
<path fill="#333333" opacity="1.00" d=" M 84.49 94.96 C 85.68 94.59 86.86 94.18 88.02 93.71 C 86.93 94.86 86.02 96.13 85.29 97.53 C 87.52 97.93 89.79 97.88 91.93 97.06 C 92.20 97.53 92.73 98.46 93.00 98.93 C 90.22 99.74 87.29 100.18 84.77 98.38 C 84.68 97.24 84.59 96.10 84.49 94.96 Z" />
<path fill="#333333" opacity="1.00" d=" M 94.27 106.18 C 96.53 105.97 98.79 105.76 101.05 105.60 C 99.81 108.44 95.85 109.16 94.27 106.18 Z" />
<path fill="#333333" opacity="1.00" d=" M 89.37 107.28 C 91.91 108.59 94.34 110.13 96.63 111.85 C 93.80 112.77 88.09 110.95 89.37 107.28 Z" />
<path fill="#333333" opacity="1.00" d=" M 101.14 112.87 C 102.72 112.45 103.34 113.07 103.00 114.71 C 101.42 115.11 100.80 114.50 101.14 112.87 Z" />
<path fill="#333333" opacity="1.00" d=" M 112.02 118.31 C 111.81 115.98 113.14 114.44 115.25 113.66 C 114.44 115.39 113.34 116.95 112.02 118.31 Z" />
<path fill="#333333" opacity="1.00" d=" M 100.66 115.47 C 102.97 117.87 105.35 120.20 107.78 122.48 C 103.84 123.16 100.88 118.99 100.66 115.47 Z" />
<path fill="#333333" opacity="1.00" d=" M 88.95 135.07 C 85.85 132.31 89.25 128.50 90.48 125.64 C 94.91 126.87 99.31 128.60 103.99 128.47 C 109.70 128.65 115.16 126.73 120.57 125.17 C 114.90 130.92 105.69 130.71 98.18 129.91 C 96.82 135.23 91.47 138.17 86.43 139.13 C 89.71 135.62 95.30 134.36 96.68 129.17 C 94.84 128.52 92.98 127.94 91.12 127.36 C 90.01 129.81 89.26 132.40 88.95 135.07 Z" />
<path fill="#333333" opacity="1.00" d=" M 101.92 136.07 C 107.54 134.25 113.39 132.98 119.31 132.82 C 119.35 133.89 119.39 134.95 119.45 136.02 C 113.69 138.04 108.26 140.81 102.65 143.17 C 106.30 138.64 112.31 137.44 117.31 135.03 C 110.86 134.36 104.82 137.57 98.51 138.47 C 99.52 137.50 100.49 136.37 101.92 136.07 Z" />
<path fill="#333333" opacity="1.00" d=" M 95.95 145.41 C 104.60 143.39 113.67 143.88 122.18 141.13 C 119.05 145.17 113.55 144.81 108.96 145.14 C 104.61 145.21 100.16 147.32 95.95 145.41 Z" />
<path fill="#333333" opacity="1.00" d=" M 87.47 179.88 C 90.04 179.84 92.50 179.15 94.82 178.07 C 95.42 179.90 96.00 181.74 96.45 183.63 C 95.65 182.62 94.88 181.59 94.14 180.54 C 92.48 181.02 90.81 181.45 89.13 181.85 C 88.41 183.00 87.69 184.15 86.94 185.28 C 87.07 183.47 87.26 181.67 87.47 179.88 Z" />
<path fill="#333333" opacity="1.00" d=" M 88.68 189.17 C 90.29 189.16 91.93 189.18 93.50 189.63 C 92.97 192.11 89.30 191.24 88.68 189.17 Z" />
<path fill="#333333" opacity="1.00" d=" M 125.58 234.48 C 123.07 232.23 122.26 228.63 124.28 225.77 C 124.59 228.69 125.07 231.59 125.58 234.48 Z" />
<path fill="#333333" opacity="1.00" d=" M 82.52 242.80 C 83.71 239.68 84.62 235.43 88.25 234.32 C 86.69 237.36 85.64 240.94 82.52 242.80 Z" />
</g>
</svg>
