<?xml version="1.0" encoding="UTF-8" ?>
<!DOCTYPE svg PUBLIC "-//W3C//DTD SVG 1.1//EN" "http://www.w3.org/Graphics/SVG/1.1/DTD/svg11.dtd">
<svg width="180pt" height="250pt" viewBox="0 0 180 250" version="1.1" xmlns="http://www.w3.org/2000/svg"><g id="#464746ff">
<path fill="#333333" opacity="1.00" d=" M 74.90 20.83 C 78.05 16.93 83.48 16.68 88.07 17.37 C 92.49 17.43 96.20 21.00 97.50 25.07 C 99.98 31.09 100.23 37.80 99.33 44.19 C 102.58 45.06 105.61 46.63 107.87 49.17 C 110.47 51.98 114.95 52.65 116.64 56.35 C 119.36 60.58 118.56 65.77 118.29 70.51 C 122.25 76.65 119.00 85.30 124.52 90.55 C 127.20 93.13 126.66 97.24 128.53 100.29 C 129.33 97.95 130.25 95.59 130.41 93.10 C 129.03 85.99 127.73 78.74 124.54 72.18 C 123.76 70.25 121.47 69.89 119.92 68.84 C 119.86 65.49 125.11 67.99 126.35 69.63 C 130.13 75.42 129.44 82.87 131.69 89.26 C 133.31 92.96 132.50 97.10 130.85 100.63 C 129.99 101.65 128.58 101.95 127.47 102.61 C 127.64 106.44 129.24 109.95 130.17 113.61 C 131.61 110.79 133.28 107.08 137.05 107.20 C 140.58 106.38 143.24 109.38 144.96 112.01 C 148.19 117.39 147.81 124.13 146.93 130.10 C 146.17 134.67 140.94 138.45 136.63 135.31 C 135.34 139.00 135.63 143.15 136.08 146.98 C 138.42 155.49 135.59 164.54 138.44 172.97 C 142.50 175.42 144.82 179.75 148.61 182.50 C 150.38 183.84 152.75 183.69 154.76 184.44 C 156.01 186.24 155.77 188.52 155.77 190.59 C 153.99 191.88 152.16 193.32 149.95 193.78 C 147.65 193.64 145.37 193.20 143.06 193.35 C 139.92 191.82 136.76 189.52 133.06 190.40 C 129.80 191.05 126.32 190.69 123.89 188.22 C 123.51 183.57 124.23 178.93 125.70 174.51 C 127.69 168.14 125.05 161.57 121.98 156.02 C 120.00 152.83 121.40 148.95 120.07 145.54 L 121.12 145.73 C 121.26 144.91 121.53 143.27 121.66 142.45 C 119.10 141.43 116.18 140.90 114.19 138.84 C 112.45 137.13 111.41 134.88 110.34 132.73 C 110.41 133.79 110.49 134.86 110.57 135.92 C 109.99 137.56 109.50 139.23 109.09 140.92 C 107.11 143.65 104.38 145.71 100.81 145.30 C 100.65 144.85 100.33 143.94 100.17 143.49 C 102.91 143.45 105.78 142.54 106.90 139.78 C 109.87 133.25 108.79 124.61 103.65 119.44 C 102.09 118.42 100.00 116.07 98.21 118.22 C 99.09 117.35 99.98 116.48 100.85 115.59 C 101.89 115.96 102.93 116.34 103.97 116.71 C 106.08 119.14 108.13 121.64 109.31 124.68 C 109.01 119.52 110.93 113.41 116.08 111.27 C 112.74 110.82 109.59 109.55 106.68 107.91 C 109.14 107.87 111.62 107.98 114.04 108.49 C 112.32 105.46 110.09 102.61 109.34 99.13 C 108.45 94.93 107.97 90.66 107.71 86.38 C 105.18 81.59 104.32 76.25 103.97 70.91 C 96.66 71.71 89.36 72.71 82.05 73.52 C 83.61 79.51 85.45 85.56 85.21 91.82 C 88.11 94.80 88.94 98.98 90.24 102.78 C 91.51 108.50 88.96 114.77 91.84 120.20 C 93.85 124.62 99.01 125.77 102.32 128.94 C 102.34 129.35 102.39 130.15 102.42 130.56 C 101.82 130.57 100.64 130.59 100.05 130.60 C 100.68 132.75 101.14 134.95 101.43 137.18 C 98.18 138.07 94.95 139.05 91.67 139.85 C 92.75 136.37 96.88 136.40 99.57 134.79 C 99.09 132.62 98.73 130.43 98.72 128.20 C 95.94 126.10 92.00 125.06 90.55 121.62 C 89.27 118.91 87.68 116.13 87.81 113.03 C 87.52 108.85 88.80 104.50 87.25 100.46 C 86.41 98.06 85.70 95.57 84.14 93.52 C 83.55 96.44 84.53 99.60 83.08 102.32 C 82.58 100.40 82.24 98.44 81.92 96.48 C 78.45 96.90 77.01 92.96 74.26 91.56 C 73.96 88.52 73.46 85.50 72.59 82.56 C 74.35 84.68 75.14 87.33 75.65 89.99 C 77.84 91.96 79.98 93.99 81.98 96.15 C 84.08 90.83 81.36 85.55 81.34 80.17 C 80.35 76.99 79.43 73.67 77.17 71.12 C 75.48 72.46 73.94 74.42 71.52 74.27 C 73.09 71.47 75.64 69.34 78.66 68.26 C 79.39 66.32 79.94 64.31 79.62 62.23 C 80.07 61.52 80.53 60.83 81.00 60.14 C 82.44 64.10 81.01 68.00 79.78 71.76 C 83.84 71.35 87.86 70.68 91.87 69.99 C 97.80 69.15 103.93 69.20 109.56 66.88 L 105.86 65.60 C 107.44 65.96 109.01 66.34 110.58 66.74 L 110.46 64.78 C 111.09 65.54 111.89 66.04 112.85 66.28 C 114.12 66.75 115.36 67.31 116.57 67.94 C 115.74 64.39 115.99 60.39 113.76 57.31 C 112.79 55.58 110.84 54.90 109.33 53.77 C 107.06 52.41 105.97 49.78 103.79 48.32 C 102.17 47.51 100.35 47.23 98.62 46.78 C 98.45 47.29 98.13 48.30 97.97 48.81 C 96.99 49.71 95.86 50.58 95.85 52.05 C 95.40 54.99 94.00 57.63 92.38 60.07 C 92.51 57.15 93.21 54.31 93.75 51.45 C 89.56 52.50 84.77 51.42 81.95 48.01 C 80.48 45.95 79.46 43.59 77.80 41.66 C 77.81 45.63 78.45 50.57 74.37 52.87 C 74.79 51.36 75.26 49.86 75.75 48.36 C 68.17 51.36 63.47 58.30 59.32 64.94 C 59.36 68.26 58.48 71.49 57.31 74.58 C 58.82 74.19 60.33 73.85 61.80 73.34 C 61.55 72.34 61.03 70.36 60.78 69.37 C 64.29 71.85 65.60 76.48 66.14 80.56 C 66.77 86.63 72.46 90.78 72.70 96.94 C 73.14 100.89 75.57 104.21 76.45 108.05 C 77.35 112.47 79.14 116.63 81.17 120.63 C 82.34 122.26 83.38 120.76 84.36 120.19 C 83.70 118.66 83.08 117.12 82.50 115.57 C 83.14 115.82 84.42 116.31 85.06 116.56 C 85.56 118.39 86.11 120.20 86.65 122.01 C 86.08 121.93 84.94 121.77 84.36 121.69 C 90.79 127.20 91.42 136.92 89.32 144.61 C 89.56 153.79 89.37 163.03 88.91 172.21 L 87.48 173.17 C 87.74 165.17 87.07 157.09 88.28 149.14 C 87.93 148.64 87.58 148.14 87.22 147.65 C 86.24 148.82 85.11 149.86 83.85 150.71 C 82.61 153.58 81.33 156.45 80.62 159.52 C 79.05 164.58 81.05 169.91 79.92 175.03 C 79.09 178.36 77.30 181.44 77.10 184.93 C 76.74 190.39 76.21 196.26 78.65 201.36 C 81.03 205.23 83.03 209.41 86.25 212.69 C 87.73 214.72 90.08 216.79 89.43 219.59 C 89.27 221.69 86.79 221.78 85.21 222.02 C 80.31 225.93 72.07 224.46 68.78 219.11 C 68.17 215.94 67.39 212.83 66.01 209.90 C 65.56 207.20 65.27 204.48 64.52 201.84 C 64.65 198.25 65.45 194.67 65.04 191.07 C 64.34 185.28 61.79 179.82 61.48 173.98 C 62.12 166.73 66.67 160.35 66.24 152.93 C 67.32 148.13 65.55 143.36 63.18 139.25 C 61.57 138.92 59.65 138.72 58.81 137.06 C 58.68 135.72 58.91 134.38 59.00 133.06 C 57.15 133.84 55.07 134.97 53.05 134.01 C 50.81 132.19 49.32 129.61 46.96 127.91 C 44.51 126.10 41.73 124.24 40.92 121.10 C 40.44 117.97 40.01 114.05 42.95 111.94 C 45.61 110.50 48.65 109.90 51.37 108.57 C 50.87 105.61 50.28 102.38 51.87 99.63 C 53.38 97.25 51.72 94.11 53.76 91.95 C 54.00 87.70 51.61 83.29 53.48 79.19 C 54.08 77.52 55.62 76.50 56.80 75.27 C 55.48 71.54 57.13 67.51 58.00 63.83 C 61.02 58.78 63.87 53.30 68.77 49.80 C 71.00 48.32 73.60 47.61 76.05 46.61 C 76.38 43.34 74.34 40.77 73.23 37.90 C 72.00 32.32 70.40 25.45 74.90 20.83 M 75.45 23.36 C 72.77 27.15 74.59 31.77 74.60 35.98 C 76.09 38.82 78.79 40.62 82.01 40.79 C 81.58 41.49 81.14 42.18 80.70 42.87 C 82.65 46.20 85.81 49.33 89.88 49.54 C 92.92 49.81 96.97 48.46 97.28 44.91 C 97.65 39.65 97.64 34.26 96.32 29.12 C 95.37 26.00 94.40 22.31 91.18 20.78 C 86.05 18.73 79.30 18.89 75.45 23.36 M 105.29 69.35 C 107.58 73.77 106.79 78.90 108.52 83.49 C 110.19 87.80 111.41 92.31 111.84 96.93 C 112.11 102.17 115.66 106.33 117.38 111.11 C 119.52 111.52 121.66 113.01 123.83 111.88 C 124.09 112.23 124.62 112.93 124.89 113.28 C 124.48 113.55 123.66 114.09 123.26 114.37 C 123.80 115.14 124.58 115.69 125.39 116.15 C 126.73 120.34 126.60 124.80 127.96 128.98 C 127.83 129.90 127.58 131.72 127.45 132.63 C 130.44 131.58 133.63 130.98 136.42 129.43 C 136.55 128.64 136.82 127.06 136.95 126.27 C 136.19 126.26 134.67 126.23 133.90 126.21 C 134.60 125.90 135.29 125.60 135.99 125.30 C 136.62 124.71 137.89 123.55 138.52 122.96 C 135.62 119.92 130.60 119.46 128.87 115.25 C 125.89 110.38 126.82 104.57 125.58 99.23 C 124.28 95.51 123.42 91.22 119.79 89.02 C 119.55 90.74 119.32 92.47 119.10 94.20 C 116.89 91.48 114.30 89.10 111.39 87.17 C 113.77 85.01 115.59 89.32 117.44 90.30 C 118.50 87.33 119.85 84.25 119.16 81.03 C 118.78 76.43 117.88 70.93 113.75 68.18 C 112.49 68.22 111.17 68.70 110.04 67.86 C 108.27 66.44 106.73 68.47 105.29 69.35 M 57.42 75.24 C 57.56 75.92 57.81 76.57 58.17 77.19 C 53.65 79.19 54.66 84.75 55.55 88.61 C 57.96 96.99 61.73 104.93 65.80 112.62 C 68.88 112.89 71.96 112.90 75.04 112.68 C 73.96 105.70 70.09 99.57 69.24 92.56 C 65.47 86.76 65.69 79.47 61.94 73.66 C 61.61 74.32 60.94 75.64 60.60 76.30 C 59.54 75.96 58.57 75.12 57.42 75.24 M 55.13 96.52 C 53.16 101.38 52.86 106.63 53.49 111.79 C 55.36 114.43 57.26 117.08 58.92 119.86 C 59.25 123.32 59.20 126.88 60.61 130.13 C 61.77 128.50 62.69 126.69 63.99 125.17 C 66.91 122.73 70.93 122.57 74.56 122.58 C 76.08 121.75 77.66 121.03 79.25 120.32 C 78.21 118.20 77.11 116.10 75.69 114.21 C 75.66 113.73 75.62 112.75 75.60 112.26 C 75.12 113.19 74.72 114.14 74.21 115.05 C 71.83 115.54 69.39 115.52 66.97 115.56 C 60.31 111.25 58.86 103.00 55.13 96.52 M 131.84 113.37 L 134.04 114.44 C 133.26 114.17 131.69 113.62 130.91 113.34 C 131.03 114.32 131.28 116.27 131.41 117.25 C 134.14 117.58 136.72 118.53 139.05 119.98 C 138.84 123.39 138.63 126.81 138.20 130.21 C 137.45 131.39 136.14 132.52 136.87 134.07 C 138.94 134.67 141.51 134.89 143.02 133.02 C 147.06 128.24 146.63 121.15 144.58 115.60 C 143.35 112.06 140.39 109.67 137.12 108.09 C 135.08 109.55 133.27 111.30 131.84 113.37 M 42.42 115.97 C 41.95 119.30 43.20 122.97 46.14 124.81 C 49.54 126.95 51.93 130.22 54.93 132.83 C 56.06 132.20 57.17 131.54 58.26 130.85 C 57.68 127.25 56.82 123.69 56.77 120.02 C 53.98 117.76 52.95 114.08 51.16 111.09 C 48.02 112.14 43.80 112.41 42.42 115.97 M 114.41 114.32 C 111.43 116.94 111.12 121.22 111.20 124.93 C 111.16 129.59 112.47 134.56 115.94 137.86 C 117.97 139.89 121.65 139.89 123.48 137.58 C 126.45 134.07 126.01 129.26 126.32 124.98 C 125.46 120.77 123.52 116.43 119.88 113.92 C 118.24 112.69 115.82 112.77 114.41 114.32 M 74.27 127.52 C 72.55 134.66 73.78 143.34 79.95 148.07 C 81.93 147.97 84.29 148.38 85.67 146.58 C 88.87 142.94 88.78 137.63 88.22 133.08 C 87.60 127.83 84.34 122.80 79.15 121.14 C 77.03 122.83 74.85 124.72 74.27 127.52 M 66.35 126.20 C 64.32 127.98 62.99 130.38 61.58 132.64 C 65.55 137.58 68.71 143.47 68.41 149.98 C 66.92 156.18 70.04 162.17 71.54 168.07 C 68.22 167.62 68.69 163.00 66.94 160.87 C 65.80 163.86 64.66 166.86 64.01 170.00 C 61.68 179.14 68.16 187.70 67.13 196.85 C 66.86 198.56 66.39 200.25 66.25 201.99 C 67.50 207.68 70.53 212.82 71.40 218.61 C 74.12 222.56 80.28 223.10 83.81 219.92 C 83.27 219.57 82.21 218.87 81.67 218.52 C 78.77 219.16 75.83 218.96 72.92 218.53 C 73.07 218.07 73.38 217.13 73.53 216.66 C 76.02 217.16 78.53 217.07 81.00 216.52 C 83.37 215.80 84.13 218.79 85.33 220.15 C 86.39 219.74 87.44 219.33 88.49 218.91 C 86.33 215.63 83.58 212.81 81.31 209.64 C 79.12 205.47 75.93 201.68 75.15 196.92 C 74.10 192.46 74.18 187.82 74.86 183.31 C 75.40 180.39 77.01 177.79 77.66 174.90 C 78.14 171.84 77.96 168.73 77.77 165.65 C 74.73 169.68 76.11 175.03 73.98 179.40 C 71.93 174.78 73.67 169.30 76.02 165.08 C 79.09 160.67 78.93 154.93 82.07 150.54 C 78.45 149.95 75.61 147.19 74.08 143.98 C 70.95 138.18 71.38 131.13 73.37 125.04 C 71.04 125.35 68.46 125.00 66.35 126.20 M 127.29 134.52 C 126.25 136.69 125.02 138.77 123.54 140.67 C 123.37 142.05 123.18 143.43 122.97 144.82 C 121.38 145.69 120.34 148.40 123.18 147.65 C 123.55 150.37 123.75 153.14 124.35 155.83 C 125.35 158.56 127.40 160.91 127.70 163.90 C 128.13 167.53 127.91 171.21 127.87 174.86 C 126.33 178.82 126.27 183.12 125.93 187.30 C 129.65 191.01 135.36 187.00 139.68 189.38 C 143.10 191.24 147.07 191.58 150.89 191.65 C 152.69 191.01 155.32 189.56 154.86 187.27 C 152.21 185.69 148.70 186.06 146.44 183.70 C 142.98 180.43 140.27 176.43 136.44 173.53 C 133.10 161.65 136.00 149.15 133.81 137.11 C 133.26 135.21 135.65 135.30 136.84 135.01 C 136.72 134.12 136.47 132.33 136.35 131.43 C 133.83 133.65 130.74 135.26 127.29 134.52 Z" />
<path fill="#333333" opacity="1.00" d=" M 78.60 51.43 C 79.94 51.83 81.28 52.20 82.63 52.56 C 83.74 54.28 84.77 56.08 84.99 58.17 C 83.54 56.52 82.42 54.62 81.31 52.74 C 81.35 54.60 81.40 56.46 81.46 58.32 C 80.53 59.13 79.61 59.95 78.67 60.74 C 78.08 57.65 78.82 54.54 78.60 51.43 Z" />
<path fill="#333333" opacity="1.00" d=" M 97.94 51.12 C 99.66 52.46 99.94 54.58 100.32 56.56 C 101.75 55.55 105.37 51.67 106.02 54.99 C 103.36 56.60 101.13 58.67 100.88 61.96 C 100.23 61.82 98.93 61.54 98.29 61.41 C 96.87 62.93 95.62 65.36 93.14 64.89 C 92.77 62.32 95.43 61.07 97.09 59.70 C 98.09 59.70 99.10 59.69 100.11 59.67 C 99.69 58.26 98.92 57.02 97.97 55.91 C 97.92 54.31 97.91 52.72 97.94 51.12 Z" />
<path fill="#333333" opacity="1.00" d=" M 67.79 61.12 C 68.84 59.48 70.62 59.41 72.39 59.58 C 72.45 60.11 72.57 61.16 72.64 61.68 C 71.02 61.51 69.40 61.32 67.79 61.12 Z" />
<path fill="#333333" opacity="1.00" d=" M 81.25 59.99 C 85.77 60.39 90.93 62.83 91.59 67.83 C 89.99 66.51 88.58 64.98 86.91 63.74 C 84.88 62.69 82.42 62.20 81.25 59.99 Z" />
<path fill="#333333" opacity="1.00" d=" M 101.37 106.32 C 104.99 105.86 109.11 103.12 112.35 105.84 C 109.26 106.61 106.12 107.25 102.93 107.41 C 104.34 107.70 105.75 108.01 107.16 108.34 C 105.08 109.01 102.64 109.34 101.12 111.10 C 99.31 113.22 97.72 115.64 95.12 116.91 C 95.84 113.34 98.62 110.79 100.92 108.17 C 97.94 109.21 94.87 109.95 91.76 110.46 C 93.49 106.85 98.12 107.50 101.37 106.32 Z" />
<path fill="#333333" opacity="1.00" d=" M 94.97 117.58 C 96.56 116.63 98.35 117.06 98.36 119.14 C 95.75 117.91 96.05 121.58 94.19 121.94 C 93.73 120.41 94.56 119.00 94.97 117.58 Z" />
<path fill="#333333" opacity="1.00" d=" M 92.31 130.41 C 93.51 130.90 94.33 131.81 94.69 133.05 C 94.21 133.20 93.24 133.51 92.76 133.67 C 92.64 132.85 92.42 131.22 92.31 130.41 Z" />
<path fill="#333333" opacity="1.00" d=" M 73.99 153.85 C 75.77 153.57 77.74 153.37 79.03 154.99 C 77.01 156.19 75.19 155.85 73.99 153.85 Z" />
<path fill="#333333" opacity="1.00" d=" M 130.76 183.84 C 128.97 181.82 127.35 177.79 130.13 175.93 C 130.31 178.57 130.59 181.20 130.76 183.84 Z" />
<path fill="#333333" opacity="1.00" d=" M 68.29 203.13 C 69.92 200.68 70.49 196.75 73.83 196.12 C 72.38 198.62 71.95 203.31 68.29 203.13 Z" />
</g>
</svg>
