<?xml version="1.0" encoding="UTF-8" ?>
<!DOCTYPE svg PUBLIC "-//W3C//DTD SVG 1.1//EN" "http://www.w3.org/Graphics/SVG/1.1/DTD/svg11.dtd">
<svg width="317pt" height="250pt" viewBox="0 0 317 250" version="1.1" xmlns="http://www.w3.org/2000/svg"><g id="#40413eff">
<path fill="#333333" opacity="1.00" d=" M 281.46 76.66 C 285.14 75.41 288.92 73.21 292.93 74.46 C 295.96 75.35 300.05 74.78 301.71 78.09 C 297.80 77.56 293.94 76.65 290.03 76.15 C 287.49 76.20 285.33 77.88 282.90 78.47 C 278.88 79.95 274.42 78.16 270.45 79.26 C 265.46 81.34 267.15 87.57 267.09 91.81 C 263.73 102.22 251.22 104.00 244.89 111.91 C 241.24 115.71 241.57 121.99 237.11 125.15 C 238.64 116.86 243.05 108.95 250.51 104.64 C 256.08 101.52 261.20 97.55 265.54 92.84 C 264.41 89.01 264.26 84.72 265.97 81.05 C 267.48 79.14 269.66 77.82 271.93 77.01 C 275.10 76.85 278.38 77.79 281.46 76.66 Z" />
<path fill="#333333" opacity="1.00" d=" M 290.98 79.91 C 296.46 79.15 302.07 77.62 307.58 79.14 C 306.23 81.48 303.28 80.41 301.11 80.83 C 297.60 80.75 294.28 81.95 290.86 82.47 C 285.90 82.40 280.26 81.37 276.20 85.01 C 276.17 85.83 276.15 86.65 276.13 87.47 C 276.35 90.41 276.75 93.37 276.55 96.32 C 276.19 96.65 275.47 97.31 275.11 97.64 C 274.03 92.93 272.82 87.24 275.99 83.07 C 279.95 79.06 285.91 80.14 290.98 79.91 Z" />
<path fill="#333333" opacity="1.00" d=" M 308.77 79.17 C 310.49 80.73 310.23 83.10 308.99 84.85 C 307.15 88.47 302.45 88.84 300.15 91.99 C 298.23 94.44 296.19 96.83 293.58 98.58 C 290.72 100.25 289.91 103.65 288.47 106.41 C 286.49 111.06 283.02 114.96 281.60 119.86 C 278.89 128.47 274.76 136.86 268.35 143.33 C 264.60 147.11 262.11 151.87 259.03 156.18 C 255.53 157.54 251.89 158.97 248.05 158.46 C 242.90 158.40 238.25 156.11 233.58 154.24 C 230.77 152.79 227.53 154.40 224.66 153.24 C 219.57 151.23 214.60 148.88 209.94 146.00 C 207.13 144.34 203.87 145.87 200.91 146.14 C 198.12 146.72 195.59 145.14 193.28 143.82 C 193.00 143.35 192.45 142.41 192.18 141.94 C 186.48 142.60 180.08 141.70 175.53 145.95 C 170.42 145.00 165.30 144.12 160.16 143.29 C 156.23 146.16 151.38 145.33 147.03 144.03 C 144.72 147.64 142.50 151.39 139.46 154.46 C 136.87 157.06 133.13 157.99 130.31 160.27 C 127.88 162.51 125.96 165.31 123.10 167.05 C 118.38 169.84 115.35 174.67 110.65 177.49 C 106.45 180.05 101.70 181.41 97.05 182.89 C 93.29 184.05 90.21 186.59 86.95 188.69 C 87.56 189.47 88.18 190.25 88.79 191.03 C 87.34 192.61 85.83 194.14 84.29 195.63 C 86.16 199.43 87.88 203.32 90.32 206.79 C 89.83 207.56 89.35 208.32 88.86 209.08 C 85.45 204.02 83.64 198.06 80.02 193.15 C 79.02 193.51 78.06 193.96 77.10 194.41 C 79.90 200.16 83.04 205.76 85.55 211.65 C 88.10 209.88 90.71 208.17 93.46 206.74 C 98.32 204.42 103.98 205.57 108.74 207.56 C 116.20 211.34 122.63 217.74 124.94 225.95 C 127.10 233.73 127.38 242.38 124.43 250.00 L 123.55 250.00 C 122.95 244.94 124.79 240.02 124.45 234.97 C 124.20 226.22 120.45 216.91 112.49 212.49 C 106.98 207.83 98.68 206.92 92.32 210.32 C 87.93 212.27 84.81 216.16 82.34 220.15 C 77.27 229.09 75.81 240.13 78.84 250.00 L 76.19 250.00 C 74.79 244.44 74.22 238.60 75.15 232.91 C 75.92 227.45 78.36 222.45 80.19 217.31 C 81.56 215.89 82.92 214.45 84.29 213.03 C 81.13 208.11 78.79 202.73 76.21 197.49 C 75.26 195.74 75.71 193.70 75.63 191.81 C 77.07 191.37 78.50 190.87 79.98 190.60 C 81.54 191.16 82.66 192.45 83.93 193.45 C 84.96 192.28 85.98 191.11 86.99 189.93 C 86.81 189.05 86.62 188.16 86.44 187.28 C 89.71 184.91 93.04 182.48 96.89 181.13 C 100.79 179.74 104.82 178.53 108.30 176.24 C 113.18 173.26 116.53 168.39 121.52 165.57 C 120.33 164.61 119.17 163.62 118.05 162.60 C 119.92 162.97 121.77 163.45 123.59 164.02 C 125.84 161.74 127.95 159.21 130.82 157.67 C 133.52 156.19 136.52 155.03 138.57 152.62 C 143.56 146.74 147.05 139.81 150.34 132.89 C 149.93 132.52 149.52 132.16 149.10 131.80 C 146.60 133.91 143.70 135.46 140.62 136.56 C 143.66 132.78 148.67 131.51 151.91 127.96 C 153.28 126.42 154.40 124.68 155.56 122.98 C 155.88 123.20 156.50 123.62 156.81 123.84 C 155.27 126.16 153.57 128.39 151.59 130.35 C 151.84 131.60 152.10 132.84 152.35 134.09 C 154.23 132.49 156.41 131.08 157.67 128.89 C 158.75 127.31 159.47 125.37 161.22 124.37 C 161.63 130.09 155.88 133.40 151.68 135.99 C 155.64 136.00 159.91 136.50 163.57 134.63 C 168.32 132.33 171.56 127.97 175.92 125.11 C 175.40 128.12 172.69 129.76 171.02 132.07 C 165.54 137.61 157.23 139.45 149.72 138.02 C 149.16 139.49 148.62 140.97 148.08 142.44 C 152.44 143.75 157.07 143.72 161.00 141.20 C 161.97 141.56 162.94 141.92 163.91 142.28 C 167.77 141.50 171.37 143.18 175.06 143.88 C 178.82 143.11 181.25 139.77 184.19 137.58 C 183.50 139.00 182.79 140.43 182.06 141.84 C 186.07 139.54 191.34 140.62 194.89 137.54 C 196.81 134.08 198.02 130.04 197.41 126.06 C 197.04 121.71 196.07 116.88 192.35 114.10 C 190.29 114.30 188.25 114.97 186.16 114.82 C 183.97 114.34 182.12 113.00 180.34 111.72 C 184.16 112.39 187.96 113.61 191.89 112.84 C 190.18 111.30 188.54 109.43 186.26 108.76 C 184.03 108.49 181.69 109.25 179.55 108.35 C 175.70 106.71 172.23 104.31 168.47 102.50 C 165.08 100.77 161.20 100.51 157.65 99.25 C 152.90 97.67 148.13 95.15 142.97 96.07 C 139.89 96.65 136.95 95.43 133.98 94.85 C 131.39 94.24 128.82 95.34 126.31 95.81 C 126.95 96.46 127.60 97.10 128.25 97.75 C 127.10 98.31 125.95 98.86 124.79 99.40 L 126.91 97.42 C 125.36 97.23 123.79 97.11 122.23 97.09 C 124.17 101.42 129.32 100.33 133.06 101.50 C 129.41 103.82 124.08 102.92 121.37 99.56 C 116.58 94.70 107.10 93.84 102.73 99.74 C 99.82 103.56 97.19 108.06 97.03 112.98 C 97.67 117.77 99.93 122.35 103.06 126.02 C 105.98 128.51 109.22 130.67 112.62 132.45 C 115.24 133.87 118.61 133.39 120.85 135.60 C 114.15 136.41 108.46 132.52 103.21 128.97 C 101.54 131.58 100.02 134.45 97.37 136.22 C 94.38 138.26 91.71 141.09 88.03 141.82 C 81.85 143.11 75.95 145.78 70.98 149.67 C 71.03 151.13 71.02 152.58 70.95 154.04 C 69.63 155.92 67.87 157.44 66.28 159.09 C 68.89 164.97 71.83 170.69 74.79 176.40 C 73.74 176.30 72.68 176.20 71.63 176.09 C 68.58 168.44 64.62 161.18 61.31 153.63 C 58.91 154.76 57.31 156.86 55.61 158.80 C 55.37 154.65 58.95 152.58 62.48 152.07 C 63.58 153.95 64.61 155.88 65.57 157.84 C 66.57 156.52 67.58 155.21 68.62 153.91 C 68.91 150.64 69.63 145.99 73.57 145.37 C 77.13 143.83 80.47 141.76 84.19 140.60 C 90.47 139.41 96.01 135.45 99.95 130.53 C 97.97 130.10 95.95 129.90 93.94 129.65 C 95.87 128.94 97.81 128.24 99.74 127.51 C 99.84 128.08 100.05 129.21 100.15 129.78 L 101.56 127.97 C 97.67 122.52 92.98 115.62 95.68 108.69 C 97.62 103.08 100.77 97.35 106.10 94.37 C 111.26 91.64 117.30 93.73 121.83 96.74 C 124.90 95.55 127.92 94.16 131.13 93.38 C 134.50 92.59 137.67 94.48 140.99 94.65 C 143.66 94.63 146.32 93.95 148.99 94.40 C 154.24 95.20 158.70 98.51 164.00 99.20 C 172.00 100.34 177.66 107.89 186.06 107.59 C 190.01 108.38 192.64 104.72 196.13 103.66 C 202.60 100.74 210.87 101.98 215.82 107.18 C 219.41 110.85 223.38 114.15 226.62 118.15 C 229.31 121.37 232.68 124.10 236.81 125.16 C 238.29 125.70 242.04 126.98 239.88 128.86 C 237.40 128.94 235.42 126.76 233.08 126.04 C 227.99 124.07 225.12 119.20 221.47 115.46 C 218.47 112.24 213.98 111.32 209.86 110.43 C 211.52 110.26 213.18 110.07 214.84 109.88 C 211.16 106.89 207.02 103.50 201.97 103.82 C 197.79 104.66 193.98 106.68 190.09 108.36 C 196.39 112.60 199.96 120.41 199.71 127.92 C 199.66 132.65 196.97 136.70 194.30 140.40 C 195.29 140.25 197.26 139.95 198.25 139.80 C 198.36 140.21 198.58 141.04 198.70 141.46 C 197.19 141.68 195.66 141.83 194.19 142.23 C 194.23 142.42 194.30 142.81 194.34 143.00 C 200.14 146.75 207.42 141.32 213.27 144.77 C 217.61 148.43 223.06 150.18 228.12 152.56 C 234.31 147.55 238.32 140.47 240.96 133.07 C 240.54 132.16 239.71 130.36 239.29 129.46 C 243.58 129.45 247.12 131.86 250.34 134.40 C 253.26 129.06 254.90 122.84 259.42 118.52 C 262.81 114.21 267.67 111.30 270.69 106.68 C 273.05 103.44 274.70 99.67 277.71 96.92 C 276.88 100.81 274.96 104.38 272.72 107.64 C 268.84 112.75 262.93 115.99 259.44 121.43 C 256.70 125.92 254.39 130.66 251.97 135.33 C 253.36 136.47 254.73 137.64 256.15 138.76 C 258.26 140.87 261.50 140.08 264.15 140.71 C 263.10 141.58 262.01 142.38 260.87 143.11 C 257.36 143.52 254.56 141.06 252.09 138.95 C 248.75 136.40 245.55 133.68 242.42 130.88 C 241.86 138.84 237.62 145.78 232.36 151.54 C 238.66 155.11 246.06 155.32 253.10 155.87 C 258.79 154.42 261.26 148.76 264.68 144.62 C 270.74 138.00 276.31 130.54 278.83 121.80 C 281.07 113.66 287.11 107.26 289.57 99.20 C 292.56 96.97 295.01 94.16 297.54 91.46 C 299.66 89.11 302.58 87.79 305.10 85.96 C 307.40 84.45 307.72 81.48 308.77 79.17 Z" />
<path fill="#333333" opacity="1.00" d=" M 23.07 81.42 C 24.31 81.29 25.55 81.30 26.80 81.45 C 27.26 82.38 27.72 83.31 28.18 84.24 C 33.40 81.05 40.19 81.06 45.26 84.54 C 48.65 87.55 53.15 89.56 55.22 93.83 C 60.45 103.39 59.79 115.61 54.71 125.10 C 54.30 126.49 53.09 127.19 51.78 127.61 C 52.90 123.16 56.04 119.41 56.29 114.72 C 57.69 106.36 56.89 96.96 50.87 90.47 C 47.34 85.37 40.75 83.94 34.91 84.37 C 28.93 85.44 24.12 89.83 21.41 95.12 C 17.49 102.89 16.39 112.33 19.65 120.53 C 21.20 124.24 22.95 128.34 26.68 130.34 C 31.38 133.16 36.92 134.40 42.35 133.50 C 42.77 133.89 43.63 134.68 44.06 135.07 C 37.34 137.66 29.47 135.57 24.51 130.49 C 16.30 124.02 14.27 112.38 16.33 102.61 C 17.83 97.37 19.42 91.60 23.98 88.14 C 24.92 87.10 25.92 86.12 26.91 85.14 C 26.49 84.73 26.07 84.32 25.65 83.91 C 24.73 83.39 22.51 83.01 23.07 81.42 Z" />
<path fill="#333333" opacity="1.00" d=" M 21.97 88.83 C 21.92 87.22 18.57 83.74 21.08 82.93 C 22.48 83.69 22.53 85.62 23.38 86.83 C 22.92 87.50 22.45 88.17 21.97 88.83 Z" />
<path fill="#333333" opacity="1.00" d=" M 264.87 102.07 C 265.76 99.34 267.52 96.92 270.15 95.65 C 268.78 98.08 266.90 100.18 264.87 102.07 Z" />
<path fill="#333333" opacity="1.00" d=" M 132.67 105.08 C 135.06 102.52 138.29 100.16 141.99 100.59 C 149.04 100.81 157.73 99.07 162.86 105.25 C 159.54 105.52 157.06 102.88 153.89 102.50 C 149.53 101.94 145.12 102.08 140.74 101.90 C 137.82 102.21 135.39 104.12 132.67 105.08 Z" />
<path fill="#333333" opacity="1.00" d=" M 166.20 106.49 C 171.32 109.23 178.38 109.25 181.42 114.93 C 181.78 115.01 182.49 115.17 182.85 115.25 C 181.65 115.68 180.48 116.15 179.31 116.64 C 181.52 118.36 183.09 120.76 183.44 123.56 C 180.51 121.43 179.15 117.82 178.79 114.32 C 174.96 111.06 169.44 110.48 166.20 106.49 Z" />
<path fill="#333333" opacity="1.00" d=" M 34.90 112.99 C 34.01 109.49 38.15 108.46 40.70 107.96 C 46.30 119.08 51.81 130.25 57.42 141.37 C 59.23 141.55 61.04 141.81 62.85 142.09 C 66.00 138.59 71.34 138.11 73.95 134.02 C 76.11 130.52 79.93 128.68 82.42 125.49 C 84.37 123.07 86.78 120.96 89.70 119.81 C 91.57 119.06 93.83 118.20 95.67 119.51 C 91.88 121.26 87.33 122.04 84.58 125.46 C 83.10 127.38 81.61 129.33 79.56 130.68 C 76.77 132.56 75.30 135.74 72.70 137.82 C 70.08 139.93 66.67 140.78 64.14 143.03 C 64.31 144.51 64.62 145.96 64.82 147.43 C 63.47 146.64 62.44 145.48 61.58 144.20 C 59.74 143.73 57.88 143.34 56.01 143.03 C 52.43 135.92 48.91 128.78 45.36 121.66 C 43.26 117.76 41.85 113.49 39.24 109.87 C 38.56 110.36 37.20 111.35 36.51 111.84 C 41.55 122.74 46.96 133.47 52.48 144.12 C 51.28 146.00 49.92 147.81 49.18 149.93 C 50.20 153.12 52.23 155.92 53.82 158.86 C 55.18 159.10 56.54 159.39 57.89 159.74 C 57.38 161.48 54.55 162.02 53.48 160.52 C 50.45 157.74 49.30 153.64 47.05 150.30 C 48.06 148.40 49.18 146.56 50.43 144.81 C 45.11 134.28 39.80 123.72 34.90 112.99 Z" />
<path fill="#333333" opacity="1.00" d=" M 125.83 108.23 C 128.19 108.96 130.40 110.09 132.49 111.40 C 132.91 111.06 133.76 110.38 134.18 110.05 C 134.57 114.08 134.91 118.14 136.69 121.85 C 139.42 121.26 142.22 120.87 144.97 121.59 C 147.64 122.32 149.70 119.88 152.14 119.22 C 150.73 121.01 149.16 122.87 147.05 123.83 C 142.58 123.31 138.08 122.27 133.75 124.13 C 134.26 123.59 135.27 122.51 135.77 121.97 C 135.33 121.23 134.44 119.76 133.99 119.03 C 127.77 123.11 126.56 130.81 124.53 137.38 C 125.00 137.66 125.92 138.21 126.38 138.48 C 120.88 141.37 116.42 145.80 113.14 151.04 C 111.40 154.36 107.25 154.63 104.43 156.62 C 100.89 159.36 98.25 163.02 95.53 166.53 C 90.45 170.31 85.68 174.47 81.08 178.83 C 82.63 180.33 84.24 181.76 85.77 183.28 C 84.28 182.96 82.81 182.63 81.35 182.25 C 80.60 181.33 80.34 179.67 78.91 179.56 C 74.53 178.36 70.01 178.59 65.55 179.05 C 65.13 181.80 64.36 184.48 63.40 187.09 C 64.16 187.21 65.68 187.47 66.44 187.60 C 68.43 190.31 69.69 193.49 71.40 196.38 C 73.27 196.54 74.93 197.21 75.93 198.90 C 74.01 198.79 72.09 198.70 70.17 198.65 C 67.54 194.37 64.90 190.09 61.99 185.98 C 62.42 182.56 63.43 178.90 65.57 176.10 C 62.61 171.15 60.90 165.58 57.99 160.62 C 58.04 159.96 58.15 158.64 58.20 157.98 C 61.00 160.15 61.75 163.73 63.32 166.71 C 64.98 169.96 66.74 173.17 67.94 176.63 C 72.24 177.12 76.60 176.79 80.85 177.74 C 83.88 173.78 87.33 170.10 91.52 167.35 C 95.12 165.02 96.71 160.78 99.87 157.98 C 102.72 154.91 106.46 152.88 110.46 151.72 C 113.39 146.39 117.30 141.15 122.94 138.51 C 124.41 133.17 124.41 127.24 127.60 122.50 C 128.99 120.24 131.30 118.84 133.54 117.55 C 133.16 115.90 133.24 114.10 132.47 112.58 C 130.29 111.08 127.82 110.01 125.83 108.23 Z" />
<path fill="#333333" opacity="1.00" d=" M 142.23 113.05 C 143.82 111.14 145.86 109.50 148.12 108.43 C 151.38 108.85 154.61 109.49 157.90 109.67 C 159.48 113.10 157.11 116.69 154.86 119.20 C 155.87 116.25 157.07 113.37 157.65 110.29 C 154.27 110.19 150.54 108.31 147.49 110.53 C 145.96 111.62 144.49 112.83 143.28 114.26 C 143.06 115.85 143.09 117.45 142.99 119.05 C 141.97 117.22 141.33 115.09 142.23 113.05 Z" />
<path fill="#333333" opacity="1.00" d=" M 118.29 112.51 C 122.69 112.63 124.34 117.62 123.77 121.31 C 124.02 122.64 124.25 123.98 124.46 125.31 C 123.56 124.38 122.71 123.41 121.88 122.42 C 122.11 119.80 121.86 117.18 121.03 114.68 C 120.00 114.43 118.98 114.22 117.94 114.04 C 116.74 115.21 115.92 116.70 114.92 118.04 C 115.33 115.90 115.67 112.98 118.29 112.51 Z" />
<path fill="#333333" opacity="1.00" d=" M 250.89 125.78 C 253.06 121.36 256.87 118.10 259.81 114.21 C 259.65 114.99 259.35 116.54 259.19 117.32 C 256.88 120.56 254.09 123.42 250.89 125.78 Z" />
<path fill="#333333" opacity="1.00" d=" M 92.98 129.28 C 93.53 126.62 94.38 124.01 95.86 121.71 C 96.71 124.70 94.89 127.20 92.98 129.28 Z" />
<path fill="#333333" opacity="1.00" d=" M 263.15 136.98 C 266.53 132.61 269.31 127.73 273.34 123.90 C 272.66 126.75 270.67 128.99 269.48 131.62 C 268.34 134.29 265.76 135.95 263.15 136.98 Z" />
<path fill="#333333" opacity="1.00" d=" M 174.19 129.78 C 179.30 129.45 184.10 126.93 189.25 127.23 C 184.34 129.95 178.66 130.95 173.22 131.84 C 173.49 131.13 173.81 130.44 174.19 129.78 Z" />
<path fill="#333333" opacity="1.00" d=" M 127.16 138.93 C 129.91 137.09 133.45 136.18 136.57 137.71 C 138.05 137.87 137.66 139.00 137.17 139.96 C 133.98 138.59 130.56 138.71 127.16 138.93 Z" />
<path fill="#333333" opacity="1.00" d=" M 128.35 145.94 C 131.96 148.00 135.00 144.37 138.11 142.98 C 136.84 145.41 134.73 147.60 131.97 148.17 C 129.29 148.35 126.60 148.24 123.95 148.73 C 121.92 151.63 120.36 154.80 118.81 157.98 C 117.77 159.42 116.31 158.57 115.19 157.74 C 116.16 156.13 118.42 155.74 119.30 154.01 C 120.79 151.42 122.03 148.65 124.21 146.54 C 125.59 146.36 126.97 146.15 128.35 145.94 Z" />
<path fill="#333333" opacity="1.00" d=" M 129.39 157.57 C 130.63 155.40 132.06 153.33 133.74 151.48 C 133.15 154.02 131.91 156.47 129.39 157.57 Z" />
<path fill="#333333" opacity="1.00" d=" M 107.39 158.34 C 109.26 157.21 112.50 156.23 114.15 158.00 C 114.97 160.62 111.30 158.99 109.90 159.53 C 106.96 160.46 104.85 163.22 101.87 164.28 C 102.21 161.31 105.20 159.88 107.39 158.34 Z" />
<path fill="#333333" opacity="1.00" d=" M 104.86 168.25 C 107.88 167.22 110.55 165.41 113.45 164.11 C 111.83 168.72 105.96 169.72 101.70 170.63 C 102.50 169.54 103.51 168.60 104.86 168.25 Z" />
<path fill="#333333" opacity="1.00" d=" M 98.50 240.99 C 99.70 238.80 102.24 237.82 104.62 237.65 C 107.58 241.34 108.78 246.09 111.42 250.00 L 108.80 250.00 C 106.94 246.67 105.48 243.14 103.83 239.71 C 102.70 240.11 101.57 240.52 100.45 240.93 C 101.86 243.98 103.21 247.07 104.86 250.00 L 103.26 250.00 C 101.42 247.15 99.46 244.27 98.50 240.99 Z" />
</g>
</svg>
