<?xml version="1.0" encoding="UTF-8" ?>
<!DOCTYPE svg PUBLIC "-//W3C//DTD SVG 1.1//EN" "http://www.w3.org/Graphics/SVG/1.1/DTD/svg11.dtd">
<svg width="221pt" height="275pt" viewBox="0 0 221 275" version="1.1" xmlns="http://www.w3.org/2000/svg"><g id="#4a4c48ff">
<path fill="#333333" opacity="1.00" d=" M 85.78 31.92 C 88.97 27.45 94.97 26.71 100.04 27.28 C 104.25 27.23 108.36 30.62 108.67 34.90 C 109.14 39.02 111.09 43.00 110.35 47.21 C 109.72 51.32 109.24 55.53 107.65 59.41 C 109.74 59.77 111.84 60.06 113.94 60.36 C 116.23 63.15 119.90 63.80 122.91 65.50 C 123.80 63.61 124.44 61.44 126.16 60.10 C 127.90 58.91 130.05 58.60 132.02 57.92 C 136.34 59.37 140.44 63.16 140.42 67.99 C 140.35 70.43 141.05 72.75 141.98 74.97 C 142.24 80.51 139.44 86.27 134.19 88.59 C 131.48 88.10 128.66 87.32 126.77 85.17 C 123.72 82.35 123.07 78.11 122.17 74.27 C 122.41 78.75 122.88 83.33 121.29 87.66 C 121.83 87.41 122.92 86.93 123.47 86.68 C 121.27 88.29 123.06 90.77 123.23 92.79 C 124.10 95.77 124.29 98.90 123.47 101.93 C 123.88 102.01 124.71 102.17 125.12 102.26 C 125.43 103.35 125.78 104.44 126.15 105.52 C 128.69 106.76 131.04 108.36 133.21 110.17 C 134.31 110.12 135.41 110.06 136.51 110.00 C 138.98 107.28 142.07 105.03 143.75 101.68 C 145.93 97.36 147.82 92.79 148.24 87.93 C 148.70 83.79 150.32 79.94 151.59 76.02 C 151.98 71.08 149.35 66.50 148.66 61.66 C 145.52 61.84 142.67 63.19 139.82 64.40 C 138.98 61.05 142.68 61.73 144.77 61.32 C 145.49 58.83 146.13 56.00 148.41 54.43 C 150.89 52.74 154.52 52.04 157.10 53.93 C 162.25 57.38 163.77 64.07 163.57 69.92 C 163.33 74.33 161.91 79.59 157.45 81.49 C 155.54 82.60 153.30 81.91 151.41 81.14 C 149.98 90.02 148.76 99.54 142.62 106.60 C 140.55 108.44 138.71 110.68 136.21 111.95 C 132.49 112.92 129.82 109.68 126.93 107.99 C 125.63 106.89 123.01 105.94 124.04 103.71 C 123.28 103.81 122.53 103.91 121.78 104.01 C 120.61 109.94 120.97 116.07 122.29 121.93 C 124.15 124.23 125.63 126.74 125.29 129.84 C 128.48 135.04 134.48 137.51 140.07 139.25 C 146.53 140.22 152.17 143.83 157.40 147.53 C 160.27 151.01 165.47 151.12 168.01 154.96 C 170.37 158.86 172.09 163.59 170.97 168.20 C 169.30 164.12 168.75 159.54 166.23 155.80 C 164.16 153.19 160.64 152.71 158.03 150.86 C 151.86 146.75 145.81 141.35 137.98 141.21 C 133.99 140.46 131.69 144.50 129.74 147.25 C 128.47 151.21 128.65 155.52 127.00 159.40 C 131.49 161.32 136.11 163.37 141.02 163.77 C 143.67 164.08 146.85 162.87 149.01 164.97 C 151.67 167.51 155.44 168.45 157.94 171.16 C 157.53 171.52 156.72 172.23 156.31 172.59 C 157.02 178.02 156.29 183.53 157.45 188.92 C 157.54 192.82 160.33 195.81 161.30 199.45 C 162.10 203.68 161.48 208.01 161.88 212.28 C 159.82 216.21 159.84 220.78 159.76 225.11 C 159.63 226.86 161.61 227.51 163.02 227.49 C 167.18 227.87 171.71 226.17 175.56 228.39 C 178.76 230.15 182.53 230.03 186.02 230.76 C 188.17 230.01 190.05 228.70 192.10 227.73 C 191.39 226.80 190.69 225.88 189.97 224.97 C 185.61 224.75 181.58 222.49 179.04 218.95 C 176.69 215.65 173.52 213.10 170.84 210.10 C 170.18 206.08 168.99 202.08 169.32 197.97 C 169.63 193.02 169.56 188.02 168.43 183.17 C 167.26 179.15 168.86 175.07 168.40 171.00 C 168.18 169.67 168.83 167.92 170.43 168.33 C 170.22 173.88 169.72 179.53 171.03 185.00 C 172.01 193.49 170.74 202.28 173.38 210.56 C 177.86 213.07 180.13 218.00 184.46 220.71 C 186.33 222.19 188.92 221.94 190.98 223.02 C 192.42 224.16 193.53 225.64 194.72 227.03 C 192.66 230.05 189.27 231.65 185.94 232.84 C 183.42 232.84 180.93 232.42 178.42 232.22 C 175.78 231.57 173.73 229.25 170.92 229.10 C 167.36 228.87 163.56 230.45 160.19 228.72 C 159.13 228.07 157.55 227.36 157.66 225.88 C 157.91 219.93 159.31 214.11 160.17 208.23 C 154.13 213.66 147.24 218.24 139.47 220.77 C 129.88 223.57 119.82 224.04 109.89 223.50 C 108.14 223.93 107.00 222.44 105.99 221.34 C 107.21 226.37 105.61 231.60 107.02 236.62 C 107.59 240.75 110.36 243.98 112.32 247.51 C 114.47 251.64 118.55 254.49 120.17 258.93 C 120.55 260.46 119.50 261.84 119.11 263.26 C 117.87 263.27 116.64 263.28 115.41 263.30 C 115.03 263.78 114.26 264.74 113.88 265.21 C 108.17 266.41 101.01 265.72 97.73 260.26 C 97.49 256.72 96.42 253.41 94.85 250.25 C 94.54 247.42 94.21 244.60 93.38 241.86 C 93.39 238.89 94.06 235.96 93.95 232.98 C 94.13 227.74 92.34 222.75 91.10 217.74 C 91.74 217.57 92.38 217.46 93.04 217.42 C 94.29 222.91 96.18 228.34 96.23 234.02 C 96.25 236.70 95.35 239.27 95.31 241.94 C 96.48 247.98 99.73 253.44 100.36 259.60 C 101.62 259.99 102.44 259.06 103.07 258.08 C 106.81 258.53 110.71 256.71 114.28 258.23 C 114.39 258.99 114.62 260.49 114.73 261.25 C 116.21 261.07 117.67 260.78 119.10 260.37 C 116.40 255.07 111.64 251.26 109.12 245.85 C 104.08 239.08 103.45 230.15 104.51 222.04 C 104.86 218.41 107.01 215.31 107.79 211.80 C 108.21 208.66 107.96 205.47 107.74 202.32 C 103.89 206.52 106.38 212.86 103.27 217.23 C 102.14 211.47 103.43 205.45 106.50 200.49 C 108.96 196.70 108.88 191.91 111.26 188.08 C 112.33 186.48 111.89 184.60 111.48 182.88 C 111.79 180.96 111.92 179.02 111.98 177.08 C 110.96 176.21 109.93 175.34 108.90 174.48 L 109.84 173.95 C 108.75 173.90 107.67 173.86 106.58 173.84 C 105.43 175.95 103.45 177.37 101.30 178.32 C 102.20 175.91 104.43 174.40 106.23 172.68 C 106.83 172.83 108.02 173.15 108.62 173.31 C 113.40 173.31 113.99 178.86 113.63 182.52 C 114.70 178.99 114.61 175.25 114.13 171.63 C 113.29 166.94 110.25 163.09 107.79 159.14 C 105.10 158.96 102.43 158.63 99.79 158.12 C 95.76 159.87 92.19 162.82 90.20 166.79 C 91.11 169.35 91.61 172.28 93.95 173.98 C 97.34 176.26 96.54 180.81 97.73 184.26 C 95.85 191.25 98.71 198.27 100.74 204.89 C 97.19 204.67 97.88 199.56 96.27 197.24 C 93.55 202.84 91.84 209.07 92.36 215.30 C 91.93 215.57 91.07 216.10 90.64 216.37 C 90.35 209.38 91.76 202.40 94.69 196.06 C 95.39 189.63 97.17 182.43 93.26 176.63 C 91.00 174.12 89.46 171.12 87.64 168.31 C 87.17 165.49 85.83 162.94 83.38 161.36 C 83.82 161.19 84.69 160.84 85.13 160.67 C 84.34 159.80 83.53 158.95 82.74 158.10 C 82.94 154.75 82.48 151.43 82.25 148.10 C 79.12 149.91 76.05 151.95 73.97 154.98 C 70.93 159.21 66.74 162.81 65.18 167.94 C 63.84 172.53 61.88 177.08 62.09 181.95 C 61.67 188.34 65.42 193.85 66.81 199.89 C 72.43 208.23 82.09 211.93 90.39 216.92 C 90.56 217.73 90.88 219.36 91.05 220.18 C 86.34 219.59 82.56 216.66 78.45 214.60 C 64.68 207.07 57.04 190.37 59.75 175.00 C 61.75 169.28 63.23 163.16 67.18 158.39 C 71.16 153.76 74.89 148.62 80.37 145.64 C 83.84 144.13 82.64 139.74 83.83 136.77 C 82.51 133.84 81.43 130.66 81.97 127.41 C 82.79 126.20 83.48 124.88 83.38 123.37 C 85.11 123.41 85.60 121.52 84.37 120.46 C 80.70 115.88 76.07 112.15 72.51 107.47 C 69.76 102.44 69.50 96.56 69.16 90.95 C 69.03 87.16 66.37 83.75 67.23 79.87 C 67.78 76.37 70.45 73.83 72.00 70.77 C 74.47 66.37 78.89 63.00 83.94 62.30 C 88.44 59.82 87.40 54.25 87.76 49.95 C 86.84 48.90 85.93 47.86 85.02 46.81 C 84.49 41.90 82.58 36.31 85.78 31.92 M 89.48 31.40 C 85.81 33.75 85.25 38.50 85.65 42.48 C 86.25 42.33 87.45 42.03 88.05 41.87 C 87.63 43.54 87.21 45.21 86.86 46.89 C 88.52 47.98 90.19 49.05 91.89 50.08 C 92.77 52.11 93.54 54.36 95.41 55.72 C 98.08 57.08 101.01 57.86 103.85 58.78 C 104.56 58.44 105.96 57.77 106.67 57.43 C 107.92 54.13 108.50 50.62 108.92 47.12 C 109.39 43.04 107.94 39.12 107.26 35.15 C 106.93 32.18 104.25 30.47 102.22 28.63 C 97.85 28.49 93.07 28.49 89.48 31.40 M 88.62 49.95 C 88.92 53.59 88.96 57.34 87.86 60.85 C 86.97 62.42 85.02 62.71 83.53 63.46 C 79.11 65.10 75.74 68.63 73.30 72.56 C 71.86 75.00 69.08 76.92 69.29 80.03 C 68.15 86.16 74.37 89.90 75.21 95.55 C 74.18 94.80 73.18 94.03 72.20 93.23 C 72.12 93.18 71.66 90.39 71.18 91.69 C 71.43 96.26 72.81 100.71 74.49 104.95 C 75.84 108.88 79.73 110.98 82.41 113.91 C 83.22 113.24 83.25 112.46 82.51 111.58 C 81.48 109.40 79.59 107.85 78.01 106.09 C 82.56 106.83 84.70 111.59 85.56 115.62 C 85.04 115.78 84.00 116.10 83.48 116.26 C 85.91 120.10 90.26 121.66 94.15 123.54 C 95.26 123.47 96.32 123.08 97.39 122.80 C 99.66 119.50 102.06 116.22 103.43 112.42 C 105.42 107.71 105.06 102.50 105.71 97.52 C 106.62 91.30 107.47 85.06 108.06 78.80 C 106.73 77.54 105.39 76.30 104.06 75.04 C 102.43 75.53 100.81 76.01 99.24 76.67 C 102.48 84.36 101.82 95.79 93.17 99.55 C 89.23 99.18 85.43 96.98 83.72 93.32 C 82.65 91.75 82.43 89.11 80.08 89.05 C 80.04 88.86 79.96 88.47 79.92 88.27 L 81.72 88.68 C 80.56 82.32 80.71 74.48 86.22 70.09 C 84.38 70.31 82.53 70.46 80.68 70.59 C 79.73 71.57 78.76 72.54 77.76 73.47 C 77.97 71.85 78.35 70.27 78.80 68.71 C 82.31 68.44 85.85 68.67 89.12 70.05 C 86.71 71.68 84.11 73.48 83.37 76.48 C 81.52 82.87 82.31 90.84 87.46 95.54 C 89.31 97.31 92.31 97.87 94.57 96.57 C 97.58 94.76 99.04 91.19 99.30 87.81 C 99.73 83.07 98.99 77.87 95.79 74.14 C 93.46 71.10 89.10 70.59 86.88 67.45 C 87.89 67.63 88.90 67.83 89.90 68.05 C 91.43 67.51 92.97 67.00 94.52 66.52 C 93.51 63.55 92.29 60.67 90.99 57.83 C 93.40 60.10 95.87 62.91 95.37 66.50 C 98.79 66.59 102.04 68.24 105.47 67.65 C 105.63 63.85 110.61 63.85 113.29 63.00 C 111.24 61.98 109.09 61.21 106.92 60.51 C 106.62 61.66 106.09 62.69 105.33 63.58 C 105.25 62.80 105.08 61.22 105.00 60.44 C 100.99 60.77 97.18 59.24 93.81 57.21 C 91.73 55.06 90.97 51.91 88.62 49.95 M 145.94 60.77 C 147.42 61.04 148.93 61.23 150.39 61.65 C 152.07 67.42 154.23 73.58 151.65 79.45 C 153.72 80.20 156.25 80.68 158.06 79.06 C 163.07 74.71 162.84 66.96 160.73 61.21 C 159.33 57.23 155.77 54.89 152.12 53.24 C 149.39 55.15 147.02 57.55 145.94 60.77 M 128.34 60.29 C 123.78 63.06 123.15 69.09 123.60 73.91 C 124.00 78.71 126.24 84.14 131.00 86.01 C 134.87 87.37 138.33 83.99 139.50 80.58 C 141.56 73.96 140.56 65.68 134.77 61.19 C 132.87 60.09 130.24 58.23 128.34 60.29 M 114.85 63.91 C 118.48 66.33 121.07 69.94 121.98 74.24 C 122.13 71.66 122.30 69.09 122.62 66.53 C 120.07 65.54 117.51 64.58 114.85 63.91 M 104.70 72.66 C 108.20 73.64 111.37 78.02 109.57 81.57 C 107.65 85.13 108.62 89.27 107.89 93.10 C 106.33 99.40 107.88 106.18 105.24 112.26 C 103.11 116.91 100.26 121.21 97.04 125.17 C 93.72 125.24 90.40 124.80 87.33 123.48 C 84.08 124.20 82.97 127.91 83.65 130.85 C 84.37 135.87 85.53 141.20 83.86 146.15 C 81.95 151.07 85.18 155.88 86.85 160.38 C 87.11 162.45 87.43 164.51 87.88 166.55 C 91.34 160.48 97.88 154.57 105.36 156.22 C 108.32 156.26 109.91 158.97 111.94 160.67 C 111.03 157.33 109.06 154.38 108.34 150.98 C 109.15 148.74 111.03 147.22 112.99 146.00 C 112.29 147.78 111.28 149.41 110.53 151.17 C 110.44 153.06 111.58 154.77 112.14 156.54 C 114.14 155.82 116.17 155.20 118.19 154.54 C 120.79 155.73 123.72 156.91 124.63 159.94 C 125.76 156.28 126.20 152.49 126.54 148.70 C 127.71 147.32 128.62 145.77 129.43 144.16 C 130.79 141.34 133.66 139.78 136.13 138.09 C 134.13 137.48 132.04 137.29 129.96 137.52 C 127.10 135.82 125.03 133.24 123.19 130.53 C 123.15 129.09 123.07 127.66 122.98 126.23 C 121.90 125.15 120.83 124.07 119.77 122.97 C 113.08 124.90 105.59 128.19 98.87 124.50 C 101.11 121.99 104.27 124.35 107.05 123.85 C 111.38 122.90 116.13 122.63 119.84 119.96 C 120.31 117.67 120.68 113.89 118.04 112.76 C 118.45 112.74 119.28 112.70 119.69 112.68 C 119.61 111.33 119.45 108.63 119.38 107.28 C 118.83 107.84 117.75 108.95 117.20 109.50 C 116.20 109.10 115.20 108.71 114.20 108.32 C 112.74 109.33 111.18 110.17 109.56 110.87 C 109.12 110.16 108.67 109.45 108.23 108.74 C 109.71 108.69 111.71 109.26 112.47 107.53 C 113.49 105.44 113.29 103.00 113.62 100.74 C 114.47 102.72 115.15 104.78 115.33 106.95 C 116.02 107.06 117.42 107.30 118.12 107.41 C 119.88 104.48 122.23 101.60 122.31 98.01 C 122.30 94.68 121.39 91.44 120.36 88.30 C 119.53 91.52 116.21 92.87 113.25 93.30 C 113.37 93.92 113.60 95.16 113.72 95.79 C 116.54 95.91 120.36 95.36 121.46 98.76 C 118.84 98.00 116.16 97.51 113.44 97.32 C 111.74 98.42 108.28 100.50 107.74 97.20 C 109.11 97.06 110.49 96.94 111.86 96.82 C 112.05 96.01 112.42 94.39 112.61 93.58 C 111.63 92.60 110.66 91.63 109.70 90.65 C 112.10 90.82 115.06 91.90 117.11 90.02 C 122.07 85.67 121.83 77.95 119.74 72.22 C 118.33 68.20 114.72 65.87 111.04 64.20 C 108.07 66.32 105.67 69.08 104.70 72.66 M 91.58 68.57 C 94.57 70.44 97.26 72.78 99.18 75.77 C 99.13 75.19 99.03 74.03 98.98 73.45 C 100.47 73.49 101.95 73.53 103.44 73.56 C 103.84 72.14 104.26 70.72 104.68 69.30 C 100.25 69.55 96.01 67.19 91.58 68.57 M 113.13 158.73 C 112.81 163.04 115.06 166.82 115.94 170.92 C 117.98 183.23 108.16 193.78 109.47 206.07 C 110.06 210.68 108.26 215.00 106.89 219.29 C 115.70 219.44 124.57 220.14 133.32 218.67 C 139.59 217.50 145.60 215.19 151.42 212.62 C 154.89 210.62 157.63 207.38 159.57 203.92 C 160.29 198.40 155.36 194.17 154.56 188.88 C 154.32 183.01 155.28 177.20 155.64 171.37 C 151.35 170.98 148.96 166.83 144.93 165.89 C 143.65 165.50 142.36 165.13 141.08 164.76 C 136.08 166.26 130.92 164.18 126.70 161.53 C 123.11 164.73 120.72 159.00 118.22 157.20 C 116.60 157.94 114.95 158.68 113.13 158.73 M 104.01 260.19 C 103.50 260.83 102.99 261.47 102.48 262.11 C 106.16 263.89 110.72 264.41 114.05 261.60 C 113.53 261.06 112.50 259.99 111.98 259.46 C 109.36 260.03 106.70 260.42 104.01 260.19 Z" />
<path fill="#333333" opacity="1.00" d=" M 144.35 82.74 C 146.34 86.86 144.83 91.85 144.37 96.19 C 141.94 92.16 144.00 87.12 144.35 82.74 Z" />
<path fill="#333333" opacity="1.00" d=" M 133.63 89.36 C 136.20 87.89 138.83 86.53 141.28 84.86 C 137.22 91.27 129.67 94.83 126.92 102.18 C 127.19 97.18 130.91 93.28 133.63 89.36 Z" />
<path fill="#333333" opacity="1.00" d=" M 83.19 97.85 C 86.35 98.70 88.18 101.57 89.21 104.47 C 86.28 103.37 85.09 100.12 83.19 97.85 Z" />
<path fill="#333333" opacity="1.00" d=" M 92.17 100.12 C 93.76 99.55 95.33 98.95 96.92 98.36 C 95.30 103.70 90.10 106.54 87.29 111.16 C 86.17 106.28 92.36 104.64 92.17 100.12 Z" />
<path fill="#333333" opacity="1.00" d=" M 92.51 115.78 C 93.44 115.14 94.39 114.52 95.34 113.93 C 95.16 117.00 90.49 120.59 88.30 117.30 C 89.69 116.75 91.10 116.26 92.51 115.78 Z" />
<path fill="#333333" opacity="1.00" d=" M 112.62 118.30 C 111.25 116.07 113.21 114.52 115.15 113.72 C 114.39 115.29 113.54 116.81 112.62 118.30 Z" />
<path fill="#333333" opacity="1.00" d=" M 102.92 119.61 C 104.83 119.77 106.80 120.62 107.72 122.42 C 106.50 122.43 105.29 122.30 104.09 122.16 C 103.80 121.52 103.21 120.24 102.92 119.61 Z" />
<path fill="#333333" opacity="1.00" d=" M 109.02 128.27 C 112.91 127.61 116.64 126.27 120.38 125.06 C 119.62 125.96 118.96 126.97 117.99 127.68 C 111.41 129.25 104.62 129.32 97.97 130.46 C 96.43 135.30 91.30 138.10 86.60 139.09 C 88.10 136.62 91.04 135.84 93.47 134.61 C 94.34 133.29 95.23 132.00 96.14 130.71 C 95.68 129.96 95.23 129.20 94.81 128.43 C 93.59 128.09 92.37 127.75 91.15 127.41 C 89.99 129.67 89.23 132.09 89.08 134.64 C 88.48 134.28 87.88 133.92 87.28 133.57 C 88.07 131.08 88.96 128.62 89.94 126.20 C 92.06 126.55 94.19 126.84 96.34 127.03 C 96.95 127.47 97.57 127.90 98.20 128.33 C 101.79 127.61 105.41 128.81 109.02 128.27 Z" />
<path fill="#333333" opacity="1.00" d=" M 98.85 132.83 C 99.76 132.65 100.69 132.50 101.62 132.39 C 102.03 134.07 100.19 134.93 99.31 136.08 C 99.20 135.27 98.96 133.64 98.85 132.83 Z" />
<path fill="#333333" opacity="1.00" d=" M 99.48 140.74 C 105.35 136.65 111.69 131.69 119.33 132.89 C 119.35 133.87 119.38 134.86 119.42 135.84 C 117.93 136.67 116.45 137.50 115.02 138.42 C 110.87 138.82 107.52 141.98 103.24 141.78 C 107.34 138.55 112.71 138.06 117.05 135.37 C 116.57 135.16 115.61 134.74 115.13 134.54 C 110.75 136.06 106.48 138.01 102.76 140.81 C 101.27 142.17 99.11 141.42 97.32 141.46 C 97.30 140.85 97.27 139.63 97.25 139.02 C 98.00 139.59 98.74 140.16 99.48 140.74 Z" />
<path fill="#333333" opacity="1.00" d=" M 104.31 189.26 C 105.83 189.31 107.34 189.38 108.86 189.48 C 108.03 191.09 106.51 191.60 104.77 191.53 C 104.66 190.96 104.43 189.83 104.31 189.26 Z" />
<path fill="#333333" opacity="1.00" d=" M 163.48 213.18 C 164.54 216.03 164.81 219.08 165.37 222.05 C 162.71 219.81 162.16 216.35 163.48 213.18 Z" />
<path fill="#333333" opacity="1.00" d=" M 97.50 243.87 C 98.64 240.72 99.57 236.69 102.91 235.23 C 102.85 238.64 100.47 242.11 97.50 243.87 Z" />
</g>
</svg>
