<?xml version="1.0" encoding="UTF-8" ?>
<!DOCTYPE svg PUBLIC "-//W3C//DTD SVG 1.1//EN" "http://www.w3.org/Graphics/SVG/1.1/DTD/svg11.dtd">
<svg width="221pt" height="275pt" viewBox="0 0 221 275" version="1.1" xmlns="http://www.w3.org/2000/svg"><g id="#414240ff">
<path fill="#333333" opacity="1.00" d=" M 85.82 31.89 C 89.01 27.46 94.96 26.75 100.00 27.31 C 104.19 27.24 108.32 30.59 108.64 34.86 C 109.10 38.78 110.89 42.56 110.41 46.56 C 109.96 50.40 109.26 54.21 108.33 57.95 C 105.53 58.58 102.87 59.92 99.99 60.02 C 97.81 59.42 95.70 58.49 93.84 57.21 C 91.83 54.99 90.85 52.01 88.67 49.89 C 88.93 53.50 88.69 57.12 87.98 60.66 C 85.66 61.60 83.57 63.03 82.01 65.01 C 79.29 68.10 74.80 68.98 72.23 72.28 C 69.26 76.37 69.74 81.91 71.34 86.45 C 72.65 89.47 70.67 92.49 70.27 95.48 C 69.33 100.91 70.03 107.57 74.67 111.19 C 77.42 112.78 79.93 114.72 82.59 116.44 C 87.73 113.83 91.33 108.91 94.28 104.09 C 98.14 98.24 99.49 91.31 102.19 84.95 C 101.36 82.85 99.94 80.82 99.77 78.53 C 100.43 74.97 104.12 73.64 107.34 74.37 C 106.27 69.98 103.64 66.08 100.28 63.10 C 98.03 64.25 94.86 64.45 93.45 66.77 C 95.39 74.05 95.21 82.21 90.82 88.61 C 87.70 95.50 80.17 97.95 74.58 102.31 C 74.44 103.02 74.16 104.45 74.02 105.16 C 72.33 103.18 70.92 100.58 72.49 98.08 C 72.92 99.07 73.79 101.05 74.22 102.04 C 75.58 100.39 77.08 98.86 78.40 97.17 C 78.11 95.29 77.62 93.45 77.25 91.58 C 78.35 93.14 79.39 94.73 80.41 96.34 C 83.74 94.88 87.67 92.11 86.58 87.91 C 86.95 84.26 83.71 82.18 81.70 79.68 C 85.59 80.26 87.87 83.53 89.04 87.00 C 90.88 83.58 93.35 80.10 92.85 76.00 C 93.26 72.27 90.29 68.14 92.77 64.77 C 95.06 62.60 98.32 61.67 101.42 61.48 C 103.72 63.55 105.70 65.93 107.39 68.52 C 109.72 71.42 108.31 75.52 110.18 78.65 C 109.86 78.93 109.21 79.49 108.89 79.78 C 108.88 81.24 108.85 82.70 108.80 84.17 C 111.19 84.27 113.52 85.40 115.93 84.83 C 117.62 84.38 119.34 84.61 121.02 84.98 C 121.52 83.40 122.03 81.75 123.36 80.65 C 123.23 82.35 122.92 84.04 122.33 85.65 C 122.39 87.25 122.46 88.85 122.55 90.46 C 123.12 87.71 123.68 84.94 123.87 82.14 C 124.28 80.86 124.65 79.57 125.02 78.28 C 124.37 78.21 123.08 78.07 122.44 78.00 C 121.39 74.09 115.85 75.21 114.59 71.35 C 112.30 68.40 112.96 64.62 112.57 61.17 C 111.82 60.79 110.32 60.04 109.57 59.67 C 112.87 58.92 116.30 58.54 119.28 56.80 C 123.98 57.77 126.52 62.14 129.03 65.78 C 130.70 68.16 131.29 71.02 132.33 73.68 C 133.48 75.40 135.15 76.70 136.29 78.44 C 138.53 83.65 142.31 88.00 146.02 92.21 C 147.91 96.60 144.98 100.83 143.94 105.05 C 143.30 107.85 140.25 108.60 137.90 109.39 C 134.32 107.30 131.67 104.03 128.93 101.00 C 124.68 96.22 127.48 89.48 125.59 83.87 C 124.78 88.20 123.95 92.56 124.05 96.98 C 124.42 101.48 120.48 105.38 121.63 109.89 C 122.87 113.12 120.84 116.44 121.84 119.71 C 121.61 122.36 124.07 123.75 125.02 125.90 C 125.58 128.36 124.54 130.71 124.10 133.09 C 125.00 136.56 126.53 139.83 127.82 143.17 C 129.16 146.49 128.48 150.78 131.94 152.92 C 131.66 154.55 130.62 155.73 129.23 156.56 C 129.95 161.01 130.12 165.51 130.06 170.01 C 129.80 173.08 132.12 175.77 131.54 178.85 C 130.00 185.14 129.92 191.81 131.35 198.13 C 132.21 204.99 131.27 211.97 132.33 218.81 C 132.85 220.66 133.21 222.80 134.93 223.96 C 138.60 226.61 140.73 230.87 144.54 233.34 C 146.35 234.68 148.68 234.65 150.80 235.04 C 152.01 236.44 153.18 237.87 154.35 239.31 C 152.68 242.58 149.05 243.61 145.87 244.83 C 144.18 245.68 143.04 243.61 141.79 242.91 C 145.64 243.69 149.06 242.21 152.17 240.09 C 151.46 239.14 150.75 238.19 150.03 237.25 C 146.18 236.87 142.35 235.33 139.96 232.18 C 137.53 228.91 134.53 226.18 131.69 223.30 C 129.91 218.47 129.41 213.19 129.85 208.07 C 130.27 202.96 129.08 197.97 128.41 192.96 C 128.76 188.61 128.62 184.20 129.73 179.95 C 130.55 177.24 129.56 174.55 128.40 172.12 C 127.28 173.77 126.22 175.46 125.15 177.14 C 125.06 185.44 126.31 193.65 126.53 201.93 C 127.71 214.41 128.07 226.95 129.38 239.42 C 130.24 239.88 131.96 240.80 132.82 241.27 C 131.48 242.08 129.94 241.93 128.47 241.67 C 129.59 242.15 130.73 242.59 131.82 243.15 C 131.52 245.52 127.97 246.32 128.29 249.03 C 128.01 253.15 127.85 258.72 132.22 260.82 C 135.23 261.68 137.77 258.97 138.17 256.18 C 139.06 251.55 137.42 245.71 132.66 243.84 C 132.76 243.09 132.95 241.60 133.05 240.85 C 135.72 240.36 139.05 239.47 141.01 242.02 C 145.27 246.92 146.06 255.62 141.02 260.29 C 148.61 263.39 156.32 266.18 163.79 269.56 C 162.89 270.23 161.89 270.90 160.78 270.22 C 153.16 267.37 145.76 263.95 138.04 261.37 C 136.21 262.59 134.16 263.37 131.98 263.68 C 129.34 261.56 126.71 259.05 126.25 255.50 C 124.76 250.82 127.44 246.36 127.60 241.72 C 124.47 241.82 120.95 241.86 118.55 239.49 C 116.27 231.61 122.13 224.04 120.42 216.09 C 120.12 210.83 116.45 206.77 114.93 201.92 C 114.53 196.55 115.38 191.19 116.51 185.96 C 115.69 184.26 114.75 182.63 114.06 180.87 C 113.22 177.90 113.87 174.53 112.15 171.83 C 110.37 168.85 108.54 165.85 106.03 163.44 C 103.33 166.77 104.54 171.26 103.26 175.10 C 102.62 179.52 98.93 182.63 98.09 186.96 C 96.87 190.61 95.42 194.21 94.83 198.04 C 94.37 203.08 95.75 208.25 94.35 213.19 C 90.84 221.71 89.80 231.69 93.26 240.40 C 96.09 243.83 97.38 248.29 100.55 251.47 C 102.06 253.09 103.21 255.01 104.59 256.75 C 104.48 258.30 105.06 260.27 103.66 261.41 C 102.52 261.78 101.37 262.10 100.20 262.35 C 94.93 265.98 86.44 264.73 82.88 259.26 C 82.28 255.65 81.31 252.16 79.80 248.81 C 79.58 245.89 79.18 243.00 78.13 240.26 C 78.97 237.26 79.12 234.13 79.07 231.03 C 78.80 223.82 75.07 217.14 75.39 209.87 C 76.08 204.78 77.98 199.96 79.58 195.11 C 80.19 191.43 80.05 187.64 80.90 183.99 C 81.44 180.62 83.41 177.50 82.99 174.00 C 82.70 170.32 82.47 166.62 82.97 162.94 C 82.46 163.31 81.46 164.06 80.96 164.43 C 79.57 162.75 77.86 161.17 77.47 158.92 C 79.79 157.28 80.71 154.63 80.78 151.90 C 80.92 146.83 83.50 142.09 82.93 136.97 C 82.72 133.92 81.08 130.92 81.88 127.85 C 83.36 124.90 85.33 122.20 86.85 119.27 C 89.34 120.74 91.88 122.69 94.92 122.58 C 98.70 122.49 102.35 123.49 106.07 123.93 C 110.39 123.37 114.77 122.55 118.80 120.78 C 118.75 119.01 118.70 117.23 118.64 115.46 C 118.21 115.07 117.34 114.29 116.90 113.90 C 116.90 111.65 117.09 108.95 114.47 108.10 C 111.82 110.92 107.79 110.02 104.56 111.56 C 102.53 112.61 101.10 110.31 99.67 109.27 C 103.68 110.58 107.48 108.27 111.55 108.59 C 114.36 105.98 113.17 101.73 112.57 98.44 C 111.13 98.67 109.69 98.89 108.25 99.11 C 107.90 99.50 107.22 100.27 106.88 100.66 C 104.83 101.10 103.25 102.41 101.90 103.94 C 101.19 103.58 100.48 103.22 99.77 102.86 C 101.20 101.98 102.59 101.02 103.94 100.01 C 105.53 99.23 106.99 98.24 108.25 97.01 C 109.09 96.99 110.77 96.97 111.61 96.96 C 110.80 94.85 110.14 92.66 109.05 90.67 C 108.20 89.44 107.25 90.85 106.50 91.42 C 105.14 92.83 104.19 94.57 102.99 96.11 C 104.52 93.60 104.75 88.32 108.83 89.44 C 108.52 88.62 107.89 86.98 107.58 86.16 C 107.11 86.62 106.16 87.52 105.69 87.97 C 105.60 86.07 105.55 84.16 105.40 82.26 C 106.48 81.55 107.54 80.81 108.59 80.06 C 106.78 80.24 104.98 80.50 103.19 80.73 C 104.09 78.65 106.18 77.77 108.03 76.72 C 106.62 76.42 105.20 76.15 103.78 75.92 C 99.86 78.29 103.08 82.62 105.28 85.02 C 102.61 85.85 102.37 88.84 101.72 91.11 C 99.72 101.05 93.13 109.22 86.67 116.72 C 84.66 119.56 80.70 118.65 78.53 116.52 C 76.11 114.18 72.58 113.10 70.68 110.24 C 67.53 103.19 68.39 95.26 69.87 87.92 C 68.60 82.97 67.14 77.58 69.91 72.80 C 72.15 67.31 78.46 66.16 82.29 62.21 C 83.62 60.80 85.88 60.55 87.01 59.00 C 87.70 56.02 87.62 52.95 87.77 49.92 C 86.86 48.88 85.94 47.84 85.03 46.81 C 84.53 41.89 82.58 36.29 85.82 31.89 M 89.01 31.75 C 85.64 34.19 85.33 38.72 85.58 42.52 C 86.19 42.36 87.41 42.05 88.02 41.89 C 87.62 43.50 86.97 45.10 87.00 46.79 C 88.47 48.11 90.18 49.10 91.86 50.12 C 92.91 53.01 94.57 56.08 97.83 56.81 C 100.64 57.58 105.15 60.66 106.86 56.76 C 109.98 49.22 109.14 40.84 106.73 33.23 C 105.63 31.36 103.87 30.04 102.30 28.60 C 97.71 28.41 92.64 28.51 89.01 31.75 M 115.03 60.41 C 114.88 62.98 114.56 65.56 114.80 68.14 C 115.76 70.11 117.01 71.91 118.14 73.78 C 119.64 71.72 120.98 68.82 123.97 68.82 C 126.77 69.56 128.23 72.47 129.13 74.98 C 129.89 77.20 127.61 78.24 126.29 79.51 C 126.53 82.77 128.42 85.62 128.77 88.86 C 129.05 91.98 129.12 95.11 129.21 98.25 C 131.77 101.38 134.90 103.98 137.91 106.67 C 139.33 106.80 141.24 106.41 141.82 104.93 C 143.10 102.04 144.36 99.05 144.84 95.91 C 142.84 89.87 137.48 85.90 134.93 80.16 C 133.58 76.99 130.37 75.04 129.25 71.76 C 127.97 67.01 124.79 63.03 121.28 59.70 C 119.47 57.79 117.02 59.93 115.03 60.41 M 120.93 71.99 C 121.18 72.71 121.68 74.15 121.93 74.88 C 123.31 74.07 124.70 73.26 126.10 72.47 C 125.22 71.71 124.34 70.96 123.45 70.22 C 122.59 70.78 121.75 71.37 120.93 71.99 M 126.19 74.63 C 124.94 74.49 123.36 75.89 124.16 77.15 C 125.53 78.35 128.33 75.31 126.19 74.63 M 113.08 86.90 C 112.05 86.50 109.99 85.71 108.96 85.31 C 109.75 87.18 110.60 89.02 111.51 90.84 C 112.52 90.05 113.54 89.28 114.59 88.54 C 116.22 88.27 117.15 90.12 118.30 90.97 C 117.08 90.54 115.87 90.09 114.67 89.62 C 113.85 90.32 113.04 91.03 112.22 91.73 C 112.89 93.04 113.55 94.36 114.16 95.71 C 116.68 95.83 119.20 96.19 121.57 97.09 C 121.67 93.77 121.15 90.48 120.61 87.22 C 118.94 84.26 115.57 87.10 113.08 86.90 M 113.94 97.52 C 114.74 99.52 115.57 101.50 116.52 103.44 C 115.95 104.52 115.38 105.60 114.80 106.68 C 117.09 105.28 118.31 107.78 118.66 109.73 C 119.78 106.12 120.03 102.32 120.81 98.63 C 118.60 97.83 116.28 97.48 113.94 97.52 M 118.82 111.94 C 117.80 113.30 120.18 114.60 121.07 113.37 C 122.18 112.00 119.69 110.64 118.82 111.94 M 87.09 121.63 C 87.03 122.24 86.90 123.45 86.84 124.06 C 84.07 123.85 83.77 127.01 83.40 129.05 C 84.27 134.34 85.57 139.85 84.11 145.17 C 82.44 149.99 82.71 155.39 79.82 159.78 C 80.25 160.36 81.11 161.51 81.53 162.09 C 82.53 160.35 83.09 158.17 85.07 157.26 C 85.01 159.41 85.33 161.62 84.78 163.73 C 83.19 168.37 86.06 173.28 84.53 177.93 C 83.37 181.59 81.84 185.22 81.71 189.12 C 82.26 194.65 84.41 199.87 85.13 205.37 C 83.01 202.81 82.37 199.45 81.02 196.48 C 79.31 200.22 77.96 204.14 77.19 208.17 C 75.77 217.99 82.66 227.10 80.57 236.95 C 78.85 243.58 83.67 249.48 84.76 255.85 C 85.12 262.16 94.61 264.65 98.57 260.12 C 96.89 256.29 92.50 260.20 89.53 258.40 C 88.50 258.50 87.48 258.59 86.46 258.69 C 86.85 258.28 87.64 257.48 88.04 257.08 C 91.23 256.92 94.42 256.72 97.61 256.53 C 98.78 257.54 99.40 259.00 100.26 260.26 C 101.45 259.90 102.63 259.52 103.81 259.12 C 101.26 254.16 96.70 250.63 94.49 245.47 C 88.05 236.52 87.33 223.99 91.83 214.05 C 93.69 210.01 92.85 205.44 92.82 201.16 C 89.35 205.73 90.07 211.57 88.72 216.83 C 87.08 214.53 87.65 211.59 88.02 209.00 C 88.93 203.22 93.09 198.69 94.16 192.97 C 95.73 188.71 96.78 184.19 99.29 180.35 C 101.89 176.19 102.34 171.17 103.12 166.43 C 99.77 167.16 96.39 168.16 92.93 167.98 C 90.09 167.58 87.60 166.00 85.00 164.90 C 85.74 164.48 86.48 164.07 87.23 163.67 C 92.62 167.37 99.81 166.24 104.93 162.65 C 105.42 160.27 105.13 157.64 106.21 155.44 C 108.35 154.34 110.71 153.82 113.07 153.46 C 114.39 151.08 115.77 148.73 117.48 146.62 C 117.39 149.49 116.16 152.22 114.46 154.50 C 111.62 155.70 107.80 155.72 106.74 159.28 C 111.62 160.29 117.10 162.31 121.55 158.86 C 121.79 153.59 120.43 148.40 120.70 143.13 C 115.08 145.52 108.87 144.66 103.02 145.90 C 100.66 146.38 98.19 146.38 95.96 145.40 C 104.04 143.38 112.62 144.19 120.51 141.39 C 120.21 139.73 120.78 137.49 119.82 136.12 C 113.85 137.66 108.32 140.72 102.75 143.35 C 106.13 138.50 112.43 137.51 117.39 135.02 C 110.93 134.31 104.85 137.56 98.51 138.45 C 99.51 137.50 100.50 136.41 101.91 136.10 C 107.38 134.29 113.10 133.10 118.87 132.81 C 119.05 133.28 119.42 134.22 119.61 134.69 C 119.95 130.91 119.73 127.04 118.77 123.35 C 113.89 124.38 109.10 126.86 104.00 126.01 C 98.29 124.64 92.00 125.43 87.09 121.63 M 121.41 124.32 C 121.29 127.59 121.53 130.86 121.83 134.11 C 123.07 130.93 124.26 127.03 121.41 124.32 M 122.26 134.56 C 121.85 142.28 123.45 149.91 123.33 157.62 C 125.26 156.02 127.38 154.68 129.66 153.64 C 128.44 151.98 127.19 150.23 127.05 148.09 C 126.44 143.29 124.25 138.90 122.26 134.56 M 123.72 160.22 C 124.08 165.27 124.36 170.34 124.76 175.39 C 125.63 173.51 126.35 171.57 127.02 169.61 C 127.50 169.61 128.48 169.62 128.97 169.63 C 128.66 165.27 128.46 160.91 128.15 156.56 C 126.64 157.74 125.06 158.85 123.72 160.22 M 106.98 160.70 C 107.54 161.33 108.67 162.59 109.23 163.21 C 111.74 166.64 114.17 170.18 116.03 174.00 C 116.83 177.69 116.91 181.52 118.41 185.05 C 118.72 184.55 119.35 183.54 119.67 183.03 C 119.58 183.71 119.42 185.07 119.34 185.75 C 121.25 187.64 120.79 190.22 119.39 192.24 C 118.83 191.05 118.29 189.86 117.74 188.68 C 116.33 193.75 117.50 198.96 118.28 204.02 C 118.99 207.13 121.46 209.59 121.83 212.82 C 122.25 216.68 122.25 220.60 121.94 224.47 C 120.90 229.11 119.68 233.93 120.35 238.70 C 122.14 240.74 125.06 239.77 127.42 239.94 C 125.77 219.61 124.48 199.24 123.14 178.88 C 120.53 177.18 119.21 174.40 118.32 171.52 C 118.50 171.48 118.86 171.41 119.04 171.38 C 119.86 173.34 121.12 175.05 122.67 176.50 C 122.82 171.30 122.20 166.13 121.64 160.97 C 119.15 161.79 116.63 162.87 113.95 162.69 C 111.48 162.64 109.47 160.71 106.98 160.70 M 135.16 242.27 C 140.28 246.15 141.52 253.33 139.47 259.18 C 141.52 256.21 143.38 252.63 142.06 248.94 C 141.64 245.45 139.09 242.95 136.23 241.23 C 135.96 241.49 135.43 242.01 135.16 242.27 Z" />
<path fill="#333333" opacity="1.00" d=" M 80.69 67.18 C 82.57 67.47 84.43 67.87 86.26 68.41 C 86.22 70.14 86.19 71.88 86.16 73.61 C 85.10 73.37 84.05 73.15 82.99 72.92 C 83.68 72.89 85.05 72.81 85.74 72.78 C 85.23 72.02 84.21 70.49 83.70 69.73 C 82.32 69.33 81.15 68.62 80.69 67.18 Z" />
<path fill="#333333" opacity="1.00" d=" M 79.05 80.69 C 79.59 80.63 80.66 80.49 81.20 80.42 C 80.01 83.25 78.45 85.93 76.42 88.25 C 76.03 85.43 78.00 83.13 79.05 80.69 Z" />
<path fill="#333333" opacity="1.00" d=" M 96.73 108.29 C 97.89 106.91 99.30 105.78 100.96 105.05 C 100.31 107.01 98.88 108.27 96.73 108.29 Z" />
<path fill="#333333" opacity="1.00" d=" M 94.39 110.95 C 97.41 109.55 94.31 114.32 94.39 110.95 Z" />
<path fill="#333333" opacity="1.00" d=" M 101.14 112.87 C 102.72 112.46 103.35 113.07 103.01 114.72 C 101.43 115.12 100.81 114.50 101.14 112.87 Z" />
<path fill="#333333" opacity="1.00" d=" M 112.67 118.15 C 111.04 115.92 113.48 114.66 115.15 113.60 C 114.44 115.18 113.63 116.71 112.67 118.15 Z" />
<path fill="#333333" opacity="1.00" d=" M 100.66 115.46 C 102.94 117.89 105.30 120.24 107.81 122.45 C 103.85 123.16 100.92 118.97 100.66 115.46 Z" />
<path fill="#333333" opacity="1.00" d=" M 87.37 134.03 C 87.76 131.04 88.99 128.26 90.48 125.66 C 99.08 128.84 108.95 129.88 117.41 125.71 C 117.30 126.56 117.19 127.42 117.10 128.28 C 110.93 129.95 104.51 131.07 98.13 129.88 C 96.80 134.89 91.47 138.92 86.33 138.52 C 90.32 136.08 94.93 134.03 96.83 129.41 C 94.97 128.60 93.05 127.94 91.13 127.29 C 90.09 129.62 89.26 132.05 89.08 134.62 C 88.66 134.47 87.80 134.18 87.37 134.03 Z" />
<path fill="#333333" opacity="1.00" d=" M 87.49 179.89 C 90.04 179.88 92.49 179.20 94.77 178.07 C 95.39 179.91 96.00 181.75 96.47 183.65 C 95.66 182.62 94.89 181.58 94.15 180.51 C 92.48 181.00 90.80 181.43 89.11 181.82 C 88.40 182.99 87.70 184.16 86.96 185.31 C 87.10 183.50 87.29 181.69 87.49 179.89 Z" />
<path fill="#333333" opacity="1.00" d=" M 89.28 188.87 C 90.87 189.15 92.67 189.17 93.69 190.65 C 92.71 190.78 90.75 191.06 89.77 191.20 C 89.65 190.61 89.40 189.45 89.28 188.87 Z" />
<path fill="#333333" opacity="1.00" d=" M 125.57 234.48 C 123.10 232.20 122.35 228.66 124.24 225.77 C 124.56 228.69 125.04 231.59 125.57 234.48 Z" />
<path fill="#333333" opacity="1.00" d=" M 82.53 242.79 C 83.72 239.64 84.68 235.53 88.24 234.27 C 87.34 236.14 86.38 237.99 85.66 239.94 C 84.64 240.92 83.60 241.87 82.53 242.79 Z" />
</g>
</svg>
