<?xml version="1.0" encoding="UTF-8" ?>
<!DOCTYPE svg PUBLIC "-//W3C//DTD SVG 1.1//EN" "http://www.w3.org/Graphics/SVG/1.1/DTD/svg11.dtd">
<svg width="250pt" height="173pt" viewBox="0 0 250 173" version="1.1" xmlns="http://www.w3.org/2000/svg"><g id="#2d2e2bff">
<path fill="#333333" opacity="1.00" d=" M 129.30 30.94 C 128.28 28.52 131.12 27.23 132.59 25.94 C 135.03 27.80 137.49 29.63 139.94 31.48 C 140.44 31.07 140.94 30.65 141.44 30.23 C 145.78 30.64 149.79 32.97 152.50 36.34 C 152.54 37.77 152.47 39.19 152.29 40.60 C 152.71 40.97 153.54 41.70 153.95 42.07 C 155.25 40.76 156.58 39.50 157.96 38.28 C 160.39 39.39 162.59 40.92 164.94 42.18 C 167.59 43.02 170.18 44.07 172.54 45.56 C 172.35 45.07 171.96 44.07 171.76 43.57 C 173.88 43.74 176.01 43.84 178.14 43.94 C 179.99 45.38 181.99 46.68 183.62 48.40 C 185.22 50.38 185.33 53.02 185.74 55.41 C 188.09 55.59 190.94 55.30 192.59 57.37 C 195.58 60.79 198.54 65.27 197.33 70.03 C 201.55 69.10 205.85 68.52 209.93 67.06 C 215.75 66.98 220.86 70.42 226.32 72.03 C 229.15 73.03 232.63 74.15 234.22 76.79 C 235.54 86.83 235.08 97.03 236.02 107.12 C 236.96 117.23 236.86 127.39 237.71 137.50 C 236.46 137.89 235.21 138.24 233.94 138.55 C 180.88 149.38 127.68 159.58 74.65 170.57 C 72.99 169.10 71.49 167.42 70.72 165.30 C 66.73 156.30 61.99 147.63 58.40 138.46 C 57.48 133.04 54.53 128.35 52.32 123.41 C 43.98 104.62 35.05 86.10 26.45 67.43 C 24.95 64.02 23.11 60.74 22.03 57.17 C 22.88 55.19 23.81 53.16 25.25 51.55 C 29.19 49.32 33.44 47.69 37.40 45.50 C 40.85 43.73 44.16 41.41 48.03 40.69 C 50.62 44.28 52.26 48.46 54.54 52.26 C 54.01 53.01 53.48 53.77 52.96 54.52 C 57.34 55.93 60.36 59.50 63.86 62.26 C 68.15 59.78 71.06 55.78 73.36 51.50 C 75.60 47.65 79.05 44.71 82.99 42.70 C 86.02 41.24 87.30 38.00 89.46 35.66 C 91.74 34.52 94.20 33.80 96.46 32.60 C 99.83 32.83 103.76 33.09 105.98 36.02 C 107.18 37.91 107.76 40.10 108.69 42.12 C 108.41 42.47 107.84 43.18 107.56 43.54 C 108.44 43.83 109.32 44.12 110.20 44.41 C 112.69 48.17 115.00 52.37 115.15 56.98 C 115.32 61.23 116.38 65.47 115.55 69.72 C 117.71 72.22 117.09 75.58 116.73 78.57 C 118.85 80.27 120.75 82.22 122.32 84.44 C 125.77 82.65 129.74 80.96 133.61 82.56 C 129.96 84.12 125.95 84.30 122.13 85.19 C 122.52 89.56 122.41 93.95 122.67 98.33 C 129.98 97.02 135.23 90.06 142.94 90.46 C 142.81 89.08 142.69 87.70 142.59 86.33 C 140.11 85.79 135.23 87.59 135.11 83.82 C 138.10 83.80 141.10 84.18 144.02 84.87 C 146.77 80.55 146.69 74.99 150.12 71.04 C 152.86 66.49 158.22 64.23 160.48 59.34 C 161.92 56.63 162.24 53.51 163.54 50.74 C 162.58 49.89 161.61 49.04 160.65 48.19 C 159.82 49.06 158.99 49.92 158.16 50.79 C 158.22 53.02 158.28 55.26 158.34 57.49 C 158.02 57.80 157.37 58.43 157.05 58.74 C 157.12 59.34 157.26 60.53 157.33 61.13 C 153.13 59.01 149.41 56.07 145.33 53.75 C 142.55 51.85 139.13 54.72 136.35 52.63 C 132.65 50.33 128.84 52.73 125.20 53.80 C 122.08 54.93 120.48 58.09 118.38 60.44 C 117.76 61.74 116.97 62.94 116.14 64.11 C 116.09 62.95 116.00 60.64 115.95 59.48 C 116.26 59.57 116.89 59.77 117.20 59.87 C 119.08 57.32 120.79 54.26 123.73 52.83 C 127.35 51.73 130.62 49.39 134.57 49.77 C 136.00 47.75 137.97 46.21 140.16 45.07 C 142.42 43.46 145.44 46.36 147.54 44.45 C 149.64 42.60 150.35 39.70 150.90 37.07 C 149.34 33.20 144.62 32.04 140.84 31.52 C 141.75 32.86 143.13 34.41 142.12 36.08 C 140.81 37.04 139.30 37.65 137.88 38.39 C 134.58 36.50 131.70 33.87 129.30 30.94 M 130.48 30.63 C 132.83 32.81 135.35 34.81 138.00 36.62 C 138.71 35.81 139.42 34.99 140.12 34.17 C 137.36 32.19 134.88 29.84 132.09 27.90 C 131.69 28.58 130.89 29.95 130.48 30.63 M 89.07 39.28 C 87.46 43.27 83.06 44.46 79.89 46.84 C 76.31 49.32 74.10 53.16 71.91 56.82 C 69.61 59.98 66.64 63.56 62.42 63.77 C 58.58 61.93 56.21 58.10 52.59 55.89 C 51.63 56.77 50.65 57.66 49.68 58.53 C 52.03 61.13 54.10 63.97 56.40 66.61 C 59.04 69.70 63.35 69.74 66.93 70.99 C 72.20 66.93 76.38 61.60 81.96 57.92 C 85.62 55.65 87.77 51.75 91.29 49.32 C 94.54 47.07 97.04 43.85 100.68 42.16 C 102.52 42.41 104.37 42.61 106.22 42.80 C 105.61 38.07 101.97 34.13 96.92 34.60 C 94.14 35.78 90.40 36.18 89.07 39.28 M 155.65 43.29 C 158.93 45.46 162.23 47.60 165.35 50.00 C 166.16 49.09 166.97 48.18 167.78 47.27 C 164.32 45.80 162.47 42.07 158.97 40.74 C 157.62 41.23 156.72 42.41 155.65 43.29 M 28.94 52.67 C 26.94 53.83 25.39 55.55 24.15 57.48 C 36.65 84.82 49.95 111.82 61.55 139.56 C 65.33 148.17 69.83 156.51 73.07 165.34 C 74.35 164.95 75.59 164.47 76.85 164.05 C 76.10 165.15 75.00 166.18 75.33 167.64 C 90.98 164.57 106.60 161.37 122.24 158.26 C 139.56 155.32 156.82 151.91 173.98 148.13 C 175.66 147.71 177.34 147.30 178.97 146.71 C 180.05 146.58 181.14 146.46 182.23 146.34 C 199.82 141.76 217.89 139.34 235.56 135.16 C 234.80 127.49 235.08 119.76 234.35 112.09 C 233.42 100.44 233.84 88.66 232.14 77.08 C 229.15 74.62 225.27 73.77 221.80 72.24 C 218.19 70.66 214.46 69.16 210.53 68.71 C 205.89 70.03 201.09 70.61 196.38 71.63 C 196.05 72.27 195.37 73.54 195.03 74.18 C 200.14 73.28 205.07 71.71 210.06 70.37 C 215.96 71.06 221.88 72.98 226.54 76.79 C 221.36 79.06 215.70 79.70 210.30 81.27 C 201.01 83.65 191.77 86.23 182.45 88.45 C 182.82 87.44 183.20 86.43 183.58 85.41 C 192.53 83.10 201.42 80.51 210.41 78.37 C 210.21 76.65 210.04 74.92 209.92 73.19 C 211.36 74.49 211.97 76.31 212.53 78.10 C 215.63 77.36 218.73 76.59 221.85 75.89 C 218.48 73.97 214.80 72.52 210.97 71.89 C 206.57 72.58 202.47 74.54 198.02 75.02 C 189.24 76.26 183.96 84.22 178.72 90.52 C 176.08 93.63 171.94 93.78 168.24 94.36 C 145.69 101.02 123.29 108.13 100.85 115.12 C 97.34 116.13 93.57 115.86 90.12 117.14 C 83.02 120.04 75.60 121.98 68.51 124.92 C 69.53 123.64 70.61 122.41 71.70 121.20 C 71.21 120.97 70.23 120.52 69.74 120.30 C 73.22 116.27 76.53 111.97 80.91 108.87 L 80.57 110.78 C 77.83 114.76 73.70 117.65 71.32 121.94 C 76.27 119.93 81.42 118.54 86.46 116.79 C 85.76 115.66 85.08 114.52 84.40 113.38 C 82.50 114.14 80.58 114.83 78.61 115.37 C 79.10 112.32 82.41 112.37 84.75 111.71 C 84.31 110.08 83.90 108.45 83.53 106.81 C 81.04 107.69 78.35 108.48 76.67 110.67 C 72.96 115.16 68.84 119.27 65.00 123.64 C 66.26 125.88 67.39 128.19 68.35 130.57 C 72.44 127.83 77.36 126.81 81.90 125.05 C 99.18 118.72 116.43 112.18 134.11 107.02 C 152.41 100.58 171.56 96.98 190.00 91.06 C 198.37 89.33 206.44 86.28 214.98 85.33 C 218.95 85.10 222.46 83.08 226.26 82.15 C 227.52 89.04 227.77 96.07 228.19 103.05 C 229.11 112.35 229.89 121.68 230.43 131.00 C 184.02 139.87 137.68 149.09 91.23 157.78 C 90.51 157.19 89.78 156.60 89.06 156.01 C 91.03 155.74 93.01 155.45 94.97 155.06 C 139.33 146.74 183.68 138.31 227.97 129.57 C 228.04 118.14 226.20 106.83 225.86 95.43 C 225.56 91.66 225.07 87.92 224.69 84.16 C 222.75 85.23 220.91 86.44 219.21 87.85 C 220.16 95.27 221.31 102.66 222.19 110.10 C 222.44 112.69 223.28 115.24 222.94 117.87 C 220.14 114.08 221.06 109.28 219.91 104.98 C 219.04 98.68 219.18 92.28 218.26 85.97 C 216.71 86.75 213.82 87.10 213.98 89.46 C 215.17 97.83 216.09 106.24 216.10 114.72 C 206.84 117.22 197.38 118.85 188.03 120.94 C 169.06 125.01 150.06 128.99 131.05 132.87 C 121.39 135.32 111.76 138.72 101.76 139.19 C 101.40 139.53 100.68 140.20 100.31 140.54 C 100.06 140.32 99.55 139.87 99.30 139.64 C 97.53 141.46 95.29 142.18 92.87 141.27 C 92.40 142.53 91.92 143.78 91.44 145.04 C 91.82 144.98 92.59 144.86 92.97 144.80 C 88.65 147.17 87.17 152.55 84.53 156.49 C 86.54 156.45 88.53 156.83 90.28 157.87 C 87.31 158.51 84.37 159.32 81.36 159.78 C 78.52 155.32 77.81 149.80 74.45 145.59 C 73.48 142.71 72.15 139.97 70.73 137.28 C 66.58 131.70 64.22 125.09 61.26 118.86 C 55.49 109.26 51.00 98.96 46.06 88.93 C 41.00 78.94 36.18 68.83 31.10 58.85 C 30.27 56.99 28.81 55.11 29.71 52.97 C 30.55 54.18 31.39 55.41 32.06 56.73 C 42.81 78.40 53.44 100.11 64.13 121.81 C 68.64 117.13 72.90 112.22 77.35 107.48 C 75.30 102.59 73.07 97.78 70.99 92.91 C 70.39 91.99 71.16 91.09 71.42 90.23 C 74.26 94.93 75.60 100.34 78.42 105.04 C 79.68 106.57 82.02 105.19 83.70 105.26 C 83.69 102.66 84.17 99.98 86.72 98.73 C 88.65 94.59 87.26 89.79 89.28 85.70 C 89.00 82.89 88.13 80.19 86.66 77.78 C 87.09 77.77 87.95 77.75 88.38 77.75 C 88.49 77.10 88.73 75.80 88.85 75.15 C 86.40 76.90 83.31 77.97 81.74 80.71 C 81.69 80.34 81.60 79.59 81.56 79.22 C 77.07 81.74 71.94 83.47 68.35 87.31 C 66.44 89.35 63.84 90.54 61.83 92.47 C 60.81 92.58 59.79 92.68 58.77 92.79 C 57.20 91.12 55.27 89.77 54.00 87.85 C 50.91 80.89 44.13 76.16 41.69 68.83 C 41.49 66.90 42.16 65.01 42.36 63.10 C 42.81 61.41 42.30 58.96 44.36 58.27 C 45.70 57.30 47.37 57.48 48.92 57.48 C 50.02 55.98 51.22 54.57 52.54 53.26 C 50.68 49.82 49.17 46.20 47.05 42.91 C 40.83 45.79 34.75 49.02 28.94 52.67 M 149.79 43.72 C 150.43 44.17 151.70 45.08 152.34 45.54 C 152.26 49.17 152.68 52.80 152.89 56.42 C 153.58 57.09 154.96 58.42 155.65 59.09 C 155.48 53.50 156.78 46.66 152.37 42.30 C 151.73 42.66 150.43 43.36 149.79 43.72 M 99.73 44.76 C 97.28 46.11 95.78 48.64 93.48 50.22 C 89.91 52.40 88.20 56.54 84.62 58.72 C 80.08 61.43 76.29 65.14 72.11 68.33 C 73.33 68.76 74.56 69.12 75.81 69.46 C 74.03 70.77 72.28 72.10 70.41 73.28 C 70.87 72.69 71.79 71.52 72.25 70.93 C 71.87 70.39 71.49 69.85 71.10 69.31 C 69.78 70.63 68.45 71.94 67.13 73.28 C 64.29 72.16 61.06 72.31 58.36 70.85 C 53.39 68.58 51.31 63.16 47.92 59.23 C 43.85 61.11 44.19 65.83 44.56 69.58 C 46.03 73.38 49.00 76.36 51.20 79.75 C 54.10 82.74 55.68 86.81 58.81 89.56 C 61.15 89.57 63.89 89.65 65.45 87.56 C 69.55 83.10 74.73 79.91 80.00 77.03 C 83.45 75.53 87.03 74.15 89.99 71.76 C 94.49 67.55 97.53 62.13 100.77 56.96 C 100.97 57.39 101.37 58.25 101.56 58.67 C 99.50 62.76 96.43 66.30 94.63 70.54 C 93.80 72.74 93.12 75.00 92.20 77.17 C 91.81 75.79 91.58 74.38 91.51 72.95 C 91.14 73.40 90.41 74.28 90.05 74.72 C 90.63 76.49 90.91 78.48 92.27 79.87 C 94.34 82.74 98.53 81.92 101.56 81.64 C 106.52 79.69 110.71 75.63 113.05 70.88 C 112.74 63.23 114.13 54.90 109.99 47.99 C 108.02 44.52 103.32 43.14 99.73 44.76 M 141.63 46.40 C 139.14 47.28 137.04 48.96 134.99 50.59 C 137.67 51.22 140.41 51.24 143.14 51.39 C 146.04 51.66 148.29 53.77 150.59 55.33 C 149.98 52.53 149.75 49.67 149.06 46.89 C 146.57 46.94 144.11 46.26 141.63 46.40 M 156.96 46.31 C 156.52 47.67 157.01 48.20 158.42 47.91 C 158.87 46.56 158.38 46.03 156.96 46.31 M 168.68 45.08 C 169.03 46.54 169.39 47.99 169.76 49.44 C 168.29 50.76 166.56 51.69 164.51 51.55 L 164.66 53.69 L 165.89 53.63 C 165.78 53.97 165.54 54.65 165.42 54.99 C 163.62 57.14 162.55 59.73 161.23 62.16 C 159.36 65.59 155.46 67.14 153.26 70.29 C 150.76 73.24 149.43 76.88 148.20 80.48 C 147.03 83.85 144.06 86.56 144.14 90.31 C 145.69 90.80 147.24 91.28 148.80 91.78 C 151.94 90.08 155.51 90.44 158.87 89.89 C 161.49 87.15 163.35 83.61 166.78 81.71 C 169.88 80.02 170.04 76.16 169.96 73.05 C 168.86 72.01 167.79 70.93 166.74 69.85 C 164.19 74.06 164.15 80.02 159.69 82.88 C 160.86 78.39 161.74 73.56 164.68 69.82 C 167.91 65.60 169.70 60.43 173.46 56.58 C 173.43 67.19 175.58 77.73 175.10 88.36 C 174.41 88.17 173.01 87.78 172.32 87.59 C 172.07 79.37 171.60 71.14 171.85 62.90 C 170.73 64.68 169.58 66.45 168.41 68.19 C 171.03 70.22 172.09 73.62 171.46 76.83 C 171.02 81.35 167.11 84.15 164.30 87.28 C 162.36 89.39 160.23 92.04 157.08 92.04 C 154.08 92.09 151.13 92.60 148.25 93.42 C 145.43 92.16 142.16 91.95 139.25 93.06 C 133.51 94.95 128.75 100.06 122.28 99.21 C 121.43 100.65 120.60 102.23 118.89 102.77 C 116.10 103.91 113.96 106.29 111.08 107.17 C 106.24 107.46 101.39 107.15 96.55 107.11 C 93.25 105.12 90.44 102.52 87.92 99.62 C 85.20 103.86 85.58 109.41 87.17 113.99 C 91.61 114.73 95.98 113.63 100.08 112.00 C 119.35 106.35 138.71 100.97 157.78 94.68 C 162.80 93.19 167.83 91.71 173.00 90.86 C 175.23 90.69 176.95 89.03 178.07 87.21 C 181.61 82.11 186.06 77.77 190.84 73.85 C 196.90 68.90 194.18 57.32 186.42 55.99 C 185.85 58.53 185.62 61.20 184.53 63.60 C 182.97 66.12 180.32 67.64 177.79 69.05 C 177.60 74.81 178.35 80.75 176.63 86.36 C 175.76 76.48 176.76 66.54 176.31 56.64 C 176.03 56.31 175.48 55.66 175.21 55.33 C 176.05 54.25 176.91 53.18 177.77 52.11 C 176.95 51.29 176.14 50.46 175.33 49.64 C 173.21 47.97 171.08 46.32 168.68 45.08 M 174.20 46.83 C 176.28 47.86 177.74 49.62 178.64 51.72 C 178.16 52.76 177.68 53.81 177.20 54.86 C 177.74 58.69 177.82 62.55 177.88 66.40 C 180.02 65.23 182.42 63.90 183.29 61.46 C 184.33 58.15 183.92 54.58 183.16 51.25 C 182.52 48.01 179.22 46.58 176.59 45.27 C 175.79 45.79 174.99 46.31 174.20 46.83 M 102.79 83.58 C 98.44 83.99 93.37 84.35 89.91 81.15 C 90.63 83.86 91.81 86.79 90.54 89.53 C 89.17 94.28 88.95 101.25 94.21 103.72 C 99.24 106.79 105.44 105.70 110.88 104.53 C 114.04 102.61 117.05 100.41 120.67 99.34 C 120.71 96.59 121.04 93.82 120.70 91.07 C 119.64 87.59 118.22 84.24 116.83 80.89 L 116.56 81.05 C 117.82 83.05 117.72 85.15 116.37 87.11 C 117.05 87.49 118.40 88.26 119.08 88.65 C 118.70 89.21 117.94 90.34 117.56 90.90 C 116.38 89.98 115.12 89.15 114.02 88.13 C 114.56 85.41 115.23 82.62 114.04 79.95 C 114.78 77.16 114.99 74.28 115.01 71.41 C 112.12 76.42 108.30 81.35 102.79 83.58 M 168.86 99.40 C 163.00 100.17 157.58 102.57 151.97 104.25 C 146.53 104.45 141.58 106.85 136.33 107.99 C 119.90 113.14 103.75 119.10 87.57 124.95 C 89.51 130.18 91.93 135.23 93.59 140.56 C 102.96 137.90 112.50 135.89 122.02 133.86 C 125.47 133.21 128.42 131.02 131.92 130.61 C 137.18 129.85 142.19 127.96 147.44 127.15 C 161.83 124.47 176.01 120.69 190.51 118.63 C 198.36 116.68 206.35 115.37 214.26 113.72 C 214.26 109.85 214.51 105.93 213.90 102.09 C 212.66 97.34 213.26 92.36 212.10 87.60 C 197.78 91.86 183.18 95.16 168.86 99.40 M 82.12 126.49 C 77.44 127.30 73.34 129.78 68.99 131.55 C 71.66 136.26 74.78 140.75 76.14 146.08 C 78.84 149.19 80.12 153.15 82.03 156.72 C 85.94 151.62 88.47 145.60 91.72 140.08 C 89.62 135.81 88.24 131.22 86.07 127.00 C 85.12 125.62 83.45 126.24 82.12 126.49 Z" />
<path fill="#333333" opacity="1.00" d=" M 93.70 42.12 C 94.68 40.06 96.07 38.20 98.22 37.29 C 98.67 37.51 99.58 37.96 100.04 38.18 C 97.70 39.11 95.77 40.73 93.70 42.12 Z" />
<path fill="#333333" opacity="1.00" d=" M 129.59 40.65 C 131.03 39.70 132.16 38.15 133.94 37.83 C 134.22 38.12 134.79 38.70 135.08 38.99 C 133.47 40.06 131.93 41.23 130.37 42.35 C 127.28 44.58 123.17 44.73 120.15 47.09 C 118.17 48.99 116.67 51.33 114.86 53.38 C 113.21 49.09 117.07 46.17 120.48 44.68 C 123.49 43.26 127.00 42.89 129.59 40.65 Z" />
<path fill="#333333" opacity="1.00" d=" M 97.11 53.31 C 98.34 50.96 100.44 49.34 103.08 48.93 C 101.23 50.56 99.24 52.05 97.11 53.31 Z" />
<path fill="#333333" opacity="1.00" d=" M 105.65 49.86 C 108.67 51.19 110.71 53.89 111.26 57.13 C 109.27 54.81 107.38 52.39 105.65 49.86 Z" />
<path fill="#333333" opacity="1.00" d=" M 120.74 64.79 C 125.20 61.09 128.10 55.56 133.68 53.29 C 133.02 54.37 132.34 55.44 131.65 56.51 C 128.03 58.56 126.33 62.73 122.86 64.90 C 122.33 64.88 121.27 64.82 120.74 64.79 Z" />
<path fill="#333333" opacity="1.00" d=" M 136.18 53.90 C 137.55 55.41 139.29 56.81 139.83 58.87 C 140.12 64.89 135.64 69.61 131.64 73.52 C 133.46 69.47 136.65 66.17 138.12 61.95 C 139.02 59.09 136.95 56.53 136.18 53.90 Z" />
<path fill="#333333" opacity="1.00" d=" M 78.65 69.41 C 82.49 62.70 88.98 57.41 96.66 55.84 C 94.25 58.29 90.75 59.02 88.06 61.06 C 84.82 63.72 82.23 67.16 78.65 69.41 Z" />
<path fill="#333333" opacity="1.00" d=" M 101.89 56.40 L 102.70 55.86 C 105.29 56.09 102.08 58.56 101.89 56.40 Z" />
<path fill="#333333" opacity="1.00" d=" M 102.58 57.37 C 103.03 57.60 103.92 58.08 104.37 58.31 C 103.90 63.23 100.85 67.28 99.71 71.99 C 99.88 75.17 101.43 78.05 102.49 81.00 C 98.91 79.58 98.12 75.30 98.25 71.90 C 98.42 66.68 103.00 62.73 102.58 57.37 Z" />
<path fill="#333333" opacity="1.00" d=" M 145.10 59.03 C 145.53 58.90 146.40 58.64 146.84 58.51 C 149.49 61.37 149.80 65.58 147.66 68.83 C 147.57 66.18 147.53 63.52 147.21 60.88 C 146.51 60.26 145.80 59.65 145.10 59.03 Z" />
<path fill="#333333" opacity="1.00" d=" M 187.81 67.72 C 188.96 65.04 188.85 62.07 189.49 59.27 C 190.52 62.80 190.71 67.10 188.27 70.12 C 186.36 73.18 182.57 73.96 179.43 75.13 C 181.33 71.69 185.95 71.20 187.81 67.72 Z" />
<path fill="#333333" opacity="1.00" d=" M 116.77 67.90 C 118.65 66.86 120.65 66.07 122.74 65.57 C 121.67 67.39 119.44 69.67 117.15 68.90 C 117.06 68.65 116.87 68.15 116.77 67.90 Z" />
<path fill="#333333" opacity="1.00" d=" M 139.51 66.65 C 141.75 67.90 143.70 69.57 145.83 70.98 C 145.42 71.35 145.00 71.72 144.59 72.09 C 142.66 70.53 140.46 69.07 139.51 66.65 Z" />
<path fill="#333333" opacity="1.00" d=" M 136.25 69.58 C 139.03 70.09 140.82 72.31 142.53 74.34 C 139.50 74.52 137.64 71.89 136.25 69.58 Z" />
<path fill="#333333" opacity="1.00" d=" M 123.76 71.17 C 126.86 70.46 124.24 73.94 122.58 73.80 C 119.72 74.45 122.35 71.12 123.76 71.17 Z" />
<path fill="#333333" opacity="1.00" d=" M 128.49 74.72 C 129.89 74.86 131.28 74.99 132.68 75.10 C 134.25 76.44 135.89 77.70 137.44 79.05 C 133.54 80.48 132.47 74.84 128.94 75.76 C 128.83 75.50 128.60 74.98 128.49 74.72 Z" />
<path fill="#333333" opacity="1.00" d=" M 168.91 129.32 C 185.47 126.47 201.90 122.94 218.23 118.95 C 220.83 120.28 223.97 121.18 225.53 123.88 C 223.38 123.31 221.37 122.35 219.39 121.37 C 207.50 123.39 195.84 126.60 183.96 128.72 C 160.95 133.90 137.93 139.05 114.94 144.31 C 109.06 145.55 103.26 147.36 97.23 147.66 C 99.78 143.86 104.86 144.05 108.86 143.23 C 115.12 141.71 121.47 140.55 127.73 139.03 C 129.30 138.66 130.89 138.43 132.49 138.21 L 132.43 137.66 C 138.13 135.69 144.23 135.79 149.92 133.90 C 156.36 132.83 162.55 130.74 168.91 129.32 Z" />
</g>
</svg>
