<?xml version="1.0" encoding="UTF-8" ?>
<!DOCTYPE svg PUBLIC "-//W3C//DTD SVG 1.1//EN" "http://www.w3.org/Graphics/SVG/1.1/DTD/svg11.dtd">
<svg width="195pt" height="225pt" viewBox="0 0 195 225" version="1.1" xmlns="http://www.w3.org/2000/svg"><g id="#212120ff">
<path fill="#333333" opacity="1.00" d=" M 108.13 39.32 C 110.85 32.05 119.88 28.55 127.05 30.93 C 133.58 35.18 134.59 43.81 134.12 50.93 C 133.45 54.51 134.64 57.99 135.61 61.39 C 139.85 63.65 143.74 66.50 147.01 70.02 C 150.37 71.13 153.95 71.90 156.73 74.29 C 160.47 77.92 162.57 82.90 163.77 87.91 C 164.67 91.84 167.98 94.84 168.11 99.02 C 168.50 103.89 169.64 108.64 172.19 112.85 C 173.62 120.22 172.16 127.73 170.16 134.86 C 168.65 139.60 170.89 144.60 169.19 149.28 C 167.70 153.03 167.73 157.58 164.58 160.50 C 160.85 164.76 154.10 165.39 149.38 162.45 C 149.15 159.65 149.43 156.85 149.39 154.05 C 146.07 153.68 142.78 153.08 140.24 150.72 C 142.62 148.59 145.57 147.69 148.67 147.23 C 151.30 145.39 154.14 143.77 156.47 141.52 C 159.29 132.65 158.95 123.00 157.00 113.99 C 157.13 113.22 157.28 112.46 157.46 111.71 C 153.57 109.28 151.29 105.35 149.51 101.27 C 148.66 106.26 147.39 111.31 144.71 115.65 C 143.23 118.35 142.71 121.43 141.50 124.24 C 142.80 127.64 142.05 131.32 142.25 134.85 C 140.35 138.49 140.66 142.72 139.44 146.55 C 138.34 149.21 136.32 151.33 134.55 153.56 C 132.81 155.82 131.23 158.30 128.92 160.05 C 127.00 160.67 124.95 160.46 122.97 160.47 C 119.78 164.02 115.31 166.17 110.57 166.63 C 109.12 169.04 107.38 171.26 105.95 173.69 C 103.69 178.08 102.20 183.19 98.10 186.30 C 93.73 189.75 88.61 192.05 83.61 194.42 C 80.59 195.92 78.33 198.49 75.60 200.39 C 71.00 202.31 65.93 205.09 60.86 203.24 C 56.53 200.88 57.46 195.17 58.15 191.14 C 59.45 187.62 60.22 183.92 61.81 180.51 C 62.26 176.64 58.48 174.52 57.40 171.17 C 55.28 165.59 52.75 160.16 50.08 154.84 C 48.26 152.28 44.51 153.83 43.10 156.04 C 41.58 158.39 39.52 160.28 37.69 162.35 C 37.21 164.19 36.91 166.08 36.80 167.98 C 38.49 173.93 41.33 179.45 44.69 184.62 C 46.39 187.07 45.65 190.27 46.16 193.05 C 46.27 195.71 48.12 197.76 49.52 199.87 C 51.55 200.59 53.64 200.25 55.63 199.58 C 56.40 200.02 57.17 200.49 57.93 200.96 C 54.77 201.56 50.85 203.46 48.06 200.89 C 43.14 198.00 42.67 191.95 41.96 186.90 C 39.74 181.47 35.85 176.68 35.31 170.66 C 32.51 167.71 35.06 163.77 36.20 160.63 C 39.09 159.03 39.78 155.29 42.66 153.70 C 45.12 152.48 48.03 150.18 50.67 152.28 C 54.12 153.96 54.32 158.04 56.07 160.99 C 58.06 164.58 59.05 168.60 60.45 172.43 C 60.32 169.03 60.34 165.42 62.62 162.66 C 62.70 157.65 67.01 152.36 72.46 154.16 C 73.68 151.37 74.03 148.22 75.92 145.75 C 75.56 144.11 75.21 142.48 74.83 140.85 C 76.09 136.77 78.94 133.55 81.65 130.37 C 81.32 130.18 80.65 129.79 80.32 129.59 C 83.30 128.92 84.37 125.70 85.84 123.39 C 88.79 121.43 91.83 119.59 94.82 117.69 C 95.50 117.62 96.87 117.50 97.55 117.44 C 98.01 115.47 98.81 113.62 99.91 111.94 C 99.75 108.17 98.86 104.51 98.12 100.83 C 97.69 102.09 97.24 103.35 96.79 104.61 C 93.82 107.01 91.83 110.36 89.02 112.90 C 85.95 114.66 82.11 114.16 79.04 116.01 C 71.54 119.95 63.10 116.60 55.17 116.77 C 52.26 117.27 49.30 117.41 46.35 117.27 C 45.06 121.43 40.11 121.51 36.55 121.15 C 33.30 120.27 29.40 120.72 26.90 118.08 C 23.89 115.01 21.74 110.71 22.00 106.33 C 19.25 106.20 16.29 106.62 13.85 105.07 C 16.38 103.84 19.21 104.63 21.89 104.59 C 22.13 99.70 24.43 94.61 29.05 92.48 C 33.96 91.88 39.16 91.30 44.00 92.59 C 45.74 92.78 45.56 94.81 46.00 96.02 C 47.58 96.72 49.34 97.19 50.64 98.39 C 51.68 99.73 52.26 101.37 53.38 102.66 C 59.79 104.84 65.66 100.06 72.02 100.11 C 74.24 100.12 76.46 99.89 78.67 99.61 C 79.34 96.75 79.56 93.68 81.12 91.11 C 83.27 87.02 86.91 84.08 89.99 80.74 C 90.90 78.18 90.52 75.25 91.79 72.82 C 93.73 70.50 96.34 68.85 98.66 66.93 C 100.54 65.11 103.41 65.71 105.57 64.45 C 107.14 63.47 108.57 62.30 110.11 61.26 C 109.46 58.08 107.14 55.34 107.50 51.97 C 107.82 47.75 106.01 43.29 108.13 39.32 M 113.90 34.91 C 108.90 38.66 109.00 45.58 109.44 51.18 C 109.72 55.15 112.85 58.09 113.31 62.01 C 114.93 63.43 116.53 65.49 118.98 64.95 C 122.74 64.32 125.29 61.12 127.95 58.68 C 127.34 63.14 122.99 65.54 119.09 66.69 C 115.94 67.60 113.65 64.78 111.03 63.65 C 108.95 64.09 107.46 65.67 105.72 66.74 C 103.17 67.38 100.51 67.33 97.91 67.59 C 95.90 70.39 93.63 73.03 91.94 76.05 C 91.52 78.17 91.80 80.36 91.78 82.51 C 86.69 85.42 83.74 90.79 81.72 96.10 C 83.35 96.43 84.48 97.59 85.45 98.86 C 84.77 99.84 84.09 100.83 83.41 101.82 C 83.00 100.05 82.59 98.28 82.13 96.53 C 81.19 98.15 80.43 99.91 79.14 101.30 C 75.38 102.05 71.50 101.47 67.70 101.70 C 63.17 105.26 57.20 105.75 51.73 104.55 C 50.90 102.80 50.30 100.95 49.62 99.14 C 47.77 98.44 45.82 98.19 43.88 98.67 C 42.57 99.96 40.81 100.21 39.08 100.41 C 38.24 105.75 39.38 111.13 39.24 116.49 C 34.51 118.11 29.06 115.49 26.90 111.13 C 24.62 107.15 25.93 102.30 27.14 98.19 C 30.05 94.19 35.30 96.06 39.44 95.80 C 39.65 96.49 40.07 97.88 40.28 98.57 C 40.88 98.54 42.08 98.46 42.68 98.42 C 42.60 97.39 42.45 95.31 42.38 94.27 C 38.60 94.01 34.80 93.45 31.03 93.93 C 27.45 94.69 25.16 97.75 23.45 100.75 C 24.13 104.06 24.03 107.44 24.35 110.78 C 25.31 112.94 26.99 114.67 28.23 116.66 C 32.32 119.52 37.26 119.56 42.05 119.50 C 43.01 118.62 43.97 117.75 44.94 116.87 C 42.94 116.58 40.90 116.26 39.32 114.88 C 43.93 114.96 48.54 114.96 53.13 114.43 C 60.48 113.81 67.87 116.51 75.15 114.69 C 78.58 113.97 82.15 113.81 85.50 112.73 C 88.06 110.95 90.33 108.76 92.52 106.55 C 95.63 102.93 99.73 99.59 100.45 94.57 C 101.20 94.13 101.95 93.68 102.69 93.23 C 100.55 91.65 99.38 89.22 98.01 87.01 C 97.02 92.94 93.61 98.72 88.84 102.37 C 90.31 98.55 93.17 95.49 94.86 91.78 C 95.84 89.50 98.19 87.53 97.41 84.84 C 96.54 80.84 99.47 77.35 102.25 74.88 C 101.50 76.05 100.64 77.15 99.79 78.25 C 100.47 80.28 97.82 81.47 98.51 83.32 C 99.45 86.24 100.60 89.11 102.42 91.62 C 103.37 91.96 104.33 92.29 105.29 92.63 C 105.42 92.98 105.69 93.68 105.83 94.03 C 104.63 94.74 103.40 95.42 102.28 96.25 C 101.24 98.04 101.15 100.20 100.55 102.16 C 102.03 105.69 100.95 109.93 103.60 112.97 C 103.06 113.39 102.51 113.81 101.97 114.23 C 107.69 114.65 112.99 117.09 118.71 117.57 C 118.40 117.09 117.78 116.12 117.47 115.63 C 116.01 114.86 114.56 114.07 113.10 113.31 C 110.48 113.48 107.22 113.87 105.47 111.44 C 108.06 111.58 110.67 111.85 113.27 111.49 C 112.92 110.16 112.60 108.83 112.30 107.50 C 111.61 106.66 110.91 105.82 110.22 104.99 C 108.81 105.34 107.39 105.68 105.96 105.94 C 107.78 104.11 110.30 103.44 112.70 102.75 C 113.00 102.10 113.59 100.78 113.89 100.12 C 112.77 99.15 111.73 97.63 110.01 98.01 C 107.88 98.15 108.19 100.67 107.57 102.13 C 106.44 102.56 105.29 102.96 104.15 103.35 C 105.78 101.59 106.90 99.45 108.37 97.56 C 109.92 95.87 112.12 97.45 113.94 97.75 C 115.74 97.07 117.83 96.07 119.57 97.51 C 121.77 98.39 122.07 100.95 123.38 102.65 C 124.82 104.43 126.83 105.64 128.36 107.34 C 129.16 109.24 129.11 111.37 129.28 113.40 C 128.89 113.43 128.09 113.50 127.69 113.53 C 127.90 112.23 128.12 110.92 128.25 109.61 C 127.14 107.54 125.17 106.09 123.75 104.23 C 121.65 102.01 120.21 98.52 116.74 98.27 C 114.74 100.44 113.20 103.32 114.96 106.13 C 113.29 107.76 113.59 109.80 115.13 111.40 C 116.56 113.69 119.06 114.81 121.37 116.03 C 120.35 116.63 119.35 117.25 118.36 117.88 C 126.41 118.88 134.21 122.04 139.82 128.05 C 139.02 123.21 141.95 118.85 143.37 114.40 C 145.60 108.79 146.56 102.81 148.40 97.07 C 148.25 95.22 148.47 92.03 146.02 91.76 C 145.65 91.82 144.92 91.96 144.55 92.03 C 140.75 94.96 137.48 99.87 132.00 99.09 C 126.35 98.06 120.05 97.30 115.97 92.79 C 115.41 89.76 114.27 85.88 116.66 83.37 C 117.62 79.91 117.90 76.31 118.75 72.82 C 114.97 70.05 110.30 70.58 105.96 71.22 C 110.03 68.55 116.11 68.38 119.29 72.53 C 122.02 70.25 125.97 70.05 129.16 71.40 C 126.92 71.92 124.65 72.31 122.39 72.73 C 121.84 73.18 120.75 74.08 120.20 74.53 C 119.47 77.21 119.02 79.94 118.65 82.69 C 118.20 82.93 117.30 83.43 116.84 83.67 C 116.96 86.72 116.00 90.89 119.09 92.81 C 123.04 96.46 128.67 97.41 133.84 96.76 C 136.90 95.79 138.91 93.12 141.49 91.36 C 143.50 90.01 144.73 87.90 145.99 85.89 C 145.79 87.30 145.72 88.70 145.80 90.10 C 146.27 90.65 147.20 91.73 147.66 92.28 C 148.50 91.89 150.16 91.13 150.99 90.74 C 152.31 91.37 153.64 91.99 154.97 92.61 C 154.87 92.82 154.65 93.24 154.54 93.45 C 152.79 92.68 150.35 91.32 149.19 93.72 C 148.71 96.98 151.69 99.41 152.18 102.53 C 153.02 107.31 157.75 109.85 161.82 111.55 C 162.02 110.14 162.23 108.72 162.44 107.31 C 162.85 107.10 163.67 106.70 164.08 106.49 C 163.52 109.25 163.16 112.05 162.55 114.80 C 160.95 115.18 160.18 113.05 158.92 112.45 C 158.83 117.74 161.84 122.58 161.23 127.91 C 160.70 133.24 159.90 138.72 157.52 143.56 C 153.23 146.42 148.75 149.17 143.95 151.16 C 146.49 151.23 149.03 151.10 151.58 151.11 C 151.80 154.06 151.35 157.09 152.07 159.98 C 154.89 163.43 160.06 161.21 162.90 158.87 C 165.38 155.91 166.46 152.08 167.76 148.51 C 169.28 145.11 167.26 141.51 168.00 138.00 C 168.31 134.22 170.53 130.92 170.72 127.12 C 171.12 121.45 171.68 115.57 169.87 110.07 C 168.93 107.77 167.28 105.72 167.10 103.16 C 166.71 98.61 165.06 94.25 162.60 90.42 C 161.10 88.07 161.44 85.10 160.33 82.60 C 158.71 79.68 156.59 77.02 154.04 74.86 C 150.75 72.62 146.13 72.76 143.46 69.56 C 140.82 66.46 137.57 63.98 133.98 62.09 C 133.37 58.70 131.53 55.41 132.20 51.90 C 133.09 47.47 131.33 43.18 130.70 38.85 C 130.36 35.95 128.22 33.72 125.88 32.19 C 121.78 30.45 117.33 32.69 113.90 34.91 M 27.85 100.03 C 25.51 104.77 27.80 110.18 30.64 114.16 C 32.89 114.51 35.15 114.82 37.42 115.03 C 35.49 109.88 34.84 103.05 38.61 98.57 C 38.18 97.87 37.31 96.48 36.88 95.79 C 33.76 96.79 30.21 97.65 27.85 100.03 M 101.34 117.17 C 101.03 117.66 100.41 118.62 100.10 119.11 C 98.06 119.53 95.91 119.89 94.18 121.16 C 91.03 123.29 87.09 124.21 84.68 127.37 C 87.10 126.96 89.57 126.15 92.03 126.82 C 95.93 127.24 98.86 130.06 102.01 132.10 C 103.74 132.93 103.71 134.93 103.91 136.56 C 108.13 130.63 116.98 130.39 122.32 134.74 C 124.61 137.40 127.43 140.20 127.64 143.91 C 127.83 148.38 130.05 152.85 128.19 157.23 C 129.99 154.65 131.67 151.81 134.56 150.31 C 136.19 147.29 138.10 144.35 139.10 141.05 C 139.51 137.67 139.52 134.26 139.28 130.87 C 136.35 128.52 134.15 125.20 130.92 123.30 C 121.09 121.15 111.60 116.49 101.34 117.17 M 85.03 128.98 C 83.06 130.78 82.18 133.46 80.68 135.63 C 78.89 138.30 77.08 141.30 77.77 144.68 C 80.13 143.43 82.61 142.43 85.21 141.78 C 85.01 142.52 84.62 143.99 84.43 144.73 C 84.98 146.12 85.32 147.58 85.92 148.96 C 87.63 150.40 89.82 151.05 91.76 152.11 C 89.68 151.91 87.26 152.11 85.57 150.65 C 84.50 148.33 84.24 145.74 83.35 143.36 C 81.78 144.16 80.14 144.84 78.63 145.76 C 74.72 147.56 76.47 153.11 72.75 155.30 C 72.90 155.86 73.19 156.98 73.34 157.54 C 75.19 159.08 77.24 160.41 78.86 162.20 C 80.17 164.11 80.79 166.38 81.77 168.47 C 83.21 165.58 84.88 162.72 87.49 160.73 C 92.92 156.81 95.82 150.32 97.25 143.96 C 97.96 140.79 100.34 138.24 103.25 136.92 C 101.90 135.23 100.70 133.38 99.02 131.97 C 95.57 128.20 89.72 127.80 85.03 128.98 M 104.51 138.27 C 100.90 140.35 98.83 144.11 97.54 147.93 C 100.31 146.47 104.87 143.29 107.42 146.69 C 103.83 147.13 100.28 148.01 97.43 150.35 C 96.32 153.13 95.37 156.05 93.56 158.48 C 91.26 160.96 87.83 162.19 85.80 164.95 C 84.69 167.13 83.59 169.32 82.56 171.53 C 81.08 176.62 81.20 182.13 78.95 187.00 C 78.54 188.15 77.45 188.84 76.24 188.60 C 76.88 185.64 78.77 183.09 79.13 180.06 C 79.70 175.29 80.85 170.07 78.17 165.71 C 76.65 161.33 71.87 159.61 69.82 155.58 C 69.21 155.81 67.98 156.28 67.36 156.52 C 66.60 157.75 65.80 158.96 64.98 160.16 C 65.19 161.21 65.41 162.26 65.63 163.32 C 60.96 169.63 65.82 177.89 63.93 184.92 C 63.23 187.11 61.46 188.79 60.93 191.05 C 60.32 195.01 59.68 200.21 64.08 202.19 C 68.55 200.21 73.99 200.18 77.56 196.52 C 82.43 192.14 88.55 189.58 93.94 185.94 C 97.94 182.76 101.87 178.91 103.34 173.87 C 104.48 170.80 106.38 168.01 108.56 165.60 C 111.22 164.05 114.46 163.75 117.04 162.02 C 119.14 160.58 121.08 158.93 123.03 157.30 C 123.35 157.76 123.98 158.66 124.29 159.11 C 125.38 157.21 126.49 155.32 127.48 153.37 C 126.47 149.25 125.32 145.17 124.49 141.02 C 122.61 136.47 117.85 133.40 113.00 133.15 C 109.31 133.00 107.38 136.60 104.51 138.27 Z" />
<path fill="#333333" opacity="1.00" d=" M 0.00 103.41 C 4.91 103.68 9.83 103.81 14.74 103.82 C 14.11 104.46 13.47 105.09 12.84 105.73 C 8.57 105.43 4.28 105.26 0.00 105.17 L 0.00 103.41 Z" />
<path fill="#333333" opacity="1.00" d=" M 78.12 103.29 C 81.72 104.14 85.90 105.76 86.15 110.10 C 83.86 107.37 81.50 104.65 78.12 103.29 Z" />
<path fill="#333333" opacity="1.00" d=" M 130.43 108.89 C 132.84 106.78 135.98 105.89 138.83 104.56 C 139.82 105.11 140.82 105.66 141.83 106.20 L 141.16 107.70 C 141.87 107.74 143.28 107.82 143.99 107.86 C 143.09 108.83 142.17 109.77 141.22 110.68 C 141.46 111.43 141.70 112.17 141.93 112.92 C 138.21 112.27 133.32 115.18 130.60 111.54 C 133.94 111.41 137.24 110.97 140.52 110.34 C 139.59 109.26 138.65 108.18 137.73 107.10 C 135.34 107.87 132.94 108.64 130.43 108.89 Z" />
<path fill="#333333" opacity="1.00" d=" M 112.04 151.09 C 115.10 149.26 118.87 148.75 121.39 146.03 C 121.20 150.73 115.66 151.27 112.04 151.09 Z" />
<path fill="#333333" opacity="1.00" d=" M 106.98 147.63 C 110.23 149.53 110.11 153.59 109.99 156.88 C 109.00 153.79 108.03 150.69 106.98 147.63 Z" />
<path fill="#333333" opacity="1.00" d=" M 106.12 162.35 C 109.22 159.48 112.86 156.67 117.34 156.87 C 114.05 159.45 109.89 160.65 106.12 162.35 Z" />
<path fill="#333333" opacity="1.00" d=" M 90.59 169.39 C 92.36 166.51 94.04 163.57 95.80 160.69 C 96.15 164.50 94.47 168.78 91.01 170.69 C 88.62 172.26 86.19 173.78 84.01 175.64 C 83.82 175.49 83.43 175.18 83.24 175.02 C 84.68 174.00 86.11 172.96 87.56 171.96 C 88.55 171.07 89.55 170.21 90.59 169.39 Z" />
<path fill="#333333" opacity="1.00" d=" M 53.01 183.14 C 52.14 179.47 51.39 175.62 51.98 171.84 C 52.83 176.39 54.01 180.86 55.35 185.28 C 54.53 184.65 53.09 184.41 53.01 183.14 Z" />
</g>
</svg>
