<?xml version="1.0" encoding="UTF-8" ?>
<!DOCTYPE svg PUBLIC "-//W3C//DTD SVG 1.1//EN" "http://www.w3.org/Graphics/SVG/1.1/DTD/svg11.dtd">
<svg width="221pt" height="275pt" viewBox="0 0 221 275" version="1.1" xmlns="http://www.w3.org/2000/svg"><g id="#3c3d3bff">
<path fill="#333333" opacity="1.00" d=" M 92.00 30.04 C 96.97 25.26 104.73 26.63 110.03 30.04 C 112.89 32.97 113.19 37.29 113.87 41.11 C 113.25 44.77 113.82 48.45 114.02 52.10 C 113.52 54.81 112.80 57.58 111.14 59.83 C 113.03 60.66 114.83 61.67 116.75 62.44 C 120.02 63.18 124.03 62.65 126.41 65.51 C 129.62 69.24 132.00 74.46 130.55 79.42 C 132.09 81.70 133.60 84.03 134.49 86.65 C 135.04 86.93 136.15 87.51 136.71 87.79 C 138.24 85.69 139.25 83.30 139.95 80.81 C 136.68 77.89 133.82 73.81 134.75 69.18 C 136.30 66.87 137.87 64.48 140.08 62.73 C 139.67 64.55 138.83 66.22 138.04 67.90 C 141.72 69.29 141.86 73.57 143.26 76.68 C 145.74 77.29 148.25 77.97 150.82 77.60 C 148.80 74.48 151.92 73.77 153.78 74.60 C 154.41 73.35 151.87 73.27 151.96 71.99 C 151.95 70.28 152.80 68.69 153.19 67.05 C 151.72 65.10 150.12 63.21 148.02 61.90 C 145.39 62.00 142.92 63.02 140.31 63.25 C 142.84 60.48 147.34 60.83 150.70 61.60 C 152.48 62.84 154.24 64.23 156.56 63.95 C 156.58 64.88 156.61 65.80 156.64 66.73 C 158.97 70.46 158.10 75.06 156.61 78.92 C 155.81 81.25 153.22 81.94 151.66 83.56 C 152.01 86.28 152.52 88.98 152.96 91.69 C 152.36 91.53 151.16 91.22 150.55 91.06 C 150.87 89.36 150.76 87.63 150.63 85.92 C 149.40 94.84 146.39 104.39 138.88 110.00 C 137.19 112.11 134.00 112.88 131.75 111.20 C 129.12 109.24 125.99 107.82 123.86 105.29 L 124.11 103.67 C 123.33 103.77 122.55 103.87 121.77 103.97 C 120.57 109.89 121.02 116.01 122.19 121.89 C 122.99 123.30 124.22 124.42 124.95 125.89 C 125.64 128.33 124.52 130.69 124.06 133.05 C 125.10 137.41 127.89 141.39 127.55 146.04 C 127.38 149.55 129.37 152.51 131.39 155.17 C 130.83 155.46 129.69 156.04 129.13 156.33 C 129.97 160.84 130.14 165.43 130.02 170.00 C 129.71 173.11 132.21 175.80 131.53 178.92 C 129.96 185.16 129.93 191.81 131.35 198.10 C 132.16 204.95 131.28 211.91 132.31 218.75 C 132.83 220.68 133.22 222.95 135.08 224.10 C 138.93 226.85 141.01 231.50 145.25 233.78 C 147.27 235.06 150.23 234.14 151.79 236.19 C 152.65 237.15 153.48 238.14 154.29 239.16 C 152.88 242.66 149.06 243.54 145.90 244.78 C 143.93 245.08 141.97 244.23 139.98 244.27 C 136.07 244.32 133.10 240.41 129.05 241.18 C 125.50 241.77 121.36 242.32 118.57 239.47 C 116.29 231.62 122.12 224.08 120.44 216.16 C 120.20 210.91 116.53 206.89 114.98 202.07 C 114.53 197.34 115.23 192.56 116.07 187.90 C 116.54 188.71 117.00 189.52 117.46 190.35 C 116.44 194.58 117.56 198.84 118.10 203.04 C 118.39 206.62 121.46 209.23 121.82 212.81 C 122.19 216.82 122.29 220.91 121.95 224.93 C 120.61 229.14 120.04 233.60 120.16 238.02 C 120.33 239.23 121.79 239.94 122.91 239.98 C 125.88 240.18 128.84 239.60 131.81 239.76 C 134.52 239.76 136.77 241.46 139.13 242.55 C 141.79 242.37 144.43 243.14 147.07 242.89 C 148.84 242.09 150.45 241.02 152.17 240.13 C 151.46 239.14 150.74 238.15 150.02 237.19 C 145.88 236.93 141.89 234.99 139.46 231.58 C 137.25 228.46 134.32 225.98 131.64 223.30 C 128.21 214.84 131.06 205.66 129.01 196.98 C 127.80 192.69 128.95 188.29 128.94 183.94 C 129.89 180.05 130.78 175.81 128.47 172.17 C 126.71 174.36 125.45 178.07 122.03 177.77 C 119.63 176.62 119.32 173.65 118.36 171.45 C 118.56 171.42 118.95 171.36 119.15 171.34 C 119.79 173.60 121.27 176.32 123.97 176.29 C 125.86 174.59 126.22 171.92 126.94 169.60 C 127.45 169.61 128.47 169.64 128.97 169.65 C 128.67 165.31 128.48 160.97 128.19 156.64 C 124.16 159.93 119.29 162.75 113.93 162.68 C 111.44 162.80 109.55 160.51 107.04 160.69 C 110.54 164.76 113.63 169.20 116.03 174.00 C 116.97 176.97 116.34 180.28 117.88 183.09 C 119.02 185.91 121.83 189.14 119.22 192.03 C 117.49 188.65 116.04 185.15 114.44 181.72 C 113.17 179.05 113.83 175.94 112.87 173.20 C 111.55 170.55 109.81 168.14 108.23 165.64 C 107.53 164.58 105.33 162.72 104.78 165.22 C 103.74 168.38 104.31 171.91 103.24 175.12 C 102.60 179.60 98.80 182.73 98.03 187.15 C 96.77 190.72 95.41 194.28 94.82 198.04 C 94.32 203.17 95.80 208.47 94.26 213.51 C 90.75 221.92 89.84 231.84 93.26 240.44 C 96.17 243.80 97.29 248.36 100.52 251.46 C 102.04 253.03 103.14 254.95 104.49 256.67 C 105.37 259.52 103.94 262.75 100.46 262.07 C 95.43 266.02 87.26 264.78 83.24 259.90 C 81.99 257.93 82.56 255.37 81.62 253.27 C 80.54 250.66 78.84 248.05 79.68 245.10 C 79.14 243.47 78.59 241.85 78.08 240.21 C 80.73 232.14 77.84 223.89 75.96 216.02 C 73.98 208.62 77.72 201.50 79.73 194.57 C 80.12 191.04 80.14 187.45 80.91 183.96 C 81.43 180.60 83.45 177.51 83.01 174.01 C 82.72 170.31 82.36 166.58 83.08 162.91 C 82.54 163.27 81.46 163.99 80.92 164.35 C 79.59 162.61 77.47 161.11 77.61 158.67 C 79.73 157.28 80.68 154.95 80.73 152.49 C 80.89 147.54 82.98 142.91 83.12 137.96 C 83.47 137.81 84.18 137.52 84.53 137.37 C 85.62 143.11 82.64 148.32 82.18 153.94 C 81.92 156.88 78.40 159.66 81.46 162.23 C 82.56 160.58 82.80 157.98 85.07 157.53 C 85.08 159.35 85.07 161.17 85.05 162.99 C 88.30 164.15 91.41 166.18 94.98 166.02 C 98.55 165.86 102.07 164.70 104.97 162.59 C 105.29 160.43 105.41 158.24 105.79 156.10 C 107.58 154.13 110.57 153.97 113.05 153.53 C 114.32 151.15 115.65 148.76 117.61 146.87 C 117.13 149.74 116.12 152.83 113.94 154.85 C 111.12 155.53 107.47 155.96 106.80 159.44 C 110.57 159.55 114.30 161.85 118.07 160.46 C 122.61 159.31 125.42 155.15 129.79 153.63 C 126.76 150.55 127.30 146.01 125.63 142.29 C 124.50 139.51 123.35 136.74 122.04 134.04 C 123.48 130.43 123.93 126.30 120.84 123.37 C 119.70 124.97 119.27 127.44 117.09 127.94 C 111.05 130.05 104.14 131.60 97.96 129.23 C 100.53 128.17 103.30 128.53 106.00 128.42 C 110.31 128.36 114.41 126.93 118.55 125.90 C 118.85 125.21 119.45 123.83 119.75 123.14 C 114.16 124.34 108.69 126.97 102.84 125.96 C 102.39 126.27 101.48 126.88 101.03 127.18 C 99.01 127.10 96.99 127.04 94.98 127.01 C 95.27 129.23 95.29 131.48 95.03 133.70 C 95.73 132.98 97.13 131.54 97.83 130.81 C 97.22 132.02 96.58 133.22 95.91 134.40 C 92.23 134.72 90.55 139.44 86.55 138.87 C 87.70 137.79 89.06 137.01 90.37 136.16 C 88.00 135.76 85.63 135.29 83.37 134.47 C 85.27 134.37 87.17 134.42 89.08 134.39 C 90.29 134.07 91.50 133.74 92.71 133.42 C 92.98 132.17 93.27 130.93 93.56 129.69 C 92.40 127.00 90.82 124.52 89.08 122.17 C 86.88 122.18 84.78 121.56 84.48 119.06 C 81.75 119.02 78.68 119.59 76.32 117.87 C 72.09 114.79 67.79 111.08 66.45 105.81 C 64.66 101.30 65.09 96.16 62.30 92.06 C 64.40 92.96 65.63 94.85 66.69 96.77 C 70.50 93.12 74.17 89.07 76.09 84.07 C 76.98 81.47 79.06 79.66 81.31 78.24 C 81.73 78.48 82.57 78.97 82.99 79.21 C 77.92 81.37 77.62 87.55 73.94 91.12 C 74.08 94.39 76.86 96.80 78.78 99.23 C 79.32 102.00 80.90 104.31 82.73 106.39 C 83.23 108.57 82.85 110.93 83.77 113.03 C 84.65 115.22 85.74 117.38 85.82 119.80 C 88.20 120.68 91.61 120.36 92.88 123.02 C 93.19 123.92 93.81 125.70 94.12 126.59 C 94.55 126.00 94.98 125.42 95.41 124.83 C 97.32 124.99 99.24 125.09 101.16 125.09 C 101.02 122.56 99.70 120.43 98.07 118.59 C 97.91 117.89 97.76 117.19 97.61 116.49 C 95.65 115.47 94.63 113.56 93.76 111.64 C 97.54 113.43 99.24 117.22 101.87 120.21 C 102.12 121.77 102.43 123.32 102.72 124.87 C 107.35 123.63 112.09 122.74 116.87 122.39 C 117.92 121.75 118.98 121.13 120.04 120.51 C 120.28 116.12 119.55 111.75 119.33 107.37 C 118.84 107.84 117.85 108.77 117.35 109.24 C 119.61 112.78 118.29 117.24 118.06 121.15 C 114.89 119.53 117.54 115.03 116.36 112.17 C 115.36 109.69 116.50 107.06 119.04 106.18 C 120.71 103.39 122.63 100.41 122.32 97.01 C 121.96 93.70 121.00 90.51 120.63 87.20 C 119.35 84.80 116.52 86.32 114.48 86.40 C 115.87 84.33 119.14 83.37 121.04 85.30 C 121.58 83.26 122.18 81.25 122.80 79.23 C 123.29 80.59 123.74 81.95 124.19 83.32 C 121.97 84.27 121.96 86.35 122.20 88.40 C 125.51 89.94 125.54 94.94 129.61 95.63 C 130.73 93.66 131.95 91.75 133.08 89.78 C 133.54 84.88 127.84 81.94 128.89 77.00 C 129.53 72.28 126.32 68.27 122.90 65.48 C 120.89 65.06 118.83 65.14 116.80 65.09 C 114.52 63.41 112.21 61.55 109.27 61.29 C 108.06 63.97 108.01 66.91 107.98 69.80 C 105.51 67.05 106.45 61.51 109.96 59.91 C 105.10 60.68 100.32 59.49 96.17 56.94 C 95.83 53.53 94.02 50.53 91.69 48.10 C 91.16 48.99 90.61 49.88 90.03 50.75 C 89.44 47.39 87.94 44.29 87.19 40.98 C 87.51 36.98 88.13 32.20 92.00 30.04 M 96.71 28.78 C 93.96 30.62 90.13 31.96 89.54 35.67 C 88.12 39.21 90.07 42.76 90.60 46.25 C 90.71 45.61 90.92 44.33 91.02 43.69 C 91.99 45.46 92.93 47.25 93.90 49.03 C 94.78 48.99 96.53 48.91 97.41 48.87 C 97.06 49.55 96.37 50.91 96.03 51.60 C 96.68 53.00 97.01 54.65 98.14 55.77 C 100.88 58.61 105.12 58.12 108.63 59.17 C 109.74 58.16 110.87 57.15 111.94 56.08 C 111.28 49.72 111.85 43.33 111.74 36.96 C 111.93 33.37 108.56 31.22 106.19 29.11 C 103.09 28.95 99.60 26.84 96.71 28.78 M 154.71 66.80 C 154.55 69.79 154.25 72.82 154.95 75.77 C 154.66 75.89 154.10 76.12 153.82 76.23 C 151.50 79.77 146.44 79.58 143.02 77.91 C 140.81 76.81 140.25 74.21 139.55 72.07 L 138.95 72.30 C 138.34 71.06 137.42 70.20 136.18 69.70 C 135.62 73.86 139.08 76.60 141.51 79.42 C 142.77 81.10 145.06 80.96 146.93 81.06 C 149.67 80.93 152.80 80.96 154.99 79.06 C 155.97 77.51 156.50 75.72 157.26 74.06 C 156.69 71.55 156.86 68.64 154.71 66.80 M 141.16 81.85 C 141.12 82.63 141.05 84.18 141.02 84.95 C 136.86 91.18 129.72 94.99 126.94 102.17 C 127.01 100.29 127.50 98.46 128.17 96.72 C 126.21 94.66 124.40 92.48 122.66 90.24 C 123.74 94.44 124.78 98.89 122.96 103.08 L 124.58 102.23 C 125.14 103.35 125.70 104.48 126.28 105.59 C 129.84 106.95 132.35 111.12 136.55 110.06 C 139.71 106.64 143.57 103.63 145.07 99.02 C 147.67 94.12 148.14 88.60 149.12 83.24 C 148.15 83.18 146.22 83.06 145.25 83.00 C 145.63 87.40 143.88 91.60 144.22 95.98 C 142.68 91.87 143.80 87.49 144.23 83.29 C 143.20 82.82 142.18 82.34 141.16 81.85 M 66.82 98.27 C 67.44 101.73 67.78 105.34 69.50 108.47 C 71.66 113.67 77.75 116.05 83.07 116.10 C 81.99 112.51 81.51 108.62 79.33 105.48 C 78.07 103.66 77.32 101.58 76.76 99.46 C 74.78 97.72 73.12 95.56 72.72 92.88 C 71.07 95.00 69.04 96.78 66.82 98.27 M 84.02 164.72 C 84.27 168.52 85.03 172.28 84.96 176.10 C 84.03 180.47 81.78 184.55 81.68 189.11 C 82.43 194.50 83.92 199.74 85.44 204.95 C 82.41 203.31 82.72 199.20 81.04 196.55 C 78.36 202.39 75.99 208.93 77.35 215.45 C 78.84 222.51 81.97 229.64 80.55 236.97 C 78.66 244.44 84.85 250.85 85.05 258.20 C 88.02 262.63 94.75 263.93 98.82 260.24 C 96.95 256.21 92.64 260.29 89.61 258.30 C 88.65 258.47 87.69 258.65 86.73 258.82 C 86.93 258.42 87.33 257.60 87.53 257.20 C 90.31 256.84 93.16 257.12 95.93 256.59 C 98.39 255.74 99.10 258.70 100.08 260.24 C 101.34 259.90 102.58 259.52 103.82 259.12 C 102.08 255.70 99.48 252.91 97.06 250.00 C 94.70 245.03 90.70 240.77 89.86 235.17 C 88.57 228.49 88.56 221.23 91.48 214.96 C 93.71 210.71 92.90 205.81 92.86 201.22 C 89.33 205.64 89.98 211.42 88.88 216.62 C 87.16 215.29 87.65 213.05 87.73 211.19 C 88.06 206.41 90.33 202.11 92.59 197.99 C 94.35 192.70 95.82 187.26 98.20 182.21 C 101.55 177.62 102.36 171.89 103.11 166.41 C 99.43 167.18 95.66 168.45 91.87 167.78 C 89.18 166.95 86.68 165.61 84.02 164.72 Z" />
<path fill="#333333" opacity="1.00" d=" M 90.64 51.04 C 91.09 50.93 92.01 50.70 92.47 50.59 C 91.78 52.69 92.02 55.51 90.04 56.97 C 87.44 59.43 83.90 60.80 81.88 63.88 C 80.23 64.36 78.57 64.78 76.93 65.29 C 76.46 65.18 75.51 64.96 75.04 64.84 C 69.85 66.77 68.24 72.20 65.68 76.55 C 63.62 78.21 61.44 79.73 59.46 81.49 C 54.89 87.65 51.40 94.61 49.15 101.92 C 50.89 104.10 53.39 105.69 54.55 108.29 C 55.64 110.52 56.95 112.63 58.39 114.65 C 59.75 116.46 62.09 117.00 63.83 118.36 C 66.24 119.85 67.77 122.68 70.71 123.24 C 72.32 124.21 73.94 125.15 75.59 126.07 C 76.36 124.33 77.18 122.61 78.10 120.94 C 78.51 121.07 79.34 121.33 79.75 121.47 C 78.83 122.53 77.92 123.60 76.98 124.66 C 77.21 125.90 77.44 127.14 77.67 128.38 C 79.24 130.83 81.07 133.09 83.01 135.26 C 80.17 134.99 77.73 133.12 76.64 130.49 C 75.93 128.12 73.26 127.66 71.51 126.30 C 69.29 125.21 67.10 124.05 64.98 122.78 C 65.24 122.47 65.78 121.85 66.05 121.54 L 62.77 122.14 C 63.34 121.67 64.47 120.74 65.04 120.28 C 64.30 119.90 62.82 119.14 62.08 118.76 L 61.33 117.86 L 60.16 117.34 C 60.27 117.92 60.50 119.07 60.61 119.65 C 58.64 118.17 56.86 116.46 55.06 114.78 C 53.39 110.51 51.08 106.56 48.39 102.86 C 46.67 98.49 50.88 94.93 52.31 91.13 C 54.09 85.20 57.61 78.81 63.62 76.46 C 66.53 72.91 67.86 68.31 70.96 64.93 C 74.11 62.71 78.29 63.05 81.83 61.70 C 84.78 58.09 90.34 56.36 90.64 51.04 Z" />
<path fill="#333333" opacity="1.00" d=" M 92.12 52.96 C 94.18 53.95 94.68 56.26 95.46 58.18 C 96.25 61.00 98.25 63.26 99.14 66.05 C 95.94 62.19 94.15 57.48 92.12 52.96 Z" />
<path fill="#333333" opacity="1.00" d=" M 81.41 64.98 C 84.58 64.52 87.61 65.54 90.28 67.18 L 89.43 68.17 C 94.40 67.12 99.77 66.31 104.53 68.69 C 106.39 69.44 106.87 71.60 107.02 73.39 C 105.06 72.25 103.67 70.39 101.79 69.15 C 98.30 68.53 94.74 68.85 91.22 68.58 C 90.91 68.71 90.29 68.99 89.98 69.13 C 90.07 71.65 88.77 74.54 86.06 75.01 C 87.09 73.14 88.29 71.36 89.28 69.47 C 86.85 67.62 83.85 66.77 81.41 64.98 Z" />
<path fill="#333333" opacity="1.00" d=" M 107.84 70.13 C 108.93 69.07 110.04 68.03 111.13 66.97 C 111.97 66.98 113.66 66.98 114.50 66.99 C 113.58 69.77 110.01 69.03 107.84 70.13 Z" />
<path fill="#333333" opacity="1.00" d=" M 104.44 87.65 C 106.93 86.86 107.71 84.19 108.93 82.19 C 111.53 84.47 108.38 86.89 107.06 88.85 C 103.55 89.34 100.15 90.93 96.53 90.27 C 94.16 90.20 92.49 88.37 90.86 86.89 C 92.71 86.93 94.79 86.97 95.59 88.99 C 98.59 89.01 101.61 88.67 104.44 87.65 Z" />
<path fill="#333333" opacity="1.00" d=" M 82.81 83.87 C 85.52 84.63 87.70 86.42 89.54 88.49 C 91.46 90.76 94.55 91.86 96.03 94.52 C 95.65 94.71 94.90 95.10 94.52 95.30 C 90.95 91.18 86.62 87.77 82.81 83.87 Z" />
<path fill="#333333" opacity="1.00" d=" M 109.82 86.88 C 111.44 86.85 113.05 86.91 114.67 87.02 C 115.52 88.23 116.62 89.22 117.78 90.14 C 117.05 90.74 116.31 91.35 115.62 92.00 C 115.98 92.54 116.69 93.60 117.04 94.13 C 115.80 93.00 114.74 91.70 113.61 90.46 C 114.34 89.99 115.06 89.50 115.78 89.01 C 113.72 88.53 111.71 87.83 109.82 86.88 Z" />
<path fill="#333333" opacity="1.00" d=" M 106.89 89.98 C 108.87 90.44 111.09 91.12 111.37 93.48 C 111.95 96.93 115.74 97.42 117.46 99.95 C 115.23 100.33 113.39 99.69 113.28 97.09 C 112.60 97.78 111.92 98.48 111.26 99.18 L 110.63 98.74 C 109.13 100.44 106.25 99.91 105.09 102.00 C 103.91 103.16 102.92 105.44 100.92 104.97 C 97.62 103.65 94.66 101.62 91.82 99.52 C 89.22 101.58 85.91 99.59 84.13 97.40 C 85.70 97.79 87.26 98.21 88.81 98.68 C 89.79 98.04 90.81 97.44 91.84 96.88 C 93.61 99.16 96.21 100.52 98.10 102.67 C 98.78 102.88 100.14 103.29 100.82 103.50 C 103.12 101.13 105.40 97.94 109.19 98.75 C 110.10 97.37 111.25 95.74 110.06 94.14 C 109.13 92.65 107.57 91.64 106.89 89.98 Z" />
<path fill="#333333" opacity="1.00" d=" M 102.94 94.65 C 103.82 93.49 103.75 90.90 105.67 91.17 C 106.49 92.69 105.28 94.34 104.98 95.86 C 101.98 96.39 100.03 98.76 97.78 100.58 C 97.31 97.23 100.43 95.76 102.94 94.65 Z" />
<path fill="#333333" opacity="1.00" d=" M 152.31 96.65 C 151.70 95.52 151.16 92.68 152.69 92.35 C 153.33 93.47 153.87 96.32 152.31 96.65 Z" />
<path fill="#333333" opacity="1.00" d=" M 116.60 95.67 C 118.62 95.99 120.95 96.60 121.36 98.96 C 119.66 98.12 116.97 98.02 116.60 95.67 Z" />
<path fill="#333333" opacity="1.00" d=" M 152.07 97.35 C 152.66 97.49 153.85 97.77 154.44 97.91 C 154.33 99.83 154.59 101.73 154.98 103.61 C 157.56 118.61 160.06 133.62 162.63 148.63 C 162.10 149.43 161.56 150.23 161.02 151.02 C 158.24 133.10 155.03 115.24 152.07 97.35 Z" />
<path fill="#333333" opacity="1.00" d=" M 83.93 103.90 C 83.85 102.50 83.62 101.05 84.09 99.70 C 83.99 101.76 84.92 103.77 87.17 103.95 C 88.96 103.42 90.77 102.90 92.65 102.86 C 94.07 104.80 95.69 106.57 97.18 108.45 C 95.05 107.81 93.15 106.64 91.26 105.50 C 88.65 106.08 86.00 105.65 83.93 103.90 Z" />
<path fill="#333333" opacity="1.00" d=" M 111.38 101.40 C 113.99 104.13 113.17 108.80 110.10 110.82 C 108.59 111.82 106.77 111.21 105.10 111.32 C 103.72 112.09 102.40 113.04 100.78 113.27 C 102.76 110.83 105.66 107.40 108.96 109.97 C 110.83 107.49 110.90 104.33 111.38 101.40 Z" />
<path fill="#333333" opacity="1.00" d=" M 96.94 109.58 C 98.69 108.95 100.87 112.18 99.19 113.27 C 97.88 112.81 96.48 110.96 96.94 109.58 Z" />
<path fill="#333333" opacity="1.00" d=" M 110.14 120.15 C 110.67 118.14 111.57 115.61 114.12 115.75 C 113.01 117.40 111.75 118.97 110.14 120.15 Z" />
<path fill="#333333" opacity="1.00" d=" M 62.65 120.33 C 63.04 120.74 63.04 120.74 62.65 120.33 Z" />
<path fill="#333333" opacity="1.00" d=" M 80.74 125.10 C 82.42 124.32 84.04 123.42 85.73 122.68 C 84.21 124.69 82.06 126.35 81.68 129.00 C 81.28 129.21 80.50 129.63 80.10 129.84 C 79.86 128.22 80.27 126.64 80.74 125.10 Z" />
<path fill="#333333" opacity="1.00" d=" M 101.03 136.41 C 106.92 134.40 113.08 133.04 119.31 132.83 C 119.34 133.88 119.37 134.93 119.42 135.98 C 113.77 138.08 108.29 140.57 102.87 143.18 C 106.21 138.58 112.26 137.44 117.19 135.27 C 115.82 134.65 114.42 134.55 112.98 134.97 C 108.21 136.06 103.49 137.34 98.74 138.49 C 99.44 137.74 99.97 136.70 101.03 136.41 Z" />
<path fill="#333333" opacity="1.00" d=" M 96.00 145.39 C 104.59 143.39 113.65 144.05 122.03 141.07 C 119.35 144.99 114.19 144.71 109.99 145.08 C 105.31 144.83 100.51 147.49 96.00 145.39 Z" />
<path fill="#333333" opacity="1.00" d=" M 161.34 152.36 C 161.88 151.57 162.43 150.78 162.98 149.99 C 163.75 156.35 165.15 162.60 165.94 168.95 C 165.34 168.63 164.14 168.00 163.54 167.69 C 163.58 162.51 161.97 157.48 161.34 152.36 Z" />
<path fill="#333333" opacity="1.00" d=" M 165.32 173.65 C 164.71 172.52 164.17 169.69 165.70 169.35 C 166.34 170.47 166.88 173.32 165.32 173.65 Z" />
<path fill="#333333" opacity="1.00" d=" M 167.04 174.10 C 168.04 182.37 170.00 190.50 170.88 198.79 C 170.40 198.67 169.44 198.42 168.96 198.30 C 167.94 190.93 166.89 183.52 165.12 176.28 C 165.75 175.55 166.40 174.83 167.04 174.10 Z" />
<path fill="#333333" opacity="1.00" d=" M 87.52 179.82 C 90.06 179.92 92.49 179.30 94.70 178.04 C 95.38 179.82 96.03 181.63 96.27 183.54 C 95.55 182.52 94.88 181.47 94.24 180.41 C 92.55 180.95 90.85 181.42 89.12 181.80 C 88.43 182.96 87.74 184.11 87.02 185.26 C 87.14 183.44 87.32 181.63 87.52 179.82 Z" />
<path fill="#333333" opacity="1.00" d=" M 89.22 189.12 C 90.60 189.18 91.98 189.26 93.37 189.36 C 93.03 191.13 91.27 191.02 89.86 191.30 C 89.70 190.76 89.38 189.67 89.22 189.12 Z" />
<path fill="#333333" opacity="1.00" d=" M 123.26 226.79 C 123.60 226.68 124.26 226.44 124.60 226.32 C 124.34 229.04 125.01 231.65 125.71 234.25 C 123.14 232.64 122.94 229.52 123.26 226.79 Z" />
<path fill="#333333" opacity="1.00" d=" M 82.71 242.73 C 83.69 239.70 84.66 235.12 88.33 234.54 C 87.31 236.23 86.25 237.93 85.70 239.85 C 84.74 240.84 83.73 241.80 82.71 242.73 Z" />
</g>
</svg>
