<?xml version="1.0" encoding="UTF-8" ?>
<!DOCTYPE svg PUBLIC "-//W3C//DTD SVG 1.1//EN" "http://www.w3.org/Graphics/SVG/1.1/DTD/svg11.dtd">
<svg width="268pt" height="275pt" viewBox="0 0 268 275" version="1.1" xmlns="http://www.w3.org/2000/svg"><g id="#4e4f4eff">
<path fill="#333333" opacity="1.00" d=" M 62.32 0.00 L 64.19 0.00 C 64.22 14.01 64.30 28.02 64.25 42.03 C 64.40 43.49 64.01 45.16 64.83 46.46 C 65.66 46.59 67.33 46.85 68.17 46.98 C 68.10 31.32 68.12 15.65 68.51 0.00 L 69.72 0.00 C 69.15 1.62 69.55 3.38 69.52 5.06 C 69.95 19.34 69.50 33.63 69.84 47.91 C 70.67 47.01 72.63 46.67 72.32 45.07 C 72.42 30.05 72.33 15.02 72.46 0.00 L 74.87 0.00 C 74.87 11.66 74.84 23.33 74.85 34.99 C 74.90 38.58 74.55 42.21 75.26 45.76 C 76.44 51.26 75.49 56.90 75.92 62.46 C 78.54 61.12 79.21 58.10 80.87 55.91 C 84.91 54.41 89.44 53.15 93.74 54.27 C 95.74 54.75 95.15 57.28 95.78 58.69 C 97.95 58.12 99.86 56.81 102.09 56.42 C 118.71 53.06 135.33 49.63 151.96 46.28 C 155.73 46.37 154.62 40.78 158.11 40.49 C 161.08 39.79 164.03 38.96 167.05 38.54 C 169.00 39.14 170.39 40.73 172.11 41.74 C 174.00 41.56 175.88 41.29 177.75 40.93 C 176.87 43.85 172.72 42.93 172.01 46.15 C 171.37 43.58 169.02 42.24 167.05 40.78 C 163.83 41.47 160.54 41.56 157.27 41.86 L 156.90 43.49 C 159.33 43.49 161.74 43.10 164.17 42.93 C 163.52 43.46 162.24 44.54 161.60 45.08 C 162.78 45.55 163.93 46.07 165.09 46.61 C 163.52 48.32 158.72 51.28 158.53 47.06 C 159.58 47.06 161.68 47.07 162.73 47.07 C 162.05 46.45 161.37 45.84 160.69 45.22 C 159.22 45.45 157.75 45.69 156.28 45.94 C 155.97 48.06 155.29 50.17 155.52 52.33 C 156.75 53.26 158.19 54.30 159.82 54.08 C 161.89 53.01 163.89 51.73 166.19 51.20 C 164.83 53.29 162.62 54.51 160.66 55.94 C 161.34 59.30 163.14 62.98 161.26 66.27 C 158.44 72.21 157.24 78.74 154.98 84.88 C 154.36 86.87 152.32 87.69 150.66 88.61 C 143.91 91.85 138.53 98.73 137.93 106.28 C 143.20 103.86 147.57 100.00 152.26 96.67 C 150.24 99.16 148.19 101.67 145.81 103.84 C 143.22 106.03 140.08 107.43 137.38 109.49 C 138.77 110.93 141.11 111.94 141.34 114.17 C 141.95 120.23 147.69 123.72 149.72 129.19 C 151.09 132.83 153.55 136.05 157.47 137.07 C 157.40 137.48 157.24 138.29 157.17 138.69 C 158.45 139.65 159.64 140.73 160.62 142.00 C 166.85 143.63 174.35 141.97 179.57 146.45 C 181.15 147.25 182.73 148.03 184.31 148.83 C 184.43 143.26 184.51 137.68 184.22 132.11 C 183.57 121.73 184.61 111.33 184.32 100.94 C 184.07 90.25 184.65 79.57 184.47 68.89 C 183.22 68.63 181.97 68.37 180.72 68.12 C 180.48 77.09 181.34 86.04 181.13 95.01 C 181.08 111.89 181.24 128.78 181.08 145.67 C 180.52 145.65 179.40 145.62 178.85 145.60 C 178.28 138.75 178.83 131.88 178.74 125.03 C 178.65 106.34 178.83 87.65 178.53 68.97 C 177.13 61.80 177.91 54.50 177.93 47.26 C 176.24 47.49 174.38 48.99 172.74 48.01 C 172.66 45.31 176.12 46.27 177.86 45.62 C 177.93 37.09 177.31 28.52 178.52 20.05 C 178.71 13.37 178.51 6.68 178.58 0.00 L 180.74 0.00 C 180.46 7.43 180.67 14.86 180.69 22.29 C 181.91 22.57 183.13 22.84 184.35 23.11 C 184.34 15.40 184.29 7.70 184.42 0.00 L 186.08 0.00 C 186.36 7.97 185.47 15.94 186.22 23.89 C 187.03 23.50 187.83 23.10 188.64 22.70 C 188.69 15.13 188.67 7.57 188.65 0.00 L 191.25 0.00 C 191.27 5.24 191.35 10.48 191.16 15.71 C 194.89 14.32 199.69 12.75 202.87 16.10 C 207.51 20.79 209.80 27.46 210.53 33.92 C 213.79 33.17 217.04 32.40 220.27 31.54 C 221.46 33.66 222.67 36.46 220.55 38.47 C 217.75 38.87 214.90 40.42 212.07 39.78 C 212.14 39.42 212.26 38.71 212.33 38.36 C 214.83 37.55 217.44 37.19 219.99 36.56 C 219.89 35.96 219.70 34.75 219.60 34.15 C 216.66 34.24 213.83 35.08 210.95 35.59 C 211.55 45.08 210.05 55.38 203.95 63.00 C 201.16 66.64 196.06 67.38 192.03 65.42 C 190.75 69.86 191.40 74.53 191.28 79.08 C 191.21 103.48 191.40 127.89 191.17 152.30 C 188.53 150.75 189.13 147.55 189.05 144.98 C 189.29 119.32 189.16 93.65 188.95 67.99 C 187.69 68.52 186.44 69.05 185.19 69.58 C 187.06 82.34 185.28 95.18 185.64 107.99 C 185.83 118.65 185.23 129.34 186.13 139.97 C 186.36 143.37 185.83 146.76 186.03 150.15 C 191.68 151.50 194.75 157.14 200.22 158.81 C 204.91 160.32 206.81 165.30 207.99 169.63 C 208.82 172.78 207.22 175.85 207.18 178.99 C 207.13 182.68 206.89 186.43 207.61 190.08 C 209.30 198.88 207.25 208.21 210.29 216.78 C 215.55 220.77 218.86 228.10 226.01 228.99 C 228.35 229.32 229.53 231.65 231.14 233.09 C 229.58 236.37 226.11 237.80 222.89 238.91 C 220.28 239.22 217.65 238.49 215.02 238.66 C 213.17 237.66 211.40 236.49 209.44 235.72 C 205.83 234.40 201.99 236.72 198.38 235.43 C 196.78 234.85 194.72 233.89 194.70 231.92 C 193.68 224.47 198.31 217.56 196.88 210.10 C 196.74 203.83 190.84 199.23 191.52 192.86 C 191.59 188.40 191.59 183.66 193.99 179.71 C 190.43 177.79 186.56 176.27 183.69 173.31 C 184.53 175.84 184.17 179.30 181.19 180.19 C 173.36 182.99 165.30 185.08 157.22 187.02 C 157.09 196.25 157.06 205.48 157.00 214.71 C 162.53 212.95 167.99 210.97 173.54 209.24 C 176.63 208.09 179.42 210.52 182.07 211.74 C 181.20 214.42 181.63 218.50 178.11 219.15 C 166.82 223.21 155.65 227.59 144.40 231.77 C 144.32 235.47 144.15 239.22 144.94 242.87 C 145.71 247.45 148.87 251.04 151.03 255.00 C 153.32 258.90 158.29 261.88 157.77 266.94 C 157.35 268.99 155.06 268.96 153.45 269.44 C 148.15 273.10 139.95 271.73 136.04 266.60 C 135.31 264.08 135.46 261.31 134.14 258.97 C 132.42 255.99 132.84 252.44 131.81 249.25 C 131.11 247.22 131.82 245.10 132.03 243.05 C 133.47 234.44 128.82 226.42 128.39 217.94 C 128.89 213.66 130.36 209.56 131.70 205.49 C 133.32 201.69 133.19 197.49 133.64 193.46 C 134.23 188.97 132.16 184.70 130.03 180.89 C 128.20 180.88 125.58 180.21 125.56 177.96 C 125.76 174.45 125.14 170.99 124.04 167.67 C 119.73 168.90 115.64 170.71 111.49 172.38 C 102.33 175.75 93.17 179.09 84.11 182.74 C 83.15 181.83 82.09 181.00 81.28 179.95 C 81.02 177.75 81.20 175.52 81.26 173.32 C 83.88 172.26 86.49 171.19 88.94 169.79 C 92.58 167.71 96.79 167.08 100.64 165.52 C 99.01 156.58 100.73 147.53 99.79 138.59 C 96.80 135.16 93.95 131.58 90.48 128.60 C 85.45 124.23 83.38 117.58 82.54 111.18 C 81.20 107.06 81.76 102.73 81.78 98.48 C 78.71 95.55 79.97 91.15 79.37 87.41 C 80.06 88.11 80.77 88.80 81.50 89.48 C 81.72 91.91 81.07 94.94 83.34 96.60 C 84.93 98.46 87.79 99.77 87.63 102.59 C 86.34 102.02 85.06 101.45 83.78 100.86 C 83.07 105.41 83.96 109.95 85.58 114.20 C 87.87 116.59 86.68 120.04 87.71 122.88 C 89.41 125.52 92.63 126.28 95.04 128.04 C 97.75 130.93 99.08 135.05 102.51 137.28 C 105.44 138.84 108.98 139.22 111.50 141.54 C 114.30 143.97 117.53 145.80 120.50 148.01 C 120.29 149.04 120.04 150.06 119.75 151.07 C 116.85 147.96 113.15 145.83 109.97 143.05 C 107.74 141.05 104.64 140.67 101.89 139.86 C 105.54 143.99 110.22 146.97 114.21 150.73 C 116.45 152.85 118.82 154.82 121.27 156.70 C 121.13 155.69 120.86 153.67 120.72 152.66 C 120.66 150.84 122.06 151.47 122.67 152.48 C 123.10 151.45 123.98 149.40 124.42 148.38 C 125.70 151.50 123.70 154.36 122.86 157.24 C 124.70 154.71 126.14 151.92 127.16 148.96 C 126.81 148.63 126.10 147.95 125.74 147.61 L 125.84 146.94 C 126.76 146.93 128.60 146.90 129.52 146.88 C 129.44 146.12 129.28 145.36 129.12 144.61 C 133.00 143.66 136.28 141.31 139.98 139.93 C 139.18 144.25 134.15 144.76 130.67 145.70 C 131.14 148.55 128.58 150.34 127.42 152.64 C 123.87 158.33 125.62 165.46 127.30 171.49 C 128.88 168.87 130.27 165.65 133.37 164.53 C 137.32 162.88 141.67 163.22 145.75 164.13 C 147.06 165.40 148.36 166.67 149.69 167.93 C 149.52 166.48 149.35 165.04 149.17 163.60 C 151.55 163.29 153.91 162.82 156.22 162.21 C 158.88 163.32 161.73 164.80 162.22 167.96 C 163.50 164.11 163.84 160.08 164.26 156.08 C 166.05 151.55 169.77 148.03 173.96 145.67 C 169.11 144.90 164.02 145.22 159.34 143.61 C 157.27 142.96 157.01 140.53 156.21 138.83 C 154.16 137.87 152.12 136.92 150.06 135.98 C 149.35 132.62 147.97 129.40 145.88 126.66 C 146.43 129.14 148.97 131.36 147.87 134.01 C 146.32 130.72 143.59 127.86 143.15 124.13 C 142.70 119.97 141.60 115.55 138.55 112.51 C 137.16 111.38 135.57 112.63 134.28 113.24 C 132.18 113.22 130.04 112.86 128.71 111.07 C 131.24 111.33 133.74 111.82 136.26 112.22 C 134.73 110.82 133.22 109.40 131.92 107.78 C 130.50 107.40 129.10 107.02 127.73 106.50 C 129.04 106.56 130.35 106.67 131.66 106.78 C 132.00 106.12 132.68 104.82 133.02 104.17 C 134.79 105.29 134.60 106.63 133.34 107.97 C 134.11 108.35 134.88 108.74 135.65 109.14 C 135.39 106.87 135.46 104.59 135.75 102.33 C 136.60 101.28 137.43 100.21 138.24 99.12 C 134.19 100.89 129.95 102.16 125.82 103.73 C 120.44 105.84 114.46 104.61 108.98 106.32 C 106.69 107.18 104.01 106.37 101.89 107.64 C 102.57 111.53 102.87 115.55 101.95 119.42 C 100.96 120.83 99.78 122.10 98.72 123.46 C 96.37 122.16 94.35 120.02 94.80 117.09 C 95.90 118.21 96.96 119.37 97.98 120.56 C 98.55 119.95 99.11 119.33 99.67 118.71 C 98.81 117.43 97.95 116.18 97.07 114.93 C 96.04 115.23 95.02 115.54 93.99 115.85 C 93.95 110.79 93.55 105.75 92.32 100.84 C 93.52 100.69 94.33 101.12 94.76 102.13 C 96.09 104.96 96.16 108.17 96.04 111.24 C 97.58 112.56 99.14 113.86 100.76 115.08 C 101.27 110.74 99.90 106.55 98.81 102.42 C 98.06 99.68 96.29 97.33 94.09 95.58 C 94.49 93.06 95.13 90.48 94.54 87.93 C 93.78 85.13 92.03 82.70 91.30 79.89 C 90.74 76.79 90.72 73.63 90.11 70.54 C 88.08 73.68 90.90 77.40 89.04 80.52 C 87.33 77.63 87.06 74.28 87.15 71.00 C 84.29 72.61 85.75 75.92 85.41 78.50 C 84.86 76.92 84.55 75.27 84.24 73.64 C 83.01 72.29 81.76 70.95 80.50 69.63 C 81.46 76.00 82.97 82.36 82.24 88.85 C 81.56 88.17 80.89 87.48 80.23 86.79 C 81.29 80.49 79.11 74.32 79.49 68.02 C 78.58 68.34 76.75 68.98 75.84 69.30 C 75.69 77.87 76.28 86.47 75.03 94.98 C 74.74 130.98 74.95 166.98 74.90 202.98 C 74.85 206.26 75.17 209.58 74.65 212.84 C 74.18 213.11 73.25 213.65 72.78 213.92 C 72.57 173.27 72.89 132.62 72.63 91.97 C 71.75 92.41 69.98 93.29 69.10 93.73 C 69.44 100.50 70.16 107.27 69.79 114.06 C 69.13 126.36 69.60 138.69 69.36 151.00 C 69.15 158.33 70.18 165.63 69.95 172.97 C 69.65 186.39 70.58 199.87 69.59 213.27 C 67.22 209.98 68.41 205.73 68.16 201.97 C 67.99 185.33 68.53 168.68 67.76 152.06 C 67.58 145.03 68.30 138.02 68.21 130.99 C 68.33 122.65 67.45 114.32 68.09 105.99 C 68.44 101.85 68.52 97.70 68.52 93.56 C 67.16 93.02 65.80 92.49 64.43 91.97 C 64.73 129.65 64.44 167.34 64.91 205.01 C 64.71 207.02 65.74 210.16 62.78 210.39 C 62.08 171.28 62.83 132.14 62.27 93.03 C 60.74 86.38 61.92 79.60 61.53 72.89 C 61.01 72.31 59.98 71.15 59.47 70.57 C 60.10 70.57 61.37 70.58 62.01 70.58 C 62.13 68.40 61.00 66.85 59.02 66.04 C 59.31 73.42 59.51 81.01 56.98 88.08 C 55.19 93.00 52.71 98.50 47.53 100.59 C 43.70 102.36 39.27 100.29 36.68 97.35 C 32.64 92.31 30.38 85.96 29.98 79.54 C 32.05 80.57 32.11 83.01 32.69 84.95 C 33.72 89.37 35.72 93.79 39.24 96.78 C 41.94 99.04 46.21 99.31 49.01 97.08 C 53.11 93.98 55.21 88.99 56.36 84.13 C 58.73 74.32 58.15 63.54 53.63 54.43 C 51.72 50.39 47.84 47.95 44.09 45.84 C 33.87 49.85 31.40 61.94 31.06 71.71 C 35.35 70.78 39.60 69.64 43.94 68.96 C 46.11 70.76 45.61 73.84 44.21 75.94 C 38.32 76.67 32.49 77.92 26.74 79.41 C 25.88 77.77 24.65 75.96 25.31 74.03 C 25.63 72.66 27.38 70.92 28.79 72.48 C 27.75 73.74 26.80 75.11 27.33 76.83 C 28.29 75.94 29.23 75.02 30.17 74.11 L 30.40 76.66 C 34.52 75.49 38.81 75.03 42.87 73.69 C 43.03 73.00 43.35 71.63 43.51 70.94 C 38.76 72.01 33.97 72.84 29.18 73.68 C 29.52 64.75 31.00 55.05 37.23 48.17 C 40.63 44.84 46.92 43.72 50.62 47.19 C 55.76 51.99 57.68 59.09 58.91 65.78 C 59.62 65.70 61.03 65.55 61.74 65.47 C 61.54 57.98 61.25 50.45 62.30 43.02 C 62.41 28.68 62.27 14.34 62.32 0.00 M 191.34 21.04 C 193.01 26.45 191.78 32.15 192.32 37.69 C 193.92 37.14 195.52 36.58 197.10 35.98 C 198.44 37.32 199.94 38.81 199.34 40.91 C 199.06 44.37 194.53 43.44 192.23 44.56 C 192.17 50.65 192.19 56.75 192.22 62.84 C 195.06 64.50 199.02 64.79 201.62 62.52 C 205.61 59.09 207.09 53.78 208.59 48.94 C 210.18 39.46 209.57 29.10 204.23 20.82 C 202.68 17.85 199.47 16.54 196.76 14.91 C 194.17 15.96 190.04 17.41 191.34 21.04 M 180.37 65.52 C 181.73 65.97 183.10 66.42 184.48 66.86 C 184.60 60.57 183.90 54.31 183.98 48.03 C 183.89 40.54 184.59 33.05 184.18 25.56 C 182.94 25.13 181.71 24.69 180.48 24.25 C 180.17 38.00 180.49 51.76 180.37 65.52 M 185.82 25.76 C 185.91 39.47 185.34 53.20 186.41 66.88 C 187.47 66.49 188.55 66.14 189.55 65.60 C 190.01 64.13 189.79 62.55 189.84 61.04 C 189.70 49.00 189.90 36.96 189.79 24.92 C 188.46 25.19 187.14 25.47 185.82 25.76 M 192.10 39.83 C 192.16 40.55 192.29 41.99 192.35 42.71 C 194.72 42.20 198.13 41.79 197.05 38.41 C 195.39 38.85 193.74 39.32 192.10 39.83 M 105.04 57.88 C 101.98 58.83 98.22 58.68 96.05 61.42 C 99.00 63.23 102.42 61.34 105.31 60.36 C 109.62 58.36 114.38 57.86 119.07 57.82 C 130.83 55.64 142.46 52.67 154.32 51.08 C 154.25 50.29 154.11 48.73 154.04 47.94 C 137.71 51.22 121.36 54.47 105.04 57.88 M 64.03 56.00 C 64.15 67.32 63.94 78.64 64.18 89.95 C 65.51 90.23 66.85 90.50 68.19 90.75 C 67.38 77.03 68.09 63.26 67.84 49.55 C 66.96 49.22 65.19 48.54 64.31 48.20 C 63.82 50.78 63.95 53.40 64.03 56.00 M 69.73 49.42 C 69.34 63.23 69.28 77.07 70.06 90.86 C 71.21 90.37 72.36 89.87 73.51 89.36 C 73.46 75.95 73.50 62.54 73.57 49.13 C 72.29 49.22 71.01 49.32 69.73 49.42 M 146.14 54.33 C 142.56 54.91 139.04 55.81 135.44 56.25 C 127.26 57.10 119.39 59.68 111.20 60.41 C 106.48 61.74 101.75 63.00 97.00 64.20 C 97.20 64.56 97.59 65.27 97.79 65.62 C 96.51 68.42 94.37 70.44 91.51 71.57 C 92.08 73.35 92.22 75.20 92.27 77.06 C 94.98 81.94 97.19 87.56 96.78 93.25 C 98.38 97.03 99.15 101.11 100.78 104.89 C 105.44 103.98 110.28 104.94 114.88 103.54 C 115.41 99.20 111.75 96.36 109.19 93.44 C 107.54 93.43 105.89 93.42 104.25 93.41 C 103.85 94.65 103.47 95.90 103.09 97.15 C 102.25 97.72 101.42 98.28 100.63 98.90 L 100.00 96.90 C 100.40 97.05 101.20 97.36 101.60 97.51 C 101.94 95.84 102.19 94.15 102.37 92.45 C 101.11 92.53 99.98 92.21 98.96 91.49 C 103.24 90.43 108.34 90.09 111.98 93.02 C 114.36 95.51 116.18 98.83 115.94 102.38 C 119.29 103.12 122.72 102.18 126.11 102.58 C 129.60 100.58 132.79 97.62 136.99 97.35 C 140.95 97.00 141.31 92.21 144.16 90.23 C 146.74 87.59 150.99 87.09 153.14 84.08 C 155.75 76.75 157.06 68.93 160.68 61.96 C 160.53 60.21 160.38 58.45 160.25 56.70 C 157.73 55.76 154.96 54.76 153.80 52.11 C 151.54 53.66 148.75 53.85 146.14 54.33 M 82.00 57.32 C 81.47 58.41 80.95 59.49 80.43 60.58 C 83.51 62.83 83.27 67.30 80.09 69.36 C 81.61 69.30 82.92 69.77 84.01 70.76 C 86.52 68.73 89.61 71.17 92.11 69.32 C 95.91 68.47 95.64 64.16 95.74 61.08 C 94.80 58.45 91.68 60.02 89.70 59.83 C 91.03 58.64 92.81 58.34 94.46 57.83 C 94.12 56.53 93.29 55.83 91.99 55.75 C 88.56 54.97 85.34 56.87 82.00 57.32 M 75.95 67.00 C 77.61 66.79 79.25 66.38 80.88 66.02 C 80.86 65.25 80.82 63.73 80.80 62.97 C 78.28 62.80 74.47 63.62 75.95 67.00 M 101.43 142.85 C 101.33 144.54 101.37 146.23 101.55 147.91 C 102.84 154.26 102.18 160.78 102.34 167.21 C 95.71 169.02 89.47 171.86 83.05 174.25 C 83.19 176.52 82.39 179.26 84.55 180.83 C 87.50 179.16 90.75 178.16 93.91 176.98 C 103.93 173.45 113.76 169.42 123.74 165.76 C 123.47 163.80 123.93 161.38 121.95 160.16 C 116.95 161.02 112.49 164.00 107.36 164.54 C 107.29 159.15 107.63 153.76 107.77 148.38 C 105.70 146.48 103.63 144.59 101.43 142.85 M 166.94 155.60 C 166.14 159.35 166.14 163.29 164.58 166.87 C 167.58 168.16 170.61 169.93 174.00 169.73 C 177.37 169.55 180.91 169.53 184.02 171.05 C 187.28 172.34 189.40 175.63 192.97 176.27 C 194.51 176.86 196.64 176.90 197.21 178.77 C 196.44 178.93 194.89 179.25 194.12 179.41 C 194.27 184.65 193.24 189.90 194.51 195.08 C 194.40 200.15 198.82 203.85 198.71 208.91 C 199.15 212.29 198.27 215.73 199.14 219.07 C 196.49 222.80 197.29 227.64 196.93 231.96 C 197.21 232.36 197.78 233.18 198.07 233.59 C 202.01 234.29 206.01 233.27 209.96 233.78 C 212.08 234.36 213.93 235.62 215.92 236.54 C 218.32 235.87 220.60 237.15 222.97 237.17 C 224.98 236.15 226.82 234.77 229.03 234.17 C 227.81 233.01 226.97 231.06 225.02 231.08 C 220.95 230.65 217.48 228.05 215.25 224.72 C 213.15 221.62 210.14 219.35 207.53 216.71 C 207.58 216.36 207.66 215.66 207.70 215.31 C 205.67 209.70 206.38 203.78 206.37 197.97 C 206.49 192.58 203.71 187.23 205.65 181.92 C 204.41 178.22 206.66 174.76 206.71 171.12 C 205.50 168.61 204.78 165.88 203.41 163.46 C 201.56 160.70 198.03 160.30 195.44 158.56 C 189.97 154.06 183.91 149.92 176.98 148.11 C 172.31 147.96 168.90 151.79 166.94 155.60 M 109.39 149.36 C 109.27 153.76 109.12 158.16 109.01 162.55 C 112.75 161.36 116.29 159.62 120.11 158.69 C 116.31 155.86 112.76 152.70 109.39 149.36 M 153.66 165.66 C 151.08 166.62 150.58 169.92 152.01 172.05 C 153.94 176.17 154.95 180.71 154.38 185.26 C 163.59 183.09 172.72 180.63 181.64 177.46 C 182.54 175.07 180.60 172.18 178.03 172.44 C 173.27 173.08 168.49 171.61 164.52 169.02 C 159.64 173.39 158.25 162.27 153.66 165.66 M 128.38 173.94 C 133.85 180.12 136.95 188.74 134.94 196.92 C 136.05 201.94 137.13 206.96 138.70 211.87 C 135.29 211.18 135.94 206.61 134.50 204.18 C 132.10 208.06 131.15 212.67 130.40 217.12 C 130.14 224.48 133.91 231.24 134.26 238.55 C 134.68 241.73 133.66 244.80 133.36 247.93 C 134.48 252.02 135.70 256.09 137.31 260.01 C 138.41 262.29 137.55 265.48 139.94 267.05 C 143.11 270.02 148.20 270.16 151.72 267.71 C 150.88 267.00 150.66 264.67 149.19 265.36 C 146.20 266.54 143.12 265.54 140.03 265.61 C 140.16 265.30 140.42 264.68 140.55 264.37 C 143.51 263.09 147.04 264.62 150.03 262.97 C 151.59 263.83 152.35 265.40 152.96 266.99 C 153.76 267.00 155.35 267.00 156.15 267.00 C 156.49 262.76 152.24 260.16 150.07 257.01 C 148.18 253.60 145.89 250.42 144.13 246.95 C 141.24 238.63 141.05 229.03 144.91 220.99 C 146.61 217.14 145.87 212.81 145.70 208.76 C 143.91 211.51 142.87 214.74 142.87 218.04 C 142.58 219.93 143.28 222.64 140.97 223.50 C 140.43 217.93 141.31 212.17 144.35 207.39 C 146.90 203.95 146.53 199.35 148.80 195.78 C 149.95 193.96 150.48 191.70 149.05 189.85 C 149.29 189.40 149.76 188.50 150.00 188.05 C 149.88 186.74 149.77 185.43 149.69 184.11 C 148.24 182.73 146.58 181.63 144.87 180.61 C 143.63 182.59 141.85 185.14 139.15 184.66 C 140.73 183.09 142.41 181.62 144.01 180.07 C 145.32 180.14 146.64 180.22 147.97 180.29 C 151.47 182.26 152.08 186.26 151.10 189.89 L 151.77 189.94 C 152.35 185.66 152.57 181.23 151.56 177.00 C 150.21 173.35 148.02 170.06 145.86 166.86 C 143.11 165.69 139.89 166.14 136.95 166.03 C 132.26 165.70 130.52 170.75 128.38 173.94 M 126.95 177.12 C 126.56 178.50 127.06 179.08 128.45 178.88 C 128.81 177.50 128.32 176.92 126.95 177.12 M 153.55 188.42 C 151.61 192.86 150.18 197.53 148.64 202.13 C 146.44 207.85 149.22 214.02 147.59 219.84 C 146.59 223.18 145.05 226.33 144.24 229.74 C 155.74 225.23 167.50 221.36 178.87 216.52 C 179.16 215.20 179.46 213.88 179.76 212.57 C 177.91 211.91 176.00 210.61 173.96 211.24 C 167.59 212.99 161.50 215.71 155.05 217.15 C 154.61 207.10 155.50 197.04 155.50 187.01 C 155.01 187.36 154.04 188.07 153.55 188.42 Z" />
<path fill="#333333" opacity="1.00" d=" M 171.50 46.67 C 172.69 48.75 172.16 50.98 171.23 53.02 C 170.97 57.02 172.50 60.98 171.99 65.01 C 171.28 70.29 172.37 75.90 169.88 80.84 C 168.75 83.11 166.72 86.66 169.66 88.45 C 166.49 91.78 163.09 95.09 161.31 99.45 C 157.96 107.13 151.61 113.18 144.20 116.86 C 142.03 117.14 143.87 115.02 144.43 114.51 C 147.78 111.46 152.50 109.89 154.79 105.73 C 157.96 100.07 161.05 94.10 165.74 89.55 C 166.25 82.80 168.97 76.52 170.78 70.06 C 171.14 64.42 169.80 58.85 169.63 53.22 C 169.16 53.18 168.21 53.09 167.74 53.05 C 167.63 55.08 167.55 57.10 167.47 59.13 C 166.23 56.48 166.99 53.65 167.80 51.00 C 168.59 50.97 170.17 50.90 170.96 50.86 C 171.11 49.46 171.29 48.06 171.50 46.67 Z" />
<path fill="#333333" opacity="1.00" d=" M 164.52 61.75 C 163.48 60.50 163.17 55.88 164.62 54.84 C 165.40 57.00 165.01 59.55 164.52 61.75 Z" />
<path fill="#333333" opacity="1.00" d=" M 86.98 59.55 C 88.85 61.50 91.10 62.53 93.86 61.77 C 92.68 62.70 91.45 63.56 90.15 64.29 C 88.52 63.15 86.57 61.88 86.98 59.55 Z" />
<path fill="#333333" opacity="1.00" d=" M 160.18 83.11 C 160.92 82.91 161.66 82.71 162.40 82.52 C 162.29 84.13 162.20 85.75 162.14 87.37 C 161.37 88.07 160.59 88.77 159.82 89.47 C 159.87 87.35 159.98 85.22 160.18 83.11 Z" />
<path fill="#333333" opacity="1.00" d=" M 152.14 97.19 C 153.61 93.77 154.50 90.05 156.60 86.93 C 156.68 88.99 157.02 91.17 156.21 93.14 C 155.07 94.68 153.52 95.86 152.14 97.19 Z" />
<path fill="#333333" opacity="1.00" d=" M 143.04 112.03 C 143.51 108.44 147.27 106.50 150.43 105.68 C 150.79 105.98 151.50 106.58 151.85 106.88 C 148.60 108.08 146.26 110.86 143.04 112.03 Z" />
<path fill="#333333" opacity="1.00" d=" M 106.81 109.03 C 110.05 106.19 115.12 107.61 119.12 106.63 C 119.47 107.13 120.17 108.13 120.52 108.64 C 122.30 107.92 124.15 107.40 126.06 107.17 C 125.31 110.47 121.23 108.75 119.03 109.99 C 116.16 112.10 113.47 114.47 111.16 117.18 C 110.16 118.43 108.58 118.86 107.04 118.85 C 110.49 115.76 113.33 111.64 117.82 109.99 C 117.75 109.62 117.63 108.87 117.56 108.49 C 113.97 108.56 110.40 109.04 106.81 109.03 Z" />
<path fill="#333333" opacity="1.00" d=" M 120.61 116.81 C 122.68 115.02 124.08 112.19 126.71 111.23 C 126.78 111.58 126.92 112.30 126.99 112.66 C 124.95 115.47 121.21 116.44 119.32 119.36 C 118.55 121.95 119.10 124.62 119.71 127.17 C 120.21 128.86 117.54 130.12 118.32 131.71 C 119.97 132.43 121.93 132.29 123.42 133.43 C 125.88 135.21 129.12 135.23 131.92 134.30 C 132.46 137.10 128.18 137.52 126.49 136.44 C 126.65 136.96 126.98 138.01 127.14 138.54 L 128.62 138.06 C 128.68 138.55 128.81 139.54 128.88 140.04 C 127.32 139.68 125.76 139.15 124.81 137.76 C 125.37 137.15 125.93 136.55 126.49 135.96 C 123.63 134.62 120.60 133.87 117.39 134.16 L 117.50 133.66 C 116.74 132.94 116.07 132.14 115.49 131.28 C 116.13 130.23 116.76 129.18 117.38 128.12 C 115.92 124.53 117.47 120.93 118.67 117.54 C 119.15 117.35 120.12 116.99 120.61 116.81 Z" />
<path fill="#333333" opacity="1.00" d=" M 130.55 115.47 C 131.25 115.68 131.95 115.90 132.66 116.11 C 132.98 118.37 133.71 120.70 133.03 122.97 C 131.58 125.13 128.52 124.28 126.56 125.53 C 125.21 127.19 124.47 129.70 122.01 129.94 C 123.62 126.18 126.38 121.74 131.15 122.49 C 131.66 120.12 131.10 117.77 130.55 115.47 Z" />
<path fill="#333333" opacity="1.00" d=" M 111.30 119.85 C 113.52 118.90 113.19 122.31 111.39 122.43 C 109.31 123.31 109.83 120.15 111.30 119.85 Z" />
<path fill="#333333" opacity="1.00" d=" M 134.13 122.70 C 135.26 119.83 139.27 119.68 141.23 121.76 C 138.84 121.83 136.44 122.05 134.13 122.70 Z" />
<path fill="#333333" opacity="1.00" d=" M 100.55 123.81 C 102.42 121.26 105.48 121.91 108.02 122.92 C 108.08 123.82 108.19 125.61 108.25 126.51 C 110.66 126.75 112.88 122.97 114.95 125.16 C 112.88 126.39 111.07 128.04 110.17 130.33 C 109.00 130.81 107.80 131.20 106.58 131.51 C 107.80 130.32 109.11 129.24 110.27 127.99 C 109.38 128.07 107.59 128.24 106.70 128.33 C 106.21 127.85 105.23 126.88 104.74 126.40 C 105.15 125.89 105.96 124.87 106.36 124.36 C 104.43 124.18 102.49 124.02 100.55 123.81 Z" />
<path fill="#333333" opacity="1.00" d=" M 133.15 125.02 C 135.84 123.76 136.41 127.16 136.97 129.00 C 134.89 128.69 134.17 126.55 133.15 125.02 Z" />
<path fill="#333333" opacity="1.00" d=" M 102.95 126.47 C 103.67 127.35 104.30 128.31 104.62 129.43 C 105.85 131.22 107.16 132.97 108.55 134.64 C 108.23 135.50 107.90 136.36 107.58 137.22 C 105.47 135.00 104.51 131.96 102.58 129.58 C 102.67 128.80 102.86 127.25 102.95 126.47 Z" />
<path fill="#333333" opacity="1.00" d=" M 110.66 134.72 C 111.37 133.06 113.31 133.53 114.73 133.21 C 114.76 133.58 114.81 134.33 114.84 134.71 C 113.44 134.73 112.05 134.74 110.66 134.72 Z" />
<path fill="#333333" opacity="1.00" d=" M 135.46 136.58 C 139.40 135.17 143.55 134.42 147.70 134.08 C 147.89 134.50 148.25 135.36 148.44 135.79 C 146.62 135.93 144.77 136.03 143.04 136.67 C 139.01 138.08 134.26 138.16 131.08 141.34 C 128.16 144.29 124.22 146.40 122.57 150.40 L 120.80 151.25 C 121.11 148.10 123.12 145.58 125.46 143.65 C 128.56 141.01 131.50 137.89 135.46 136.58 Z" />
<path fill="#333333" opacity="1.00" d=" M 141.01 146.06 C 145.22 143.25 149.82 140.30 155.10 140.51 C 151.05 143.48 146.23 145.38 141.58 147.10 C 142.12 147.55 142.67 148.00 143.22 148.44 C 147.15 145.73 151.87 144.82 156.49 144.07 C 155.15 147.28 151.40 145.98 148.87 147.18 C 146.35 148.41 143.70 149.33 141.13 150.46 C 141.17 149.94 141.25 148.90 141.30 148.38 C 139.91 149.20 138.43 149.77 136.86 150.10 C 137.44 148.07 139.45 147.21 141.01 146.06 Z" />
<path fill="#333333" opacity="1.00" d=" M 157.40 153.22 C 156.73 150.35 157.33 147.21 160.22 145.84 C 158.99 148.18 157.90 150.60 157.40 153.22 Z" />
<path fill="#333333" opacity="1.00" d=" M 133.07 155.17 C 136.51 153.61 140.23 152.88 143.93 152.29 C 141.24 155.52 136.91 155.55 133.07 155.17 Z" />
<path fill="#333333" opacity="1.00" d=" M 194.30 162.01 C 197.79 162.93 198.32 167.09 199.04 170.06 C 197.57 171.40 196.32 173.58 194.05 173.44 C 190.17 173.48 186.96 170.56 185.38 167.21 C 188.43 168.78 190.78 171.44 194.03 172.65 C 195.18 171.60 196.20 170.43 197.17 169.22 C 196.40 166.74 195.44 164.33 194.30 162.01 Z" />
<path fill="#333333" opacity="1.00" d=" M 142.28 196.15 C 143.81 196.23 145.36 196.35 146.82 196.89 C 145.95 198.43 144.29 198.33 142.81 198.45 C 142.67 197.88 142.41 196.72 142.28 196.15 Z" />
<path fill="#333333" opacity="1.00" d=" M 199.91 220.79 C 200.28 220.67 201.02 220.45 201.39 220.34 C 201.00 222.95 201.72 225.45 202.63 227.87 C 199.45 227.30 199.86 223.22 199.91 220.79 Z" />
<path fill="#333333" opacity="1.00" d=" M 138.10 244.04 C 138.58 242.54 140.07 242.02 141.48 241.78 C 140.18 244.72 138.82 247.74 136.33 249.88 C 135.48 247.73 137.31 245.91 138.10 244.04 Z" />
</g>
</svg>
