<?xml version="1.0" encoding="UTF-8" ?>
<!DOCTYPE svg PUBLIC "-//W3C//DTD SVG 1.1//EN" "http://www.w3.org/Graphics/SVG/1.1/DTD/svg11.dtd">
<svg width="276pt" height="225pt" viewBox="0 0 276 225" version="1.1" xmlns="http://www.w3.org/2000/svg"><g id="#464845ff">
<path fill="#333333" opacity="1.00" d=" M 61.24 63.96 C 65.49 57.78 74.06 59.16 79.88 62.07 C 84.89 65.47 90.25 68.42 94.53 72.78 C 99.56 75.31 104.35 78.30 109.68 80.22 C 112.51 82.49 115.53 84.46 118.69 86.21 C 121.18 90.10 125.73 91.37 129.57 93.46 C 131.01 93.79 132.45 94.14 133.88 94.51 C 136.85 93.87 139.96 93.00 142.99 93.79 C 146.83 94.37 148.25 99.05 152.27 99.33 C 152.20 100.14 152.12 100.96 152.04 101.77 C 146.89 99.74 142.77 94.58 136.83 95.13 C 136.02 96.73 135.08 98.26 133.94 99.64 C 135.17 96.01 130.97 94.36 128.36 95.88 C 125.77 93.32 122.32 92.03 119.13 90.42 C 113.23 92.61 106.36 92.96 101.52 97.35 C 96.47 101.25 96.29 108.53 97.27 114.28 C 103.09 118.46 110.32 121.53 113.73 128.23 C 115.21 131.87 117.37 135.23 120.27 137.89 C 123.20 139.88 126.89 140.21 129.93 141.97 C 133.31 145.86 135.20 150.80 138.50 154.74 C 144.48 160.94 152.55 164.39 159.46 169.36 C 163.11 172.12 167.88 172.07 172.11 173.32 C 177.74 174.50 183.20 177.18 189.08 176.51 C 193.16 177.55 197.38 178.45 201.19 180.34 C 204.87 181.11 208.03 184.36 211.99 183.37 C 214.68 182.77 217.68 182.68 219.92 180.89 C 222.71 178.82 225.14 176.33 227.63 173.93 C 227.85 177.75 224.23 179.61 221.86 181.91 C 219.32 184.55 215.50 184.61 212.13 185.20 C 208.01 185.96 204.36 183.46 200.76 181.91 C 193.43 179.38 185.53 179.25 178.15 176.91 C 172.47 175.23 166.68 174.03 160.90 172.81 C 157.54 172.18 155.58 168.68 152.12 168.27 C 148.49 167.63 145.58 165.21 142.14 164.03 C 142.16 163.83 142.18 163.42 142.20 163.22 C 142.46 163.04 142.97 162.68 143.23 162.50 C 139.41 160.25 136.26 157.00 134.01 153.21 C 132.39 149.81 130.41 146.46 127.51 144.01 C 124.24 142.54 120.33 141.99 117.84 139.18 C 115.76 136.80 113.82 134.30 111.79 131.89 C 111.63 130.83 112.02 129.56 111.23 128.69 C 108.12 124.87 104.66 121.09 99.90 119.37 C 96.88 118.83 93.94 120.06 90.97 120.40 C 88.00 119.53 86.11 116.87 83.44 115.48 C 78.31 114.23 73.46 112.10 68.44 110.47 C 64.22 108.39 57.61 107.63 57.45 101.66 C 52.24 99.72 49.73 94.26 44.94 91.84 C 43.37 93.00 41.65 93.95 40.12 95.16 C 39.99 96.64 40.04 98.13 40.04 99.62 C 40.66 99.75 41.90 100.01 42.52 100.14 C 45.11 102.03 48.01 103.47 50.40 105.62 C 58.23 111.75 67.37 115.88 75.49 121.59 C 79.52 124.67 84.40 126.35 88.43 129.45 C 97.46 135.85 107.65 140.20 117.16 145.78 C 119.56 147.22 121.57 149.26 124.09 150.52 C 129.71 153.25 133.88 158.18 139.68 160.63 C 139.84 160.96 140.16 161.63 140.32 161.97 L 140.42 162.89 C 138.12 162.70 136.03 161.75 134.00 160.75 C 133.89 171.17 135.25 181.57 134.33 191.98 C 128.34 195.11 122.36 198.27 116.20 201.08 C 116.31 203.26 115.68 205.66 116.60 207.71 C 118.37 209.14 120.31 210.34 122.17 211.66 C 137.66 204.65 152.96 197.22 168.36 190.03 C 168.24 187.63 168.21 185.22 167.80 182.86 C 165.83 181.02 163.36 179.81 161.08 178.39 C 155.92 180.77 150.70 183.03 145.62 185.59 C 146.07 188.40 147.98 191.99 144.94 193.98 C 142.92 185.13 144.53 176.00 145.40 167.11 C 145.65 167.20 146.16 167.38 146.41 167.47 C 146.63 172.68 146.46 177.90 146.28 183.11 C 151.57 181.05 156.47 177.89 161.88 176.25 C 164.56 177.27 166.81 179.18 169.33 180.54 C 170.09 183.93 170.35 187.40 170.47 190.87 C 157.96 197.41 144.94 202.91 132.28 209.15 C 128.85 210.54 125.69 212.68 122.12 213.62 C 119.51 212.21 116.83 210.70 114.74 208.56 C 114.22 205.82 113.96 202.96 114.39 200.19 C 119.99 196.55 126.43 194.41 132.14 190.95 C 132.85 186.71 131.85 182.42 131.86 178.16 C 131.83 171.56 131.52 164.96 130.96 158.39 C 124.67 154.06 118.23 149.89 111.39 146.49 C 107.15 144.17 103.28 141.26 99.08 138.89 C 97.37 137.69 95.49 139.20 93.86 139.79 C 79.92 146.46 65.90 152.96 51.92 159.53 C 49.37 157.94 46.85 156.31 44.36 154.64 C 43.95 151.80 43.69 148.95 43.69 146.08 C 49.70 143.09 55.67 140.03 61.68 137.05 C 61.89 129.53 61.62 122.01 61.32 114.50 C 58.32 112.83 54.76 111.87 52.30 109.40 C 51.30 108.68 50.30 107.98 49.30 107.26 C 48.67 112.36 47.53 117.38 46.97 122.49 C 45.92 127.39 48.05 132.41 46.44 137.26 C 43.32 138.09 40.16 139.56 36.86 138.96 C 33.94 138.11 31.21 136.69 28.32 135.75 C 24.97 132.10 17.57 132.02 17.32 126.04 C 16.42 122.75 20.13 120.69 22.83 120.19 C 26.52 120.02 30.04 118.88 33.40 117.42 C 37.15 107.94 32.99 97.82 34.66 88.10 C 35.26 83.68 36.00 79.28 36.86 74.91 C 37.47 70.38 42.89 68.59 46.87 68.68 C 51.09 69.37 55.79 70.34 58.65 73.80 C 59.22 73.87 60.35 73.99 60.92 74.05 C 61.05 70.69 60.69 67.29 61.24 63.96 M 62.46 66.87 C 63.47 69.62 63.41 72.50 62.04 75.11 C 64.47 76.57 67.84 77.11 69.27 79.78 C 72.71 80.80 76.59 80.35 80.01 81.81 C 81.47 79.93 83.04 78.13 84.40 76.19 C 86.94 75.29 89.50 74.47 92.10 73.79 C 90.51 71.80 89.24 69.40 86.91 68.16 C 80.60 64.90 74.27 60.88 66.87 61.05 C 64.63 62.11 61.63 63.91 62.46 66.87 M 40.57 72.56 C 37.81 75.87 37.13 80.30 37.13 84.48 C 37.07 91.27 35.55 98.08 36.72 104.86 C 37.61 109.63 36.20 114.55 34.11 118.83 C 29.01 121.28 23.34 121.64 17.99 123.22 C 18.22 127.73 22.06 130.65 26.03 131.96 C 32.14 133.80 38.28 138.47 44.85 135.59 C 45.12 130.02 44.56 124.39 45.59 118.88 C 46.10 114.22 47.36 109.70 48.06 105.08 C 46.52 104.69 44.96 104.38 43.39 104.17 C 43.26 103.78 42.99 103.00 42.85 102.61 C 41.50 101.80 39.62 101.48 38.77 100.05 C 38.51 97.91 38.90 95.75 38.93 93.60 C 41.01 92.28 43.26 91.25 45.41 90.04 C 49.53 92.48 52.94 95.88 56.85 98.62 C 56.97 95.51 56.65 92.19 58.32 89.40 C 60.14 85.36 64.04 82.99 67.84 81.09 C 67.83 80.88 67.81 80.46 67.79 80.25 C 63.15 77.93 58.47 75.66 54.10 72.85 C 52.33 71.64 50.28 70.99 48.22 70.47 C 45.70 71.21 42.58 70.57 40.57 72.56 M 82.56 84.52 C 86.24 84.68 89.92 82.89 93.55 84.13 C 91.39 85.80 88.71 86.35 86.13 86.99 C 83.54 86.02 80.97 84.98 78.59 83.55 C 74.50 81.59 68.86 80.81 65.27 84.15 C 60.38 87.75 59.25 94.46 60.19 100.12 C 59.63 101.24 59.39 102.46 59.30 103.70 C 59.90 102.82 60.47 101.91 61.06 101.02 C 61.53 102.90 60.89 105.87 63.79 105.57 C 67.90 108.19 73.03 108.15 77.08 110.94 C 82.85 113.32 88.25 117.91 94.81 117.28 C 96.11 112.92 93.56 108.65 94.85 104.31 C 95.67 101.81 96.46 99.21 98.22 97.18 C 101.30 94.06 105.45 92.51 109.69 91.71 C 110.39 91.80 111.10 91.89 111.81 91.99 C 112.83 91.60 113.85 91.20 114.87 90.80 C 115.90 89.89 117.07 89.20 118.40 88.81 C 116.64 86.51 113.75 85.65 110.98 85.41 C 110.43 84.37 109.87 83.32 109.34 82.27 L 108.27 82.71 L 108.45 81.70 C 103.78 81.20 100.29 78.01 96.67 75.38 C 90.52 73.42 82.79 77.67 82.56 84.52 M 63.05 115.22 C 63.67 122.73 64.12 130.29 63.66 137.82 C 58.15 141.62 51.64 143.71 45.95 147.21 C 45.32 149.04 45.80 151.06 45.99 152.93 C 47.43 155.01 50.01 155.95 52.01 157.41 C 66.27 150.54 80.70 144.04 94.93 137.11 C 91.12 133.87 86.86 131.24 82.92 128.17 C 80.02 129.33 77.18 130.76 74.06 131.29 C 75.42 129.02 78.03 128.24 80.16 126.93 C 74.78 122.55 68.58 119.38 63.05 115.22 Z" />
<path fill="#333333" opacity="1.00" d=" M 65.26 70.46 C 70.14 70.59 76.24 67.93 80.07 72.09 C 75.17 71.80 69.76 72.79 65.26 70.46 Z" />
<path fill="#333333" opacity="1.00" d=" M 65.39 75.61 C 67.61 72.91 71.28 76.17 74.08 76.34 L 74.29 75.07 C 74.47 76.10 74.66 77.14 74.85 78.18 C 71.66 77.46 68.44 76.81 65.39 75.61 Z" />
<path fill="#333333" opacity="1.00" d=" M 44.37 78.85 C 47.01 78.26 48.60 80.37 50.22 82.00 C 48.03 81.42 45.51 81.12 44.37 78.85 Z" />
<path fill="#333333" opacity="1.00" d=" M 39.72 85.41 C 41.31 84.93 42.89 84.37 44.51 84.02 C 47.15 87.44 50.86 89.57 54.40 91.89 L 54.00 93.08 C 50.47 91.98 47.42 89.72 44.84 87.12 C 43.64 85.51 41.48 85.76 39.72 85.41 Z" />
<path fill="#333333" opacity="1.00" d=" M 106.95 94.75 C 113.43 95.13 119.70 96.95 126.10 97.95 C 127.36 98.41 128.49 97.48 129.72 97.52 C 130.37 98.68 130.71 99.97 131.05 101.25 C 133.83 100.73 135.27 97.76 137.86 97.11 C 137.98 97.36 138.21 97.86 138.33 98.11 C 136.28 100.47 133.93 102.84 130.89 103.85 C 128.35 103.96 125.81 103.74 123.28 103.64 C 120.83 103.97 118.37 103.81 115.92 103.62 C 114.12 104.67 112.33 105.70 110.52 106.73 C 110.54 106.25 110.58 105.30 110.60 104.82 C 114.38 101.78 119.45 100.84 124.07 102.34 C 126.10 101.88 128.13 101.45 130.17 101.00 C 124.10 98.10 117.24 98.07 110.98 95.84 C 109.69 95.70 108.43 96.09 107.16 96.27 C 107.11 95.89 107.00 95.13 106.95 94.75 Z" />
<path fill="#333333" opacity="1.00" d=" M 81.14 101.84 C 84.47 98.72 89.07 97.77 93.48 97.54 C 90.34 99.97 86.41 101.02 83.00 103.00 L 82.06 103.00 L 81.14 101.84 Z" />
<path fill="#333333" opacity="1.00" d=" M 101.24 102.09 C 102.34 101.41 104.84 102.32 104.72 103.72 C 103.60 104.20 100.97 103.62 101.24 102.09 Z" />
<path fill="#333333" opacity="1.00" d=" M 147.54 104.51 C 151.09 102.26 156.32 101.31 159.87 104.13 C 162.54 105.70 163.95 108.69 166.49 110.38 C 170.41 111.93 174.96 112.60 177.76 116.10 C 178.54 115.93 179.54 114.93 180.25 115.75 C 181.19 116.58 179.83 117.69 179.65 118.57 C 185.85 119.97 192.52 122.47 195.79 128.35 C 198.17 131.18 197.54 135.79 201.00 137.76 C 203.99 139.81 206.79 142.18 208.93 145.13 C 210.32 147.63 210.49 150.65 211.97 153.12 C 213.35 155.31 215.10 157.23 216.76 159.21 C 221.03 160.25 225.35 162.65 227.15 166.87 C 227.96 169.64 227.30 173.03 225.02 174.95 C 220.01 179.72 212.36 180.69 205.83 179.27 C 200.72 178.20 195.64 174.00 196.56 168.27 C 192.73 167.89 188.75 167.65 185.24 165.96 C 179.81 163.40 174.42 160.56 168.47 159.39 C 165.38 158.44 161.19 158.24 159.96 154.62 C 160.42 154.57 161.33 154.46 161.78 154.41 L 161.11 154.35 C 158.31 148.12 152.60 143.39 146.48 140.56 C 146.44 139.98 146.38 138.83 146.35 138.26 C 149.30 140.24 152.53 141.77 155.67 143.44 C 159.91 147.42 163.27 153.99 169.90 153.83 C 174.27 154.33 178.73 151.65 180.37 147.58 C 182.10 143.09 182.83 137.79 180.51 133.36 C 177.37 127.92 172.52 122.63 165.95 121.84 C 163.17 121.10 160.66 122.95 158.89 124.89 C 156.25 127.28 157.26 131.48 154.83 134.08 C 154.91 129.87 154.76 124.37 159.46 122.47 C 158.25 122.18 156.99 121.98 155.75 121.86 C 155.07 121.12 154.41 120.37 153.75 119.61 C 155.76 119.74 157.77 119.85 159.79 119.82 C 159.81 120.23 159.86 121.05 159.89 121.45 C 166.63 117.42 172.87 123.82 179.10 125.75 C 178.48 125.71 177.24 125.64 176.63 125.60 C 182.62 128.04 181.71 135.30 184.21 140.20 C 187.03 141.00 188.43 143.67 190.40 145.59 C 192.36 151.82 197.92 155.82 201.78 160.82 C 201.15 161.48 200.52 162.12 199.88 162.77 C 197.43 159.07 194.38 155.83 191.07 152.90 C 188.53 150.79 187.83 147.43 186.54 144.55 C 185.37 143.82 184.20 143.07 183.05 142.32 C 184.66 148.67 179.33 153.55 174.44 156.52 C 170.32 156.67 166.33 155.79 162.51 154.31 C 164.65 157.09 168.18 158.35 171.58 158.66 C 179.88 159.45 186.38 166.70 195.01 165.87 C 197.04 166.31 198.40 164.89 199.55 163.46 C 200.79 162.89 202.02 162.28 202.91 161.20 C 206.36 159.55 210.16 159.10 213.93 158.84 C 212.56 157.21 211.13 155.63 210.03 153.80 C 208.47 150.94 208.53 147.29 206.16 144.87 C 204.09 142.43 201.40 140.67 198.94 138.68 C 196.21 136.71 196.73 132.84 194.85 130.30 C 192.66 127.21 190.29 123.95 186.74 122.36 C 184.68 121.34 182.42 120.73 180.55 119.37 C 177.03 116.63 172.70 115.35 168.61 113.74 C 169.94 115.50 172.32 116.80 172.15 119.31 C 166.23 116.15 163.98 109.13 158.16 105.79 C 155.16 103.17 151.08 104.90 147.54 104.51 M 199.15 167.75 C 199.19 169.64 198.99 171.58 199.40 173.45 C 201.67 176.38 205.49 177.61 209.02 178.13 C 213.47 178.95 217.29 175.99 221.18 174.38 C 224.33 173.11 225.99 168.91 223.95 166.04 C 221.34 162.25 216.29 161.21 211.96 161.39 C 207.11 161.73 201.82 163.37 199.15 167.75 Z" />
<path fill="#333333" opacity="1.00" d=" M 137.61 106.86 C 139.75 106.14 141.40 107.69 141.78 109.71 C 140.58 109.38 139.40 109.01 138.21 108.64 C 135.28 110.55 131.97 111.99 129.43 114.45 C 128.00 119.17 130.27 123.70 132.05 127.94 C 132.27 129.89 129.90 128.15 129.79 127.26 C 127.28 123.44 127.67 118.76 127.56 114.41 C 129.72 110.63 133.91 108.77 137.61 106.86 Z" />
<path fill="#333333" opacity="1.00" d=" M 118.51 117.73 C 117.60 113.19 119.31 108.01 124.22 106.76 C 122.33 110.37 119.45 113.53 119.40 117.86 C 119.18 117.83 118.73 117.77 118.51 117.73 Z" />
<path fill="#333333" opacity="1.00" d=" M 112.92 114.10 C 112.69 111.97 112.95 108.60 115.96 109.25 C 115.53 111.17 114.03 112.56 112.92 114.10 Z" />
<path fill="#333333" opacity="1.00" d=" M 146.40 112.61 C 150.13 114.20 153.05 117.99 153.23 122.07 C 152.34 124.70 151.29 127.29 150.89 130.06 C 150.54 132.88 148.13 134.73 146.30 136.63 C 145.19 133.60 148.57 131.79 148.95 129.00 C 149.49 126.64 150.41 124.39 150.98 122.05 C 151.47 118.23 147.50 115.97 146.40 112.61 Z" />
<path fill="#333333" opacity="1.00" d=" M 130.07 115.43 C 131.42 115.60 131.64 116.30 130.74 117.53 C 129.39 117.36 129.16 116.66 130.07 115.43 Z" />
<path fill="#333333" opacity="1.00" d=" M 39.95 119.86 C 40.46 119.88 41.47 119.92 41.98 119.94 C 41.61 122.93 42.05 126.03 41.11 128.93 C 38.75 126.68 40.40 122.79 39.95 119.86 Z" />
<path fill="#333333" opacity="1.00" d=" M 31.57 125.61 C 33.69 125.10 35.83 124.71 37.98 124.33 C 36.79 125.35 35.59 126.35 34.41 127.38 C 33.45 126.81 32.50 126.22 31.57 125.61 Z" />
<path fill="#333333" opacity="1.00" d=" M 182.98 125.35 C 184.53 124.93 186.15 127.27 185.75 128.67 C 184.17 129.16 181.98 126.85 182.98 125.35 Z" />
<path fill="#333333" opacity="1.00" d=" M 120.74 127.33 C 122.98 127.56 125.31 127.52 127.46 128.24 C 129.97 129.41 132.07 131.24 134.37 132.75 C 136.01 136.23 137.61 139.84 140.38 142.59 C 141.90 138.70 138.87 135.30 137.35 131.97 C 138.76 133.06 140.32 134.01 141.46 135.41 C 142.86 138.30 143.28 141.55 143.71 144.69 C 144.36 144.19 145.02 143.68 145.67 143.18 C 146.36 143.57 147.05 143.95 147.75 144.33 C 145.80 144.56 143.87 144.86 141.94 145.19 C 137.32 142.95 133.50 138.91 128.08 138.68 C 128.49 138.47 129.32 138.04 129.73 137.83 C 131.34 138.15 132.94 138.45 134.56 138.75 C 134.05 137.50 133.54 136.25 133.03 135.01 C 129.20 132.03 124.84 129.90 120.74 127.33 Z" />
<path fill="#333333" opacity="1.00" d=" M 188.58 135.72 C 190.21 137.57 191.29 139.80 191.88 142.18 C 188.64 142.00 189.27 138.01 188.58 135.72 Z" />
<path fill="#333333" opacity="1.00" d=" M 154.79 155.46 C 155.38 154.93 155.98 154.43 156.61 153.95 C 157.47 154.78 158.29 155.66 159.09 156.56 C 157.64 156.23 156.21 155.86 154.79 155.46 Z" />
<path fill="#333333" opacity="1.00" d=" M 223.10 183.15 C 226.16 185.36 230.45 187.68 230.39 191.99 C 230.59 195.53 227.93 198.49 224.91 199.94 C 219.58 202.61 213.07 203.50 207.42 201.31 C 204.86 200.14 202.07 198.62 201.06 195.81 C 200.15 193.70 200.57 191.39 200.84 189.20 C 201.14 189.30 201.73 189.51 202.03 189.61 C 201.33 193.52 204.60 196.56 207.51 198.57 C 213.40 201.37 220.26 199.22 225.54 196.01 C 226.34 193.75 227.26 191.38 226.67 188.94 C 225.31 187.09 222.98 185.74 223.10 183.15 Z" />
</g>
</svg>
