<?xml version="1.0" encoding="UTF-8" ?>
<!DOCTYPE svg PUBLIC "-//W3C//DTD SVG 1.1//EN" "http://www.w3.org/Graphics/SVG/1.1/DTD/svg11.dtd">
<svg width="118pt" height="250pt" viewBox="0 0 118 250" version="1.1" xmlns="http://www.w3.org/2000/svg"><g id="#2d2e2cff">
<path fill="#333333" opacity="1.00" d=" M 16.36 0.00 L 16.77 0.00 C 17.05 10.32 17.61 20.64 18.47 30.93 C 18.45 71.55 18.86 112.18 17.39 152.78 C 17.11 152.57 16.56 152.15 16.29 151.94 C 16.26 101.29 16.13 50.64 16.36 0.00 Z" />
<path fill="#333333" opacity="1.00" d=" M 26.19 0.00 L 27.47 0.00 C 27.49 23.35 27.50 46.70 27.47 70.05 C 27.55 78.79 26.64 87.50 26.69 96.24 C 28.82 92.79 33.15 92.70 36.68 91.77 C 37.84 89.92 38.99 88.06 40.18 86.22 C 43.55 85.49 46.94 84.90 50.34 84.32 C 52.36 85.25 54.44 86.37 54.98 88.75 C 55.31 88.89 55.97 89.17 56.30 89.31 C 57.05 88.97 58.55 88.29 59.30 87.96 C 56.00 60.35 53.06 32.70 49.74 5.10 C 49.58 3.41 49.57 1.70 49.61 0.00 L 52.08 0.00 L 51.41 0.01 C 52.83 6.99 53.11 14.14 54.11 21.18 C 56.54 43.41 59.34 65.59 61.62 87.83 C 63.36 87.47 65.09 87.11 66.82 86.74 C 67.33 85.27 67.72 83.73 68.60 82.43 C 71.12 79.75 75.86 82.12 78.03 79.01 C 81.42 74.47 87.15 72.86 92.39 71.56 C 95.70 70.66 99.46 71.48 102.02 73.79 C 106.36 77.87 109.51 83.93 108.09 90.01 C 107.93 93.89 104.60 96.31 102.34 99.05 C 103.87 100.24 105.46 101.35 106.99 102.54 C 107.18 105.67 107.21 108.87 106.43 111.94 C 105.39 114.95 102.57 117.00 101.74 120.12 C 101.00 122.45 99.90 124.62 98.54 126.64 C 97.86 130.69 95.64 134.26 92.77 137.12 C 92.79 134.42 94.47 132.27 95.74 130.03 C 94.71 126.24 99.01 124.34 99.43 120.88 C 99.70 119.11 99.82 117.32 100.01 115.54 C 100.63 115.62 101.88 115.77 102.51 115.85 C 103.45 113.66 104.28 111.44 104.96 109.16 C 102.25 109.09 101.13 111.94 99.59 113.67 C 97.67 115.77 98.34 118.86 97.12 121.27 C 96.29 122.68 95.17 123.89 94.13 125.16 C 92.34 131.59 87.88 137.03 81.82 139.89 C 85.00 134.52 90.71 130.81 92.30 124.46 C 94.49 122.46 95.98 119.88 96.27 116.89 C 96.59 113.61 99.70 111.79 100.96 108.96 C 101.74 106.97 100.97 104.91 100.41 102.99 C 101.63 102.36 102.84 101.71 104.04 101.05 C 101.30 99.35 98.01 98.89 95.09 100.38 C 93.97 102.44 93.20 104.71 91.73 106.58 C 91.82 104.42 92.11 102.28 92.61 100.19 C 90.55 99.59 88.50 98.98 86.48 98.23 C 90.48 97.04 94.64 99.27 98.56 97.58 C 101.45 96.37 104.50 94.72 106.08 91.90 C 107.61 85.85 104.65 79.79 100.75 75.30 C 99.51 73.98 98.13 72.07 96.04 72.59 C 90.98 73.33 85.86 74.83 81.52 77.61 C 79.39 79.84 77.33 82.32 76.15 85.19 C 74.88 89.81 78.60 93.44 81.22 96.73 C 80.28 96.05 79.34 95.38 78.40 94.70 C 75.66 90.95 74.21 86.41 75.39 81.77 C 72.66 82.46 69.63 82.84 67.76 85.21 C 69.18 85.79 71.96 85.94 71.61 88.16 C 71.85 90.85 68.96 91.72 67.14 92.86 C 69.23 93.97 71.55 94.49 73.83 95.05 C 74.23 95.81 75.02 97.32 75.41 98.08 C 75.95 97.39 77.02 96.00 77.55 95.31 C 77.07 96.54 76.54 97.75 75.96 98.93 C 74.77 102.13 70.90 102.35 68.02 102.89 C 64.17 102.57 59.57 101.28 56.58 104.60 C 53.20 108.84 50.28 113.79 49.74 119.29 C 46.54 121.67 43.33 124.03 40.17 126.46 C 42.87 126.38 45.56 126.53 48.24 126.85 C 48.17 127.17 48.03 127.82 47.96 128.15 C 46.30 128.24 44.64 128.39 43.01 128.76 C 39.88 129.39 39.00 132.46 37.44 134.81 C 37.58 132.46 38.10 130.16 38.98 127.98 C 38.53 128.10 37.63 128.35 37.18 128.48 C 39.70 124.57 42.74 121.05 46.67 118.50 C 49.29 114.99 50.79 110.58 51.05 106.20 C 51.69 101.65 54.51 97.93 57.17 94.35 C 55.76 92.90 54.37 91.44 52.98 89.97 C 52.93 89.28 52.83 87.91 52.78 87.22 C 52.14 86.98 50.86 86.50 50.22 86.26 C 47.37 86.95 44.43 87.15 41.50 87.25 C 40.70 88.61 39.89 89.97 39.07 91.32 C 41.70 92.09 42.38 94.27 41.84 96.74 C 42.66 98.41 43.78 100.04 43.96 101.95 C 42.74 105.49 40.58 108.62 39.17 112.09 C 36.92 116.73 36.12 121.94 33.51 126.43 C 31.79 129.27 33.42 132.43 34.63 135.10 C 34.84 137.28 35.10 139.46 35.42 141.64 C 37.91 141.78 40.42 142.00 42.91 141.74 C 47.28 140.80 50.22 137.20 53.26 134.23 C 57.44 130.29 58.60 124.31 62.55 120.17 C 59.84 119.44 55.74 121.31 54.39 118.07 C 59.01 118.29 66.32 116.41 68.15 122.12 C 66.92 121.45 65.71 120.76 64.50 120.05 C 61.85 124.11 60.14 128.71 57.28 132.65 C 58.24 132.59 60.16 132.47 61.12 132.41 C 60.77 130.69 60.72 128.96 60.98 127.21 C 62.02 128.78 62.54 130.92 64.30 131.92 C 66.37 132.04 68.17 130.63 70.10 130.02 C 69.01 131.50 68.34 133.98 66.18 134.15 C 65.33 134.04 63.64 133.84 62.79 133.74 C 60.82 133.88 58.84 133.90 56.87 133.77 C 55.46 135.14 54.06 136.52 52.62 137.85 C 49.00 139.80 46.35 143.74 41.97 144.06 C 39.52 143.85 37.06 143.21 34.82 142.20 C 33.11 140.95 33.10 138.52 32.53 136.65 C 31.75 134.16 30.69 131.60 31.00 128.94 C 33.27 119.46 37.86 110.84 41.58 101.90 C 41.36 101.12 40.92 99.57 40.70 98.80 C 36.02 98.51 30.54 101.95 26.64 98.03 C 26.83 111.00 27.18 123.98 26.98 136.96 C 26.98 139.39 26.18 141.97 27.47 144.22 C 26.73 144.36 25.99 144.51 25.24 144.65 C 25.46 96.44 24.63 48.20 26.19 0.00 M 55.28 90.93 C 56.88 91.80 58.52 93.46 60.52 92.65 C 63.97 91.80 69.52 91.93 70.32 87.50 C 69.56 87.62 68.04 87.85 67.28 87.97 C 63.40 89.40 58.99 89.11 55.28 90.93 M 28.93 95.14 C 28.50 96.80 28.32 98.79 30.18 99.69 C 30.16 98.60 30.13 96.41 30.11 95.31 C 31.24 95.99 32.06 96.96 32.57 98.20 C 34.83 97.68 37.09 97.17 39.37 96.70 C 39.91 95.23 39.58 94.13 38.37 93.39 C 35.21 93.91 32.11 94.77 28.93 95.14 M 59.20 94.60 C 57.48 96.22 56.22 98.28 54.51 99.93 C 54.03 102.07 53.40 104.16 52.81 106.27 C 54.17 104.75 55.61 103.30 57.24 102.07 C 60.39 100.62 63.92 100.76 67.20 101.69 C 69.69 101.01 71.99 99.84 74.28 98.67 C 73.60 97.81 72.94 96.95 72.28 96.08 C 70.25 95.96 67.99 96.19 66.36 94.73 C 64.36 92.99 61.49 94.06 59.20 94.60 M 103.34 103.17 C 103.11 105.24 102.53 107.87 104.98 108.68 C 104.58 107.06 106.28 103.00 103.34 103.17 Z" />
<path fill="#333333" opacity="1.00" d=" M 80.67 101.93 C 81.91 100.86 83.23 99.85 84.80 99.32 C 83.54 101.82 81.18 104.42 78.11 104.02 C 74.81 103.58 71.82 104.91 68.79 105.94 C 70.42 101.23 76.70 102.21 80.67 101.93 Z" />
<path fill="#333333" opacity="1.00" d=" M 64.99 104.78 C 66.49 106.34 67.48 108.28 67.08 110.52 C 64.71 109.58 64.66 106.90 64.99 104.78 Z" />
<path fill="#333333" opacity="1.00" d=" M 88.48 106.44 L 89.76 106.22 C 90.45 110.42 92.66 114.60 91.25 118.91 C 90.48 124.34 86.13 128.06 83.81 132.78 C 82.83 135.22 80.85 136.98 79.04 138.81 C 79.03 139.50 79.00 140.89 78.98 141.58 C 77.09 142.71 78.12 145.14 78.00 146.89 C 77.86 151.34 77.57 155.80 77.56 160.26 C 74.16 155.51 76.40 149.32 76.52 143.97 L 72.82 146.21 C 73.30 142.93 76.74 141.72 77.83 138.81 C 78.69 136.20 81.06 134.55 82.11 132.05 C 84.17 127.68 88.12 124.31 89.17 119.46 C 90.45 115.15 88.75 110.76 88.48 106.44 Z" />
<path fill="#333333" opacity="1.00" d=" M 67.24 111.33 C 68.35 112.15 68.71 113.45 69.05 114.71 C 71.60 116.78 74.50 118.65 77.97 118.05 C 77.24 119.53 75.98 120.22 74.34 120.15 C 72.60 119.06 70.86 118.00 69.15 116.87 C 68.61 114.99 67.87 113.18 67.24 111.33 Z" />
<path fill="#333333" opacity="1.00" d=" M 64.19 122.47 C 64.81 121.23 68.25 121.53 66.53 123.16 C 65.84 124.29 62.48 124.21 64.19 122.47 Z" />
<path fill="#333333" opacity="1.00" d=" M 74.33 121.26 C 75.00 122.40 76.74 123.39 76.10 124.93 C 75.17 127.47 73.31 129.55 72.47 132.13 C 73.00 134.82 73.58 137.51 73.64 140.27 C 71.25 137.37 71.93 133.38 70.85 130.01 C 72.15 127.14 73.12 124.16 74.33 121.26 Z" />
<path fill="#333333" opacity="1.00" d=" M 41.83 140.87 C 42.49 137.90 45.75 136.34 48.49 135.75 C 47.06 138.31 44.44 139.77 41.83 140.87 Z" />
<path fill="#333333" opacity="1.00" d=" M 90.24 136.42 C 90.72 136.64 91.68 137.09 92.16 137.32 C 91.56 137.99 90.95 138.66 90.32 139.32 C 91.23 144.84 89.41 150.37 88.76 155.84 C 89.95 157.27 89.33 158.88 88.63 160.36 C 89.19 161.76 89.76 163.16 90.36 164.55 C 90.05 166.26 89.77 167.98 89.51 169.71 C 89.26 168.21 89.07 166.72 88.86 165.22 L 88.17 165.97 C 87.90 165.18 87.37 163.58 87.10 162.79 C 83.34 163.49 79.76 164.83 76.11 165.93 C 70.69 167.00 65.13 166.20 59.78 165.11 C 56.95 164.19 53.99 163.37 51.96 161.04 C 49.14 162.45 50.11 165.83 49.72 168.36 C 46.66 167.96 48.55 164.07 48.06 161.98 C 49.28 160.91 50.51 159.85 51.79 158.86 C 52.86 152.41 47.45 146.61 50.17 140.32 C 51.03 139.87 51.88 139.40 52.72 138.92 C 53.82 139.65 54.83 140.57 56.10 141.02 C 58.03 141.19 60.22 140.50 61.79 141.99 C 59.93 144.01 56.89 143.67 54.42 143.53 C 55.93 146.81 57.58 150.03 58.73 153.45 C 59.88 156.85 62.21 159.74 62.89 163.32 C 64.31 163.73 65.72 164.15 67.14 164.58 L 67.35 162.71 C 67.40 163.31 67.51 164.50 67.56 165.10 C 73.81 165.39 79.72 162.73 85.56 160.82 C 88.36 156.36 87.74 150.99 88.35 145.99 C 88.51 143.76 89.06 141.48 88.43 139.27 C 89.03 138.32 89.64 137.37 90.24 136.42 M 51.27 140.81 C 50.74 143.82 50.83 146.95 52.14 149.76 C 53.80 153.70 52.16 158.46 54.76 162.10 C 56.72 164.46 59.97 163.77 62.65 164.02 C 55.82 157.96 55.74 148.18 51.27 140.81 Z" />
<path fill="#333333" opacity="1.00" d=" M 82.44 142.21 C 82.59 141.95 82.90 141.42 83.05 141.16 C 84.64 141.02 86.46 140.59 87.00 142.53 C 85.48 142.45 83.96 142.33 82.44 142.21 Z" />
<path fill="#333333" opacity="1.00" d=" M 67.57 147.47 C 68.46 145.97 69.39 144.44 71.00 143.62 C 71.77 147.58 67.97 149.68 65.02 151.17 C 65.83 149.90 66.67 148.66 67.57 147.47 Z" />
<path fill="#333333" opacity="1.00" d=" M 23.03 149.02 C 26.89 145.11 32.96 145.43 37.90 146.64 C 41.13 146.17 44.37 145.51 47.66 145.54 L 48.48 146.78 C 42.49 148.01 36.45 148.97 30.44 150.12 C 30.13 150.59 29.51 151.54 29.21 152.02 C 29.27 153.22 29.34 154.42 29.41 155.62 C 30.20 156.14 31.00 156.66 31.79 157.19 C 32.53 158.07 32.74 159.72 34.08 159.89 C 40.15 160.05 45.63 156.63 51.68 156.47 C 49.57 160.08 44.39 159.56 40.83 160.75 C 40.79 161.70 40.76 162.65 40.73 163.60 C 40.17 166.58 40.38 169.62 40.46 172.63 C 40.15 172.93 39.53 173.53 39.22 173.83 C 39.29 170.30 39.41 166.75 38.98 163.23 L 40.39 163.36 C 39.96 162.61 39.52 161.85 39.07 161.11 C 36.13 161.66 35.75 164.69 35.34 167.08 C 34.98 170.68 35.57 174.33 36.60 177.78 C 38.04 181.10 41.97 182.05 43.88 184.96 C 44.55 184.83 45.21 184.72 45.88 184.60 C 48.19 188.40 51.93 191.00 55.34 193.73 C 61.25 196.29 68.52 197.42 74.33 193.96 C 79.78 193.77 84.02 190.09 89.08 188.60 C 92.17 183.31 91.71 176.73 90.37 170.97 C 91.50 171.29 92.84 171.57 92.97 173.00 C 93.95 177.25 93.42 181.72 92.49 185.94 C 94.56 188.15 96.89 190.85 96.14 194.15 C 95.44 196.63 94.39 199.41 91.94 200.64 C 89.47 201.40 86.91 201.84 84.41 202.50 C 86.24 207.83 86.80 213.62 86.13 219.21 C 85.91 221.96 83.37 223.36 81.20 224.48 C 78.81 223.44 75.75 222.97 74.50 220.37 C 74.46 221.40 74.36 223.44 74.32 224.46 C 69.76 219.18 74.42 211.69 71.47 205.84 C 69.40 206.37 67.24 206.75 65.36 207.80 C 65.94 213.59 65.78 219.44 66.07 225.26 C 65.66 225.02 64.84 224.55 64.43 224.32 C 63.53 220.41 64.28 216.30 63.35 212.41 C 60.92 210.87 58.56 209.23 58.07 206.17 C 52.86 202.34 47.57 198.51 41.65 195.83 C 41.86 198.87 42.43 201.94 41.75 204.98 C 42.78 207.88 43.18 210.94 43.62 213.97 C 45.32 218.75 45.93 224.03 44.82 229.02 C 44.73 232.17 40.84 232.64 38.44 233.18 C 33.49 233.31 29.13 230.35 24.98 228.02 C 22.17 226.27 18.66 226.60 15.73 225.14 C 13.57 224.07 11.52 222.73 9.77 221.06 C 9.23 219.66 9.54 218.10 9.45 216.63 C 10.53 215.63 11.57 214.56 12.80 213.75 C 14.75 212.50 17.32 212.94 19.22 211.58 C 19.35 211.94 19.60 212.64 19.72 212.99 C 22.41 210.82 25.40 209.09 28.57 207.73 C 29.47 206.79 30.38 205.88 31.31 204.99 C 31.51 205.79 31.91 207.37 32.11 208.17 C 28.20 210.66 23.47 211.79 20.08 215.18 C 17.92 215.20 15.41 213.98 13.57 215.63 C 12.18 216.71 11.46 218.38 10.55 219.84 C 12.10 220.86 13.61 221.96 15.30 222.76 C 18.90 224.60 23.34 223.78 26.79 226.02 C 30.53 228.19 34.33 231.26 38.91 230.85 C 40.56 230.64 43.28 230.32 42.83 227.97 C 43.10 222.27 42.76 216.53 40.98 211.07 C 39.16 205.20 42.40 198.53 39.14 193.10 C 37.98 190.06 39.36 186.89 39.90 183.88 C 37.83 182.41 35.73 180.94 34.21 178.88 C 35.18 173.92 32.82 168.37 35.47 163.84 C 34.02 160.34 30.18 159.12 27.72 156.56 C 26.62 153.36 27.44 149.93 30.10 147.80 C 24.04 148.08 21.24 154.71 22.02 160.01 C 23.12 165.28 23.65 170.65 24.61 175.94 C 25.54 185.92 30.64 194.93 31.32 204.94 C 30.48 204.06 29.22 203.44 28.82 202.22 C 26.91 194.54 25.21 186.75 22.73 179.23 C 22.50 176.17 22.25 173.11 22.06 170.05 C 22.91 165.87 19.80 162.15 20.60 157.98 C 20.87 154.94 20.25 151.12 23.03 149.02 M 41.41 190.92 C 41.35 194.15 45.07 194.64 47.23 195.98 C 52.45 198.99 57.65 202.17 62.28 206.05 C 70.40 204.54 78.02 201.05 86.16 199.64 C 88.72 199.03 92.21 199.06 93.09 195.96 C 94.88 193.29 93.58 190.22 91.51 188.18 C 89.30 192.36 84.86 195.38 80.09 195.56 C 76.59 195.83 73.29 197.14 69.83 197.65 C 63.08 199.13 55.82 197.01 50.62 192.54 C 47.73 191.27 46.82 187.71 43.84 186.64 C 41.52 186.21 41.14 189.27 41.41 190.92 M 73.87 205.81 C 74.00 208.31 74.12 210.81 74.29 213.31 C 77.11 213.00 77.99 210.66 78.58 208.28 C 79.02 208.37 79.90 208.55 80.34 208.63 C 80.82 212.18 77.09 214.30 73.92 213.47 C 74.54 216.64 76.14 219.84 78.99 221.55 C 82.90 223.16 85.12 218.13 85.35 215.02 C 84.72 210.95 83.68 206.95 83.08 202.88 C 79.78 203.01 76.84 204.55 73.87 205.81 M 61.18 207.95 C 60.39 209.27 62.65 210.70 63.62 209.62 C 64.44 208.27 62.17 206.82 61.18 207.95 Z" />
<path fill="#333333" opacity="1.00" d=" M 53.95 166.32 C 55.70 167.05 57.39 167.93 58.85 169.16 C 63.43 169.37 68.13 170.21 72.62 168.82 C 77.06 167.62 81.92 167.92 86.05 165.66 C 86.22 166.18 86.55 167.22 86.71 167.74 C 83.23 169.20 79.26 168.09 75.89 169.84 C 72.45 171.41 68.63 171.48 64.92 171.61 C 61.86 168.53 54.80 171.63 53.95 166.32 Z" />
<path fill="#333333" opacity="1.00" d=" M 77.27 190.16 C 78.28 187.10 81.51 186.29 84.33 185.76 C 82.53 187.97 80.00 189.43 77.27 190.16 Z" />
<path fill="#333333" opacity="1.00" d=" M 35.64 220.28 C 36.36 219.54 37.10 218.81 37.84 218.10 C 38.89 221.09 35.09 223.68 32.37 222.80 C 32.44 222.24 32.59 221.14 32.67 220.59 C 33.66 220.48 34.65 220.38 35.64 220.28 Z" />
</g>
</svg>
