<?xml version="1.0" encoding="UTF-8" ?>
<!DOCTYPE svg PUBLIC "-//W3C//DTD SVG 1.1//EN" "http://www.w3.org/Graphics/SVG/1.1/DTD/svg11.dtd">
<svg width="276pt" height="225pt" viewBox="0 0 276 225" version="1.1" xmlns="http://www.w3.org/2000/svg"><g id="#575856ff">
<path fill="#333333" opacity="1.00" d=" M 212.50 47.67 C 215.30 47.74 218.30 47.58 220.78 49.12 C 225.64 51.64 228.71 56.35 231.57 60.83 C 235.58 58.36 239.69 55.98 244.10 54.32 C 245.46 55.19 246.53 56.50 247.00 58.06 C 242.99 61.47 237.79 63.08 233.34 65.84 C 235.16 73.18 237.58 81.51 233.62 88.58 C 231.53 92.96 226.23 93.79 221.98 94.66 C 214.97 94.02 210.73 87.54 206.52 82.65 C 206.77 83.62 207.27 85.55 207.52 86.51 C 207.34 90.26 207.91 93.98 209.49 97.40 C 212.07 105.61 215.93 114.76 212.18 123.17 C 208.24 126.11 202.95 125.24 198.52 126.92 C 193.37 128.70 187.91 129.64 182.46 129.21 C 182.81 130.27 183.16 131.33 183.51 132.40 C 183.98 132.71 184.91 133.33 185.37 133.64 C 186.04 136.88 186.84 140.36 185.37 143.52 C 183.83 147.35 179.91 149.21 176.63 151.28 C 175.17 157.62 168.05 159.24 163.47 162.76 C 158.63 166.40 152.24 166.40 146.49 165.70 C 146.36 171.13 146.93 176.58 146.32 182.00 C 145.89 186.33 146.90 190.63 146.56 194.96 C 143.39 196.21 140.57 198.23 138.33 200.80 C 120.62 194.71 103.03 188.22 85.05 182.97 C 78.84 180.33 72.45 178.06 65.94 176.30 C 58.70 178.52 52.06 182.27 45.17 185.35 C 42.64 184.34 40.01 183.68 37.34 183.21 C 37.05 179.34 36.70 175.47 36.67 171.59 C 41.65 169.20 46.70 166.97 51.71 164.65 C 51.53 159.54 52.99 154.52 52.52 149.42 C 53.42 144.63 52.09 139.75 52.87 134.93 C 53.71 129.85 52.41 124.80 51.91 119.77 C 52.00 116.33 52.37 112.91 52.46 109.47 C 50.13 107.88 48.05 105.98 45.88 104.20 C 45.15 108.46 45.10 112.79 44.73 117.09 C 43.96 123.94 48.86 130.46 46.50 137.30 C 43.70 138.12 40.87 139.16 37.91 138.83 C 34.78 138.73 32.69 136.01 29.87 135.06 C 25.93 133.60 21.65 132.52 18.46 129.64 C 17.11 127.44 16.38 123.60 18.95 121.97 C 20.31 120.71 22.10 120.15 23.92 120.01 C 27.11 119.75 30.09 118.49 33.25 118.02 C 33.87 115.39 34.71 112.78 34.89 110.07 C 35.63 102.98 33.24 95.94 34.49 88.86 C 35.33 83.57 35.93 78.19 37.32 73.01 C 40.28 68.52 46.73 67.66 51.48 69.61 C 55.06 70.17 57.47 73.00 60.69 74.31 C 60.97 70.87 60.73 67.39 61.28 63.98 C 63.55 60.97 67.09 58.85 70.98 59.60 C 78.11 59.46 83.31 64.63 89.02 68.02 C 92.39 70.11 94.63 74.51 99.18 73.93 C 101.70 76.60 104.73 78.59 108.19 79.83 C 110.05 82.67 113.13 83.70 116.16 84.81 C 119.29 85.72 119.71 89.22 120.78 91.79 C 121.74 92.36 122.69 92.92 123.65 93.47 C 127.09 93.18 130.57 93.44 133.89 94.38 C 138.94 92.79 145.20 92.73 148.43 97.66 C 150.73 98.06 153.02 98.46 155.31 98.90 C 154.32 101.14 151.93 100.57 150.05 100.59 C 147.98 100.39 146.11 101.45 144.23 102.13 C 144.52 102.51 145.09 103.27 145.38 103.65 C 144.55 104.49 143.72 105.32 142.90 106.16 C 139.69 106.07 136.28 106.52 133.68 108.56 C 131.66 110.48 129.98 112.72 128.21 114.86 C 138.05 110.89 147.18 105.36 156.06 99.61 C 161.30 98.82 165.58 95.64 170.02 93.01 C 177.75 89.38 185.12 85.06 192.64 81.00 C 192.63 79.89 192.63 78.78 192.63 77.67 C 196.06 75.82 199.39 71.91 203.64 73.72 C 201.19 67.78 201.31 60.65 203.80 54.72 C 205.21 50.91 209.27 49.52 212.50 47.67 M 205.33 55.27 C 202.33 61.04 203.93 67.59 204.49 73.70 C 206.00 74.98 207.52 76.25 209.02 77.55 C 211.09 75.57 214.99 75.00 215.33 71.71 C 212.68 72.40 210.26 73.71 207.69 74.63 L 206.80 73.87 C 209.06 71.90 211.89 70.78 214.49 69.35 C 215.61 70.91 217.54 72.55 216.61 74.69 C 214.42 76.54 211.73 77.65 209.17 78.89 C 208.86 79.51 208.22 80.75 207.91 81.37 C 210.72 85.42 214.03 89.34 218.45 91.72 C 220.78 92.92 224.14 92.87 226.04 90.94 C 231.08 77.65 226.19 60.71 213.76 53.34 C 212.75 53.17 211.11 51.10 213.10 50.97 C 215.24 51.39 216.95 52.94 218.59 54.28 C 225.69 60.82 229.54 70.39 230.10 79.92 C 230.36 83.37 228.79 86.53 228.18 89.81 C 230.29 90.93 231.57 87.86 232.46 86.41 C 236.75 76.64 232.95 65.32 226.96 57.12 C 223.77 52.47 218.61 49.60 212.99 49.22 C 210.20 50.87 206.61 51.97 205.33 55.27 M 231.79 61.86 C 232.02 62.35 232.47 63.33 232.70 63.82 C 237.22 62.62 241.06 59.65 245.37 57.87 C 244.69 57.23 244.00 56.59 243.32 55.96 C 239.63 58.21 235.77 60.19 231.79 61.86 M 63.47 62.57 C 61.16 66.55 64.50 70.85 62.41 74.93 C 63.44 75.22 65.53 78.31 65.91 76.00 C 66.03 75.55 66.28 74.65 66.40 74.19 C 69.01 74.91 71.65 75.51 74.31 75.93 C 74.43 76.45 74.66 77.49 74.77 78.01 C 72.59 77.70 70.41 76.90 68.19 77.19 C 68.29 78.31 68.74 79.32 69.53 80.21 C 73.05 80.40 76.61 80.44 79.99 81.60 C 81.47 79.79 83.01 78.02 84.41 76.15 C 86.93 75.27 89.49 74.51 92.10 73.91 C 90.30 71.42 88.56 68.66 85.60 67.43 C 78.78 64.27 71.19 58.89 63.47 62.57 M 41.63 71.81 C 38.39 74.44 37.28 78.92 37.29 82.95 C 37.25 88.63 36.37 94.27 36.39 99.95 C 36.20 105.15 38.60 109.97 38.86 115.13 C 38.13 113.80 37.42 112.47 36.73 111.13 C 36.07 114.07 35.78 118.29 32.41 119.44 C 27.91 121.76 22.72 121.65 18.00 123.25 C 18.28 127.71 22.13 130.67 26.09 131.91 C 32.18 133.67 38.20 138.31 44.74 135.55 C 45.71 127.92 42.80 120.59 42.69 113.02 C 42.61 109.75 43.99 106.38 43.00 103.19 C 41.57 102.07 39.91 101.23 38.57 99.98 C 38.66 97.30 37.96 93.39 41.07 92.15 C 42.93 91.65 45.19 89.11 46.91 91.26 C 47.44 90.91 47.97 90.55 48.50 90.20 C 45.70 88.22 43.45 84.99 39.63 85.31 C 41.29 84.89 42.92 84.34 44.62 84.10 C 46.23 85.60 47.58 87.43 49.47 88.61 C 51.23 89.94 53.95 90.56 54.23 93.15 C 52.54 92.49 50.88 91.78 49.23 91.04 C 49.55 91.73 50.19 93.10 50.50 93.79 C 52.61 95.35 54.70 96.94 56.86 98.43 C 56.95 95.12 56.76 91.55 58.69 88.67 C 60.83 84.77 64.77 82.40 68.77 80.75 C 63.27 78.23 57.95 75.34 52.81 72.15 C 49.49 69.97 45.16 70.66 41.63 71.81 M 195.12 78.15 C 195.33 78.90 195.76 80.42 195.97 81.18 C 185.37 87.24 174.52 92.91 163.64 98.44 C 157.17 102.62 150.08 105.68 143.39 109.47 C 136.56 113.44 129.16 116.33 122.40 120.45 C 118.42 122.96 113.93 124.63 110.29 127.66 C 109.10 125.61 107.32 124.08 105.14 123.18 C 102.00 126.18 98.41 128.66 94.49 130.55 C 93.97 126.49 98.67 126.23 101.09 124.46 C 96.30 120.81 89.53 121.11 85.26 116.70 C 83.26 114.78 80.29 114.97 77.84 114.02 C 75.29 113.17 73.28 111.34 70.98 110.02 C 68.68 109.37 66.26 109.46 63.91 109.43 C 64.82 106.00 69.40 107.89 71.91 107.99 C 78.24 111.42 84.49 115.34 91.59 116.98 C 90.28 110.78 92.43 104.69 95.27 99.29 C 98.64 96.64 101.85 93.44 106.11 92.30 C 109.51 89.87 113.77 89.77 117.77 89.59 C 118.03 88.40 116.84 87.74 116.23 86.93 C 114.49 86.43 112.73 86.03 110.94 85.73 C 109.00 84.06 107.36 81.93 104.90 80.97 C 101.79 79.78 99.72 77.05 96.88 75.42 C 93.51 74.44 90.03 75.42 86.85 76.62 C 85.64 78.14 84.44 79.66 83.25 81.19 C 83.20 82.03 83.09 83.70 83.04 84.53 C 85.98 84.29 88.88 83.78 91.78 83.25 C 92.10 83.67 92.73 84.52 93.05 84.94 C 90.80 85.86 88.45 86.51 86.08 87.03 C 80.46 85.22 75.36 80.72 69.09 81.98 C 61.02 84.86 57.85 95.10 61.15 102.63 C 61.30 104.42 64.35 106.73 62.10 108.08 C 59.35 107.36 57.81 104.45 57.34 101.81 C 52.63 99.61 49.73 95.17 45.76 92.07 C 43.60 92.21 41.92 94.18 39.99 95.08 C 40.07 96.48 40.15 97.87 40.24 99.27 C 46.68 101.85 51.53 106.99 57.46 110.44 C 60.54 112.58 64.24 113.93 66.65 116.92 C 66.89 116.74 67.37 116.39 67.61 116.21 C 68.76 117.04 69.93 117.83 71.14 118.58 C 71.05 119.11 70.89 120.15 70.80 120.67 C 68.99 119.50 67.32 118.14 65.62 116.81 C 65.19 119.21 65.27 121.82 63.89 123.94 C 64.08 121.35 64.35 118.77 64.62 116.19 C 61.16 114.69 57.79 112.98 54.54 111.08 C 54.23 116.37 54.35 121.69 54.64 126.98 C 54.98 133.33 54.00 139.66 54.35 146.01 C 54.62 149.80 53.48 153.70 54.78 157.37 C 55.34 156.03 55.93 154.70 56.56 153.40 C 60.25 151.31 64.11 149.52 67.75 147.32 C 66.22 142.69 66.14 137.81 65.50 133.02 C 64.35 138.00 66.46 143.56 63.52 148.19 C 62.35 141.04 64.12 133.92 63.80 126.77 C 64.47 126.30 65.14 125.84 65.81 125.37 C 65.38 126.44 64.94 127.51 64.50 128.58 C 64.95 130.31 65.38 132.06 65.85 133.79 C 66.71 128.95 68.36 123.68 73.22 121.48 L 71.09 120.90 C 72.31 120.27 73.74 119.24 75.10 120.49 C 78.50 119.16 82.34 119.69 85.39 121.63 C 90.75 124.60 93.76 130.12 96.92 135.11 C 98.56 135.59 99.63 136.55 99.42 138.39 C 99.84 138.76 100.69 139.48 101.12 139.84 C 101.92 143.31 102.47 146.84 102.28 150.42 L 103.41 150.87 C 101.93 155.53 103.49 160.38 104.62 164.95 C 105.43 169.24 108.35 172.69 111.38 175.66 C 116.51 176.28 120.30 171.88 124.20 169.23 C 125.00 168.22 127.11 167.75 126.81 166.19 C 122.00 166.48 118.71 171.16 114.97 173.85 C 112.94 173.84 110.66 173.51 109.68 171.41 C 111.61 172.12 113.61 172.69 115.68 172.82 C 119.63 169.21 122.95 164.51 128.27 162.81 C 128.47 163.09 128.87 163.65 129.08 163.93 L 129.55 164.46 C 131.92 161.81 135.01 159.74 136.15 156.22 C 138.97 153.39 141.91 150.64 143.70 146.99 C 142.99 145.96 142.29 144.92 141.60 143.88 C 146.69 143.76 152.33 143.81 155.97 139.60 C 156.56 139.69 157.15 139.77 157.75 139.87 C 159.46 145.34 164.95 148.09 169.98 149.82 C 173.22 150.22 176.40 148.92 179.16 147.35 C 182.14 145.82 182.79 142.22 184.48 139.61 C 184.16 138.02 183.83 136.40 183.00 134.98 C 179.88 129.32 177.36 123.25 173.01 118.36 C 166.12 118.66 162.34 126.49 162.23 132.65 C 162.65 133.68 159.96 133.81 160.63 132.59 C 159.79 128.36 161.55 124.50 164.07 121.23 C 162.10 121.25 160.13 121.25 158.16 121.18 C 160.62 117.12 166.38 119.68 169.69 116.82 C 170.62 116.68 172.47 116.40 173.39 116.27 C 176.63 119.51 180.12 122.85 181.57 127.32 C 185.33 125.89 190.45 128.23 193.27 124.76 C 192.75 124.66 191.70 124.47 191.18 124.37 C 194.44 121.00 200.51 118.40 204.32 122.27 C 200.17 122.17 195.11 121.60 192.47 125.66 C 198.24 123.72 204.82 124.44 210.07 121.05 C 211.50 116.52 210.45 111.66 211.17 107.02 C 209.61 104.24 209.14 101.06 208.06 98.12 C 204.35 92.35 205.81 85.17 206.25 78.73 C 204.71 77.29 203.42 74.85 200.99 75.07 C 198.80 75.53 197.04 77.08 195.12 78.15 M 99.96 97.88 C 93.92 101.94 93.31 110.02 93.38 116.64 C 96.56 119.22 100.07 121.36 103.62 123.38 C 104.73 122.81 105.87 122.30 107.04 121.85 C 108.69 122.41 110.19 123.39 111.89 123.85 C 115.16 122.45 118.19 120.55 121.35 118.91 C 121.43 117.71 121.63 116.53 121.95 115.38 C 122.12 116.09 122.46 117.52 122.63 118.23 C 124.29 117.29 126.04 116.47 127.61 115.36 C 128.75 113.51 129.34 111.34 130.69 109.61 C 134.00 106.45 138.00 103.95 142.63 103.37 C 143.73 101.14 145.84 99.80 147.87 98.52 C 144.29 96.91 140.63 95.28 136.64 95.23 C 136.07 98.01 135.48 100.80 134.34 103.41 C 130.97 103.56 128.76 101.36 126.96 98.82 C 121.88 99.61 116.21 99.34 112.44 95.35 C 119.19 97.35 126.66 96.89 132.77 100.81 C 133.65 99.45 134.53 98.08 135.32 96.67 C 131.58 95.37 127.73 93.84 123.69 94.61 C 122.56 93.63 121.42 92.68 120.26 91.75 C 113.28 92.82 105.60 92.99 99.96 97.88 M 81.15 124.77 C 88.99 131.92 94.16 142.25 94.00 152.97 C 93.84 156.34 93.51 160.35 90.39 162.38 C 94.71 149.84 90.34 135.24 80.35 126.71 C 78.35 125.38 76.23 124.25 74.29 122.84 C 72.62 123.99 70.48 124.83 69.67 126.85 C 66.17 132.97 67.97 140.20 68.37 146.81 C 71.97 145.03 75.53 143.15 79.06 141.23 C 80.23 142.80 82.25 144.36 81.63 146.58 C 78.38 149.14 74.44 150.63 70.84 152.64 C 74.72 156.61 77.67 161.92 83.12 163.98 C 86.78 165.54 90.62 163.51 93.88 161.90 C 97.63 158.88 98.25 153.54 98.13 149.02 C 98.08 140.38 94.21 131.98 88.06 125.98 C 84.67 122.92 79.90 120.68 75.28 122.06 C 77.12 123.22 79.39 123.48 81.15 124.77 M 99.82 145.69 C 100.05 142.84 99.29 140.08 98.35 137.42 C 98.51 140.22 99.01 143.00 99.82 145.69 M 146.30 146.58 C 144.68 150.93 140.94 153.75 138.21 157.33 C 143.12 160.13 148.02 164.11 153.98 163.86 C 157.65 163.85 160.95 161.89 163.74 159.68 C 167.26 156.72 171.82 155.37 175.19 152.20 C 172.13 152.05 168.81 152.84 166.01 151.25 C 161.65 149.80 160.69 143.37 155.93 142.93 C 152.94 144.69 149.95 146.68 146.30 146.58 M 60.03 153.18 C 60.53 154.09 61.04 155.00 61.55 155.92 C 67.42 151.78 74.22 149.22 80.13 145.19 L 79.24 143.99 C 72.34 145.75 66.80 150.90 60.03 153.18 M 98.00 159.97 C 95.62 165.41 88.82 166.96 83.44 166.79 C 82.72 167.88 81.48 167.37 80.46 167.18 C 83.86 170.53 88.77 171.44 93.14 172.92 C 102.38 175.21 110.92 179.74 120.27 181.64 C 124.32 182.59 128.19 184.18 132.31 184.86 C 131.98 179.63 131.28 174.30 132.03 169.08 C 132.50 168.54 133.45 167.45 133.92 166.90 C 134.47 173.87 134.92 180.88 134.38 187.87 C 123.93 184.65 113.52 181.31 103.06 178.12 C 94.47 174.71 85.65 171.58 76.51 170.04 C 76.47 169.14 76.42 168.25 76.38 167.35 C 77.02 167.36 78.28 167.37 78.91 167.37 C 79.77 166.63 80.65 165.89 81.51 165.15 C 76.38 162.82 72.73 158.03 70.34 153.05 C 68.15 154.33 65.93 155.67 63.39 156.12 C 64.27 156.73 65.16 157.34 66.05 157.95 C 67.44 157.84 68.83 157.76 70.23 157.70 C 68.72 159.83 66.15 160.68 63.96 161.89 C 63.92 160.06 63.17 158.47 61.99 157.11 C 61.23 157.68 59.71 158.82 58.96 159.39 C 58.36 158.88 57.15 157.86 56.55 157.35 C 55.99 157.45 54.87 157.65 54.32 157.75 C 53.91 160.57 53.54 163.45 54.46 166.22 C 49.45 168.60 44.08 170.13 39.18 172.75 C 39.21 175.67 39.25 178.58 39.32 181.50 C 41.41 182.05 43.50 182.60 45.61 183.08 C 45.69 182.60 45.86 181.64 45.95 181.16 C 46.11 181.59 46.43 182.44 46.59 182.87 C 54.28 179.68 61.35 175.10 69.31 172.56 C 69.35 173.11 69.44 174.21 69.48 174.76 C 92.33 182.66 115.35 189.93 138.24 197.69 C 140.40 196.21 142.54 194.71 144.75 193.30 C 142.89 184.20 144.45 174.82 145.77 165.75 C 143.66 163.19 140.73 161.62 137.94 159.92 C 134.50 161.34 133.64 165.53 130.57 167.51 C 124.73 172.05 118.73 177.69 111.03 178.36 C 104.78 174.78 103.12 167.28 101.35 160.86 C 99.87 155.92 101.21 150.74 100.61 145.71 C 99.91 150.48 100.22 155.54 98.00 159.97 M 58.12 154.55 C 57.27 155.76 57.51 156.47 58.85 156.67 C 59.69 155.46 59.45 154.75 58.12 154.55 Z" />
<path fill="#333333" opacity="1.00" d=" M 66.71 71.31 C 70.81 69.42 76.75 68.16 80.02 72.16 C 75.57 72.17 71.11 72.05 66.71 71.31 Z" />
<path fill="#333333" opacity="1.00" d=" M 44.53 78.95 C 47.06 78.23 48.55 80.40 50.14 81.90 C 48.01 81.47 45.54 81.22 44.53 78.95 Z" />
<path fill="#333333" opacity="1.00" d=" M 183.87 90.97 C 188.05 88.88 191.81 85.94 196.22 84.34 C 196.66 84.41 197.54 84.53 197.98 84.59 C 197.13 85.73 195.03 86.30 195.39 88.04 C 196.23 89.08 197.50 89.81 198.06 91.08 C 198.60 95.22 198.04 99.41 197.46 103.52 C 196.77 104.45 196.09 105.37 195.42 106.30 C 197.23 107.84 199.06 109.37 200.81 110.99 C 198.55 111.26 196.28 111.51 194.02 111.80 C 194.74 110.87 195.46 109.94 196.19 109.02 C 193.13 108.33 190.17 107.02 187.02 106.87 C 184.56 107.11 182.13 107.59 179.67 107.79 C 180.31 106.33 181.45 105.38 183.12 105.42 C 186.56 105.01 190.02 105.58 193.46 105.84 C 194.17 104.94 194.88 104.04 195.59 103.14 C 195.77 99.09 195.83 95.04 195.69 91.00 C 194.22 90.29 192.76 89.58 191.31 88.86 C 186.28 91.22 181.18 93.45 176.46 96.41 C 171.31 99.71 165.46 101.74 160.51 105.34 C 150.14 110.59 140.13 116.53 129.85 121.96 C 130.72 125.04 132.29 127.90 132.95 131.03 C 130.54 133.44 127.77 135.74 126.57 139.04 C 125.90 141.34 125.84 143.78 125.00 146.03 C 123.96 148.83 123.34 143.94 123.59 143.49 C 121.92 145.15 119.92 146.59 118.78 148.70 C 117.76 150.35 117.10 152.37 115.21 153.24 C 116.87 155.68 119.70 153.75 120.91 151.85 C 121.73 150.37 123.29 149.68 124.72 148.95 C 123.59 152.75 119.96 154.51 116.93 156.56 C 114.87 155.95 113.24 154.29 112.74 152.20 C 111.56 147.81 109.94 143.53 109.16 139.05 C 109.38 135.59 109.82 132.15 109.93 128.68 C 119.73 125.61 128.28 119.66 137.60 115.49 C 152.98 107.23 168.15 98.56 183.87 90.97 M 114.04 129.44 C 117.08 132.90 120.24 136.34 124.58 138.18 C 125.88 135.48 126.45 131.78 129.83 130.95 C 129.32 128.10 128.26 125.41 127.54 122.62 C 123.13 125.06 118.45 127.00 114.04 129.44 M 111.62 132.00 C 111.49 133.88 111.35 135.76 111.20 137.64 C 111.63 137.76 112.49 138.00 112.92 138.12 C 112.27 138.20 110.98 138.35 110.34 138.42 C 112.15 142.67 113.63 147.03 114.53 151.56 C 115.80 149.19 116.44 146.53 117.81 144.22 C 119.35 142.71 121.30 141.72 123.01 140.42 C 119.19 137.72 115.59 134.57 111.62 132.00 Z" />
<path fill="#333333" opacity="1.00" d=" M 107.67 95.02 C 110.83 93.57 107.70 98.29 107.67 95.02 Z" />
<path fill="#333333" opacity="1.00" d=" M 80.74 102.10 C 84.12 99.05 88.68 97.43 93.21 97.61 C 93.51 97.82 94.12 98.26 94.43 98.47 C 90.44 99.55 86.62 101.02 83.03 103.05 C 82.46 102.81 81.31 102.34 80.74 102.10 Z" />
<path fill="#333333" opacity="1.00" d=" M 100.50 101.76 C 102.05 102.11 103.60 102.49 105.15 102.85 C 106.21 104.78 107.22 106.77 107.69 108.94 C 105.43 106.45 100.89 105.50 100.50 101.76 Z" />
<path fill="#333333" opacity="1.00" d=" M 120.87 107.08 C 123.41 106.28 125.18 103.67 128.08 103.95 C 129.44 103.63 130.48 105.41 129.39 106.38 C 127.54 106.57 125.68 106.51 123.83 106.56 C 123.21 109.95 118.83 109.92 116.11 110.38 C 117.00 108.41 119.02 107.78 120.87 107.08 Z" />
<path fill="#333333" opacity="1.00" d=" M 164.20 104.20 C 166.02 103.87 167.32 105.67 168.83 106.41 C 171.09 106.07 173.37 105.79 175.65 105.58 C 176.43 106.65 177.20 107.72 177.95 108.82 C 173.19 108.26 167.59 108.76 163.68 105.54 C 163.81 105.20 164.07 104.53 164.20 104.20 Z" />
<path fill="#333333" opacity="1.00" d=" M 106.82 105.79 C 109.62 104.95 112.14 106.48 113.35 108.98 C 110.84 108.79 108.44 107.80 106.82 105.79 Z" />
<path fill="#333333" opacity="1.00" d=" M 120.96 114.95 C 119.61 113.56 121.93 111.41 123.29 112.63 C 124.53 113.95 122.30 116.25 120.96 114.95 Z" />
<path fill="#333333" opacity="1.00" d=" M 153.26 114.95 C 153.63 115.41 154.39 116.34 154.77 116.81 C 159.48 116.88 164.00 114.89 168.75 115.74 C 168.12 116.35 167.48 116.95 166.82 117.53 C 161.22 118.20 154.53 117.43 150.33 121.95 C 152.05 125.53 154.01 129.06 154.83 132.99 C 150.82 131.20 150.62 125.82 148.11 122.55 C 146.59 126.12 145.94 130.15 143.35 133.18 C 143.29 134.10 143.16 135.92 143.10 136.84 C 139.54 134.01 143.51 129.78 144.37 126.57 C 145.56 121.42 151.19 119.58 153.26 114.95 Z" />
<path fill="#333333" opacity="1.00" d=" M 188.23 116.75 C 193.67 116.92 199.45 116.58 204.58 118.62 C 204.97 119.13 205.73 120.17 206.12 120.69 C 201.04 120.91 197.11 115.85 191.97 117.76 C 188.92 118.00 187.37 120.80 185.42 122.74 C 185.16 122.37 184.65 121.64 184.39 121.28 C 185.66 119.76 186.95 118.26 188.23 116.75 Z" />
<path fill="#333333" opacity="1.00" d=" M 39.88 119.53 C 40.59 119.67 41.29 119.84 41.99 120.04 C 42.00 123.08 41.81 126.13 41.24 129.12 C 40.28 127.84 39.64 126.35 38.95 124.92 C 36.84 124.18 35.96 126.95 34.07 127.25 C 33.42 126.92 32.13 126.27 31.48 125.95 C 33.92 124.63 36.82 124.56 39.18 123.09 C 39.92 122.12 40.15 120.94 39.88 119.53 Z" />
<path fill="#333333" opacity="1.00" d=" M 133.88 122.68 C 134.35 122.53 135.30 122.23 135.77 122.08 C 135.73 123.61 135.68 125.15 135.67 126.68 C 135.01 126.98 133.69 127.57 133.02 127.87 C 133.30 126.14 133.60 124.41 133.88 122.68 Z" />
<path fill="#333333" opacity="1.00" d=" M 133.38 128.38 C 133.65 128.65 133.65 128.65 133.38 128.38 Z" />
<path fill="#333333" opacity="1.00" d=" M 134.73 131.51 C 136.24 129.14 139.11 130.21 141.37 130.54 C 139.28 131.44 136.98 131.54 134.73 131.51 Z" />
<path fill="#333333" opacity="1.00" d=" M 97.17 133.31 C 96.07 132.54 97.09 130.38 98.38 131.20 C 98.28 131.65 98.07 132.56 97.97 133.01 L 97.17 133.31 Z" />
<path fill="#333333" opacity="1.00" d=" M 146.25 134.00 C 148.45 131.07 152.92 132.90 155.57 134.39 C 156.51 135.09 159.25 135.85 158.20 137.40 C 156.44 137.74 155.01 136.39 153.47 135.80 C 151.26 134.57 148.71 134.34 146.25 134.00 Z" />
<path fill="#333333" opacity="1.00" d=" M 134.27 137.78 C 134.81 136.52 135.85 134.22 137.53 135.48 C 140.83 136.94 140.25 140.95 140.35 143.88 C 139.96 143.88 139.17 143.86 138.78 143.86 C 138.51 141.24 138.07 138.64 137.64 136.04 C 136.53 136.63 135.40 137.21 134.27 137.78 Z" />
<path fill="#333333" opacity="1.00" d=" M 123.60 159.36 C 125.82 156.91 130.15 151.92 133.62 155.35 C 135.39 156.53 134.01 158.49 133.14 159.71 C 132.75 158.85 131.99 157.13 131.61 156.27 C 126.73 156.45 123.36 160.15 120.14 163.32 C 119.48 164.64 118.83 165.97 118.12 167.25 C 118.42 163.80 120.73 161.03 123.42 159.05 L 122.16 158.36 C 122.53 157.88 122.89 157.41 123.25 156.93 L 123.60 159.36 Z" />
<path fill="#333333" opacity="1.00" d=" M 106.87 167.46 C 108.01 166.75 109.50 168.57 108.67 169.57 C 107.56 170.18 105.91 168.46 106.87 167.46 Z" />
</g>
</svg>
