<?xml version="1.0" encoding="UTF-8" ?>
<!DOCTYPE svg PUBLIC "-//W3C//DTD SVG 1.1//EN" "http://www.w3.org/Graphics/SVG/1.1/DTD/svg11.dtd">
<svg width="218pt" height="125pt" viewBox="0 0 218 125" version="1.1" xmlns="http://www.w3.org/2000/svg"><g id="#252621ff">
<path fill="#333333" opacity="1.00" d=" M 134.17 35.75 C 138.81 34.43 142.88 31.35 147.81 31.00 C 152.19 30.23 157.51 29.28 160.46 33.53 C 164.00 32.61 169.18 34.11 169.53 38.33 C 170.10 43.53 171.98 48.55 171.72 53.84 C 171.42 58.55 172.52 63.20 172.46 67.91 C 172.83 72.94 171.99 77.94 172.00 82.97 C 173.64 83.29 175.28 83.64 176.91 84.01 C 177.71 84.94 178.52 85.87 179.35 86.79 C 179.39 87.76 179.44 88.74 179.48 89.71 C 177.55 90.72 175.53 91.54 173.42 92.11 C 178.82 95.77 185.14 98.36 191.78 97.79 C 193.21 99.63 193.98 101.78 193.49 104.11 C 190.92 105.61 188.19 106.79 185.44 107.91 C 185.42 107.24 185.39 106.57 185.42 105.90 C 188.00 105.19 192.38 104.44 191.56 100.73 C 189.36 100.34 187.22 99.72 185.11 99.02 C 179.62 97.38 172.69 95.50 170.44 89.60 C 169.36 81.78 171.14 73.87 170.29 66.03 C 169.58 59.67 170.87 53.32 170.40 46.95 C 169.96 46.13 169.05 46.33 168.30 46.40 L 169.20 48.73 C 167.07 47.38 164.97 45.90 163.52 43.81 C 165.37 43.95 167.02 44.61 168.48 45.80 C 169.96 42.09 168.93 36.67 165.11 34.78 C 160.42 33.77 156.69 37.72 152.15 37.95 C 146.25 38.38 141.19 41.65 135.79 43.72 C 138.39 47.15 142.93 49.47 143.50 54.09 C 144.36 56.38 145.73 58.46 146.36 60.85 L 146.42 60.78 C 146.49 62.44 146.07 64.27 146.54 65.84 C 148.89 65.50 147.19 61.95 146.80 60.42 L 147.30 60.98 C 150.03 57.47 153.91 55.02 156.19 51.15 C 157.53 48.22 161.04 48.16 163.73 47.34 C 162.11 49.90 158.52 50.41 157.13 53.06 C 156.43 57.32 155.76 61.62 155.63 65.94 C 156.19 69.97 156.82 74.05 158.44 77.82 C 160.67 83.42 160.46 89.71 159.25 95.51 C 157.97 99.55 155.65 104.65 158.95 108.30 C 165.05 109.07 171.03 107.55 177.08 107.09 C 179.48 106.68 183.77 105.63 184.73 108.65 C 181.82 108.88 178.74 107.84 175.94 109.12 C 170.97 109.72 165.95 109.62 160.97 110.15 C 158.23 110.58 156.00 108.08 155.49 105.61 C 155.20 102.74 155.55 99.86 155.91 97.02 C 152.92 97.90 149.41 99.03 146.43 97.51 C 144.47 96.42 144.32 93.98 144.40 91.99 C 144.18 87.90 145.68 84.00 147.09 80.24 C 148.68 76.03 148.01 71.44 147.30 67.13 C 144.73 70.83 140.32 72.11 136.25 73.38 C 134.80 75.67 133.09 77.79 130.87 79.38 C 126.78 79.97 123.15 82.45 118.93 82.29 C 116.60 82.54 114.40 81.57 112.18 81.03 C 107.46 81.46 104.97 85.65 101.51 88.29 C 99.49 89.52 97.12 89.94 95.00 90.95 C 92.71 92.98 90.58 95.20 88.28 97.23 C 86.81 97.40 85.35 97.59 83.89 97.78 C 85.47 99.00 87.02 100.28 88.59 101.54 C 93.07 99.72 97.40 102.92 101.93 102.30 C 105.73 101.85 109.16 104.25 112.96 103.97 C 115.75 104.17 118.15 102.56 120.78 101.98 C 123.82 102.16 126.88 102.43 129.85 103.15 C 132.53 104.48 134.96 106.34 137.89 107.15 C 139.77 107.97 141.60 108.88 143.44 109.79 C 145.22 114.73 139.46 117.21 135.49 117.35 C 130.94 117.26 126.42 118.99 121.92 117.88 C 118.48 117.52 116.06 114.32 112.38 114.75 C 112.47 115.21 112.65 116.13 112.74 116.60 C 111.99 116.29 111.22 116.02 110.45 115.79 C 104.62 116.53 98.92 118.26 93.01 118.37 C 88.98 118.48 84.57 119.27 80.94 117.00 C 77.23 114.75 72.92 116.28 68.91 115.97 C 62.92 114.12 57.16 111.32 50.83 110.71 C 45.17 109.76 43.68 103.63 41.00 99.52 C 40.79 99.20 40.38 98.55 40.17 98.22 C 37.69 97.70 35.22 97.09 32.70 96.78 C 29.68 97.56 26.92 99.11 24.10 100.42 C 19.76 100.02 14.89 99.57 11.61 96.35 C 7.95 89.86 10.79 82.19 14.21 76.29 C 17.82 72.53 23.21 71.76 27.84 69.88 C 31.49 69.22 35.28 69.77 38.94 70.20 C 40.80 72.96 41.44 76.30 43.09 79.17 C 44.22 79.56 45.34 79.98 46.46 80.43 C 49.86 75.33 53.03 69.34 59.02 66.89 C 61.84 65.44 65.33 68.03 67.92 65.88 C 71.69 63.15 76.62 62.88 80.99 64.13 C 83.39 62.77 86.40 62.43 88.36 60.35 C 91.51 57.17 96.14 56.33 99.74 53.77 C 102.70 52.58 103.82 49.27 106.48 47.69 C 108.55 47.05 110.79 47.23 112.91 46.83 C 117.11 43.73 120.88 39.99 125.40 37.31 C 128.04 35.62 131.37 36.97 134.17 35.75 M 147.98 33.14 C 142.48 34.14 137.67 37.81 132.01 38.00 C 132.37 39.58 132.97 41.12 133.93 42.44 C 136.57 43.15 138.12 40.29 140.36 39.45 C 145.95 36.20 152.66 36.53 158.53 34.07 C 155.64 31.17 151.49 32.64 147.98 33.14 M 116.74 46.65 C 115.69 50.06 112.08 49.54 109.24 49.37 C 108.78 49.59 107.87 50.03 107.41 50.25 C 107.01 51.46 106.61 52.67 106.22 53.88 C 102.35 53.73 99.70 57.53 95.83 57.16 C 98.54 58.66 98.08 62.01 98.86 64.59 C 100.13 67.44 102.28 70.12 102.03 73.41 C 98.45 68.97 96.29 63.56 95.79 57.88 C 93.19 59.42 90.31 60.71 88.55 63.27 C 86.28 63.66 84.25 64.72 82.50 66.18 C 82.42 68.05 82.53 69.92 83.29 71.65 C 82.98 71.81 82.36 72.11 82.06 72.27 C 81.69 71.16 81.34 70.05 81.00 68.94 C 80.31 68.73 78.94 68.32 78.25 68.12 C 79.13 68.18 80.88 68.32 81.76 68.39 C 80.70 65.15 76.85 65.23 74.08 65.35 C 70.92 65.39 68.88 68.17 66.06 69.06 C 64.27 68.88 62.51 68.57 60.73 68.34 C 55.91 70.30 54.30 75.60 50.38 78.59 C 49.24 80.08 48.02 81.51 46.79 82.93 C 46.81 82.58 46.84 81.87 46.86 81.51 C 44.89 81.32 42.71 82.10 40.89 81.24 C 40.66 80.22 40.21 78.19 39.98 77.17 C 39.33 80.14 38.51 83.08 37.35 85.91 C 36.12 86.51 34.90 87.13 33.67 87.75 C 33.27 87.59 32.46 87.27 32.06 87.11 C 36.14 85.18 37.75 80.73 39.93 77.10 C 39.52 75.36 38.84 73.67 38.00 72.09 C 35.65 71.39 33.20 71.15 30.81 70.67 C 30.63 71.19 30.29 72.22 30.12 72.74 C 24.54 73.56 18.19 74.58 14.76 79.61 C 13.01 84.75 11.07 91.05 14.01 96.06 C 19.17 98.12 25.44 98.30 30.51 95.77 C 33.11 94.24 35.94 95.89 38.52 96.54 C 38.82 95.91 39.43 94.64 39.73 94.00 C 43.24 97.92 44.90 103.00 47.64 107.37 C 53.93 109.58 60.84 110.44 67.08 113.05 C 70.40 114.16 73.92 112.43 77.28 113.28 C 80.45 113.64 82.87 116.33 86.15 116.25 C 95.59 116.38 104.78 113.61 114.17 113.07 C 117.86 112.72 120.32 116.55 123.95 116.62 C 128.16 116.84 132.37 116.08 136.59 116.43 L 136.49 115.64 C 137.71 115.49 138.92 115.36 140.14 115.23 C 141.18 114.43 142.21 113.63 143.25 112.84 C 141.39 110.24 138.22 109.39 135.39 108.30 C 132.33 107.26 130.46 103.85 126.89 104.26 C 120.52 102.83 114.30 107.08 108.02 104.93 C 103.78 103.71 99.25 104.81 95.05 103.25 C 90.29 101.58 84.65 107.07 80.45 103.25 C 82.26 102.89 84.07 102.59 85.89 102.30 C 83.60 100.60 81.33 98.87 79.20 96.98 C 74.76 96.40 70.62 94.26 66.04 94.75 C 66.25 95.52 66.65 97.07 66.85 97.85 C 64.64 97.30 64.01 95.05 62.72 93.51 C 60.71 91.40 58.30 89.77 56.02 87.99 C 53.62 87.66 51.21 87.38 48.80 87.07 C 52.00 84.66 56.46 85.50 59.78 87.19 C 62.00 89.22 64.06 91.41 66.24 93.49 C 67.41 92.41 68.57 91.33 69.74 90.26 C 70.48 90.82 71.23 91.38 71.97 91.95 L 69.76 92.79 C 74.39 93.77 78.78 95.57 83.12 97.42 C 87.05 95.33 89.21 90.95 93.51 89.45 C 98.42 87.32 102.92 84.37 106.99 80.90 C 106.46 80.45 105.39 79.54 104.86 79.08 C 107.43 76.89 103.50 75.47 102.25 73.93 C 102.35 71.73 102.56 69.48 101.88 67.35 C 102.17 66.55 102.49 65.76 102.82 64.98 C 103.75 67.25 104.68 69.54 106.02 71.61 C 105.56 71.87 104.64 72.40 104.18 72.66 C 105.63 74.89 107.40 76.90 109.49 78.56 C 112.45 78.51 115.53 78.33 117.94 80.42 C 118.72 80.34 120.27 80.18 121.05 80.10 C 121.63 79.91 122.81 79.54 123.40 79.36 C 123.34 79.20 123.22 78.89 123.15 78.74 C 125.60 78.55 127.81 77.39 129.91 76.22 C 131.82 75.15 132.60 72.83 134.41 71.66 C 137.10 70.52 139.90 69.61 142.70 68.79 C 143.28 68.00 143.86 67.21 144.45 66.42 C 144.14 64.88 143.84 63.35 143.49 61.83 C 142.31 55.22 137.45 50.21 135.00 44.11 C 132.96 44.91 130.84 45.67 129.16 47.13 C 126.78 49.44 123.04 49.06 120.06 48.46 C 124.52 47.36 128.71 45.45 132.50 42.85 C 131.25 41.38 129.96 39.97 128.54 38.67 C 124.22 40.78 121.01 44.53 116.74 46.65 M 149.02 62.66 C 149.52 66.45 150.32 70.19 150.75 73.98 C 150.42 77.54 150.04 81.23 148.46 84.50 C 147.03 88.03 145.58 92.05 146.79 95.84 C 149.65 98.58 153.64 95.85 156.35 94.22 C 157.69 91.39 157.60 88.05 157.74 84.96 C 157.93 76.09 151.92 68.15 153.25 59.19 C 151.85 60.35 150.44 61.52 149.02 62.66 M 171.76 83.86 C 171.95 85.97 172.15 88.08 172.43 90.19 C 174.41 90.10 176.97 90.34 177.69 87.95 C 177.40 84.97 173.83 85.05 171.76 83.86 Z" />
<path fill="#333333" opacity="1.00" d=" M 100.11 57.23 C 100.58 57.21 101.51 57.19 101.98 57.18 C 102.10 59.36 102.23 61.54 102.46 63.71 C 101.98 64.43 101.50 65.14 101.02 65.85 C 100.52 63.00 100.20 60.12 100.11 57.23 Z" />
<path fill="#333333" opacity="1.00" d=" M 88.45 76.00 C 88.43 71.22 93.13 68.56 97.39 68.29 C 94.72 71.20 91.89 73.99 88.45 76.00 Z" />
<path fill="#333333" opacity="1.00" d=" M 71.19 69.81 C 72.43 69.79 73.67 69.62 74.89 69.37 C 76.06 71.47 77.56 73.36 79.16 75.16 C 82.55 75.76 87.02 76.58 87.28 80.86 C 84.36 78.29 80.99 76.24 77.00 76.02 C 75.90 73.23 74.33 70.61 71.19 69.81 Z" />
<path fill="#333333" opacity="1.00" d=" M 66.90 75.54 C 67.43 76.44 67.94 77.34 68.45 78.25 C 66.17 80.89 64.06 83.68 61.94 86.47 C 61.26 85.84 60.58 85.20 59.90 84.56 C 61.03 82.77 62.20 81.01 63.39 79.25 C 63.97 79.25 65.14 79.25 65.72 79.25 C 66.01 78.33 66.60 76.47 66.90 75.54 Z" />
<path fill="#333333" opacity="1.00" d=" M 78.07 89.74 C 80.70 90.23 82.04 86.27 84.75 87.57 C 83.56 88.77 82.32 89.92 81.04 91.03 C 77.55 91.08 73.63 92.48 70.66 89.96 C 73.11 89.59 75.60 89.65 78.07 89.74 Z" />
<path fill="#333333" opacity="1.00" d=" M 163.57 98.75 C 163.25 96.31 162.59 93.29 165.01 91.66 C 164.74 93.58 164.41 95.48 164.09 97.38 C 165.35 97.93 166.61 98.46 167.88 98.99 C 167.71 99.44 167.36 100.32 167.18 100.77 C 165.97 100.12 164.61 99.67 163.57 98.75 Z" />
<path fill="#333333" opacity="1.00" d=" M 64.96 104.34 C 68.58 104.73 71.88 106.47 75.20 107.86 C 76.83 108.35 77.08 110.18 77.44 111.57 C 74.08 109.74 70.68 108.00 67.34 106.12 C 67.02 107.23 66.70 108.33 66.37 109.44 C 64.99 109.66 63.60 109.88 62.21 110.08 C 63.88 108.53 66.23 106.97 64.96 104.34 Z" />
</g>
</svg>
