<?xml version="1.0" encoding="UTF-8" ?>
<!DOCTYPE svg PUBLIC "-//W3C//DTD SVG 1.1//EN" "http://www.w3.org/Graphics/SVG/1.1/DTD/svg11.dtd">
<svg width="276pt" height="225pt" viewBox="0 0 276 225" version="1.1" xmlns="http://www.w3.org/2000/svg"><g id="#525351ff">
<path fill="#333333" opacity="1.00" d=" M 221.39 60.31 C 224.19 55.15 230.75 55.09 235.87 54.66 C 241.78 57.42 244.41 63.91 246.72 69.60 C 250.46 67.23 254.51 65.37 258.62 63.74 C 260.82 62.90 261.68 66.06 261.83 67.68 C 257.67 71.09 252.27 72.50 247.58 75.04 C 248.01 84.51 249.09 96.21 240.97 102.96 C 237.60 104.52 233.62 106.26 229.89 105.13 C 224.10 102.20 220.87 96.05 218.90 90.13 L 218.44 89.63 C 212.44 92.44 206.65 95.70 200.58 98.35 C 194.73 100.55 188.60 102.93 184.42 107.80 C 184.60 108.57 184.96 110.10 185.14 110.87 C 184.71 110.56 183.83 109.94 183.39 109.63 C 182.21 110.85 180.99 112.04 179.74 113.19 C 181.77 117.25 179.88 121.66 180.46 125.90 C 181.79 130.11 183.35 134.46 182.46 138.94 C 182.19 142.41 180.00 145.24 177.77 147.74 C 178.01 147.86 178.48 148.10 178.72 148.22 C 177.50 148.64 176.28 149.07 175.08 149.51 C 174.80 151.47 174.45 153.63 172.45 154.56 C 164.32 159.23 155.76 163.29 146.56 165.37 C 146.43 171.25 146.67 177.13 146.30 183.01 C 149.88 181.40 153.61 180.12 157.03 178.18 C 158.60 177.41 160.10 176.31 161.90 176.21 C 164.59 177.26 166.87 179.11 169.37 180.52 C 170.17 183.91 170.38 187.40 170.50 190.87 C 155.24 198.72 139.49 205.58 124.04 213.03 C 121.60 214.61 119.58 211.83 117.62 210.71 C 117.09 210.74 116.02 210.82 115.49 210.86 L 115.71 209.87 C 114.13 207.56 114.15 204.65 113.91 201.97 C 113.50 200.52 115.04 199.74 116.03 199.09 C 121.29 196.16 126.94 193.99 132.11 190.91 C 132.82 185.60 131.75 180.26 131.84 174.94 C 131.64 169.63 132.00 164.24 131.14 158.98 C 128.26 155.67 123.91 154.30 120.56 151.58 C 117.00 148.67 112.98 146.39 109.28 143.67 C 109.97 143.42 111.35 142.92 112.04 142.67 C 117.59 145.66 122.68 149.44 128.09 152.68 C 132.71 156.42 137.47 160.20 143.07 162.38 C 148.00 163.36 153.00 161.38 157.54 159.63 C 162.54 156.56 168.54 154.97 172.70 150.66 C 165.64 151.65 157.60 147.94 156.01 140.50 C 151.00 138.56 145.95 141.37 140.87 140.26 C 140.70 139.79 140.36 138.86 140.19 138.39 C 143.81 138.81 147.21 137.56 150.62 136.56 C 149.37 135.68 148.18 134.71 147.01 133.75 C 151.00 132.60 153.34 136.44 156.19 138.40 C 155.66 137.25 155.12 136.11 154.57 134.97 C 155.46 133.15 156.40 131.36 157.48 129.65 C 156.04 128.43 154.93 126.91 154.21 125.16 C 152.28 126.13 150.47 128.09 148.18 127.80 C 150.12 124.60 154.00 123.11 156.98 121.00 C 158.01 119.35 158.44 117.31 159.87 115.92 C 161.60 114.44 164.01 114.80 166.10 114.45 C 167.83 111.93 167.79 109.05 167.45 106.14 C 168.20 106.58 169.69 107.45 170.43 107.88 C 170.15 109.28 169.78 110.66 169.37 112.02 C 169.96 111.90 171.15 111.66 171.75 111.53 C 171.26 112.30 170.29 113.84 169.81 114.61 C 174.48 114.37 178.54 111.76 182.41 109.38 C 182.35 108.48 182.24 106.68 182.19 105.78 C 182.63 106.44 183.52 107.75 183.96 108.41 C 184.14 107.02 183.11 105.38 183.89 104.18 C 187.70 101.74 191.97 100.18 196.12 98.41 C 206.14 93.69 215.94 88.51 226.00 83.86 C 227.44 83.16 230.54 81.89 228.23 80.08 C 213.98 86.73 199.97 93.94 185.78 100.71 C 184.47 101.23 183.12 101.61 181.77 101.97 C 183.15 99.48 185.98 98.58 188.37 97.37 C 198.05 92.40 208.02 88.02 217.62 82.88 C 221.39 81.29 225.05 79.46 228.72 77.65 C 229.38 78.80 230.05 79.95 230.73 81.10 C 229.69 86.27 223.22 86.18 219.90 89.02 C 222.00 93.93 224.65 98.96 229.01 102.25 C 230.92 103.82 233.46 103.06 235.67 102.81 C 238.88 95.85 241.57 88.21 240.36 80.44 C 239.41 72.44 236.53 63.77 229.54 59.08 C 229.63 58.60 229.82 57.63 229.91 57.15 C 235.65 59.84 238.44 66.01 240.43 71.66 C 242.42 78.50 242.68 85.88 241.36 92.87 C 240.75 95.54 240.12 98.56 237.67 100.19 C 238.20 100.69 238.74 101.18 239.29 101.66 C 244.41 97.76 246.20 91.11 246.73 84.99 C 247.26 76.78 245.14 68.32 240.61 61.43 C 238.44 58.03 234.60 56.58 230.91 55.51 C 228.36 57.08 225.19 57.89 223.34 60.40 C 220.61 64.01 219.53 68.56 219.02 72.98 C 218.64 76.22 219.17 79.62 217.77 82.67 C 216.48 75.19 217.53 66.94 221.39 60.31 M 246.98 70.71 C 247.06 71.37 247.22 72.68 247.30 73.34 C 251.17 71.43 255.18 69.80 259.07 67.90 C 261.14 67.99 259.47 64.36 258.16 65.63 C 254.38 67.21 250.78 69.18 246.98 70.71 M 171.68 116.81 C 173.72 118.56 175.89 120.14 177.95 121.86 C 178.25 119.20 178.19 116.52 177.69 113.89 C 175.69 114.88 173.70 115.87 171.68 116.81 M 160.73 118.32 C 160.53 119.87 160.38 121.44 160.30 123.01 C 160.24 122.53 160.13 121.57 160.08 121.08 C 158.68 122.27 157.32 123.48 155.92 124.66 C 156.95 125.88 157.97 127.12 158.99 128.35 C 158.44 129.59 157.89 130.82 157.32 132.04 C 157.46 135.38 159.44 137.90 162.06 139.76 C 160.55 139.69 159.04 139.58 157.53 139.49 C 158.36 140.40 159.19 141.31 160.02 142.22 C 161.46 145.19 164.52 146.60 167.09 148.40 C 169.96 148.37 173.36 149.18 175.53 146.75 C 180.50 143.37 181.81 136.53 180.40 131.04 C 178.11 127.82 177.26 123.30 173.44 121.46 C 171.01 119.74 169.14 117.39 167.17 115.18 C 165.04 116.26 162.89 117.30 160.73 118.32 M 133.87 160.86 C 134.04 171.19 134.67 181.50 134.46 191.83 C 128.53 195.22 122.37 198.21 116.21 201.16 C 116.18 203.20 116.17 205.25 116.19 207.30 C 118.20 208.72 120.16 210.21 122.17 211.63 C 137.63 204.58 152.94 197.21 168.33 190.00 C 168.20 187.64 168.18 185.27 167.78 182.94 C 165.84 181.07 163.37 179.86 161.10 178.45 C 156.11 180.68 151.14 182.96 146.17 185.25 C 146.10 188.22 147.82 191.94 144.89 194.01 C 142.70 184.50 144.81 174.73 145.52 165.16 C 141.63 163.74 137.70 162.42 133.87 160.86 Z" />
<path fill="#333333" opacity="1.00" d=" M 63.09 62.10 C 67.11 57.91 73.66 59.63 78.48 61.31 C 84.21 64.53 89.75 68.21 94.57 72.71 C 98.17 75.00 100.75 78.62 104.62 80.53 C 107.01 81.78 109.45 82.96 111.88 84.13 C 111.75 84.75 111.49 85.99 111.36 86.61 C 114.54 87.59 118.44 88.76 118.68 92.72 C 109.20 90.36 100.25 96.43 95.32 104.11 C 95.11 106.57 94.16 109.07 94.64 111.53 C 96.35 113.58 98.80 114.85 100.74 116.66 L 101.60 115.35 C 101.21 116.60 100.95 118.73 99.07 118.28 C 96.54 117.55 93.95 116.85 91.30 117.45 C 94.32 117.80 97.24 118.70 100.28 119.00 C 96.91 119.87 93.37 119.79 89.92 119.71 C 86.86 119.62 85.13 116.72 82.59 115.48 C 75.47 112.94 68.26 110.66 61.35 107.60 C 59.72 106.86 58.72 105.30 57.55 104.03 C 57.57 103.47 57.60 102.36 57.62 101.81 C 53.29 99.91 50.25 96.24 47.01 92.98 C 45.14 90.65 42.96 93.40 41.29 94.48 C 39.63 95.34 40.61 97.48 40.29 98.95 C 43.59 100.87 46.92 102.80 49.90 105.20 C 57.54 111.18 66.31 115.44 74.41 120.73 C 75.86 121.62 77.06 122.87 77.59 124.54 C 72.60 121.77 67.60 118.89 63.16 115.28 C 63.66 122.75 64.16 130.28 63.69 137.76 C 58.08 141.78 51.32 143.88 45.47 147.55 C 45.74 149.55 45.83 151.60 46.37 153.56 C 48.56 155.14 51.25 158.02 54.11 156.37 C 60.90 153.36 67.40 149.69 74.36 147.07 C 73.75 148.18 73.36 149.57 72.05 150.08 C 65.45 153.44 58.60 156.28 51.94 159.54 C 49.45 157.97 46.75 156.62 44.57 154.60 C 43.45 151.96 43.46 148.89 43.93 146.11 C 49.65 142.76 55.77 140.10 61.64 137.01 C 61.84 129.51 61.57 122.01 61.27 114.51 C 58.18 113.01 54.97 111.65 52.19 109.60 C 50.10 107.75 48.03 105.88 45.83 104.16 C 45.17 108.80 44.97 113.48 44.64 118.15 C 44.16 121.93 46.41 125.26 46.88 128.91 C 47.48 131.70 47.10 134.56 46.51 137.32 C 43.16 138.30 39.61 139.47 36.11 138.49 C 30.40 136.81 25.29 133.66 20.09 130.85 C 17.31 129.59 16.98 126.04 17.50 123.41 C 19.26 120.97 22.25 120.02 25.14 119.87 C 28.14 119.43 32.67 118.73 32.84 114.90 C 33.08 108.84 30.56 103.05 30.65 96.98 C 30.78 91.67 30.69 86.34 31.29 81.05 C 31.26 77.72 30.62 73.95 33.17 71.30 C 34.88 67.99 39.09 68.09 42.24 68.73 C 47.83 69.72 54.68 68.94 58.78 73.66 C 59.29 73.71 60.30 73.79 60.80 73.83 C 61.28 69.97 59.41 64.81 63.09 62.10 M 64.34 63.19 C 64.08 63.97 63.56 65.54 63.30 66.32 C 63.90 66.54 65.09 66.97 65.69 67.18 C 65.14 67.29 64.03 67.49 63.47 67.60 C 63.18 70.14 62.79 72.67 62.33 75.19 C 63.18 75.60 64.89 76.43 65.74 76.84 C 65.88 76.19 66.17 74.89 66.32 74.24 C 69.44 75.03 72.68 75.66 75.42 77.44 C 73.32 77.41 71.23 77.19 69.18 76.71 C 68.64 77.06 68.12 77.41 67.59 77.76 C 68.11 78.40 69.14 79.67 69.66 80.31 C 73.23 80.27 76.81 80.54 80.20 81.74 C 81.86 79.68 83.57 77.65 85.29 75.64 C 86.24 76.01 87.21 76.35 88.16 76.71 C 85.90 77.34 84.59 79.31 83.23 81.06 C 83.20 81.94 83.14 83.69 83.10 84.56 C 86.50 84.55 89.85 83.55 93.25 84.05 C 90.10 86.49 85.68 87.48 82.06 85.43 C 78.11 83.29 73.72 81.06 69.09 81.96 C 63.29 83.94 59.98 90.05 59.75 95.92 C 59.92 99.01 61.22 101.87 61.89 104.86 C 67.48 107.61 73.73 108.59 79.06 111.92 C 84.93 113.87 90.37 117.80 96.85 116.87 C 95.25 115.05 92.29 113.83 92.15 111.08 C 92.17 108.15 92.54 105.19 93.42 102.40 C 94.99 98.81 98.64 96.99 101.55 94.66 C 104.55 92.08 108.71 91.72 111.81 89.30 C 111.38 88.02 110.96 86.74 110.53 85.46 C 106.13 83.77 102.43 80.74 98.03 79.07 C 96.61 78.56 95.49 77.55 94.35 76.62 C 91.89 76.42 89.24 76.65 87.17 75.08 C 89.11 74.74 91.05 74.42 92.99 74.11 C 87.56 68.51 80.70 64.23 73.26 61.88 C 70.24 60.87 66.97 61.46 64.34 63.19 M 36.07 70.94 C 32.28 73.63 33.70 78.40 32.65 82.25 C 32.45 89.43 31.66 96.69 33.08 103.80 C 33.34 103.35 33.85 102.44 34.10 101.99 C 34.16 97.11 34.56 92.25 35.59 87.48 C 36.07 87.49 37.04 87.52 37.52 87.53 C 36.98 91.99 35.87 96.44 36.47 100.96 C 36.60 105.79 38.53 110.35 38.71 115.17 C 36.77 111.89 35.69 108.23 35.01 104.51 C 34.45 104.52 33.90 104.53 33.34 104.51 C 34.01 109.14 35.20 113.85 34.60 118.56 C 29.62 121.79 23.53 121.97 17.96 123.56 C 19.04 127.02 21.41 129.86 24.85 131.13 C 31.24 133.37 37.72 138.36 44.76 135.58 C 45.56 128.54 43.32 121.75 42.75 114.79 C 42.54 110.93 43.46 107.13 43.41 103.27 C 41.80 102.29 40.11 101.41 38.68 100.16 C 38.44 97.43 37.94 93.45 41.06 92.16 C 42.93 91.62 45.12 89.24 46.95 91.22 C 47.46 90.89 47.98 90.54 48.49 90.20 C 46.61 88.85 45.03 87.09 43.05 85.87 C 41.33 85.63 39.59 85.55 37.86 85.35 C 39.01 84.32 40.34 83.32 42.00 83.54 C 44.92 83.12 46.19 86.23 48.23 87.68 C 50.23 89.57 53.52 90.19 54.37 93.12 C 52.64 92.49 50.93 91.80 49.24 91.05 C 49.55 91.74 50.16 93.10 50.47 93.78 C 52.60 95.35 54.70 96.95 56.86 98.47 C 56.97 95.15 56.76 91.53 58.72 88.65 C 60.93 84.67 64.98 82.28 69.11 80.71 C 63.15 77.74 57.28 74.60 51.42 71.43 C 46.61 68.91 41.12 69.73 36.07 70.94 Z" />
<path fill="#333333" opacity="1.00" d=" M 158.71 69.45 C 160.16 66.57 163.71 66.31 166.54 66.50 C 168.46 68.23 170.04 70.30 171.75 72.23 C 177.15 77.31 171.46 86.45 177.65 91.31 C 176.47 91.22 175.30 91.14 174.12 91.09 C 174.52 92.06 174.92 93.04 175.35 94.00 L 175.22 91.49 C 175.83 91.67 177.05 92.04 177.66 92.23 C 177.61 92.78 177.51 93.88 177.46 94.43 C 179.20 95.58 180.48 97.22 181.34 99.11 C 180.27 98.66 179.21 98.19 178.15 97.72 C 175.90 98.24 173.60 99.00 171.27 98.58 C 171.86 97.75 172.45 96.93 173.02 96.09 C 170.82 89.42 174.56 81.95 171.47 75.44 C 169.58 73.11 168.09 70.45 166.03 68.26 C 164.67 68.06 163.31 68.06 161.95 68.25 C 160.11 69.16 160.14 71.43 159.53 73.11 C 158.84 75.77 157.51 78.24 157.11 80.97 C 156.78 83.42 158.44 85.43 159.57 87.43 C 162.45 92.07 164.67 97.07 167.18 101.90 C 166.73 102.55 165.82 103.83 165.37 104.47 C 165.75 104.70 166.51 105.14 166.90 105.37 C 166.59 105.73 165.98 106.45 165.68 106.81 C 165.90 107.44 166.33 108.70 166.54 109.33 C 164.01 111.09 161.11 112.20 158.40 113.66 C 158.14 113.04 157.62 111.79 157.36 111.16 C 152.02 110.66 147.28 114.01 143.41 117.29 C 143.92 117.87 144.93 119.03 145.43 119.61 C 132.10 126.48 118.79 133.53 104.79 138.98 C 104.58 137.85 104.14 135.58 103.92 134.45 C 104.74 134.88 106.36 135.73 107.17 136.16 C 109.97 135.10 112.64 133.75 115.41 132.63 C 110.29 133.15 108.95 127.35 104.52 126.33 C 103.57 124.30 102.62 122.28 101.57 120.30 C 101.98 119.57 102.39 118.85 102.81 118.13 C 107.10 123.27 111.40 128.95 117.65 131.84 C 117.84 131.25 118.20 130.07 118.38 129.48 C 115.68 126.35 114.59 122.23 113.97 118.24 C 114.81 118.56 115.65 118.88 116.48 119.20 C 116.56 119.86 116.71 121.19 116.78 121.85 C 117.80 123.62 118.46 125.57 118.99 127.54 C 119.11 128.55 119.30 129.55 119.58 130.53 C 122.28 128.93 125.08 127.46 128.07 126.45 C 132.84 124.99 136.72 121.67 141.32 119.80 C 142.04 117.25 143.18 114.81 145.32 113.16 C 146.61 112.34 146.43 110.70 146.84 109.42 C 142.21 103.17 140.63 95.37 137.91 88.23 C 135.69 84.09 131.51 81.40 127.12 80.02 C 125.66 81.67 124.17 83.29 122.74 84.96 C 122.26 87.35 121.46 89.68 121.27 92.12 C 120.68 92.77 119.08 93.50 118.90 92.06 C 118.46 88.19 122.31 85.89 123.53 82.56 C 124.24 80.56 125.45 78.82 126.80 77.20 C 130.46 78.21 133.22 80.99 136.53 82.74 C 142.04 87.10 142.12 94.71 144.42 100.80 C 146.17 104.38 148.22 109.02 152.79 109.32 C 156.27 108.94 159.70 109.67 163.17 109.68 C 162.88 109.12 162.31 108.00 162.02 107.44 C 164.44 101.92 158.85 97.41 159.47 91.92 C 157.63 87.65 155.64 83.20 155.73 78.47 C 156.37 75.37 157.37 72.32 158.71 69.45 Z" />
<path fill="#333333" opacity="1.00" d=" M 65.51 69.33 C 70.10 69.83 75.03 69.23 79.24 71.49 C 75.13 71.61 70.93 71.98 66.90 70.96 L 65.51 69.33 Z" />
<path fill="#333333" opacity="1.00" d=" M 38.97 74.94 C 39.51 74.56 40.61 73.79 41.16 73.40 C 41.34 74.06 41.72 75.37 41.90 76.03 C 39.79 76.87 37.50 77.59 35.30 76.59 C 35.22 74.72 37.80 75.49 38.97 74.94 Z" />
<path fill="#333333" opacity="1.00" d=" M 44.55 79.82 C 47.97 78.11 52.94 79.47 54.61 83.07 C 51.23 82.08 47.84 81.07 44.55 79.82 Z" />
<path fill="#333333" opacity="1.00" d=" M 74.82 95.75 C 75.70 92.68 77.32 89.80 80.31 88.38 C 80.58 92.41 75.19 92.91 74.85 96.75 C 74.84 96.50 74.83 96.00 74.82 95.75 Z" />
<path fill="#333333" opacity="1.00" d=" M 90.18 92.38 C 92.79 90.00 96.44 90.18 99.66 89.34 C 99.68 89.56 99.70 90.02 99.72 90.24 C 96.01 90.57 92.86 92.49 90.27 95.05 C 90.04 95.73 89.59 97.08 89.36 97.75 C 90.30 98.24 95.13 95.55 93.58 98.49 C 89.18 99.34 85.44 102.47 80.94 102.52 C 83.10 100.36 85.83 98.91 88.69 97.91 C 88.03 97.42 87.37 96.94 86.71 96.46 C 88.04 94.35 89.36 92.24 90.59 90.08 C 90.49 90.65 90.28 91.80 90.18 92.38 Z" />
<path fill="#333333" opacity="1.00" d=" M 123.83 91.95 C 125.35 94.73 126.09 97.84 127.48 100.68 C 130.95 106.14 137.86 109.09 139.48 115.74 C 140.21 115.05 141.65 113.68 142.37 113.00 C 142.26 114.32 142.14 115.64 142.03 116.96 L 141.02 116.17 C 140.19 117.59 139.37 119.02 138.57 120.46 C 137.35 118.53 137.47 116.28 137.50 114.11 C 136.93 113.99 135.80 113.75 135.23 113.63 C 135.21 112.97 135.19 111.65 135.17 110.99 C 132.98 108.09 130.24 105.68 127.09 103.86 C 122.93 101.49 123.70 95.97 123.83 91.95 Z" />
<path fill="#333333" opacity="1.00" d=" M 117.80 93.27 C 118.66 93.80 119.54 94.31 120.37 94.89 C 118.50 99.47 118.30 104.45 117.59 109.29 C 116.34 109.47 115.10 109.65 113.86 109.81 C 114.74 109.32 115.63 108.85 116.52 108.38 C 116.56 107.37 116.63 105.34 116.67 104.32 C 116.17 104.24 115.18 104.07 114.69 103.98 C 115.21 103.92 116.26 103.81 116.78 103.75 C 116.89 101.99 117.04 100.23 117.19 98.47 C 116.71 98.46 115.76 98.44 115.29 98.43 C 113.67 100.21 111.74 101.67 109.75 103.00 C 109.50 100.15 111.65 98.57 114.05 97.61 C 111.45 97.19 108.52 97.30 106.53 95.29 C 110.34 94.66 114.10 95.83 117.71 96.92 C 117.73 96.00 117.78 94.18 117.80 93.27 Z" />
<path fill="#333333" opacity="1.00" d=" M 142.75 94.02 C 146.35 95.12 150.85 95.75 152.83 99.40 C 155.87 100.02 159.08 100.96 160.53 104.00 C 155.57 101.99 150.34 99.30 144.89 101.21 C 145.68 100.37 146.47 99.54 147.27 98.70 C 145.39 97.53 143.69 96.09 142.75 94.02 Z" />
<path fill="#333333" opacity="1.00" d=" M 100.56 101.70 C 102.40 102.46 104.59 102.97 105.50 104.98 C 103.33 104.67 100.21 104.86 100.56 101.70 Z" />
<path fill="#333333" opacity="1.00" d=" M 134.31 119.49 C 134.50 117.83 134.72 116.19 135.04 114.55 C 135.58 116.19 136.10 117.84 136.61 119.49 C 136.04 119.49 134.89 119.49 134.31 119.49 Z" />
<path fill="#333333" opacity="1.00" d=" M 38.86 122.85 C 39.70 121.54 39.99 119.33 42.02 119.65 C 41.93 122.63 41.75 125.61 41.55 128.59 C 41.15 128.48 40.37 128.26 39.98 128.14 C 40.17 126.61 39.83 125.47 38.96 124.72 C 36.85 124.56 35.66 126.61 34.04 127.59 C 33.07 126.87 32.10 126.16 31.14 125.45 C 33.73 124.66 36.77 124.80 38.86 122.85 Z" />
<path fill="#333333" opacity="1.00" d=" M 88.38 122.36 C 92.16 122.33 95.92 123.80 98.23 126.89 C 101.79 131.21 104.36 136.32 105.21 141.87 C 112.58 138.21 119.84 134.28 127.52 131.30 C 133.68 128.67 139.39 125.00 145.80 123.00 C 145.36 123.71 144.47 125.13 144.03 125.84 C 141.70 126.48 140.03 128.38 137.74 129.14 C 129.31 132.13 121.22 136.02 113.36 140.27 C 110.78 141.47 108.20 142.67 105.57 143.75 C 105.81 147.18 106.20 150.62 105.96 154.06 C 105.54 157.48 104.42 160.82 104.49 164.30 C 101.87 168.37 98.59 172.36 93.61 173.42 C 90.57 175.13 87.47 173.49 84.58 172.42 C 81.08 168.29 78.00 163.74 76.40 158.52 L 78.08 158.24 C 80.40 163.73 83.39 170.68 89.99 171.76 C 94.09 171.18 98.85 169.86 100.78 165.78 C 105.09 157.70 105.39 147.79 102.62 139.15 C 100.63 132.50 96.47 125.48 89.08 124.09 C 86.02 125.61 82.28 126.46 80.36 129.56 C 76.74 135.11 76.44 142.00 76.06 148.41 C 79.75 147.39 83.69 147.79 87.20 146.07 C 88.20 147.96 88.76 150.02 88.70 152.17 C 81.79 155.39 75.06 158.98 68.17 162.24 C 66.76 162.69 65.37 163.17 63.92 163.47 C 63.15 162.28 62.42 161.07 61.74 159.83 C 64.87 155.27 70.83 154.46 75.20 151.48 C 74.29 143.64 74.88 135.09 79.30 128.33 C 81.31 125.06 85.35 124.34 88.38 122.36 M 75.59 149.57 C 75.63 151.61 78.83 150.72 79.50 149.48 C 79.07 147.97 76.44 148.71 75.59 149.57 M 67.14 157.35 C 67.18 158.09 67.25 159.58 67.28 160.32 C 71.97 158.44 76.24 155.67 80.88 153.69 C 83.39 152.37 86.68 151.72 87.70 148.68 C 87.07 148.75 85.80 148.89 85.17 148.95 C 79.02 151.44 73.39 155.06 67.14 157.35 Z" />
<path fill="#333333" opacity="1.00" d=" M 86.89 126.74 C 89.91 125.02 92.09 128.38 93.44 130.58 C 99.85 140.19 101.26 152.58 98.33 163.63 C 97.73 165.94 96.73 168.44 94.27 169.29 C 99.43 158.44 99.55 145.18 93.54 134.63 C 92.20 131.33 89.50 129.02 86.89 126.74 Z" />
<path fill="#333333" opacity="1.00" d=" M 144.14 128.11 C 145.23 127.81 146.18 128.12 146.98 129.05 C 147.10 130.07 147.33 132.10 147.44 133.12 C 146.34 131.65 142.30 130.33 144.14 128.11 Z" />
<path fill="#333333" opacity="1.00" d=" M 123.25 137.63 C 126.61 139.19 130.04 141.89 133.95 140.96 C 135.97 140.63 137.96 140.19 139.97 139.86 C 137.49 143.99 132.10 143.24 128.08 142.50 C 125.31 142.09 123.08 140.34 121.24 138.34 C 121.74 138.16 122.75 137.81 123.25 137.63 Z" />
<path fill="#333333" opacity="1.00" d=" M 130.25 144.55 C 138.93 146.47 146.35 153.45 155.75 151.73 C 155.61 152.15 155.33 153.00 155.19 153.42 C 151.88 154.34 148.31 154.51 145.13 153.03 C 139.94 150.76 133.70 149.46 130.25 144.55 Z" />
</g>
</svg>
