<?xml version="1.0" encoding="UTF-8" ?>
<!DOCTYPE svg PUBLIC "-//W3C//DTD SVG 1.1//EN" "http://www.w3.org/Graphics/SVG/1.1/DTD/svg11.dtd">
<svg width="195pt" height="225pt" viewBox="0 0 195 225" version="1.1" xmlns="http://www.w3.org/2000/svg"><g id="#232422ff">
<path fill="#333333" opacity="1.00" d=" M 150.60 37.26 C 152.15 32.00 155.42 26.61 161.02 25.07 C 164.01 24.82 167.30 24.38 170.11 25.62 C 173.35 28.02 176.99 30.17 179.33 33.53 C 180.47 35.92 181.29 38.49 181.72 41.11 C 181.22 44.63 179.88 48.04 177.74 50.88 C 174.66 55.02 171.96 59.56 167.97 62.92 C 165.33 64.07 161.75 64.79 159.40 62.65 C 156.83 60.79 154.07 59.22 151.38 57.55 C 149.52 58.41 146.21 58.11 146.33 60.93 C 145.23 68.37 140.55 75.82 133.12 78.20 C 131.86 77.81 130.60 77.42 129.34 77.05 C 127.56 78.68 125.68 80.23 123.50 81.31 C 122.07 88.00 120.56 94.68 118.89 101.31 C 118.02 105.46 118.06 109.78 118.73 113.96 C 119.31 117.33 121.30 120.58 120.55 124.10 C 120.34 126.13 119.38 127.96 118.53 129.78 C 117.79 126.13 119.04 122.42 118.98 118.74 C 118.29 120.66 117.50 122.55 116.70 124.43 C 117.24 126.06 117.43 127.77 117.38 129.48 C 118.64 134.75 117.03 140.03 116.00 145.18 C 114.79 150.95 111.08 155.93 110.35 161.84 C 109.85 165.90 109.10 169.93 108.61 173.99 C 109.98 179.34 115.93 180.16 119.77 183.10 C 121.80 184.46 124.17 187.26 126.75 185.17 C 127.93 185.81 129.11 186.46 130.28 187.12 C 130.19 188.37 130.04 189.61 129.84 190.85 C 127.22 192.58 124.13 193.92 121.00 194.18 C 117.22 193.42 112.46 193.85 110.09 190.20 C 115.13 191.74 121.17 194.00 126.01 190.77 C 127.24 190.29 127.98 189.05 127.72 187.74 C 124.69 188.15 121.49 187.79 118.97 185.91 C 114.19 182.55 107.56 180.34 106.27 173.88 C 106.88 169.59 107.51 165.30 109.41 161.34 C 110.63 155.41 113.22 149.85 114.06 143.84 C 115.38 139.79 117.28 135.52 115.91 131.19 C 114.45 127.12 115.37 122.48 112.92 118.74 C 110.26 113.74 109.00 107.36 104.16 103.96 C 104.68 105.46 105.43 106.87 106.43 108.11 C 108.45 115.76 110.98 123.29 112.31 131.10 C 113.18 135.19 111.28 139.11 110.61 143.06 C 110.48 146.37 110.70 149.84 109.10 152.88 C 105.57 159.85 104.87 167.74 102.79 175.17 C 101.75 178.67 100.93 182.77 103.01 186.06 C 105.05 188.02 107.50 189.49 109.59 191.40 C 112.22 193.53 114.74 196.25 118.27 196.73 C 121.75 197.91 122.65 201.29 122.63 204.63 C 121.61 203.16 120.86 201.52 119.83 200.06 C 117.48 198.05 113.92 198.51 111.68 196.34 C 107.51 192.34 102.17 189.35 99.51 184.00 C 99.53 181.58 99.63 179.13 100.38 176.81 C 101.96 171.22 102.67 165.42 104.39 159.86 C 105.29 154.71 108.88 150.33 108.77 144.97 C 108.86 140.94 110.99 137.17 110.46 133.09 C 110.37 129.55 108.29 126.50 107.93 123.03 C 107.18 116.61 104.77 110.54 101.94 104.78 C 93.96 106.36 86.79 111.27 81.57 117.42 C 83.96 120.00 86.22 122.76 89.15 124.77 C 93.30 127.59 94.91 132.61 98.43 136.02 C 96.28 140.26 93.17 144.08 92.54 148.97 C 89.71 155.61 89.20 162.86 88.54 169.97 C 88.88 176.37 89.29 183.38 85.82 189.06 C 83.80 192.85 82.54 196.98 81.67 201.17 C 82.09 202.08 82.51 202.99 82.93 203.90 C 89.46 204.60 96.08 204.53 102.55 205.77 C 105.92 206.63 109.45 206.93 112.91 206.51 C 115.46 205.67 117.68 204.08 119.91 202.62 C 120.08 203.23 120.42 204.47 120.59 205.09 C 116.85 206.60 113.29 209.37 109.05 208.90 C 105.38 208.68 101.71 208.32 98.12 207.46 C 92.94 206.32 87.48 206.97 82.40 205.32 C 79.47 204.32 78.87 200.50 80.05 197.96 C 81.31 192.01 86.05 187.22 86.09 180.99 C 86.25 176.99 86.98 173.01 86.46 169.01 C 85.87 162.43 88.19 156.15 89.03 149.72 C 89.64 145.27 92.75 141.82 94.53 137.83 C 93.58 132.25 89.66 127.89 85.10 124.84 C 82.73 123.40 81.29 121.01 79.57 118.93 C 78.10 119.47 76.70 120.34 75.11 120.46 C 70.13 115.86 69.04 108.58 63.79 104.23 C 61.14 99.74 57.54 95.40 56.94 90.04 C 56.72 88.36 58.86 87.76 59.73 86.63 C 60.07 90.99 61.18 95.44 64.00 98.90 C 67.22 102.51 68.66 107.22 70.71 111.50 C 72.62 113.60 74.43 115.77 76.25 117.95 C 79.98 117.05 82.14 113.30 84.97 110.95 C 91.00 106.02 98.29 102.05 106.30 102.27 L 106.68 103.35 C 106.01 99.15 100.75 97.77 100.41 93.40 C 97.60 89.51 92.71 86.62 92.33 81.29 C 93.51 81.99 94.67 82.74 95.80 83.54 C 95.99 83.00 96.38 81.93 96.57 81.39 C 92.55 80.15 88.34 79.65 84.31 78.48 C 83.15 77.62 82.26 76.44 81.27 75.39 C 77.69 76.92 74.20 78.70 70.42 79.69 C 66.13 84.28 59.29 84.82 54.40 88.66 C 55.83 92.54 53.03 96.01 51.01 99.05 C 49.21 102.20 45.09 101.27 42.08 101.47 C 37.15 98.84 30.23 97.40 28.75 91.11 C 28.35 85.40 33.51 79.41 39.39 79.65 C 37.96 80.51 36.48 81.29 34.97 82.00 C 33.75 85.29 31.72 88.52 31.66 92.09 C 33.48 95.22 36.35 97.62 39.54 99.27 C 42.70 100.45 46.04 99.19 49.03 98.09 C 50.85 95.40 52.09 92.40 53.21 89.37 C 50.00 91.67 46.85 88.58 44.23 86.85 C 42.47 85.33 39.73 84.40 39.12 81.94 C 41.17 77.05 44.26 72.65 47.12 68.20 C 48.48 74.00 42.14 76.90 40.63 81.81 C 43.36 83.93 46.21 85.88 49.03 87.87 C 54.62 85.64 59.54 81.94 65.40 80.34 C 71.06 76.31 78.26 75.12 83.67 70.66 C 86.48 67.61 89.37 64.64 92.41 61.81 L 92.56 64.30 C 95.58 60.20 100.79 59.56 104.83 56.94 C 105.85 56.30 106.95 55.89 108.14 55.71 C 108.95 57.48 106.87 58.02 105.90 58.86 C 103.96 60.11 101.83 61.01 99.71 61.90 C 99.00 62.71 98.29 63.53 97.61 64.39 C 91.97 66.16 87.64 70.64 83.10 74.25 C 84.04 75.05 84.60 76.55 85.99 76.69 C 90.27 77.57 94.51 78.66 98.78 79.63 C 104.09 80.01 109.48 80.25 114.79 79.58 C 119.34 82.10 123.08 77.78 126.75 75.74 C 129.65 73.51 133.62 76.95 136.32 74.25 C 140.82 71.46 142.32 66.19 144.06 61.54 C 138.29 62.19 132.97 58.76 127.19 59.45 C 122.86 61.59 118.20 62.69 113.52 63.73 C 109.25 65.30 104.61 64.61 100.26 63.79 C 100.17 63.46 99.97 62.80 99.87 62.47 C 103.84 61.43 107.93 62.23 111.94 62.02 C 116.78 60.67 121.22 58.18 126.02 56.72 C 130.47 56.85 134.95 57.87 139.32 56.43 C 138.88 57.15 137.99 58.58 137.55 59.29 C 139.63 59.49 141.71 59.89 143.81 59.87 C 145.96 59.01 147.15 56.39 149.63 56.34 C 151.33 55.73 152.99 56.13 154.55 56.90 C 153.43 53.84 152.76 50.63 152.74 47.37 C 153.70 48.43 154.68 49.55 154.86 51.03 C 155.39 54.05 157.13 56.61 158.69 59.17 C 160.89 60.16 162.96 63.05 165.58 61.48 C 169.23 59.22 171.45 55.39 174.36 52.34 C 177.11 49.50 178.73 45.79 179.40 41.93 C 179.45 32.72 169.50 24.77 160.51 27.79 C 156.76 29.66 154.87 33.58 153.16 37.18 C 152.06 39.80 149.11 40.39 146.60 40.76 C 145.23 39.29 144.14 37.19 142.03 36.68 C 139.49 36.25 136.91 36.18 134.36 35.83 C 134.81 36.45 135.25 37.08 135.67 37.73 C 133.24 37.80 130.86 35.93 128.49 37.10 C 126.86 38.99 125.71 41.28 123.69 42.80 C 123.73 41.11 124.19 39.49 124.68 37.89 C 122.57 38.75 120.44 39.80 118.10 39.80 C 112.57 39.49 107.46 41.89 102.25 43.34 C 100.60 43.72 99.99 45.44 99.07 46.65 C 95.37 46.30 92.26 48.13 89.09 49.67 C 84.22 50.65 79.53 52.48 75.59 55.56 C 73.56 57.77 72.10 60.41 70.41 62.88 C 70.88 63.32 71.35 63.76 71.83 64.19 C 74.32 62.51 77.03 61.19 79.66 59.75 C 79.05 60.78 78.43 61.81 77.81 62.84 C 75.70 63.67 73.64 64.64 71.58 65.61 L 71.38 64.39 C 71.00 64.61 70.25 65.06 69.87 65.29 C 69.83 67.68 69.58 70.21 68.27 72.29 C 66.84 74.21 64.49 75.07 62.48 76.24 C 56.25 74.20 48.33 71.74 46.45 64.61 C 45.08 61.56 47.71 58.77 49.47 56.55 C 51.65 53.82 55.51 52.96 58.73 54.18 C 62.29 55.60 65.63 57.57 68.69 59.88 C 70.02 58.67 71.40 57.51 72.88 56.47 C 73.11 56.15 73.57 55.51 73.80 55.18 C 77.30 53.19 80.95 51.48 84.42 49.44 C 87.28 48.30 90.38 47.95 93.29 46.94 C 94.10 45.82 95.21 45.03 96.53 44.63 C 99.77 43.30 102.13 40.53 105.22 38.95 C 111.30 36.96 117.97 38.60 123.99 36.25 C 127.76 35.37 131.68 32.90 135.57 34.62 C 139.31 36.27 143.53 35.98 147.25 37.69 C 148.35 38.26 149.49 37.43 150.60 37.26 M 53.60 56.39 C 51.57 58.68 49.69 61.12 48.48 63.95 C 51.01 68.81 55.63 72.20 60.90 73.55 C 64.04 73.24 67.73 71.59 68.08 68.03 C 68.84 60.66 60.34 54.99 53.60 56.39 M 96.63 86.23 C 99.23 89.04 103.03 91.20 103.39 95.42 C 105.35 96.88 106.73 98.89 108.21 100.80 C 108.44 100.72 108.90 100.55 109.13 100.47 C 110.19 94.39 109.46 88.18 109.73 82.05 C 106.11 82.24 102.49 81.96 98.88 81.69 C 98.12 83.20 97.37 84.72 96.63 86.23 M 111.08 82.18 C 111.04 88.40 112.50 94.60 111.67 100.81 C 111.29 102.65 109.55 103.94 109.28 105.80 C 110.82 110.17 114.32 113.83 114.74 118.57 C 115.23 118.87 116.22 119.48 116.71 119.79 C 116.40 115.79 117.88 111.09 115.38 107.58 C 118.17 99.13 119.54 90.30 121.73 81.70 C 120.56 82.07 119.39 82.44 118.23 82.81 C 115.93 81.97 113.49 82.02 111.08 82.18 Z" />
<path fill="#333333" opacity="1.00" d=" M 138.60 40.30 C 141.46 42.20 143.10 45.32 145.01 48.07 C 144.92 48.60 144.73 49.66 144.63 50.19 C 142.19 47.19 139.73 44.07 138.60 40.30 Z" />
<path fill="#333333" opacity="1.00" d=" M 110.57 42.88 C 114.36 41.01 118.56 41.68 122.43 42.94 C 119.13 43.48 115.73 43.32 112.52 44.34 C 112.53 45.54 112.55 46.74 112.56 47.94 C 109.93 51.86 105.11 51.95 100.86 52.17 C 100.03 51.90 99.23 51.56 98.47 51.14 C 102.85 51.14 106.58 49.09 110.28 46.99 C 110.37 45.62 110.47 44.25 110.57 42.88 Z" />
<path fill="#333333" opacity="1.00" d=" M 85.59 53.61 C 87.30 52.23 89.61 52.09 91.65 51.49 C 87.77 54.39 85.45 59.07 81.03 61.24 C 82.50 58.67 83.83 55.99 85.59 53.61 Z" />
<path fill="#333333" opacity="1.00" d=" M 52.98 60.20 C 56.78 63.49 61.63 64.72 66.26 66.31 C 63.42 65.97 60.56 65.70 57.74 65.19 C 55.71 64.04 54.02 62.30 52.98 60.20 Z" />
<path fill="#333333" opacity="1.00" d=" M 125.95 73.74 C 125.23 70.70 125.81 67.55 127.10 64.75 C 127.87 67.79 128.81 71.45 125.95 73.74 Z" />
<path fill="#333333" opacity="1.00" d=" M 110.50 74.69 C 109.99 71.27 111.93 68.16 114.09 65.71 C 113.84 68.68 114.38 74.07 110.50 74.69 Z" />
<path fill="#333333" opacity="1.00" d=" M 115.86 73.77 C 115.53 71.55 116.42 69.62 117.81 67.98 C 118.09 70.15 117.84 72.46 115.86 73.77 Z" />
<path fill="#333333" opacity="1.00" d=" M 49.63 92.40 C 44.09 95.45 36.91 89.71 37.67 83.65 C 40.47 86.80 42.99 92.23 48.20 90.66 C 48.69 91.23 49.17 91.81 49.63 92.40 Z" />
</g>
</svg>
