<?xml version="1.0" encoding="UTF-8" ?>
<!DOCTYPE svg PUBLIC "-//W3C//DTD SVG 1.1//EN" "http://www.w3.org/Graphics/SVG/1.1/DTD/svg11.dtd">
<svg width="212pt" height="275pt" viewBox="0 0 212 275" version="1.1" xmlns="http://www.w3.org/2000/svg"><g id="#4f504fff">
<path fill="#333333" opacity="1.00" d=" M 156.38 68.48 C 159.95 66.33 165.15 65.48 168.55 68.45 C 172.54 71.89 174.49 77.02 175.48 82.06 C 179.39 81.17 183.23 79.76 187.26 79.46 C 187.95 80.88 188.43 82.38 188.91 83.87 C 184.74 85.23 180.46 86.28 176.09 86.77 C 176.61 94.62 175.89 104.09 168.81 108.99 C 165.56 108.91 161.84 110.20 158.97 108.08 C 154.33 104.81 152.96 99.01 151.03 94.01 L 150.54 93.34 C 145.00 94.44 139.62 96.27 133.97 96.77 C 133.94 97.52 133.89 99.04 133.86 99.80 C 133.49 100.38 132.75 101.54 132.38 102.12 C 133.29 104.84 134.16 107.63 134.16 110.53 C 134.29 116.34 136.75 122.24 134.70 127.97 C 133.68 130.91 133.29 134.12 131.77 136.86 C 130.20 137.89 127.99 137.38 126.55 136.34 C 123.11 134.35 121.11 130.61 117.47 128.91 C 118.05 128.43 118.64 127.95 119.23 127.48 C 118.41 125.92 117.64 124.33 116.93 122.71 C 117.14 122.51 117.57 122.12 117.78 121.92 C 117.40 119.50 116.86 117.12 116.39 114.72 C 115.69 116.20 115.15 117.74 114.75 119.32 C 114.27 118.38 113.78 117.44 113.24 116.53 C 110.86 117.68 108.09 118.67 105.60 117.19 L 105.25 117.88 C 105.18 117.14 105.05 115.66 104.99 114.92 C 103.38 119.60 97.90 119.71 94.66 122.75 C 94.30 122.49 93.59 121.96 93.24 121.70 C 95.86 120.00 98.53 118.34 101.51 117.33 C 102.92 116.89 102.80 115.07 103.40 113.99 C 102.78 112.02 102.32 109.99 102.09 107.93 C 104.88 110.62 104.04 115.79 108.58 116.74 C 110.56 116.27 112.59 115.98 114.62 115.77 C 114.98 114.41 115.35 113.06 115.75 111.71 C 118.76 114.94 119.29 119.41 120.76 123.39 C 120.38 123.61 119.62 124.03 119.24 124.25 C 121.02 129.48 124.96 134.25 130.29 136.26 C 133.01 131.74 133.14 126.14 133.56 121.00 C 133.04 114.95 133.23 108.60 130.77 102.93 C 130.25 102.87 129.22 102.75 128.71 102.69 C 131.25 102.47 132.24 99.93 133.68 98.19 C 133.11 96.14 132.49 94.10 131.70 92.12 C 127.12 91.04 123.11 93.73 118.86 94.88 C 119.87 94.95 121.87 95.08 122.88 95.14 C 121.65 95.86 120.42 96.64 119.00 96.91 C 108.38 99.25 97.81 101.81 87.29 104.51 C 89.45 107.39 93.03 104.98 95.83 104.67 C 105.07 102.85 114.07 99.63 123.47 98.83 C 123.32 96.59 125.09 96.65 126.68 96.74 C 127.19 96.58 128.20 96.25 128.71 96.09 C 128.49 96.53 128.05 97.42 127.83 97.86 C 126.01 98.74 122.77 98.49 123.25 101.40 C 122.88 100.65 122.50 99.91 122.10 99.18 C 121.53 99.86 120.40 101.23 119.83 101.92 C 122.17 103.92 124.98 102.26 127.45 101.53 C 126.85 103.03 125.44 103.83 124.16 104.69 C 128.71 112.11 122.88 119.90 123.23 127.64 L 121.43 127.64 C 121.14 121.40 124.48 115.73 124.05 109.48 C 123.38 110.00 122.71 110.52 122.04 111.05 C 121.33 110.62 120.62 110.19 119.92 109.77 C 121.25 109.30 122.57 108.79 123.85 108.20 C 123.51 104.39 118.57 104.36 118.12 100.80 C 116.31 101.19 114.88 102.02 114.95 104.09 C 114.80 103.60 114.51 102.62 114.36 102.13 C 105.92 103.56 97.69 105.97 89.37 107.97 C 89.01 109.88 88.15 111.62 86.98 113.17 C 87.70 116.72 88.20 120.58 90.72 123.39 C 93.34 126.50 95.52 130.20 95.36 134.42 C 96.15 133.93 97.73 132.96 98.52 132.47 C 97.98 134.10 96.59 134.85 95.06 135.31 C 94.44 138.27 94.34 141.44 92.98 144.18 C 91.23 144.44 89.47 144.34 87.72 144.33 C 92.24 147.35 97.89 146.29 102.95 147.47 C 102.21 146.76 101.43 146.08 100.61 145.46 C 99.60 144.29 98.67 143.06 97.77 141.82 C 98.34 141.17 98.89 140.52 99.44 139.87 L 97.75 138.95 C 98.38 138.18 99.01 137.41 99.63 136.63 L 97.94 136.92 L 97.86 135.35 C 98.73 135.66 99.60 135.96 100.48 136.26 C 102.48 135.24 104.71 135.09 106.89 134.78 C 108.61 133.44 108.06 130.80 108.67 128.89 C 109.16 130.68 109.63 132.48 110.06 134.28 C 112.83 134.33 113.59 131.31 115.10 129.61 C 114.63 137.08 113.36 145.41 118.03 151.92 C 123.31 152.44 129.30 151.92 133.75 155.33 C 137.16 157.33 140.97 158.67 144.01 161.26 C 145.81 162.81 147.73 164.26 149.94 165.18 C 155.28 167.27 157.81 173.92 156.31 179.21 C 155.78 183.47 155.75 187.84 156.59 192.07 C 157.79 198.78 155.88 205.83 158.29 212.36 C 161.52 214.18 163.40 217.48 166.19 219.80 C 167.77 221.29 170.03 221.42 171.99 222.14 C 173.23 222.95 174.12 224.18 175.16 225.23 C 172.76 229.91 166.92 230.47 162.28 229.68 C 159.66 228.49 157.08 226.51 154.03 227.17 C 151.21 227.70 148.38 227.29 145.85 225.94 C 144.32 218.72 149.66 211.92 147.21 204.81 C 146.24 200.39 142.27 196.79 143.07 192.00 C 143.19 188.48 144.00 185.02 144.25 181.51 C 141.61 180.80 139.31 179.31 137.40 177.38 C 137.39 179.19 138.04 182.05 135.72 182.67 C 129.30 185.00 122.71 186.89 116.03 188.36 C 116.09 195.87 115.73 203.39 115.59 210.90 C 120.10 209.35 124.56 207.64 129.11 206.22 C 131.53 205.30 133.64 207.29 135.73 208.20 C 135.03 210.24 135.65 213.46 133.12 214.23 C 124.45 217.57 115.68 220.65 107.02 224.02 C 106.35 223.50 105.67 223.00 105.00 222.49 C 105.16 227.56 104.33 233.13 107.24 237.65 C 109.59 242.17 112.79 246.13 116.03 250.04 C 116.36 252.49 115.16 254.63 112.45 254.39 C 108.07 257.74 101.31 256.41 98.05 252.04 C 98.16 247.80 95.28 244.31 95.16 240.11 C 93.93 235.76 95.63 231.31 94.90 226.91 C 94.15 222.23 92.25 217.76 91.99 212.99 C 92.48 208.78 94.14 204.83 95.41 200.82 C 96.73 194.91 96.98 188.39 93.38 183.18 C 92.09 182.84 89.78 182.67 89.79 180.88 C 89.80 178.12 89.48 175.39 88.64 172.76 C 78.02 176.96 67.33 181.11 56.50 184.72 C 53.41 183.44 54.34 179.92 54.27 177.30 C 59.09 175.12 64.15 173.55 69.07 171.63 C 69.51 165.05 69.21 158.45 69.59 151.87 C 66.99 149.61 64.05 147.75 61.62 145.30 C 59.89 143.58 60.90 141.00 60.92 138.89 C 64.40 137.61 68.06 136.95 71.67 136.14 C 71.72 136.55 71.83 137.37 71.89 137.78 C 68.84 138.51 65.69 138.93 62.75 140.05 C 60.57 142.85 63.91 145.42 66.03 146.95 C 73.21 151.92 79.33 158.20 86.26 163.49 C 85.06 159.12 82.46 155.06 82.90 150.35 C 84.44 148.72 85.85 146.93 86.66 144.81 C 85.37 142.87 82.59 143.18 80.71 142.06 C 76.65 139.50 74.47 134.81 74.51 130.08 C 74.59 123.88 72.43 118.03 71.22 112.04 C 65.19 113.74 59.06 115.14 52.91 116.36 C 53.03 123.99 52.22 132.87 45.79 137.99 C 42.38 138.05 38.55 139.63 35.53 137.35 C 30.86 133.90 28.91 128.01 27.75 122.56 C 24.27 123.19 20.77 123.82 17.41 124.97 C 15.94 123.58 14.83 120.30 17.10 119.23 C 20.52 118.53 23.95 117.85 27.30 116.86 C 27.17 114.34 27.08 111.83 26.92 109.33 C 27.45 109.99 27.98 110.65 28.50 111.33 C 28.23 113.18 27.95 115.04 27.66 116.89 C 30.83 116.03 34.03 115.27 37.24 114.58 C 37.69 116.31 38.01 118.06 38.28 119.83 C 35.00 120.73 31.72 121.69 28.35 122.23 C 30.40 126.53 31.35 131.58 35.02 134.91 C 37.81 137.59 42.30 137.14 45.58 135.77 C 50.98 131.28 51.67 123.56 51.40 117.02 C 50.97 109.18 48.12 99.99 40.17 96.83 C 37.64 97.56 34.48 97.41 32.75 99.72 C 30.51 102.24 29.21 105.57 29.19 108.95 C 28.72 109.07 27.79 109.30 27.32 109.41 C 28.63 104.23 30.45 96.83 36.86 96.15 C 39.70 95.27 42.90 95.77 45.17 97.74 C 49.08 101.24 50.86 106.39 52.13 111.33 C 60.05 108.79 68.28 107.34 76.36 105.36 C 75.59 106.70 74.48 107.51 73.03 107.78 C 65.94 109.31 58.95 111.27 51.82 112.59 L 52.80 114.65 C 60.26 113.41 67.48 111.01 74.93 109.69 C 76.01 109.43 77.02 109.98 78.03 110.28 C 76.00 110.97 73.93 111.56 71.88 112.17 C 73.29 116.08 74.97 119.97 75.33 124.17 C 76.09 130.75 77.31 138.05 82.87 142.41 C 83.42 142.35 84.51 142.24 85.05 142.19 C 80.85 135.89 78.23 128.56 77.25 121.07 C 76.93 118.34 75.78 115.82 75.19 113.16 C 76.29 111.18 77.38 114.31 77.90 115.14 C 79.29 119.22 78.83 123.69 80.32 127.75 C 82.03 132.39 83.85 137.02 86.32 141.31 C 86.62 141.00 87.21 140.40 87.51 140.09 C 87.58 140.56 87.73 141.51 87.81 141.98 C 88.74 142.24 90.58 142.76 91.51 143.02 C 92.16 141.26 92.84 139.51 93.58 137.79 L 92.78 137.55 C 93.38 137.02 93.99 136.49 94.58 135.96 C 93.97 133.77 93.57 131.51 92.66 129.42 C 91.13 126.07 88.03 123.68 86.78 120.18 C 85.95 117.91 85.49 115.51 85.25 113.11 C 85.89 111.55 86.97 110.25 87.89 108.86 C 87.16 106.84 86.12 104.72 87.17 102.59 C 82.31 101.37 77.95 105.09 73.21 105.69 C 74.25 102.55 77.63 102.13 80.39 101.57 C 80.32 101.28 80.18 100.70 80.11 100.41 L 83.82 101.08 C 82.81 100.39 81.73 99.79 80.66 99.21 C 82.95 98.31 85.98 98.09 87.35 95.77 C 87.76 93.40 87.67 90.98 87.70 88.58 C 85.15 86.02 85.02 82.34 84.93 78.97 C 84.47 74.46 88.51 70.31 92.95 70.19 C 96.05 70.20 99.65 69.57 102.22 71.76 C 104.88 73.82 104.64 77.51 105.50 80.45 C 106.94 85.64 105.20 90.96 103.98 96.01 L 105.84 95.96 C 104.57 96.94 102.70 97.43 102.44 99.31 C 106.98 97.32 111.95 93.67 117.01 95.93 C 118.50 91.48 123.52 91.88 127.06 90.15 C 129.45 89.08 131.63 90.96 133.79 91.68 C 139.41 90.53 144.97 89.07 150.58 87.87 C 150.40 81.12 151.33 73.43 156.38 68.48 M 155.76 71.04 C 151.96 75.81 152.49 82.21 150.96 87.79 C 154.21 86.89 157.49 86.12 160.81 85.49 C 161.43 87.22 161.73 89.02 161.15 90.80 C 158.52 91.28 155.92 91.88 153.33 92.53 C 153.21 92.90 152.96 93.63 152.84 93.99 C 153.86 99.32 156.32 105.79 162.03 107.50 C 165.05 107.44 168.92 107.77 170.81 104.87 C 175.01 99.59 175.32 92.34 174.78 85.89 C 174.02 78.66 171.05 70.53 163.75 67.64 C 160.96 68.35 157.45 68.27 155.76 71.04 M 87.21 76.07 C 86.34 78.04 84.81 81.99 88.23 82.50 C 87.92 83.23 87.28 84.70 86.97 85.43 C 88.24 86.50 89.55 87.54 90.92 88.50 C 92.29 92.85 96.66 94.51 100.78 95.19 C 102.03 95.00 102.89 94.31 103.35 93.12 C 105.24 87.92 105.13 82.27 103.53 77.01 C 103.23 74.44 101.08 72.85 99.31 71.23 C 94.93 71.19 89.33 71.50 87.21 76.07 M 175.95 83.20 C 175.97 83.86 176.00 85.18 176.01 85.85 C 179.95 84.82 183.97 84.11 187.83 82.78 C 187.35 82.34 186.39 81.46 185.92 81.02 C 182.53 81.40 179.27 82.48 175.95 83.20 M 142.23 91.29 C 139.35 91.86 136.52 93.17 133.53 92.67 C 133.74 93.56 134.16 95.34 134.37 96.23 C 142.69 92.52 152.18 92.26 160.61 88.94 C 160.40 88.48 159.98 87.58 159.77 87.13 C 153.92 88.49 148.10 90.01 142.23 91.29 M 88.65 88.53 C 88.21 92.23 90.00 99.54 83.92 98.95 C 83.89 99.29 83.84 99.98 83.81 100.32 C 86.06 99.20 87.56 100.31 88.58 102.27 C 90.07 101.99 91.57 101.71 93.06 101.42 C 92.09 98.92 91.13 96.41 90.07 93.95 C 91.88 96.06 93.58 98.32 94.33 101.05 C 96.95 99.96 101.73 101.06 102.01 97.33 C 99.47 96.98 96.88 96.57 94.57 95.39 C 91.57 94.20 90.61 90.80 88.65 88.53 M 112.27 96.00 C 112.35 99.26 115.29 94.52 112.27 96.00 M 19.11 120.26 C 19.37 120.82 19.88 121.93 20.14 122.49 C 25.95 121.49 31.55 119.58 37.34 118.50 C 37.07 117.09 36.32 116.51 35.07 116.75 C 29.74 117.88 24.49 119.37 19.11 120.26 M 17.08 121.23 C 15.87 124.34 20.35 121.05 17.08 121.23 M 108.94 135.37 C 105.83 137.09 102.03 136.84 99.08 138.94 L 100.00 139.02 C 98.55 142.94 102.70 145.08 105.07 147.33 C 107.98 146.52 110.92 145.73 113.69 144.48 C 113.29 141.14 112.89 137.80 113.00 134.43 C 111.92 135.69 110.43 135.64 108.94 135.37 M 87.71 146.03 C 87.14 147.23 86.25 148.12 85.05 148.71 C 83.98 152.55 85.09 156.64 86.84 160.10 C 88.76 156.61 93.55 155.94 94.99 151.92 C 93.50 151.35 92.01 150.79 90.52 150.25 C 89.75 152.24 89.10 154.26 88.48 156.30 C 88.25 155.20 88.02 154.10 87.80 153.01 C 88.48 151.61 89.17 150.21 89.87 148.82 C 94.52 150.53 99.39 151.08 104.30 151.35 C 101.82 152.56 99.10 153.00 96.40 152.34 C 94.41 156.34 90.69 159.49 89.85 164.02 C 89.60 167.83 89.84 171.74 91.18 175.35 C 93.59 168.09 104.37 166.50 109.08 172.27 C 109.03 171.46 108.93 169.84 108.88 169.03 C 110.87 168.74 112.83 168.26 114.83 168.10 C 116.92 168.72 118.38 170.40 119.86 171.90 C 120.35 168.94 120.69 165.96 121.11 163.00 C 122.44 159.40 125.48 156.75 128.67 154.78 C 124.84 153.86 120.78 154.19 117.02 152.92 C 115.72 152.15 115.19 150.63 114.40 149.43 C 113.17 148.84 111.94 148.25 110.72 147.64 C 107.21 148.60 103.61 149.91 99.93 149.07 C 95.81 148.19 91.23 148.76 87.71 146.03 M 70.71 152.71 C 70.47 159.00 70.80 165.30 70.42 171.57 C 70.34 172.93 68.57 173.05 67.63 173.62 C 63.68 175.13 59.68 176.51 55.75 178.07 C 55.80 179.78 55.87 181.50 56.00 183.21 C 66.92 179.94 77.34 175.20 88.14 171.57 C 88.04 169.72 87.98 167.88 87.96 166.04 C 84.01 168.08 79.72 169.36 75.41 170.43 C 75.30 166.07 75.53 161.72 75.76 157.37 C 74.07 155.82 72.39 154.27 70.71 152.71 M 123.11 162.79 C 123.09 165.86 122.49 168.89 121.38 171.75 C 126.75 175.82 134.28 172.14 139.48 176.53 C 141.88 178.84 145.08 179.77 148.15 180.82 C 146.98 181.43 145.79 181.98 144.61 182.54 C 145.26 186.99 144.74 191.54 145.83 195.93 C 146.22 199.15 148.77 201.64 149.01 204.90 C 149.25 207.93 149.10 210.98 148.97 214.02 C 147.82 217.32 147.73 220.84 147.31 224.28 C 147.73 224.72 148.59 225.59 149.01 226.02 C 152.51 226.13 156.25 224.95 159.56 226.50 C 163.93 228.62 169.46 229.32 173.39 225.93 C 171.20 222.82 166.70 223.57 164.27 220.74 C 161.78 217.92 159.45 214.94 156.47 212.60 C 154.06 204.90 156.03 196.80 154.15 189.03 C 153.97 184.35 154.71 179.66 155.48 175.05 C 154.42 172.94 153.76 170.63 152.42 168.67 C 150.37 166.89 147.60 166.21 145.50 164.47 C 141.25 161.05 136.53 157.92 131.13 156.74 C 127.32 156.66 124.83 159.82 123.11 162.79 M 90.07 158.91 C 90.67 158.34 90.67 158.34 90.07 158.91 M 77.08 158.26 C 77.04 161.68 77.03 165.10 77.00 168.52 C 79.86 167.58 82.71 166.63 85.54 165.62 C 82.70 163.19 79.88 160.74 77.08 158.26 M 88.31 162.61 C 89.69 162.57 90.60 160.12 90.07 158.91 C 88.44 158.75 87.99 161.39 88.31 162.61 M 111.25 171.39 C 111.07 172.12 110.69 173.59 110.51 174.33 C 112.61 178.40 113.58 182.94 113.00 187.51 C 120.36 184.81 128.31 183.78 135.47 180.50 C 135.51 179.08 135.33 177.68 135.26 176.28 C 130.58 176.49 125.75 176.30 121.56 173.95 C 120.27 174.02 118.98 174.06 117.69 174.08 C 116.77 172.53 115.82 170.86 114.15 170.02 C 113.17 170.45 112.21 170.90 111.25 171.39 M 96.51 171.61 C 94.50 173.06 93.37 175.37 91.95 177.34 C 95.65 181.75 98.19 187.23 97.68 193.10 C 96.86 198.45 99.62 203.42 100.31 208.61 C 98.62 206.63 97.71 204.16 96.51 201.88 C 95.13 205.80 93.49 209.78 93.58 214.01 C 94.05 219.78 96.74 225.16 96.77 230.99 C 96.83 233.78 95.48 236.62 96.57 239.35 C 97.49 243.39 100.25 246.95 100.01 251.23 C 103.14 249.40 107.04 250.31 110.52 249.79 C 111.25 250.93 112.00 252.06 112.77 253.18 C 113.33 252.74 114.47 251.85 115.04 251.40 C 110.75 245.78 105.43 240.24 104.08 233.10 C 103.68 232.92 102.90 232.58 102.51 232.41 C 101.38 234.74 100.31 237.15 98.46 239.03 C 98.21 235.56 100.74 232.78 103.47 231.03 C 102.36 226.03 103.13 220.77 105.16 216.11 C 106.54 213.06 106.10 209.63 106.04 206.39 L 105.20 206.32 C 103.71 210.05 104.48 214.41 102.31 217.87 C 100.92 212.18 103.63 206.90 106.12 202.01 C 107.14 197.64 110.13 193.58 109.04 188.94 C 109.56 189.20 110.59 189.74 111.10 190.00 C 109.64 188.93 109.10 187.26 108.68 185.58 C 108.03 184.39 107.40 183.19 106.83 181.97 C 109.33 183.29 110.82 185.65 111.69 188.28 C 111.65 182.20 110.03 176.01 105.74 171.53 C 102.72 171.02 99.44 170.57 96.51 171.61 M 91.20 180.30 C 91.81 180.81 91.81 180.81 91.20 180.30 M 108.58 199.83 C 107.00 204.45 108.67 209.39 107.73 214.11 C 107.18 216.43 106.20 218.62 105.41 220.87 C 105.94 221.39 106.47 221.90 107.01 222.41 C 115.50 218.83 124.24 215.84 132.87 212.60 C 133.28 211.47 133.67 210.32 134.07 209.18 C 132.49 208.62 130.85 207.20 129.10 208.04 C 124.07 209.65 119.15 211.60 114.04 212.93 C 113.87 207.29 113.91 201.64 114.15 196.01 C 114.21 193.16 115.24 189.98 113.24 187.51 C 111.26 191.44 109.98 195.67 108.58 199.83 M 100.77 252.06 C 103.54 255.04 108.00 255.13 111.23 252.90 C 109.40 250.53 106.46 252.07 103.98 251.66 C 102.91 251.78 101.83 251.91 100.77 252.06 Z" />
<path fill="#333333" opacity="1.00" d=" M 161.83 68.89 C 164.89 69.57 166.56 72.48 167.85 75.07 C 171.04 82.17 171.86 90.27 170.43 97.90 C 169.69 101.21 168.90 105.12 165.44 106.64 C 170.90 97.52 171.07 85.87 166.76 76.27 C 165.45 73.59 163.33 71.45 161.83 68.89 Z" />
<path fill="#333333" opacity="1.00" d=" M 38.60 97.93 C 42.90 99.97 44.74 104.72 46.06 108.98 C 48.20 116.77 48.34 125.45 45.08 132.96 C 44.60 134.43 43.12 135.03 41.84 135.63 C 47.41 127.02 47.32 115.69 43.64 106.37 C 42.56 103.20 39.58 101.12 38.60 97.93 Z" />
<path fill="#333333" opacity="1.00" d=" M 79.97 105.97 C 82.26 106.41 84.54 106.93 86.83 107.39 C 84.42 109.19 81.57 108.34 79.97 105.97 Z" />
<path fill="#333333" opacity="1.00" d=" M 106.39 121.18 C 107.35 120.51 108.30 119.83 109.25 119.14 C 110.29 119.61 111.33 120.08 112.37 120.56 C 110.53 120.61 108.71 120.87 106.97 121.52 C 107.64 122.67 108.29 123.83 108.95 124.99 C 109.69 125.00 111.18 125.03 111.93 125.05 C 112.28 125.50 112.98 126.41 113.32 126.87 C 111.65 126.74 109.97 126.63 108.29 126.49 C 105.09 127.97 101.61 129.10 99.05 131.64 C 97.90 130.93 96.78 130.18 95.68 129.41 C 96.70 129.56 97.71 129.71 98.73 129.87 C 99.97 129.02 101.25 128.23 102.60 127.56 C 102.97 127.17 103.71 126.39 104.08 126.00 C 104.90 125.98 106.56 125.92 107.38 125.90 C 107.13 124.31 106.80 122.74 106.39 121.18 Z" />
<path fill="#333333" opacity="1.00" d=" M 99.42 123.79 C 100.66 121.84 101.98 119.55 104.63 119.54 C 102.52 122.37 100.50 125.51 97.10 126.93 C 97.82 125.85 98.60 124.80 99.42 123.79 Z" />
<path fill="#333333" opacity="1.00" d=" M 112.84 120.67 C 114.69 122.91 116.57 125.24 116.60 128.31 C 115.28 126.88 114.07 125.38 112.89 123.85 C 112.88 123.06 112.85 121.47 112.84 120.67 Z" />
<path fill="#333333" opacity="1.00" d=" M 108.22 139.90 C 110.49 139.06 109.24 142.83 107.64 142.62 C 106.15 142.27 107.31 140.26 108.22 139.90 Z" />
<path fill="#333333" opacity="1.00" d=" M 98.59 158.38 C 102.50 153.89 108.08 150.65 114.14 150.52 C 110.96 152.23 107.56 153.52 104.52 155.46 C 102.64 156.62 100.82 157.99 98.59 158.38 Z" />
<path fill="#333333" opacity="1.00" d=" M 102.48 158.20 C 105.99 155.12 110.66 154.17 115.09 153.23 C 114.34 154.18 113.44 155.02 112.17 155.15 C 108.85 155.88 105.75 157.29 102.48 158.20 Z" />
<path fill="#333333" opacity="1.00" d=" M 95.88 162.46 C 98.71 161.24 101.70 160.38 104.79 160.16 C 102.33 162.37 99.02 162.62 95.88 162.46 Z" />
<path fill="#333333" opacity="1.00" d=" M 145.56 168.27 C 145.85 168.15 146.44 167.91 146.73 167.79 C 148.18 170.30 150.87 174.40 147.28 176.39 C 143.68 178.26 139.58 175.30 138.13 171.93 C 140.50 173.71 142.92 175.49 145.79 176.39 C 148.54 174.01 147.01 170.86 145.56 168.27 Z" />
<path fill="#333333" opacity="1.00" d=" M 100.52 186.47 C 102.06 184.63 103.89 183.03 105.96 181.82 C 104.77 183.97 103.16 186.13 100.52 186.47 Z" />
<path fill="#333333" opacity="1.00" d=" M 103.13 196.24 C 103.39 194.63 106.25 194.80 106.51 196.33 C 106.26 197.97 103.30 197.89 103.13 196.24 Z" />
<path fill="#333333" opacity="1.00" d=" M 150.34 215.26 C 151.70 215.44 150.95 217.74 151.49 218.69 C 151.81 219.23 152.11 221.63 150.85 220.52 C 149.73 219.11 149.37 216.82 150.34 215.26 Z" />
</g>
</svg>
