<?xml version="1.0" encoding="UTF-8" ?>
<!DOCTYPE svg PUBLIC "-//W3C//DTD SVG 1.1//EN" "http://www.w3.org/Graphics/SVG/1.1/DTD/svg11.dtd">
<svg width="250pt" height="200pt" viewBox="0 0 250 200" version="1.1" xmlns="http://www.w3.org/2000/svg"><g id="#4c4e4bff">
<path fill="#333333" opacity="1.00" d=" M 138.30 17.33 C 140.81 12.04 143.75 6.14 149.98 4.63 C 152.00 5.30 154.04 5.91 156.04 6.62 C 157.03 8.27 158.72 10.22 160.88 9.20 C 162.73 7.83 164.63 6.51 166.79 5.65 C 169.00 6.39 171.27 6.98 173.52 7.61 C 174.23 9.47 174.74 11.40 174.91 13.39 C 177.08 16.74 179.04 20.28 181.93 23.07 C 187.97 28.69 189.63 37.12 192.78 44.42 C 189.54 47.48 185.63 50.11 181.01 50.24 C 175.55 51.79 170.19 54.35 166.53 58.90 C 163.44 60.60 160.24 62.16 157.36 64.23 C 155.78 65.01 155.73 66.84 155.68 68.37 C 153.80 69.26 151.90 70.12 149.90 70.68 C 150.99 67.70 153.81 66.23 156.00 64.19 C 159.89 60.01 164.86 57.07 169.69 54.11 C 164.71 55.04 159.67 54.21 154.75 53.30 C 153.44 56.44 152.25 59.63 151.52 62.97 C 150.78 65.90 148.16 67.70 145.71 69.13 C 145.69 69.77 145.67 71.05 145.65 71.69 C 145.06 73.08 144.10 74.44 144.44 76.07 C 143.77 76.77 143.07 77.44 142.39 78.12 C 142.85 79.63 143.68 81.11 143.79 82.69 C 142.83 86.99 142.07 91.59 139.24 95.13 C 136.58 99.23 132.70 102.25 129.07 105.43 C 125.38 105.97 122.29 104.29 119.54 102.05 C 124.95 108.03 134.03 109.20 139.40 115.38 C 143.02 114.38 146.80 114.85 150.50 114.74 C 152.06 112.55 154.82 111.63 156.25 109.33 C 157.79 107.16 159.11 104.86 160.66 102.70 C 160.61 102.08 160.52 100.83 160.48 100.20 C 164.20 99.08 166.47 95.74 169.68 93.76 C 172.05 92.45 173.48 89.28 172.15 86.76 C 169.12 79.66 165.00 72.21 157.53 69.05 C 154.90 72.83 153.45 77.88 149.14 80.16 C 147.76 77.98 150.85 76.52 151.57 74.66 C 153.19 71.32 155.47 68.02 159.39 67.31 C 163.52 60.98 170.66 57.54 177.30 54.43 C 178.22 55.37 179.24 56.20 180.35 56.93 C 172.99 58.91 165.94 62.28 160.88 68.12 C 165.80 71.57 169.38 76.38 172.09 81.68 C 175.44 78.18 177.01 73.52 179.79 69.63 C 180.42 68.35 181.85 68.14 183.10 67.86 C 179.74 73.01 177.63 79.09 172.95 83.28 C 173.41 84.34 173.44 85.94 174.97 85.90 C 180.25 81.95 181.13 74.97 184.97 69.93 C 186.99 69.30 189.01 68.63 191.10 68.25 C 189.92 70.27 187.40 71.56 188.06 74.29 C 190.29 74.53 192.48 75.07 194.28 76.51 C 193.75 74.49 193.26 72.46 192.80 70.43 C 193.31 70.62 194.32 71.01 194.82 71.20 C 199.00 82.71 200.21 95.13 200.22 107.31 C 199.65 107.43 198.51 107.67 197.94 107.80 C 197.93 99.74 197.58 91.71 196.36 83.73 C 194.00 85.90 191.31 87.73 189.23 90.19 C 188.12 92.92 191.26 94.65 191.99 97.00 C 193.37 101.25 194.24 105.66 195.01 110.05 C 195.25 116.68 193.30 123.22 193.50 129.86 C 193.55 132.28 196.14 133.22 198.12 133.63 C 202.23 134.22 205.97 131.94 209.98 131.53 C 214.58 130.87 218.94 129.20 223.45 128.16 C 225.78 127.38 228.81 126.21 228.98 123.32 C 225.42 123.16 221.76 122.16 219.27 119.45 C 222.34 119.43 225.42 119.66 228.49 119.69 C 229.81 121.20 231.87 122.78 231.28 125.08 C 229.98 127.95 226.97 129.51 224.12 130.44 C 220.15 131.72 216.07 132.70 211.90 132.98 C 207.81 134.73 203.45 135.87 199.01 136.19 C 196.58 136.40 194.39 134.89 192.69 133.33 C 189.84 129.82 189.94 125.03 190.25 120.76 C 186.71 123.13 182.54 122.19 178.79 120.99 C 179.50 132.81 179.46 144.70 179.12 156.53 C 178.78 156.15 178.11 155.37 177.77 154.98 C 177.09 147.34 177.62 139.64 176.90 132.00 C 176.62 121.95 176.77 111.89 176.58 101.83 C 174.26 104.02 171.66 105.97 169.68 108.49 C 169.10 116.28 170.21 124.11 170.22 131.92 C 170.24 139.71 170.39 147.50 170.36 155.29 C 169.93 155.28 169.09 155.27 168.66 155.26 C 168.14 140.21 167.48 125.17 167.66 110.11 C 154.12 122.73 140.59 135.37 127.00 147.94 C 121.92 152.92 116.66 157.70 111.04 162.05 C 106.97 165.17 104.14 170.37 98.99 171.76 C 99.65 170.53 100.36 169.31 101.39 168.35 C 129.79 141.46 158.61 115.02 187.13 88.28 C 189.65 86.59 191.73 84.38 193.83 82.22 C 193.15 79.78 192.52 76.98 190.24 75.52 C 188.39 74.78 186.34 74.81 184.40 74.43 C 181.90 79.80 179.93 85.95 175.00 89.60 C 173.53 94.69 168.63 96.95 164.68 99.84 C 162.80 103.22 162.12 107.44 158.89 109.91 C 156.04 113.18 152.51 115.65 148.90 118.00 C 140.55 118.05 133.63 112.98 126.53 109.32 C 123.86 107.77 120.89 106.62 118.56 104.56 C 117.16 103.44 118.14 101.65 118.26 100.21 C 110.16 93.25 107.09 82.29 105.86 72.06 C 105.69 67.69 104.83 63.37 104.85 59.00 C 105.58 54.47 106.05 49.60 108.95 45.84 C 111.43 42.56 110.00 37.23 113.73 34.77 C 117.66 31.84 120.75 27.16 125.95 26.43 C 131.15 25.48 136.92 24.91 140.37 20.36 C 139.67 19.36 138.98 18.35 138.30 17.33 M 141.97 15.76 C 142.22 16.24 142.73 17.21 142.99 17.69 C 142.84 21.58 140.26 25.17 136.68 26.66 C 133.56 28.80 129.62 26.23 126.49 28.39 C 122.07 29.48 119.08 32.89 115.80 35.75 C 111.17 38.84 112.62 45.19 112.35 49.93 C 111.71 49.73 110.41 49.35 109.76 49.16 C 108.79 52.01 107.53 54.93 108.10 58.01 C 108.51 68.81 109.03 79.67 111.35 90.26 C 113.78 91.59 115.57 93.72 117.41 95.74 C 115.90 88.76 111.51 82.16 112.79 74.76 C 113.11 74.45 113.73 73.82 114.05 73.51 C 114.61 77.90 114.88 82.42 116.53 86.57 C 117.85 90.07 119.85 93.55 119.08 97.43 C 122.23 98.97 124.83 101.43 128.02 102.88 C 132.02 101.10 135.00 97.34 137.63 93.88 C 140.37 90.63 140.74 86.29 141.76 82.33 C 141.21 82.85 140.10 83.87 139.55 84.39 C 139.70 81.82 139.58 79.24 139.73 76.68 C 140.84 74.57 142.46 72.81 143.90 70.93 C 145.81 68.86 143.95 65.13 146.82 63.73 C 150.35 61.39 150.98 56.96 152.52 53.34 C 149.97 52.80 147.47 52.08 145.03 51.19 C 140.71 54.96 139.38 60.75 135.47 64.80 C 136.22 64.73 137.72 64.57 138.47 64.50 C 137.72 67.10 135.04 68.81 132.85 66.56 C 132.50 66.74 131.82 67.11 131.47 67.29 C 132.55 68.13 133.61 69.00 134.77 69.73 C 135.87 68.97 136.95 68.18 138.00 67.34 C 138.15 68.89 138.28 70.45 138.42 72.00 C 137.57 71.46 136.73 70.91 135.88 70.36 C 135.75 71.17 135.50 72.78 135.37 73.58 C 134.70 72.47 133.98 71.39 133.21 70.35 C 132.85 70.62 132.13 71.15 131.77 71.41 C 130.37 76.35 131.46 81.52 132.81 86.35 C 131.72 85.90 130.61 85.34 130.32 84.08 C 127.24 78.50 130.09 71.82 127.38 66.12 C 130.55 64.89 133.26 62.82 136.08 60.97 C 137.28 56.61 139.92 52.71 142.97 49.42 C 141.50 49.02 140.04 48.63 138.57 48.26 C 138.24 48.75 137.59 49.73 137.27 50.22 C 136.65 50.35 135.43 50.59 134.82 50.72 C 132.28 51.54 129.61 51.65 126.96 51.60 C 127.08 50.63 127.19 49.67 127.31 48.70 C 130.10 49.18 132.96 49.02 135.67 48.21 C 135.57 47.59 135.36 46.34 135.25 45.72 C 140.68 45.93 146.25 45.18 151.54 46.78 C 149.09 47.28 146.60 47.57 144.14 48.03 C 150.30 51.58 157.63 51.78 164.55 51.86 C 169.30 52.08 173.38 49.26 177.94 48.48 C 181.96 47.72 185.93 46.57 189.63 44.82 C 191.81 42.81 189.26 40.71 188.26 38.90 C 187.01 35.46 186.52 31.67 184.38 28.61 C 182.31 25.48 179.11 23.36 176.76 20.48 C 174.58 16.94 173.77 12.78 172.01 9.05 C 169.65 9.12 167.29 9.16 164.93 9.12 C 162.01 11.17 160.29 14.40 159.28 17.74 C 160.98 19.87 163.77 20.17 166.21 20.84 C 167.92 23.62 170.10 26.06 172.01 28.69 C 172.66 31.67 172.10 34.81 172.18 37.85 C 170.73 38.41 169.28 38.97 167.84 39.53 C 167.90 38.05 168.14 36.62 169.74 36.08 C 166.79 34.24 162.65 33.10 159.74 35.66 C 157.85 36.93 158.84 39.10 158.93 40.92 C 155.82 38.80 155.58 34.33 152.13 32.64 C 149.91 30.87 147.02 31.72 144.44 31.79 C 143.12 30.03 141.68 28.37 140.14 26.80 C 141.83 27.98 143.55 29.10 145.34 30.12 C 145.23 29.38 145.00 27.89 144.89 27.15 C 146.45 25.63 147.87 23.97 149.52 22.53 C 148.59 24.74 147.20 26.73 145.45 28.36 C 147.41 29.55 149.76 29.49 151.84 30.33 C 153.47 31.24 154.44 32.92 155.72 34.21 C 155.76 31.83 154.98 28.99 156.98 27.13 C 157.22 29.11 157.37 31.10 157.47 33.09 C 157.06 33.64 156.24 34.72 155.84 35.27 C 160.45 34.47 164.85 31.79 169.65 33.28 C 169.69 30.81 169.31 28.32 168.09 26.15 C 166.41 22.26 161.52 22.20 158.17 20.46 C 157.63 17.32 157.53 13.81 159.33 11.04 C 159.17 11.05 158.84 11.09 158.68 11.10 C 158.44 11.47 157.97 12.21 157.74 12.58 C 153.73 11.05 149.47 12.59 146.35 15.23 C 145.67 18.13 142.30 14.35 145.01 14.02 C 147.92 10.89 151.84 9.32 156.07 9.15 C 153.82 7.18 150.75 7.92 148.10 8.35 C 144.85 9.56 144.07 13.36 141.97 15.76 M 177.87 101.72 C 178.75 101.16 180.50 100.05 181.38 99.49 C 181.47 103.34 181.74 107.26 180.40 110.95 C 179.38 113.54 180.15 116.24 181.03 118.74 C 184.84 118.71 190.09 118.31 191.38 113.94 C 192.27 106.57 190.92 98.52 186.48 92.43 C 183.73 95.64 179.84 97.89 177.87 101.72 Z" />
<path fill="#333333" opacity="1.00" d=" M 128.42 39.22 C 129.68 37.68 131.20 36.40 132.79 35.22 C 133.06 35.46 133.60 35.93 133.87 36.17 C 131.82 37.27 130.32 39.04 128.99 40.91 C 128.85 40.49 128.56 39.64 128.42 39.22 Z" />
<path fill="#333333" opacity="1.00" d=" M 142.22 38.49 C 143.26 36.92 144.46 35.22 146.58 35.28 C 145.74 37.12 144.84 38.94 143.94 40.75 C 142.09 40.72 140.24 40.69 138.39 40.60 C 139.28 39.26 140.70 38.73 142.22 38.49 Z" />
<path fill="#333333" opacity="1.00" d=" M 118.29 44.28 C 119.54 42.91 121.22 42.05 122.80 41.11 C 120.17 46.25 116.75 51.18 115.91 57.02 C 115.57 61.36 113.53 65.27 112.45 69.43 C 112.23 60.79 113.44 51.65 118.29 44.28 Z" />
<path fill="#333333" opacity="1.00" d=" M 163.65 42.78 C 168.25 42.30 172.95 42.79 177.39 44.13 C 174.36 46.46 170.38 44.80 166.95 44.63 C 165.37 47.47 162.35 49.52 159.12 47.83 C 161.04 46.32 164.34 45.98 163.65 42.78 Z" />
<path fill="#333333" opacity="1.00" d=" M 120.30 56.39 C 121.73 51.96 122.99 45.72 128.43 44.82 C 126.89 47.53 124.82 49.94 123.60 52.84 C 122.65 55.03 121.16 57.01 119.16 58.34 C 118.74 58.10 117.89 57.63 117.47 57.39 C 118.18 57.14 119.60 56.64 120.30 56.39 Z" />
<path fill="#333333" opacity="1.00" d=" M 180.16 52.69 C 179.14 50.92 181.80 50.66 182.92 50.74 C 187.27 50.64 192.37 49.88 195.86 53.10 C 200.80 56.82 199.98 63.67 201.88 68.96 C 202.37 75.83 205.26 82.18 206.51 88.88 C 206.70 96.63 206.19 104.54 208.62 112.03 C 212.24 115.31 216.71 117.55 220.53 120.61 C 216.94 118.64 213.12 117.18 209.38 115.56 C 205.70 113.91 205.62 109.40 204.67 106.03 C 202.37 99.20 204.94 91.95 203.24 85.03 C 202.34 79.12 200.02 73.56 199.14 67.65 C 197.74 66.19 195.20 68.07 194.23 65.90 C 193.59 64.64 194.69 64.63 195.62 64.56 C 196.53 66.01 197.38 66.19 198.16 65.10 C 199.23 59.33 194.96 53.14 189.05 52.63 C 186.11 52.59 182.87 54.46 180.16 52.69 Z" />
<path fill="#333333" opacity="1.00" d=" M 185.74 56.10 C 187.14 55.86 188.54 55.65 189.96 55.52 C 188.27 59.51 182.21 58.91 180.78 55.11 C 182.44 55.39 184.10 55.73 185.74 56.10 Z" />
<path fill="#333333" opacity="1.00" d=" M 142.61 55.87 C 143.33 55.50 144.77 54.74 145.49 54.37 C 145.40 57.60 144.65 60.75 143.92 63.88 C 140.47 62.50 142.58 58.62 142.61 55.87 Z" />
<path fill="#333333" opacity="1.00" d=" M 184.35 66.68 C 185.89 65.67 188.14 61.93 189.73 64.93 C 188.34 66.40 186.37 67.96 184.35 66.68 Z" />
<path fill="#333333" opacity="1.00" d=" M 144.15 78.42 C 146.01 76.40 147.78 74.29 149.19 71.92 C 149.62 72.07 150.48 72.37 150.91 72.52 C 149.45 75.36 148.36 79.54 144.15 78.42 Z" />
<path fill="#333333" opacity="1.00" d=" M 123.13 74.19 C 126.17 77.28 127.24 81.71 128.39 85.76 C 124.93 82.99 123.54 78.45 123.13 74.19 Z" />
<path fill="#333333" opacity="1.00" d=" M 144.51 81.15 C 148.09 84.11 148.78 88.99 150.35 93.11 C 149.67 93.13 148.31 93.17 147.64 93.19 C 146.34 95.90 146.32 99.88 143.09 101.08 C 143.57 97.10 145.75 93.65 146.68 89.81 C 146.39 86.84 144.55 84.20 144.51 81.15 Z" />
<path fill="#333333" opacity="1.00" d=" M 147.74 81.41 C 150.27 84.08 152.96 86.79 154.56 90.14 C 154.24 90.54 153.61 91.35 153.30 91.76 C 153.18 94.90 153.19 98.04 153.17 101.18 C 152.58 101.18 151.41 101.18 150.82 101.18 C 150.79 96.80 150.72 92.43 150.80 88.06 C 149.23 86.12 147.05 84.20 147.74 81.41 Z" />
<path fill="#333333" opacity="1.00" d=" M 197.77 117.82 C 198.35 117.82 199.51 117.82 200.09 117.82 C 200.18 119.70 200.28 121.58 200.42 123.46 C 202.02 123.54 203.63 123.61 205.24 123.69 L 205.31 125.41 C 203.27 125.37 201.23 125.45 199.22 125.15 C 196.84 123.46 198.09 120.25 197.77 117.82 Z" />
</g>
</svg>
