<?xml version="1.0" encoding="UTF-8" ?>
<!DOCTYPE svg PUBLIC "-//W3C//DTD SVG 1.1//EN" "http://www.w3.org/Graphics/SVG/1.1/DTD/svg11.dtd">
<svg width="172pt" height="275pt" viewBox="0 0 172 275" version="1.1" xmlns="http://www.w3.org/2000/svg"><g id="#232522ff">
<path fill="#333333" opacity="1.00" d=" M 18.56 17.23 C 19.95 21.68 19.25 26.39 19.46 30.96 C 19.45 36.06 20.91 41.10 20.09 46.19 C 23.19 45.73 26.34 45.29 29.47 45.82 C 28.61 39.14 28.48 32.41 28.42 25.69 C 29.97 32.36 30.37 39.21 30.81 46.03 C 31.44 46.94 32.67 47.62 32.60 48.87 C 32.84 52.42 32.86 55.99 33.10 59.55 C 35.59 59.31 38.21 59.69 40.60 58.97 C 41.25 57.52 41.77 56.01 42.31 54.51 C 45.47 53.53 48.74 52.90 52.03 52.49 C 55.36 52.00 57.87 54.67 60.71 55.91 C 60.50 56.15 60.09 56.64 59.88 56.88 C 59.11 56.85 57.57 56.78 56.80 56.74 C 56.35 55.91 55.90 55.09 55.46 54.26 C 52.63 54.03 49.79 54.25 46.96 54.14 C 44.09 55.42 42.37 58.02 41.50 60.96 C 41.53 63.17 43.30 64.81 44.31 66.65 C 44.94 66.88 46.21 67.34 46.84 67.57 C 48.14 67.21 49.42 66.81 50.69 66.35 C 51.81 64.97 51.96 63.05 52.68 61.46 C 53.61 58.08 57.87 59.54 60.46 59.03 L 59.92 59.74 L 60.49 60.19 C 58.68 60.68 56.85 61.10 55.01 61.43 C 54.46 63.30 53.94 65.18 53.40 67.05 C 57.22 67.90 61.09 67.79 64.96 67.45 C 66.43 67.09 67.24 68.38 68.14 69.24 C 67.35 69.13 65.75 68.93 64.95 68.82 C 68.29 74.96 72.85 80.35 76.08 86.55 C 77.16 89.09 76.99 92.11 78.78 94.35 C 81.23 97.93 85.10 100.69 85.61 105.33 C 87.91 106.83 90.34 108.11 92.86 109.20 C 94.32 111.27 95.53 113.54 97.14 115.51 C 98.58 116.09 100.06 116.56 101.58 116.92 C 100.54 113.78 97.20 111.50 97.66 107.90 C 99.41 101.63 104.22 96.51 110.06 93.80 C 113.46 92.51 116.70 94.84 119.40 96.65 C 122.73 98.89 124.15 102.84 125.38 106.47 C 125.58 109.69 124.69 113.20 122.00 115.22 C 119.57 117.67 120.61 121.53 120.49 124.64 C 123.88 127.96 125.99 132.41 129.85 135.28 C 130.70 137.72 131.94 140.10 132.25 142.69 C 131.75 145.97 130.87 149.26 129.19 152.16 C 127.40 155.32 126.31 159.02 123.51 161.49 C 121.08 164.12 117.53 165.04 114.42 166.54 C 112.76 170.31 110.81 173.94 108.58 177.41 C 109.67 180.23 110.94 183.00 111.52 185.99 C 111.10 188.18 110.08 190.20 109.41 192.32 C 108.28 197.41 103.72 201.31 98.89 202.82 C 96.31 203.90 93.95 201.84 91.76 200.75 C 89.45 200.83 87.00 201.53 84.86 200.31 C 86.15 206.93 85.16 214.23 88.80 220.24 C 90.92 223.61 91.94 227.96 90.32 231.74 C 86.04 233.74 82.49 236.88 79.44 240.45 C 73.01 242.52 65.65 242.07 60.25 237.69 C 61.79 234.26 64.56 231.53 67.79 229.68 C 70.68 227.99 71.56 224.55 73.27 221.89 C 75.38 218.76 73.42 214.99 72.40 211.84 C 70.69 206.45 66.06 202.63 64.51 197.19 C 63.59 194.68 63.99 191.82 62.67 189.44 C 61.45 187.11 60.63 184.60 60.04 182.04 C 59.61 184.28 58.93 186.46 58.23 188.63 C 55.91 188.85 53.62 188.46 51.44 187.67 C 52.70 185.41 55.46 186.42 57.52 186.04 C 57.83 184.01 58.02 181.96 58.14 179.91 C 58.54 179.85 59.35 179.71 59.76 179.64 C 58.76 176.84 57.33 173.95 58.34 170.92 C 57.90 170.43 57.46 169.96 57.02 169.48 C 56.54 166.53 55.82 163.43 53.85 161.09 C 51.42 158.50 47.82 157.69 44.73 156.20 C 41.81 154.59 38.49 155.96 35.93 157.60 C 34.35 157.72 32.77 157.84 31.19 157.97 C 28.89 161.22 27.03 164.87 26.45 168.85 C 28.22 171.20 28.39 174.16 29.23 176.87 C 30.71 178.95 32.58 180.95 32.39 183.72 C 34.08 187.24 35.45 190.96 37.83 194.11 C 41.13 198.74 46.00 202.75 46.43 208.85 C 44.77 210.84 43.00 212.80 41.87 215.16 C 39.39 220.45 32.42 221.99 30.68 227.78 C 33.19 227.69 35.70 227.50 38.19 227.16 C 43.55 229.30 46.18 223.01 50.73 221.73 C 53.33 220.51 56.26 220.53 58.98 219.75 C 60.60 218.89 61.86 217.50 63.31 216.41 C 62.51 211.95 58.85 209.16 56.24 205.79 C 53.76 201.85 50.61 197.91 50.30 193.07 C 49.21 184.38 43.63 177.19 37.51 171.30 C 43.60 173.18 46.82 179.20 49.66 184.43 C 50.94 188.30 52.55 192.07 53.28 196.10 C 55.52 201.43 59.26 205.97 63.03 210.29 C 64.51 212.22 64.90 214.70 65.61 216.96 C 63.39 219.54 60.83 222.74 57.05 222.55 C 54.49 222.53 52.13 223.53 49.90 224.69 C 48.32 226.56 46.49 228.24 44.35 229.45 C 41.27 229.58 38.16 229.10 35.11 229.79 C 32.88 230.36 30.63 229.43 28.85 228.14 C 27.65 226.75 28.68 224.92 28.83 223.35 C 31.00 221.48 33.18 219.57 35.98 218.70 C 38.76 215.63 40.83 211.96 43.97 209.21 C 42.24 201.63 35.27 197.02 32.71 189.84 C 31.48 186.33 29.52 183.09 28.64 179.47 C 25.05 175.12 25.18 169.25 25.13 163.93 C 26.73 161.70 28.05 159.15 30.16 157.37 C 33.41 156.14 36.80 155.19 40.21 154.51 C 45.80 154.31 50.60 157.86 56.10 158.35 C 56.19 159.59 56.24 160.84 56.38 162.08 C 59.16 163.69 58.04 167.50 59.75 169.90 C 59.40 166.62 62.01 165.17 64.38 163.80 C 61.94 163.00 59.58 162.00 57.34 160.76 C 57.35 160.42 57.38 159.74 57.39 159.41 C 62.24 160.73 66.74 163.36 71.83 163.66 C 74.41 163.89 76.85 164.80 79.18 165.89 C 79.22 164.08 79.25 162.27 79.38 160.46 C 80.22 162.44 81.02 164.44 81.91 166.40 L 82.84 165.26 C 83.21 166.71 83.00 168.53 84.38 169.51 C 90.00 175.07 91.81 183.35 91.01 191.02 C 91.33 194.83 87.78 197.02 85.60 199.55 C 89.40 198.79 93.38 198.58 96.35 201.47 C 99.12 200.41 102.06 199.36 104.11 197.10 C 106.32 195.24 106.86 192.31 107.96 189.79 C 110.24 185.32 106.95 180.79 106.31 176.33 C 104.01 176.17 101.71 175.91 99.42 175.65 C 99.64 176.00 100.10 176.68 100.32 177.03 C 102.68 177.53 105.16 178.80 105.32 181.55 C 104.37 180.72 103.46 179.87 102.57 178.98 C 101.58 178.69 100.59 178.40 99.59 178.11 C 99.13 177.15 98.66 176.20 98.13 175.28 C 95.46 174.31 92.85 173.14 90.46 171.59 C 87.87 169.85 84.14 169.11 83.20 165.71 C 86.93 167.67 90.83 169.26 94.46 171.43 C 97.66 173.38 101.52 173.25 104.97 174.50 C 105.79 174.47 107.42 174.42 108.23 174.39 C 108.73 172.89 109.22 171.38 109.73 169.88 C 104.97 171.30 100.78 167.97 97.52 164.94 C 93.16 166.23 87.75 167.43 83.95 164.13 C 77.32 159.67 78.09 149.75 81.86 143.63 C 80.84 141.34 79.72 139.10 78.69 136.83 C 79.75 135.14 81.15 133.67 82.12 131.92 C 82.48 129.98 82.72 128.02 83.16 126.10 C 80.12 123.78 77.21 121.28 74.54 118.55 C 70.73 113.27 67.31 107.53 65.91 101.09 C 64.07 97.88 62.04 94.72 61.05 91.12 C 60.34 88.41 58.01 86.57 57.12 83.95 C 55.62 79.40 54.90 74.63 54.56 69.85 C 50.68 69.19 46.76 69.71 42.86 69.85 C 39.78 69.68 36.68 69.68 33.62 70.10 C 33.83 74.60 33.70 79.10 33.69 83.61 C 33.03 83.71 31.71 83.91 31.06 84.02 C 31.19 84.49 31.47 85.43 31.60 85.90 C 30.67 89.57 31.74 93.29 31.68 97.00 C 31.63 104.65 32.60 112.34 31.64 119.96 C 29.54 109.57 31.11 98.83 29.57 88.36 C 29.89 87.45 30.53 85.62 30.85 84.71 C 27.78 85.17 24.69 84.75 21.62 84.80 C 21.50 89.06 21.39 93.32 21.54 97.58 L 19.96 97.73 C 19.32 92.96 21.66 87.02 17.64 83.33 C 17.94 74.02 16.82 64.72 17.36 55.40 C 18.24 64.56 18.93 73.75 19.25 82.94 C 23.39 84.16 28.39 84.47 31.75 81.29 C 31.84 77.61 31.88 73.92 31.67 70.25 C 29.94 69.88 28.17 69.81 26.45 69.38 C 23.68 66.80 24.60 62.71 26.56 59.95 C 28.17 59.96 29.78 59.96 31.39 59.97 C 30.88 56.15 30.83 52.29 30.66 48.45 C 26.17 45.70 21.19 48.35 16.43 48.52 C 16.89 47.71 17.80 46.10 18.25 45.29 C 18.84 35.96 16.86 26.53 18.56 17.23 M 26.93 62.12 C 25.71 64.34 26.03 66.74 27.46 68.79 C 32.85 68.65 38.25 68.06 43.64 68.67 C 41.77 66.67 40.67 64.17 39.72 61.64 C 35.48 62.18 31.20 62.04 26.93 62.12 M 56.10 69.52 C 56.57 72.36 56.94 75.22 56.85 78.10 C 57.01 82.03 59.55 85.22 61.76 88.27 C 63.41 90.30 63.52 93.01 64.43 95.36 C 65.68 97.22 67.14 98.92 68.32 100.83 C 70.56 97.37 69.31 93.01 70.15 89.16 C 71.46 86.34 71.67 90.60 72.28 91.57 C 73.01 91.47 74.46 91.27 75.18 91.16 C 73.98 82.89 67.98 76.58 64.01 69.52 C 61.37 69.57 58.73 69.53 56.10 69.52 M 72.74 91.96 C 72.55 94.59 72.00 97.17 71.25 99.69 C 75.41 98.78 74.01 103.69 74.77 106.03 C 76.26 109.44 79.41 111.77 82.44 113.74 C 82.68 114.47 83.16 115.93 83.40 116.66 C 82.97 117.42 82.54 118.18 82.10 118.93 C 81.77 117.52 81.42 116.12 81.07 114.73 C 76.02 111.32 72.49 105.85 71.50 99.82 C 70.43 100.51 69.35 101.19 68.32 101.93 C 69.48 105.52 71.39 108.84 72.23 112.55 C 75.10 117.64 79.89 121.10 84.10 125.00 C 84.97 122.59 86.19 120.34 87.36 118.07 C 87.50 116.21 87.36 114.35 87.41 112.49 C 89.69 114.23 90.18 117.44 88.89 119.94 C 87.38 122.73 86.33 125.79 86.46 129.01 C 89.02 127.55 91.82 125.95 94.75 127.55 C 97.80 126.81 101.17 126.21 103.99 128.04 C 107.62 129.28 109.71 132.57 112.15 135.28 C 112.80 139.23 112.67 143.34 111.03 147.05 C 112.30 146.38 113.58 145.73 114.87 145.12 C 114.12 141.71 114.36 137.80 117.41 135.56 C 117.21 138.57 115.52 141.55 116.85 144.52 C 118.32 145.10 119.74 145.82 120.97 146.83 C 118.57 147.22 116.00 146.87 113.70 147.76 C 111.09 149.35 109.42 152.07 106.94 153.84 C 102.72 149.02 96.40 146.76 92.57 141.56 C 91.84 140.33 90.06 139.13 90.77 137.53 C 91.82 134.52 92.92 131.48 92.36 128.22 C 87.93 129.47 84.45 132.28 81.39 135.60 C 82.39 138.44 83.51 141.24 84.43 144.11 C 90.17 147.55 91.50 154.71 95.07 159.89 C 98.47 163.02 102.41 165.54 106.12 168.26 C 110.48 168.34 113.80 165.10 117.72 163.70 C 121.27 162.44 123.75 159.29 125.11 155.89 C 126.50 152.47 128.81 149.49 129.98 145.98 C 131.05 142.37 129.42 138.78 128.00 135.53 C 123.14 133.39 122.35 127.49 118.16 124.53 C 118.26 122.06 117.81 119.51 118.51 117.11 C 120.19 114.41 123.35 112.44 123.33 108.92 C 124.59 102.08 117.99 94.53 111.01 95.83 C 105.49 97.65 102.05 102.71 99.38 107.56 C 99.27 109.57 99.78 111.48 101.16 112.99 C 103.61 116.15 103.93 120.22 103.15 124.03 C 102.57 124.29 101.42 124.80 100.84 125.06 C 100.99 123.22 101.14 121.38 101.29 119.54 C 99.40 118.86 97.43 118.32 95.67 117.33 C 93.33 115.61 92.87 112.15 90.18 110.79 C 87.44 109.31 84.59 107.98 82.58 105.50 C 81.04 100.15 78.16 94.20 72.74 91.96 M 94.53 129.26 C 95.65 132.62 94.15 135.72 92.13 138.34 C 93.58 140.10 94.93 141.95 96.65 143.45 C 99.90 146.66 104.71 147.68 107.54 151.40 C 109.57 147.96 110.05 143.92 110.65 140.04 C 111.01 136.14 108.30 132.85 105.47 130.52 C 102.31 128.13 98.17 129.15 94.53 129.26 M 82.80 144.93 C 81.13 150.00 80.21 155.53 82.52 160.58 C 84.48 162.18 86.55 163.64 88.88 164.66 C 91.20 164.36 93.52 164.07 95.84 163.83 C 94.66 162.66 93.50 161.47 92.36 160.26 C 91.31 160.54 89.21 161.10 88.16 161.38 L 87.40 162.44 C 87.10 160.08 90.34 160.46 91.74 159.72 C 89.44 154.43 86.82 149.14 82.80 144.93 M 61.29 169.26 C 58.20 173.50 61.90 177.93 62.81 182.21 C 63.57 186.36 66.17 189.85 66.94 193.98 C 67.70 197.25 68.39 200.77 70.90 203.20 C 74.43 208.77 74.69 215.58 75.78 221.90 C 75.43 222.24 74.74 222.92 74.39 223.26 C 73.23 225.99 72.50 229.20 69.99 231.07 C 67.55 233.04 64.32 234.43 63.31 237.68 C 67.53 239.46 72.40 240.68 76.79 238.68 C 78.72 238.10 79.51 236.06 80.96 234.84 C 83.09 232.94 85.71 231.71 88.03 230.07 C 87.92 226.96 87.87 223.71 86.29 220.92 C 83.49 215.47 82.58 209.27 83.06 203.22 C 81.94 196.00 79.46 188.82 74.83 183.08 C 73.27 181.49 74.03 179.28 74.35 177.38 C 74.69 177.54 75.36 177.88 75.70 178.04 C 75.63 178.66 75.49 179.91 75.42 180.53 C 79.78 185.89 83.16 192.20 84.41 199.05 C 86.00 195.86 88.31 192.76 87.93 188.98 C 88.22 180.53 85.87 169.70 76.78 166.71 C 71.69 165.20 64.57 163.83 61.29 169.26 Z" />
<path fill="#333333" opacity="1.00" d=" M 104.22 112.33 C 107.52 113.69 110.89 114.98 114.54 114.29 C 111.44 117.90 106.87 114.93 104.22 112.33 Z" />
<path fill="#333333" opacity="1.00" d=" M 106.45 124.71 C 107.75 121.05 111.11 118.74 114.63 117.49 C 112.40 120.39 109.36 122.54 106.45 124.71 Z" />
<path fill="#333333" opacity="1.00" d=" M 83.11 119.04 C 83.46 118.96 84.14 118.78 84.48 118.70 L 84.55 119.65 L 83.74 120.22 C 83.58 119.92 83.27 119.33 83.11 119.04 Z" />
<path fill="#333333" opacity="1.00" d=" M 106.38 128.14 C 109.52 128.32 112.65 128.80 115.66 129.71 C 112.67 131.44 109.31 128.89 106.38 128.14 Z" />
<path fill="#333333" opacity="1.00" d=" M 105.94 143.78 C 107.16 140.63 106.66 137.24 106.88 133.96 C 110.47 137.64 108.06 143.55 105.66 147.25 C 105.46 146.08 105.47 144.89 105.94 143.78 Z" />
<path fill="#333333" opacity="1.00" d=" M 111.95 162.22 C 112.66 159.05 115.51 157.24 118.00 155.52 C 118.83 157.17 119.67 158.81 120.52 160.44 C 118.79 160.29 117.61 159.02 116.53 157.82 C 115.12 159.41 113.71 161.01 111.95 162.22 Z" />
</g>
</svg>
