<?xml version="1.0" encoding="UTF-8" ?>
<!DOCTYPE svg PUBLIC "-//W3C//DTD SVG 1.1//EN" "http://www.w3.org/Graphics/SVG/1.1/DTD/svg11.dtd">
<svg width="156pt" height="250pt" viewBox="0 0 156 250" version="1.1" xmlns="http://www.w3.org/2000/svg"><g id="#2d2e2eff">
<path fill="#333333" opacity="1.00" d=" M 104.05 23.53 C 108.77 22.07 113.91 23.56 117.92 26.13 C 121.17 30.18 122.40 35.82 121.21 40.87 C 119.57 46.30 120.97 52.27 123.92 56.99 C 126.07 60.73 129.61 63.60 130.88 67.85 C 132.38 71.36 132.18 75.19 131.90 78.91 C 131.77 88.52 131.12 98.65 126.46 107.25 C 125.35 110.28 124.89 113.96 122.18 116.05 C 120.05 116.56 117.83 116.53 115.66 116.78 C 116.48 119.57 118.53 121.66 119.98 124.10 C 120.46 127.30 119.87 130.54 119.61 133.73 C 124.86 136.46 129.62 142.16 127.37 148.41 C 121.67 152.18 114.91 153.74 108.12 153.66 C 107.81 161.12 108.49 168.61 107.66 176.05 C 107.62 178.88 107.20 181.95 108.25 184.62 C 112.28 187.90 116.83 190.74 119.87 195.06 C 121.65 197.64 123.80 199.93 126.19 201.95 C 126.19 205.45 126.14 208.96 126.21 212.46 C 121.30 214.49 114.51 215.86 110.44 211.49 C 105.78 206.84 100.96 202.12 98.00 196.15 C 88.12 198.22 78.50 201.96 68.25 201.72 C 69.16 201.39 70.98 200.73 71.89 200.40 C 69.37 200.20 66.86 199.95 64.35 199.63 C 66.20 201.59 67.99 203.62 69.58 205.80 C 69.61 207.13 69.66 208.46 69.73 209.79 C 68.03 211.29 66.71 213.98 64.10 213.72 C 61.29 213.80 58.47 213.72 55.67 213.91 C 53.20 210.98 51.14 207.74 49.32 204.38 C 48.99 204.18 48.33 203.77 48.00 203.57 C 44.50 206.88 39.42 207.38 34.91 208.28 C 23.20 209.92 11.80 213.51 0.00 214.47 L 0.00 211.06 L 0.07 211.93 C 4.00 211.25 7.93 210.57 11.82 209.72 C 22.11 207.30 32.63 206.10 43.01 204.18 C 44.88 203.83 46.67 203.19 48.42 202.45 C 45.16 199.79 42.50 196.51 40.00 193.15 C 31.55 193.62 23.10 194.67 14.84 196.54 C 9.93 197.61 4.86 197.88 0.00 199.22 L 0.00 197.46 C 12.49 195.24 24.94 192.69 37.57 191.55 C 34.38 188.16 31.01 184.78 29.23 180.38 C 33.52 184.22 37.35 188.55 41.88 192.13 C 47.13 198.14 52.53 204.17 55.89 211.51 C 60.12 211.06 64.95 211.36 68.17 208.02 C 66.14 204.94 64.26 201.73 61.93 198.87 C 59.23 196.97 55.69 197.52 52.71 196.33 C 50.71 195.16 49.23 193.30 47.73 191.58 C 50.58 192.90 53.14 194.77 55.97 196.12 C 59.76 196.42 63.54 196.83 67.21 197.86 C 69.55 198.75 71.77 197.27 73.96 196.64 C 74.85 191.43 73.54 186.23 71.50 181.46 C 68.82 173.08 72.84 164.48 71.80 155.99 C 71.31 150.65 68.71 145.70 68.77 140.27 C 69.95 139.06 71.08 137.82 72.22 136.57 C 72.25 137.06 72.30 138.04 72.32 138.53 C 75.80 138.20 79.72 137.91 82.69 140.12 C 84.77 141.77 87.33 142.56 89.98 142.52 C 92.05 142.82 94.74 142.18 95.48 139.97 C 97.27 134.70 95.70 129.04 93.89 123.99 C 93.69 124.74 93.30 126.24 93.10 126.99 C 88.71 127.51 84.33 128.28 79.91 128.60 C 74.19 128.23 70.95 123.15 66.43 120.41 C 62.52 121.14 58.11 122.43 56.55 126.56 C 54.96 135.08 57.46 143.59 58.15 152.08 C 58.81 162.57 62.12 172.74 62.33 183.27 C 56.77 184.78 50.85 184.19 45.48 182.25 C 44.10 183.04 42.73 183.84 41.33 184.59 C 41.94 183.12 42.63 181.71 43.34 180.30 C 37.54 181.24 33.50 176.06 29.26 173.00 C 29.63 171.93 30.01 170.85 30.39 169.78 C 35.89 169.00 42.36 170.82 46.98 166.95 C 31.22 166.45 15.69 169.75 0.00 170.68 L 0.00 168.48 C 18.94 166.11 38.03 165.57 56.95 163.03 C 56.38 159.68 55.82 156.34 55.28 152.99 C 42.18 153.92 29.09 155.16 15.99 156.13 C 10.65 156.30 5.30 156.51 0.00 157.29 L 0.00 154.61 C 14.58 154.54 29.10 152.88 43.65 151.99 C 42.71 149.43 41.73 146.83 41.75 144.07 C 41.86 136.42 39.47 129.04 37.00 121.90 C 36.23 119.86 37.19 117.80 37.73 115.85 C 39.53 111.20 39.02 106.06 38.05 101.29 C 39.48 99.98 40.78 98.50 42.41 97.42 C 44.07 96.89 45.83 96.79 47.50 96.31 C 49.67 92.85 47.71 88.27 49.88 84.81 C 52.31 82.70 55.29 81.25 57.38 78.74 C 58.75 78.68 60.11 78.63 61.48 78.58 C 62.26 79.94 62.97 81.33 63.62 82.76 C 66.02 85.62 67.74 89.49 71.74 90.37 C 73.35 90.87 74.95 91.36 76.60 91.72 C 77.12 89.72 77.60 87.71 78.05 85.70 C 80.55 84.73 83.15 85.17 85.47 86.42 C 86.34 84.63 87.21 82.85 88.11 81.07 C 87.45 79.94 86.79 78.83 86.12 77.71 C 88.59 73.14 91.15 68.55 94.46 64.52 C 96.96 61.38 101.48 58.37 105.14 61.60 C 105.02 59.40 104.90 57.20 104.73 54.99 C 102.47 54.33 99.08 54.71 98.09 51.98 C 96.04 47.30 95.24 42.14 94.88 37.07 C 94.40 31.29 97.80 24.34 104.05 23.53 M 99.26 29.26 C 96.65 34.39 96.83 40.52 97.96 46.03 C 98.74 49.39 100.81 53.92 105.05 52.93 C 110.02 52.56 112.02 47.47 114.36 43.85 C 115.07 49.15 110.48 53.22 105.89 54.77 C 106.44 56.50 106.91 58.25 107.33 60.02 C 109.05 60.38 110.76 60.81 112.47 61.28 C 115.49 58.98 119.34 59.21 122.70 60.61 C 122.93 62.92 120.33 62.42 118.86 62.28 C 115.99 61.64 113.73 63.87 111.40 65.14 C 111.56 64.66 111.88 63.70 112.05 63.21 C 110.13 62.90 108.18 61.65 106.23 62.20 C 104.08 63.67 102.17 65.49 99.87 66.75 C 100.59 65.05 101.68 63.56 103.02 62.28 C 101.61 62.10 100.21 61.91 98.81 61.70 C 94.59 66.25 91.78 71.83 88.13 76.82 C 88.83 78.22 89.53 79.61 90.26 80.99 C 88.17 83.91 86.65 87.26 87.13 90.94 C 85.83 90.86 84.52 90.84 83.25 91.15 C 84.83 91.84 86.45 92.47 88.08 93.06 C 88.11 93.70 88.18 94.99 88.21 95.64 C 89.93 97.14 91.40 99.42 93.86 99.66 C 99.92 101.17 105.70 97.54 111.80 98.56 C 113.21 96.26 112.40 93.51 112.48 90.98 C 112.36 88.31 112.80 85.66 112.78 83.00 C 109.85 84.57 106.92 86.15 103.70 87.06 C 100.30 85.99 97.06 84.48 93.73 83.24 C 93.73 82.84 93.73 82.05 93.73 81.66 C 97.24 81.71 100.20 83.63 103.11 85.35 C 105.89 84.37 108.61 83.24 111.16 81.79 C 111.58 81.77 112.41 81.73 112.82 81.72 C 114.87 79.13 108.37 77.39 111.64 74.35 C 113.22 75.82 114.95 77.18 116.18 78.97 C 116.71 82.80 113.90 86.13 114.16 89.95 C 113.66 93.26 116.43 95.44 118.03 97.95 C 116.56 97.35 115.12 96.70 113.65 96.10 C 114.47 97.24 115.32 98.34 116.22 99.41 C 111.85 98.86 107.59 99.77 103.48 101.22 C 99.23 102.79 94.59 102.02 90.42 100.65 C 86.37 99.21 85.00 94.66 81.70 92.24 C 79.93 92.41 78.15 92.52 76.38 92.61 C 75.10 93.81 73.67 94.85 72.45 96.11 C 71.76 98.81 71.06 101.52 70.14 104.15 C 70.94 105.29 71.21 107.00 72.56 107.62 C 75.11 108.06 77.66 108.52 80.16 109.23 C 80.80 109.08 82.10 108.77 82.74 108.62 C 84.47 110.15 86.88 109.72 88.98 109.96 C 93.30 109.95 97.28 111.76 101.12 113.53 C 107.57 116.57 114.79 114.20 121.60 114.74 C 123.36 111.29 124.06 107.36 126.28 104.11 C 130.22 94.92 129.63 84.70 130.49 74.94 C 130.36 68.75 126.78 63.56 123.22 58.79 C 119.99 54.57 119.16 49.13 118.49 44.04 C 119.98 38.91 119.68 33.34 117.35 28.50 C 115.52 25.73 111.72 25.78 108.97 24.45 C 105.56 25.50 101.46 26.15 99.26 29.26 M 58.09 80.38 C 57.88 81.60 57.67 82.81 57.47 84.03 C 54.89 83.93 52.82 85.52 50.71 86.74 C 50.74 89.78 51.29 92.99 49.86 95.83 C 50.16 96.46 50.47 97.10 50.80 97.73 C 53.51 98.12 56.23 98.59 58.97 98.22 C 62.53 99.06 66.05 100.06 69.62 100.86 C 69.86 98.01 70.30 95.14 71.82 92.66 C 70.75 90.45 67.10 91.54 65.61 89.63 C 64.49 88.15 63.54 86.55 62.46 85.04 C 60.44 86.05 55.77 88.55 55.72 84.35 C 56.51 84.53 58.09 84.88 58.88 85.06 C 59.28 84.69 60.10 83.95 60.50 83.57 C 60.55 82.60 60.60 81.63 60.65 80.67 C 60.01 80.60 58.73 80.45 58.09 80.38 M 80.07 87.09 C 79.58 88.60 79.07 90.12 78.54 91.62 C 79.58 91.74 80.62 91.85 81.67 91.98 C 81.99 91.43 82.65 90.33 82.97 89.78 C 83.05 88.05 81.25 87.75 80.07 87.09 M 47.89 97.84 C 45.81 99.53 42.64 98.54 40.92 100.82 C 41.25 101.83 41.58 102.83 41.91 103.84 C 41.58 105.73 41.31 107.64 40.96 109.53 C 42.79 110.35 44.74 110.80 46.61 111.48 C 48.30 112.55 49.02 114.60 50.16 116.16 C 50.92 113.65 52.04 111.27 53.95 109.42 C 56.77 110.10 59.70 110.85 62.01 112.71 C 61.44 114.74 60.57 116.77 60.90 118.92 C 63.23 119.03 65.59 118.74 67.92 119.06 C 70.71 120.40 72.69 122.88 75.21 124.62 C 80.04 127.50 85.70 124.30 90.93 124.68 C 92.07 120.65 93.26 116.65 94.38 112.62 C 90.85 112.00 86.98 112.45 83.98 110.11 C 81.71 110.70 79.35 112.01 76.97 111.18 C 74.57 110.52 72.30 109.49 69.92 108.78 C 69.09 106.54 68.78 104.18 69.12 101.81 C 66.02 103.48 62.83 101.12 60.04 99.87 C 58.05 99.93 56.10 100.60 54.11 100.41 C 51.92 99.87 49.92 98.79 47.89 97.84 M 52.26 117.49 C 49.11 117.83 46.13 116.12 45.52 112.90 C 44.80 112.72 43.35 112.37 42.62 112.20 C 40.78 114.48 38.54 116.82 38.61 119.98 C 39.05 122.74 40.36 125.28 40.88 128.03 C 44.49 135.51 42.82 144.27 45.78 152.00 C 48.96 151.64 52.13 151.27 55.31 150.89 C 55.36 146.18 54.46 141.57 53.52 136.98 C 53.75 131.17 54.23 124.33 59.64 120.83 C 57.35 118.75 58.62 115.71 59.47 113.28 C 57.89 112.90 56.32 112.49 54.76 112.07 C 53.94 113.88 53.20 115.73 52.26 117.49 M 96.32 113.53 C 95.88 115.17 95.43 116.80 94.98 118.43 C 97.40 118.79 99.85 118.68 102.28 118.46 C 104.15 120.93 106.63 122.91 108.16 125.64 C 107.76 126.85 106.46 126.47 105.51 126.31 C 103.52 124.47 102.26 121.97 100.16 120.23 C 97.99 120.48 95.83 120.20 93.77 119.51 C 95.36 124.40 99.85 128.40 99.37 133.96 C 99.83 137.90 98.09 141.45 95.49 144.29 C 96.09 144.62 96.69 144.95 97.30 145.27 C 100.46 144.51 103.67 144.02 106.82 143.24 C 111.74 141.11 114.81 136.33 117.49 131.91 C 117.41 128.94 117.72 125.81 116.63 122.98 C 115.38 121.12 113.99 119.34 113.43 117.12 C 107.54 117.88 101.39 116.64 96.32 113.53 M 118.54 135.42 C 115.43 139.78 111.90 144.99 105.88 144.96 C 101.85 146.87 97.48 147.48 93.05 147.70 C 93.18 146.19 95.19 145.61 94.64 143.96 C 92.40 145.45 89.59 144.58 87.08 144.72 C 87.19 145.21 87.42 146.20 87.53 146.69 C 89.25 146.63 90.97 146.51 92.69 146.36 C 92.53 146.84 92.22 147.81 92.06 148.30 C 90.36 148.24 88.66 148.25 86.97 148.32 C 89.21 150.49 92.65 150.48 94.84 152.63 C 91.84 152.55 88.97 151.64 86.02 151.26 C 81.67 151.24 77.37 152.06 73.04 152.48 C 74.29 155.48 74.96 158.68 74.64 161.94 C 81.42 161.02 88.24 160.09 95.07 159.79 C 94.68 160.17 93.90 160.92 93.50 161.30 C 87.19 162.78 80.65 163.37 74.28 164.70 C 73.30 169.39 73.74 174.21 73.64 178.97 C 73.52 181.82 75.05 184.33 75.73 187.02 C 79.65 186.86 83.37 185.51 87.24 184.93 C 84.88 182.73 82.77 180.26 80.21 178.28 C 79.85 174.98 80.28 171.67 80.29 168.36 C 83.24 167.94 86.21 167.75 89.17 167.52 C 91.48 168.94 93.63 170.59 95.56 172.48 C 95.57 169.02 94.94 165.53 95.67 162.09 C 96.18 158.29 97.71 153.61 93.56 151.19 C 99.87 151.47 106.15 150.68 112.43 150.16 C 116.54 149.33 120.89 150.38 124.78 148.49 C 125.91 143.21 122.49 138.50 118.54 135.42 M 70.01 139.40 C 70.50 139.93 71.49 140.99 71.98 141.52 C 71.57 141.50 70.74 141.46 70.32 141.44 C 71.28 144.18 72.09 146.97 72.81 149.79 C 76.80 149.62 80.80 149.50 84.80 149.46 C 82.60 147.51 80.53 145.39 78.91 142.92 C 81.96 143.68 84.08 145.99 85.90 148.38 C 85.36 146.99 84.92 145.55 84.60 144.08 C 80.16 141.39 75.12 140.08 70.01 139.40 M 97.39 153.52 C 97.34 161.01 98.37 168.51 97.57 176.00 C 97.40 178.20 97.98 181.66 94.87 181.91 C 95.17 179.71 95.25 177.50 95.05 175.29 C 92.56 173.93 91.00 171.55 89.47 169.25 C 87.10 169.63 84.71 169.86 82.33 170.04 C 82.25 172.33 82.14 174.62 82.05 176.92 C 85.30 179.73 88.19 182.99 91.93 185.19 C 91.41 185.78 90.98 186.48 90.35 186.96 C 85.71 188.33 80.82 188.28 76.03 188.53 C 76.54 191.77 76.55 195.05 76.53 198.33 C 82.26 197.12 88.05 196.12 93.75 194.76 C 95.72 194.26 97.77 194.17 99.78 194.46 C 99.63 195.23 99.45 195.99 99.26 196.74 C 105.15 200.49 109.94 205.87 113.75 211.69 C 116.97 210.92 120.27 210.63 123.57 210.98 C 123.84 208.50 124.08 206.02 124.38 203.56 C 118.85 197.22 112.42 191.78 106.36 185.99 C 105.41 181.81 105.67 177.38 105.63 173.09 C 106.40 166.64 105.05 160.02 106.72 153.67 C 103.60 153.74 100.49 153.69 97.39 153.52 M 49.13 166.47 C 48.18 167.68 47.56 169.12 46.55 170.28 C 41.62 171.62 36.48 171.46 31.44 170.99 C 31.85 171.56 32.66 172.69 33.07 173.25 C 34.59 173.88 36.11 174.58 37.41 175.63 C 41.83 179.50 48.14 179.29 53.22 181.83 C 55.67 182.98 58.41 182.31 60.91 181.74 C 60.34 181.65 59.21 181.46 58.64 181.37 C 57.82 176.14 58.89 170.82 57.62 165.64 C 54.80 166.04 51.95 166.11 49.13 166.47 Z" />
<path fill="#333333" opacity="1.00" d=" M 106.26 91.20 C 108.51 90.33 108.73 93.50 106.65 93.74 C 104.42 94.74 104.11 91.33 106.26 91.20 Z" />
<path fill="#333333" opacity="1.00" d=" M 122.63 103.77 C 123.89 100.42 124.41 96.44 127.33 94.03 C 127.45 98.43 125.03 102.32 123.27 106.21 C 122.69 105.49 121.86 104.75 122.63 103.77 Z" />
<path fill="#333333" opacity="1.00" d=" M 42.52 100.93 C 45.38 101.08 47.93 102.60 50.79 102.72 C 55.41 104.80 60.67 105.09 65.06 107.70 C 68.78 109.79 72.91 110.98 76.77 112.79 C 81.03 115.09 86.04 111.80 90.30 114.09 C 90.18 114.49 89.94 115.28 89.82 115.68 C 85.02 116.09 79.70 117.29 75.35 114.52 C 71.24 112.22 66.48 111.36 62.55 108.70 C 58.12 106.84 53.38 105.69 49.27 103.09 L 49.52 104.87 C 47.19 103.57 44.30 103.07 42.52 100.93 Z" />
<path fill="#333333" opacity="1.00" d=" M 102.65 117.84 C 106.22 118.32 109.19 120.68 110.95 123.74 C 107.28 124.04 105.15 119.90 102.65 117.84 Z" />
<path fill="#333333" opacity="1.00" d=" M 64.25 127.99 C 64.73 127.81 65.71 127.45 66.19 127.28 C 66.33 130.35 64.47 132.82 61.91 134.31 C 62.65 132.18 63.50 130.10 64.25 127.99 Z" />
<path fill="#333333" opacity="1.00" d=" M 66.80 135.45 C 69.90 132.26 75.14 131.60 78.60 134.63 C 78.48 135.56 78.36 136.50 78.25 137.44 C 74.97 134.67 70.78 134.84 66.80 135.45 Z" />
<path fill="#333333" opacity="1.00" d=" M 61.62 146.44 C 62.85 153.87 64.03 161.31 65.26 168.74 C 65.73 169.75 66.21 170.77 66.64 171.81 C 65.46 171.13 63.86 170.55 63.63 169.02 C 62.05 161.63 60.79 153.99 61.62 146.44 Z" />
<path fill="#333333" opacity="1.00" d=" M 66.93 152.92 C 68.53 157.49 68.58 162.44 67.41 167.11 C 65.39 162.64 66.87 157.62 66.93 152.92 Z" />
<path fill="#333333" opacity="1.00" d=" M 25.29 172.11 C 33.54 175.81 38.53 183.56 44.63 189.81 C 46.98 193.08 50.30 195.72 51.72 199.58 L 49.45 198.88 C 44.60 194.98 41.43 189.36 36.82 185.16 C 33.24 182.09 30.47 178.18 26.58 175.47 C 25.21 174.83 25.03 173.44 25.29 172.11 Z" />
<path fill="#333333" opacity="1.00" d=" M 42.16 185.73 C 43.29 185.27 44.46 184.91 45.63 184.57 L 43.95 185.22 C 45.45 187.18 47.03 189.08 48.45 191.12 C 45.21 190.87 43.76 188.04 42.16 185.73 Z" />
</g>
</svg>
