<?xml version="1.0" encoding="UTF-8" ?>
<!DOCTYPE svg PUBLIC "-//W3C//DTD SVG 1.1//EN" "http://www.w3.org/Graphics/SVG/1.1/DTD/svg11.dtd">
<svg width="175pt" height="300pt" viewBox="0 0 175 300" version="1.1" xmlns="http://www.w3.org/2000/svg"><g id="#424341ff">
<path fill="#333333" opacity="1.00" d=" M 85.93 71.03 C 89.15 64.00 99.17 63.32 104.63 68.04 C 106.83 75.87 107.88 84.26 105.34 92.15 C 109.71 94.16 112.60 98.15 116.50 100.82 C 121.59 103.00 128.50 104.65 130.21 110.69 C 131.19 113.26 131.29 116.45 133.68 118.24 C 140.07 123.25 143.60 131.47 143.47 139.52 C 138.14 144.51 137.33 153.00 130.68 156.74 C 126.51 159.96 120.91 161.55 118.26 166.44 C 121.15 172.75 120.34 179.95 122.29 186.52 C 122.83 191.32 123.09 196.20 123.04 201.02 C 121.91 206.23 121.54 211.58 121.89 216.90 C 122.80 222.08 124.11 227.19 124.86 232.40 C 125.75 241.98 122.45 251.48 123.86 261.04 C 123.71 265.53 125.81 269.58 127.27 273.70 C 128.46 276.56 131.80 279.39 129.59 282.65 C 123.98 285.89 117.23 287.32 110.96 285.21 C 108.50 284.95 108.05 282.04 108.05 280.05 C 107.73 277.70 109.55 275.95 110.29 273.89 C 111.81 270.05 110.53 265.90 111.24 261.94 C 111.93 255.08 109.76 248.35 106.84 242.23 C 103.34 234.17 107.32 225.28 104.83 217.07 C 104.02 213.07 105.14 208.89 103.92 204.94 C 103.00 201.97 101.71 199.08 101.43 195.93 C 101.01 196.15 100.15 196.58 99.73 196.79 C 99.22 193.93 98.81 191.06 98.23 188.22 C 97.16 189.92 96.14 191.65 95.07 193.35 C 95.49 193.79 96.32 194.66 96.73 195.10 C 96.15 195.43 94.98 196.09 94.39 196.43 C 94.57 201.11 92.07 205.35 92.20 210.01 C 92.16 213.77 92.22 217.61 91.01 221.23 C 88.36 227.89 92.81 234.91 90.82 241.66 C 89.76 245.69 87.59 249.67 88.39 253.96 C 88.33 258.19 91.32 261.89 90.64 266.14 C 89.71 272.20 95.30 276.93 94.84 282.96 C 94.24 284.54 93.13 285.85 92.24 287.27 C 86.27 287.87 79.82 288.54 74.68 284.76 C 72.56 279.89 74.61 274.88 75.84 270.11 C 75.35 266.33 76.32 262.67 76.69 258.96 C 75.46 252.27 72.28 245.89 72.70 238.95 C 72.27 231.83 76.10 225.20 75.07 218.04 C 75.36 211.54 73.05 205.41 72.33 199.03 C 72.31 197.44 71.64 196.09 70.49 195.03 C 70.25 190.00 71.01 184.96 70.44 179.95 C 70.19 176.97 69.41 173.78 70.83 170.97 C 72.11 168.27 72.01 165.24 72.60 162.38 C 74.37 160.48 76.73 158.84 76.52 155.89 C 75.91 150.03 76.92 143.90 74.89 138.25 C 72.00 132.72 70.75 126.57 68.48 120.78 C 64.38 126.77 57.17 129.40 50.27 130.42 C 47.12 130.85 44.20 132.56 40.98 132.49 C 38.17 129.64 37.91 125.34 36.28 121.84 C 34.69 118.46 34.78 114.72 35.30 111.11 C 35.27 103.57 38.81 96.57 38.74 89.03 C 37.35 84.86 36.35 80.20 38.05 75.97 C 39.55 74.34 41.62 72.70 43.98 73.00 C 47.31 73.35 51.23 72.78 53.78 75.46 C 49.85 75.58 45.94 74.87 42.01 75.09 C 40.64 75.32 39.17 76.42 39.20 77.94 C 38.76 80.84 38.61 83.78 38.65 86.72 C 39.12 87.20 40.07 88.15 40.55 88.63 C 41.34 96.74 37.20 104.07 36.40 111.98 C 36.88 115.98 36.94 120.30 39.22 123.78 C 40.40 125.51 40.84 127.55 41.01 129.61 C 42.63 129.98 44.32 130.07 45.95 129.68 C 51.28 128.50 56.77 127.40 61.56 124.67 C 64.68 122.64 67.55 120.24 70.36 117.81 C 71.38 120.91 73.02 123.93 72.91 127.29 C 73.87 127.23 74.83 127.17 75.79 127.11 L 74.88 126.14 C 75.77 125.48 76.66 124.83 77.56 124.19 C 77.39 125.54 77.28 126.90 77.05 128.24 L 76.72 128.63 C 75.95 128.63 74.39 128.63 73.61 128.63 C 73.76 132.10 76.08 134.79 77.16 137.94 C 77.82 140.92 78.19 143.99 77.93 147.03 C 78.25 149.24 78.36 151.50 78.98 153.66 C 81.20 155.21 83.68 156.41 86.21 157.40 C 90.79 158.13 95.45 157.85 100.07 157.84 C 104.04 158.13 107.20 155.33 110.80 154.12 C 110.62 153.37 110.26 151.87 110.08 151.12 C 112.27 147.47 111.84 143.14 112.62 139.12 C 113.43 136.29 114.60 133.51 116.62 131.33 C 117.29 129.28 117.96 127.23 118.66 125.19 C 117.89 123.91 117.14 122.62 116.41 121.32 C 114.39 122.91 112.46 124.79 109.95 125.58 C 107.20 125.82 104.43 125.17 101.95 124.00 C 100.11 123.41 98.25 122.88 96.40 122.34 C 96.43 120.80 96.50 119.26 96.63 117.73 C 97.26 118.81 97.88 119.90 98.50 120.99 C 102.56 121.57 106.61 122.70 110.72 122.76 C 114.07 121.32 116.74 118.40 117.78 114.88 C 117.02 111.05 115.42 107.40 113.28 104.14 C 114.70 106.11 116.19 108.02 117.77 109.87 C 118.31 111.69 119.16 113.38 120.13 115.01 C 119.48 117.24 117.81 119.52 118.87 121.90 C 120.15 127.26 124.81 130.65 127.99 134.84 C 128.51 134.44 129.53 133.64 130.04 133.24 C 128.47 130.58 127.25 127.68 127.36 124.53 C 129.06 127.20 130.52 130.03 131.79 132.93 C 130.50 135.82 128.52 138.36 127.31 141.30 C 126.22 143.54 125.92 146.21 124.15 148.09 C 121.72 150.84 118.90 153.23 116.12 155.63 C 115.24 154.68 114.37 153.74 113.50 152.79 C 112.30 154.71 111.58 157.25 109.23 158.07 C 106.82 159.07 104.70 160.58 103.15 162.71 C 102.92 163.78 102.69 164.85 102.47 165.93 C 103.95 167.58 105.36 169.30 106.75 171.03 C 111.20 170.88 115.98 169.02 117.56 164.49 C 119.43 161.68 118.02 158.52 117.47 155.57 C 118.98 157.24 120.18 159.16 121.45 161.01 C 125.79 157.09 131.03 154.27 135.08 150.03 C 137.87 146.26 139.40 141.72 142.00 137.82 C 141.04 132.73 139.52 127.62 136.36 123.44 C 134.79 121.05 132.07 119.89 130.07 117.94 C 128.88 114.52 129.03 110.45 126.31 107.72 C 123.71 104.05 118.83 103.74 115.05 102.00 C 111.90 99.09 108.50 96.23 104.31 94.96 C 104.35 93.79 104.40 92.61 104.44 91.44 C 101.78 94.29 98.16 95.68 94.27 95.08 C 93.18 94.02 92.07 92.97 90.98 91.92 C 90.44 93.08 89.92 94.24 89.40 95.42 C 87.40 96.10 85.37 96.74 83.37 97.42 C 83.53 98.10 83.85 99.47 84.00 100.15 C 87.38 100.18 90.62 101.26 93.99 101.36 C 94.90 102.35 98.46 103.78 95.68 104.64 C 92.96 102.26 89.55 101.57 86.00 101.74 L 86.93 100.89 C 85.63 100.87 84.34 100.85 83.04 100.84 L 83.60 101.49 C 81.87 102.32 80.16 103.19 78.44 104.03 C 78.42 103.49 78.39 102.40 78.38 101.86 C 79.92 101.20 81.46 100.54 83.01 99.89 C 79.72 98.56 76.86 95.22 73.02 96.29 C 68.22 97.04 65.53 101.66 62.61 105.03 C 64.69 104.84 66.76 104.58 68.81 104.18 C 71.21 105.00 73.95 105.57 74.85 108.30 C 75.19 108.67 75.88 109.41 76.23 109.78 C 77.65 114.68 80.54 119.08 81.35 124.16 C 77.26 119.66 74.93 113.96 73.77 108.06 C 73.42 108.67 72.71 109.89 72.36 110.50 C 70.81 110.74 69.28 111.03 67.74 111.31 C 68.06 111.04 68.69 110.50 69.01 110.23 C 70.31 109.16 71.57 108.04 72.75 106.84 C 70.73 104.92 68.46 105.90 66.66 107.42 C 64.50 107.14 62.39 106.41 60.20 106.41 C 57.82 107.12 55.51 108.17 53.43 109.53 C 51.48 112.47 50.60 117.15 46.57 117.91 C 47.71 115.52 49.29 113.36 50.21 110.87 C 48.96 104.42 46.75 97.86 48.24 91.23 C 48.87 88.27 51.67 86.64 53.65 84.64 C 54.36 81.71 53.56 78.64 53.36 75.68 C 54.45 77.37 55.75 79.00 56.30 80.97 C 56.23 83.03 55.66 85.04 54.86 86.93 C 53.78 88.80 51.19 89.27 50.24 91.25 C 48.97 97.06 50.21 102.99 51.12 108.75 C 54.03 106.18 57.51 104.54 61.23 103.56 C 64.19 99.26 68.15 93.53 74.11 94.34 C 76.56 94.43 78.78 95.55 81.00 96.45 C 84.24 94.79 87.88 93.58 90.13 90.53 C 86.94 84.69 83.77 77.75 85.93 71.03 M 88.66 68.64 C 84.62 76.24 89.13 84.45 93.08 91.02 C 95.13 94.00 99.20 92.74 102.22 92.61 C 104.33 87.69 106.27 82.43 105.46 76.98 C 104.86 73.81 105.30 69.55 101.81 67.97 C 97.58 66.60 92.75 66.79 88.66 68.64 M 120.51 127.10 C 119.92 131.12 116.36 133.69 115.43 137.56 C 114.33 141.76 113.89 146.10 112.98 150.35 C 114.18 151.18 115.39 152.01 116.60 152.84 C 118.81 150.92 121.13 149.05 122.79 146.60 C 124.97 143.65 125.71 140.00 127.00 136.64 C 124.25 133.90 122.09 130.64 120.51 127.10 M 79.04 157.18 C 79.18 157.94 79.46 159.46 79.59 160.22 C 77.84 161.26 74.42 161.32 74.80 164.10 C 74.91 167.22 73.38 170.01 72.33 172.86 C 71.34 176.00 72.70 179.13 73.43 182.16 C 73.39 186.30 73.10 190.45 73.14 194.60 C 77.10 194.36 81.02 193.18 85.01 193.86 C 87.61 193.87 90.46 194.95 92.90 193.80 C 94.45 191.13 93.28 187.12 96.64 185.62 C 97.48 184.57 98.33 183.54 99.18 182.52 C 99.43 183.42 99.91 185.23 100.15 186.13 C 99.62 186.61 98.54 187.56 98.00 188.03 C 101.92 187.41 101.23 191.90 102.29 194.34 C 104.98 193.77 107.62 193.01 110.23 192.16 C 113.74 192.89 117.22 191.92 120.68 191.32 C 118.78 184.21 118.37 176.86 116.83 169.67 C 113.48 171.71 109.47 173.23 105.53 172.36 C 103.27 169.96 101.75 166.98 99.97 164.23 C 101.00 162.84 102.03 161.46 103.07 160.08 C 94.99 160.17 86.38 161.43 79.04 157.18 M 103.18 196.66 C 104.57 201.65 107.27 206.52 106.71 211.85 C 106.12 214.64 107.41 217.29 108.08 219.94 C 107.46 224.31 108.21 228.73 107.40 233.09 C 106.33 238.78 110.61 243.32 112.43 248.33 C 112.36 250.48 112.97 252.54 113.62 254.57 C 113.72 257.80 114.36 261.12 113.25 264.26 C 114.03 268.76 113.24 273.37 111.51 277.56 C 110.46 279.53 111.70 281.61 112.41 283.48 C 115.33 283.66 118.21 284.30 121.14 284.23 C 123.33 283.55 125.42 282.48 127.20 281.04 C 126.64 277.64 125.27 274.37 125.50 270.85 C 123.54 268.27 121.17 266.04 119.13 263.55 C 119.74 262.80 120.37 262.07 121.02 261.37 C 122.14 251.36 123.69 241.16 122.38 231.12 C 120.20 222.98 119.06 214.55 119.88 206.14 C 120.78 201.93 122.06 197.63 120.73 193.36 C 114.77 193.70 108.86 194.85 103.18 196.66 M 73.63 195.73 C 74.10 201.71 76.78 207.20 77.59 213.10 C 78.10 218.82 77.53 224.65 75.92 230.16 C 74.41 235.08 74.27 240.43 75.28 245.46 C 76.85 250.35 78.20 255.31 79.50 260.28 C 79.90 262.38 78.61 264.28 77.58 265.99 C 79.25 271.03 75.95 275.70 76.10 280.74 C 76.79 282.08 77.46 283.43 78.14 284.78 C 82.43 285.45 86.77 285.62 91.10 285.47 C 93.99 282.77 92.47 278.78 91.19 275.68 C 88.99 271.65 87.28 267.15 83.56 264.23 C 82.74 264.07 81.10 263.76 80.28 263.60 C 82.54 260.78 85.53 263.67 87.57 265.13 C 87.89 264.81 88.52 264.15 88.84 263.83 C 87.33 260.06 85.69 256.15 86.37 251.99 C 85.99 247.72 88.20 243.97 89.21 239.97 C 88.85 234.84 88.39 229.69 87.58 224.60 L 86.94 224.09 C 86.32 223.84 85.07 223.32 84.45 223.07 C 83.86 220.69 85.69 219.02 87.55 217.96 C 87.47 219.57 87.07 221.16 87.20 222.78 C 87.48 222.87 88.05 223.05 88.33 223.14 C 89.68 219.67 89.93 215.91 90.04 212.23 C 87.90 211.90 85.76 211.54 83.62 211.24 C 83.11 209.62 82.61 208.00 82.13 206.37 C 84.27 208.36 86.60 210.14 89.40 211.12 C 90.31 206.41 91.61 201.80 92.54 197.10 C 86.36 195.54 79.96 195.44 73.63 195.73 Z" />
<path fill="#333333" opacity="1.00" d=" M 26.50 70.74 C 29.75 70.03 33.12 70.23 36.40 70.63 C 36.82 73.12 36.33 75.59 36.06 78.06 C 35.52 82.72 36.56 87.36 36.37 92.02 C 32.86 92.04 29.35 92.09 25.84 91.95 C 24.28 88.14 25.46 83.98 25.08 80.00 C 25.35 76.93 23.85 73.11 26.50 70.74 M 26.97 72.03 C 25.48 77.91 25.48 84.07 26.68 89.99 C 29.49 90.00 32.30 90.00 35.12 90.00 C 35.42 84.15 35.67 78.28 34.94 72.45 C 32.28 72.32 29.63 72.14 26.97 72.03 Z" />
<path fill="#333333" opacity="1.00" d=" M 56.90 70.54 C 60.15 70.16 63.41 70.33 66.66 70.57 C 67.28 71.96 68.26 73.33 68.01 74.95 C 67.87 79.36 67.79 83.78 68.00 88.19 C 68.26 89.66 67.14 90.81 66.60 92.06 C 63.25 92.03 59.90 92.03 56.55 92.02 C 56.38 85.83 57.88 79.52 56.07 73.45 C 56.35 72.48 56.63 71.51 56.90 70.54 M 57.99 72.47 C 57.11 78.28 57.49 84.16 57.71 90.00 C 60.51 90.00 63.32 89.99 66.12 90.01 C 67.59 84.11 67.47 77.84 65.81 72.00 C 63.20 72.14 60.59 72.33 57.99 72.47 Z" />
<path fill="#333333" opacity="1.00" d=" M 100.01 102.84 C 103.71 102.01 107.62 101.71 111.19 103.24 C 107.56 103.61 103.91 103.85 100.32 104.55 C 100.25 104.12 100.09 103.27 100.01 102.84 Z" />
<path fill="#333333" opacity="1.00" d=" M 54.31 121.05 C 57.45 118.59 60.89 116.56 64.34 114.57 C 62.41 118.28 58.61 121.11 54.31 121.05 Z" />
<path fill="#333333" opacity="1.00" d=" M 89.81 126.92 C 91.01 126.85 92.20 126.78 93.40 126.70 C 94.26 128.11 95.29 129.41 96.10 130.85 C 94.08 137.61 96.27 144.58 95.15 151.46 C 92.87 147.94 94.44 143.64 93.30 139.81 C 92.17 135.97 93.29 131.92 92.86 128.15 C 91.12 127.89 90.03 129.76 88.62 130.46 C 87.12 132.95 84.24 134.27 82.98 136.90 C 82.90 139.41 85.22 140.71 86.82 142.20 C 85.68 146.91 87.86 151.15 89.01 155.57 C 86.42 153.05 84.40 149.80 84.41 146.08 C 84.64 142.03 80.66 139.38 80.97 135.31 C 84.12 132.73 87.04 129.90 89.81 126.92 Z" />
<path fill="#333333" opacity="1.00" d=" M 76.90 132.53 C 77.65 130.06 79.48 128.26 81.50 126.76 C 80.96 128.62 80.22 130.42 79.61 132.27 C 78.71 132.36 77.80 132.45 76.90 132.53 Z" />
<path fill="#333333" opacity="1.00" d=" M 107.97 126.71 C 110.98 127.34 112.97 129.80 113.21 132.83 C 111.03 131.24 108.39 129.64 107.97 126.71 Z" />
<path fill="#333333" opacity="1.00" d=" M 97.08 128.35 C 99.28 128.98 101.63 129.34 103.62 130.53 C 105.60 132.38 106.82 134.92 107.76 137.42 C 104.84 141.40 107.67 146.78 104.60 150.69 C 104.00 146.86 103.70 142.95 104.62 139.14 C 106.19 134.06 101.09 130.28 97.08 128.35 Z" />
<path fill="#333333" opacity="1.00" d=" M 79.21 165.40 C 80.69 163.74 82.10 161.99 83.83 160.56 C 82.98 163.58 80.66 166.51 77.44 167.02 C 76.97 166.69 76.04 166.03 75.57 165.70 C 76.48 165.62 78.30 165.48 79.21 165.40 Z" />
<path fill="#333333" opacity="1.00" d=" M 93.09 169.80 C 95.20 169.26 97.44 168.86 99.52 169.82 C 96.40 171.08 93.09 171.72 89.78 172.21 C 93.30 173.04 96.96 173.45 100.39 174.64 C 100.53 174.93 100.81 175.50 100.95 175.78 C 95.26 175.72 89.68 174.21 84.18 172.87 C 86.76 170.91 90.05 170.59 93.09 169.80 Z" />
<path fill="#333333" opacity="1.00" d=" M 115.86 202.11 C 117.30 206.20 115.86 211.14 111.43 212.59 C 112.54 215.61 114.26 218.53 113.92 221.88 C 112.97 221.71 112.03 221.53 111.09 221.34 C 111.02 218.83 110.28 216.46 109.55 214.10 C 110.06 213.37 110.68 212.73 111.27 212.07 C 109.66 211.59 107.16 211.10 107.38 208.87 C 108.38 209.09 110.37 209.52 111.36 209.73 C 112.40 208.90 113.45 208.07 114.50 207.26 C 114.91 205.53 115.34 203.80 115.86 202.11 Z" />
<path fill="#333333" opacity="1.00" d=" M 79.25 221.06 C 81.97 220.25 81.49 223.03 82.21 224.68 C 82.72 224.94 83.74 225.47 84.25 225.73 C 83.38 234.66 83.95 243.65 83.36 252.60 C 81.17 248.77 81.99 244.23 81.99 240.05 C 82.02 235.43 82.91 230.82 82.82 226.22 C 82.32 225.91 81.31 225.30 80.81 225.00 C 80.26 223.69 79.74 222.38 79.25 221.06 Z" />
<path fill="#333333" opacity="1.00" d=" M 110.58 222.38 C 111.89 224.06 113.02 225.88 113.98 227.79 C 112.54 227.27 111.13 226.69 109.74 226.09 C 109.95 225.16 110.37 223.31 110.58 222.38 Z" />
<path fill="#333333" opacity="1.00" d=" M 115.43 229.34 C 118.15 232.31 117.46 236.79 118.29 240.50 C 118.28 245.29 119.11 250.31 117.62 254.95 C 116.91 252.05 116.69 249.06 116.64 246.09 C 116.54 240.48 115.20 234.96 115.43 229.34 Z" />
</g>
</svg>
