<?xml version="1.0" encoding="UTF-8" ?>
<!DOCTYPE svg PUBLIC "-//W3C//DTD SVG 1.1//EN" "http://www.w3.org/Graphics/SVG/1.1/DTD/svg11.dtd">
<svg width="277pt" height="150pt" viewBox="0 0 277 150" version="1.1" xmlns="http://www.w3.org/2000/svg"><g id="#262824ff">
<path fill="#333333" opacity="1.00" d=" M 187.08 29.33 C 190.91 28.59 194.55 26.80 198.49 26.70 C 202.34 27.08 206.66 27.53 209.50 30.47 C 211.55 32.17 212.74 34.72 215.01 36.17 C 218.18 38.15 220.18 41.38 222.75 44.00 C 224.33 43.96 225.92 43.93 227.51 43.90 C 229.97 41.52 232.71 39.46 234.93 36.84 C 239.13 31.92 247.42 33.13 251.22 37.89 C 252.67 39.42 253.80 41.21 254.81 43.06 C 255.38 47.13 255.40 51.39 252.48 54.63 C 249.19 62.03 242.71 68.25 234.52 69.62 C 231.58 68.68 229.69 65.85 226.83 65.00 C 226.12 66.63 226.24 68.42 226.23 70.15 C 229.68 73.15 229.19 77.93 229.46 82.06 C 229.16 85.66 227.95 89.28 225.89 92.27 C 226.46 95.56 226.93 98.94 226.13 102.23 C 228.43 106.56 229.37 111.93 233.21 115.22 C 237.30 115.74 242.39 117.20 243.34 121.87 C 242.89 125.08 242.41 128.38 241.34 131.44 C 238.67 133.43 235.52 135.18 232.17 135.55 C 229.93 134.30 227.69 132.92 225.82 131.15 C 224.73 129.36 224.70 127.15 224.37 125.14 C 221.08 123.41 217.19 122.28 215.04 119.01 C 213.36 116.38 211.10 114.20 209.39 111.60 C 207.34 108.54 209.53 104.82 208.71 101.48 C 208.13 96.46 204.97 90.91 208.17 86.18 C 208.49 86.15 209.12 86.11 209.43 86.09 C 209.08 88.70 208.35 91.34 209.01 93.98 C 210.25 101.73 210.17 110.29 215.15 116.81 C 217.03 119.85 220.74 120.71 223.72 122.30 C 223.72 121.41 223.74 119.62 223.74 118.72 C 227.55 121.53 226.24 126.92 228.51 130.58 C 229.96 131.75 231.49 132.83 233.04 133.87 C 235.13 133.09 237.31 132.37 239.13 131.04 C 240.53 127.82 240.39 124.19 240.93 120.77 C 239.42 119.42 237.84 118.15 236.34 116.79 C 233.89 115.90 230.61 116.32 228.94 114.01 C 227.75 111.12 226.74 108.14 225.32 105.34 C 224.24 106.71 223.14 108.11 221.55 108.92 C 222.06 105.46 224.80 102.61 224.49 99.01 C 224.05 93.28 222.80 86.96 217.82 83.39 C 215.26 86.11 214.75 89.63 215.66 93.17 C 213.18 92.88 213.87 90.08 214.71 88.56 C 211.98 89.53 211.48 85.84 209.93 84.44 C 201.48 89.67 191.33 86.14 182.12 86.18 C 176.69 85.73 171.57 88.17 166.16 87.99 C 163.79 83.32 158.94 80.43 157.29 75.30 C 157.81 74.55 158.33 73.79 158.85 73.04 C 160.33 77.71 163.82 81.34 166.93 85.00 C 168.35 85.22 169.76 85.49 171.16 85.80 C 175.28 84.47 179.63 83.46 183.98 84.11 C 192.70 85.99 201.76 84.42 210.24 82.09 C 209.49 81.05 209.53 79.02 207.89 78.96 C 204.53 78.60 201.13 78.62 197.76 78.40 C 200.14 77.63 202.66 77.65 205.13 77.48 C 202.65 74.07 197.31 74.93 195.56 70.89 C 197.69 71.74 199.82 72.59 202.03 73.21 C 204.69 74.04 206.59 76.27 209.07 77.46 C 210.78 77.74 212.51 77.85 214.23 78.05 C 214.13 78.34 213.93 78.90 213.83 79.19 C 212.47 79.08 211.63 79.69 211.29 81.02 C 211.61 83.65 212.96 86.01 214.18 88.31 C 214.43 87.45 214.93 85.74 215.18 84.89 C 215.63 84.20 216.08 83.52 216.53 82.84 C 216.03 82.02 215.02 80.40 214.52 79.58 C 217.17 80.99 219.59 82.78 222.00 84.56 C 222.63 86.02 223.30 87.47 224.00 88.91 C 228.01 86.00 227.76 80.47 227.32 76.06 C 227.29 71.80 222.85 69.92 219.71 68.09 C 220.40 68.22 221.77 68.48 222.45 68.61 C 222.85 66.54 223.44 64.48 224.76 62.79 C 223.73 62.20 223.08 61.34 222.81 60.19 C 224.44 60.68 226.04 61.23 227.66 61.76 C 227.16 58.49 226.57 54.51 229.30 52.01 C 228.77 56.16 228.00 60.80 230.51 64.51 C 232.10 66.28 234.16 68.79 236.83 67.53 C 243.82 65.63 247.86 59.24 251.45 53.46 C 253.94 49.72 254.86 44.01 251.40 40.57 C 249.14 38.10 246.63 34.96 242.93 35.13 C 238.41 34.54 235.40 38.54 232.90 41.65 C 229.45 42.59 228.98 47.75 224.97 47.24 C 224.12 47.21 222.42 47.16 221.56 47.13 C 221.46 46.63 221.26 45.63 221.16 45.13 C 218.24 41.85 215.97 37.54 211.37 36.38 C 208.58 28.31 197.41 25.63 191.00 31.03 C 185.82 30.08 179.71 29.89 175.43 33.46 C 173.83 34.66 172.04 35.59 170.19 36.32 C 167.85 34.57 164.98 33.79 162.08 34.16 C 152.81 35.13 144.18 39.27 134.91 40.23 C 129.49 41.18 124.30 43.52 120.42 47.50 C 118.01 50.26 114.54 51.59 111.42 53.35 C 115.25 52.48 119.09 53.97 122.90 53.14 C 127.58 52.54 132.09 50.49 135.33 47.04 C 138.07 46.08 141.16 46.10 144.04 45.55 C 148.29 45.89 152.42 47.50 156.75 46.80 C 160.45 47.99 164.34 46.77 167.73 45.23 C 166.54 44.48 165.34 43.74 164.14 43.02 C 166.54 41.20 169.68 40.99 172.14 39.29 C 173.00 38.46 174.10 38.60 175.09 39.12 C 173.59 41.19 170.94 41.99 168.87 43.36 C 172.20 45.72 176.65 46.71 180.55 45.28 C 184.68 43.85 188.86 42.60 192.96 41.10 C 193.24 41.50 193.80 42.31 194.08 42.71 C 196.15 41.18 198.35 39.81 200.89 39.25 C 204.66 40.14 209.56 39.58 211.28 43.94 C 207.70 42.36 203.89 41.09 200.01 40.71 C 196.68 42.90 193.39 45.85 192.78 50.01 C 191.20 54.43 192.49 59.06 194.77 62.96 C 190.91 60.72 190.64 55.99 190.08 52.05 C 189.82 49.90 190.73 47.83 191.17 45.76 C 190.13 45.35 189.09 44.94 188.06 44.52 C 181.27 49.45 172.64 46.65 165.04 48.61 C 156.14 51.31 147.03 47.33 137.99 48.18 C 136.72 48.55 136.68 50.25 136.01 51.21 C 132.15 52.82 128.07 53.78 124.17 55.28 C 121.84 56.24 119.39 55.66 117.08 55.00 C 111.47 60.27 112.58 70.98 119.68 74.40 C 120.13 74.24 121.03 73.92 121.48 73.76 C 121.76 73.92 122.33 74.24 122.62 74.40 C 125.74 73.94 128.84 73.28 131.96 72.80 C 135.71 74.86 138.27 78.46 140.88 81.74 C 138.36 81.50 136.51 79.61 134.32 78.54 C 133.52 77.37 132.70 76.21 131.88 75.05 C 127.91 75.14 123.97 75.60 120.04 76.08 C 118.48 76.53 117.26 75.23 115.98 74.62 C 115.24 75.94 114.97 77.96 113.07 77.99 C 107.87 79.27 102.44 80.41 97.09 79.71 C 97.03 79.37 96.91 78.68 96.84 78.34 L 97.48 77.83 C 103.42 77.65 109.85 77.64 115.08 74.27 C 111.66 69.11 110.86 62.54 113.36 56.83 C 109.14 55.81 105.23 58.34 101.17 59.10 C 97.84 59.60 95.71 62.94 92.31 63.00 C 92.08 63.29 91.63 63.87 91.41 64.17 C 94.19 64.86 94.70 67.84 96.34 69.75 C 96.45 70.26 96.67 71.27 96.77 71.78 C 95.45 73.11 94.06 74.44 92.31 75.19 C 93.47 75.69 96.53 77.07 94.13 78.21 L 93.05 78.35 C 92.62 78.37 91.74 78.42 91.31 78.44 C 92.52 79.85 97.23 79.18 95.44 82.22 C 94.33 80.52 92.16 81.44 90.74 82.06 C 88.01 83.65 84.91 84.31 81.87 85.07 C 78.43 86.06 75.03 83.50 71.60 84.37 C 64.47 86.70 57.29 88.90 50.05 90.89 C 50.39 90.25 51.09 88.97 51.43 88.33 C 59.63 86.02 67.50 82.43 75.87 80.94 C 80.40 77.72 85.98 78.21 91.13 77.21 C 92.45 76.39 91.52 74.69 91.68 73.46 C 92.18 72.33 93.24 71.58 94.01 70.65 C 92.71 68.11 91.41 65.57 90.02 63.08 C 87.60 63.47 85.19 63.94 82.82 64.56 C 82.01 65.30 81.19 66.03 80.36 66.75 C 75.78 64.09 70.47 66.27 65.62 66.79 C 59.38 69.30 54.45 74.14 48.54 77.27 C 46.76 78.10 44.73 77.79 42.82 77.96 C 44.16 77.37 45.49 76.75 46.80 76.09 C 43.72 75.88 40.51 75.97 37.74 77.51 C 37.51 77.29 37.05 76.86 36.82 76.64 C 34.22 77.93 31.20 77.83 28.42 78.52 C 23.93 80.44 23.54 85.62 20.60 88.95 C 20.92 89.03 21.56 89.18 21.88 89.26 C 21.97 90.20 22.17 92.07 22.27 93.00 C 25.41 89.91 29.49 87.46 34.07 87.83 C 40.44 88.14 46.71 86.92 53.04 86.45 C 49.87 89.89 45.15 89.66 40.91 90.30 C 37.19 90.67 33.29 89.73 29.71 91.13 C 27.35 92.50 24.98 93.86 22.41 94.78 C 21.01 92.84 20.04 90.63 18.52 88.78 C 21.36 84.92 21.79 78.37 27.21 77.15 C 32.13 75.82 36.92 74.02 41.94 73.10 C 45.24 73.17 49.15 75.49 51.99 72.91 C 55.34 70.14 59.44 68.51 62.87 65.84 C 68.05 63.14 74.10 64.24 79.61 63.64 C 85.16 60.08 92.32 62.57 97.85 59.05 C 102.27 56.09 107.74 55.61 112.28 52.87 C 111.51 52.69 109.98 52.33 109.21 52.15 C 111.71 49.40 116.03 49.28 118.07 46.05 C 120.50 42.38 124.90 41.12 128.95 40.18 C 131.82 39.71 134.75 38.31 137.68 39.17 C 143.71 36.13 150.58 35.52 156.83 33.06 C 161.49 30.84 166.42 33.75 171.24 33.73 C 173.37 32.35 175.50 30.96 177.75 29.78 C 180.64 28.16 183.98 29.38 187.08 29.33 M 77.50 82.14 C 81.49 83.22 85.80 83.19 89.10 80.32 C 85.29 80.98 80.88 79.84 77.50 82.14 Z" />
<path fill="#333333" opacity="1.00" d=" M 211.87 43.47 C 212.44 41.52 212.74 39.52 212.63 37.48 C 215.78 38.49 214.27 41.50 213.59 43.58 C 213.16 43.55 212.30 43.50 211.87 43.47 Z" />
<path fill="#333333" opacity="1.00" d=" M 213.33 44.93 C 213.55 44.99 213.98 45.12 214.20 45.19 C 215.47 49.00 218.57 54.53 214.30 57.55 C 214.35 53.32 214.24 49.07 213.33 44.93 Z" />
<path fill="#333333" opacity="1.00" d=" M 218.06 56.30 C 220.59 52.61 224.79 50.87 228.32 48.36 C 228.19 49.21 228.06 50.07 227.93 50.92 C 225.13 52.39 222.52 54.16 220.11 56.20 L 218.06 56.30 Z" />
<path fill="#333333" opacity="1.00" d=" M 146.33 52.55 C 146.53 51.94 146.76 51.33 147.02 50.74 C 149.77 53.37 151.89 56.64 155.05 58.83 C 155.31 56.58 155.98 54.35 157.66 52.75 C 155.17 58.94 156.92 65.63 158.88 71.68 C 158.17 72.53 157.45 73.37 156.72 74.20 C 155.28 69.19 155.72 63.99 155.53 58.87 C 153.41 59.91 154.34 62.18 154.27 63.94 C 154.40 67.00 155.15 69.99 155.92 72.94 C 156.72 75.80 157.00 78.77 157.24 81.72 C 158.03 81.95 159.59 82.43 160.38 82.67 C 159.11 82.67 157.85 82.64 156.60 82.63 C 153.65 75.32 150.12 67.32 152.89 59.36 C 150.10 57.77 147.81 55.40 146.33 52.55 Z" />
<path fill="#333333" opacity="1.00" d=" M 158.22 51.29 C 158.86 51.79 158.86 51.79 158.22 51.29 Z" />
<path fill="#333333" opacity="1.00" d=" M 173.94 59.93 C 175.59 55.99 180.09 54.60 184.03 54.59 C 183.87 55.19 183.54 56.38 183.38 56.98 C 185.60 59.68 187.51 62.63 188.74 65.91 C 184.71 64.46 183.70 59.96 181.47 56.78 C 178.91 57.71 176.54 59.11 173.94 59.93 Z" />
<path fill="#333333" opacity="1.00" d=" M 165.89 58.82 C 167.97 58.41 170.31 57.20 172.07 59.08 C 170.32 60.31 168.50 61.43 166.64 62.46 C 166.63 61.91 166.63 60.80 166.62 60.24 C 164.71 60.84 162.80 61.41 160.84 61.82 C 161.49 59.59 164.03 59.44 165.89 58.82 Z" />
<path fill="#333333" opacity="1.00" d=" M 203.94 61.02 C 207.36 61.01 210.54 59.66 213.64 58.34 C 215.53 59.32 217.63 60.20 218.69 62.19 C 217.16 61.87 215.64 61.47 214.15 60.99 L 214.71 59.70 C 211.50 59.67 209.01 62.10 205.89 62.45 C 203.57 62.72 201.27 63.11 198.96 63.41 C 200.11 61.80 201.99 61.03 203.94 61.02 Z" />
<path fill="#333333" opacity="1.00" d=" M 144.83 61.96 C 144.80 68.21 147.61 74.19 146.40 80.44 C 145.62 79.59 144.96 78.65 144.35 77.68 C 146.13 72.48 141.47 66.86 144.83 61.96 Z" />
<path fill="#333333" opacity="1.00" d=" M 141.10 74.27 C 138.13 71.24 136.62 67.12 137.33 62.89 C 137.73 63.42 138.55 64.47 138.95 65.00 C 138.57 68.37 141.38 70.95 141.10 74.27 Z" />
<path fill="#333333" opacity="1.00" d=" M 81.02 69.72 C 81.70 66.30 85.88 66.29 88.60 65.84 C 86.73 68.18 83.69 68.74 81.02 69.72 Z" />
<path fill="#333333" opacity="1.00" d=" M 186.37 67.34 C 187.75 66.32 189.00 67.63 190.16 68.28 C 185.49 72.07 179.32 71.14 173.90 70.08 C 170.10 71.13 165.24 72.69 162.39 68.91 C 167.07 69.71 171.33 66.29 175.95 67.79 C 179.36 68.54 183.19 69.20 186.37 67.34 Z" />
<path fill="#333333" opacity="1.00" d=" M 188.53 77.68 C 190.40 76.34 191.13 73.99 192.76 72.39 C 192.82 75.03 192.24 78.10 189.43 79.12 C 185.34 82.41 180.93 76.78 176.58 78.42 C 173.35 79.76 169.85 79.43 166.45 79.30 C 166.42 79.16 166.38 78.90 166.36 78.76 C 170.07 78.96 173.54 77.38 176.95 76.17 C 180.90 75.52 184.67 79.98 188.53 77.68 Z" />
<path fill="#333333" opacity="1.00" d=" M 54.84 81.00 C 62.94 76.43 72.59 73.08 81.96 75.24 C 79.68 78.09 76.09 75.51 73.16 76.54 C 71.17 77.08 69.14 77.45 67.10 77.73 C 62.88 78.32 59.09 80.54 54.84 81.00 Z" />
<path fill="#333333" opacity="1.00" d=" M 121.19 92.93 C 117.92 88.60 116.08 82.90 118.44 77.70 C 118.50 79.92 118.54 82.14 118.56 84.37 C 120.45 87.15 122.07 90.12 123.95 92.92 C 126.00 95.25 129.35 95.56 132.10 94.36 C 136.53 92.72 141.53 94.12 145.83 91.95 C 148.52 90.48 151.65 90.93 154.59 90.71 C 155.56 88.17 156.98 85.85 158.87 83.90 C 159.78 87.15 157.31 89.49 154.88 91.33 C 157.31 90.29 159.88 89.19 161.53 87.02 C 162.18 86.86 163.46 86.53 164.11 86.37 C 164.08 90.36 160.01 91.73 156.94 92.79 C 153.62 94.02 149.89 92.89 146.62 94.31 C 142.17 96.28 137.16 95.01 132.55 96.32 C 128.93 97.43 125.31 95.99 122.17 94.27 C 114.91 99.43 104.40 99.65 96.81 95.06 C 92.65 97.27 87.71 97.08 83.55 99.29 C 80.63 99.72 77.67 99.93 74.82 100.74 C 66.79 102.29 58.90 97.78 50.92 99.79 C 47.52 99.58 45.31 102.79 42.05 103.14 C 40.93 103.27 38.68 103.54 37.56 103.67 C 37.49 103.29 37.36 102.55 37.29 102.17 C 41.09 101.15 44.88 100.07 48.67 99.02 L 48.18 98.16 C 52.41 97.40 56.72 96.36 61.03 97.23 C 67.96 98.59 75.00 97.43 81.90 96.55 C 85.80 95.09 89.85 94.11 93.99 93.64 C 95.62 92.81 97.42 92.50 99.19 92.15 C 98.87 92.70 98.22 93.79 97.89 94.33 C 105.40 97.94 113.76 95.32 121.19 92.93 Z" />
<path fill="#333333" opacity="1.00" d=" M 96.46 82.03 C 98.53 83.45 98.34 86.36 99.95 88.14 C 101.36 89.05 103.66 88.74 104.10 90.76 C 99.24 91.51 96.24 86.28 96.46 82.03 Z" />
<path fill="#333333" opacity="1.00" d=" M 88.75 92.62 C 86.83 91.58 84.02 90.61 85.10 87.87 C 85.49 88.44 86.26 89.58 86.64 90.14 C 87.72 90.54 88.79 90.94 89.87 91.34 C 89.59 91.66 89.03 92.30 88.75 92.62 Z" />
<path fill="#333333" opacity="1.00" d=" M 57.57 91.52 C 65.68 90.50 73.91 91.07 82.05 90.28 C 79.45 91.34 76.96 93.14 74.00 92.64 C 68.13 92.30 62.29 92.51 56.44 93.07 C 56.72 92.68 57.29 91.91 57.57 91.52 Z" />
<path fill="#333333" opacity="1.00" d=" M 18.17 94.77 C 22.20 96.12 24.95 99.72 28.98 101.03 C 31.26 101.97 33.80 101.43 36.18 101.41 C 36.24 101.99 36.35 103.16 36.41 103.75 C 33.12 103.37 29.49 104.07 26.52 102.25 C 23.30 100.34 20.18 97.98 18.17 94.77 Z" />
<path fill="#333333" opacity="1.00" d=" M 213.27 97.71 C 216.19 100.87 216.78 105.45 219.72 108.67 C 214.74 107.65 213.73 101.96 213.27 97.71 Z" />
</g>
</svg>
