<?xml version="1.0" encoding="UTF-8" ?>
<!DOCTYPE svg PUBLIC "-//W3C//DTD SVG 1.1//EN" "http://www.w3.org/Graphics/SVG/1.1/DTD/svg11.dtd">
<svg width="250pt" height="300pt" viewBox="0 0 250 300" version="1.1" xmlns="http://www.w3.org/2000/svg"><g id="#4c4d4cff">
<path fill="#333333" opacity="1.00" d=" M 179.36 3.26 C 182.83 1.83 187.33 0.99 190.50 3.61 C 195.03 7.29 196.46 13.33 197.25 18.84 C 201.23 18.56 205.19 18.00 209.15 17.46 C 209.62 19.05 210.09 20.65 210.52 22.26 C 206.17 23.21 201.73 23.63 197.29 23.66 C 197.03 30.62 195.88 38.59 190.27 43.37 C 188.03 45.57 184.73 44.70 181.93 44.65 C 178.55 44.16 176.14 41.26 174.80 38.32 C 173.18 34.81 171.87 30.94 172.59 27.03 C 167.28 27.67 161.93 28.05 156.67 28.96 C 155.25 31.59 157.83 33.87 159.16 35.92 C 162.26 39.08 166.28 41.54 168.20 45.71 C 170.40 49.29 169.23 53.81 171.23 57.45 C 173.38 61.17 170.98 65.33 170.13 69.07 C 167.97 74.51 168.86 80.78 165.89 85.93 C 163.10 91.52 159.09 96.39 156.18 101.90 C 156.18 107.11 156.85 112.65 154.56 117.52 C 152.70 123.92 154.51 131.24 150.40 136.99 C 150.93 140.99 149.87 145.85 153.02 148.96 C 155.54 151.50 154.26 155.31 153.07 158.16 C 155.03 163.18 157.60 168.08 158.32 173.48 C 158.41 175.23 159.85 176.39 160.92 177.61 C 160.95 178.20 161.02 179.39 161.06 179.98 C 160.18 180.45 159.29 180.93 158.42 181.41 C 159.17 185.96 159.43 190.59 159.26 195.20 C 159.04 198.28 161.69 200.92 160.84 204.03 C 159.47 209.22 159.46 214.72 160.06 220.02 C 162.38 229.03 159.45 238.61 162.55 247.49 C 164.97 250.05 167.89 252.17 170.03 255.03 C 172.44 258.08 176.01 259.73 179.82 260.14 C 181.70 261.47 184.43 264.01 182.31 266.31 C 180.35 268.20 177.48 268.87 175.00 269.89 C 172.61 269.89 170.27 268.99 167.87 269.51 C 164.43 268.12 161.08 265.33 157.15 266.35 C 153.76 267.31 150.30 266.53 147.46 264.52 C 145.94 256.10 151.64 248.26 149.48 239.89 C 148.89 235.08 145.46 231.36 144.11 226.82 C 143.92 221.51 144.52 216.20 145.78 211.04 C 144.91 209.28 143.92 207.58 143.21 205.75 C 142.47 202.76 143.24 199.29 141.24 196.69 C 139.34 193.92 137.64 191.02 136.24 187.97 C 135.39 188.93 134.53 189.90 133.68 190.86 C 133.39 196.06 132.98 201.59 130.04 206.07 C 127.69 209.42 127.11 213.55 125.49 217.24 C 123.00 223.59 124.54 230.43 123.94 237.03 C 123.18 240.40 121.22 243.45 121.03 246.97 C 120.29 253.69 119.65 261.28 123.76 267.12 C 125.63 269.93 126.86 273.18 129.18 275.68 C 131.68 278.36 134.12 281.42 134.35 285.24 C 132.95 286.33 131.35 287.07 129.57 287.27 C 123.58 291.96 111.30 288.82 111.36 280.21 C 110.89 277.38 108.84 275.02 108.83 272.10 C 108.80 269.75 108.08 267.51 107.41 265.29 C 108.17 261.59 108.64 257.76 108.12 254.01 C 107.39 247.46 104.19 241.26 104.70 234.57 C 105.33 229.77 107.09 225.21 108.64 220.65 C 109.37 217.15 109.30 213.54 109.94 210.02 C 110.32 206.89 111.85 204.04 112.27 200.93 C 112.14 196.71 111.52 192.47 112.22 188.26 C 109.90 190.31 108.36 187.23 107.02 185.68 C 106.22 183.09 109.86 181.60 109.77 178.99 C 109.75 173.20 112.58 167.80 112.07 161.98 C 111.89 158.98 110.51 156.09 110.98 153.05 C 112.09 150.56 114.01 148.52 115.38 146.18 C 115.70 146.26 116.33 146.42 116.64 146.50 C 116.29 146.15 115.57 145.45 115.22 145.09 C 114.38 141.32 114.09 137.42 114.21 133.56 C 110.33 131.30 109.21 126.79 106.62 123.43 C 104.37 120.37 103.60 116.56 103.21 112.86 C 101.54 111.08 101.49 108.71 101.75 106.44 C 99.63 103.55 96.81 101.15 95.11 97.98 C 93.79 92.74 92.85 87.39 92.17 82.03 C 91.91 78.74 88.67 76.35 89.03 72.95 C 89.50 66.94 87.83 60.87 89.10 54.91 C 90.02 50.16 90.47 45.27 89.72 40.47 C 88.82 39.44 88.00 38.35 87.21 37.24 C 82.10 38.09 76.94 38.54 71.79 38.99 C 70.97 46.23 69.85 54.98 63.07 59.17 C 59.39 60.08 54.67 60.33 51.83 57.28 C 48.01 53.26 46.68 47.53 46.24 42.15 C 42.77 42.38 39.33 42.91 35.86 43.17 C 35.12 42.48 34.46 41.72 33.88 40.87 C 34.65 39.91 34.61 37.86 36.15 37.81 C 39.46 37.38 42.77 36.97 46.07 36.45 C 46.56 29.94 48.12 22.73 53.35 18.33 C 57.27 15.88 63.08 16.25 66.20 19.89 C 69.55 23.73 70.83 28.86 71.55 33.79 C 76.79 32.82 82.11 32.34 87.40 31.71 C 87.50 31.25 87.72 30.33 87.83 29.87 C 92.76 27.52 98.18 26.22 103.66 26.57 C 104.39 27.30 105.08 28.08 105.71 28.91 C 116.21 28.30 126.67 27.27 137.08 25.77 C 138.44 22.70 142.19 22.97 144.98 22.43 L 144.68 21.79 C 146.11 22.32 147.55 22.83 148.98 23.38 C 151.40 22.90 153.87 22.70 156.22 23.63 C 161.59 22.96 166.98 22.48 172.32 21.56 C 171.90 14.90 174.20 7.68 179.36 3.26 M 178.78 5.71 C 174.41 9.98 174.13 16.28 172.52 21.80 C 175.76 21.25 179.02 20.77 182.31 20.57 C 182.52 22.30 182.58 24.05 182.29 25.78 C 179.22 26.13 176.16 26.52 173.10 26.94 C 173.84 33.45 176.28 43.02 184.46 42.92 C 185.69 39.78 188.26 37.32 189.05 33.98 C 191.48 26.99 191.35 19.10 188.95 12.12 C 188.15 9.07 184.71 6.82 185.74 3.41 C 183.28 3.56 180.39 3.44 178.78 5.71 M 185.70 2.70 C 186.81 5.34 188.82 7.47 189.92 10.12 C 193.33 19.07 192.91 29.30 189.13 38.07 C 188.58 39.37 187.69 40.39 186.44 41.13 C 187.08 41.65 187.72 42.18 188.36 42.70 C 195.02 37.50 196.41 28.35 195.88 20.42 C 195.76 13.31 192.53 5.74 185.70 2.70 M 47.90 31.00 C 47.47 32.83 47.02 34.66 46.56 36.49 C 49.75 36.13 52.94 35.72 56.12 35.26 C 56.72 37.00 57.02 38.80 56.96 40.64 C 53.66 41.18 50.35 41.67 47.06 42.24 C 48.63 48.31 50.06 57.06 57.75 57.93 C 60.68 54.46 63.41 50.54 64.08 45.95 C 65.63 37.56 65.46 27.90 59.70 21.03 C 59.73 20.34 59.80 18.97 59.83 18.28 C 52.51 17.34 49.37 25.23 47.90 31.00 M 59.63 17.78 C 66.28 25.63 67.75 36.69 65.43 46.47 C 64.72 49.62 64.01 53.03 61.54 55.32 C 61.21 56.02 60.54 57.41 60.21 58.10 C 64.26 57.37 66.63 53.57 68.16 50.10 C 70.06 44.61 70.81 38.66 69.87 32.90 C 69.22 26.63 66.03 19.89 59.63 17.78 M 197.62 19.90 C 197.54 20.60 197.38 22.00 197.30 22.71 C 201.40 22.28 205.54 21.96 209.53 20.84 C 209.10 20.41 208.22 19.56 207.78 19.13 C 204.39 19.18 201.03 19.88 197.62 19.90 M 157.29 25.06 L 157.32 26.86 C 165.64 26.78 173.85 25.07 182.09 24.05 C 181.63 23.63 180.72 22.79 180.26 22.37 C 172.63 23.49 164.90 23.74 157.29 25.06 M 140.69 23.64 C 141.21 24.75 141.75 25.86 142.29 26.97 C 129.71 28.44 117.12 29.79 104.55 31.31 C 104.35 30.59 103.95 29.14 103.74 28.42 C 99.26 26.72 94.24 27.63 90.06 29.73 C 89.78 31.15 89.52 32.57 89.22 33.99 C 83.30 32.93 77.38 35.16 71.43 35.21 C 71.46 35.77 71.54 36.89 71.57 37.46 C 77.89 36.51 84.25 35.85 90.61 35.22 C 90.62 36.51 90.73 37.79 90.93 39.07 C 91.65 39.25 93.10 39.63 93.83 39.81 C 93.23 40.63 92.64 41.44 92.06 42.26 C 92.86 47.30 91.02 52.15 90.77 57.14 C 89.95 65.18 90.79 73.52 94.07 80.94 C 96.08 88.39 95.18 98.09 102.70 102.67 C 103.98 106.42 102.95 110.89 105.68 114.09 C 106.30 119.32 109.78 123.45 111.43 128.31 C 113.07 129.41 115.05 130.27 116.11 132.02 C 117.01 136.34 116.57 140.88 117.64 145.16 C 120.98 147.94 125.42 147.68 129.49 147.76 C 128.13 145.10 126.80 142.42 125.49 139.74 C 126.35 139.65 127.22 139.57 128.09 139.50 C 129.02 142.52 129.62 145.64 129.90 148.80 C 136.56 149.02 143.44 148.23 149.39 144.99 C 149.28 143.12 149.18 141.25 149.15 139.38 C 147.49 138.66 145.90 137.79 144.51 136.63 C 145.04 135.67 146.05 135.11 146.83 134.37 L 146.34 137.91 C 150.98 136.98 150.43 131.85 150.98 128.25 L 149.72 128.28 C 149.51 127.01 149.29 125.74 149.07 124.48 C 148.44 123.95 147.17 122.91 146.54 122.38 C 144.78 122.91 143.01 123.44 141.27 124.02 C 141.39 121.31 140.41 118.83 138.90 116.64 C 140.08 116.65 141.27 116.61 142.46 116.63 C 142.12 117.09 141.44 118.02 141.10 118.48 C 141.74 119.90 142.34 121.34 142.98 122.76 C 143.58 122.30 144.77 121.36 145.37 120.90 C 146.58 120.83 147.79 120.81 149.00 120.82 C 149.10 122.02 149.20 123.23 149.30 124.44 C 149.97 124.55 151.29 124.78 151.96 124.89 C 152.72 122.14 152.36 119.35 151.40 116.71 C 152.01 116.91 153.23 117.31 153.84 117.51 C 155.32 112.21 154.01 106.55 155.62 101.31 C 155.65 97.44 158.81 94.89 160.90 92.00 C 163.12 88.83 165.29 85.53 166.49 81.83 C 167.41 78.64 166.13 75.23 167.33 72.09 C 168.20 68.54 170.10 65.14 169.67 61.39 C 170.09 61.27 170.93 61.05 171.35 60.93 C 170.83 60.92 169.81 60.89 169.30 60.88 C 168.63 55.16 168.27 49.09 164.90 44.18 C 162.30 39.85 156.97 37.71 155.14 32.88 C 155.34 30.15 156.85 25.28 152.90 24.59 C 148.85 24.09 144.79 23.02 140.69 23.64 M 38.09 38.85 C 38.20 39.51 38.40 40.84 38.50 41.51 C 44.46 40.36 50.56 40.06 56.50 38.79 C 55.38 36.69 52.98 37.41 51.10 37.61 C 46.80 38.37 42.44 38.59 38.09 38.85 M 138.93 150.83 C 133.91 152.04 128.99 149.70 123.95 149.75 C 121.39 149.84 119.48 147.73 116.98 147.66 L 116.33 147.89 L 116.40 149.29 C 115.83 149.31 114.70 149.34 114.13 149.36 C 113.53 151.48 112.26 153.68 112.98 155.95 C 114.50 161.32 114.91 167.31 112.72 172.55 C 111.75 176.68 111.61 181.12 109.02 184.70 C 109.46 185.30 110.36 186.50 110.81 187.10 C 111.44 185.75 112.04 184.39 112.63 183.02 C 113.15 182.98 114.20 182.90 114.72 182.86 C 114.68 184.54 114.64 186.22 114.60 187.90 C 116.11 188.58 117.61 189.28 119.14 189.91 C 123.40 191.97 128.50 190.78 132.51 188.69 C 135.67 187.10 133.98 182.98 135.43 180.52 C 137.59 179.21 140.13 178.81 142.55 178.24 C 143.61 175.87 144.94 173.59 146.93 171.88 C 146.29 174.62 145.46 177.48 143.56 179.63 C 140.76 180.74 137.05 180.85 136.01 184.28 C 139.95 184.72 144.03 186.99 147.94 185.19 C 152.10 183.87 154.84 180.12 158.93 178.64 C 157.61 177.00 156.46 175.18 156.25 173.04 C 155.67 168.06 153.25 163.58 151.29 159.04 C 151.81 156.63 153.12 154.09 152.21 151.62 C 151.33 150.26 150.30 148.83 148.88 148.01 C 145.59 149.02 142.28 150.00 138.93 150.83 M 141.40 187.49 C 139.48 187.30 136.59 183.30 136.02 187.18 C 138.11 188.31 139.96 189.87 141.16 191.95 C 143.24 195.38 146.14 198.73 146.00 203.00 C 145.88 207.03 148.56 210.29 149.74 213.98 C 149.39 214.79 148.70 216.43 148.35 217.25 L 147.45 213.61 C 145.22 218.23 146.83 223.27 147.37 228.06 C 147.80 231.65 150.76 234.36 151.11 237.99 C 151.53 242.07 151.24 246.17 151.32 250.26 C 149.51 254.27 149.62 258.81 149.45 263.11 C 151.09 266.29 155.35 264.60 158.21 264.76 C 161.61 264.15 164.65 265.72 167.61 267.13 C 170.34 267.72 173.18 267.86 175.98 267.93 C 177.92 267.37 179.55 266.06 181.16 264.88 C 180.60 263.94 179.95 263.08 179.31 262.21 C 170.44 262.12 166.69 253.04 160.54 248.25 C 158.39 240.68 159.18 232.86 158.80 225.12 C 157.10 218.20 157.55 210.92 159.08 204.02 C 159.64 201.60 158.41 199.31 157.72 197.07 C 156.10 199.39 154.62 203.28 151.13 202.74 C 148.55 201.45 148.38 198.22 147.83 195.75 C 149.14 197.81 150.07 200.88 152.86 201.28 C 155.14 199.86 155.41 196.77 156.28 194.43 C 156.71 194.54 157.57 194.77 158.00 194.88 C 158.00 190.48 157.79 186.09 157.37 181.71 C 152.98 185.36 147.28 188.51 141.40 187.49 M 113.70 189.72 C 113.86 193.82 114.60 197.91 114.25 202.01 C 113.06 205.97 110.94 209.79 111.04 214.04 C 111.51 219.47 113.31 224.63 115.03 229.76 C 114.53 229.59 113.54 229.23 113.05 229.05 C 112.21 226.55 111.33 224.06 110.42 221.58 C 108.09 226.06 106.58 231.02 106.10 236.04 C 106.37 242.87 109.69 249.19 110.05 256.02 C 110.41 259.35 109.84 262.67 109.07 265.90 C 110.93 271.77 113.51 277.40 114.91 283.41 C 117.53 287.91 124.22 288.53 128.10 285.27 C 127.63 284.81 126.70 283.88 126.24 283.42 C 122.69 283.87 119.12 283.99 115.60 283.14 C 118.41 281.19 121.97 282.19 125.14 281.58 C 127.61 280.69 128.36 283.59 129.40 285.14 C 130.63 284.84 131.85 284.51 133.07 284.16 C 131.28 280.98 129.03 278.09 126.57 275.41 C 124.64 272.30 122.97 269.03 121.02 265.93 C 118.04 259.79 117.91 252.63 118.79 245.97 C 119.20 242.49 121.29 239.51 121.96 236.11 C 122.48 232.92 122.01 229.69 121.81 226.50 C 120.45 229.11 119.06 231.88 119.07 234.90 C 118.84 237.20 119.37 240.00 117.24 241.57 C 116.06 234.91 118.55 228.45 121.83 222.79 C 123.18 218.24 125.09 213.87 126.21 209.25 C 129.95 204.07 131.83 197.84 132.22 191.49 C 128.83 192.23 125.40 193.25 121.89 192.98 C 118.99 192.39 116.45 190.75 113.70 189.72 Z" />
<path fill="#333333" opacity="1.00" d=" M 117.54 31.81 C 125.74 31.18 133.85 29.76 142.06 29.30 C 140.76 30.22 139.46 31.15 138.40 32.34 C 140.43 32.96 142.47 33.55 144.53 34.04 C 144.85 33.44 145.48 32.24 145.80 31.65 C 146.49 31.66 147.87 31.68 148.56 31.69 C 148.58 31.28 148.62 30.48 148.64 30.08 C 150.75 33.15 153.36 35.86 155.20 39.12 C 151.57 38.29 150.26 34.57 148.13 32.02 C 146.86 32.71 145.61 33.42 144.37 34.16 C 146.86 36.89 149.21 39.90 150.37 43.45 C 150.93 46.62 151.07 49.85 151.57 53.03 C 150.08 48.06 149.07 42.65 145.19 38.89 C 143.15 35.23 136.88 36.26 136.58 31.31 C 127.35 32.49 118.12 33.71 108.86 34.67 C 106.63 37.21 104.37 39.74 102.24 42.37 C 102.12 46.67 102.98 50.98 104.99 54.79 C 107.60 59.91 105.23 65.64 105.07 71.02 C 104.69 73.17 106.22 74.92 107.51 76.42 C 106.48 76.26 105.45 76.11 104.42 75.97 C 104.57 77.68 104.71 79.40 104.85 81.12 C 107.10 84.30 107.29 88.23 107.81 91.94 C 109.26 93.72 110.97 95.28 112.36 97.11 C 110.94 96.53 109.53 95.92 108.12 95.30 C 108.43 96.75 108.74 98.20 109.05 99.65 C 108.24 99.18 107.44 98.72 106.63 98.26 C 109.40 92.07 104.63 86.46 102.81 80.81 C 103.44 77.86 104.58 75.00 104.44 71.92 C 102.03 69.65 98.81 70.36 95.84 70.49 C 97.37 69.65 99.13 69.71 100.83 69.74 C 100.86 69.44 100.94 68.85 100.97 68.56 C 104.87 69.46 104.51 64.58 104.81 62.03 C 105.33 58.06 102.72 54.80 101.89 51.09 C 100.99 47.99 100.68 44.76 100.52 41.54 C 102.09 39.46 103.58 37.32 105.32 35.38 C 105.76 34.40 106.21 33.43 106.71 32.48 C 110.34 33.17 113.94 32.18 117.54 31.81 Z" />
<path fill="#333333" opacity="1.00" d=" M 121.60 56.51 C 125.44 51.45 132.63 51.59 138.24 52.78 C 143.01 54.18 144.17 59.29 144.61 63.60 C 146.84 69.28 145.27 75.31 144.02 81.01 C 143.73 82.41 143.08 83.81 143.69 85.24 C 145.37 82.59 146.85 79.72 149.47 77.84 C 148.67 72.62 152.08 68.33 152.84 63.44 C 153.08 63.56 153.58 63.80 153.82 63.92 C 153.80 61.54 153.72 59.16 153.60 56.78 C 154.42 58.75 154.43 61.44 156.74 62.34 C 154.88 65.40 151.22 68.01 151.87 72.01 C 152.74 76.82 151.00 81.47 150.97 86.25 C 152.31 84.77 153.15 82.17 155.66 82.70 C 157.64 76.96 160.05 71.20 160.22 65.04 C 160.46 61.94 162.66 59.52 165.09 57.80 C 165.73 58.21 166.37 58.63 166.99 59.07 C 165.45 60.15 163.66 60.96 162.46 62.45 C 161.01 66.04 161.76 70.22 159.58 73.56 C 157.70 76.28 157.81 79.57 157.58 82.71 C 155.56 83.54 153.57 84.84 153.00 87.09 C 152.49 89.47 152.49 91.99 151.27 94.17 C 151.01 97.24 149.89 100.36 151.10 103.37 C 151.25 106.57 150.70 110.08 148.94 112.82 C 148.91 109.44 150.01 106.20 150.20 102.84 C 147.02 100.76 149.32 97.14 149.50 94.23 C 150.32 89.42 149.35 84.57 149.85 79.74 C 148.78 81.80 147.61 83.80 146.42 85.80 C 141.82 88.59 137.48 91.90 134.17 96.17 C 134.26 90.88 139.90 88.95 143.24 85.84 C 139.04 85.44 134.58 85.52 130.83 83.32 C 127.40 81.93 126.94 77.74 124.36 75.42 C 124.18 77.74 124.07 80.08 123.47 82.34 C 123.20 79.99 123.22 77.62 123.32 75.26 C 121.88 73.41 120.00 71.61 120.04 69.08 C 119.63 64.90 118.61 60.03 121.60 56.51 M 124.50 56.62 C 121.28 59.18 120.82 63.58 120.95 67.41 C 121.47 67.31 122.50 67.11 123.01 67.02 C 124.05 68.21 122.21 69.95 122.09 71.28 C 123.60 72.69 125.32 73.85 126.91 75.17 C 128.29 77.04 128.78 79.76 131.02 80.88 C 133.57 82.07 136.29 82.87 138.96 83.74 C 139.91 83.35 140.87 82.96 141.82 82.58 C 144.98 74.74 144.62 65.96 141.83 58.09 C 140.79 56.18 138.90 54.96 137.27 53.61 C 132.89 53.54 127.98 53.52 124.50 56.62 Z" />
<path fill="#333333" opacity="1.00" d=" M 106.38 78.02 C 106.91 77.56 107.44 77.10 107.98 76.64 C 108.96 79.50 110.43 82.17 111.32 85.08 C 112.63 85.70 113.95 86.31 115.28 86.90 C 114.81 87.82 114.33 88.73 113.86 89.66 L 112.25 88.48 C 112.08 89.23 111.74 90.75 111.56 91.50 C 110.45 86.78 108.77 82.25 106.38 78.02 Z" />
<path fill="#333333" opacity="1.00" d=" M 115.35 86.94 C 117.40 86.01 119.47 85.11 121.52 84.17 C 121.54 84.84 121.57 86.18 121.59 86.86 C 120.11 87.38 118.63 87.91 117.16 88.47 C 116.55 87.97 115.95 87.46 115.35 86.94 Z" />
<path fill="#333333" opacity="1.00" d=" M 136.33 86.37 C 136.82 86.26 137.79 86.05 138.28 85.95 C 138.41 86.97 137.24 89.09 136.07 88.76 C 136.14 88.16 136.27 86.97 136.33 86.37 Z" />
<path fill="#333333" opacity="1.00" d=" M 151.72 96.71 C 152.84 93.81 154.32 91.07 156.09 88.51 C 156.41 91.23 155.10 93.65 153.92 95.99 C 153.37 96.17 152.27 96.53 151.72 96.71 Z" />
<path fill="#333333" opacity="1.00" d=" M 118.77 91.02 C 122.41 91.25 126.01 92.01 129.61 92.63 C 131.45 92.80 132.31 94.57 133.45 95.77 C 129.59 94.98 125.76 94.06 121.96 93.04 C 120.62 92.88 119.67 91.93 118.77 91.02 Z" />
<path fill="#333333" opacity="1.00" d=" M 136.02 102.22 C 135.58 100.76 134.26 99.31 134.98 97.73 C 136.61 97.45 136.58 99.73 137.23 100.70 C 138.40 103.82 139.11 107.11 139.30 110.44 C 141.94 111.44 144.44 109.44 147.03 109.09 C 144.21 111.40 140.67 112.12 137.10 111.89 C 135.07 113.86 131.96 113.57 129.39 114.21 C 127.79 114.63 126.39 113.73 125.38 112.58 C 127.67 112.57 129.97 112.58 132.26 112.69 C 133.76 111.79 135.28 110.91 136.82 110.08 C 136.85 107.45 137.33 104.64 136.02 102.22 Z" />
<path fill="#333333" opacity="1.00" d=" M 108.95 102.52 C 112.51 105.57 113.69 110.64 113.39 115.16 C 111.67 111.04 109.12 107.10 108.95 102.52 Z" />
<path fill="#333333" opacity="1.00" d=" M 114.67 105.37 C 116.47 106.63 117.46 108.62 118.74 110.33 C 120.18 112.31 122.16 114.04 122.57 116.59 C 118.28 114.50 116.28 109.57 114.67 105.37 Z" />
<path fill="#333333" opacity="1.00" d=" M 132.67 120.09 C 131.81 119.02 133.14 116.86 134.46 117.28 C 135.18 118.34 134.14 120.81 132.67 120.09 Z" />
<path fill="#333333" opacity="1.00" d=" M 116.24 122.14 C 118.18 121.97 120.09 121.57 121.97 121.07 C 123.88 122.02 125.36 123.68 126.65 125.35 C 124.92 125.23 123.47 124.33 122.05 123.45 C 120.42 123.87 118.77 124.16 117.13 124.48 C 116.72 124.30 115.89 123.94 115.48 123.76 C 115.67 123.36 116.05 122.55 116.24 122.14 Z" />
<path fill="#333333" opacity="1.00" d=" M 135.49 123.20 C 136.92 122.29 138.73 122.82 140.30 122.97 C 140.03 125.18 137.53 124.79 135.98 125.48 C 134.35 126.29 132.81 127.29 131.20 128.14 C 132.67 126.53 133.94 124.74 135.49 123.20 Z" />
<path fill="#333333" opacity="1.00" d=" M 141.07 124.32 C 144.74 128.87 143.47 136.09 140.27 140.60 C 140.16 140.02 139.93 138.87 139.81 138.29 C 138.09 138.07 136.43 137.59 134.84 136.89 C 135.25 136.67 136.06 136.23 136.46 136.01 C 137.82 136.73 139.18 137.64 140.79 137.60 C 141.54 134.25 140.80 130.78 141.64 127.45 C 141.44 126.40 141.25 125.36 141.07 124.32 Z" />
<path fill="#333333" opacity="1.00" d=" M 118.45 127.93 C 119.22 127.36 119.99 126.79 120.77 126.23 C 122.86 127.92 124.92 129.67 126.72 131.68 C 124.65 131.09 122.67 130.25 120.79 129.23 C 119.19 129.18 117.60 129.13 116.01 129.05 C 115.80 128.71 115.39 128.01 115.18 127.67 C 116.27 127.76 117.36 127.85 118.45 127.93 Z" />
<path fill="#333333" opacity="1.00" d=" M 120.76 133.42 C 121.26 133.57 122.26 133.86 122.75 134.01 C 124.05 134.96 125.36 135.89 126.61 136.90 C 125.24 136.82 123.86 136.75 122.49 136.69 C 121.91 135.60 121.33 134.51 120.76 133.42 Z" />
<path fill="#333333" opacity="1.00" d=" M 128.70 136.17 C 130.45 136.53 132.21 136.86 133.97 137.21 C 133.72 137.51 133.24 138.12 133.00 138.43 C 133.89 139.36 134.75 140.33 135.57 141.33 C 132.47 140.96 130.74 138.18 128.70 136.17 Z" />
<path fill="#333333" opacity="1.00" d=" M 132.05 153.43 C 138.14 153.65 144.25 152.24 149.77 149.70 C 148.82 150.72 148.20 152.18 146.87 152.80 C 140.73 155.29 133.94 155.95 127.41 154.90 C 126.38 159.61 121.96 162.29 117.71 163.71 C 117.24 163.62 116.30 163.43 115.82 163.34 C 119.77 161.04 124.08 158.89 126.13 154.54 C 124.28 153.70 122.38 152.98 120.49 152.27 C 119.38 154.67 118.56 157.20 118.18 159.82 C 117.86 159.59 117.22 159.12 116.90 158.88 C 117.14 155.95 118.24 153.21 119.57 150.63 C 123.70 151.67 127.74 153.32 132.05 153.43 Z" />
<path fill="#333333" opacity="1.00" d=" M 127.75 163.47 C 131.88 159.35 138.36 159.42 143.74 158.18 C 143.50 158.70 143.01 159.75 142.77 160.27 C 137.64 160.65 132.80 162.61 127.75 163.47 Z" />
<path fill="#333333" opacity="1.00" d=" M 144.19 159.20 C 144.01 157.24 147.65 157.71 148.65 158.63 C 147.88 159.97 145.47 159.79 144.19 159.20 Z" />
<path fill="#333333" opacity="1.00" d=" M 132.39 166.65 C 137.84 163.72 143.37 160.58 149.61 159.76 C 144.88 163.89 137.44 163.97 133.24 168.77 C 139.21 168.86 145.48 167.90 151.27 166.04 C 148.39 170.46 142.50 169.74 137.92 170.16 C 133.72 170.18 129.23 172.53 125.27 170.26 C 127.51 169.85 129.78 169.59 132.05 169.43 C 132.16 168.50 132.27 167.57 132.39 166.65 Z" />
<path fill="#333333" opacity="1.00" d=" M 116.90 204.93 C 119.36 204.78 121.75 204.17 123.96 203.06 C 124.61 204.84 125.26 206.62 125.85 208.42 C 124.96 207.54 124.17 206.56 123.27 205.71 C 121.51 206.04 119.78 206.49 118.05 206.92 C 117.79 207.77 117.27 209.48 117.01 210.34 C 116.34 208.58 116.65 206.73 116.90 204.93 Z" />
<path fill="#333333" opacity="1.00" d=" M 118.80 216.39 C 118.78 215.49 118.77 214.59 118.76 213.69 C 120.30 214.10 121.85 214.51 123.37 215.00 C 121.90 215.63 120.36 216.06 118.80 216.39 Z" />
<path fill="#333333" opacity="1.00" d=" M 154.81 259.48 C 152.22 257.20 151.72 253.65 153.42 250.69 C 153.91 253.61 154.37 256.54 154.81 259.48 Z" />
<path fill="#333333" opacity="1.00" d=" M 111.64 267.72 C 113.15 264.73 114.07 260.35 117.80 259.48 C 116.12 262.48 115.11 266.27 111.64 267.72 Z" />
</g>
</svg>
