<?xml version="1.0" encoding="UTF-8" ?>
<!DOCTYPE svg PUBLIC "-//W3C//DTD SVG 1.1//EN" "http://www.w3.org/Graphics/SVG/1.1/DTD/svg11.dtd">
<svg width="241pt" height="225pt" viewBox="0 0 241 225" version="1.1" xmlns="http://www.w3.org/2000/svg"><g id="#505150ff">
<path fill="#333333" opacity="1.00" d=" M 198.53 63.36 C 199.91 63.81 201.31 64.23 202.65 64.79 C 204.06 66.04 204.92 67.78 206.18 69.17 C 209.28 68.31 213.25 67.32 215.59 70.28 C 219.52 76.62 222.09 83.70 225.99 90.06 C 227.84 92.74 227.80 96.06 226.53 98.96 C 224.93 100.54 223.61 102.39 221.90 103.86 C 218.61 105.73 214.76 106.93 210.96 106.12 C 210.52 106.28 209.63 106.60 209.19 106.76 C 206.39 105.20 203.02 103.57 202.67 99.93 C 205.59 100.91 208.03 102.81 210.38 104.74 C 210.65 101.95 211.69 99.35 212.61 96.74 C 209.64 93.47 206.73 89.11 201.71 89.49 C 201.21 88.90 200.21 87.71 199.72 87.12 C 202.23 87.35 204.76 87.63 207.30 87.62 C 209.66 90.06 211.63 92.83 213.59 95.60 C 213.85 98.54 213.77 101.48 213.60 104.43 C 215.78 104.71 217.80 103.57 219.72 102.70 C 222.34 101.29 225.59 99.40 225.53 96.00 C 224.24 89.26 220.48 83.39 218.01 77.07 C 215.53 73.88 213.69 69.25 208.96 69.22 C 207.88 70.77 206.77 72.30 205.77 73.89 C 201.76 77.19 196.58 78.05 191.56 78.42 C 190.60 78.05 189.68 77.60 188.80 77.08 C 193.37 75.93 198.27 76.02 202.55 73.87 C 202.56 73.31 202.57 72.19 202.58 71.63 C 203.20 71.57 204.43 71.46 205.05 71.41 C 203.15 68.42 201.07 64.78 196.93 65.34 C 193.78 67.50 193.17 72.05 189.52 73.47 C 185.83 75.25 182.29 77.67 178.05 77.78 C 171.80 78.02 165.63 79.41 159.94 82.01 C 156.87 83.30 155.00 86.77 151.51 87.09 C 147.48 87.52 143.43 87.12 139.40 86.89 C 139.84 88.00 140.27 89.13 140.69 90.26 C 143.53 89.76 146.40 89.86 149.10 90.95 C 151.47 90.50 153.86 90.23 156.25 89.87 C 157.25 88.64 158.41 87.52 159.85 86.81 C 163.56 84.88 165.65 80.30 170.30 80.24 C 166.95 83.98 162.87 87.02 158.75 89.87 C 159.73 90.02 161.69 90.33 162.67 90.49 C 165.43 87.30 170.02 86.95 172.97 84.01 C 176.93 80.16 182.15 77.78 187.65 77.28 C 188.41 77.85 189.17 78.42 189.93 79.00 C 185.81 80.11 180.54 79.14 177.68 82.94 C 174.39 86.57 169.63 88.08 165.35 90.14 C 160.45 92.42 154.96 91.32 149.76 91.61 C 151.07 94.10 152.45 96.57 153.90 98.99 C 156.77 96.96 160.23 96.96 163.58 97.32 C 163.66 97.80 163.81 98.78 163.88 99.26 C 160.66 99.16 157.44 99.46 154.33 100.34 C 156.54 104.68 157.97 109.48 156.67 114.33 C 162.77 112.81 167.46 108.05 169.96 102.43 C 170.38 102.45 171.22 102.49 171.64 102.51 C 170.93 104.15 170.20 105.77 169.50 107.41 C 174.01 106.75 175.38 101.94 179.06 99.96 C 183.15 96.88 188.42 95.70 192.14 92.09 C 194.00 90.37 195.91 88.70 197.91 87.16 C 199.83 89.91 202.08 92.38 204.45 94.75 C 204.20 95.54 203.71 97.14 203.47 97.93 L 202.08 97.38 C 202.16 94.10 199.14 92.37 197.17 90.26 C 193.92 92.65 191.33 95.95 187.55 97.58 C 184.41 98.93 181.49 100.65 178.81 102.77 C 176.38 106.26 172.84 109.22 168.40 109.37 C 164.34 113.66 158.67 115.60 153.80 118.72 C 149.89 120.93 145.27 120.22 141.01 121.02 C 137.40 121.71 133.74 121.37 130.11 121.17 C 130.82 120.52 131.54 119.88 132.26 119.25 C 137.91 119.85 143.46 118.51 149.04 117.97 C 151.48 117.81 153.54 116.39 155.36 114.88 C 154.41 109.36 154.30 103.56 151.82 98.43 C 150.41 96.16 148.54 94.23 146.81 92.20 C 145.59 91.95 144.37 91.71 143.14 91.48 C 138.64 94.33 134.18 89.91 130.15 88.12 C 126.50 87.26 122.79 87.57 119.16 88.31 C 120.21 87.48 121.27 86.64 122.32 85.79 C 118.84 84.51 115.08 84.68 111.53 83.75 C 116.05 83.32 121.70 82.19 125.33 85.64 C 128.20 85.53 131.11 85.26 133.93 85.93 C 139.97 87.85 145.91 85.17 151.94 84.85 C 154.50 84.84 156.07 82.57 158.09 81.35 C 161.68 78.81 165.95 77.57 170.17 76.55 C 174.65 75.50 179.46 75.89 183.73 73.97 C 186.04 72.91 188.44 71.94 190.46 70.37 C 191.78 68.98 192.48 67.14 193.69 65.66 C 195.09 64.53 196.92 64.13 198.53 63.36 M 132.91 86.79 C 135.19 88.43 137.66 89.80 140.17 91.06 C 138.38 88.68 136.06 86.72 132.91 86.79 Z" />
<path fill="#333333" opacity="1.00" d=" M 42.88 75.89 C 44.38 73.19 48.56 73.26 50.33 75.65 C 54.27 80.43 56.38 86.77 55.43 92.97 C 59.92 91.69 64.49 92.68 68.96 93.47 C 72.55 92.39 76.29 91.47 80.04 92.39 C 85.13 93.71 90.17 91.42 95.18 90.67 C 98.46 91.87 101.44 93.91 104.99 94.30 C 111.69 95.25 115.80 101.15 119.93 105.87 C 119.71 109.22 119.68 112.57 119.63 115.93 C 120.70 116.87 121.75 117.85 122.91 118.68 C 124.71 119.45 126.10 117.92 127.43 117.01 C 128.56 117.60 129.69 118.19 130.82 118.81 C 130.15 119.46 129.48 120.10 128.80 120.74 L 127.98 119.14 C 127.30 119.74 125.92 120.94 125.24 121.54 C 123.19 121.15 121.34 120.21 119.66 119.01 C 112.99 121.15 108.40 127.06 101.51 128.81 C 98.85 134.25 98.17 140.31 96.48 146.07 C 95.64 149.19 95.89 152.57 94.32 155.50 C 94.93 155.36 96.16 155.09 96.77 154.95 L 95.66 155.51 C 96.13 155.97 97.07 156.90 97.54 157.36 C 98.68 154.95 100.70 153.28 103.38 152.91 C 101.75 155.08 100.00 157.15 98.24 159.21 C 99.80 162.24 101.26 165.37 101.33 168.85 C 107.86 164.39 115.04 159.26 116.96 151.08 C 118.62 144.87 115.60 138.75 112.40 133.59 C 111.19 131.31 108.80 129.77 108.19 127.18 C 112.96 128.80 114.50 134.24 116.88 138.17 C 117.83 141.41 118.82 144.75 118.98 148.14 C 118.03 153.34 116.13 158.62 112.41 162.51 C 110.10 165.21 106.91 166.88 104.13 169.02 C 103.25 169.02 101.47 169.00 100.59 169.00 C 99.88 170.55 99.15 172.10 98.43 173.65 C 96.21 174.33 93.90 174.29 91.79 173.27 C 86.21 175.84 80.00 175.27 74.04 175.66 C 61.81 176.25 49.60 174.05 37.94 170.49 C 31.57 168.40 27.74 162.32 25.88 156.21 C 24.16 152.57 25.54 148.58 25.79 144.78 C 26.33 144.62 27.43 144.30 27.98 144.14 C 27.39 147.07 26.72 150.01 26.70 153.01 C 28.71 158.46 30.47 164.98 36.17 167.72 C 53.10 173.61 71.47 175.34 89.17 172.32 C 88.50 168.09 86.05 164.46 82.96 161.61 C 82.04 162.16 81.08 162.56 80.06 162.80 C 80.04 160.75 82.73 160.73 84.03 159.78 C 87.77 162.98 89.32 167.71 91.73 171.85 C 93.32 171.83 94.90 171.82 96.48 171.83 C 99.35 169.13 99.87 164.73 97.72 161.44 C 96.18 157.52 93.12 154.74 90.01 152.07 C 91.12 152.67 92.21 153.30 93.30 153.93 C 94.27 147.90 95.56 141.94 96.98 136.01 C 98.64 130.81 100.81 125.57 100.62 120.01 C 99.78 113.72 99.67 106.13 95.10 101.42 C 89.27 102.29 83.67 104.26 78.02 105.89 C 74.47 106.68 72.17 109.91 68.61 110.69 C 73.36 104.63 81.26 102.40 88.56 101.38 C 91.22 100.38 94.04 99.08 96.92 99.98 C 98.31 103.50 100.97 106.58 101.48 110.39 C 103.16 109.85 104.88 109.38 106.62 109.04 C 105.56 110.68 103.76 111.36 102.02 112.00 C 102.16 116.76 102.53 121.51 102.50 126.27 C 108.54 125.21 111.97 119.38 117.61 117.31 C 117.48 112.28 118.69 106.25 114.71 102.33 C 111.23 97.80 105.29 96.85 100.03 95.88 C 99.52 95.24 98.49 93.96 97.98 93.31 C 97.36 94.19 96.77 95.08 96.18 95.98 C 92.39 96.71 88.76 98.06 85.06 99.11 C 84.60 98.76 83.69 98.06 83.24 97.71 C 87.90 96.69 92.76 95.59 96.83 93.02 C 92.46 92.47 88.13 93.35 84.11 95.06 C 82.05 94.76 80.11 93.87 78.01 93.80 C 73.50 93.34 69.22 96.83 64.80 94.65 C 61.64 97.55 57.17 98.57 52.99 98.92 C 49.69 99.19 47.13 101.54 44.17 102.77 C 46.80 98.13 52.19 96.31 57.29 96.80 C 59.31 95.13 61.92 94.84 64.40 94.38 C 61.11 93.70 57.70 93.91 54.50 94.93 C 53.27 91.88 53.75 88.55 53.80 85.36 C 52.74 88.99 51.46 92.55 49.93 96.01 C 48.11 96.23 46.29 96.61 44.44 96.68 C 43.78 95.94 43.15 95.18 42.54 94.39 C 43.15 94.68 44.35 95.25 44.96 95.53 C 46.33 94.79 48.64 94.94 49.03 93.05 C 50.10 90.13 51.35 87.26 53.22 84.74 C 51.63 81.16 50.59 77.00 47.08 74.74 C 43.66 76.77 41.84 80.39 39.68 83.56 C 38.40 88.15 38.61 93.11 36.67 97.54 C 35.62 99.84 34.96 102.27 34.79 104.80 C 36.63 101.55 39.81 99.26 43.59 99.03 C 41.46 100.99 38.28 102.23 37.41 105.25 C 36.88 107.35 37.86 110.36 35.13 111.15 C 34.75 110.83 33.97 110.18 33.59 109.86 C 30.07 110.03 28.22 106.28 24.92 105.61 C 19.21 103.45 13.05 107.80 10.93 113.05 C 9.34 117.28 6.48 122.14 9.23 126.55 C 11.07 131.41 16.43 132.84 20.37 135.48 C 23.16 137.32 26.47 139.81 29.97 138.25 C 33.31 137.82 34.49 134.28 35.52 131.58 C 36.79 128.54 35.16 125.40 34.72 122.38 C 37.33 124.09 37.51 127.35 38.21 130.09 C 40.09 128.34 41.76 125.89 44.53 125.67 C 46.87 129.32 51.24 130.21 55.29 130.13 C 55.43 130.46 55.71 131.12 55.85 131.45 C 57.17 132.56 58.47 133.70 59.69 134.92 C 65.24 136.97 72.29 134.53 75.37 129.47 C 74.74 129.32 73.47 129.02 72.84 128.87 C 72.90 128.43 73.03 127.54 73.10 127.10 C 73.59 127.52 74.58 128.36 75.07 128.77 C 75.32 128.05 75.82 126.61 76.07 125.89 C 76.51 125.71 77.38 125.35 77.82 125.17 C 77.55 126.27 77.27 127.37 77.00 128.47 C 78.76 127.97 80.51 127.44 82.24 126.88 C 82.17 126.03 82.03 124.33 81.96 123.48 C 80.09 123.82 78.24 123.55 76.57 122.64 C 78.27 122.02 80.01 121.49 81.73 120.96 C 80.14 118.74 80.64 116.19 82.12 114.11 C 81.86 113.63 81.59 113.15 81.31 112.68 C 79.25 115.24 75.92 115.57 72.87 115.56 C 73.25 114.42 73.62 113.28 73.99 112.14 C 73.71 111.42 73.15 109.99 72.86 109.28 C 75.42 110.13 75.71 112.61 75.63 114.94 C 79.15 112.99 81.65 109.84 84.61 107.23 C 83.88 109.12 83.01 110.95 82.00 112.71 C 82.68 112.45 84.04 111.95 84.72 111.69 C 80.48 120.02 85.72 128.55 86.24 137.01 C 86.55 141.05 86.56 145.14 86.12 149.18 C 85.78 152.01 83.29 153.68 81.40 155.50 C 79.07 157.83 77.29 160.64 75.14 163.13 C 73.83 164.43 72.39 165.66 71.62 167.40 C 74.72 167.24 77.09 165.39 79.05 163.16 C 80.36 165.83 76.66 167.49 75.09 169.03 C 71.79 169.00 68.53 168.24 65.23 168.05 C 65.23 167.70 65.24 167.02 65.25 166.68 C 66.58 166.70 67.91 166.72 69.24 166.75 C 74.14 161.40 79.16 156.14 83.45 150.27 C 85.59 146.40 83.07 142.17 83.67 138.09 C 83.01 137.52 82.35 136.96 81.68 136.41 L 82.17 137.79 C 77.40 139.53 72.19 139.12 67.58 137.11 C 64.50 137.71 61.31 137.33 58.41 136.13 C 57.09 134.64 55.56 133.37 54.03 132.11 C 49.95 132.15 45.88 131.01 43.36 127.59 C 41.22 129.70 38.87 131.57 36.47 133.37 C 35.22 135.71 34.15 138.35 32.03 140.06 C 27.34 142.26 22.55 139.57 18.40 137.47 C 15.10 135.55 12.06 133.21 9.16 130.74 C 5.62 126.39 5.13 119.94 8.07 115.13 C 9.80 112.48 10.93 109.43 12.95 107.00 C 15.97 104.96 19.46 102.89 23.23 103.07 C 27.56 104.06 31.18 106.84 34.71 109.39 C 35.06 108.88 35.41 108.38 35.77 107.88 C 34.52 106.14 32.62 104.32 33.09 101.96 C 33.44 98.19 35.77 95.08 37.19 91.68 C 36.97 88.56 35.75 84.78 38.14 82.17 C 39.95 80.25 41.59 78.20 42.88 75.89 M 76.94 130.35 C 75.03 132.89 72.49 134.78 69.83 136.46 C 73.63 137.16 77.61 137.41 81.34 136.20 C 82.29 136.18 83.25 136.16 84.20 136.15 C 84.11 134.13 84.09 132.13 84.00 130.12 L 81.57 131.13 C 82.02 130.06 82.93 127.91 83.38 126.84 C 81.97 129.16 79.31 129.70 76.94 130.35 Z" />
<path fill="#333333" opacity="1.00" d=" M 182.72 91.95 C 186.11 88.66 190.07 85.99 194.31 83.93 C 191.54 87.85 187.07 90.20 182.72 91.95 Z" />
<path fill="#333333" opacity="1.00" d=" M 95.69 90.85 C 99.15 86.93 104.36 84.80 109.44 84.00 C 107.36 85.23 105.35 86.55 103.28 87.79 C 103.13 88.23 102.82 89.13 102.67 89.57 C 102.02 89.40 101.38 89.21 100.74 89.02 C 99.22 90.06 97.54 90.67 95.69 90.85 Z" />
<path fill="#333333" opacity="1.00" d=" M 166.67 93.84 C 169.32 93.01 171.97 92.21 174.59 91.30 C 174.61 91.78 174.65 92.73 174.67 93.21 C 171.97 94.02 169.26 94.79 166.54 95.53 C 166.57 95.11 166.64 94.26 166.67 93.84 Z" />
<path fill="#333333" opacity="1.00" d=" M 184.96 93.03 C 186.23 92.70 187.52 92.40 188.81 92.14 C 186.26 94.44 183.02 95.80 179.76 96.75 C 181.16 95.10 183.04 93.99 184.96 93.03 Z" />
<path fill="#333333" opacity="1.00" d=" M 66.10 97.62 C 69.10 96.97 72.18 97.16 74.97 98.51 C 77.63 98.34 80.43 97.09 83.02 98.24 C 82.84 99.55 81.14 99.26 80.24 99.73 C 76.54 100.44 73.89 103.20 71.02 105.40 C 70.78 105.00 70.29 104.20 70.05 103.80 C 71.70 102.67 73.23 101.38 74.72 100.04 C 74.01 99.74 72.58 99.12 71.87 98.81 C 68.10 99.60 63.93 98.32 60.50 100.50 C 56.38 102.63 51.42 103.58 48.36 107.35 C 45.87 109.67 45.15 113.16 43.05 115.74 C 43.03 115.08 43.00 113.74 42.98 113.07 C 41.11 114.00 39.19 114.87 37.12 115.29 C 38.92 112.17 42.95 111.74 45.04 108.96 C 47.37 106.02 49.99 103.07 53.57 101.67 C 57.67 100.07 61.54 97.50 66.10 97.62 Z" />
<path fill="#333333" opacity="1.00" d=" M 130.84 98.88 C 131.75 98.30 132.66 97.71 133.57 97.13 C 133.11 99.73 132.32 102.24 131.46 104.73 C 130.96 104.66 129.94 104.52 129.43 104.45 C 129.84 102.58 130.32 100.72 130.84 98.88 Z" />
<path fill="#333333" opacity="1.00" d=" M 62.95 106.95 C 62.01 105.64 64.15 103.68 65.41 104.59 C 66.31 105.92 64.25 107.91 62.95 106.95 Z" />
<path fill="#333333" opacity="1.00" d=" M 157.58 108.68 C 159.35 106.55 162.14 106.01 164.63 105.16 C 164.53 105.66 164.34 106.66 164.24 107.16 C 162.03 107.72 159.83 108.35 157.58 108.68 Z" />
<path fill="#333333" opacity="1.00" d=" M 55.81 111.19 C 56.85 108.99 58.51 107.13 60.71 106.05 C 59.47 108.10 58.17 110.30 55.81 111.19 Z" />
<path fill="#333333" opacity="1.00" d=" M 89.48 105.63 C 91.58 105.94 93.31 107.12 94.45 108.88 C 93.79 110.20 93.15 111.53 92.53 112.86 C 91.98 112.73 90.89 112.46 90.34 112.33 C 90.99 111.28 91.65 110.24 92.31 109.20 C 91.35 108.03 90.37 106.86 89.48 105.63 Z" />
<path fill="#333333" opacity="1.00" d=" M 60.19 110.01 C 62.45 107.35 68.10 108.67 67.24 112.59 C 66.21 111.74 65.17 110.89 64.14 110.04 C 63.15 110.03 61.17 110.01 60.19 110.01 Z" />
<path fill="#333333" opacity="1.00" d=" M 55.03 110.76 C 56.56 113.77 57.80 116.91 59.57 119.80 C 58.11 119.22 56.66 118.64 55.20 118.08 C 55.18 115.64 55.01 113.20 55.03 110.76 Z" />
<path fill="#333333" opacity="1.00" d=" M 25.84 120.06 C 27.18 117.09 30.91 115.37 33.70 117.56 C 31.14 118.56 28.52 119.40 25.84 120.06 Z" />
<path fill="#333333" opacity="1.00" d=" M 39.39 118.07 C 40.88 117.88 42.59 116.97 43.98 118.01 C 45.68 119.31 46.66 121.33 48.39 122.60 C 51.33 124.20 54.51 125.30 57.42 126.97 C 55.11 127.30 52.75 126.99 50.53 126.33 C 46.38 124.14 43.91 119.71 39.39 118.07 Z" />
<path fill="#333333" opacity="1.00" d=" M 57.45 129.99 C 57.71 126.45 58.62 121.73 62.84 121.11 C 61.20 124.16 59.42 127.14 57.45 129.99 Z" />
</g>
</svg>
