<?xml version="1.0" encoding="UTF-8" ?>
<!DOCTYPE svg PUBLIC "-//W3C//DTD SVG 1.1//EN" "http://www.w3.org/Graphics/SVG/1.1/DTD/svg11.dtd">
<svg width="177pt" height="250pt" viewBox="0 0 177 250" version="1.1" xmlns="http://www.w3.org/2000/svg"><g id="#101110ff">
<path fill="#333333" opacity="1.00" d=" M 51.70 40.74 C 55.21 38.81 58.62 35.88 62.90 36.30 C 65.90 36.10 68.58 37.54 71.00 39.14 C 74.22 40.74 74.27 45.08 77.34 46.96 C 80.00 45.46 82.92 44.50 86.01 44.52 C 90.46 44.59 94.32 41.12 98.86 42.18 C 102.68 42.20 105.81 44.57 109.31 45.76 C 111.82 46.69 113.37 48.98 115.28 50.72 C 118.41 53.97 122.82 55.37 126.45 57.93 C 130.08 64.36 134.36 70.42 138.51 76.52 C 140.33 79.42 138.81 82.85 139.05 86.01 C 139.45 92.37 139.25 98.75 138.70 105.09 C 138.29 109.66 134.82 113.40 134.99 118.09 C 135.01 120.10 134.09 121.91 133.32 123.70 C 136.56 125.36 137.59 128.95 138.60 132.16 C 139.44 137.08 137.78 141.96 138.13 146.89 C 138.89 156.29 140.02 165.92 138.18 175.26 C 135.64 180.87 136.93 187.06 136.03 192.96 C 138.96 197.65 138.94 203.97 143.72 207.44 C 146.44 212.45 144.01 218.20 141.48 222.79 C 137.28 223.58 133.05 224.79 128.81 223.49 C 127.21 222.43 125.52 221.50 123.79 220.68 C 122.71 218.54 121.48 216.40 121.41 213.94 C 121.07 209.74 118.10 206.42 117.40 202.31 C 118.52 200.36 119.62 198.30 119.62 195.99 C 119.90 195.74 120.47 195.25 120.75 195.00 C 119.86 189.95 122.60 184.71 120.37 179.85 C 118.31 175.12 116.82 170.08 116.55 164.91 C 117.44 159.25 120.74 153.86 119.64 147.99 C 119.28 145.30 117.85 142.91 117.23 140.28 C 115.34 139.39 113.71 138.08 112.60 136.29 C 110.15 137.63 107.15 139.74 104.44 137.67 C 100.86 134.66 96.25 133.86 92.14 131.88 C 88.42 130.46 84.78 132.90 81.09 133.24 C 76.62 136.32 71.59 140.02 65.83 138.99 L 67.40 137.39 C 67.11 137.49 66.54 137.68 66.25 137.78 C 66.69 137.26 67.58 136.22 68.02 135.71 C 63.53 136.66 59.57 139.04 55.96 141.77 C 53.63 141.89 51.30 141.58 48.97 141.54 C 43.96 138.30 44.71 131.53 43.82 126.36 C 42.80 124.88 41.82 123.37 40.86 121.85 C 39.15 124.76 37.36 127.62 35.47 130.41 C 33.98 131.60 32.46 132.75 31.05 134.04 C 31.28 138.91 31.69 143.81 34.37 148.05 C 33.98 151.89 35.68 155.36 36.77 158.94 C 37.31 162.54 36.75 166.30 38.01 169.81 C 39.88 175.33 40.88 181.48 44.85 185.99 C 45.16 188.65 45.28 191.36 45.12 194.04 C 43.57 197.29 40.29 199.36 38.77 202.67 C 36.58 207.09 32.91 210.52 30.45 214.76 C 31.81 216.16 32.99 217.72 33.66 219.57 C 37.40 220.39 40.56 218.08 43.84 216.71 C 45.29 215.54 45.79 213.47 47.44 212.49 C 52.13 209.37 58.62 207.98 61.03 202.31 C 60.64 198.05 57.82 194.81 55.83 191.23 C 53.60 186.09 53.45 180.39 53.03 174.89 C 52.86 173.59 53.44 172.39 53.78 171.17 C 53.97 167.16 54.31 162.93 52.56 159.19 C 51.29 156.31 50.18 153.37 48.72 150.58 C 47.20 148.13 48.36 145.25 48.54 142.61 C 49.41 146.37 50.38 150.11 51.60 153.77 C 54.07 156.84 55.11 160.76 55.92 164.54 C 56.68 167.99 56.04 171.46 55.57 174.88 C 56.71 179.97 56.08 185.24 57.27 190.33 C 59.45 192.85 60.06 196.28 62.09 198.91 C 64.76 202.92 61.06 207.59 57.58 209.66 C 54.70 212.30 50.10 212.15 47.83 215.56 C 45.41 219.10 41.25 220.43 37.63 222.33 C 34.66 223.39 29.81 221.95 29.73 218.26 C 28.38 213.16 31.71 208.10 35.59 205.11 C 38.06 200.10 41.46 195.41 42.46 189.81 C 41.32 182.34 37.94 175.47 35.83 168.26 C 35.00 164.59 35.45 160.67 34.00 157.13 C 33.00 154.45 32.69 151.60 32.16 148.82 C 31.15 145.64 28.79 143.07 27.94 139.82 C 29.10 136.72 29.12 132.98 31.95 130.78 C 34.50 127.33 37.29 124.01 40.82 121.50 C 38.24 114.99 39.35 107.73 41.93 101.42 C 40.04 95.67 39.88 89.35 42.69 83.88 C 43.41 77.89 44.77 71.55 49.74 67.57 C 48.67 64.50 47.79 61.36 47.07 58.19 C 47.40 52.20 46.64 45.10 51.70 40.74 M 53.26 42.31 C 50.56 44.38 50.26 48.02 49.21 51.02 C 48.08 59.67 51.71 68.18 57.20 74.69 C 60.78 78.84 68.59 79.90 71.91 74.92 C 76.54 69.98 75.29 62.75 75.32 56.59 C 76.23 57.76 77.15 58.92 78.08 60.07 C 77.77 63.18 77.52 66.33 76.37 69.27 C 75.35 71.68 75.66 74.77 73.51 76.61 C 70.45 78.75 67.05 81.24 63.07 80.45 C 57.15 79.37 52.78 74.55 50.16 69.38 C 46.83 73.51 44.91 78.59 45.32 83.94 C 41.81 88.21 43.16 93.98 43.46 99.00 C 43.89 103.78 41.60 108.26 41.47 112.99 C 41.79 116.65 42.70 120.26 44.13 123.65 C 45.70 127.53 45.40 131.86 46.80 135.78 C 47.84 138.02 49.88 139.55 51.33 141.50 C 55.70 141.62 58.04 137.50 61.92 136.29 C 67.58 133.83 70.29 128.13 73.14 123.06 C 74.85 119.49 78.34 117.25 80.39 113.90 C 80.66 111.12 80.48 108.33 80.51 105.55 C 77.21 103.27 73.16 103.27 69.32 103.28 C 69.11 105.96 69.14 108.67 68.50 111.30 C 71.21 111.39 73.90 111.74 76.61 111.60 C 77.18 111.80 78.32 112.20 78.89 112.40 C 78.25 112.98 77.60 113.56 76.96 114.14 C 74.12 113.90 69.83 111.61 68.32 115.31 C 66.70 118.96 63.36 122.47 59.05 122.08 C 55.99 121.60 52.26 121.60 50.11 119.01 C 45.47 114.02 44.49 105.35 49.25 100.08 C 53.16 96.40 58.93 94.59 64.14 96.53 C 67.31 93.14 65.38 88.52 64.95 84.53 C 66.00 86.31 67.13 88.07 67.95 89.97 C 68.57 92.52 67.34 94.92 66.42 97.21 C 67.51 98.60 68.52 100.07 69.78 101.31 C 72.89 101.70 76.12 101.19 79.14 102.28 C 81.93 97.51 87.83 98.03 92.56 98.66 C 91.87 96.75 90.57 94.90 90.80 92.77 C 92.99 95.93 94.84 99.30 97.75 101.90 C 98.02 105.26 98.35 108.62 98.78 111.97 C 99.33 115.94 96.80 119.25 95.36 122.70 C 92.00 126.71 86.19 126.03 81.90 124.09 C 80.23 122.81 79.30 120.87 77.95 119.30 C 73.72 122.77 73.39 128.76 69.68 132.69 C 70.36 134.15 70.99 135.63 71.62 137.12 C 75.19 135.07 77.90 131.34 82.15 130.66 C 86.01 129.98 90.02 128.11 93.92 129.65 C 97.29 130.92 100.81 131.77 104.15 133.11 C 104.90 129.90 106.17 126.01 109.85 125.23 C 107.95 128.35 105.13 131.11 105.35 135.07 C 107.37 135.56 109.44 135.77 111.51 135.83 C 112.64 131.39 109.63 125.62 114.15 122.32 C 114.04 125.00 113.21 127.71 114.04 130.35 C 114.64 132.09 114.16 133.87 113.60 135.55 C 115.57 136.42 117.59 137.18 119.50 138.20 C 125.14 135.84 125.30 128.23 130.46 125.14 C 129.70 128.58 127.15 131.16 125.82 134.35 C 124.59 137.23 122.09 139.25 119.37 140.64 C 125.33 146.89 121.08 155.99 119.62 163.20 C 119.35 172.29 125.51 181.09 122.64 190.25 C 122.25 192.71 123.35 195.10 123.66 197.52 C 123.17 197.46 122.18 197.36 121.69 197.31 C 121.50 199.47 120.35 201.62 121.08 203.80 C 121.42 206.49 123.67 208.37 124.37 210.94 C 124.99 213.14 125.11 215.45 125.69 217.66 C 127.02 219.61 128.88 221.11 130.60 222.71 C 133.26 222.60 135.90 222.32 138.51 221.82 C 139.89 219.34 141.85 216.98 142.16 214.07 C 142.06 211.88 141.32 209.79 140.63 207.73 C 136.66 202.54 136.04 195.49 131.97 190.27 C 132.70 190.39 134.16 190.62 134.89 190.74 C 134.52 187.26 134.33 183.75 134.64 180.26 C 135.29 176.18 136.65 172.22 136.99 168.08 C 137.75 161.71 136.52 155.34 135.42 149.09 C 134.61 144.02 136.77 138.98 135.67 133.93 C 135.03 130.34 134.69 124.99 130.01 124.50 C 130.90 123.43 131.80 122.35 132.68 121.26 C 132.72 119.60 132.79 117.94 132.88 116.29 C 132.19 116.49 130.81 116.90 130.11 117.10 L 130.79 116.42 C 129.01 115.67 127.07 114.83 126.75 112.67 C 128.11 113.20 129.34 113.99 130.34 115.06 C 131.51 115.20 132.69 115.31 133.87 115.40 L 132.90 115.09 C 134.20 111.38 135.83 107.72 136.35 103.79 C 137.14 95.44 135.92 87.02 137.56 78.75 C 134.16 74.95 131.77 70.40 128.62 66.39 C 126.52 61.43 122.49 57.21 117.45 55.21 C 112.93 52.68 110.08 47.71 104.96 46.13 C 100.34 43.27 94.66 44.14 89.78 45.77 C 85.42 45.97 81.09 46.69 77.23 48.86 C 79.05 51.86 80.93 54.87 82.03 58.22 C 74.63 55.27 75.41 45.23 69.29 40.82 C 64.47 37.12 57.58 38.48 53.26 42.31 M 50.82 100.93 C 48.34 103.73 48.92 107.80 47.42 111.06 C 48.69 113.22 49.98 115.38 51.30 117.52 C 52.58 118.23 53.83 119.00 55.04 119.85 C 57.32 120.07 59.73 120.91 61.97 120.04 C 65.78 117.44 67.62 112.55 67.26 108.04 C 66.97 104.99 67.48 101.35 64.81 99.18 C 60.58 95.97 54.44 97.50 50.82 100.93 M 79.59 103.38 C 84.15 103.79 82.68 109.16 82.67 112.22 C 82.74 114.83 80.20 116.28 78.94 118.29 C 80.84 119.99 82.61 122.10 85.13 122.89 C 87.36 122.91 89.57 122.56 91.79 122.47 C 94.23 119.57 95.45 115.76 96.04 112.08 C 95.90 108.14 95.81 103.14 91.85 100.99 C 87.74 98.86 82.94 100.64 79.59 103.38 Z" />
<path fill="#333333" opacity="1.00" d=" M 88.89 61.36 C 85.89 58.47 88.28 53.03 91.94 52.10 C 91.29 53.78 90.43 55.38 89.73 57.04 C 89.47 58.53 91.34 61.01 88.89 61.36 Z" />
<path fill="#333333" opacity="1.00" d=" M 104.01 63.08 C 105.59 62.42 107.13 61.67 108.71 60.99 C 108.65 61.53 108.53 62.61 108.47 63.15 C 105.37 64.23 102.32 66.72 98.87 65.72 C 96.34 64.99 93.20 64.97 91.58 62.57 C 95.66 63.08 100.04 65.05 104.01 63.08 Z" />
<path fill="#333333" opacity="1.00" d=" M 79.58 72.58 C 80.55 68.16 82.81 63.38 87.42 61.84 C 84.47 65.13 82.32 68.90 80.54 72.94 C 80.77 73.75 81.23 75.37 81.45 76.18 C 80.66 77.19 79.87 78.21 79.08 79.22 C 79.85 77.06 79.79 74.82 79.58 72.58 Z" />
<path fill="#333333" opacity="1.00" d=" M 100.77 66.62 C 104.25 65.64 105.68 69.02 107.36 71.27 C 111.09 73.64 114.34 77.32 119.07 77.52 C 121.87 78.46 124.66 77.38 127.32 76.53 C 126.05 78.41 124.35 79.95 122.21 80.79 C 123.19 83.33 123.85 86.00 123.67 88.75 C 124.78 92.78 125.24 96.95 126.42 100.97 C 127.44 106.01 123.82 110.05 121.86 114.32 C 118.95 114.96 116.12 115.89 113.34 116.94 C 112.57 118.85 111.73 120.74 110.99 122.67 C 110.61 122.52 109.85 122.21 109.47 122.06 C 110.41 120.04 110.95 117.87 111.88 115.86 C 115.03 114.51 118.26 113.35 121.46 112.11 C 120.37 110.64 119.21 109.24 118.02 107.86 C 114.43 107.85 113.46 104.31 111.63 101.94 C 108.32 105.25 103.98 107.58 99.43 108.65 C 101.64 105.61 105.58 104.81 108.56 102.78 C 110.05 96.49 108.49 90.12 107.29 83.94 C 106.66 80.01 108.35 75.09 105.03 72.10 C 104.30 74.16 103.99 76.35 103.19 78.37 C 100.61 80.81 97.97 83.19 95.84 86.05 C 93.70 87.55 91.04 88.35 88.41 88.12 C 90.21 85.50 93.63 84.99 95.73 82.71 C 99.64 79.14 101.34 74.04 103.48 69.35 C 102.80 68.67 101.44 67.30 100.77 66.62 M 110.72 77.00 C 110.33 79.74 109.25 82.63 110.49 85.31 C 112.42 90.34 112.32 96.06 110.53 101.10 C 111.45 100.59 112.37 100.09 113.30 99.59 C 114.72 101.63 114.79 105.21 117.92 105.30 C 120.35 105.67 121.28 108.17 122.52 109.95 C 123.48 107.76 124.46 105.47 124.48 103.04 C 123.84 95.55 121.54 88.33 121.63 80.76 C 117.80 80.14 114.24 78.56 110.72 77.00 Z" />
<path fill="#333333" opacity="1.00" d=" M 66.14 83.30 C 67.98 81.92 69.71 80.26 71.92 79.47 C 76.90 79.14 81.30 81.95 84.53 85.49 C 86.52 86.86 86.29 89.45 86.63 91.55 C 85.09 89.09 83.68 86.47 81.38 84.60 C 79.18 82.33 75.90 81.86 72.98 81.06 C 70.70 81.80 68.58 83.04 66.14 83.30 Z" />
<path fill="#333333" opacity="1.00" d=" M 56.25 85.17 C 56.91 82.18 61.03 82.88 63.35 82.48 C 62.13 84.11 60.00 84.36 58.33 85.33 C 57.08 88.14 56.95 91.37 55.92 94.29 C 55.54 91.95 56.11 89.62 56.26 87.29 C 55.68 87.75 55.09 88.22 54.51 88.69 C 52.21 88.09 49.86 88.41 47.54 88.61 C 49.88 86.08 54.11 88.53 56.09 86.06 L 56.25 85.17 Z" />
<path fill="#333333" opacity="1.00" d=" M 93.39 90.30 C 97.74 87.66 101.87 91.69 105.62 93.55 C 105.59 95.45 105.51 97.36 105.38 99.26 C 104.57 97.48 103.82 95.68 103.01 93.91 C 99.78 93.45 97.40 90.33 93.96 91.21 C 93.81 90.98 93.53 90.53 93.39 90.30 Z" />
<path fill="#333333" opacity="1.00" d=" M 56.84 99.96 C 57.55 100.15 58.97 100.53 59.68 100.72 C 60.48 103.78 61.62 106.93 60.83 110.12 C 60.29 113.40 57.82 115.99 55.02 117.59 C 58.72 112.50 59.70 105.68 56.84 99.96 Z" />
<path fill="#333333" opacity="1.00" d=" M 86.34 103.77 C 87.83 104.34 89.18 105.22 90.11 106.55 C 89.76 109.19 90.18 111.88 89.66 114.50 C 88.97 116.71 87.38 118.46 86.06 120.32 C 85.30 120.19 84.54 120.13 83.78 120.12 C 84.81 119.09 86.25 118.23 86.44 116.63 C 87.39 112.42 87.48 107.95 86.34 103.77 Z" />
<path fill="#333333" opacity="1.00" d=" M 116.53 121.09 C 120.30 120.76 122.50 124.89 126.34 123.95 C 125.58 125.95 123.47 125.66 121.75 125.57 C 120.03 124.05 117.90 122.97 116.53 121.09 Z" />
<path fill="#333333" opacity="1.00" d=" M 125.67 137.31 C 126.46 137.38 127.25 137.45 128.05 137.53 C 128.38 138.95 128.76 140.36 129.17 141.77 C 128.96 143.04 128.76 144.31 128.56 145.58 C 128.16 145.49 127.38 145.32 126.99 145.23 C 127.05 142.52 126.61 139.85 125.67 137.31 Z" />
<path fill="#333333" opacity="1.00" d=" M 37.76 139.84 C 39.79 142.71 38.72 146.55 40.29 149.67 C 39.21 148.38 38.10 147.12 36.87 145.97 C 36.93 143.90 37.14 141.82 37.76 139.84 Z" />
<path fill="#333333" opacity="1.00" d=" M 129.39 149.10 C 129.85 148.36 130.31 147.63 130.78 146.90 C 133.35 152.26 132.84 158.31 132.81 164.07 C 132.80 168.53 132.61 173.06 131.26 177.35 C 131.78 171.54 130.86 165.74 131.45 159.95 C 131.40 156.24 130.16 152.69 129.39 149.10 Z" />
<path fill="#333333" opacity="1.00" d=" M 42.88 156.24 C 44.92 158.36 45.60 161.23 45.68 164.09 C 45.97 169.37 50.16 173.28 51.22 178.33 C 44.11 173.32 44.05 163.99 42.88 156.24 Z" />
<path fill="#333333" opacity="1.00" d=" M 124.35 192.04 C 125.33 189.74 126.47 187.49 128.14 185.60 C 129.53 186.61 132.65 188.53 130.24 190.26 C 129.71 189.77 128.67 188.79 128.15 188.30 C 127.35 189.73 126.53 191.16 125.68 192.56 C 125.35 192.43 124.68 192.17 124.35 192.04 Z" />
<path fill="#333333" opacity="1.00" d=" M 47.02 191.05 C 48.36 191.67 49.68 192.33 51.00 193.00 C 50.24 196.70 49.87 201.21 46.41 203.49 C 47.29 199.42 49.85 194.89 47.02 191.05 Z" />
</g>
</svg>
