<?xml version="1.0" encoding="UTF-8" ?>
<!DOCTYPE svg PUBLIC "-//W3C//DTD SVG 1.1//EN" "http://www.w3.org/Graphics/SVG/1.1/DTD/svg11.dtd">
<svg width="250pt" height="190pt" viewBox="0 0 250 190" version="1.1" xmlns="http://www.w3.org/2000/svg"><g id="#151615ff">
<path fill="#333333" opacity="1.00" d=" M 50.65 31.95 C 57.35 31.38 64.25 34.37 68.17 39.81 C 69.73 44.79 68.88 50.13 67.73 55.11 C 67.30 57.29 66.41 59.42 64.83 61.02 C 61.93 61.67 58.30 60.94 56.41 63.83 C 60.58 66.01 65.23 68.05 67.81 72.22 C 69.17 74.41 71.08 76.15 72.73 78.11 C 74.72 81.34 74.11 85.28 74.35 88.89 C 76.33 89.93 78.28 90.60 78.29 87.17 C 79.34 88.92 79.38 90.94 79.04 92.91 C 76.70 94.52 73.88 95.13 71.38 96.43 C 68.75 97.67 66.33 99.41 63.53 100.26 C 58.72 100.90 53.82 101.03 49.14 99.60 C 49.62 99.54 50.57 99.44 51.05 99.39 C 51.11 94.60 48.20 90.80 46.51 86.57 C 51.52 87.46 51.96 93.49 52.45 97.54 C 54.22 92.47 55.70 85.96 51.54 81.62 C 52.28 81.21 53.07 80.95 53.91 80.83 C 56.29 86.04 56.50 93.07 54.08 98.50 C 56.20 98.79 58.33 99.02 60.46 99.27 C 60.21 98.20 59.96 97.12 59.69 96.06 C 60.37 96.13 61.73 96.27 62.41 96.34 L 60.04 97.01 C 60.77 97.45 61.50 97.87 62.24 98.29 C 66.72 95.94 71.70 94.78 76.22 92.53 C 74.92 90.08 71.17 89.86 70.96 86.61 C 73.76 84.47 73.38 80.42 70.60 78.45 C 66.93 75.72 65.34 70.65 60.79 69.12 C 58.45 67.94 56.05 66.89 53.58 66.01 C 53.46 66.59 53.20 67.76 53.07 68.34 C 50.90 67.03 48.65 65.87 46.39 64.72 C 47.22 64.52 48.86 64.11 49.69 63.90 C 50.74 64.39 51.80 64.87 52.86 65.36 C 53.71 64.13 54.54 62.88 55.36 61.63 C 56.91 61.41 58.45 61.19 60.00 60.96 C 57.66 59.22 55.26 57.42 53.64 54.94 C 56.60 56.22 58.98 58.68 62.17 59.42 C 64.14 59.09 64.74 57.01 65.42 55.43 C 67.62 50.35 67.32 44.22 64.77 39.35 C 61.54 35.76 56.58 34.05 51.84 33.85 C 48.94 34.28 46.27 36.10 44.55 38.44 C 41.70 44.00 44.16 50.15 44.37 55.96 C 43.54 58.65 41.31 60.51 39.42 62.46 C 37.61 64.28 36.91 66.84 35.67 69.03 C 32.41 71.06 33.84 75.68 31.02 78.12 C 30.90 75.42 29.98 72.25 31.92 69.93 C 34.68 66.59 36.19 62.38 39.50 59.50 C 44.76 54.19 40.67 46.29 42.48 39.90 C 42.67 35.49 47.32 33.68 50.65 31.95 Z" />
<path fill="#333333" opacity="1.00" d=" M 35.48 70.08 C 37.80 68.15 40.15 66.25 42.18 64.01 C 42.39 65.01 42.56 66.03 42.69 67.05 C 40.86 69.10 38.17 70.02 35.48 70.08 Z" />
<path fill="#333333" opacity="1.00" d=" M 47.25 83.12 C 47.98 79.19 50.51 75.46 53.97 73.46 C 53.60 74.21 52.84 75.71 52.46 76.46 C 52.87 76.70 53.68 77.19 54.08 77.44 C 53.88 77.67 53.46 78.13 53.25 78.36 C 52.62 78.72 51.96 78.70 51.29 78.30 C 50.15 80.06 49.06 81.94 47.25 83.12 Z" />
<path fill="#333333" opacity="1.00" d=" M 54.75 76.09 C 57.52 75.20 59.36 77.16 60.51 79.41 C 58.39 78.70 56.48 77.50 54.75 76.09 Z" />
<path fill="#333333" opacity="1.00" d=" M 31.55 87.93 C 32.01 84.22 30.38 79.99 33.00 76.85 L 33.01 79.36 C 36.39 78.78 39.74 81.36 40.40 84.63 C 38.12 83.28 36.15 81.50 34.03 79.94 C 34.40 84.57 33.78 89.25 34.49 93.85 C 35.30 96.68 36.87 99.20 38.02 101.88 C 40.33 106.84 41.88 112.30 45.51 116.51 C 49.96 115.47 54.38 114.24 58.94 113.64 C 66.55 111.55 73.15 106.90 79.56 102.45 C 82.44 100.17 86.30 101.22 89.65 100.52 C 91.75 97.17 91.02 92.55 90.20 88.83 C 88.00 88.96 85.81 89.10 83.62 89.25 C 83.11 88.35 82.60 87.44 82.11 86.54 C 80.30 86.30 80.15 84.85 80.36 83.32 C 78.83 85.27 77.79 88.57 74.58 87.96 C 76.72 85.28 78.09 81.20 81.96 80.63 C 82.26 79.69 82.55 78.75 82.85 77.81 C 88.30 77.80 95.41 77.01 98.97 82.09 C 102.58 86.98 101.48 93.34 101.18 98.98 C 100.49 102.75 96.52 104.29 93.74 106.27 C 91.49 106.95 89.32 107.90 87.02 108.37 C 85.24 108.25 83.94 106.90 82.52 105.99 C 82.93 105.26 83.74 103.79 84.14 103.05 C 82.70 103.31 81.27 103.63 79.85 103.97 C 80.01 106.41 80.05 108.85 80.18 111.30 C 82.77 110.94 85.01 111.64 86.24 114.06 C 89.88 113.71 93.53 113.36 96.96 112.02 C 98.46 111.18 99.81 112.35 100.64 113.49 C 107.37 111.71 114.38 114.02 121.09 112.23 C 124.90 111.42 128.88 112.09 132.49 113.43 C 135.37 115.15 137.24 118.06 139.88 120.09 C 145.09 124.03 150.71 127.46 155.43 132.01 C 155.00 132.53 154.58 133.05 154.15 133.58 C 149.69 129.35 144.57 125.76 138.97 123.21 C 142.05 126.42 144.95 129.99 149.03 131.99 C 156.93 135.81 162.10 144.05 170.65 146.67 C 171.10 147.84 171.53 149.03 171.93 150.23 C 167.45 149.31 164.36 145.81 160.84 143.23 C 156.19 139.93 152.24 135.56 146.90 133.30 C 141.78 130.88 139.07 125.55 134.30 122.69 C 132.03 121.32 131.08 117.81 128.05 117.86 C 118.65 118.47 109.27 117.31 99.87 117.51 C 98.57 122.59 97.51 127.90 98.43 133.13 C 99.63 135.97 100.55 138.91 100.84 141.99 C 106.45 141.56 110.87 138.07 115.57 135.41 C 119.51 132.94 124.53 134.51 128.52 132.12 C 128.70 133.59 128.37 135.33 129.44 136.55 C 133.98 142.45 139.77 147.77 146.92 150.23 C 154.76 153.57 163.08 156.68 169.20 162.84 C 171.87 166.07 175.94 167.72 179.98 168.42 C 182.05 166.64 183.81 164.47 184.76 161.88 C 186.57 156.83 189.78 152.43 193.21 148.37 C 193.13 148.06 192.97 147.45 192.88 147.14 C 192.65 147.05 192.18 146.88 191.94 146.80 C 187.99 149.90 183.26 151.82 178.73 153.91 C 179.89 151.66 182.23 150.60 184.48 149.76 C 187.21 148.80 189.52 147.04 191.94 145.51 C 192.67 145.41 194.11 145.21 194.84 145.11 C 194.96 141.70 194.28 138.04 191.72 135.58 C 191.03 136.00 189.64 136.83 188.95 137.25 C 188.09 139.37 187.48 141.86 185.52 143.26 C 181.44 145.87 178.24 150.12 172.94 150.13 C 172.36 149.22 171.79 148.31 171.22 147.39 C 172.15 147.45 174.01 147.57 174.94 147.63 C 177.25 142.35 182.22 139.18 185.97 135.02 C 185.60 133.53 186.31 131.50 184.96 130.43 C 183.67 130.20 182.38 130.03 181.08 129.92 C 177.71 132.33 174.85 135.35 171.51 137.80 C 169.22 139.07 166.55 139.48 163.98 139.79 C 160.38 139.99 158.30 136.55 155.54 134.89 C 156.01 134.38 156.49 133.87 156.97 133.36 C 158.97 134.84 160.60 136.97 162.94 137.94 C 166.11 138.12 169.72 137.48 171.86 134.92 C 174.96 131.64 178.50 128.48 183.01 127.40 C 185.77 127.08 187.35 129.72 188.29 131.89 C 188.03 132.58 187.52 133.97 187.27 134.66 L 186.67 133.87 C 186.44 138.89 181.88 141.76 178.88 145.19 C 181.59 143.67 185.05 142.44 186.11 139.19 C 187.17 136.25 189.90 134.18 192.93 133.60 C 196.20 136.85 197.47 141.52 196.68 146.03 C 193.80 151.28 188.83 155.23 186.96 161.06 C 185.50 164.91 183.21 169.44 178.74 170.23 C 175.22 170.03 172.26 167.81 169.32 166.08 C 173.24 169.03 176.45 172.76 179.91 176.20 C 181.37 177.70 183.69 176.53 185.52 176.69 C 187.46 174.01 188.97 171.07 190.42 168.11 C 194.83 161.03 199.16 153.89 204.13 147.19 C 206.02 144.90 206.64 141.95 207.42 139.17 C 203.94 136.74 200.34 134.53 196.61 132.51 C 195.14 131.91 194.30 130.60 193.49 129.32 C 193.51 129.84 193.53 130.88 193.54 131.39 C 189.82 127.49 184.75 125.69 180.00 123.42 C 177.76 125.74 175.96 128.53 173.23 130.35 C 174.80 126.67 177.64 123.89 180.75 121.50 C 184.09 121.52 186.82 123.56 189.51 125.27 C 191.63 126.08 193.54 127.32 195.36 128.66 C 198.98 131.36 203.57 132.77 206.50 136.36 C 208.27 137.19 210.76 138.60 209.98 140.96 C 208.00 148.35 202.69 154.17 198.61 160.47 C 195.48 166.44 191.39 171.83 187.96 177.63 C 185.78 179.07 183.09 178.99 180.60 179.29 C 173.82 174.98 168.13 169.03 163.59 162.43 C 162.45 160.70 160.66 159.62 159.01 158.44 C 152.87 156.53 147.21 153.36 141.43 150.59 C 137.19 148.62 133.32 145.72 130.74 141.78 C 130.41 142.15 130.08 142.53 129.76 142.91 C 130.10 143.97 130.78 146.10 131.12 147.16 L 129.05 145.47 C 129.24 146.71 129.45 147.95 129.65 149.20 C 127.87 151.48 125.04 152.31 122.27 151.50 C 123.86 151.27 125.47 151.25 127.07 151.20 C 127.55 150.76 128.51 149.87 128.99 149.42 C 128.49 147.60 128.34 145.72 128.70 143.87 C 127.49 142.65 126.27 141.43 125.06 140.20 C 120.90 140.17 116.73 140.24 112.57 140.11 C 109.69 141.85 106.36 142.47 103.14 143.29 C 102.70 143.83 101.82 144.90 101.38 145.44 C 97.84 142.40 97.72 137.47 95.82 133.51 C 94.28 128.52 94.17 122.82 96.45 118.02 C 93.69 120.02 88.58 121.79 86.16 118.53 C 90.45 119.00 94.44 117.79 98.32 116.11 C 101.33 117.73 104.71 116.12 107.91 116.30 C 112.92 115.53 117.88 117.21 122.89 116.60 C 125.48 116.49 128.23 115.68 130.74 116.71 C 133.04 118.38 134.92 120.56 137.23 122.23 C 135.57 119.49 133.53 116.89 130.88 115.03 C 124.63 112.53 118.25 116.10 111.89 114.85 C 107.65 114.15 103.35 114.68 99.09 114.36 C 98.77 114.54 98.14 114.91 97.83 115.10 C 94.79 112.42 91.36 116.51 87.98 116.38 C 84.59 117.37 82.54 114.33 80.30 112.46 C 80.29 113.30 80.29 114.99 80.29 115.84 C 77.91 117.87 76.20 120.83 73.13 121.92 C 69.52 123.29 65.91 125.30 61.90 124.86 C 59.56 124.42 57.32 123.60 55.07 122.86 C 55.44 123.83 55.82 124.79 56.20 125.76 C 54.02 131.03 55.20 137.01 58.31 141.64 C 59.86 143.72 61.48 145.76 63.09 147.80 C 70.88 149.09 79.36 151.29 86.90 147.83 C 90.87 146.01 96.28 147.31 99.10 143.26 C 101.16 147.37 96.15 149.33 92.91 149.49 C 86.87 149.56 81.03 151.75 74.97 151.15 C 69.05 150.61 63.10 150.00 57.36 148.41 C 56.43 146.88 59.14 147.81 59.90 147.55 C 56.13 142.78 50.86 137.69 51.92 131.02 C 52.83 127.05 54.13 122.75 52.47 118.81 C 52.95 118.40 53.43 117.98 53.91 117.57 C 56.25 121.81 61.17 123.63 65.80 122.73 C 69.46 121.34 72.69 119.04 76.06 117.09 C 77.98 116.10 77.26 113.81 77.26 112.09 C 77.08 109.94 77.29 107.78 77.54 105.65 C 75.43 107.34 73.41 109.31 70.73 110.05 C 70.77 110.74 70.82 111.42 70.88 112.11 C 72.86 113.08 72.71 115.44 72.99 117.26 C 71.22 115.63 70.01 113.54 68.67 111.57 C 60.91 115.34 52.26 118.63 43.52 117.68 C 41.95 115.46 39.92 113.52 38.76 111.04 C 36.91 103.14 31.26 96.37 31.55 87.93 M 83.51 81.90 C 87.25 80.66 91.03 81.56 94.81 81.93 C 95.29 82.69 95.71 83.49 95.81 84.39 C 92.27 83.15 88.45 82.17 84.70 83.10 C 84.65 84.79 84.94 86.46 86.21 87.69 C 87.01 86.80 86.99 83.83 88.91 84.36 C 92.01 84.68 96.01 85.21 97.28 88.55 C 97.60 91.97 97.77 95.54 96.95 98.91 C 95.98 102.44 91.83 102.73 88.98 103.87 C 87.81 103.56 86.64 103.27 85.46 103.00 C 85.52 104.25 85.59 105.51 85.68 106.77 C 90.57 105.26 96.21 104.39 99.58 100.09 C 99.81 95.77 99.93 91.39 99.37 87.08 C 98.61 86.52 97.07 85.40 96.30 84.84 C 96.83 84.41 97.36 83.99 97.89 83.57 C 95.68 80.40 91.54 79.78 87.99 79.29 C 85.93 78.70 84.22 79.97 83.51 81.90 M 89.43 85.83 C 90.51 86.98 91.66 88.06 92.85 89.10 C 93.22 93.38 93.16 97.71 92.13 101.90 C 95.07 100.35 95.61 96.99 96.48 94.12 C 95.28 90.64 94.45 84.88 89.43 85.83 M 114.75 138.74 C 118.47 139.00 122.20 138.63 125.92 138.90 C 126.49 139.53 127.62 140.78 128.18 141.41 C 128.59 140.94 129.00 140.47 129.42 140.00 C 128.07 138.45 126.75 136.88 125.49 135.27 C 121.86 136.27 118.28 137.43 114.75 138.74 Z" />
<path fill="#333333" opacity="1.00" d=" M 55.68 81.59 C 60.51 82.11 64.67 84.82 69.25 86.20 C 66.98 87.59 64.59 86.23 62.34 85.47 C 59.96 84.51 57.23 83.82 55.68 81.59 Z" />
<path fill="#333333" opacity="1.00" d=" M 57.85 92.30 C 59.24 91.47 60.63 90.63 62.01 89.78 C 64.69 90.46 67.35 91.39 69.56 93.10 C 67.42 93.02 65.33 92.53 63.26 92.01 C 61.49 92.62 59.65 92.95 57.85 92.30 Z" />
<path fill="#333333" opacity="1.00" d=" M 101.58 93.39 C 109.38 92.74 117.19 94.37 125.00 94.63 C 166.66 98.01 208.34 101.09 250.00 104.59 L 250.00 106.65 C 230.64 105.68 211.34 103.60 191.99 102.32 C 169.60 100.43 147.19 98.80 124.79 97.01 C 117.30 96.04 109.57 96.34 102.21 94.78 C 102.06 94.43 101.74 93.74 101.58 93.39 Z" />
<path fill="#333333" opacity="1.00" d=" M 36.72 95.99 C 38.42 94.69 41.03 94.46 42.23 96.57 C 43.09 100.39 43.26 104.37 42.86 108.26 C 41.11 104.78 41.34 100.73 40.13 97.06 C 39.28 96.79 37.57 96.26 36.72 95.99 Z" />
<path fill="#333333" opacity="1.00" d=" M 71.54 117.72 C 72.16 118.45 72.16 118.45 71.54 117.72 Z" />
<path fill="#333333" opacity="1.00" d=" M 108.95 133.54 C 115.98 133.07 120.12 124.97 127.59 126.47 C 126.31 127.61 124.61 127.90 123.00 128.24 C 119.79 128.76 117.82 131.75 114.87 132.84 C 110.98 134.22 106.68 135.06 102.66 133.72 C 104.75 133.63 106.85 133.69 108.95 133.54 Z" />
<path fill="#333333" opacity="1.00" d=" M 146.39 141.49 C 142.83 138.85 138.54 137.00 135.85 133.34 C 140.96 135.57 144.84 139.75 149.72 142.36 C 151.47 143.36 152.90 144.80 154.22 146.31 C 151.28 145.29 149.07 142.99 146.39 141.49 Z" />
<path fill="#333333" opacity="1.00" d=" M 40.40 148.18 C 41.55 144.29 42.25 138.97 46.83 137.64 C 49.41 137.49 52.84 137.08 53.04 140.61 C 50.55 140.65 47.28 139.01 45.39 141.37 C 43.85 143.48 43.51 146.19 42.80 148.64 C 41.44 153.15 43.86 159.22 49.12 159.55 C 73.76 159.12 98.42 158.67 123.07 158.51 C 126.35 158.60 129.63 156.31 128.83 152.68 C 129.48 150.98 130.14 149.28 130.98 147.66 C 131.03 151.15 132.71 155.95 129.55 158.63 C 127.33 160.90 124.01 161.19 121.01 161.20 C 99.99 161.16 78.97 161.55 57.95 161.50 C 55.25 161.43 52.61 162.10 49.92 162.18 C 47.31 161.56 44.73 160.71 42.35 159.45 C 40.84 155.96 39.05 152.01 40.40 148.18 Z" />
<path fill="#333333" opacity="1.00" d=" M 49.07 152.44 C 57.95 150.99 67.04 151.93 76.01 151.79 C 89.02 151.47 102.03 151.61 115.03 151.45 C 116.95 151.41 118.85 151.71 120.72 152.09 C 118.31 154.21 114.97 153.38 112.05 153.60 C 91.31 153.57 70.58 154.45 49.83 154.15 C 49.64 153.72 49.26 152.87 49.07 152.44 Z" />
</g>
</svg>
