<?xml version="1.0" encoding="UTF-8" ?>
<!DOCTYPE svg PUBLIC "-//W3C//DTD SVG 1.1//EN" "http://www.w3.org/Graphics/SVG/1.1/DTD/svg11.dtd">
<svg width="216pt" height="300pt" viewBox="0 0 216 300" version="1.1" xmlns="http://www.w3.org/2000/svg"><g id="#363834ff">
<path fill="#333333" opacity="1.00" d=" M 31.67 119.76 C 31.71 119.17 31.80 117.99 31.84 117.40 C 34.22 118.20 36.70 118.55 39.21 118.53 C 46.07 123.28 48.37 132.35 47.49 140.28 C 46.32 138.35 46.31 136.09 46.15 133.91 C 44.93 128.22 42.76 120.87 36.14 119.64 C 34.65 119.70 33.16 119.73 31.67 119.76 Z" />
<path fill="#333333" opacity="1.00" d=" M 18.00 138.62 C 19.26 130.78 22.33 122.05 29.93 118.30 C 30.44 118.87 30.94 119.45 31.45 120.03 C 24.05 122.80 21.34 130.93 19.65 137.92 C 18.09 146.53 18.34 156.25 23.26 163.78 C 24.74 166.46 27.87 167.11 30.65 167.51 C 24.15 161.15 23.06 151.58 23.49 142.95 C 23.97 135.69 26.13 128.37 30.69 122.61 C 31.33 121.50 32.72 121.57 33.80 121.35 C 28.70 127.81 25.04 135.69 25.22 144.07 C 24.64 151.25 25.64 159.03 30.64 164.59 C 30.65 165.15 30.67 166.28 30.68 166.85 C 34.89 167.51 38.84 165.42 40.89 161.76 C 44.06 157.67 44.98 152.50 46.83 147.79 C 43.19 147.60 39.57 147.25 35.96 146.75 C 35.52 145.85 35.09 144.95 34.67 144.05 C 35.15 142.79 35.64 141.53 36.13 140.27 C 41.43 140.61 46.81 140.77 51.97 142.16 C 53.74 142.28 55.51 142.37 57.28 142.47 C 58.45 141.50 59.28 139.70 61.00 139.69 C 64.76 139.46 68.73 139.02 72.33 140.43 C 72.50 135.45 72.82 129.51 77.30 126.37 C 81.45 124.60 86.39 123.79 90.67 125.60 C 93.58 127.40 96.76 130.10 96.49 133.88 C 96.90 136.61 95.89 139.24 95.77 141.94 C 96.45 143.93 97.42 145.89 98.92 147.40 C 106.65 147.47 114.30 148.68 122.01 149.12 C 125.88 149.68 130.10 148.99 133.64 150.98 C 124.27 151.93 114.99 149.49 105.64 149.28 C 109.39 151.92 114.13 151.75 118.21 153.58 C 122.25 154.22 126.43 153.68 130.48 154.46 C 130.79 154.15 131.41 153.52 131.72 153.21 C 131.89 154.73 131.94 156.28 132.34 157.77 C 134.55 160.11 138.11 162.14 137.46 165.93 C 136.68 172.69 130.93 177.04 125.77 180.68 C 127.02 178.92 128.39 177.24 129.74 175.55 C 127.64 172.59 124.95 170.09 121.95 168.04 C 119.19 166.22 115.81 165.96 112.77 164.83 C 115.37 164.62 117.97 164.80 120.56 164.98 C 120.54 161.19 119.58 157.09 116.58 154.53 C 113.42 153.15 109.82 152.98 106.88 151.06 C 104.13 149.34 100.84 149.25 97.75 148.64 C 96.56 146.41 95.01 144.30 94.45 141.80 C 94.79 138.63 96.01 135.35 94.91 132.20 C 93.33 128.41 89.39 125.10 85.08 125.86 C 82.68 126.32 80.09 126.62 77.98 127.92 C 75.66 131.10 74.35 135.05 74.09 138.97 C 74.19 143.14 75.24 147.22 75.50 151.38 C 78.81 151.79 82.42 152.22 85.43 150.46 C 87.63 149.03 89.42 147.02 91.80 145.85 C 90.79 150.31 85.97 151.68 82.84 154.35 C 81.26 154.56 79.75 155.11 78.22 155.53 C 75.71 158.55 72.83 161.59 73.10 165.84 L 71.61 165.67 C 72.12 160.83 73.73 155.45 78.45 153.13 C 76.26 152.37 73.86 151.24 72.99 148.91 C 72.41 146.98 72.46 144.94 72.36 142.95 C 69.24 141.27 65.56 141.29 62.12 141.50 C 60.37 141.70 59.75 143.96 58.04 144.29 C 50.98 144.76 44.17 142.01 37.11 142.30 L 36.28 142.98 C 36.24 143.38 36.16 144.17 36.12 144.56 C 43.25 146.29 50.73 145.88 57.93 147.25 C 57.83 149.45 57.44 151.73 58.38 153.82 C 60.24 158.97 59.76 164.56 59.64 169.93 C 59.42 173.46 61.08 176.67 62.37 179.85 C 64.02 183.61 67.56 185.93 70.23 188.89 C 73.85 187.34 76.75 184.68 79.68 182.14 C 77.75 180.34 75.73 178.52 74.52 176.13 C 73.82 173.47 74.18 170.69 74.09 167.98 C 75.89 166.14 77.21 163.64 79.72 162.65 C 78.86 164.84 77.64 166.87 76.14 168.70 C 76.23 171.10 75.82 173.59 76.52 175.93 C 77.59 178.14 79.54 179.72 81.10 181.57 C 81.64 180.90 82.17 180.23 82.70 179.56 C 83.91 179.70 85.03 180.18 86.15 180.63 C 84.89 181.32 83.63 182.02 82.39 182.75 C 83.49 184.54 83.08 186.64 83.48 188.59 C 84.94 190.66 87.28 191.81 89.05 193.55 C 91.19 197.69 95.16 200.35 98.70 203.16 C 106.00 203.45 114.41 202.75 119.60 196.92 C 120.04 193.47 119.64 189.97 118.56 186.67 C 115.69 183.26 112.57 179.84 111.52 175.37 C 110.65 174.98 109.77 174.59 108.90 174.19 C 109.54 172.70 110.23 171.25 110.94 169.80 C 113.29 174.89 114.66 180.98 119.53 184.36 C 124.22 187.13 126.91 192.26 132.22 194.13 C 133.57 193.12 134.80 191.96 135.67 190.50 C 138.30 186.31 141.73 182.56 143.45 177.86 C 145.32 172.64 147.23 167.18 146.76 161.55 C 146.98 161.58 147.42 161.64 147.65 161.66 C 147.86 159.33 147.60 157.00 147.10 154.72 C 147.75 155.62 148.40 156.52 149.05 157.43 C 153.31 157.58 157.59 157.75 161.78 158.61 C 160.42 149.98 163.13 140.56 169.56 134.51 C 173.09 131.23 178.18 131.82 182.50 132.75 C 185.83 134.22 187.77 137.56 189.13 140.78 C 191.28 146.02 192.30 151.69 192.48 157.35 C 196.83 157.72 201.13 158.74 205.52 158.68 C 207.14 161.05 206.58 163.59 205.20 165.91 C 200.69 165.02 196.11 164.57 191.54 164.08 C 190.63 171.23 188.05 178.74 182.49 183.60 C 179.00 186.72 174.04 185.28 169.84 185.28 C 164.44 182.16 162.22 175.82 160.95 170.06 C 160.11 166.80 160.60 163.42 161.41 160.21 C 157.31 160.09 153.22 159.75 149.13 159.58 C 149.16 167.77 147.47 176.10 142.93 183.03 C 140.80 185.87 138.33 188.45 136.56 191.55 C 135.52 193.49 133.73 194.79 131.91 195.92 C 127.12 194.57 123.67 190.90 120.34 187.45 C 122.19 191.62 121.09 196.36 123.37 200.36 C 125.11 201.66 127.35 202.77 127.94 205.06 C 128.99 208.62 129.66 212.30 130.08 216.00 C 130.50 219.69 128.60 223.08 127.31 226.41 C 124.83 229.62 121.23 232.08 117.28 233.05 C 116.17 233.56 115.31 232.35 114.41 232.01 C 113.05 232.33 111.68 232.65 110.36 233.09 C 115.08 237.58 118.70 243.40 119.34 250.01 C 120.18 255.03 120.08 260.19 121.50 265.11 C 122.49 268.54 124.93 271.47 125.39 275.05 C 125.31 279.32 121.74 282.15 118.87 284.80 C 116.33 286.99 114.65 290.08 111.90 292.01 C 105.27 294.71 97.46 293.50 91.72 289.31 C 93.38 282.31 101.22 280.20 104.29 274.17 C 105.54 271.87 107.83 269.80 107.45 266.96 C 106.69 258.59 100.78 251.91 98.78 243.91 C 98.04 240.85 95.00 239.13 93.99 236.20 C 92.96 233.07 92.13 229.88 91.15 226.74 C 90.67 226.57 89.70 226.22 89.22 226.05 C 87.87 227.18 86.54 228.34 85.19 229.47 C 81.17 228.30 77.16 229.13 73.14 229.74 C 76.80 233.22 80.19 237.20 81.73 242.10 C 83.51 248.08 85.15 254.24 88.27 259.68 C 91.05 262.75 93.91 265.93 94.41 270.25 C 93.86 271.42 93.40 272.63 92.70 273.71 C 89.79 275.78 85.86 274.94 82.90 276.88 C 80.83 278.15 79.69 280.44 77.76 281.88 C 75.30 282.93 72.67 283.49 70.06 284.00 C 67.24 283.58 64.48 282.81 61.67 282.28 C 61.31 281.15 60.95 280.03 60.60 278.90 C 61.06 277.99 61.53 277.09 62.02 276.21 C 66.48 272.87 68.94 267.72 73.02 264.06 C 73.57 256.77 67.91 251.38 64.77 245.40 C 62.03 239.39 57.29 234.56 54.61 228.52 C 53.63 225.42 53.09 221.33 55.90 218.99 C 60.62 215.14 64.05 210.00 68.98 206.37 C 69.36 206.54 70.11 206.86 70.49 207.02 C 70.49 206.46 70.49 205.35 70.50 204.80 C 71.84 205.60 73.14 206.55 74.67 206.98 C 79.16 208.51 82.19 212.40 84.94 216.03 C 85.52 216.28 86.68 216.78 87.26 217.03 C 86.77 217.23 85.77 217.62 85.27 217.82 C 85.67 221.45 86.46 225.63 83.24 228.46 C 85.16 226.88 87.06 225.28 88.94 223.65 C 89.57 223.57 90.82 223.40 91.45 223.31 C 92.55 218.84 94.46 214.09 98.70 211.73 C 103.57 208.23 110.73 210.20 114.37 214.61 C 118.04 218.49 123.48 222.84 121.92 228.88 C 123.37 227.40 125.51 226.28 125.85 224.04 C 126.60 221.03 128.53 218.16 127.81 214.94 C 127.12 211.36 126.56 207.75 125.68 204.22 C 124.61 202.92 123.13 202.07 121.81 201.07 C 121.63 200.26 121.28 198.63 121.10 197.82 C 119.15 199.30 118.07 201.35 117.43 203.66 C 115.33 204.93 112.95 205.70 110.65 206.53 C 112.81 204.54 115.23 202.92 117.91 201.66 C 114.37 202.76 110.87 204.18 107.16 204.59 C 102.02 205.43 97.01 203.50 92.01 202.59 C 91.29 203.44 90.54 204.24 89.74 205.01 C 84.70 205.38 79.75 206.58 74.67 206.39 C 74.75 205.43 74.84 204.48 74.93 203.54 C 79.47 205.22 83.98 203.20 88.57 203.14 C 89.41 202.08 90.33 201.07 91.14 199.98 C 89.76 198.59 88.48 197.11 87.40 195.48 C 85.92 193.04 83.08 191.78 81.71 189.27 C 81.13 186.96 81.22 184.55 80.68 182.23 C 78.20 186.60 74.36 190.58 68.98 190.68 C 65.58 188.58 63.54 184.89 61.34 181.66 C 57.78 175.03 58.31 167.27 57.43 160.03 C 57.42 158.44 56.83 156.99 55.69 155.89 C 54.71 153.61 55.03 151.15 55.69 148.84 C 52.82 148.63 49.95 148.44 47.08 148.21 C 46.67 155.29 43.93 162.70 38.33 167.30 C 35.07 170.08 30.54 169.06 26.63 169.48 C 18.23 164.40 17.04 153.34 17.37 144.43 C 14.81 144.40 12.23 144.18 9.74 143.52 C 8.30 144.24 6.86 144.98 5.37 145.61 C 3.63 142.38 4.44 138.91 5.55 135.64 C 8.92 138.45 14.02 137.00 18.00 138.62 M 166.74 140.90 C 161.62 149.64 160.99 160.39 162.72 170.18 C 163.73 175.23 165.90 180.99 171.00 183.13 C 174.77 183.35 179.19 184.02 182.27 181.28 C 187.50 176.90 188.41 169.77 190.89 163.81 C 186.77 163.52 182.68 162.89 178.63 162.13 C 178.44 159.69 179.01 157.34 180.15 155.18 C 184.07 155.65 187.94 156.43 191.80 157.26 C 189.76 149.03 189.64 138.22 181.02 133.79 C 178.96 133.84 176.91 133.65 174.86 133.49 C 171.73 135.43 168.49 137.53 166.74 140.90 M 5.70 141.28 C 9.58 142.09 13.54 142.43 17.49 142.76 C 17.55 141.98 17.67 140.41 17.74 139.62 C 13.81 140.41 8.29 137.20 5.70 141.28 M 119.59 155.05 C 121.94 158.19 122.96 162.05 123.38 165.90 C 126.22 168.43 129.28 170.84 131.20 174.20 C 133.37 171.31 136.03 167.94 135.16 164.08 C 134.30 162.85 133.11 161.93 132.02 160.93 C 131.01 159.43 130.31 157.76 129.92 155.99 C 126.53 155.19 123.06 155.03 119.59 155.05 M 179.56 160.00 C 186.84 161.41 194.25 162.10 201.54 163.50 C 201.65 162.73 201.88 161.20 202.00 160.43 C 194.95 159.51 187.83 158.97 180.87 157.47 C 180.54 158.10 179.89 159.37 179.56 160.00 M 67.48 209.32 C 64.19 211.75 62.19 215.49 58.97 218.02 C 55.52 220.51 54.22 225.68 56.45 229.38 C 58.22 232.28 60.07 235.14 62.11 237.86 C 64.66 241.24 65.49 245.57 68.02 248.96 C 70.61 252.47 73.46 255.90 75.08 259.99 C 75.20 261.64 75.49 263.77 74.08 264.97 C 71.00 267.97 68.32 271.37 64.95 274.06 C 63.35 275.24 62.35 276.96 61.45 278.70 C 61.85 279.35 62.64 280.65 63.04 281.30 C 66.94 282.60 71.17 282.33 74.84 280.47 C 76.78 279.21 78.17 277.27 80.16 276.09 C 83.93 274.12 88.28 273.72 92.07 271.79 C 92.65 265.41 86.29 262.10 84.41 256.63 C 82.90 252.38 80.84 248.33 79.80 243.92 C 78.68 238.61 74.59 234.72 72.23 229.98 C 75.24 228.33 78.49 227.19 81.88 226.66 C 84.83 224.04 83.06 220.15 82.32 216.92 C 81.08 212.69 77.08 210.51 73.83 208.01 C 71.68 208.15 69.33 208.00 67.48 209.32 M 102.75 211.03 C 99.30 213.43 94.86 215.93 95.06 220.79 C 93.94 222.42 92.38 223.95 92.09 225.99 C 92.13 229.74 95.57 232.15 96.41 235.67 C 97.13 238.25 100.02 239.38 100.77 241.92 C 102.06 246.68 104.48 250.99 106.31 255.53 C 107.45 255.23 108.58 254.92 109.73 254.66 L 108.50 255.10 C 109.02 259.25 110.51 263.46 109.34 267.65 C 109.79 267.71 110.69 267.85 111.14 267.92 C 108.04 271.11 106.32 275.24 103.97 278.94 C 100.01 281.77 95.93 284.69 93.60 289.11 C 95.44 289.78 97.30 290.41 99.19 290.91 C 104.50 292.71 111.04 290.90 114.34 286.27 C 117.15 282.87 121.05 280.59 123.82 277.14 C 123.66 274.99 123.15 272.91 122.34 270.93 C 121.50 272.14 120.67 273.37 119.87 274.61 C 120.42 267.65 118.11 260.92 117.77 254.00 C 117.11 245.65 112.10 238.75 107.82 231.89 C 112.37 231.24 116.98 229.91 120.14 226.36 C 118.36 221.10 114.49 217.06 110.60 213.27 C 108.47 211.34 105.48 211.09 102.75 211.03 Z" />
<path fill="#333333" opacity="1.00" d=" M 169.89 143.95 C 171.46 140.46 173.11 136.32 177.06 134.98 C 175.83 138.47 172.76 140.91 171.46 144.38 C 168.02 152.72 167.68 162.15 169.38 170.93 C 170.05 175.05 172.44 178.53 174.09 182.28 C 172.29 181.35 170.69 179.97 169.96 178.03 C 165.18 167.29 165.99 154.83 169.89 143.95 Z" />
<path fill="#333333" opacity="1.00" d=" M 133.47 153.42 C 134.07 150.82 134.94 147.94 137.68 146.89 C 142.32 149.05 150.00 146.55 151.71 152.98 C 154.55 153.26 157.49 153.38 160.09 154.69 C 157.32 155.64 154.40 155.12 151.61 154.60 C 150.88 155.13 150.15 155.66 149.42 156.20 C 148.70 154.26 149.37 151.03 146.90 150.26 C 143.70 149.67 140.44 149.54 137.22 149.06 C 135.97 150.52 134.79 152.03 133.47 153.42 Z" />
<path fill="#333333" opacity="1.00" d=" M 67.40 155.38 C 68.87 153.19 70.70 151.28 72.29 149.18 C 74.55 152.45 69.06 153.95 69.01 156.96 C 68.42 160.59 69.83 163.99 71.06 167.31 C 67.88 164.25 66.70 159.65 67.40 155.38 Z" />
<path fill="#333333" opacity="1.00" d=" M 83.99 154.86 C 84.80 154.40 85.63 153.97 86.46 153.56 C 87.33 154.78 88.18 156.02 88.98 157.29 C 87.28 156.57 85.65 155.68 83.99 154.86 Z" />
<path fill="#333333" opacity="1.00" d=" M 90.42 159.66 C 95.90 159.69 100.27 156.11 105.46 155.09 C 101.78 158.95 96.21 160.17 91.07 160.78 C 90.00 161.62 88.93 162.45 87.81 163.23 C 88.61 161.99 89.51 160.82 90.42 159.66 Z" />
<path fill="#333333" opacity="1.00" d=" M 79.00 158.24 C 82.07 158.58 85.12 159.92 86.23 163.02 C 83.45 162.08 81.09 160.25 79.00 158.24 Z" />
<path fill="#333333" opacity="1.00" d=" M 101.56 160.80 C 103.97 162.59 106.47 164.24 109.41 165.01 C 106.02 166.02 102.72 164.09 101.56 160.80 Z" />
<path fill="#333333" opacity="1.00" d=" M 69.46 180.14 C 67.77 174.96 69.33 168.53 73.94 165.47 C 73.41 168.87 71.06 171.66 70.69 175.08 C 70.49 176.81 70.19 178.54 69.46 180.14 Z" />
<path fill="#333333" opacity="1.00" d=" M 108.21 175.20 C 108.66 175.93 109.10 176.66 109.53 177.41 C 104.99 183.57 95.73 184.91 89.42 180.88 C 93.57 180.82 97.82 181.68 101.88 180.39 C 104.41 179.27 106.42 177.27 108.21 175.20 Z" />
<path fill="#333333" opacity="1.00" d=" M 86.74 184.91 C 90.16 185.17 94.21 183.35 97.09 185.86 C 99.24 187.81 101.91 189.36 103.27 192.02 C 99.92 190.82 97.40 188.24 94.99 185.73 C 91.40 185.28 88.04 186.52 84.86 188.03 C 85.47 186.98 86.11 185.94 86.74 184.91 Z" />
<path fill="#333333" opacity="1.00" d=" M 102.86 192.47 C 104.57 193.31 106.22 194.51 108.19 194.64 C 109.80 194.26 111.33 193.59 112.92 193.12 C 111.85 193.93 110.70 194.64 109.53 195.30 C 107.22 196.57 104.78 198.97 101.94 197.87 C 98.92 196.85 95.73 196.73 92.63 196.09 C 94.71 195.81 96.79 195.56 98.86 195.27 C 100.83 195.87 102.82 196.44 104.89 196.54 C 104.25 195.16 103.57 193.81 102.86 192.47 Z" />
<path fill="#333333" opacity="1.00" d=" M 67.76 223.97 C 71.83 221.07 71.76 215.52 74.82 211.82 C 73.81 216.24 73.54 221.57 69.59 224.51 C 66.06 226.38 61.08 224.78 59.98 220.71 C 62.40 222.19 64.85 223.76 67.76 223.97 Z" />
<path fill="#333333" opacity="1.00" d=" M 98.75 217.57 C 101.21 218.28 103.77 219.68 104.40 222.39 C 102.29 221.06 100.53 219.29 98.75 217.57 Z" />
<path fill="#333333" opacity="1.00" d=" M 74.31 226.21 C 75.44 223.18 77.08 220.14 80.18 218.76 C 78.85 221.68 76.62 224.03 74.31 226.21 Z" />
<path fill="#333333" opacity="1.00" d=" M 104.38 230.97 C 106.50 225.20 113.27 226.84 117.86 224.94 C 116.57 226.93 114.39 227.75 112.13 227.95 C 109.25 228.07 106.93 229.87 104.38 230.97 Z" />
<path fill="#333333" opacity="1.00" d=" M 64.97 233.46 C 62.14 232.80 62.08 229.67 63.26 227.58 C 64.00 229.49 64.56 231.46 64.97 233.46 Z" />
<path fill="#333333" opacity="1.00" d=" M 100.25 227.82 C 101.58 230.17 102.24 232.81 103.04 235.37 C 102.00 234.85 100.97 234.33 99.93 233.82 C 99.83 231.81 99.90 229.80 100.25 227.82 Z" />
<path fill="#333333" opacity="1.00" d=" M 69.76 237.24 C 72.38 240.14 72.66 244.18 74.45 247.52 C 76.08 250.86 79.02 253.29 81.02 256.38 C 77.71 254.63 75.79 251.32 73.74 248.34 C 71.44 245.09 70.03 241.22 69.76 237.24 Z" />
<path fill="#333333" opacity="1.00" d=" M 107.37 240.58 C 107.67 240.48 108.28 240.30 108.59 240.21 C 110.18 244.36 112.15 248.38 113.27 252.69 C 111.24 248.68 109.54 244.51 107.37 240.58 Z" />
<path fill="#333333" opacity="1.00" d=" M 101.93 240.88 C 105.25 244.52 106.41 249.45 108.24 253.89 C 107.28 253.25 105.99 252.84 105.71 251.57 C 104.55 247.97 102.74 244.59 101.93 240.88 Z" />
<path fill="#333333" opacity="1.00" d=" M 84.24 261.44 C 85.35 262.47 86.39 263.56 87.44 264.65 C 87.14 266.72 86.79 268.78 86.53 270.86 C 86.12 270.66 85.30 270.26 84.89 270.06 C 85.84 267.11 85.50 264.21 84.24 261.44 Z" />
<path fill="#333333" opacity="1.00" d=" M 76.14 271.71 C 77.03 268.40 78.18 265.15 79.52 261.99 C 80.91 265.71 77.85 268.73 76.14 271.71 Z" />
<path fill="#333333" opacity="1.00" d=" M 111.20 281.43 C 111.05 278.06 112.30 274.86 114.04 272.03 C 113.54 275.27 112.67 278.49 111.20 281.43 Z" />
</g>
</svg>
