<?xml version="1.0" encoding="UTF-8" ?>
<!DOCTYPE svg PUBLIC "-//W3C//DTD SVG 1.1//EN" "http://www.w3.org/Graphics/SVG/1.1/DTD/svg11.dtd">
<svg width="221pt" height="275pt" viewBox="0 0 221 275" version="1.1" xmlns="http://www.w3.org/2000/svg"><g id="#464845ff">
<path fill="#333333" opacity="1.00" d=" M 83.84 37.05 C 83.36 31.69 87.94 27.00 93.09 26.36 C 98.38 25.31 105.83 26.09 107.96 31.94 C 108.71 36.93 110.83 41.86 110.02 46.98 C 109.40 50.96 108.78 54.98 107.39 58.78 C 110.16 59.28 113.10 59.23 115.67 60.51 C 112.47 61.54 109.21 60.79 106.13 59.77 C 106.17 61.14 106.21 62.51 106.23 63.88 C 108.65 63.01 111.11 62.19 113.69 61.98 C 115.67 63.73 117.81 65.28 119.85 66.96 C 118.90 66.29 117.00 64.96 116.05 64.29 L 116.42 66.26 C 115.80 65.34 115.13 64.45 114.48 63.56 C 111.79 63.93 109.15 64.55 106.59 65.43 C 105.50 66.72 104.39 68.06 102.88 68.88 C 100.85 68.74 98.94 67.91 96.94 67.60 C 93.32 66.71 89.69 69.43 86.16 67.79 C 88.84 66.93 91.58 66.30 94.34 65.75 C 92.86 62.78 91.77 59.64 90.59 56.54 C 92.43 59.41 95.84 61.97 94.95 65.78 C 97.69 65.80 100.36 66.34 102.89 67.36 C 103.82 66.69 104.75 66.02 105.68 65.34 C 105.56 63.47 105.10 61.65 104.81 59.81 C 100.63 59.82 96.27 58.70 93.06 55.93 C 91.41 53.89 90.42 51.40 88.73 49.38 C 88.66 52.97 88.67 56.59 88.12 60.16 C 84.67 63.33 80.97 66.27 78.00 69.96 C 73.92 72.40 69.25 74.44 66.57 78.59 C 64.54 83.49 66.56 88.79 67.05 93.79 C 66.49 93.07 65.37 91.62 64.81 90.90 C 64.12 94.23 63.69 97.60 63.15 100.96 C 62.34 105.40 64.96 109.35 66.04 113.49 C 66.47 113.12 67.32 112.40 67.74 112.03 C 66.93 117.99 65.03 123.85 65.43 129.93 C 65.43 136.43 68.88 142.46 68.24 149.00 C 68.01 151.38 68.19 153.77 69.10 155.99 C 70.22 158.87 69.80 162.07 70.79 164.97 C 73.21 166.97 77.50 165.93 78.96 169.31 C 76.19 168.91 73.24 168.74 70.74 167.37 C 67.33 164.88 68.85 160.12 67.49 156.62 C 65.30 151.36 67.61 145.62 65.87 140.25 C 57.71 145.88 55.62 158.07 60.46 166.47 C 62.13 169.53 65.81 169.66 68.87 169.67 C 66.48 173.08 61.63 171.14 59.70 168.27 C 56.75 163.92 55.57 158.36 56.53 153.18 C 57.58 147.63 59.95 141.68 65.36 139.10 C 63.30 132.54 63.60 125.49 65.03 118.84 C 66.31 113.48 61.43 109.25 61.42 104.02 C 61.38 98.58 62.79 93.28 64.19 88.07 C 63.86 83.83 63.38 78.91 66.47 75.50 C 69.29 72.91 72.28 70.33 75.93 69.01 C 78.10 68.32 79.10 66.09 80.65 64.62 C 82.37 62.61 84.90 61.39 86.36 59.15 C 86.84 55.66 86.56 52.12 86.60 48.61 C 83.89 45.38 84.08 41.00 83.84 37.05 M 88.65 30.71 C 85.49 33.35 84.98 37.73 85.21 41.59 C 85.92 41.47 87.32 41.23 88.03 41.11 C 87.45 42.56 86.88 44.02 86.31 45.47 C 88.28 47.62 91.33 48.75 92.50 51.58 C 94.11 55.22 98.36 56.00 101.65 57.47 C 103.51 58.54 105.69 57.46 106.71 55.77 C 107.78 52.99 108.08 50.01 108.63 47.11 C 109.52 42.71 107.65 38.45 107.06 34.14 C 106.65 31.22 103.95 29.53 102.01 27.62 C 97.44 27.42 92.24 27.40 88.65 30.71 Z" />
<path fill="#333333" opacity="1.00" d=" M 116.28 61.15 C 117.18 60.64 118.07 60.11 118.97 59.58 C 122.34 61.06 126.42 62.24 127.97 65.97 C 130.51 69.50 129.91 73.96 130.30 78.03 C 132.16 82.13 133.32 86.47 133.92 90.93 C 134.45 94.80 138.58 96.45 140.23 99.70 C 142.31 103.76 142.56 108.42 144.18 112.65 C 145.44 115.95 145.82 119.45 146.18 122.93 C 146.57 127.03 148.82 130.58 150.60 134.18 C 152.60 132.11 155.67 133.07 157.92 134.09 C 161.74 136.70 162.98 141.62 163.22 146.00 C 163.55 152.60 161.51 159.87 156.06 164.02 C 152.65 166.52 147.73 164.62 145.90 161.09 C 140.93 152.58 142.46 140.29 150.13 133.84 C 149.33 133.90 147.72 134.03 146.92 134.09 L 148.22 133.80 C 146.82 130.65 145.33 127.47 144.93 124.00 C 144.19 117.89 141.58 112.24 140.20 106.27 C 139.41 102.99 138.30 99.62 135.78 97.24 C 133.57 95.08 131.78 92.27 132.04 89.05 C 132.18 85.23 130.21 81.90 128.86 78.48 C 128.38 75.15 129.24 71.55 127.59 68.44 C 125.83 63.95 120.99 61.16 116.28 61.15 M 147.30 139.45 C 144.85 143.44 144.42 148.34 144.76 152.91 C 145.04 157.03 147.01 161.52 151.13 163.06 C 154.07 163.90 156.72 161.64 158.37 159.46 C 162.37 153.76 163.10 145.92 160.58 139.47 C 159.60 136.74 157.10 135.10 154.91 133.42 C 152.15 135.11 149.07 136.61 147.30 139.45 Z" />
<path fill="#333333" opacity="1.00" d=" M 105.20 73.69 C 107.03 75.82 108.06 78.44 109.07 81.02 C 108.09 83.01 107.40 85.22 105.88 86.89 C 103.38 88.07 100.58 88.69 98.53 90.69 C 93.61 94.80 85.03 91.02 84.02 85.00 C 87.62 87.40 91.17 92.36 96.06 90.00 C 99.20 88.05 102.34 86.09 105.93 85.03 C 107.81 81.24 105.68 77.51 105.20 73.69 Z" />
<path fill="#333333" opacity="1.00" d=" M 120.08 85.23 C 121.14 82.96 122.06 80.63 122.84 78.25 C 123.40 80.20 124.53 81.86 126.16 83.08 C 126.25 83.41 126.44 84.08 126.54 84.41 C 125.04 84.23 123.38 82.67 121.99 83.77 C 121.56 88.32 123.22 92.63 123.87 97.06 C 123.82 100.53 121.32 103.46 121.08 106.92 C 120.94 111.47 120.81 116.08 121.71 120.58 C 121.97 122.73 124.14 123.89 124.90 125.82 C 125.48 128.28 124.01 130.56 123.85 132.98 C 125.52 138.68 128.60 143.94 129.17 149.95 C 130.27 151.32 131.27 152.77 132.22 154.25 C 131.10 154.88 129.98 155.51 128.86 156.13 C 129.71 160.72 129.98 165.39 129.81 170.06 C 129.58 173.14 132.27 175.73 131.55 178.86 C 130.95 181.80 129.46 184.69 130.59 187.72 C 130.09 190.06 129.75 192.52 130.56 194.84 C 133.27 204.16 130.06 214.28 133.56 223.44 C 139.12 226.82 141.78 234.72 149.04 235.02 C 151.75 235.15 152.89 238.09 154.45 239.88 C 151.61 244.20 145.90 245.87 140.96 245.10 C 136.57 245.44 133.43 241.02 128.97 241.82 C 125.16 242.25 121.12 242.52 117.96 239.97 C 116.64 231.78 121.59 224.19 120.11 216.04 C 119.72 210.69 115.95 206.49 114.63 201.44 C 114.67 196.94 114.89 192.41 115.86 188.00 C 116.62 185.73 115.00 183.78 114.21 181.78 C 112.66 178.72 113.86 174.90 111.91 172.00 C 110.05 169.04 108.31 165.98 106.05 163.30 C 105.61 163.98 104.73 165.33 104.29 166.01 C 103.81 171.01 103.42 176.29 100.74 180.68 C 98.01 184.66 97.13 189.48 95.58 193.96 C 93.35 199.76 95.32 205.98 94.41 211.95 C 93.54 215.30 91.63 218.35 91.28 221.85 C 90.68 228.02 90.09 234.62 92.68 240.43 C 94.98 243.48 96.54 246.99 98.81 250.05 C 100.97 252.18 102.53 254.78 104.29 257.23 C 104.29 258.82 104.23 260.41 104.13 262.00 C 102.76 262.16 101.38 262.31 100.01 262.46 C 96.98 265.67 92.05 265.31 88.18 264.13 C 85.33 262.79 81.94 260.74 82.04 257.13 C 82.10 253.01 78.41 249.79 79.30 245.59 C 76.76 240.89 79.48 235.91 78.89 230.95 C 78.18 224.18 75.37 217.78 74.93 210.98 C 75.48 205.12 78.17 199.76 79.56 194.11 C 79.86 188.50 80.61 182.94 82.20 177.54 C 82.55 177.05 82.91 176.57 83.27 176.09 C 78.69 171.35 78.31 164.23 79.28 158.07 C 80.39 152.59 83.39 146.83 88.88 144.71 C 91.24 145.56 94.21 145.70 95.79 147.94 C 99.76 152.97 100.02 159.88 98.90 165.95 C 100.78 164.82 102.85 163.96 104.46 162.45 C 105.28 160.12 105.17 157.57 105.63 155.16 C 108.02 154.32 110.43 153.54 112.92 153.04 C 114.23 150.74 115.66 148.50 117.35 146.46 C 116.56 150.24 115.27 155.82 110.30 155.27 C 109.28 155.91 108.21 156.49 107.28 157.26 C 107.07 158.86 106.93 160.47 106.87 162.08 C 107.18 162.14 107.81 162.25 108.12 162.30 C 111.31 167.25 116.35 171.77 116.42 178.04 C 116.36 182.75 120.27 186.31 120.29 190.98 C 119.88 191.18 119.07 191.59 118.66 191.80 C 118.31 190.90 117.62 189.10 117.28 188.20 C 116.46 193.75 116.99 199.38 118.29 204.81 C 119.36 207.87 121.45 210.62 121.63 213.96 C 122.00 218.67 122.38 223.57 120.95 228.14 C 119.85 231.93 119.97 235.92 120.09 239.82 C 123.33 240.94 126.69 240.42 130.00 240.09 C 133.26 239.69 135.93 241.89 138.91 242.74 C 141.26 243.00 143.61 243.39 145.98 243.57 C 148.23 242.95 150.15 241.57 152.17 240.47 C 151.43 239.43 150.68 238.40 149.92 237.39 C 145.43 237.32 141.23 234.98 138.73 231.26 C 136.81 228.29 133.81 226.30 131.60 223.61 C 130.65 220.46 129.85 217.22 129.43 213.95 C 129.37 209.03 130.04 204.08 129.09 199.20 C 127.35 192.21 128.52 184.92 129.88 177.97 C 130.22 175.83 128.75 174.02 127.97 172.16 C 126.61 174.52 124.85 178.06 121.52 177.37 C 119.43 176.21 119.05 173.52 118.09 171.53 C 118.26 171.50 118.61 171.45 118.79 171.42 C 119.71 173.53 121.06 176.20 123.76 176.07 C 125.55 174.31 126.08 171.80 126.73 169.48 C 127.19 169.59 128.11 169.82 128.58 169.93 C 128.40 165.38 128.16 160.84 128.02 156.29 C 123.85 159.84 118.63 162.79 112.98 162.38 C 110.65 162.29 108.69 160.75 107.21 159.07 C 110.37 159.61 113.52 161.21 116.78 160.44 C 121.57 159.47 124.91 155.63 129.04 153.34 C 128.08 151.45 126.91 149.62 126.73 147.46 C 126.08 142.76 123.97 138.45 121.86 134.26 C 122.41 131.54 123.02 128.82 123.03 126.04 C 121.83 124.94 120.65 123.81 119.51 122.64 C 113.60 124.52 107.30 126.69 101.06 125.12 C 95.90 124.56 90.48 124.53 86.22 121.09 C 86.39 121.60 86.72 122.62 86.88 123.14 C 84.45 124.61 82.95 126.99 82.75 129.91 C 82.47 128.43 81.92 125.45 81.65 123.96 C 81.16 128.52 82.25 133.25 80.54 137.65 C 78.66 142.23 81.06 146.92 81.33 151.54 C 78.04 147.52 76.98 141.67 78.88 136.80 C 80.54 132.55 79.94 127.87 79.44 123.46 C 81.00 123.13 82.60 123.29 84.18 123.30 C 84.77 122.33 85.33 121.34 85.85 120.34 C 85.39 117.59 85.42 114.81 85.34 112.04 C 84.84 108.92 82.91 106.29 82.00 103.29 C 82.69 103.16 84.07 102.88 84.76 102.74 L 84.01 101.37 C 85.93 101.78 87.90 101.89 89.69 100.86 C 90.45 101.70 91.21 102.56 91.97 103.41 C 89.99 103.38 88.01 103.43 86.04 103.49 C 85.54 103.99 85.04 104.49 84.55 105.00 C 87.14 109.33 86.91 114.41 87.18 119.24 C 92.08 124.05 99.59 121.53 105.58 123.70 C 105.59 123.36 105.61 122.66 105.62 122.32 C 102.58 121.25 100.59 118.13 100.40 114.97 C 102.52 117.19 104.31 119.82 107.10 121.29 C 106.93 121.92 106.59 123.19 106.43 123.82 C 110.97 122.59 115.77 122.11 119.95 119.79 C 119.78 115.50 119.15 111.24 119.07 106.94 C 118.60 107.38 117.66 108.27 117.19 108.72 C 115.99 108.61 114.70 107.78 113.53 108.37 C 110.10 110.25 106.11 110.34 102.37 111.21 C 102.72 112.55 103.06 113.90 103.39 115.26 C 102.17 114.40 100.96 113.54 99.77 112.65 L 101.27 112.89 C 101.19 111.60 101.10 110.32 101.00 109.05 L 100.03 110.21 L 99.92 108.20 C 101.02 108.73 102.12 109.26 103.22 109.80 C 105.76 107.82 108.96 107.98 112.00 107.98 C 112.92 105.34 112.95 102.55 112.88 99.80 C 113.93 102.11 114.91 104.45 115.55 106.90 C 116.47 106.79 117.39 106.68 118.30 106.57 C 119.65 104.14 121.22 101.77 121.90 99.04 C 122.56 94.34 120.50 89.86 120.08 85.23 M 83.43 151.50 C 80.91 155.45 80.12 160.32 80.34 164.93 C 80.75 169.01 82.06 173.79 86.03 175.78 C 89.49 177.14 92.96 174.72 94.88 171.99 C 98.34 166.72 98.92 159.88 97.41 153.86 C 96.55 150.16 93.67 147.57 90.59 145.61 C 87.96 147.24 85.14 148.82 83.43 151.50 M 98.79 166.79 C 97.17 171.75 94.17 177.57 88.32 178.09 C 89.02 178.66 89.72 179.22 90.42 179.79 C 91.73 179.16 93.04 178.51 94.33 177.85 C 95.10 179.75 95.85 181.65 96.44 183.62 C 95.48 182.62 94.60 181.56 93.79 180.45 C 91.98 181.00 90.16 181.48 88.33 181.97 C 87.98 182.83 87.27 184.54 86.92 185.40 C 86.85 183.59 86.91 181.77 86.99 179.97 L 88.80 180.02 C 87.40 178.89 85.95 177.83 84.59 176.67 C 83.24 180.74 81.81 184.85 81.40 189.15 C 82.07 194.68 83.93 199.95 85.10 205.38 C 82.77 203.01 82.12 199.64 80.71 196.75 C 79.36 199.85 78.09 203.01 77.32 206.32 C 74.61 216.92 82.55 226.85 80.25 237.49 C 78.91 242.72 81.86 247.61 83.47 252.42 C 84.74 255.43 84.13 259.68 87.53 261.40 C 90.77 263.81 95.11 263.17 98.34 261.11 C 97.88 260.31 97.41 259.51 96.95 258.72 C 93.34 259.43 89.65 259.48 86.04 258.72 C 87.16 257.92 88.41 257.27 89.83 257.52 C 92.53 257.65 95.18 257.04 97.85 256.81 C 98.41 258.04 98.95 259.28 99.49 260.52 C 100.85 260.39 102.20 260.22 103.54 259.99 C 101.16 254.50 96.34 250.67 93.76 245.30 C 88.50 238.79 88.18 229.95 88.94 221.98 C 89.19 218.42 91.24 215.35 92.11 211.95 C 93.07 208.45 92.29 204.80 92.16 201.25 C 89.42 205.64 88.80 210.78 88.96 215.84 C 88.51 215.83 87.62 215.81 87.17 215.80 C 87.38 212.82 87.47 209.83 88.07 206.90 C 88.83 203.47 90.93 200.60 92.35 197.45 C 94.66 191.39 96.05 184.91 99.56 179.38 C 101.67 175.46 102.02 170.94 102.99 166.67 C 101.59 166.73 100.19 166.77 98.79 166.79 Z" />
<path fill="#333333" opacity="1.00" d=" M 81.16 79.86 C 83.98 81.55 81.05 85.55 80.59 87.92 C 79.19 85.30 79.87 82.37 81.16 79.86 Z" />
<path fill="#333333" opacity="1.00" d=" M 108.66 83.97 C 110.04 82.27 112.16 84.40 113.81 84.60 C 115.86 84.10 118.05 83.20 120.09 84.28 C 116.46 85.67 111.74 87.44 108.66 83.97 Z" />
<path fill="#333333" opacity="1.00" d=" M 130.77 95.99 C 129.70 92.52 127.91 89.20 128.01 85.47 C 131.09 91.96 134.66 99.89 130.21 106.64 C 130.03 103.07 131.24 99.54 130.77 95.99 Z" />
<path fill="#333333" opacity="1.00" d=" M 113.63 88.51 C 114.10 88.40 115.05 88.19 115.53 88.08 C 116.22 88.62 117.61 89.70 118.31 90.23 C 115.95 89.27 113.57 89.62 111.30 90.56 C 112.31 92.04 113.21 93.60 113.65 95.35 C 116.66 95.02 119.83 95.48 121.61 98.19 C 118.87 97.49 116.09 97.07 113.28 96.78 C 109.20 98.75 104.36 99.83 101.43 103.56 C 98.96 102.75 96.73 101.33 95.58 98.91 C 97.61 99.75 99.56 100.76 101.59 101.61 C 102.03 100.99 102.93 99.76 103.37 99.14 C 103.90 99.04 104.96 98.85 105.49 98.75 C 107.25 96.74 109.93 96.36 112.32 95.54 C 112.19 94.70 111.93 93.00 111.79 92.16 C 111.11 91.75 110.42 91.35 109.74 90.95 C 111.05 90.17 112.36 89.37 113.63 88.51 Z" />
<path fill="#333333" opacity="1.00" d=" M 99.11 97.32 C 102.24 94.39 103.56 89.00 108.35 88.47 C 106.67 90.49 105.00 92.52 103.66 94.79 C 102.15 95.64 100.64 96.51 99.11 97.32 Z" />
<path fill="#333333" opacity="1.00" d=" M 72.33 91.74 C 73.95 91.25 75.58 90.81 77.22 90.45 C 75.67 92.07 73.99 93.55 72.40 95.14 C 72.38 94.29 72.35 92.59 72.33 91.74 Z" />
<path fill="#333333" opacity="1.00" d=" M 79.86 97.02 C 79.57 95.15 76.29 92.15 79.85 92.08 C 82.69 95.74 81.49 100.52 81.06 104.71 C 81.36 105.14 81.97 106.01 82.27 106.44 C 81.09 110.03 80.52 113.80 78.97 117.27 C 79.41 118.40 79.87 119.52 80.35 120.64 C 79.96 121.41 79.55 122.17 79.14 122.94 C 78.84 121.94 78.23 119.95 77.92 118.96 C 77.34 119.88 76.18 121.71 75.60 122.63 C 75.72 117.44 80.04 113.33 79.51 108.05 C 79.15 104.36 79.73 100.70 79.86 97.02 Z" />
<path fill="#333333" opacity="1.00" d=" M 83.91 95.06 C 84.72 94.39 85.53 93.71 86.34 93.04 C 86.76 93.32 87.61 93.89 88.03 94.17 C 87.20 94.39 85.53 94.83 84.70 95.05 C 86.17 97.54 88.78 97.78 91.22 96.64 C 91.80 97.20 92.38 97.77 92.96 98.34 C 89.97 99.22 86.84 99.43 84.07 97.75 C 84.03 97.08 83.95 95.73 83.91 95.06 Z" />
<path fill="#333333" opacity="1.00" d=" M 64.46 100.03 C 67.48 102.02 67.83 105.67 66.27 108.73 C 64.97 106.02 64.80 102.97 64.46 100.03 Z" />
<path fill="#333333" opacity="1.00" d=" M 94.51 105.61 C 96.61 105.48 98.72 105.37 100.82 105.18 C 99.61 107.58 97.21 107.92 94.82 107.32 C 94.74 106.89 94.59 106.04 94.51 105.61 Z" />
<path fill="#333333" opacity="1.00" d=" M 96.30 110.92 C 93.06 112.81 88.46 110.36 88.41 106.55 C 91.00 108.08 93.62 109.55 96.30 110.92 Z" />
<path fill="#333333" opacity="1.00" d=" M 124.45 108.92 C 126.46 111.53 127.77 114.58 129.42 117.40 C 132.86 121.30 136.93 125.43 137.05 130.99 C 137.71 135.42 135.66 139.52 135.09 143.83 C 136.23 145.95 137.20 148.16 138.14 150.37 C 139.56 150.86 140.98 151.37 142.39 151.89 C 141.95 152.71 141.52 153.52 141.09 154.34 C 138.87 152.38 135.43 151.39 134.83 148.09 C 133.11 144.69 132.93 140.84 134.32 137.29 C 134.06 137.25 133.53 137.18 133.27 137.14 C 136.63 136.35 135.67 132.53 135.25 130.06 C 134.66 125.17 130.78 121.78 127.87 118.15 C 126.21 115.31 125.28 112.09 124.45 108.92 Z" />
<path fill="#333333" opacity="1.00" d=" M 71.87 109.87 C 73.48 109.34 74.03 109.89 73.53 111.52 C 71.90 112.03 71.34 111.48 71.87 109.87 Z" />
<path fill="#333333" opacity="1.00" d=" M 112.51 114.42 C 114.63 112.01 115.27 115.88 113.20 116.69 C 111.59 117.81 111.39 115.02 112.51 114.42 Z" />
<path fill="#333333" opacity="1.00" d=" M 98.85 127.58 C 106.21 128.99 113.66 126.97 120.49 124.31 C 119.30 125.44 118.30 126.88 116.76 127.55 C 110.67 129.67 104.02 130.89 97.66 129.20 C 97.15 134.89 91.08 138.03 85.97 138.52 C 89.70 135.48 95.18 133.87 96.40 128.61 C 94.49 128.02 92.58 127.46 90.67 126.86 C 89.53 129.48 88.75 132.22 87.96 134.95 C 86.48 131.59 88.37 128.30 89.70 125.26 C 92.79 125.87 95.81 126.77 98.85 127.58 Z" />
<path fill="#333333" opacity="1.00" d=" M 124.88 132.44 C 125.67 129.71 127.84 127.84 130.39 126.77 C 129.92 129.67 127.05 130.96 124.88 132.44 Z" />
<path fill="#333333" opacity="1.00" d=" M 82.66 129.96 C 85.29 135.83 85.22 143.19 82.33 148.99 C 82.30 142.65 82.86 136.31 82.66 129.96 Z" />
<path fill="#333333" opacity="1.00" d=" M 106.12 134.49 C 110.62 133.39 115.24 132.50 119.90 132.71 C 118.90 135.12 116.22 134.18 114.28 134.58 C 108.79 135.35 103.55 137.33 98.07 138.18 C 100.18 135.92 103.27 135.29 106.12 134.49 Z" />
<path fill="#333333" opacity="1.00" d=" M 102.26 142.99 C 106.85 138.13 113.66 135.60 120.18 134.74 C 117.23 136.94 113.63 137.85 110.31 139.31 C 107.58 140.43 105.09 142.09 102.26 142.99 Z" />
<path fill="#333333" opacity="1.00" d=" M 95.60 145.03 C 104.34 143.25 113.40 143.53 121.98 140.92 C 118.87 144.84 113.54 144.46 109.06 144.99 C 104.56 144.72 99.86 147.35 95.60 145.03 Z" />
<path fill="#333333" opacity="1.00" d=" M 75.99 141.26 C 77.03 144.12 77.34 147.18 77.48 150.21 C 75.77 147.51 75.17 144.39 75.99 141.26 Z" />
<path fill="#333333" opacity="1.00" d=" M 70.83 147.12 C 72.78 146.25 73.17 150.42 71.29 150.55 C 70.08 150.00 70.06 148.04 70.83 147.12 Z" />
<path fill="#333333" opacity="1.00" d=" M 52.28 152.24 C 52.76 152.83 52.76 152.83 52.28 152.24 Z" />
<path fill="#333333" opacity="1.00" d=" M 88.45 188.92 C 90.15 189.15 91.86 189.44 93.55 189.78 C 91.85 191.14 88.80 192.01 88.45 188.92 Z" />
<path fill="#333333" opacity="1.00" d=" M 123.57 225.91 C 124.05 227.26 124.24 228.68 124.37 230.10 C 124.76 231.64 125.13 233.19 125.42 234.76 C 122.80 232.49 122.45 229.08 123.57 225.91 Z" />
<path fill="#333333" opacity="1.00" d=" M 82.32 242.97 C 83.58 239.80 84.49 235.83 87.99 234.43 C 87.51 235.51 87.00 236.59 86.48 237.66 C 85.78 239.88 84.53 242.00 82.32 242.97 Z" />
</g>
</svg>
