<?xml version="1.0" encoding="UTF-8" ?>
<!DOCTYPE svg PUBLIC "-//W3C//DTD SVG 1.1//EN" "http://www.w3.org/Graphics/SVG/1.1/DTD/svg11.dtd">
<svg width="163pt" height="275pt" viewBox="0 0 163 275" version="1.1" xmlns="http://www.w3.org/2000/svg"><g id="#262825ff">
<path fill="#333333" opacity="1.00" d=" M 45.71 76.72 C 50.20 72.91 56.46 73.04 61.94 74.03 C 65.29 75.26 68.68 77.67 69.39 81.40 C 69.89 85.72 69.43 90.19 67.48 94.13 C 70.56 97.33 75.55 97.13 78.58 100.45 C 80.97 103.02 85.01 101.08 87.63 103.28 C 92.12 105.63 94.16 110.39 96.30 114.69 C 97.37 117.20 99.71 118.72 101.48 120.68 C 104.81 124.96 104.48 130.95 107.91 135.19 C 110.98 139.13 110.72 144.32 111.81 148.95 C 112.73 153.33 111.57 157.88 112.86 162.23 C 115.20 170.53 114.74 179.58 111.88 187.69 C 109.48 194.01 98.87 192.66 98.40 185.73 C 95.32 190.43 93.62 195.80 93.42 201.42 C 94.61 200.80 95.84 200.26 96.99 199.56 C 97.31 199.51 97.94 199.42 98.25 199.38 C 101.31 200.55 105.08 200.84 106.38 204.39 C 116.46 209.32 127.57 211.96 137.21 217.84 C 139.13 218.79 139.99 220.80 140.74 222.68 C 139.25 225.42 136.81 227.59 133.55 227.57 C 135.62 225.47 137.93 223.37 138.33 220.27 C 136.92 219.46 135.50 218.69 134.04 218.00 C 132.98 219.31 131.53 220.41 130.90 222.03 C 130.73 223.88 131.05 225.72 131.19 227.57 C 123.84 223.42 115.54 221.30 108.39 216.78 C 106.35 215.55 104.17 214.56 101.89 213.86 C 101.22 212.72 100.54 211.58 99.87 210.46 C 101.29 208.12 102.95 205.95 104.57 203.75 C 102.35 202.63 100.09 201.59 97.76 200.72 C 96.19 201.38 94.98 202.63 93.60 203.58 C 93.69 205.60 93.80 207.62 94.22 209.60 C 95.91 211.20 98.01 212.39 100.28 212.94 C 102.33 220.03 108.48 224.79 111.28 231.48 C 111.99 233.32 111.89 235.74 109.90 236.72 C 104.46 240.08 101.75 246.20 96.64 249.91 C 93.64 251.01 90.31 250.35 87.18 250.74 C 84.47 251.06 81.09 250.60 80.07 247.64 C 81.90 244.07 85.10 241.52 87.03 238.02 C 88.88 234.89 91.20 232.06 92.99 228.89 C 91.72 223.59 89.18 218.54 85.51 214.50 C 82.85 211.61 81.49 207.88 79.66 204.48 C 80.36 204.04 81.06 203.60 81.76 203.17 C 78.73 202.10 75.83 200.73 72.90 199.43 C 74.53 207.80 84.72 212.13 84.25 221.26 C 81.29 223.63 77.74 225.12 74.00 225.68 C 70.55 225.95 68.62 229.14 66.01 230.97 C 61.70 232.72 56.97 233.52 52.34 233.01 C 50.91 231.72 50.30 229.85 50.51 227.96 C 51.58 225.92 53.67 224.77 55.32 223.27 C 57.62 221.53 58.81 218.84 60.61 216.66 C 63.40 213.73 63.57 208.79 61.29 205.53 C 58.78 201.49 56.11 197.54 53.88 193.33 C 49.52 194.46 45.76 191.73 42.11 189.82 C 40.10 188.51 39.01 186.28 38.70 183.95 C 33.67 180.82 27.98 178.95 22.58 176.57 C 20.13 175.04 18.17 177.78 16.02 178.56 C 13.62 177.66 12.15 175.46 10.75 173.45 C 8.74 172.79 6.89 171.76 5.22 170.47 C 7.17 170.78 9.09 171.27 11.04 171.58 C 11.89 169.96 12.52 168.24 13.26 166.57 C 10.77 165.46 8.41 164.12 6.17 162.59 C 8.95 162.16 11.64 163.40 13.62 165.29 C 17.11 163.21 20.66 165.75 23.67 167.44 C 23.65 168.18 23.61 169.66 23.59 170.40 C 30.01 172.81 36.22 175.71 42.29 178.91 C 43.07 177.65 43.87 176.39 44.70 175.16 C 44.13 168.70 42.46 162.39 41.95 155.93 C 42.41 152.32 43.42 148.75 43.32 145.08 C 42.64 141.39 40.93 137.83 41.25 134.00 C 41.30 131.26 42.91 128.85 43.11 126.15 C 42.24 121.97 39.98 117.69 41.52 113.37 C 43.58 108.09 49.17 105.58 53.44 102.36 C 50.69 101.93 47.97 101.25 45.18 101.16 C 44.33 100.79 43.48 100.43 42.63 100.06 C 41.65 96.78 41.85 93.32 42.36 89.97 C 42.86 85.48 42.43 80.31 45.71 76.72 M 43.77 84.94 C 43.43 89.87 43.00 94.91 44.02 99.79 C 46.62 100.32 49.29 100.02 51.90 100.39 C 56.38 101.58 59.16 105.67 62.62 108.45 C 59.18 108.17 56.52 105.86 53.84 103.94 C 51.44 105.82 49.27 108.01 46.56 109.45 C 44.17 110.69 43.33 113.42 42.47 115.77 C 43.30 119.71 44.00 123.68 45.02 127.57 C 42.27 132.32 43.25 138.01 44.04 143.16 C 45.15 142.43 46.27 141.74 47.41 141.06 C 45.63 145.50 44.23 150.06 43.76 154.85 C 44.31 161.25 45.28 167.61 46.04 173.99 C 45.30 177.24 43.59 180.24 41.52 182.84 C 41.31 183.89 41.10 184.95 40.90 186.01 C 43.59 189.77 48.22 190.84 52.35 192.24 C 52.27 189.50 52.11 186.52 54.86 185.01 C 55.94 185.40 57.02 185.79 58.10 186.18 C 58.14 185.47 58.21 184.05 58.25 183.33 C 56.06 179.75 52.14 176.62 52.46 172.03 C 52.63 167.05 54.30 162.24 55.22 157.36 C 53.96 152.11 55.74 146.55 53.43 141.48 C 52.74 142.22 51.35 143.70 50.65 144.44 C 51.80 141.57 53.32 138.86 54.26 135.91 C 50.92 133.56 48.28 130.26 46.78 126.47 C 45.99 122.81 47.19 119.03 49.74 116.33 C 49.71 115.89 49.65 115.00 49.62 114.56 C 50.52 113.41 51.42 112.25 52.34 111.12 C 51.28 110.28 50.23 109.44 49.19 108.60 C 51.06 109.03 52.93 109.51 54.78 110.04 L 53.17 110.86 C 55.20 111.20 57.20 111.67 59.15 112.33 C 59.65 114.01 60.15 115.70 60.57 117.41 C 58.49 115.51 56.65 113.33 54.24 111.82 C 52.99 113.11 51.53 114.16 50.10 115.24 C 50.15 115.59 50.24 116.30 50.28 116.66 C 49.64 117.28 48.99 117.91 48.35 118.54 C 48.34 121.01 48.15 123.51 48.48 125.97 C 49.88 128.37 51.92 130.32 53.49 132.61 C 56.33 134.03 59.45 134.57 62.61 134.65 C 61.70 135.31 60.78 135.97 59.86 136.62 C 60.45 139.30 60.88 142.12 62.64 144.34 C 64.49 148.04 68.74 149.45 70.92 152.90 C 72.68 156.06 76.45 156.63 79.68 157.21 C 85.48 156.34 91.72 155.87 96.57 152.23 C 95.66 148.44 94.71 144.60 94.86 140.67 C 94.43 140.06 94.01 139.44 93.59 138.83 C 91.81 137.80 90.10 136.67 88.38 135.56 L 88.67 134.60 C 85.08 134.47 83.47 137.82 80.99 139.74 C 81.89 137.90 82.48 135.83 83.86 134.27 C 85.18 134.13 86.50 134.15 87.82 134.34 C 86.04 132.10 84.40 129.76 82.79 127.39 C 80.96 130.26 79.16 133.33 76.29 135.28 C 71.15 139.01 62.26 136.21 61.66 129.36 C 63.26 130.62 64.29 132.38 65.36 134.07 C 67.65 134.38 69.92 134.82 72.14 135.44 C 78.09 133.91 82.17 127.53 82.08 121.55 C 79.10 119.71 76.40 117.49 73.88 115.08 C 77.77 117.52 81.92 119.47 86.39 120.60 C 84.17 121.53 83.99 123.62 84.14 125.73 C 87.18 129.95 89.73 134.89 94.89 136.90 C 94.81 135.38 94.72 133.87 94.70 132.35 C 96.32 136.01 97.97 139.82 97.60 143.92 C 97.42 148.57 100.43 152.44 101.14 156.91 C 102.05 162.12 103.21 167.32 103.38 172.63 C 101.63 175.08 100.45 177.85 99.15 180.56 C 100.25 183.64 101.38 186.73 102.99 189.60 C 104.78 189.67 106.58 189.89 108.36 189.62 C 110.74 186.64 110.70 182.67 111.62 179.14 C 112.56 174.24 112.89 168.84 110.41 164.32 C 111.16 159.98 110.37 155.57 110.37 151.20 C 109.36 145.11 108.80 138.32 104.25 133.66 C 101.68 130.79 102.90 126.42 100.67 123.39 C 98.93 120.84 96.65 118.70 95.06 116.04 C 92.89 112.54 91.27 108.58 88.04 105.88 C 84.79 102.51 79.05 104.62 75.96 101.01 C 73.83 98.79 70.75 98.12 67.97 97.09 C 67.27 95.44 66.38 93.86 65.90 92.13 C 66.76 89.79 68.10 87.55 68.18 84.99 C 67.92 81.96 66.62 78.70 63.81 77.20 C 61.22 75.42 57.90 75.87 54.93 75.69 C 49.64 75.51 44.31 79.52 43.77 84.94 M 56.83 135.69 C 56.08 137.09 55.34 138.49 54.60 139.90 C 55.03 139.96 55.88 140.09 56.31 140.16 C 56.04 145.93 56.66 151.68 57.35 157.40 C 55.89 161.99 53.40 166.43 54.21 171.45 C 57.50 167.30 59.02 161.76 63.59 158.68 C 64.36 156.44 65.74 154.52 67.44 152.89 C 64.25 149.24 59.07 146.39 58.90 140.98 C 58.88 138.99 57.87 137.30 56.83 135.69 M 87.12 157.77 C 80.90 160.04 73.57 159.50 68.27 155.32 C 68.03 155.69 67.53 156.43 67.28 156.81 C 67.58 161.00 62.91 162.14 60.23 164.26 C 59.43 165.68 58.63 167.10 57.83 168.52 C 60.89 168.54 64.46 167.96 66.97 170.18 C 70.06 172.80 72.52 176.06 75.16 179.12 C 75.83 179.13 77.18 179.17 77.85 179.18 C 77.37 178.34 76.90 177.49 76.43 176.65 C 77.09 175.03 77.80 173.44 78.54 171.86 C 76.37 169.68 74.46 167.22 73.26 164.38 C 76.80 165.18 79.33 167.99 82.00 170.24 C 81.11 171.60 80.19 172.93 79.25 174.26 C 82.84 175.13 86.50 175.48 90.14 175.98 C 93.04 177.09 94.85 180.02 96.32 182.61 C 97.84 179.06 99.46 175.55 100.86 171.96 C 101.46 165.55 99.53 159.33 97.87 153.23 C 94.92 156.03 91.25 157.86 87.12 157.77 M 16.05 165.99 C 14.74 167.90 13.60 169.91 12.52 171.95 C 12.62 172.71 12.84 174.24 12.94 175.00 C 14.00 175.68 15.05 176.36 16.11 177.04 C 17.08 176.46 18.04 175.89 19.01 175.31 C 18.19 172.28 20.61 170.49 22.50 168.63 C 20.83 168.81 19.00 168.61 17.49 169.51 C 16.23 170.67 16.53 172.56 16.19 174.09 C 15.80 174.11 15.03 174.15 14.64 174.17 C 15.20 172.10 15.90 170.07 16.94 168.19 C 17.92 167.55 18.90 166.90 19.86 166.23 C 18.91 166.17 17.00 166.05 16.05 165.99 M 54.11 171.91 C 54.24 173.22 54.37 174.53 54.49 175.84 C 55.89 177.64 57.52 179.25 58.82 181.13 C 59.54 182.81 59.39 184.73 59.72 186.50 C 62.24 187.23 64.79 187.85 67.28 188.69 C 66.69 187.88 66.11 187.07 65.54 186.26 C 65.01 185.93 63.94 185.27 63.40 184.95 C 65.95 182.84 68.24 180.41 71.01 178.56 C 69.09 175.09 66.38 172.29 62.84 170.47 C 59.88 170.66 56.98 171.22 54.11 171.91 M 20.15 172.96 C 26.90 176.28 33.87 179.12 40.65 182.39 C 41.01 181.80 41.74 180.63 42.10 180.05 C 37.20 177.91 32.27 175.84 27.39 173.66 C 25.12 172.74 22.41 171.14 20.15 172.96 M 79.27 177.34 C 78.22 181.45 78.42 185.75 78.70 189.95 C 78.02 191.12 77.35 192.30 76.69 193.49 C 81.68 195.39 86.58 197.55 91.32 200.04 C 91.12 199.31 90.73 197.86 90.54 197.14 C 93.10 192.17 95.29 187.03 98.37 182.34 C 97.72 182.90 97.08 183.47 96.46 184.06 C 94.69 182.08 92.87 180.09 90.65 178.62 C 87.04 177.60 82.96 175.81 79.27 177.34 M 66.86 184.82 C 68.12 186.72 69.83 188.33 70.68 190.50 C 72.25 191.31 73.80 192.14 75.35 192.97 C 76.75 189.25 76.47 185.24 76.76 181.35 C 75.62 181.30 74.47 181.31 73.32 181.36 L 74.09 178.99 C 71.68 180.93 68.89 182.44 66.86 184.82 M 53.32 189.03 C 66.55 193.89 79.28 200.07 91.85 206.43 C 92.18 205.45 92.83 203.51 93.16 202.54 C 88.23 200.38 83.33 198.08 78.12 196.68 C 72.90 195.06 68.73 191.23 63.49 189.65 C 60.36 188.39 56.16 185.81 53.32 189.03 M 54.17 190.88 C 59.40 197.53 64.41 204.78 65.45 213.41 C 63.29 216.28 61.15 219.16 59.03 222.06 C 57.34 224.49 54.40 225.95 53.42 228.86 C 54.10 231.39 57.07 230.75 59.05 230.93 C 63.48 230.83 66.97 227.84 70.22 225.18 C 73.12 222.64 77.31 224.17 80.58 222.42 C 81.07 220.53 82.82 218.42 81.36 216.58 C 79.70 213.63 77.01 211.47 75.23 208.60 C 72.85 205.63 71.82 201.92 70.56 198.40 C 65.08 195.94 59.86 192.89 54.17 190.88 M 81.20 204.73 C 84.10 209.46 87.31 213.98 90.77 218.31 C 93.24 221.10 93.94 224.83 95.12 228.24 C 93.59 232.94 89.89 236.45 87.86 240.91 C 86.75 243.81 83.65 244.93 81.29 246.56 C 85.55 249.77 91.11 248.21 95.98 247.91 C 98.29 246.19 99.95 243.81 101.60 241.49 C 103.70 238.59 107.17 237.24 109.70 234.80 C 109.64 226.53 101.14 222.14 98.70 214.73 C 95.73 213.38 93.26 211.11 91.79 208.19 C 88.86 206.85 85.91 205.53 83.15 203.87 C 82.50 204.15 81.85 204.44 81.20 204.73 M 103.92 206.81 C 102.98 208.20 102.05 209.60 101.15 211.03 C 102.11 211.69 103.08 212.34 104.08 212.96 C 112.23 216.45 120.81 219.25 128.41 223.92 C 129.27 221.66 130.64 219.67 132.12 217.79 C 126.49 215.53 120.65 213.72 115.32 210.79 C 111.71 208.94 107.82 207.82 103.92 206.81 Z" />
<path fill="#333333" opacity="1.00" d=" M 63.83 113.51 C 68.46 112.17 72.85 109.40 77.80 109.66 C 74.63 112.60 70.29 113.74 66.07 114.03 C 64.84 115.32 63.56 116.56 62.19 117.71 C 62.71 116.30 63.27 114.91 63.83 113.51 Z" />
<path fill="#333333" opacity="1.00" d=" M 84.99 139.12 C 85.89 138.14 86.82 137.19 87.80 136.29 C 86.37 139.30 84.63 142.16 82.82 144.97 C 83.45 142.98 84.22 141.05 84.99 139.12 Z" />
<path fill="#333333" opacity="1.00" d=" M 68.83 139.33 C 69.32 139.04 70.30 138.47 70.79 138.18 C 73.14 138.97 75.53 139.64 77.87 140.48 C 77.75 140.77 77.50 141.37 77.38 141.67 C 74.39 141.55 71.62 140.29 68.83 139.33 Z" />
<path fill="#333333" opacity="1.00" d=" M 77.85 142.88 C 78.31 142.63 79.24 142.13 79.70 141.88 C 80.44 145.97 82.11 149.77 83.36 153.71 C 79.54 151.43 78.38 146.99 77.85 142.88 Z" />
<path fill="#333333" opacity="1.00" d=" M 96.34 209.46 C 96.91 206.41 98.85 204.08 101.61 202.73 C 100.46 204.60 98.83 206.10 97.68 207.97 C 97.86 208.90 98.21 210.74 98.38 211.66 C 97.56 211.09 96.88 210.35 96.34 209.46 Z" />
</g>
</svg>
