<?xml version="1.0" encoding="UTF-8" ?>
<!DOCTYPE svg PUBLIC "-//W3C//DTD SVG 1.1//EN" "http://www.w3.org/Graphics/SVG/1.1/DTD/svg11.dtd">
<svg width="156pt" height="250pt" viewBox="0 0 156 250" version="1.1" xmlns="http://www.w3.org/2000/svg"><g id="#383938ff">
<path fill="#333333" opacity="1.00" d=" M 105.87 23.13 C 109.19 22.13 112.43 23.79 115.54 24.76 C 118.48 25.47 119.64 28.53 120.65 31.05 C 122.38 35.23 121.68 39.88 120.58 44.13 C 119.74 52.52 125.29 59.50 130.40 65.49 C 133.40 68.59 132.17 73.24 131.99 77.05 C 131.48 76.28 130.98 75.51 130.49 74.73 C 130.71 72.35 130.76 69.80 129.48 67.68 C 126.27 62.82 122.13 58.42 120.13 52.86 C 119.57 50.53 119.15 48.16 118.57 45.83 C 117.84 42.79 120.01 40.03 119.78 37.00 C 119.68 34.02 119.61 30.74 117.66 28.30 C 116.31 26.76 114.61 25.62 113.07 24.30 C 108.35 24.26 103.20 25.42 99.69 28.75 C 96.56 33.81 97.04 40.27 97.96 45.91 C 98.78 48.83 100.20 53.20 104.00 52.82 C 109.50 53.34 111.94 47.66 114.40 43.81 C 115.19 49.18 110.47 53.16 105.93 54.85 C 106.47 56.59 106.96 58.35 107.39 60.12 C 112.49 62.01 117.56 59.02 122.69 60.34 C 122.61 60.81 122.45 61.75 122.37 62.22 C 119.91 61.93 117.43 61.70 114.95 61.72 C 114.27 62.59 113.60 63.46 112.94 64.34 C 112.54 66.42 111.87 68.43 111.11 70.40 C 109.63 68.05 110.96 65.51 112.03 63.28 C 110.39 62.84 108.78 62.25 107.09 62.04 C 104.72 62.96 102.51 64.23 100.15 65.16 C 100.92 64.52 102.46 63.25 103.24 62.61 C 102.12 62.35 99.90 61.82 98.79 61.56 C 95.85 65.85 92.91 70.13 89.79 74.28 C 87.73 77.13 90.04 79.96 92.17 81.84 C 91.56 85.44 90.30 88.85 88.71 92.13 C 89.64 94.47 88.93 96.83 88.36 99.14 C 87.58 101.45 89.41 103.43 90.28 105.42 C 91.65 100.03 91.28 94.42 92.27 88.99 C 94.91 93.83 92.68 99.26 92.16 104.32 C 95.60 105.08 99.13 104.83 102.62 104.70 C 100.95 101.34 99.33 97.95 97.02 94.97 C 98.94 95.92 101.06 96.70 102.48 98.38 C 103.20 99.97 103.76 101.62 104.44 103.23 C 107.37 101.37 109.98 103.89 112.94 103.71 C 116.10 103.23 118.73 106.65 121.86 104.93 C 121.75 105.80 121.53 107.54 121.42 108.41 C 124.46 105.98 124.69 101.66 126.59 98.44 C 130.41 91.59 128.95 83.54 129.99 76.09 C 130.63 76.80 131.27 77.50 131.92 78.20 C 132.69 85.84 131.67 93.96 127.65 100.62 C 126.14 103.63 125.95 107.09 124.42 110.09 C 128.29 115.60 128.01 122.56 127.51 128.96 C 126.85 134.30 124.34 139.11 121.73 143.72 L 124.55 143.05 C 124.45 143.66 124.27 144.88 124.18 145.49 C 119.09 144.61 116.44 149.78 112.20 151.39 C 110.76 152.31 108.54 152.25 107.76 153.98 C 107.67 155.13 107.91 156.20 108.48 157.21 C 108.25 163.82 108.24 170.45 107.61 177.05 C 107.68 179.56 107.29 182.29 108.23 184.66 C 112.58 187.92 117.24 191.05 120.33 195.62 C 121.93 198.03 124.00 200.08 126.24 201.89 C 126.25 205.10 126.19 208.31 126.17 211.52 C 122.00 212.87 117.69 213.91 113.28 213.91 C 103.77 202.74 93.80 191.95 83.79 181.23 C 82.72 180.04 81.43 179.06 80.13 178.13 C 79.84 175.56 79.91 172.94 80.48 170.43 C 83.01 168.56 86.16 167.18 89.36 167.77 C 91.73 168.83 93.63 170.65 95.53 172.37 C 95.16 165.73 95.38 159.07 96.01 152.46 C 98.35 155.46 98.01 159.47 98.10 163.06 C 97.70 168.34 97.99 173.65 97.44 178.93 C 97.33 180.24 96.65 181.16 95.39 181.72 C 95.24 179.61 95.13 177.51 94.98 175.40 C 92.62 173.90 90.99 171.63 89.48 169.33 C 87.12 169.69 84.73 169.85 82.34 169.82 C 82.28 172.02 82.18 174.23 82.09 176.44 C 84.76 178.91 87.46 181.38 89.77 184.19 C 97.05 194.07 106.77 201.78 114.31 211.44 C 117.35 210.90 120.46 210.59 123.53 211.11 C 123.80 208.59 124.04 206.06 124.33 203.55 C 118.84 197.13 112.22 191.84 106.31 185.86 C 104.27 176.88 107.07 167.63 105.70 158.56 C 106.28 158.45 107.45 158.23 108.03 158.12 C 107.67 157.69 106.96 156.82 106.60 156.39 C 106.47 155.81 106.23 154.66 106.11 154.09 C 104.71 152.99 102.60 153.48 100.92 152.95 C 98.24 152.71 96.09 151.03 93.72 149.94 C 90.62 148.98 86.86 150.12 84.20 147.85 C 82.05 146.07 80.11 144.05 78.34 141.90 C 78.74 141.53 79.53 140.79 79.92 140.43 C 82.29 142.15 84.08 144.54 86.46 146.24 C 87.97 146.68 89.56 146.75 91.12 147.00 C 89.35 144.90 87.59 142.79 86.15 140.46 L 85.54 140.70 C 85.57 139.92 85.63 138.36 85.66 137.58 C 85.06 137.45 83.87 137.18 83.27 137.04 C 81.43 134.14 78.72 131.98 76.05 129.90 C 77.17 134.84 77.38 139.91 78.11 144.91 C 78.82 152.99 75.79 160.80 76.20 168.87 C 76.95 172.64 79.07 176.08 79.32 179.99 C 79.65 183.17 80.16 187.45 76.55 188.98 L 76.78 189.10 C 73.57 189.96 70.50 191.28 67.22 191.86 C 64.59 192.05 62.97 194.28 60.99 195.70 C 62.51 196.92 63.98 198.19 65.33 199.60 C 65.65 199.49 66.30 199.27 66.63 199.16 C 66.31 199.51 65.66 200.21 65.34 200.55 C 67.52 203.14 69.69 205.72 71.95 208.23 C 71.48 212.60 71.18 216.99 71.27 221.39 C 69.22 222.03 67.09 222.32 64.95 222.35 C 60.25 222.43 55.70 223.74 51.07 224.44 C 39.91 210.04 29.14 195.35 18.09 180.87 C 14.41 176.90 15.49 171.11 15.28 166.16 C 17.34 164.29 20.41 164.80 22.96 164.80 C 26.83 165.24 30.72 165.23 34.60 164.82 C 35.25 165.46 35.91 166.11 36.57 166.76 C 38.69 163.12 43.11 161.80 45.13 158.12 C 46.19 156.42 47.65 154.94 48.37 153.05 C 48.87 146.63 46.38 140.40 46.56 133.98 C 46.86 126.09 42.75 118.86 41.74 111.23 C 42.71 107.21 42.03 102.83 44.01 99.08 C 45.62 96.83 42.95 94.35 44.04 92.01 C 45.16 89.99 46.60 88.11 48.34 86.59 C 50.53 86.31 52.72 86.63 54.90 86.78 C 54.91 87.16 54.93 87.92 54.94 88.31 C 50.71 86.31 48.33 90.65 45.70 93.02 C 45.85 93.64 46.16 94.87 46.31 95.49 C 46.81 95.71 47.82 96.15 48.32 96.37 C 49.59 97.74 50.86 99.12 51.98 100.61 C 52.56 100.52 53.71 100.33 54.29 100.24 C 53.71 99.10 53.12 97.96 52.52 96.83 C 53.49 95.75 54.46 94.69 55.43 93.62 C 60.40 96.46 64.92 100.03 70.15 102.43 C 75.03 98.88 82.00 100.15 86.76 103.31 C 85.39 99.15 88.45 95.06 86.53 90.93 C 88.40 88.02 90.95 84.94 90.03 81.21 C 87.18 85.60 82.87 89.93 83.05 95.49 C 79.29 93.64 75.11 93.22 71.00 92.79 C 65.54 92.31 60.43 90.20 55.20 88.71 C 56.67 88.15 58.20 87.80 59.73 87.48 C 60.10 82.06 57.85 75.69 52.32 73.76 C 48.19 71.55 43.17 72.19 39.05 74.04 C 33.15 77.70 29.58 84.36 28.49 91.09 C 28.12 96.54 29.28 102.73 34.01 106.11 C 35.84 108.25 39.83 108.38 40.02 111.67 C 34.41 110.15 29.99 105.51 27.38 100.51 C 26.63 94.42 25.59 87.13 30.01 82.10 C 31.86 76.38 36.72 71.33 42.87 70.62 C 49.04 69.26 56.60 71.45 59.54 77.42 C 61.92 81.05 61.66 85.57 61.45 89.71 C 68.21 90.55 75.01 92.00 81.84 91.58 C 84.28 87.93 85.24 83.31 88.73 80.39 C 88.49 78.13 87.18 75.66 88.36 73.48 C 91.08 68.27 94.54 62.76 100.14 60.33 C 101.79 59.43 103.74 60.57 104.79 61.87 C 104.99 59.57 104.99 57.25 104.67 54.97 C 102.30 54.56 99.33 54.51 98.17 51.97 C 95.64 46.74 95.49 40.76 95.53 35.06 C 94.95 29.09 100.36 24.17 105.87 23.13 M 54.03 97.79 C 57.32 100.41 60.67 103.02 64.59 104.64 C 66.13 105.64 67.89 105.29 69.26 104.16 C 66.29 102.22 63.04 100.75 60.11 98.76 C 58.19 97.55 55.95 95.22 54.03 97.79 M 46.24 98.91 C 43.79 103.46 43.92 108.86 43.86 113.89 C 46.63 117.27 46.71 121.92 47.88 125.97 C 48.17 132.02 49.23 137.98 49.58 144.02 C 50.23 148.29 50.95 152.78 49.10 156.87 C 46.93 158.80 45.62 161.54 43.23 163.24 C 40.68 165.16 37.83 166.61 35.04 168.16 C 34.57 167.71 33.62 166.81 33.15 166.36 C 27.87 166.47 22.59 166.70 17.30 166.79 C 16.59 170.44 16.91 174.16 17.20 177.84 C 26.92 189.81 36.87 201.60 46.07 213.98 C 48.14 216.52 49.78 219.60 52.72 221.26 C 58.30 220.69 63.82 219.61 69.41 219.12 C 69.54 216.30 69.67 213.48 69.77 210.65 C 66.21 205.82 62.88 200.84 59.05 196.21 C 57.67 196.60 56.27 196.94 54.86 197.22 C 51.54 196.45 49.23 193.62 47.68 190.76 C 46.91 191.12 46.11 191.39 45.29 191.54 C 44.13 188.56 43.15 185.49 41.42 182.77 C 42.60 181.51 43.80 180.28 45.00 179.05 C 47.45 180.50 50.11 181.50 52.97 181.67 C 55.10 178.85 57.54 176.28 60.52 174.34 C 62.43 173.30 62.05 170.85 62.52 169.06 C 59.12 171.19 55.23 172.15 51.51 173.50 C 48.38 176.50 45.02 179.30 40.92 180.88 C 36.38 178.80 31.97 175.88 28.98 171.83 C 27.65 170.06 29.68 168.58 30.70 167.34 C 31.35 169.36 31.06 172.37 33.45 173.31 C 35.71 174.41 37.70 175.96 39.93 177.12 C 43.59 177.30 46.30 174.94 48.51 172.36 C 51.30 169.17 55.74 169.17 59.42 167.74 C 60.23 166.28 61.15 164.87 62.23 163.59 C 61.63 155.62 58.39 148.02 58.67 139.96 C 58.80 135.58 57.08 131.50 56.14 127.29 C 55.83 124.20 56.63 121.11 56.29 118.01 C 55.81 113.09 58.53 108.16 62.81 105.75 C 61.39 104.91 60.00 104.04 58.55 103.26 C 56.15 101.67 53.18 102.63 50.50 102.32 C 49.85 101.42 49.27 100.49 48.76 99.51 C 47.92 99.31 47.08 99.11 46.24 98.91 M 73.18 102.26 C 72.25 104.17 71.30 106.07 70.46 108.03 C 70.95 109.13 71.42 110.24 71.89 111.36 C 74.93 112.71 77.28 116.14 80.88 115.69 C 83.93 115.71 86.32 118.81 89.62 117.66 C 86.80 115.49 84.03 113.26 81.03 111.33 C 80.40 112.28 79.81 113.28 78.81 113.90 C 75.74 113.63 79.39 109.97 80.86 109.53 C 83.65 110.54 86.18 112.12 88.83 113.45 C 89.48 113.16 90.80 112.59 91.45 112.30 C 92.89 110.30 94.57 108.46 96.82 107.37 C 88.57 107.17 81.49 101.48 73.18 102.26 M 104.60 105.69 C 101.66 106.21 98.96 107.73 96.89 109.86 C 89.06 117.12 84.62 129.16 88.63 139.49 C 89.92 143.41 93.37 145.96 96.47 148.44 C 101.81 151.79 109.24 151.08 114.10 147.12 C 118.98 143.31 123.69 138.36 124.52 131.95 C 125.15 125.44 126.51 118.16 122.66 112.33 C 119.17 106.12 111.16 104.27 104.60 105.69 M 58.69 113.08 C 56.92 118.11 59.05 123.43 58.13 128.60 C 58.40 128.87 58.94 129.41 59.21 129.68 C 59.61 132.88 61.43 135.70 61.77 138.91 C 62.07 150.03 65.17 160.91 64.68 172.07 C 64.62 174.37 62.40 175.53 60.87 176.86 C 58.43 178.68 56.47 181.04 54.84 183.59 C 54.32 183.78 53.28 184.14 52.76 184.32 C 52.33 184.05 51.49 183.50 51.06 183.22 C 48.56 183.53 44.93 180.86 43.68 184.09 C 44.82 187.02 47.37 189.11 48.79 191.91 C 50.96 193.24 53.30 194.27 55.64 195.27 C 58.68 193.86 61.81 192.60 64.57 190.68 C 68.21 188.16 72.89 188.67 76.78 186.75 C 77.67 181.57 76.84 176.27 74.61 171.54 C 73.64 165.71 74.51 159.69 75.76 153.96 C 76.11 146.89 75.42 139.76 73.96 132.84 C 73.52 130.95 72.88 129.12 72.22 127.30 C 73.10 126.91 73.99 126.53 74.88 126.14 C 75.85 126.54 76.83 126.95 77.81 127.35 C 77.05 127.69 75.53 128.37 74.77 128.71 C 75.85 128.49 76.92 128.26 77.99 128.03 C 78.97 128.57 79.95 129.12 80.93 129.68 C 82.16 132.39 84.29 134.53 85.56 137.22 C 85.56 134.21 85.17 131.23 84.94 128.24 C 85.20 125.46 86.08 122.80 86.84 120.13 C 85.27 119.20 83.70 118.27 82.13 117.36 C 77.74 118.56 73.63 116.34 70.39 113.58 C 68.65 111.91 69.00 108.08 65.94 108.06 C 62.65 107.77 60.39 110.69 58.69 113.08 Z" />
<path fill="#333333" opacity="1.00" d=" M 113.94 81.99 C 113.47 78.60 111.08 75.57 111.60 72.02 C 113.09 74.71 115.56 77.26 115.12 80.58 C 114.53 84.24 114.75 88.02 113.66 91.60 C 112.78 95.17 113.90 99.03 112.30 102.44 C 110.87 102.36 109.44 102.32 108.01 102.31 C 110.83 101.41 112.05 98.75 111.61 95.99 C 110.93 91.13 113.16 86.67 113.94 81.99 Z" />
<path fill="#333333" opacity="1.00" d=" M 95.79 74.00 C 96.71 73.83 97.62 73.65 98.54 73.48 C 97.15 75.32 95.82 77.20 94.39 79.00 C 94.78 80.25 95.18 81.50 95.58 82.74 C 99.16 82.55 102.62 83.55 106.14 84.01 C 108.38 83.77 110.33 82.45 112.50 81.90 C 110.91 83.91 108.64 85.65 106.02 85.88 C 102.89 85.54 99.88 84.46 96.71 84.30 C 96.09 83.72 95.46 83.16 94.83 82.59 C 94.45 81.29 94.05 80.00 93.63 78.71 C 94.19 77.78 94.75 76.85 95.33 75.93 C 95.44 75.45 95.68 74.48 95.79 74.00 Z" />
<path fill="#333333" opacity="1.00" d=" M 120.43 87.02 C 120.22 82.85 123.94 79.86 127.07 77.73 C 125.70 81.31 122.71 83.99 120.43 87.02 Z" />
<path fill="#333333" opacity="1.00" d=" M 123.09 94.06 C 124.43 92.11 126.80 91.29 128.72 90.05 C 126.18 93.46 123.54 96.76 122.03 100.80 C 122.14 98.54 122.00 96.12 123.09 94.06 Z" />
<path fill="#333333" opacity="1.00" d=" M 49.92 114.67 C 47.92 116.11 46.91 112.01 49.11 111.80 C 50.48 112.39 50.75 113.35 49.92 114.67 Z" />
<path fill="#333333" opacity="1.00" d=" M 64.70 116.42 C 65.84 115.69 66.99 114.98 68.15 114.29 C 67.40 117.44 65.90 120.47 62.88 122.00 C 63.49 120.14 64.12 118.29 64.70 116.42 Z" />
<path fill="#333333" opacity="1.00" d=" M 107.28 129.93 C 108.65 128.48 110.03 125.61 112.49 126.71 C 115.40 128.08 118.72 130.17 118.89 133.75 C 117.48 134.51 116.17 136.09 114.41 135.60 C 111.54 134.45 109.20 132.31 107.28 129.93 M 108.88 128.44 C 110.63 131.44 113.61 133.51 117.02 134.12 C 116.72 130.15 112.09 128.99 108.88 128.44 Z" />
<path fill="#333333" opacity="1.00" d=" M 65.89 138.59 C 67.18 145.87 69.31 153.42 67.63 160.80 C 66.34 153.47 65.07 146.06 65.89 138.59 Z" />
<path fill="#333333" opacity="1.00" d=" M 124.84 143.06 C 133.45 141.76 141.92 139.50 150.61 138.77 C 149.69 139.89 148.53 140.75 147.06 140.90 C 140.97 142.02 134.88 143.13 128.80 144.29 C 127.30 144.91 126.10 143.60 124.84 143.06 Z" />
<path fill="#333333" opacity="1.00" d=" M 71.07 144.55 C 72.78 148.85 72.55 153.67 71.24 158.05 C 69.83 153.68 70.77 149.02 71.07 144.55 Z" />
<path fill="#333333" opacity="1.00" d=" M 66.72 174.27 C 67.43 174.69 68.14 175.12 68.85 175.54 C 67.83 178.03 66.14 180.23 63.35 180.73 C 64.55 178.62 65.81 176.53 66.72 174.27 Z" />
</g>
</svg>
