<?xml version="1.0" encoding="UTF-8" ?>
<!DOCTYPE svg PUBLIC "-//W3C//DTD SVG 1.1//EN" "http://www.w3.org/Graphics/SVG/1.1/DTD/svg11.dtd">
<svg width="207pt" height="325pt" viewBox="0 0 207 325" version="1.1" xmlns="http://www.w3.org/2000/svg"><g id="#2e2f2dff">
<path fill="#333333" opacity="1.00" d=" M 106.90 52.94 C 108.19 51.21 110.02 50.01 111.64 48.63 C 115.07 48.67 118.57 48.38 121.93 49.20 C 124.80 50.20 126.19 53.26 126.55 56.09 C 128.41 63.41 127.97 71.90 123.04 77.98 C 125.17 78.16 127.44 78.42 128.97 80.09 C 131.66 83.25 137.03 81.93 138.96 86.03 C 140.93 90.44 141.25 95.65 139.75 100.27 C 142.78 105.29 139.65 110.74 140.08 116.06 C 141.22 120.76 144.55 124.99 143.84 130.06 C 143.21 136.76 145.09 143.35 144.96 150.04 C 152.16 148.99 159.30 147.55 166.36 145.78 C 166.96 137.21 168.37 127.21 175.79 121.73 C 180.15 119.58 186.03 118.69 190.03 122.13 C 195.17 126.53 196.76 133.52 197.96 139.87 C 200.97 139.15 204.02 138.59 207.00 137.76 L 207.00 139.43 C 204.04 140.11 201.04 140.59 198.01 140.70 C 198.70 148.77 198.22 157.22 194.70 164.64 C 193.14 167.99 190.90 171.64 187.18 172.82 C 183.11 173.18 178.17 174.34 174.90 171.16 C 169.68 166.45 167.24 159.23 167.12 152.33 C 159.58 153.93 152.02 155.43 144.43 156.78 C 144.17 161.82 138.16 162.53 134.23 162.34 C 135.01 164.51 135.79 166.68 136.27 168.94 C 136.27 171.19 135.12 173.20 134.25 175.20 C 134.88 179.59 133.49 183.85 132.65 188.10 C 131.94 191.35 132.30 194.70 132.17 198.00 C 132.20 202.48 131.15 206.86 130.31 211.23 C 128.88 217.60 131.02 224.15 129.40 230.50 C 128.13 236.38 127.10 243.64 131.69 248.38 C 135.51 252.79 138.16 258.72 143.86 261.03 C 146.04 262.08 145.37 264.98 145.92 266.94 C 144.70 269.33 142.81 271.33 140.22 272.18 C 136.19 274.15 132.10 271.18 128.01 270.91 C 123.66 270.80 123.29 264.78 119.09 264.41 C 115.97 263.87 113.18 262.39 110.93 260.17 C 110.89 259.48 110.82 258.09 110.78 257.39 C 114.33 251.31 115.41 243.92 114.16 237.03 C 113.56 233.65 111.65 230.55 111.86 227.04 C 111.97 220.59 113.68 214.32 114.67 207.99 C 114.12 204.39 113.06 200.84 113.33 197.14 C 111.85 199.89 110.63 202.83 110.75 206.02 C 110.85 209.84 108.82 213.24 108.39 216.97 C 108.56 220.38 109.83 223.66 109.76 227.09 C 109.82 231.33 107.49 235.09 106.89 239.22 C 106.22 244.73 105.87 250.35 106.81 255.86 C 109.59 258.96 110.60 263.04 112.35 266.71 C 113.58 269.36 116.20 270.83 118.12 272.90 C 119.29 275.18 118.55 277.79 118.54 280.23 C 115.66 280.18 113.25 281.60 110.97 283.19 C 106.12 284.41 101.32 282.29 97.57 279.34 C 95.79 276.19 93.85 273.16 91.34 270.54 C 91.32 266.81 92.38 263.18 92.92 259.51 C 89.39 256.09 92.40 251.17 93.06 247.16 C 91.28 239.24 88.15 231.14 90.03 222.95 C 90.73 218.92 92.96 215.21 92.84 211.04 C 92.83 204.69 94.19 198.39 93.53 192.03 C 92.94 186.72 93.84 181.18 91.98 176.07 C 91.58 173.74 92.28 171.37 92.57 169.07 C 92.87 169.12 93.48 169.23 93.78 169.29 C 95.08 171.40 95.00 173.94 95.23 176.32 C 99.90 176.45 104.35 178.01 108.95 178.58 C 111.82 179.07 114.30 177.37 116.72 176.14 C 116.09 173.04 115.56 169.76 117.48 167.00 C 117.96 170.36 118.58 173.74 118.24 177.15 C 121.64 176.95 125.16 177.84 128.45 176.65 C 130.97 176.10 132.40 173.82 134.14 172.13 C 134.60 168.32 132.36 164.85 132.70 161.05 C 133.14 156.85 130.55 152.89 131.69 148.72 C 133.14 144.71 129.97 141.33 128.16 138.06 C 121.92 140.89 115.04 140.35 108.40 140.22 C 108.08 139.87 107.43 139.17 107.11 138.82 L 108.83 137.35 C 108.29 134.33 106.79 131.60 105.54 128.84 C 106.21 128.17 106.89 127.53 107.59 126.89 C 107.12 125.43 106.69 123.96 106.31 122.48 C 108.66 123.55 108.89 126.32 109.83 128.42 C 109.01 128.88 108.19 129.33 107.37 129.78 C 109.24 132.15 110.48 134.94 110.53 137.99 C 112.99 138.03 115.45 138.08 117.91 138.12 C 118.56 131.71 116.15 125.28 118.29 119.00 C 117.17 118.65 116.04 118.30 114.92 117.97 C 113.77 118.27 112.61 118.56 111.45 118.82 C 113.45 117.05 115.99 117.01 118.47 117.65 C 118.38 116.24 118.29 114.83 118.21 113.43 C 118.72 113.56 119.75 113.82 120.26 113.95 C 120.41 117.75 119.67 121.50 118.72 125.16 C 119.70 129.38 119.82 133.74 119.25 138.04 C 122.88 137.37 126.53 136.63 129.84 134.91 C 129.39 129.66 127.58 123.98 130.27 119.04 C 129.83 118.44 129.39 117.86 128.95 117.27 L 129.03 118.77 C 128.22 115.54 125.73 113.52 122.92 112.03 C 122.14 112.23 121.36 112.44 120.58 112.64 C 120.52 112.30 120.40 111.62 120.34 111.28 C 124.68 110.00 128.67 113.60 129.74 117.62 C 130.09 117.44 130.81 117.06 131.16 116.87 C 130.87 113.54 130.73 110.21 130.43 106.89 C 127.99 107.58 125.57 108.53 123.01 108.57 C 121.19 108.16 119.45 106.78 120.24 104.74 C 121.14 105.50 122.03 106.28 122.89 107.09 C 127.67 107.40 132.06 103.65 132.47 98.88 C 133.29 94.76 129.77 91.83 127.74 88.74 C 133.22 88.93 132.62 95.76 136.61 97.93 C 136.04 98.55 135.48 99.17 134.92 99.79 L 134.60 97.37 C 134.34 100.42 133.13 103.22 131.43 105.72 C 132.67 109.92 134.12 114.62 132.29 118.86 C 129.88 124.63 131.08 131.16 133.35 136.77 C 133.65 139.14 130.77 139.38 131.03 136.35 C 131.07 137.53 131.01 138.71 131.02 139.89 L 132.46 138.99 C 133.52 142.27 131.47 146.22 133.97 148.96 C 133.45 152.58 134.71 156.14 134.72 159.76 C 137.24 160.22 140.58 160.64 142.12 158.05 C 142.33 155.86 142.31 153.66 142.40 151.47 C 142.92 149.67 143.84 147.87 143.33 145.96 C 142.36 140.02 141.88 134.02 142.00 128.01 C 142.06 124.28 140.16 121.01 138.57 117.78 C 137.54 113.87 139.10 109.89 139.09 105.95 C 138.95 103.46 137.78 101.20 136.87 98.93 C 138.87 98.75 139.11 96.48 139.04 94.96 C 138.81 92.12 138.31 89.28 137.36 86.60 C 135.62 83.93 131.80 84.57 129.51 82.66 C 127.50 80.97 125.35 79.35 122.64 79.07 C 123.11 80.45 123.57 81.83 124.04 83.22 C 123.57 82.74 122.63 81.79 122.16 81.32 C 121.46 82.74 120.89 84.21 120.32 85.68 C 120.33 83.51 120.51 81.34 120.76 79.18 C 117.84 79.01 114.61 78.83 112.34 76.74 C 110.22 75.04 109.93 72.21 109.31 69.75 C 109.77 69.68 110.69 69.53 111.14 69.46 C 111.16 70.32 111.18 71.19 111.21 72.05 C 113.30 74.85 116.85 77.65 120.53 76.25 C 125.53 74.59 126.00 68.41 126.21 63.96 C 126.55 59.08 125.43 52.49 120.02 50.86 C 116.77 50.14 113.13 50.51 110.12 51.96 C 106.28 55.02 106.65 60.66 107.85 64.93 C 109.55 70.58 107.19 76.94 102.42 80.34 L 102.96 77.81 C 97.81 79.39 93.51 82.77 88.38 84.39 C 82.79 87.52 82.81 94.66 83.25 100.24 C 82.25 101.12 81.26 102.01 80.27 102.91 C 80.93 103.01 81.51 103.28 82.01 103.72 C 82.93 102.52 83.88 101.37 84.85 100.21 C 84.16 102.92 83.57 105.66 82.97 108.40 C 83.60 108.68 84.85 109.25 85.47 109.53 C 87.86 114.89 84.96 121.19 80.96 124.99 C 83.67 129.73 84.00 135.24 85.46 140.39 C 85.18 140.78 84.61 141.55 84.33 141.94 C 84.20 140.17 84.07 138.40 83.95 136.64 C 83.62 136.39 82.97 135.90 82.64 135.65 C 82.56 131.95 79.87 129.01 79.49 125.44 C 82.42 121.64 84.62 116.89 83.96 112.01 C 82.83 110.07 81.40 108.34 80.88 106.10 C 80.57 105.64 79.94 104.73 79.63 104.27 L 80.13 105.37 C 77.06 109.32 78.11 114.29 80.31 118.33 C 77.67 122.06 78.61 126.87 76.67 130.84 C 75.47 138.26 77.02 145.65 77.66 153.02 C 78.14 156.49 75.14 158.90 74.38 162.05 C 74.25 163.77 74.51 165.49 74.56 167.22 C 75.50 167.82 76.47 168.37 77.48 168.86 C 77.43 169.41 77.34 170.53 77.30 171.08 C 80.35 170.10 83.45 169.21 86.64 168.82 C 86.71 168.15 86.83 166.81 86.89 166.15 C 88.05 164.95 89.17 163.73 90.36 162.57 C 90.55 161.50 90.75 160.43 90.96 159.37 C 89.66 158.91 88.36 158.46 87.07 158.00 C 86.49 157.17 85.91 156.34 85.33 155.51 C 85.62 154.82 85.90 154.12 86.18 153.42 C 86.10 149.91 85.63 146.22 87.04 142.89 C 89.29 137.31 90.86 131.05 89.26 125.09 C 88.30 121.66 88.25 117.95 89.72 114.66 C 89.96 115.80 90.44 118.09 90.68 119.23 C 91.69 117.21 92.91 115.24 93.25 112.97 C 93.94 108.47 96.08 104.34 96.66 99.82 C 95.32 99.99 93.99 100.16 92.65 100.31 C 94.35 99.18 95.82 97.75 97.37 96.42 C 99.75 92.97 100.05 88.61 100.77 84.59 C 103.62 89.29 101.33 95.43 97.52 98.91 C 97.70 100.25 98.37 101.64 97.88 102.99 C 96.57 107.52 96.03 112.23 94.51 116.70 C 97.77 122.71 97.21 129.70 98.84 136.16 C 99.28 136.21 100.17 136.31 100.61 136.37 C 102.79 137.52 105.27 137.54 107.66 137.79 C 106.76 138.54 106.35 139.87 105.14 140.22 C 103.00 139.90 100.91 139.27 98.83 138.69 C 97.60 140.86 96.19 142.93 95.17 145.22 C 93.71 148.77 94.10 152.68 93.65 156.42 C 92.84 155.43 91.90 154.50 91.99 153.09 C 91.66 148.37 92.83 143.42 95.73 139.61 C 95.95 138.01 96.20 136.41 96.49 134.82 C 94.48 129.46 95.05 123.64 93.36 118.26 C 92.33 119.50 91.33 120.78 90.34 122.05 C 92.69 128.33 91.64 135.31 89.59 141.52 C 87.56 145.63 87.29 150.40 88.18 154.84 C 89.24 156.77 92.00 157.09 93.13 159.03 C 93.46 161.74 93.70 164.46 93.84 167.19 L 92.98 167.34 C 92.56 167.32 91.72 167.26 91.30 167.23 L 89.88 165.76 C 89.96 166.97 89.83 168.17 89.80 169.38 C 85.28 172.41 79.41 172.21 74.20 173.08 C 74.31 172.38 74.54 170.99 74.65 170.30 C 68.89 171.34 63.10 172.31 57.43 173.85 C 57.69 172.50 58.43 171.16 59.96 171.07 C 63.83 170.21 67.76 169.60 71.71 169.25 C 72.15 168.10 72.59 166.95 73.02 165.80 C 67.69 166.49 62.36 167.27 57.11 168.47 C 57.55 175.65 57.28 183.05 54.63 189.82 C 53.13 193.81 50.84 197.99 46.83 199.89 C 42.50 200.42 37.24 201.78 33.73 198.30 C 28.98 193.72 26.68 186.90 26.42 180.41 C 21.57 179.29 16.62 182.51 12.02 181.90 C 11.74 180.83 11.19 178.70 10.91 177.63 C 12.01 178.48 13.10 179.33 14.20 180.19 C 14.03 179.32 13.71 177.58 13.55 176.71 L 12.94 178.91 C 12.37 178.07 11.80 177.23 11.25 176.38 C 15.78 174.69 20.68 174.43 25.38 173.44 C 25.89 165.49 27.54 157.07 32.69 150.75 C 35.25 147.57 39.68 147.76 43.28 146.72 C 52.46 148.61 55.54 158.77 56.87 166.84 C 62.31 165.26 67.95 164.55 73.51 163.55 C 72.14 159.67 76.57 156.89 75.87 153.03 C 74.89 145.47 73.56 137.71 75.41 130.15 C 75.81 125.74 77.17 121.40 77.26 117.00 C 75.54 111.41 77.24 105.54 79.67 100.43 C 81.84 96.26 80.01 91.07 82.89 87.11 C 85.26 82.62 90.68 82.05 94.54 79.46 C 97.74 77.39 101.56 76.72 104.95 75.06 C 107.04 72.24 107.27 68.34 106.12 65.08 C 104.79 61.13 105.12 56.68 106.90 52.94 M 175.03 124.05 C 171.49 127.52 169.58 132.29 168.65 137.09 C 168.04 140.00 167.99 143.08 166.60 145.78 C 170.67 145.00 174.74 144.23 178.82 143.48 C 179.91 145.58 180.33 147.82 179.12 149.98 C 175.16 150.73 171.23 151.66 167.25 152.26 C 168.63 154.99 169.01 158.05 170.04 160.91 C 172.09 166.33 176.31 172.42 182.98 171.38 C 183.17 170.47 183.37 169.58 183.57 168.68 C 190.54 161.00 191.06 149.74 189.88 139.96 C 189.23 133.63 185.84 128.12 182.07 123.18 C 183.24 123.49 184.70 123.43 185.35 124.70 C 190.51 131.26 191.87 139.92 191.89 148.05 C 191.52 156.33 189.99 165.58 183.25 171.19 C 189.48 171.90 192.81 165.77 194.66 160.85 C 198.12 150.29 197.88 138.17 192.71 128.20 C 191.05 124.68 187.55 122.75 184.23 121.07 C 181.14 121.94 177.38 121.49 175.03 124.05 M 150.13 150.68 C 147.70 151.24 143.95 150.99 143.63 154.30 C 146.42 155.08 149.17 153.99 151.90 153.47 C 160.51 151.55 169.32 150.66 177.90 148.58 C 179.27 147.39 179.17 146.28 177.59 145.23 C 168.37 146.77 159.39 149.40 150.13 150.68 M 34.15 151.21 C 29.17 156.42 27.68 163.84 26.93 170.77 C 26.60 171.32 25.93 172.43 25.60 172.98 C 29.79 172.73 33.74 171.14 37.89 170.61 C 38.80 172.64 39.15 174.83 38.96 177.06 C 35.21 178.02 31.44 178.96 27.56 179.20 C 27.71 182.35 28.13 185.52 29.39 188.44 C 30.95 192.60 33.43 197.26 38.10 198.41 C 41.98 198.36 46.78 199.05 49.49 195.58 C 55.04 188.81 56.20 179.51 55.87 171.02 C 55.25 162.29 52.46 151.92 43.51 148.31 C 40.37 149.20 36.57 148.63 34.15 151.21 M 15.46 176.57 C 15.56 177.44 15.74 179.19 15.83 180.07 C 23.12 178.50 30.44 177.12 37.75 175.65 C 37.76 175.00 37.77 173.69 37.77 173.04 C 30.25 173.47 23.00 176.02 15.46 176.57 M 115.45 177.40 C 114.98 178.11 114.54 178.84 114.14 179.59 C 114.55 179.97 115.37 180.72 115.78 181.09 C 116.15 186.42 112.89 191.93 115.89 196.89 C 115.95 201.21 116.84 205.45 118.76 209.34 C 119.39 211.24 121.14 213.44 119.78 215.40 C 119.21 213.09 118.09 211.00 116.32 209.40 C 115.79 216.29 113.12 222.95 114.07 229.94 C 117.48 233.66 116.51 239.28 116.58 243.93 C 116.66 249.39 111.38 254.46 113.95 259.88 C 116.45 262.44 120.48 262.32 123.67 263.60 C 126.04 264.36 126.90 266.94 128.45 268.66 C 130.79 269.24 133.25 269.39 135.39 270.64 C 138.79 272.28 142.11 269.41 144.23 266.98 C 143.79 265.46 143.32 263.85 142.02 262.83 C 140.32 261.13 137.44 261.15 136.13 259.00 C 133.14 255.04 131.36 250.26 127.88 246.64 C 126.86 241.85 126.52 236.89 127.51 232.06 C 128.93 224.38 126.09 216.41 128.80 208.90 C 130.88 203.04 129.04 196.94 129.78 190.95 C 128.20 194.26 125.94 198.34 121.91 198.81 C 118.34 198.22 119.14 193.43 118.99 190.80 C 122.98 190.54 118.84 195.82 122.17 196.30 C 123.58 197.39 124.82 195.71 125.82 194.90 C 128.91 190.50 129.47 184.90 128.18 179.75 C 132.00 178.99 129.47 183.45 131.52 184.74 C 131.96 181.96 132.19 179.15 132.49 176.36 C 127.62 179.80 120.71 179.76 115.45 177.40 M 94.64 178.30 C 95.04 183.14 94.68 188.06 95.66 192.84 C 96.11 194.89 95.86 196.98 95.81 199.05 C 96.73 200.64 95.76 202.42 95.55 204.05 C 94.54 207.37 95.84 210.89 94.71 214.17 C 91.70 224.69 91.90 235.91 94.35 246.51 C 95.35 249.91 93.98 253.20 93.11 256.45 C 93.57 256.89 94.49 257.77 94.96 258.21 C 94.28 262.13 93.75 266.13 93.10 270.08 C 96.47 271.38 98.25 274.57 99.50 277.75 C 102.12 279.13 104.93 280.30 107.89 280.62 C 111.16 280.51 114.22 279.05 117.52 279.08 C 117.58 278.88 117.71 278.50 117.77 278.30 C 117.52 276.94 116.90 275.68 116.55 274.34 C 113.60 272.30 110.76 269.67 109.94 266.02 C 109.45 262.83 105.99 261.32 105.49 258.10 C 104.36 252.14 103.70 246.02 104.22 239.95 C 104.61 237.19 105.87 234.65 106.28 231.89 C 107.32 226.25 105.27 220.53 106.52 214.91 C 106.97 212.23 108.48 209.80 108.46 207.03 C 108.57 204.65 108.28 202.14 109.42 199.95 C 112.52 193.80 112.65 186.81 113.61 180.14 C 112.75 180.29 111.03 180.59 110.17 180.75 C 110.61 183.96 108.52 188.26 105.21 189.02 C 106.72 186.54 108.19 184.02 108.85 181.16 C 103.98 180.94 99.28 179.69 94.64 178.30 Z" />
<path fill="#333333" opacity="1.00" d=" M 104.63 80.02 C 107.01 80.90 106.59 84.30 104.43 85.25 C 104.67 83.52 104.75 81.77 104.63 80.02 Z" />
<path fill="#333333" opacity="1.00" d=" M 110.08 79.76 C 112.73 81.41 113.74 84.98 113.56 87.95 C 115.28 88.99 117.35 90.05 117.26 92.43 C 113.29 88.80 107.79 89.38 103.01 87.79 C 103.59 87.23 104.19 86.69 104.81 86.18 C 107.14 87.68 109.95 87.85 112.63 88.06 C 111.81 85.29 110.79 82.57 110.08 79.76 Z" />
<path fill="#333333" opacity="1.00" d=" M 93.77 84.85 C 94.89 82.41 97.97 81.58 99.92 83.56 C 97.86 83.96 95.83 84.48 93.77 84.85 Z" />
<path fill="#333333" opacity="1.00" d=" M 126.00 85.83 C 127.08 84.98 128.14 84.12 129.23 83.30 C 129.58 87.32 125.00 87.46 122.21 88.06 C 121.47 89.23 120.57 90.27 119.32 90.91 C 119.72 89.44 120.19 87.98 120.68 86.54 C 122.45 86.30 124.23 86.05 126.00 85.83 Z" />
<path fill="#333333" opacity="1.00" d=" M 85.67 98.95 C 86.27 98.43 87.34 98.19 87.65 99.22 C 89.05 101.22 90.08 103.55 89.49 106.04 C 87.87 103.86 87.58 100.97 85.67 98.95 Z" />
<path fill="#333333" opacity="1.00" d=" M 99.13 103.81 C 99.92 104.74 100.72 105.65 101.50 106.59 C 105.52 108.01 109.84 108.44 114.07 107.83 C 115.69 106.82 117.07 105.44 118.80 104.59 C 118.56 105.67 118.32 106.76 118.10 107.85 C 113.02 111.60 105.68 110.56 100.39 107.73 C 98.59 107.08 99.10 105.24 99.13 103.81 Z" />
<path fill="#333333" opacity="1.00" d=" M 96.84 113.86 C 98.15 110.30 102.60 111.41 103.96 114.34 C 104.45 114.44 105.43 114.64 105.91 114.74 C 105.01 115.21 104.11 115.68 103.20 116.15 C 102.23 115.15 101.23 114.18 100.27 113.18 C 99.41 113.35 97.69 113.69 96.84 113.86 Z" />
<path fill="#333333" opacity="1.00" d=" M 113.50 111.85 C 114.90 111.61 116.76 110.76 117.83 112.21 C 115.73 112.89 113.09 112.74 111.69 114.74 C 110.00 117.02 108.33 120.02 105.03 119.75 C 108.50 117.77 109.79 113.42 113.50 111.85 Z" />
<path fill="#333333" opacity="1.00" d=" M 96.23 117.62 C 97.16 117.01 98.09 116.40 99.01 115.78 C 100.68 117.38 103.53 118.41 103.23 121.18 C 101.76 120.49 100.36 119.63 99.35 118.33 C 98.57 118.16 97.01 117.80 96.23 117.62 Z" />
<path fill="#333333" opacity="1.00" d=" M 135.21 122.28 C 135.46 119.64 135.94 117.00 137.12 114.60 C 137.58 117.18 137.11 120.34 135.21 122.28 Z" />
<path fill="#333333" opacity="1.00" d=" M 120.86 123.92 C 123.02 123.81 125.32 123.99 126.61 125.99 C 124.60 125.73 121.92 126.11 120.86 123.92 Z" />
<path fill="#333333" opacity="1.00" d=" M 133.77 140.92 C 133.85 140.09 134.01 138.42 134.09 137.59 C 136.49 140.82 138.36 145.19 137.37 149.29 C 136.80 150.64 135.37 150.75 134.11 150.89 C 136.76 147.97 135.89 143.84 133.77 140.92 Z" />
<path fill="#333333" opacity="1.00" d=" M 106.37 140.32 C 106.93 141.15 107.38 142.04 107.72 142.98 C 110.46 142.44 113.25 142.45 116.03 142.70 C 118.88 143.04 121.55 141.72 124.27 141.09 C 119.59 145.59 112.90 142.95 107.22 144.37 C 105.62 147.02 102.78 149.73 99.50 149.63 C 99.21 149.29 98.62 148.61 98.33 148.27 C 102.23 147.26 105.52 144.33 106.37 140.32 Z" />
<path fill="#333333" opacity="1.00" d=" M 198.35 145.69 C 200.36 143.05 204.16 143.74 207.00 142.80 L 207.00 144.97 L 206.99 144.21 C 204.13 144.80 201.26 145.39 198.35 145.69 Z" />
<path fill="#333333" opacity="1.00" d=" M 41.08 150.45 C 44.67 150.20 45.90 154.09 47.33 156.65 C 51.62 166.49 51.89 177.88 48.90 188.12 C 47.76 191.49 46.63 195.47 43.12 197.11 C 44.41 193.60 46.90 190.63 47.72 186.91 C 51.00 174.69 49.98 160.16 41.08 150.45 Z" />
<path fill="#333333" opacity="1.00" d=" M 108.60 151.23 C 114.92 151.38 121.17 150.38 127.45 149.87 C 127.08 151.24 126.90 152.65 126.67 154.05 C 126.13 153.93 125.05 153.71 124.51 153.60 C 125.12 153.18 126.32 152.35 126.92 151.93 C 121.51 150.49 115.86 153.42 110.32 152.58 C 109.89 152.24 109.03 151.57 108.60 151.23 Z" />
<path fill="#333333" opacity="1.00" d=" M 79.17 155.97 C 80.34 154.70 81.52 153.45 82.75 152.26 C 83.16 154.66 81.47 156.11 79.17 155.97 Z" />
<path fill="#333333" opacity="1.00" d=" M 108.99 158.59 C 113.27 157.50 116.88 154.80 121.06 153.47 C 121.92 152.89 123.54 152.88 124.12 153.87 C 118.73 154.49 114.58 158.47 109.35 159.72 C 109.26 159.44 109.08 158.87 108.99 158.59 Z" />
<path fill="#333333" opacity="1.00" d=" M 117.90 166.20 C 121.18 163.95 122.31 159.52 126.19 158.17 C 125.51 161.34 122.98 163.73 120.51 165.65 C 119.79 166.58 118.88 166.24 117.90 166.20 Z" />
<path fill="#333333" opacity="1.00" d=" M 98.11 195.98 C 100.90 194.45 103.66 192.86 106.32 191.10 C 107.59 193.74 109.26 196.30 109.45 199.31 C 106.03 200.27 105.97 196.38 104.85 194.23 C 102.92 195.32 100.99 196.42 98.93 197.23 C 98.73 196.91 98.32 196.29 98.11 195.98 Z" />
<path fill="#333333" opacity="1.00" d=" M 121.21 202.96 C 122.59 203.74 123.77 204.81 124.87 205.95 C 124.61 207.44 124.46 208.99 123.76 210.37 C 123.69 207.63 121.73 205.56 121.21 202.96 Z" />
<path fill="#333333" opacity="1.00" d=" M 101.16 209.59 C 102.23 206.71 105.67 206.31 107.54 204.14 C 108.15 208.00 104.11 209.21 101.16 209.59 Z" />
<path fill="#333333" opacity="1.00" d=" M 102.70 220.51 C 102.91 218.79 103.64 217.23 104.54 215.78 C 103.88 225.87 100.81 236.02 102.78 246.14 C 100.70 245.60 100.97 243.13 100.67 241.47 C 100.30 234.42 101.62 227.44 102.70 220.51 Z" />
<path fill="#333333" opacity="1.00" d=" M 124.12 238.08 C 123.50 230.94 123.86 223.71 125.58 216.73 C 127.66 224.46 124.87 232.41 125.48 240.28 C 124.50 239.88 124.05 239.15 124.12 238.08 Z" />
<path fill="#333333" opacity="1.00" d=" M 118.70 231.77 C 119.78 227.17 119.46 222.42 120.09 217.77 C 122.46 223.97 121.97 231.42 118.40 237.06 C 118.02 235.29 118.30 233.51 118.70 231.77 Z" />
<path fill="#333333" opacity="1.00" d=" M 117.27 245.39 C 119.09 246.85 117.99 249.07 117.93 250.98 C 117.48 253.91 121.80 256.15 119.72 258.99 C 118.59 256.90 117.17 254.99 115.88 253.00 C 115.67 250.39 116.54 247.85 117.27 245.39 Z" />
<path fill="#333333" opacity="1.00" d=" M 123.63 246.84 C 124.85 247.93 125.71 249.32 126.12 250.91 C 127.50 255.40 129.98 259.43 131.55 263.84 C 128.10 261.91 127.04 257.90 125.43 254.58 C 124.24 252.17 123.87 249.48 123.63 246.84 Z" />
<path fill="#333333" opacity="1.00" d=" M 99.15 256.12 C 99.91 254.58 101.57 254.02 102.96 253.23 C 101.79 254.94 100.06 256.78 101.11 259.01 C 102.42 262.96 100.86 267.00 101.52 271.02 C 99.50 268.42 100.55 264.97 99.80 261.99 C 99.52 260.05 98.43 258.09 99.15 256.12 Z" />
</g>
</svg>
