<?xml version="1.0" encoding="UTF-8" ?>
<!DOCTYPE svg PUBLIC "-//W3C//DTD SVG 1.1//EN" "http://www.w3.org/Graphics/SVG/1.1/DTD/svg11.dtd">
<svg width="221pt" height="275pt" viewBox="0 0 221 275" version="1.1" xmlns="http://www.w3.org/2000/svg"><g id="#282828ff">
<path fill="#333333" opacity="1.00" d=" M 84.06 38.00 C 83.69 32.49 88.64 27.86 93.92 27.45 C 98.22 27.21 103.47 26.63 106.55 30.35 C 108.50 32.00 108.44 34.71 108.93 37.01 C 109.42 39.97 110.72 42.84 110.42 45.90 C 109.93 50.69 108.96 55.43 107.68 60.07 C 106.79 60.89 105.90 61.72 105.00 62.54 L 105.35 60.49 C 102.18 60.66 99.91 58.22 97.03 57.38 C 97.06 57.17 97.12 56.76 97.15 56.55 C 99.37 57.43 101.63 58.21 103.92 58.88 C 104.64 58.52 106.06 57.79 106.77 57.43 C 107.92 54.42 108.40 51.23 108.91 48.07 C 109.71 43.70 108.05 39.45 107.37 35.19 C 107.01 32.19 104.34 30.44 102.33 28.53 C 97.93 28.38 93.09 28.32 89.50 31.31 C 85.71 33.71 85.14 38.58 85.52 42.67 C 86.16 42.49 87.44 42.14 88.07 41.97 C 87.75 43.57 86.36 45.20 87.10 46.85 C 88.41 48.28 90.21 49.13 91.85 50.13 C 92.48 51.70 93.52 53.15 93.84 54.83 C 93.57 54.94 93.04 55.18 92.77 55.29 C 91.43 53.39 90.21 51.39 88.51 49.78 C 88.69 51.87 88.67 53.95 88.43 56.03 C 87.48 54.12 87.67 51.98 87.71 49.92 C 84.19 46.96 84.42 42.17 84.06 38.00 Z" />
<path fill="#333333" opacity="1.00" d=" M 122.97 43.08 C 126.36 38.02 130.34 31.90 136.89 31.01 C 139.98 31.38 143.07 31.72 146.19 31.68 C 148.34 33.63 148.53 36.95 147.49 39.52 C 145.71 43.83 146.40 48.82 144.12 52.96 C 142.26 56.30 139.95 59.62 136.54 61.53 C 133.96 62.54 131.24 63.15 128.62 64.02 C 128.53 64.87 128.36 66.57 128.28 67.42 C 131.93 69.04 130.54 73.27 129.86 76.28 C 129.28 79.06 126.28 79.89 124.10 81.06 C 124.14 85.37 124.58 89.66 125.32 93.90 C 131.67 140.42 138.06 186.93 144.38 233.45 C 146.36 234.46 148.59 234.67 150.71 235.25 C 152.07 236.39 153.10 237.85 154.23 239.21 C 152.76 242.59 149.05 243.51 145.91 244.73 C 141.96 244.51 137.78 244.54 134.25 242.41 C 123.36 246.05 112.09 248.49 101.04 251.63 C 102.06 253.39 103.13 255.14 104.47 256.68 C 104.41 258.25 105.04 260.21 103.66 261.39 C 102.53 261.73 101.37 261.95 100.19 262.04 C 94.67 266.87 82.79 264.08 82.11 255.99 C 81.66 252.59 79.47 249.60 79.59 246.11 C 79.61 244.06 78.72 242.18 78.19 240.24 C 79.00 237.23 79.20 234.10 79.17 230.99 C 78.79 224.18 75.59 217.86 75.40 211.03 C 75.73 205.30 78.20 199.98 79.76 194.54 C 80.29 189.65 80.31 184.62 82.08 179.97 C 84.48 174.40 81.51 168.30 83.23 162.57 C 82.69 163.01 81.59 163.91 81.05 164.35 C 79.86 163.00 78.62 161.70 77.57 160.23 C 77.91 157.82 80.61 156.47 80.57 153.91 C 80.93 150.25 81.47 146.61 82.50 143.07 C 83.56 139.09 82.81 135.00 81.84 131.10 C 80.82 126.94 84.89 124.07 86.09 120.41 C 85.62 117.69 85.84 114.94 85.69 112.20 C 84.39 105.71 78.47 102.04 75.28 96.61 C 73.57 92.76 74.08 87.98 71.37 84.65 C 63.51 82.25 55.03 79.02 50.71 71.49 C 49.23 68.55 44.03 65.58 47.05 62.01 C 50.72 58.87 53.85 54.20 59.09 53.80 C 63.76 52.95 68.44 54.36 72.94 55.49 C 77.25 56.67 81.75 55.69 86.14 56.18 C 89.09 56.58 92.26 55.18 94.94 57.01 L 95.60 57.44 C 98.72 62.14 105.24 62.26 108.37 67.03 C 109.17 64.07 110.27 61.21 111.41 58.37 C 112.38 55.96 111.85 52.83 114.09 51.05 C 117.15 48.51 120.80 46.55 122.97 43.08 M 136.06 33.18 C 131.31 33.82 128.12 37.94 125.49 41.56 C 122.45 46.46 118.00 50.21 113.93 54.19 C 113.61 58.26 112.13 62.01 110.45 65.69 C 111.29 65.69 112.96 65.68 113.79 65.67 C 113.78 65.19 113.78 64.22 113.77 63.73 C 114.32 64.13 115.43 64.91 115.99 65.31 C 116.01 67.64 115.42 69.87 114.65 72.05 C 115.39 75.77 119.22 76.31 122.36 75.58 C 122.25 74.46 122.04 72.22 121.93 71.10 C 119.68 71.76 117.44 72.48 115.12 72.89 C 117.45 69.31 121.78 69.13 125.57 68.90 C 126.46 66.89 127.51 64.95 128.24 62.88 C 127.82 60.90 126.45 59.29 125.51 57.55 C 124.45 56.61 123.58 55.51 122.93 54.26 C 122.16 53.41 121.40 52.56 120.64 51.71 C 122.51 51.71 123.92 52.68 125.01 54.12 C 129.77 49.56 136.92 49.08 142.26 45.40 C 142.60 45.97 142.95 46.55 143.29 47.13 C 137.60 50.24 131.26 51.89 125.61 55.02 C 126.75 57.78 129.64 59.47 130.12 62.52 C 132.43 61.85 135.08 61.67 136.75 59.71 C 140.67 55.89 144.98 50.76 143.37 44.87 L 145.39 45.39 C 144.67 45.01 143.96 44.62 143.25 44.23 C 146.17 41.36 147.42 36.95 146.15 33.03 C 142.80 33.60 139.42 33.24 136.06 33.18 M 46.96 64.03 C 48.60 67.32 52.09 69.11 53.65 72.47 C 58.16 78.81 66.47 79.83 72.85 83.45 C 73.98 85.81 74.85 88.29 75.32 90.87 C 75.54 90.84 76.00 90.78 76.23 90.75 C 76.00 92.74 76.21 94.71 77.29 96.45 C 80.34 98.42 81.20 102.39 84.43 104.21 C 84.34 103.51 84.16 102.12 84.07 101.42 C 85.97 103.18 88.10 102.78 90.03 101.53 C 90.77 102.26 91.51 102.99 92.25 103.72 C 89.61 103.91 86.85 103.63 84.34 104.61 C 87.22 109.01 86.89 114.27 87.37 119.26 C 88.89 121.43 91.84 121.87 94.16 122.87 C 94.47 119.40 94.80 115.94 95.25 112.49 C 92.65 111.66 88.60 110.75 89.17 107.14 C 91.22 108.41 93.24 109.76 95.43 110.81 C 95.37 109.37 95.30 107.93 95.21 106.49 C 96.75 101.97 96.21 97.08 97.21 92.44 C 95.29 92.65 93.36 92.83 91.43 92.91 C 91.59 92.50 91.90 91.67 92.05 91.25 C 94.26 91.04 96.70 91.03 98.06 88.94 C 95.40 87.18 92.17 86.36 89.83 84.13 C 88.00 82.48 86.53 80.48 84.77 78.76 C 86.46 81.69 88.97 84.11 90.23 87.30 C 87.02 86.43 85.82 82.88 83.78 80.59 C 79.76 82.37 73.50 80.22 72.56 75.54 C 75.71 77.76 79.17 79.43 83.05 79.92 C 80.83 76.78 78.11 73.92 76.78 70.23 C 76.32 69.98 75.41 69.48 74.96 69.23 C 70.14 73.07 63.01 73.93 57.75 70.50 C 61.15 70.04 64.65 71.53 67.94 70.17 C 71.15 69.33 73.86 67.30 76.95 66.16 C 79.59 65.47 82.21 66.77 84.66 67.61 C 84.78 66.58 85.00 64.54 85.11 63.52 C 87.82 64.24 86.64 67.41 87.48 69.40 C 88.53 70.57 89.86 71.42 91.18 72.23 C 91.34 74.21 91.48 76.19 91.72 78.17 C 95.67 76.65 99.74 75.52 103.89 74.71 C 104.23 73.29 104.56 71.87 104.86 70.44 C 105.30 70.46 106.18 70.49 106.62 70.50 C 106.40 73.74 106.56 77.16 104.80 80.05 C 105.19 80.57 105.57 81.09 105.97 81.60 C 106.64 79.27 107.30 76.93 107.98 74.59 C 108.54 76.95 108.46 79.38 108.21 81.78 C 109.03 81.74 110.66 81.67 111.47 81.63 C 110.57 82.04 109.66 82.44 108.75 82.82 C 107.95 84.34 107.48 86.09 106.27 87.35 C 104.55 88.32 102.58 88.70 100.73 89.31 C 100.51 91.14 99.91 92.98 100.20 94.84 C 102.20 96.67 103.10 93.06 104.39 91.93 C 105.02 89.77 106.77 89.13 108.85 89.51 C 106.78 90.96 104.94 92.71 104.05 95.14 C 103.01 95.74 101.99 96.37 100.96 96.99 C 98.99 98.24 98.67 102.30 101.65 102.51 C 102.34 101.63 103.04 100.76 103.75 99.90 C 106.39 99.25 108.03 96.54 110.97 96.82 C 110.92 96.50 110.83 95.86 110.78 95.54 C 111.60 95.88 112.41 96.23 113.23 96.56 C 116.04 95.63 120.17 95.32 121.38 98.75 C 118.75 97.74 115.96 97.38 113.16 97.25 L 113.41 98.50 C 111.67 98.65 109.94 98.82 108.21 98.99 C 107.87 99.40 107.19 100.22 106.85 100.63 C 105.13 101.09 103.67 102.04 102.33 103.18 C 100.82 103.67 98.83 102.85 98.43 105.22 C 99.03 105.37 100.23 105.68 100.83 105.83 C 100.13 106.71 99.43 107.59 98.73 108.47 C 98.36 113.15 97.76 117.81 97.43 122.50 C 101.30 123.02 105.20 124.64 109.12 123.55 C 112.86 122.60 116.98 122.29 120.18 119.93 C 120.32 115.89 119.30 111.87 119.52 107.80 C 117.54 108.71 115.26 109.15 113.71 110.79 C 113.48 110.52 113.02 109.98 112.79 109.71 C 110.90 110.12 108.98 110.28 107.07 110.60 C 105.52 110.93 104.03 112.33 102.41 111.51 C 101.38 110.90 100.69 109.89 99.89 109.04 C 101.15 109.41 102.40 109.83 103.65 110.25 C 105.96 108.29 108.93 108.87 111.70 108.71 C 112.15 107.61 112.52 106.48 112.80 105.32 C 113.13 105.41 113.80 105.60 114.13 105.69 C 115.36 107.27 117.26 107.49 119.13 107.63 C 120.25 104.44 122.12 101.44 122.41 98.01 C 122.18 93.90 120.84 89.96 120.40 85.87 C 120.59 85.36 120.97 84.33 121.17 83.82 C 118.56 82.41 115.84 81.20 113.42 79.49 C 110.24 76.29 108.44 71.79 108.24 67.29 C 106.89 67.43 105.78 68.28 104.58 68.85 C 104.24 67.40 104.32 65.76 103.40 64.52 C 101.28 63.38 98.81 62.85 96.99 61.20 C 95.12 59.86 93.43 57.91 91.08 57.51 C 85.38 57.80 79.64 58.56 73.94 57.77 C 68.75 56.68 63.45 54.72 58.09 55.69 C 53.11 56.29 50.68 61.28 46.96 64.03 M 114.24 66.17 C 113.18 67.46 111.80 67.76 110.24 67.26 C 111.03 73.17 115.17 80.54 122.02 79.86 C 125.85 79.76 128.64 76.48 130.22 73.30 C 129.42 73.54 127.81 74.02 127.01 74.27 L 127.95 74.84 C 124.95 77.69 120.78 78.42 116.82 77.60 C 114.21 76.16 112.14 73.15 112.60 70.06 C 113.42 68.93 114.42 67.95 115.41 66.98 C 115.12 66.78 114.54 66.37 114.24 66.17 M 76.91 67.51 C 79.06 69.42 79.46 72.24 79.81 74.92 C 81.15 76.46 82.52 78.04 84.53 78.75 C 83.63 76.55 83.72 74.18 83.71 71.86 C 84.29 71.55 85.43 70.93 86.01 70.62 C 86.25 68.19 84.06 68.03 82.51 67.55 L 82.71 68.66 C 80.79 68.23 78.85 67.85 76.91 67.51 M 123.67 71.26 C 123.93 72.59 124.20 73.93 124.49 75.26 C 125.53 73.74 126.32 72.07 126.80 70.29 C 125.76 70.61 124.71 70.93 123.67 71.26 M 128.50 72.09 C 128.81 72.22 129.44 72.47 129.75 72.60 C 131.48 70.73 128.22 69.16 128.50 72.09 M 85.56 73.86 C 87.30 78.19 90.03 82.47 94.37 84.51 C 97.77 85.99 101.47 84.53 104.56 83.00 C 104.04 82.49 103.51 81.98 102.99 81.47 C 99.76 83.05 95.34 84.68 92.34 81.79 C 89.62 79.90 89.06 76.60 89.24 73.51 C 88.01 73.60 86.78 73.72 85.56 73.86 M 93.99 79.38 C 94.01 79.69 94.03 80.32 94.05 80.64 C 96.37 80.90 98.68 81.26 100.99 81.65 C 102.08 81.11 103.17 80.60 104.28 80.11 C 104.37 79.12 104.56 77.12 104.65 76.13 C 101.22 77.58 97.67 78.77 93.99 79.38 M 103.34 86.81 C 105.10 87.52 107.43 85.24 106.70 83.45 C 105.36 83.67 103.30 85.33 103.34 86.81 M 121.95 121.21 C 122.33 123.47 125.33 124.48 125.12 127.01 C 125.37 129.09 124.34 131.02 124.03 133.05 C 125.18 137.85 127.91 142.16 128.78 147.05 C 129.07 148.87 129.59 150.64 130.57 152.21 C 128.55 134.97 126.04 117.76 123.58 100.57 C 119.93 106.87 120.96 114.36 121.95 121.21 M 86.49 121.19 C 86.60 121.93 86.82 123.42 86.93 124.17 C 83.96 123.41 83.74 127.06 83.34 129.11 C 84.29 134.59 85.58 140.40 83.85 145.87 C 82.25 150.43 82.73 155.64 79.68 159.67 C 80.35 160.49 81.03 161.32 81.71 162.15 C 82.66 160.48 82.88 158.06 85.03 157.45 C 85.06 159.32 85.06 161.20 85.06 163.08 C 86.76 163.72 88.46 164.40 90.16 165.07 C 91.04 155.57 92.01 146.08 92.83 136.57 C 90.86 137.63 88.87 138.80 86.57 138.94 C 88.33 137.04 90.77 136.05 92.84 134.58 C 93.28 131.95 94.96 127.94 91.26 127.04 C 90.03 129.46 89.07 132.02 89.12 134.77 C 88.53 134.35 87.95 133.92 87.36 133.50 C 88.04 131.04 88.78 128.54 90.15 126.36 C 91.65 126.28 93.16 126.21 94.66 126.16 C 92.44 123.78 89.20 122.85 86.49 121.19 M 115.30 124.88 C 115.23 126.02 115.16 127.17 115.11 128.32 C 110.31 130.55 104.94 130.34 99.79 130.34 C 99.74 129.46 99.70 128.58 99.65 127.71 C 104.58 129.65 109.93 127.90 114.96 127.19 C 114.90 126.46 114.79 125.00 114.74 124.27 C 111.91 125.05 109.10 126.32 106.10 126.16 C 103.07 126.14 100.21 124.85 97.18 124.83 C 96.07 127.00 98.13 128.23 99.42 129.60 L 96.30 129.97 C 96.70 130.04 97.49 130.17 97.89 130.24 C 95.49 135.03 95.94 140.45 95.07 145.59 C 102.35 144.43 109.80 142.77 117.16 143.51 C 115.88 144.12 114.57 144.76 113.13 144.88 C 107.06 145.13 101.04 146.03 95.01 146.51 C 94.65 153.09 93.71 159.62 93.33 166.20 C 97.44 166.01 101.64 165.16 105.00 162.65 C 105.56 160.30 105.10 157.61 106.26 155.49 C 108.42 154.35 110.89 154.05 113.19 153.28 C 114.57 151.11 115.62 148.63 117.85 147.15 C 117.78 146.72 117.64 145.87 117.57 145.45 C 117.84 145.39 118.37 145.26 118.64 145.20 C 118.58 145.73 118.46 146.78 118.40 147.31 C 118.04 147.72 117.31 148.55 116.94 148.97 C 116.10 150.94 115.77 153.48 113.93 154.79 C 111.13 155.51 107.36 155.92 106.79 159.43 C 110.57 159.72 114.33 161.78 118.13 160.52 C 122.75 159.50 125.46 155.17 129.81 153.58 C 126.15 150.47 127.77 145.33 125.48 141.56 C 124.30 139.09 123.32 136.53 122.11 134.07 C 122.61 132.10 123.35 130.14 123.37 128.08 C 123.24 125.72 121.03 124.36 119.73 122.62 C 118.25 123.37 116.78 124.13 115.30 124.88 M 129.13 156.14 C 129.85 160.72 130.01 165.36 129.89 169.99 C 129.73 173.28 132.42 176.21 131.37 179.55 C 129.94 183.95 130.47 188.59 130.38 193.13 C 132.51 201.27 131.07 209.75 132.15 218.02 C 132.61 220.18 132.99 222.71 134.96 224.05 C 137.52 226.07 139.63 228.56 141.66 231.10 C 138.03 205.88 134.50 180.62 131.33 155.33 C 130.59 155.60 129.86 155.87 129.13 156.14 M 121.10 161.65 C 116.55 162.60 111.48 163.53 107.67 160.05 L 107.00 161.48 C 107.55 161.81 108.66 162.48 109.21 162.81 C 111.13 166.70 114.27 169.97 116.00 174.02 C 116.88 176.75 116.28 179.79 117.54 182.43 C 118.56 185.37 121.19 188.11 120.00 191.43 L 118.80 191.54 L 118.44 189.31 L 118.92 188.44 C 118.03 188.14 116.91 187.93 116.65 186.87 C 115.75 183.85 113.66 181.17 113.64 177.93 C 113.40 175.91 113.53 173.70 112.30 171.96 C 110.36 169.01 108.84 165.66 105.96 163.48 C 103.26 166.54 104.54 170.85 103.35 174.47 C 102.84 178.15 100.57 181.12 98.83 184.29 C 97.56 188.92 95.51 193.33 94.74 198.10 C 94.28 203.22 95.68 208.49 94.20 213.51 C 90.85 221.49 89.98 230.80 92.69 239.10 C 94.77 242.68 96.82 246.29 98.98 249.82 C 109.63 246.66 120.34 243.66 131.20 241.35 C 127.85 241.25 124.36 242.26 121.13 241.05 C 119.94 240.40 118.13 239.84 118.27 238.16 C 117.10 230.63 122.01 223.62 120.48 216.08 C 120.19 210.86 116.58 206.82 115.01 202.03 C 114.55 197.25 115.36 192.41 116.13 187.69 C 117.94 190.66 116.65 194.24 117.27 197.48 C 117.84 200.84 117.73 204.48 119.64 207.45 C 122.69 212.04 122.12 217.83 122.01 223.07 C 121.23 228.27 119.50 233.51 120.34 238.81 C 123.30 241.35 127.49 239.45 130.99 239.75 C 134.00 239.49 136.51 241.33 139.08 242.58 C 141.72 242.37 144.33 243.21 146.96 242.99 C 148.79 242.18 150.46 241.05 152.23 240.13 C 151.52 239.13 150.80 238.15 150.07 237.17 C 147.87 236.78 145.55 236.52 143.62 235.30 C 140.29 233.40 138.52 229.84 135.83 227.26 C 134.48 225.89 132.97 224.68 131.69 223.25 C 128.24 214.81 131.06 205.62 129.05 196.95 C 127.88 192.67 128.95 188.27 128.98 183.93 C 129.93 179.97 131.00 175.54 128.17 172.03 C 126.78 174.17 125.85 177.40 122.86 177.72 C 119.77 177.64 119.50 173.74 118.40 171.57 C 118.57 171.50 118.90 171.38 119.07 171.31 C 119.75 173.65 121.29 176.38 124.06 176.42 C 125.75 174.53 126.33 172.02 126.98 169.64 C 127.48 169.65 128.47 169.67 128.97 169.68 C 128.70 165.26 128.51 160.85 128.27 156.43 C 125.96 158.27 123.51 159.93 121.10 161.65 M 84.03 164.59 C 84.21 168.46 84.97 172.30 84.86 176.18 C 83.96 180.53 81.76 184.57 81.60 189.08 C 82.33 193.75 83.45 198.36 84.72 202.91 C 85.01 202.89 85.58 202.84 85.86 202.81 C 88.02 197.52 87.14 191.46 88.19 185.87 C 85.64 182.58 89.11 179.37 89.16 175.94 C 89.41 173.03 89.61 170.11 89.99 167.21 C 88.05 166.23 86.05 165.36 84.03 164.59 M 92.91 168.17 C 92.73 171.93 92.41 175.68 91.99 179.41 C 92.64 179.06 93.94 178.35 94.59 178.00 C 95.26 179.73 95.90 181.46 96.43 183.24 C 95.34 182.43 94.75 181.19 94.09 180.05 C 93.50 180.47 92.31 181.31 91.72 181.73 C 91.55 184.20 91.34 186.66 91.12 189.12 C 91.78 189.32 93.11 189.72 93.78 189.92 C 92.78 190.46 91.78 191.00 90.78 191.53 C 90.61 195.94 89.96 200.30 89.24 204.65 C 90.00 203.50 91.11 202.72 92.25 201.99 C 88.95 207.20 89.98 213.56 88.21 219.25 L 88.98 219.35 C 93.32 214.28 94.47 205.91 91.66 199.86 C 94.77 193.61 95.52 186.31 99.35 180.38 C 101.98 176.19 102.36 171.12 103.23 166.36 C 99.83 167.20 96.38 167.75 92.91 168.17 M 77.16 208.03 C 75.82 215.54 79.97 222.47 80.60 229.83 C 81.46 233.59 80.18 237.31 80.04 241.05 C 80.73 243.98 81.76 246.82 82.54 249.72 C 82.41 247.51 82.38 245.29 82.61 243.08 C 83.93 230.63 85.09 218.16 86.26 205.70 L 85.87 205.10 C 82.42 203.64 82.79 199.17 81.03 196.38 C 79.27 200.08 77.94 204.00 77.16 208.03 M 87.88 221.38 C 88.06 226.03 86.08 230.90 87.59 235.38 C 85.22 241.28 85.87 247.78 84.85 253.95 C 83.04 261.52 94.16 265.13 98.94 260.23 C 97.55 257.05 94.43 258.66 91.93 259.05 C 91.38 258.83 90.27 258.40 89.72 258.18 C 88.69 258.38 87.66 258.57 86.64 258.75 C 86.96 258.33 87.61 257.49 87.94 257.07 C 90.94 257.24 93.90 256.95 96.87 256.54 C 99.02 256.51 98.89 260.17 101.05 260.18 C 101.76 259.92 103.18 259.40 103.89 259.14 C 102.23 256.22 100.32 253.44 97.95 251.06 C 95.98 248.55 94.84 245.52 93.04 242.90 C 88.68 236.48 88.89 228.27 89.50 220.85 L 88.89 220.76 C 88.64 220.91 88.13 221.23 87.88 221.38 Z" />
<path fill="#333333" opacity="1.00" d=" M 114.14 86.45 C 115.96 85.11 118.05 83.62 120.38 84.88 C 118.42 85.82 116.28 86.23 114.14 86.45 Z" />
<path fill="#333333" opacity="1.00" d=" M 84.83 94.93 C 85.93 94.50 87.02 94.08 88.14 93.70 C 86.98 94.85 85.61 95.86 85.07 97.49 C 87.35 97.98 89.68 98.00 91.87 97.17 C 92.15 97.56 92.70 98.35 92.97 98.75 C 90.19 99.79 87.21 99.99 84.63 98.29 C 84.71 97.17 84.78 96.05 84.83 94.93 Z" />
<path fill="#333333" opacity="1.00" d=" M 101.01 112.70 C 102.51 111.78 104.10 114.20 103.61 115.54 C 102.25 116.01 100.34 114.07 101.01 112.70 Z" />
<path fill="#333333" opacity="1.00" d=" M 100.75 115.60 C 102.99 118.04 105.30 120.40 107.85 122.51 C 104.00 122.94 101.00 119.13 100.75 115.60 Z" />
<path fill="#333333" opacity="1.00" d=" M 110.00 134.00 C 113.01 133.00 115.99 133.94 118.87 134.90 C 113.98 138.46 108.26 140.59 102.80 143.03 C 106.46 138.44 112.78 137.93 117.27 134.55 C 110.91 134.74 104.89 137.20 98.69 138.44 C 101.41 135.16 106.19 135.17 110.00 134.00 Z" />
<path fill="#333333" opacity="1.00" d=" M 125.60 234.31 C 123.11 232.20 122.46 228.61 124.24 225.84 C 124.42 228.71 124.92 231.52 125.60 234.31 Z" />
</g>
</svg>
