<?xml version="1.0" encoding="UTF-8" ?>
<!DOCTYPE svg PUBLIC "-//W3C//DTD SVG 1.1//EN" "http://www.w3.org/Graphics/SVG/1.1/DTD/svg11.dtd">
<svg width="162pt" height="275pt" viewBox="0 0 162 275" version="1.1" xmlns="http://www.w3.org/2000/svg"><g id="#40413fff">
<path fill="#40413f" opacity="1.00" d=" M 77.37 31.31 C 81.04 28.90 85.48 28.06 89.81 27.91 C 94.33 28.56 97.62 32.44 99.28 36.47 C 100.84 40.78 98.56 45.49 100.28 49.77 C 101.46 53.01 104.78 54.69 106.45 57.63 C 108.56 61.07 110.96 64.32 113.51 67.44 C 117.02 72.32 114.53 78.55 115.21 84.04 C 116.38 94.71 111.57 104.58 109.39 114.78 C 109.74 115.57 110.45 117.15 110.80 117.94 C 109.85 118.16 108.96 118.53 108.14 119.02 L 108.00 119.58 C 107.82 126.13 103.63 131.35 100.92 136.99 C 98.49 141.08 102.89 145.77 99.62 149.66 C 103.18 150.49 106.79 151.10 110.40 151.68 C 109.69 146.13 113.78 141.50 113.37 136.01 C 113.10 130.82 112.94 125.16 109.39 120.99 C 109.91 120.35 110.43 119.72 110.94 119.09 C 112.94 121.64 114.82 124.54 114.95 127.88 C 115.08 131.25 115.03 134.64 115.71 137.95 C 114.26 142.60 112.00 146.99 111.46 151.90 C 113.96 152.13 116.46 152.34 118.97 152.49 C 121.30 145.24 125.30 137.07 133.11 134.59 C 139.22 133.49 147.01 134.91 150.28 140.82 C 154.07 146.87 154.79 154.23 154.91 161.22 C 157.29 161.47 159.67 161.83 162.00 162.41 L 162.00 164.56 C 157.83 163.41 153.55 162.70 149.37 161.57 C 146.43 160.87 143.46 159.80 140.40 160.28 C 140.33 160.69 140.18 161.52 140.11 161.93 C 147.22 164.38 154.82 165.05 162.00 167.30 L 162.00 169.40 C 159.26 168.63 156.47 168.04 153.73 167.27 C 151.32 173.51 148.78 180.27 143.09 184.29 C 138.43 187.89 132.12 186.43 126.90 185.14 C 118.39 180.07 117.01 168.83 117.53 159.82 C 111.78 158.24 105.80 157.96 100.00 156.62 C 97.63 156.07 95.46 154.78 93.81 153.00 C 94.84 150.12 97.49 148.38 99.61 146.36 C 99.06 144.24 97.89 142.17 98.11 139.94 C 99.43 133.34 104.43 128.24 105.87 121.69 C 106.73 117.86 107.57 113.93 107.09 109.98 C 110.19 105.65 110.74 100.28 112.47 95.38 C 114.85 89.51 112.81 83.13 113.55 77.03 C 114.07 73.33 112.35 69.95 110.51 66.90 C 110.26 67.60 109.75 69.00 109.50 69.70 C 107.38 68.18 105.19 66.76 103.25 65.01 C 104.99 65.45 106.68 66.06 108.27 66.90 C 108.65 66.70 109.03 66.50 109.41 66.30 C 106.65 61.67 103.60 57.24 100.29 53.00 C 96.38 47.58 98.81 40.69 96.40 34.82 C 95.26 31.26 91.56 29.11 88.01 28.65 C 84.72 28.60 82.01 30.72 79.28 32.24 C 77.49 33.21 75.70 34.75 75.86 37.00 C 75.81 43.43 77.09 49.83 79.00 55.95 C 80.64 56.09 82.27 56.22 83.91 56.36 C 83.94 55.88 84.00 54.93 84.03 54.45 C 87.06 52.18 89.38 49.19 92.03 46.52 C 91.72 50.35 89.99 54.24 85.83 55.04 C 85.87 55.81 85.93 56.58 85.99 57.34 C 87.46 59.44 87.57 61.93 86.74 64.32 C 87.16 64.58 87.59 64.82 88.01 65.07 C 90.27 64.32 92.57 63.71 94.91 63.28 C 93.51 65.70 90.65 65.81 88.21 66.32 C 87.15 67.00 86.09 67.67 85.02 68.34 C 85.38 67.72 86.09 66.47 86.44 65.85 C 85.91 65.46 85.39 65.07 84.86 64.69 C 81.48 68.58 79.50 73.45 76.30 77.50 C 73.24 81.32 77.06 85.57 78.78 88.99 C 78.83 91.83 78.01 94.58 77.56 97.36 C 78.91 99.79 80.02 102.36 80.53 105.11 C 83.30 108.92 83.70 113.58 84.02 118.12 C 86.49 118.19 90.26 119.27 91.38 116.19 C 93.01 111.87 93.90 107.30 95.36 102.91 C 94.99 97.25 95.55 91.60 95.77 85.94 C 93.25 87.37 90.85 89.15 88.01 89.90 C 85.59 90.74 83.62 88.77 81.62 87.77 C 84.35 87.56 87.13 87.84 89.84 87.37 C 93.00 86.01 96.16 83.97 96.98 80.38 C 93.98 75.81 91.42 67.71 97.15 64.23 C 96.45 66.76 95.65 69.33 95.69 71.99 C 95.80 77.04 100.96 79.67 102.62 84.13 C 101.05 83.15 99.52 82.10 98.01 81.05 C 97.63 85.68 97.67 90.33 97.09 94.94 C 96.68 98.21 97.05 101.53 98.46 104.52 C 99.93 102.86 101.36 101.17 102.97 99.63 C 101.65 102.70 100.41 107.88 96.10 107.05 C 94.80 109.61 94.07 112.39 93.96 115.26 C 92.16 118.97 92.57 123.08 92.65 127.05 C 91.85 130.98 90.58 134.81 89.36 138.63 C 88.02 143.10 84.87 146.66 82.50 150.59 C 85.57 155.28 91.40 158.72 97.08 157.43 C 96.60 158.09 95.63 159.39 95.15 160.04 C 99.04 159.60 102.94 158.93 106.86 159.25 C 104.01 160.22 101.01 160.81 98.00 160.88 C 94.17 161.03 90.87 158.78 87.31 157.72 C 87.52 162.99 90.82 167.81 89.79 173.15 C 89.15 177.91 89.69 183.01 92.65 186.95 C 92.61 190.89 93.86 194.66 94.17 198.56 C 94.15 202.99 93.88 207.44 94.43 211.84 C 95.54 217.78 97.65 223.80 96.77 229.91 C 95.11 234.47 91.03 237.50 88.31 241.39 C 85.33 245.79 79.54 246.62 76.19 250.63 C 78.98 251.90 81.85 253.02 84.88 253.57 C 89.30 254.70 93.66 252.65 97.57 250.83 C 101.61 248.75 106.77 249.17 110.17 245.82 C 111.38 243.20 110.32 240.21 109.63 237.58 C 105.03 225.90 109.08 213.20 107.30 201.09 C 107.01 194.88 103.54 189.18 104.21 182.89 C 104.52 178.77 104.02 174.47 105.79 170.61 C 107.44 166.96 107.56 162.94 107.63 159.01 C 108.30 159.83 108.97 160.66 109.65 161.48 C 109.36 167.85 105.49 173.52 106.10 179.99 C 105.27 192.29 112.55 203.94 109.89 216.25 C 109.29 220.44 109.43 224.69 109.36 228.91 C 110.92 234.04 112.55 239.37 112.40 244.79 C 111.48 249.31 106.17 250.13 102.49 251.36 C 97.83 252.43 93.97 255.93 89.06 256.03 C 84.24 256.05 79.28 254.72 75.47 251.68 C 76.31 246.10 82.57 244.66 85.57 240.55 C 87.94 237.30 90.83 234.49 93.46 231.46 C 96.24 227.23 94.75 221.84 93.69 217.28 C 92.23 212.33 91.85 207.12 92.08 201.98 C 92.59 197.28 90.85 192.77 90.54 188.11 C 89.12 184.45 87.50 180.79 87.40 176.79 C 84.94 175.49 82.08 174.46 80.68 171.85 C 80.98 170.95 81.33 170.07 81.75 169.22 C 83.45 171.46 85.10 173.83 87.79 175.01 C 88.07 169.11 86.49 163.32 86.86 157.42 C 86.33 157.12 85.28 156.51 84.76 156.21 C 82.30 156.42 79.84 156.58 77.38 156.74 C 77.57 160.33 77.81 163.93 78.58 167.45 C 79.46 171.20 78.38 175.14 79.57 178.86 C 80.54 182.18 80.35 185.81 82.07 188.90 C 83.85 191.96 83.37 195.61 83.20 198.98 C 82.74 205.42 84.32 211.75 85.33 218.06 C 85.63 222.65 82.55 226.37 79.73 229.62 C 76.37 234.32 70.89 236.57 66.29 239.78 C 67.36 241.72 68.38 243.69 69.32 245.71 C 70.01 245.87 71.40 246.19 72.09 246.35 C 73.35 245.80 74.61 245.25 75.88 244.72 C 76.17 244.25 76.76 243.32 77.05 242.86 C 77.55 243.42 78.56 244.55 79.06 245.11 C 76.29 246.96 73.12 248.00 69.96 248.97 C 66.65 247.49 65.17 244.35 64.53 240.98 C 66.27 238.62 68.09 236.25 70.57 234.62 C 75.39 231.49 79.17 227.06 82.58 222.51 C 83.65 218.16 83.02 213.52 82.29 209.14 C 80.85 202.73 82.69 195.92 80.29 189.67 C 78.73 185.86 77.84 181.84 76.79 177.87 C 75.81 174.31 77.23 170.60 76.25 167.04 C 75.42 163.45 74.80 159.74 75.67 156.09 C 75.42 155.64 74.92 154.73 74.67 154.27 C 70.20 153.09 64.78 152.75 62.54 147.98 C 57.49 146.98 52.90 144.52 47.85 143.53 C 45.52 142.92 42.58 142.69 41.46 140.18 C 42.12 138.84 42.98 137.61 43.78 136.37 C 47.78 137.28 51.76 138.27 55.75 139.25 C 55.00 133.41 55.25 126.71 50.86 122.16 C 48.47 119.07 44.27 119.05 40.83 118.00 C 30.42 120.09 24.45 130.97 24.29 140.93 C 23.97 146.54 25.14 152.68 29.32 156.75 C 30.76 158.43 33.12 158.52 35.14 158.83 C 34.25 157.87 33.32 156.95 32.36 156.07 C 27.43 149.01 28.35 139.64 31.06 131.91 C 33.27 126.48 36.85 120.51 43.04 119.20 C 40.24 122.67 36.45 125.36 34.34 129.37 C 31.72 134.46 30.87 140.30 31.23 145.97 C 31.27 150.74 34.20 154.71 35.87 159.00 C 38.79 159.14 42.08 159.58 44.55 157.64 C 48.54 155.24 50.88 151.14 53.12 147.23 C 53.31 147.23 53.68 147.22 53.87 147.22 C 54.33 149.81 52.55 152.12 51.17 154.13 C 48.12 158.17 43.44 161.86 38.09 161.40 C 34.28 161.05 29.92 160.88 27.19 157.78 C 22.16 152.36 21.80 144.45 22.52 137.47 C 18.30 136.44 14.05 135.47 9.78 134.65 C 9.64 133.45 9.51 132.26 9.37 131.06 C 9.86 130.26 10.36 129.46 10.85 128.66 C 15.16 129.88 19.54 130.89 23.83 132.21 C 26.47 124.80 32.04 116.67 40.73 116.51 C 44.54 117.06 48.34 118.40 51.54 120.57 C 55.96 123.96 56.22 129.98 57.22 135.01 C 56.85 136.48 56.51 137.95 56.17 139.43 C 58.66 139.90 61.13 140.48 63.55 141.24 C 65.46 138.93 67.79 137.02 69.83 134.84 C 71.30 128.71 71.33 122.30 70.91 116.03 C 70.42 110.52 73.72 105.75 76.41 101.25 C 75.65 99.13 74.99 96.96 74.81 94.70 C 75.46 93.20 76.87 91.78 76.61 90.02 C 76.01 86.91 73.21 84.22 74.14 80.89 C 74.70 76.92 77.39 73.77 78.66 70.05 C 79.92 65.83 84.07 63.49 85.96 59.59 C 83.91 57.85 81.48 56.79 78.75 57.23 C 77.94 56.74 77.13 56.26 76.33 55.77 C 75.39 50.86 74.70 45.91 73.84 40.99 C 72.99 37.47 74.20 33.29 77.37 31.31 M 74.35 109.71 C 72.57 113.22 73.40 117.30 73.32 121.07 C 73.74 126.41 72.25 131.61 71.71 136.88 C 69.06 139.86 65.86 142.30 62.82 144.88 C 64.28 147.02 65.55 149.85 68.27 150.65 C 70.24 151.17 72.22 151.64 74.16 152.27 C 74.96 151.74 75.76 151.22 76.56 150.70 C 74.71 149.75 73.12 148.42 71.53 147.12 C 72.95 144.13 75.91 142.58 79.16 143.82 C 78.77 143.11 77.98 141.69 77.58 140.98 C 78.87 135.90 77.37 130.39 79.59 125.55 C 81.27 121.08 82.31 116.41 81.33 111.64 C 78.77 108.93 77.68 105.33 77.56 101.65 C 76.52 104.34 75.63 107.11 74.35 109.71 M 79.70 133.11 C 79.50 135.19 79.65 137.28 79.61 139.37 C 80.07 141.00 80.52 142.64 80.94 144.29 C 82.75 143.32 84.75 142.54 86.27 141.11 C 90.16 134.65 90.48 127.00 90.76 119.70 C 88.46 120.05 86.14 120.12 83.82 120.09 C 82.65 124.51 79.85 128.44 79.70 133.11 M 10.51 131.49 C 13.72 135.01 19.03 134.54 23.30 135.75 L 23.41 133.73 C 19.19 132.69 14.93 130.83 10.51 131.49 M 127.17 141.09 C 119.45 150.11 117.80 163.39 121.24 174.53 C 122.60 179.33 126.33 183.20 131.25 184.35 C 131.14 183.58 131.03 182.81 130.93 182.04 C 130.49 181.81 129.61 181.34 129.17 181.11 C 125.39 175.96 125.02 169.14 124.75 162.98 C 125.37 154.43 128.13 145.57 134.22 139.30 C 135.39 137.92 137.18 137.61 138.91 137.58 C 137.11 140.15 134.38 141.89 132.63 144.50 C 129.06 149.57 127.52 155.82 127.03 161.94 C 126.27 168.67 127.73 175.83 131.88 181.28 C 131.81 181.91 131.66 183.15 131.59 183.78 C 135.06 184.30 138.86 184.69 141.91 182.54 C 147.59 179.05 149.16 172.22 152.32 166.85 C 147.92 165.93 143.32 165.49 139.15 163.77 C 137.30 161.71 139.34 159.10 140.64 157.32 C 144.88 158.33 149.15 159.24 153.31 160.55 C 152.33 153.45 152.53 145.41 147.30 139.81 C 144.59 136.37 139.86 136.71 136.01 135.71 C 132.85 137.09 129.40 138.29 127.17 141.09 M 42.60 139.75 C 46.61 141.95 51.33 141.97 55.50 143.74 C 57.39 144.51 59.33 145.18 61.24 145.90 C 61.50 144.72 61.76 143.53 62.02 142.36 C 58.05 141.62 54.12 140.67 50.18 139.77 C 47.66 139.25 44.93 137.93 42.60 139.75 M 74.15 147.55 C 76.33 148.74 78.78 149.19 81.18 149.72 C 81.74 148.52 82.31 147.32 82.92 146.14 C 80.86 145.88 78.82 145.49 76.80 145.02 C 75.91 145.85 75.02 146.70 74.15 147.55 M 77.68 150.87 C 76.93 151.92 76.14 152.95 75.33 153.95 C 78.26 154.82 81.29 155.31 84.34 155.51 C 82.97 152.90 80.77 150.87 77.68 150.87 M 96.34 153.53 C 103.45 155.05 110.59 156.82 117.84 157.37 C 118.03 156.68 118.41 155.29 118.60 154.59 C 111.38 153.86 104.23 152.47 97.26 150.43 C 97.03 151.20 96.57 152.76 96.34 153.53 Z" />
<path fill="#40413f" opacity="1.00" d=" M 107.88 93.24 C 109.54 91.82 111.30 90.42 113.59 90.22 C 112.48 91.48 111.28 92.66 110.08 93.85 C 110.25 96.91 110.06 100.02 108.38 102.69 C 107.33 99.65 107.77 96.38 107.88 93.24 Z" />
<path fill="#40413f" opacity="1.00" d=" M 81.21 93.67 C 85.53 92.40 88.16 97.73 88.97 101.19 C 85.67 99.39 84.76 95.20 81.21 93.67 Z" />
<path fill="#40413f" opacity="1.00" d=" M 88.32 102.42 C 88.60 102.35 89.18 102.20 89.46 102.13 C 90.03 103.93 90.64 105.73 91.07 107.57 C 89.65 106.16 89.06 104.23 88.32 102.42 Z" />
<path fill="#40413f" opacity="1.00" d=" M 92.06 173.00 C 92.38 172.17 92.73 171.35 93.10 170.54 C 93.58 171.18 94.55 172.47 95.04 173.11 C 95.56 172.83 96.62 172.27 97.15 171.99 C 97.77 172.14 99.03 172.44 99.65 172.59 C 99.38 172.89 98.83 173.49 98.55 173.79 C 98.82 175.67 99.39 177.54 99.32 179.45 C 98.64 181.00 97.65 182.41 97.05 184.00 C 96.59 185.81 97.69 187.71 96.84 189.47 C 94.87 186.54 95.92 183.33 97.33 180.47 C 96.90 178.77 96.53 177.06 96.17 175.35 C 94.76 174.63 93.29 174.00 92.06 173.00 Z" />
<path fill="#40413f" opacity="1.00" d=" M 98.45 202.58 C 99.43 207.68 99.23 212.96 100.30 218.08 C 97.56 213.37 98.03 207.79 98.45 202.58 Z" />
</g>
</svg>
