<?xml version="1.0" encoding="UTF-8" ?>
<!DOCTYPE svg PUBLIC "-//W3C//DTD SVG 1.1//EN" "http://www.w3.org/Graphics/SVG/1.1/DTD/svg11.dtd">
<svg width="275pt" height="175pt" viewBox="0 0 275 175" version="1.1" xmlns="http://www.w3.org/2000/svg"><g id="#4f514cff">
<path fill="#333333" opacity="1.00" d=" M 151.08 21.32 C 153.61 15.54 158.22 10.38 164.64 9.07 C 164.39 9.67 163.88 10.86 163.62 11.46 C 160.08 12.51 156.99 14.83 155.04 17.97 C 150.71 24.19 149.50 32.35 151.72 39.59 C 152.44 39.41 153.86 39.04 154.57 38.85 C 154.35 33.03 153.77 26.86 156.64 21.53 C 158.72 17.45 161.45 12.18 166.63 11.97 C 163.10 16.28 157.44 19.32 156.08 25.09 C 155.11 29.40 154.22 34.24 156.37 38.34 C 158.81 37.15 161.32 35.78 164.13 35.85 C 168.60 35.64 173.89 36.95 177.59 33.82 C 173.38 32.41 168.99 31.52 164.85 29.93 C 163.56 28.33 164.91 26.97 166.20 26.04 C 169.57 25.89 173.33 24.57 175.69 27.91 L 176.04 27.02 C 176.67 21.59 175.79 15.35 171.11 11.85 C 169.14 11.67 167.18 11.45 165.22 11.19 C 165.93 10.55 166.65 9.92 167.39 9.29 C 170.08 10.03 173.16 10.64 174.94 13.02 C 177.96 16.66 177.91 21.65 177.80 26.12 L 179.00 26.33 C 178.79 26.55 178.39 27.00 178.19 27.23 C 178.15 29.46 181.17 26.23 182.21 26.01 C 185.98 26.66 189.77 27.20 193.48 28.17 C 193.37 29.76 193.26 31.35 193.19 32.94 L 191.10 31.61 L 192.06 30.08 C 190.08 29.34 188.15 28.40 186.06 28.03 C 184.31 27.76 183.15 30.16 181.38 29.26 C 176.05 30.73 171.02 26.86 165.75 28.15 C 170.86 30.59 176.56 30.80 181.98 31.84 C 181.36 32.08 180.14 32.56 179.52 32.81 C 179.41 35.27 177.61 37.09 175.13 37.16 C 168.78 37.79 162.38 37.94 156.09 39.07 L 156.80 39.87 C 153.22 41.65 149.25 40.51 145.50 41.44 C 142.34 42.21 138.98 40.14 135.94 41.79 C 132.94 43.17 129.70 44.02 126.37 43.70 C 131.23 40.47 137.43 38.66 143.26 39.61 C 145.41 39.79 147.54 39.33 149.68 39.24 C 148.68 34.58 147.84 29.27 149.99 24.82 C 149.75 23.95 149.51 23.09 149.28 22.22 C 149.73 22.00 150.63 21.54 151.08 21.32 Z" />
<path fill="#333333" opacity="1.00" d=" M 142.30 20.40 C 143.93 20.78 145.54 21.22 147.17 21.63 C 147.20 22.01 147.27 22.78 147.31 23.17 C 146.11 23.14 143.72 23.08 142.53 23.05 C 143.89 23.69 145.30 24.23 146.74 24.67 C 147.00 25.17 147.51 26.17 147.77 26.68 C 145.61 26.13 143.45 25.58 141.29 25.05 C 141.58 23.49 141.91 21.94 142.30 20.40 Z" />
<path fill="#333333" opacity="1.00" d=" M 213.93 38.44 C 217.32 32.09 222.45 26.02 229.80 24.40 C 235.30 23.95 241.47 25.25 244.86 30.04 C 247.37 34.25 248.12 39.66 246.39 44.30 C 249.05 44.89 251.68 45.61 254.23 46.59 C 254.22 47.96 254.21 49.33 254.21 50.71 C 251.22 51.42 248.21 50.72 245.34 49.81 C 242.70 55.65 238.21 61.15 231.85 63.00 C 226.77 64.64 221.13 63.23 216.91 60.15 C 212.20 55.96 211.93 49.06 212.84 43.25 C 209.60 41.10 205.51 40.61 202.61 37.91 C 206.99 37.26 210.46 40.90 214.78 41.00 C 212.08 37.92 207.70 37.40 204.36 35.25 C 206.36 33.03 209.09 35.66 211.36 35.82 C 209.49 34.16 207.19 33.19 204.91 32.25 C 202.05 32.35 199.34 33.29 197.29 35.33 C 196.70 35.43 195.52 35.64 194.93 35.74 C 194.90 36.66 194.84 38.51 194.81 39.43 C 195.74 39.37 197.59 39.26 198.52 39.21 C 197.69 39.78 196.86 40.35 196.04 40.92 C 193.71 43.51 190.74 45.89 187.05 45.71 C 183.44 45.58 180.34 47.34 177.65 49.57 C 176.64 50.98 175.58 52.37 174.54 53.77 C 174.25 53.49 173.66 52.94 173.36 52.66 C 171.43 54.05 169.43 55.33 167.36 56.50 C 167.59 55.86 168.05 54.59 168.28 53.96 C 162.75 54.44 157.08 55.63 152.35 58.65 C 153.61 59.62 155.91 59.72 156.27 61.55 C 153.11 62.78 148.77 63.12 146.84 66.01 C 151.79 67.39 156.99 68.15 162.06 69.09 C 165.81 68.45 169.82 68.19 173.13 66.14 C 175.36 64.71 178.01 64.28 180.52 63.60 C 179.55 63.12 178.58 62.64 177.61 62.17 C 178.16 61.92 179.25 61.41 179.79 61.15 C 180.37 59.75 180.97 58.36 181.68 57.01 C 181.76 57.82 181.93 59.43 182.02 60.24 L 180.61 63.16 C 185.50 58.98 192.41 57.42 196.41 52.17 C 197.26 51.40 196.04 50.53 195.73 49.85 C 197.78 48.01 199.88 46.20 202.19 44.69 C 201.09 47.15 198.89 48.76 197.07 50.63 C 197.48 50.60 198.29 50.56 198.70 50.54 C 200.91 48.42 203.02 46.20 205.02 43.89 C 203.27 42.49 201.49 41.14 199.78 39.69 C 202.40 39.73 204.35 41.49 206.58 42.56 L 207.90 41.78 C 208.60 42.16 209.30 42.55 209.99 42.95 C 203.66 47.62 198.69 53.88 192.15 58.30 C 188.71 61.00 184.49 62.39 180.96 64.95 C 178.45 66.16 175.60 66.54 173.24 68.10 C 169.90 70.22 165.74 69.62 162.21 71.15 C 159.84 73.13 158.33 76.34 155.05 77.00 C 151.80 78.33 148.32 78.02 144.96 77.42 C 139.24 78.06 133.80 80.60 127.95 80.08 C 124.21 80.26 120.81 78.14 117.08 78.32 C 114.51 78.50 112.04 79.33 109.64 80.24 C 108.52 81.71 106.82 82.23 105.07 82.50 C 104.97 83.06 104.75 84.17 104.64 84.72 C 102.36 86.53 100.15 88.66 97.21 89.32 C 93.64 90.52 89.83 89.78 86.16 90.32 C 83.10 90.98 80.22 92.22 77.33 93.40 C 77.47 92.97 77.73 92.12 77.87 91.69 C 73.75 93.14 69.44 94.32 65.04 94.01 C 62.13 93.74 59.29 94.38 56.54 95.26 C 56.23 95.01 55.61 94.52 55.29 94.28 C 54.99 96.60 54.85 99.02 55.65 101.27 C 57.48 107.00 59.02 113.03 58.26 119.10 C 57.67 123.77 58.53 128.42 59.07 133.05 C 59.69 139.31 64.78 144.42 64.24 150.90 C 64.31 153.27 62.69 155.16 61.23 156.85 C 56.01 157.93 50.43 158.12 45.72 160.90 C 41.71 163.15 37.20 164.20 32.87 165.64 C 27.52 165.91 23.35 162.27 19.03 159.71 C 19.63 158.53 20.24 157.35 20.86 156.19 C 23.56 154.77 25.98 152.78 28.98 152.01 C 33.22 151.04 35.55 147.03 38.21 143.99 C 33.17 144.43 29.09 147.26 25.25 150.27 C 21.78 151.43 17.95 151.18 14.41 152.23 C 11.86 153.06 8.16 150.50 9.37 147.75 C 9.53 143.48 14.26 142.36 17.09 140.20 C 19.59 137.64 21.66 134.66 24.49 132.43 C 27.60 129.96 29.65 126.03 29.42 122.01 C 29.25 114.86 26.03 108.17 26.00 100.99 C 26.09 96.01 25.07 91.13 25.11 86.16 C 24.31 81.76 24.13 76.77 27.11 73.09 C 30.16 71.25 33.11 69.23 36.06 67.23 C 41.87 64.06 48.33 61.85 54.95 61.30 C 57.12 61.12 58.96 59.79 61.04 59.24 C 64.05 59.33 67.02 60.10 70.06 59.95 C 73.83 60.06 77.16 57.57 80.95 57.91 C 83.58 58.03 86.16 58.51 88.77 58.82 C 91.37 56.69 94.66 56.00 97.87 55.34 C 100.21 54.03 102.34 52.38 104.63 50.99 C 107.81 47.21 113.13 44.33 118.13 45.84 C 120.80 46.72 123.55 46.16 126.25 45.77 C 131.16 45.72 135.53 48.31 140.03 49.89 C 141.95 46.74 143.85 42.65 147.96 42.12 C 154.05 41.35 160.50 43.64 164.85 47.98 C 166.33 49.25 166.28 51.31 166.60 53.07 C 169.11 52.76 171.52 51.97 173.93 51.24 C 176.44 48.70 179.09 46.11 182.30 44.49 C 186.22 43.79 190.43 43.80 193.76 41.29 C 193.24 39.60 192.81 37.88 192.45 36.16 C 190.93 38.03 188.96 39.42 186.99 40.78 C 186.32 40.79 184.98 40.80 184.30 40.81 C 181.76 42.43 179.18 43.98 176.76 45.78 C 173.38 47.45 169.88 49.26 166.00 49.12 C 169.18 47.52 172.68 46.56 175.71 44.64 C 180.23 41.64 185.28 39.58 189.73 36.44 C 188.68 35.80 187.67 35.12 186.69 34.38 C 186.38 31.95 188.41 30.12 190.88 30.54 C 190.39 31.21 189.41 32.55 188.92 33.22 C 190.81 34.91 193.59 34.70 195.92 35.32 C 195.78 34.73 195.49 33.57 195.34 32.99 L 193.29 33.15 C 193.93 32.59 194.58 32.03 195.24 31.49 C 196.12 31.56 197.87 31.68 198.75 31.75 C 203.03 29.41 208.12 31.31 211.87 33.80 C 212.20 35.49 212.93 37.05 213.93 38.44 M 218.44 35.07 C 214.49 41.27 212.87 49.71 216.44 56.43 C 218.56 60.15 223.13 60.98 226.98 61.67 C 233.96 61.66 239.06 56.58 242.70 51.19 C 242.90 50.47 243.09 49.74 243.28 49.02 C 239.30 48.65 235.27 47.89 231.57 46.35 C 230.55 44.48 232.58 42.87 233.90 41.84 C 237.86 42.25 241.65 43.59 245.56 44.34 C 245.04 39.24 245.57 33.22 241.49 29.38 C 239.06 26.50 234.93 26.97 231.72 25.59 C 226.57 27.45 221.27 30.14 218.44 35.07 M 142.78 47.94 C 143.37 48.80 143.97 49.65 144.55 50.53 C 146.43 52.03 150.80 52.94 149.76 56.00 C 145.95 54.72 143.32 50.94 139.09 50.62 C 134.85 50.15 131.12 47.86 126.93 47.19 C 124.26 47.36 121.65 48.05 118.97 48.22 C 120.71 50.25 122.49 52.25 123.90 54.53 C 123.48 54.49 122.65 54.43 122.23 54.40 C 121.99 56.12 122.18 57.99 121.42 59.60 C 120.24 60.93 118.73 61.91 117.42 63.09 C 117.05 62.96 116.31 62.70 115.93 62.58 C 117.08 61.15 118.35 59.85 119.72 58.64 C 120.22 56.80 121.43 55.04 121.25 53.09 C 119.24 51.72 117.06 50.13 118.23 47.32 C 110.98 45.52 105.99 51.81 100.64 55.42 C 100.62 55.84 100.56 56.67 100.53 57.09 C 98.95 57.73 97.39 58.42 95.93 59.31 C 95.46 58.87 95.00 58.43 94.54 57.99 L 96.30 56.80 C 94.70 57.41 93.13 58.09 91.56 58.77 C 95.75 61.92 102.16 62.38 104.48 67.68 C 104.70 66.98 104.90 66.28 105.08 65.57 C 107.46 66.13 109.86 66.64 112.26 67.11 L 112.22 68.10 C 110.22 68.16 108.13 67.54 106.18 68.18 C 106.58 71.93 109.33 75.59 107.63 79.51 C 110.99 77.86 114.66 76.88 118.40 76.73 C 118.30 76.10 118.10 74.85 118.00 74.22 C 121.05 73.23 124.16 71.47 127.45 72.48 C 127.62 71.13 128.74 70.29 129.57 69.33 C 128.42 67.65 126.75 65.78 128.32 63.67 C 127.84 63.77 126.89 63.97 126.42 64.07 C 125.24 63.21 124.08 62.34 122.93 61.45 C 124.33 61.64 125.73 61.84 127.12 62.05 C 130.13 64.77 132.40 60.57 135.18 59.89 C 134.59 60.86 133.83 61.68 132.90 62.36 C 133.28 63.12 133.66 63.88 134.05 64.64 C 134.92 64.90 136.67 65.42 137.55 65.68 C 138.75 65.18 140.03 64.64 140.37 63.24 C 141.85 59.73 146.27 59.53 149.48 58.76 C 153.43 54.64 159.44 54.24 164.56 52.47 C 163.88 48.14 159.57 45.28 155.38 45.21 C 155.49 44.96 155.70 44.47 155.81 44.22 C 153.24 43.88 150.66 43.05 148.04 43.46 C 145.91 44.42 144.56 46.49 142.78 47.94 M 232.59 44.10 C 235.05 45.91 238.12 46.21 241.00 46.86 C 244.71 47.56 248.34 48.66 252.12 49.01 C 251.77 48.61 251.09 47.81 250.75 47.42 C 244.79 45.96 238.76 44.17 232.59 44.10 M 74.11 61.09 C 75.36 61.74 76.68 62.25 78.01 62.74 C 76.47 63.84 74.90 64.89 73.36 65.99 C 75.64 66.01 77.91 65.98 80.18 65.99 C 82.36 67.57 85.32 67.07 87.59 68.46 C 89.06 69.25 89.48 70.96 90.13 72.36 C 89.58 73.60 89.07 74.86 88.58 76.13 C 89.14 71.44 84.34 68.16 80.00 69.13 C 80.07 68.73 80.21 67.93 80.28 67.54 C 77.25 67.78 74.21 67.68 71.18 67.52 C 71.97 65.63 72.92 63.78 74.60 62.53 C 70.43 61.00 65.88 61.45 61.53 60.97 C 61.96 61.28 62.81 61.91 63.24 62.22 C 63.09 64.35 63.12 66.48 62.95 68.61 C 60.66 67.97 60.95 64.66 59.63 62.94 C 50.24 62.61 40.96 65.81 33.37 71.25 C 31.01 72.93 27.48 73.79 26.82 77.03 C 25.41 79.64 26.90 82.38 27.20 85.05 C 27.06 91.05 26.67 97.08 27.15 103.07 C 29.06 111.15 32.44 119.63 30.05 127.98 C 29.10 132.23 24.61 133.83 22.10 136.96 C 20.17 139.03 18.84 141.93 15.96 142.83 C 13.59 143.63 11.73 145.30 10.09 147.13 C 11.30 146.92 13.70 146.49 14.91 146.27 C 13.26 147.58 11.49 148.72 9.84 150.04 C 13.60 151.69 17.19 149.35 20.94 149.17 C 24.46 149.23 26.62 146.13 29.47 144.60 C 32.56 142.56 36.39 142.57 39.94 142.18 C 41.21 140.57 42.79 139.13 43.62 137.22 C 46.62 130.21 42.05 123.12 41.57 116.06 C 41.32 110.54 38.50 105.53 38.44 99.99 C 38.44 96.08 36.37 92.44 36.69 88.51 C 37.40 85.49 38.64 82.16 41.62 80.69 C 45.38 78.67 47.97 74.97 52.04 73.45 C 57.51 71.27 62.98 68.34 68.93 68.00 C 76.16 72.95 81.22 82.44 79.28 91.28 C 83.98 89.35 88.85 87.47 94.02 87.72 C 100.11 88.00 104.46 82.26 106.14 77.03 C 105.79 72.68 103.69 68.37 100.54 65.33 C 92.71 60.83 82.95 58.15 74.11 61.09 M 142.55 62.24 C 142.20 62.87 141.49 64.14 141.14 64.78 L 143.15 65.43 C 141.79 65.64 140.43 65.82 139.07 65.93 C 137.73 66.36 136.39 66.81 135.07 67.27 C 132.75 69.91 129.51 71.53 126.92 73.88 C 124.40 74.74 121.69 74.80 119.08 75.14 C 122.70 77.13 126.87 78.21 131.01 78.04 C 136.44 78.19 141.44 74.74 146.93 75.90 C 152.03 76.88 157.17 74.69 160.41 70.72 C 155.19 70.09 150.28 67.95 144.98 67.81 C 145.10 64.44 147.70 62.39 150.27 60.70 C 147.65 60.98 145.07 61.49 142.55 62.24 M 129.27 66.15 C 130.40 68.06 132.77 67.39 134.58 67.57 C 133.30 66.22 132.00 64.86 131.05 63.24 C 130.30 64.12 129.71 65.09 129.27 66.15 M 52.13 75.09 C 48.50 76.47 46.33 79.96 42.93 81.72 C 40.19 83.00 39.55 86.16 38.11 88.53 C 38.69 91.24 39.43 93.91 40.07 96.60 C 40.36 99.34 39.71 102.25 41.01 104.81 C 42.81 108.78 42.74 113.22 43.37 117.45 C 44.51 123.57 46.31 129.62 46.55 135.87 C 46.34 139.23 42.92 140.72 41.00 143.03 C 37.71 146.84 35.29 152.28 29.93 153.51 C 26.51 154.83 21.96 156.00 20.61 159.81 C 21.43 159.83 23.07 159.85 23.89 159.87 C 28.09 165.95 36.22 163.16 41.73 160.75 C 46.08 158.14 50.96 156.74 55.95 155.98 C 58.48 155.29 62.31 155.22 62.73 151.91 C 63.02 146.30 59.76 141.33 58.24 136.09 C 57.31 129.77 56.20 123.39 56.93 116.99 C 57.69 108.99 53.71 101.70 52.49 93.97 C 54.90 93.04 57.38 91.78 60.05 92.42 C 66.04 93.39 72.48 92.73 77.80 89.69 C 79.39 82.24 74.59 75.12 69.71 69.92 C 63.35 69.39 57.81 72.83 52.13 75.09 Z" />
<path fill="#333333" opacity="1.00" d=" M 230.07 27.83 C 231.07 27.02 233.78 26.32 232.68 28.53 C 229.02 31.52 224.14 33.60 222.34 38.30 C 220.18 43.94 217.21 50.18 219.49 56.22 C 216.48 51.02 217.81 44.79 219.70 39.46 C 222.10 34.80 225.75 30.78 230.07 27.83 Z" />
<path fill="#333333" opacity="1.00" d=" M 192.60 46.47 C 194.50 44.18 196.67 42.04 199.40 40.77 C 198.00 43.52 195.64 45.70 192.60 46.47 Z" />
<path fill="#333333" opacity="1.00" d=" M 148.56 45.58 C 150.60 47.44 150.66 50.12 150.27 52.67 C 148.65 50.66 148.72 48.02 148.56 45.58 Z" />
<path fill="#333333" opacity="1.00" d=" M 109.74 55.26 C 110.72 53.41 111.85 51.64 113.25 50.07 C 112.87 51.72 112.46 53.36 112.03 55.00 C 109.70 55.90 107.32 56.66 104.97 57.52 C 103.78 56.80 102.60 56.09 101.48 55.27 C 104.26 55.59 107.12 56.94 109.74 55.26 Z" />
<path fill="#333333" opacity="1.00" d=" M 125.04 51.51 C 126.68 52.10 128.31 52.71 129.96 53.23 C 130.64 53.84 131.31 54.45 131.97 55.06 C 129.19 54.81 126.14 54.50 125.04 51.51 Z" />
<path fill="#333333" opacity="1.00" d=" M 132.75 52.92 C 134.34 53.56 135.85 54.99 137.68 54.51 C 139.69 55.30 141.66 56.36 142.63 58.42 C 140.82 57.69 139.22 56.55 137.77 55.26 C 137.02 56.72 136.54 58.31 135.62 59.68 C 134.64 57.45 134.51 54.81 132.75 52.92 Z" />
<path fill="#333333" opacity="1.00" d=" M 179.50 53.69 C 181.72 53.37 183.97 53.27 186.21 53.41 C 184.12 54.65 181.61 55.20 179.50 53.69 Z" />
<path fill="#333333" opacity="1.00" d=" M 168.27 57.75 C 170.44 57.71 172.61 57.57 174.77 57.35 C 174.80 57.77 174.87 58.60 174.90 59.02 C 172.67 59.04 170.44 59.00 168.21 58.88 C 168.22 58.60 168.26 58.03 168.27 57.75 Z" />
<path fill="#333333" opacity="1.00" d=" M 107.06 57.68 C 110.18 57.21 112.61 58.61 113.92 61.38 C 111.28 60.90 109.18 59.18 107.06 57.68 Z" />
<path fill="#333333" opacity="1.00" d=" M 126.24 57.91 C 127.91 58.72 129.57 59.54 131.22 60.40 C 129.88 60.64 128.52 60.53 127.19 60.28 C 126.95 59.69 126.47 58.50 126.24 57.91 Z" />
<path fill="#333333" opacity="1.00" d=" M 79.46 63.16 C 84.05 63.80 89.72 64.13 92.45 68.49 C 88.01 67.02 83.52 65.48 79.46 63.16 Z" />
<path fill="#333333" opacity="1.00" d=" M 107.69 64.14 C 110.17 64.22 112.65 64.54 115.08 65.06 C 115.23 65.54 115.54 66.52 115.69 67.01 C 112.96 66.25 110.25 65.38 107.69 64.14 Z" />
<path fill="#333333" opacity="1.00" d=" M 120.65 63.49 C 122.85 64.39 124.96 65.56 126.72 67.19 C 123.89 67.58 121.71 66.00 120.65 63.49 Z" />
<path fill="#333333" opacity="1.00" d=" M 117.35 66.31 C 118.82 65.93 120.86 68.19 120.16 69.60 C 118.52 70.17 116.67 67.82 117.35 66.31 Z" />
<path fill="#333333" opacity="1.00" d=" M 34.26 73.10 C 36.21 75.68 38.84 77.32 42.18 77.14 C 39.17 80.01 33.44 77.37 34.26 73.10 Z" />
<path fill="#333333" opacity="1.00" d=" M 57.63 83.14 C 61.29 79.34 65.88 76.34 71.09 75.22 C 66.71 77.97 62.92 82.25 57.63 83.14 Z" />
<path fill="#333333" opacity="1.00" d=" M 138.97 83.09 C 146.73 80.76 155.49 81.22 162.30 76.30 C 161.79 77.61 161.41 79.15 159.98 79.75 C 155.01 82.73 149.02 83.03 143.59 84.76 C 143.86 87.68 143.87 90.81 142.03 93.29 C 141.85 90.58 141.75 87.88 141.64 85.18 C 139.18 85.75 136.74 86.38 134.34 87.17 C 134.77 92.62 135.23 98.08 135.06 103.56 C 134.58 103.28 133.61 102.73 133.12 102.46 C 132.68 97.51 132.99 92.51 132.72 87.55 C 115.22 92.30 97.48 96.29 80.30 102.07 C 81.00 111.42 81.52 120.81 81.02 130.17 C 80.20 129.30 79.73 128.29 79.61 127.14 C 78.75 118.96 78.88 110.74 78.65 102.53 C 74.06 103.55 69.77 106.25 64.97 106.09 C 61.47 105.02 57.85 103.36 55.75 100.20 C 59.92 100.89 63.29 105.55 67.78 103.65 C 91.13 95.53 115.15 89.62 138.97 83.09 Z" />
<path fill="#333333" opacity="1.00" d=" M 29.86 78.91 C 32.33 79.82 33.30 82.66 32.34 85.05 C 32.65 84.99 33.26 84.87 33.57 84.81 C 32.75 86.88 32.03 89.01 30.98 90.98 C 30.90 88.92 31.08 86.89 31.54 84.89 L 30.45 85.91 C 30.35 83.57 29.89 81.26 29.86 78.91 Z" />
<path fill="#333333" opacity="1.00" d=" M 47.74 82.38 C 49.47 82.87 51.19 83.40 52.93 83.85 C 52.65 84.22 52.08 84.98 51.79 85.35 C 50.00 85.03 48.24 84.31 47.74 82.38 Z" />
<path fill="#333333" opacity="1.00" d=" M 42.52 94.52 C 43.26 91.06 42.62 86.03 47.04 85.06 C 46.46 86.09 45.85 87.11 45.23 88.12 C 45.31 90.63 44.57 92.95 42.52 94.52 Z" />
<path fill="#333333" opacity="1.00" d=" M 143.68 99.82 C 142.33 98.64 142.13 94.45 143.67 93.27 C 144.31 95.28 144.15 97.78 143.68 99.82 Z" />
<path fill="#333333" opacity="1.00" d=" M 87.60 100.42 C 87.91 100.38 88.53 100.31 88.84 100.28 C 90.52 105.74 90.22 111.55 89.90 117.19 C 86.93 112.16 88.40 105.95 87.60 100.42 Z" />
<path fill="#333333" opacity="1.00" d=" M 45.27 103.21 C 45.74 103.84 45.74 103.84 45.27 103.21 Z" />
<path fill="#333333" opacity="1.00" d=" M 49.70 109.46 C 49.27 107.36 49.77 105.23 50.25 103.19 C 50.37 110.79 53.59 117.95 53.70 125.51 C 51.25 120.49 50.77 114.86 49.70 109.46 Z" />
<path fill="#333333" opacity="1.00" d=" M 46.58 105.30 C 47.38 106.75 47.87 108.33 47.81 110.01 C 47.91 114.74 48.82 119.41 49.21 124.12 C 47.22 118.07 46.20 111.66 46.58 105.30 Z" />
<path fill="#333333" opacity="1.00" d=" M 35.88 140.41 C 38.26 136.49 41.52 132.59 40.66 127.68 C 44.30 132.13 40.24 138.29 35.88 140.41 Z" />
<path fill="#333333" opacity="1.00" d=" M 25.99 140.93 C 27.50 138.09 29.63 135.44 32.77 134.37 C 30.92 136.94 28.53 139.06 25.99 140.93 Z" />
<path fill="#333333" opacity="1.00" d=" M 56.09 144.85 C 58.54 147.82 53.73 149.44 51.42 149.96 C 52.28 148.83 53.42 147.99 54.63 147.27 C 54.99 146.67 55.73 145.45 56.09 144.85 Z" />
<path fill="#333333" opacity="1.00" d=" M 41.55 154.35 C 42.19 151.30 44.24 148.82 46.73 147.04 C 45.52 149.80 43.74 152.28 41.55 154.35 Z" />
<path fill="#333333" opacity="1.00" d=" M 26.46 157.05 C 29.43 156.21 32.88 157.16 34.45 159.96 C 31.55 159.77 28.92 158.51 26.46 157.05 Z" />
</g>
</svg>
