<?xml version="1.0" encoding="UTF-8" ?>
<!DOCTYPE svg PUBLIC "-//W3C//DTD SVG 1.1//EN" "http://www.w3.org/Graphics/SVG/1.1/DTD/svg11.dtd">
<svg width="216pt" height="300pt" viewBox="0 0 216 300" version="1.1" xmlns="http://www.w3.org/2000/svg"><g id="#4f514dff">
<path fill="#333333" opacity="1.00" d=" M 95.84 41.79 C 99.57 41.46 103.94 41.32 106.82 44.15 C 110.29 47.77 110.99 53.26 109.94 58.01 C 108.07 55.39 109.30 51.96 107.85 49.19 C 106.81 47.10 105.61 44.56 103.06 44.12 C 97.26 41.84 89.76 44.14 86.79 49.69 C 85.60 56.56 85.19 63.83 87.56 70.50 C 89.68 72.80 93.01 71.59 95.40 70.48 C 98.80 69.22 100.74 65.97 103.43 63.75 C 102.61 68.58 98.92 73.04 93.80 73.42 C 94.33 76.71 90.89 77.40 88.68 78.58 C 91.49 79.06 94.31 79.48 97.08 80.14 C 97.11 79.78 97.17 79.04 97.19 78.67 C 104.59 78.85 111.84 80.67 119.24 80.89 C 116.61 77.57 113.11 75.13 109.43 73.10 C 108.40 67.87 106.46 62.42 107.90 57.12 C 108.41 57.83 108.90 58.55 109.37 59.28 C 108.27 64.67 109.96 70.42 113.92 74.24 C 117.81 76.19 122.40 77.68 124.78 81.60 C 134.64 84.19 144.98 83.96 154.96 85.92 C 156.45 79.39 159.21 72.81 164.40 68.36 C 168.60 64.62 175.17 64.74 179.96 67.15 C 186.33 72.64 187.97 81.95 187.45 89.96 C 192.12 90.48 196.81 90.99 201.46 91.61 C 203.42 93.48 202.36 97.33 200.04 98.30 C 190.90 96.73 181.51 96.68 172.45 94.49 C 172.91 92.30 173.01 89.64 174.95 88.16 C 178.91 88.54 182.82 89.32 186.76 89.91 C 184.66 83.46 185.53 75.80 180.78 70.38 C 178.24 67.16 173.77 67.46 170.09 67.37 C 163.51 70.11 159.56 76.64 157.45 83.16 C 154.92 91.75 154.59 101.34 158.28 109.66 C 159.79 112.52 162.38 115.60 165.95 115.40 C 169.17 115.34 172.90 115.96 175.54 113.63 C 180.48 109.88 182.34 103.77 184.58 98.28 C 185.08 97.96 186.06 97.32 186.56 97.00 C 184.79 103.54 182.20 110.32 177.00 114.92 C 173.03 118.67 167.03 117.88 162.16 117.04 C 154.20 111.85 153.67 101.13 153.85 92.55 C 146.45 91.75 139.13 90.37 131.72 89.69 C 133.22 103.11 125.87 115.23 120.95 127.19 C 120.13 130.46 120.00 133.89 118.71 137.05 C 119.17 137.55 119.62 138.06 120.07 138.57 C 119.97 143.31 123.25 147.21 123.56 151.88 C 123.75 154.89 123.83 157.91 124.15 160.92 C 124.60 164.45 122.29 167.92 123.56 171.40 C 124.93 175.55 124.97 180.01 126.54 184.12 C 126.02 184.84 125.51 185.56 125.01 186.29 C 125.42 192.37 124.98 198.47 124.25 204.51 C 140.43 208.22 156.78 211.50 173.10 214.68 C 173.93 215.79 174.82 217.01 174.51 218.51 C 174.65 218.89 174.91 219.63 175.04 220.01 C 172.12 225.55 165.96 228.13 161.29 231.96 C 161.40 239.28 161.11 246.60 160.84 253.91 C 163.62 250.99 166.62 246.83 171.17 247.42 C 174.15 249.05 173.51 252.93 172.58 255.56 C 164.76 263.45 155.68 269.98 147.93 277.95 C 146.25 277.35 144.51 276.89 142.95 276.01 C 142.17 273.71 142.50 271.24 142.47 268.86 C 146.06 265.65 149.91 262.73 153.43 259.45 C 154.12 251.95 153.32 244.27 153.63 236.70 C 151.02 238.03 148.32 240.48 145.18 239.32 C 139.14 237.86 133.17 236.07 127.02 235.08 C 127.46 239.57 128.00 244.20 126.46 248.56 C 124.94 252.47 125.84 256.66 125.82 260.73 C 125.83 263.93 128.13 266.57 128.17 269.75 C 128.26 272.51 128.53 275.26 129.05 277.98 C 122.91 281.77 119.29 288.94 112.12 291.05 C 107.21 291.38 101.86 292.09 97.39 289.54 C 96.76 288.74 96.27 287.85 95.75 287.00 C 97.01 285.41 98.12 283.72 99.24 282.04 C 100.59 279.83 103.41 279.08 104.70 276.82 C 106.90 273.52 109.17 270.27 111.61 267.15 C 111.21 265.09 110.62 263.07 110.21 261.02 L 110.35 260.37 L 110.74 259.99 L 111.10 259.69 L 111.90 260.80 C 111.66 253.75 108.87 247.09 108.62 240.04 C 108.42 233.98 108.19 227.74 105.95 222.02 C 104.59 218.49 104.88 214.63 104.03 210.98 C 103.49 207.54 101.30 204.57 101.03 201.06 C 100.76 197.30 101.09 193.52 100.69 189.77 C 100.20 189.35 99.23 188.53 98.74 188.11 C 98.71 184.69 98.93 181.24 98.34 177.86 C 95.87 174.42 92.01 172.33 89.26 169.12 C 90.09 169.16 91.08 168.55 91.84 169.11 C 94.87 171.19 97.44 173.83 100.19 176.24 C 100.62 179.99 100.79 183.75 101.10 187.51 C 108.89 191.14 117.24 187.18 124.13 183.40 C 123.31 179.83 122.54 176.24 121.95 172.62 C 121.30 172.65 120.00 172.69 119.35 172.71 C 120.48 170.47 121.35 168.12 122.39 165.83 C 122.58 161.17 122.21 156.49 121.67 151.86 C 121.19 146.55 116.79 142.43 116.86 137.02 C 117.47 132.87 118.46 128.77 118.95 124.60 C 119.36 124.33 120.18 123.77 120.59 123.49 C 122.56 117.74 126.25 112.82 128.27 107.12 C 129.51 101.34 130.53 95.39 129.86 89.45 C 121.91 88.40 113.94 87.53 106.00 86.51 C 106.10 87.14 106.31 88.38 106.42 89.00 C 103.83 89.15 101.52 88.10 99.15 87.25 C 94.98 86.41 91.00 88.53 86.87 88.77 C 84.29 90.62 81.64 92.36 78.88 93.92 C 83.50 97.01 87.90 100.40 92.36 103.72 C 94.52 105.12 97.23 106.07 99.82 105.62 C 105.12 104.46 110.58 104.29 115.90 103.25 C 120.91 101.72 123.36 96.58 127.78 94.08 C 125.66 98.62 121.81 102.14 117.77 104.98 C 119.72 108.04 119.27 111.65 119.58 115.08 C 118.38 116.02 117.14 116.91 115.82 117.67 C 116.20 116.55 116.60 115.44 117.00 114.34 C 116.92 111.53 116.93 108.70 116.40 105.93 C 112.23 106.18 108.11 107.13 103.93 106.98 C 100.27 106.85 96.49 108.30 92.94 106.85 C 89.85 106.09 87.75 103.55 85.38 101.63 C 82.81 99.20 80.02 97.02 77.19 94.92 C 77.26 97.03 77.32 99.15 77.30 101.26 C 80.81 103.45 80.78 107.56 81.76 111.13 C 80.62 113.46 79.63 115.95 80.10 118.60 C 79.97 123.11 85.16 125.49 84.98 130.01 C 84.67 133.88 84.03 137.76 83.08 141.52 C 79.49 138.31 83.03 133.05 82.02 129.01 C 80.99 126.19 79.23 123.72 78.11 120.95 C 77.60 117.71 78.38 114.45 78.40 111.21 C 77.98 108.34 77.02 105.61 75.89 102.96 C 74.84 100.67 76.08 98.23 76.40 95.94 C 71.62 97.46 67.17 100.32 62.04 100.56 C 57.11 100.97 51.31 102.37 47.10 98.99 C 44.99 94.61 48.19 90.54 49.83 86.64 C 50.93 83.51 53.73 81.57 56.17 79.54 C 52.16 79.45 48.14 79.17 44.21 78.34 C 43.50 83.23 41.04 87.55 38.81 91.87 C 37.10 94.77 34.41 97.45 30.95 98.01 C 27.36 98.40 22.99 98.56 20.74 95.15 C 15.69 88.02 16.42 78.78 17.13 70.53 C 13.27 70.02 9.37 69.70 5.55 68.89 C 8.95 66.06 13.55 69.15 17.46 68.98 C 18.99 62.82 21.11 56.25 26.28 52.16 C 29.73 49.43 34.64 49.58 38.47 51.33 C 44.66 55.91 45.66 64.87 44.27 71.93 C 43.00 65.06 43.46 56.64 37.01 52.09 C 34.94 51.96 32.87 51.77 30.81 51.53 C 21.88 55.71 19.20 66.19 18.13 75.14 C 17.84 81.44 18.27 88.35 22.10 93.63 C 24.47 97.13 29.32 95.87 32.80 95.32 C 38.52 92.35 40.60 85.69 42.65 80.03 C 40.33 77.21 36.37 77.67 33.12 77.03 C 32.12 74.86 32.89 72.74 33.95 70.78 C 45.67 72.10 57.33 73.89 69.05 75.16 C 71.20 75.35 73.21 76.15 75.16 77.04 C 80.33 73.47 87.91 80.18 91.82 74.05 C 88.07 71.81 84.59 68.85 83.81 64.30 C 86.07 58.73 82.20 52.22 85.98 47.11 C 88.63 44.45 91.91 41.90 95.84 41.79 M 34.65 73.18 C 34.33 73.64 33.68 74.56 33.36 75.02 C 42.59 76.82 52.02 77.27 61.30 78.71 C 61.28 79.00 61.24 79.58 61.22 79.87 C 63.39 80.19 65.54 80.82 67.75 80.79 C 69.86 80.06 71.72 78.78 73.73 77.84 C 73.07 77.45 72.40 77.07 71.73 76.70 C 69.84 77.02 67.91 77.25 66.01 76.89 C 59.00 75.71 51.89 75.27 44.89 74.06 C 41.50 73.58 38.08 72.79 34.65 73.18 M 72.50 81.67 C 72.46 81.94 72.38 82.48 72.34 82.76 C 76.55 83.39 80.98 81.23 84.67 79.17 C 82.48 78.41 80.21 77.60 77.86 77.75 C 75.80 78.60 73.97 80.00 72.50 81.67 M 98.58 81.70 C 100.26 83.86 101.58 86.45 104.44 87.28 C 103.97 86.40 103.02 84.65 102.55 83.77 C 119.79 86.17 137.09 88.02 154.31 90.54 C 154.46 89.79 154.76 88.29 154.91 87.54 C 146.76 87.29 138.74 85.72 130.64 84.98 C 120.52 83.43 110.26 82.80 100.22 80.80 C 99.67 81.10 99.12 81.40 98.58 81.70 M 53.63 83.67 C 51.65 87.72 48.91 91.45 47.75 95.87 C 49.87 97.50 52.15 99.57 55.06 99.14 C 60.44 98.60 66.23 98.92 71.02 96.01 C 75.31 93.32 79.46 90.33 84.02 88.12 C 88.79 86.97 93.50 85.61 98.27 84.46 C 94.41 81.57 88.98 80.20 84.39 82.09 C 80.35 83.63 76.07 84.77 71.70 84.38 C 71.33 83.96 70.60 83.14 70.23 82.73 C 69.47 82.72 67.96 82.71 67.20 82.70 C 62.64 81.80 57.59 80.26 53.63 83.67 M 173.32 92.23 C 180.88 94.83 189.06 94.22 196.81 96.05 C 196.98 95.22 197.31 93.57 197.47 92.74 C 192.58 92.56 187.69 92.23 182.87 91.38 C 179.66 91.16 176.00 89.64 173.32 92.23 M 103.40 191.18 C 101.50 197.00 102.70 203.06 105.27 208.46 C 106.77 208.97 108.28 209.48 109.79 209.96 C 108.78 210.94 107.32 211.62 106.82 213.02 C 106.83 220.50 110.73 227.41 110.40 234.92 C 109.89 244.32 115.17 253.30 113.19 262.68 L 115.40 262.44 C 116.95 251.85 114.40 241.28 113.34 230.78 C 117.23 237.46 116.52 245.51 117.39 252.92 C 117.85 256.17 117.54 259.49 116.24 262.52 C 116.30 262.75 116.41 263.21 116.47 263.44 C 114.51 264.44 113.78 266.36 113.50 268.42 C 108.67 272.12 106.91 278.55 101.62 281.72 C 99.58 283.24 98.88 285.88 97.77 288.06 C 102.34 290.20 107.51 290.05 112.35 289.15 C 115.55 287.40 119.33 285.78 120.72 282.12 C 123.23 280.41 126.16 279.17 128.08 276.75 C 128.18 273.57 126.58 270.60 126.24 267.45 C 125.49 270.81 123.79 273.74 120.58 275.27 C 121.71 272.87 123.18 270.67 124.60 268.44 C 124.47 265.61 124.49 262.78 124.12 259.97 C 122.85 251.59 126.67 243.32 125.05 234.95 C 124.51 230.76 122.27 227.07 121.38 222.97 C 120.59 219.64 121.64 216.23 121.17 212.87 C 122.20 204.30 123.15 195.71 122.48 187.06 C 116.55 189.96 110.09 191.99 103.40 191.18 M 123.65 206.87 C 122.68 215.47 122.62 225.00 127.28 232.59 C 133.22 234.85 139.66 235.36 145.83 236.76 C 149.23 237.63 152.08 235.16 154.91 233.71 C 160.97 229.65 167.21 225.76 172.65 220.85 C 172.86 220.07 173.29 218.51 173.51 217.73 C 171.41 216.81 169.25 216.02 166.99 215.65 C 152.50 212.90 138.14 209.53 123.65 206.87 M 155.51 236.39 C 155.05 244.22 155.78 252.12 155.04 259.94 C 152.23 263.78 147.70 265.88 144.56 269.41 C 142.85 271.37 143.68 275.74 146.93 274.62 C 155.44 267.79 163.64 260.53 171.84 253.30 C 171.85 252.35 171.85 251.40 171.86 250.46 C 170.88 249.82 169.90 249.19 168.93 248.56 C 166.37 250.58 164.08 252.91 161.68 255.12 C 161.39 255.84 160.81 257.28 160.52 258.00 C 159.10 254.52 159.82 250.68 159.67 247.02 C 159.45 242.16 160.42 237.36 160.71 232.53 C 158.90 233.66 156.68 234.49 155.51 236.39 Z" />
<path fill="#333333" opacity="1.00" d=" M 28.27 56.29 C 29.22 54.47 30.92 53.38 32.90 53.00 C 24.98 61.83 22.19 74.33 24.22 85.87 C 25.16 89.11 27.00 92.00 28.03 95.22 C 23.59 92.96 22.98 87.51 22.19 83.13 C 21.25 73.88 23.27 64.17 28.27 56.29 Z" />
<path fill="#333333" opacity="1.00" d=" M 162.55 82.39 C 164.03 77.14 166.82 72.22 170.91 68.57 C 171.33 68.84 172.17 69.40 172.59 69.68 C 164.65 76.63 162.14 87.82 162.40 97.96 C 162.36 103.72 164.31 109.29 167.54 114.02 C 165.86 113.83 164.19 113.21 163.56 111.49 C 159.13 102.51 159.54 91.74 162.55 82.39 Z" />
<path fill="#333333" opacity="1.00" d=" M 5.32 72.19 C 8.81 72.22 12.31 72.43 15.76 72.92 C 15.75 73.14 15.72 73.58 15.70 73.81 C 12.47 74.83 7.99 74.62 5.32 72.19 Z" />
<path fill="#333333" opacity="1.00" d=" M 96.53 90.12 C 100.36 91.75 103.97 93.88 107.27 96.40 C 109.99 94.20 111.78 89.51 115.97 90.21 C 118.51 91.11 118.87 94.36 118.74 96.68 C 117.73 97.33 116.64 97.86 115.57 98.43 C 116.84 95.87 117.26 93.13 115.03 90.92 C 112.80 92.49 111.40 94.83 109.71 96.90 C 104.55 97.55 98.57 95.29 96.53 90.12 Z" />
<path fill="#333333" opacity="1.00" d=" M 122.65 89.92 C 124.08 89.59 124.55 90.10 124.05 91.46 C 122.61 91.78 122.15 91.27 122.65 89.92 Z" />
<path fill="#333333" opacity="1.00" d=" M 83.72 111.58 C 85.51 110.55 87.46 109.81 89.36 109.02 C 89.41 112.65 89.17 116.28 89.24 119.91 C 89.27 122.77 91.34 124.96 92.32 127.52 C 92.57 131.55 91.88 135.58 91.43 139.58 C 88.63 135.33 91.41 130.07 89.41 125.60 C 87.95 120.84 87.37 115.84 86.54 110.93 C 85.34 113.00 84.89 115.92 82.37 116.84 C 82.19 114.99 82.75 113.15 83.72 111.58 Z" />
<path fill="#333333" opacity="1.00" d=" M 91.92 108.80 C 96.81 110.29 99.29 115.29 103.06 118.40 C 103.01 119.22 102.91 120.87 102.86 121.69 C 101.75 120.97 100.89 119.99 100.23 118.85 C 97.93 115.12 94.25 112.52 91.92 108.80 Z" />
<path fill="#333333" opacity="1.00" d=" M 103.82 115.20 C 105.68 113.28 107.70 111.50 109.94 110.04 C 109.34 113.09 106.92 115.08 103.82 115.20 Z" />
<path fill="#333333" opacity="1.00" d=" M 105.51 120.89 C 108.30 119.35 111.28 118.16 114.29 117.16 C 112.58 120.25 108.87 121.46 105.51 120.89 Z" />
<path fill="#333333" opacity="1.00" d=" M 100.92 123.13 C 103.53 124.37 102.05 126.95 101.48 128.91 C 100.91 127.03 100.83 125.07 100.92 123.13 Z" />
<path fill="#333333" opacity="1.00" d=" M 105.08 125.93 C 108.28 127.50 111.22 125.82 114.06 124.41 C 112.86 126.62 110.91 128.84 108.13 128.50 C 106.48 128.68 105.68 127.17 105.08 125.93 Z" />
<path fill="#333333" opacity="1.00" d=" M 76.66 149.98 C 77.65 146.69 79.16 143.55 80.03 140.21 C 82.77 142.82 86.52 143.64 90.08 144.50 C 97.67 145.84 106.52 147.24 113.04 142.10 C 114.40 141.38 115.58 138.08 117.22 140.17 C 117.11 140.56 116.88 141.33 116.76 141.71 C 111.99 146.75 104.59 147.59 98.01 147.13 C 93.12 146.48 88.18 146.05 83.38 144.83 C 82.80 144.19 81.64 142.90 81.06 142.25 C 80.54 142.92 80.03 143.60 79.52 144.29 L 81.18 144.59 C 80.39 146.50 79.56 148.40 78.64 150.25 C 79.40 152.48 80.31 154.65 81.22 156.82 C 80.44 158.71 79.50 160.65 79.76 162.76 C 80.14 169.66 76.04 176.01 77.04 182.94 C 82.73 186.28 89.60 187.22 96.04 185.93 C 95.42 187.25 94.53 188.60 92.86 188.54 C 87.45 188.80 81.79 188.10 76.99 185.45 C 77.29 190.66 77.83 195.85 78.91 200.96 C 79.88 205.26 77.48 209.47 78.21 213.78 C 78.73 215.70 79.71 217.45 80.68 219.16 C 80.06 223.73 80.46 228.38 79.45 232.91 C 77.83 241.38 81.37 249.76 79.80 258.23 C 79.82 259.95 78.30 260.94 77.26 262.08 C 73.30 265.91 70.07 270.38 66.55 274.58 C 65.28 276.34 62.98 276.47 61.09 277.06 C 62.09 278.57 62.76 280.53 64.48 281.39 C 66.94 281.53 69.42 281.52 71.88 281.32 C 75.77 280.73 78.43 277.39 82.06 276.19 C 86.09 275.18 91.09 275.96 93.95 272.32 C 94.15 269.49 92.63 266.99 91.85 264.37 C 90.24 267.03 88.37 269.51 86.65 272.09 C 86.14 272.29 85.13 272.68 84.63 272.88 C 85.44 269.14 88.98 266.90 89.56 263.09 C 90.01 263.12 90.89 263.17 91.34 263.19 C 90.76 261.37 89.26 259.61 89.71 257.59 C 90.55 253.17 90.72 248.52 92.78 244.44 C 96.43 238.41 93.38 231.31 92.56 224.92 C 91.52 221.46 93.38 218.23 94.09 214.93 C 94.90 211.72 94.42 208.09 96.59 205.34 C 97.27 211.97 94.95 218.24 94.11 224.70 C 98.01 225.99 102.21 226.32 105.96 228.03 C 105.89 228.39 105.74 229.10 105.67 229.46 C 101.99 229.03 98.46 227.86 94.85 227.07 C 95.71 231.63 96.86 236.32 96.10 240.97 C 94.07 246.79 91.64 252.59 91.37 258.84 C 93.15 263.10 95.62 267.36 95.53 272.11 L 96.78 271.31 C 94.77 273.16 92.88 275.19 90.57 276.69 C 87.63 278.04 84.20 277.68 81.20 278.90 C 78.82 280.10 76.95 282.13 74.48 283.18 C 70.89 284.35 66.97 284.28 63.34 283.33 C 61.26 282.72 59.00 280.54 60.05 278.22 C 62.30 273.90 66.98 271.68 69.76 267.77 C 72.05 264.64 74.84 261.92 77.27 258.92 C 79.46 252.88 77.19 246.60 76.86 240.47 C 69.68 245.16 62.49 249.82 55.27 254.44 C 53.63 253.60 51.89 252.92 50.41 251.81 C 50.17 249.67 50.22 247.49 50.59 245.37 C 53.76 242.30 57.87 240.43 61.62 238.17 C 61.59 231.56 61.81 224.95 61.47 218.35 C 56.45 218.08 51.46 216.94 46.72 215.33 C 45.03 213.45 45.83 211.01 46.77 209.01 C 55.07 205.63 63.12 201.67 71.46 198.39 C 72.81 197.67 74.08 196.81 75.39 196.02 C 75.55 187.97 73.34 179.73 76.10 171.91 C 76.66 169.37 77.27 166.85 77.88 164.34 C 75.77 161.82 77.96 158.90 78.46 156.24 C 77.77 154.18 77.03 152.13 76.66 149.98 M 70.26 201.14 C 63.37 203.84 56.69 207.04 49.90 209.97 C 48.45 210.47 46.49 212.07 48.33 213.46 C 53.05 214.98 57.90 216.16 62.81 216.84 C 67.03 218.78 71.75 219.06 76.09 220.61 C 76.55 221.08 77.46 222.04 77.92 222.52 C 72.83 222.02 67.93 220.48 62.98 219.28 C 63.67 225.69 63.27 232.16 63.29 238.60 C 63.88 238.62 65.06 238.65 65.65 238.67 C 61.14 240.03 57.31 242.91 53.33 245.32 C 50.67 246.99 51.70 250.80 54.16 252.12 C 61.72 247.47 69.51 243.06 76.58 237.67 C 77.84 231.60 78.43 225.48 78.58 219.30 C 77.84 216.85 76.82 214.51 75.89 212.14 C 76.14 210.10 76.33 208.06 76.42 206.01 C 76.76 205.53 77.43 204.56 77.77 204.08 C 77.14 202.06 76.51 200.05 75.83 198.06 C 74.09 199.28 72.28 200.43 70.26 201.14 Z" />
<path fill="#333333" opacity="1.00" d=" M 110.51 148.32 C 112.72 149.11 113.94 151.22 115.24 153.01 C 113.03 152.61 109.53 151.17 110.51 148.32 Z" />
<path fill="#333333" opacity="1.00" d=" M 115.93 190.58 C 118.27 194.18 117.30 198.81 117.41 202.86 C 117.18 202.83 116.71 202.77 116.47 202.74 C 116.04 198.70 115.54 194.64 115.93 190.58 Z" />
<path fill="#333333" opacity="1.00" d=" M 109.89 203.30 C 106.23 201.15 104.42 196.45 105.11 192.37 C 106.89 195.92 108.39 199.61 109.89 203.30 Z" />
<path fill="#333333" opacity="1.00" d=" M 90.45 194.32 C 93.20 197.87 92.47 203.20 89.49 206.39 C 87.31 208.32 84.30 206.99 81.91 206.23 C 80.39 203.21 80.21 199.86 80.28 196.54 C 80.68 200.99 84.07 205.94 89.14 204.52 C 91.40 201.67 89.90 197.67 90.45 194.32 Z" />
<path fill="#333333" opacity="1.00" d=" M 84.55 216.61 C 86.06 215.30 87.64 214.07 89.37 213.08 C 88.49 215.22 87.02 217.03 85.57 218.81 C 85.47 219.85 85.28 221.92 85.18 222.95 C 84.69 220.87 84.63 218.73 84.55 216.61 Z" />
<path fill="#333333" opacity="1.00" d=" M 117.48 224.37 C 113.93 223.18 113.30 217.85 116.84 216.13 C 116.35 218.91 116.86 221.67 117.48 224.37 Z" />
<path fill="#333333" opacity="1.00" d=" M 67.92 222.32 L 69.16 220.88 C 69.37 225.25 68.99 229.63 68.85 234.00 C 71.33 231.49 74.50 229.85 77.82 228.72 C 76.43 233.11 70.19 233.02 68.98 237.52 C 68.66 237.41 68.03 237.17 67.71 237.06 C 67.83 232.15 67.32 227.18 67.92 222.32 Z" />
<path fill="#333333" opacity="1.00" d=" M 117.29 228.53 C 119.59 231.55 120.05 235.40 120.91 238.98 C 121.76 242.79 122.14 246.75 121.54 250.63 C 120.09 246.91 120.05 242.83 119.19 238.96 C 118.69 235.45 117.51 232.07 117.29 228.53 Z" />
<path fill="#333333" opacity="1.00" d=" M 155.94 259.19 C 159.29 259.37 154.37 262.12 155.94 259.19 Z" />
<path fill="#333333" opacity="1.00" d=" M 74.45 274.50 C 75.96 270.28 79.05 266.76 82.68 264.20 C 80.24 267.84 77.99 271.81 74.45 274.50 Z" />
<path fill="#333333" opacity="1.00" d=" M 113.36 282.37 C 114.34 276.99 115.70 271.46 118.83 266.89 C 118.56 270.68 116.69 274.06 115.68 277.67 C 115.21 279.37 114.54 281.03 113.36 282.37 Z" />
</g>
</svg>
