<?xml version="1.0" encoding="UTF-8" ?>
<!DOCTYPE svg PUBLIC "-//W3C//DTD SVG 1.1//EN" "http://www.w3.org/Graphics/SVG/1.1/DTD/svg11.dtd">
<svg width="276pt" height="225pt" viewBox="0 0 276 225" version="1.1" xmlns="http://www.w3.org/2000/svg"><g id="#575957ff">
<path fill="#333333" opacity="1.00" d=" M 198.58 13.52 C 200.83 10.35 204.88 9.82 208.30 8.66 C 216.69 9.95 219.92 18.81 221.65 26.01 C 225.87 25.04 229.92 23.44 234.12 22.41 C 236.42 23.21 236.41 26.05 236.62 28.07 C 232.12 29.14 227.81 31.37 223.22 31.81 C 223.14 31.53 222.98 30.98 222.90 30.70 C 226.88 28.71 231.59 28.52 235.36 26.09 C 234.56 24.74 233.46 24.29 232.07 24.72 C 228.65 25.55 225.42 27.00 222.03 27.95 C 223.07 38.55 222.43 51.23 213.55 58.54 C 210.23 59.33 206.43 60.26 203.13 58.89 C 197.41 55.15 195.00 48.25 193.87 41.81 C 186.84 41.12 179.84 39.65 172.73 40.21 C 173.02 39.64 173.61 38.49 173.90 37.91 C 180.28 37.62 186.55 39.05 192.87 39.50 C 196.70 38.62 200.47 37.41 204.04 35.78 C 204.05 35.33 204.08 34.43 204.09 33.99 C 200.25 34.06 196.85 36.01 193.19 36.88 C 185.71 37.74 178.01 33.32 170.68 36.22 C 172.77 39.61 172.68 43.60 173.23 47.39 C 172.88 47.40 172.16 47.42 171.80 47.43 C 173.85 52.42 174.73 57.74 175.18 63.09 C 175.44 67.12 177.93 70.94 176.81 75.04 C 175.86 79.03 176.37 83.19 177.75 87.01 C 180.04 92.93 176.69 99.91 180.72 105.32 C 184.06 109.75 181.67 115.36 178.27 118.93 C 178.66 114.74 179.60 110.57 179.08 106.35 C 177.57 104.12 176.63 101.58 175.63 99.10 C 176.03 97.63 176.41 96.16 176.78 94.69 C 175.33 94.60 173.88 94.50 172.44 94.40 C 171.99 90.15 172.86 85.98 174.07 81.94 C 177.08 69.12 169.62 56.84 170.69 44.01 C 171.00 40.34 169.68 36.85 168.40 33.48 C 165.21 34.17 161.92 34.49 158.66 34.14 C 156.34 35.66 154.60 37.82 152.99 40.04 C 154.68 39.28 156.36 38.51 158.05 37.74 C 158.93 39.18 159.79 40.64 160.64 42.10 C 159.70 43.12 158.75 44.15 157.81 45.17 C 159.58 46.77 161.94 48.15 162.32 50.74 C 164.97 57.37 159.85 64.02 161.37 70.82 C 162.19 73.36 161.62 78.29 165.53 77.93 C 164.68 75.24 163.80 72.54 163.37 69.74 C 163.79 69.72 164.63 69.66 165.05 69.63 C 165.78 72.87 167.45 75.91 170.75 77.08 C 170.51 80.64 170.19 84.22 169.36 87.70 C 168.78 86.25 168.30 84.76 167.81 83.28 C 168.51 81.09 168.28 78.86 166.67 77.13 C 164.65 80.50 161.35 83.69 161.75 87.95 C 161.74 92.85 163.46 97.48 164.58 102.19 C 166.01 101.55 167.45 100.90 168.88 100.26 C 168.70 100.66 168.32 101.46 168.13 101.86 C 166.80 103.06 166.25 104.65 166.24 106.43 C 166.02 106.03 165.58 105.22 165.36 104.81 C 162.01 103.55 161.24 100.18 160.78 96.99 C 160.51 97.60 159.98 98.84 159.72 99.46 C 154.57 96.91 149.43 100.63 144.45 101.91 C 144.56 101.45 144.76 100.52 144.87 100.06 C 145.66 99.83 147.25 99.37 148.05 99.15 C 146.40 98.11 144.74 96.99 144.38 94.92 C 143.25 94.54 142.11 94.18 140.98 93.82 C 141.25 97.91 141.65 102.03 142.61 106.01 C 143.12 106.28 144.15 106.82 144.66 107.09 C 143.63 107.64 142.60 108.20 141.58 108.77 C 140.95 113.52 140.95 118.37 139.47 122.97 C 141.62 125.70 144.22 128.72 143.20 132.52 C 141.01 130.00 140.06 126.64 137.58 124.34 C 137.83 122.38 138.18 120.45 138.59 118.52 C 137.99 112.24 140.45 106.13 139.38 99.84 C 138.89 98.60 137.87 97.46 138.00 96.05 C 138.68 90.02 141.15 84.24 140.61 78.10 C 141.81 72.21 140.74 66.29 140.92 60.37 C 140.28 56.03 143.34 52.83 144.97 49.16 C 144.29 47.63 143.68 46.06 143.06 44.50 C 143.56 44.63 144.54 44.88 145.03 45.00 C 143.41 44.06 141.82 43.08 140.23 42.10 C 135.06 43.16 129.91 44.72 125.79 48.16 C 130.16 48.44 129.39 53.06 129.83 56.15 C 131.03 57.07 132.24 57.98 133.46 58.88 C 133.98 66.02 129.85 72.02 127.26 78.32 C 125.56 81.93 126.34 86.05 126.22 89.90 C 126.78 91.41 127.81 92.98 126.92 94.59 C 125.24 98.83 124.90 103.47 122.86 107.58 C 120.73 112.16 120.79 117.26 120.60 122.18 C 120.88 122.66 121.44 123.61 121.73 124.09 C 121.31 125.77 120.87 127.45 120.42 129.12 C 118.72 123.90 117.86 118.39 118.43 112.90 C 118.46 108.78 123.19 105.83 121.40 101.54 C 123.37 99.16 124.01 96.07 123.88 93.04 C 122.96 93.22 121.13 93.56 120.21 93.73 C 114.16 90.83 106.91 92.76 101.93 96.85 C 99.36 98.92 97.29 101.50 95.32 104.12 C 95.08 106.56 94.33 109.01 94.61 111.47 C 96.90 114.07 100.02 115.78 102.75 117.88 C 104.49 121.15 107.62 123.27 109.89 126.12 C 113.01 129.91 117.96 131.24 121.50 134.51 C 123.94 136.59 126.12 139.10 129.01 140.58 C 132.20 140.96 135.42 140.51 138.55 139.90 C 138.84 139.47 139.41 138.62 139.70 138.20 C 144.32 139.02 148.62 136.86 153.10 136.19 C 154.05 136.92 155.00 137.64 155.96 138.37 C 154.57 135.93 154.93 133.36 156.40 131.03 C 157.33 132.99 157.94 135.11 159.00 137.01 C 160.10 138.20 161.86 138.46 163.23 139.26 C 161.40 139.52 159.54 139.66 157.70 139.67 C 160.26 142.83 162.72 146.24 166.63 147.86 C 166.01 148.52 165.39 149.18 164.76 149.83 C 160.42 148.33 157.08 145.01 155.99 140.50 C 150.89 138.79 145.74 141.37 140.57 140.39 C 136.59 143.58 130.97 143.90 126.40 141.86 C 122.21 139.35 118.89 135.56 114.30 133.70 C 110.83 132.36 109.19 128.71 106.01 126.99 C 102.94 125.60 102.73 121.73 101.23 119.08 C 98.19 119.86 95.12 120.89 91.93 120.53 C 89.21 120.38 87.26 118.24 85.22 116.71 C 83.38 114.99 80.73 114.95 78.48 114.13 C 72.78 111.97 66.95 110.17 61.40 107.64 C 59.76 106.89 58.72 105.35 57.53 104.07 C 57.55 103.51 57.60 102.41 57.62 101.85 C 52.41 99.75 49.60 94.61 44.98 91.72 C 42.69 93.56 38.67 95.33 40.67 98.93 C 48.26 103.48 54.84 109.61 62.85 113.48 C 62.93 114.10 63.08 115.34 63.15 115.96 C 63.74 123.23 64.19 130.56 63.70 137.85 C 58.05 141.75 51.38 143.89 45.55 147.54 C 45.77 149.58 46.00 151.62 46.24 153.67 C 48.12 154.83 49.90 156.20 51.98 157.00 C 53.58 156.72 55.03 155.91 56.50 155.26 C 69.29 149.06 82.23 143.20 95.04 137.04 C 90.94 134.11 86.85 131.16 82.80 128.15 C 79.95 129.44 77.11 130.88 73.96 131.30 C 75.39 129.07 77.92 128.19 80.10 126.91 C 75.22 122.96 69.47 120.20 64.57 116.33 C 64.38 115.71 64.33 115.06 64.42 114.41 C 71.59 118.90 78.50 123.80 85.98 127.77 C 94.78 134.11 104.57 138.78 114.04 143.97 C 118.63 146.25 122.33 149.93 127.05 151.98 C 132.48 155.83 137.50 160.73 144.06 162.58 C 152.68 163.10 160.11 158.07 167.55 154.46 C 169.54 153.56 171.24 152.16 172.61 150.47 C 170.62 150.55 168.63 150.68 166.64 150.84 C 166.76 149.57 166.88 148.30 167.01 147.03 L 167.16 148.47 C 169.34 148.19 171.78 148.93 173.85 147.98 C 176.21 146.47 178.00 144.25 179.87 142.20 C 179.84 137.41 180.51 132.37 178.35 127.91 C 175.85 122.17 171.47 114.90 164.08 116.44 C 161.55 120.02 159.89 124.26 156.52 127.20 C 157.67 121.86 161.05 117.53 165.04 113.96 C 164.87 114.49 164.54 115.55 164.38 116.07 L 166.34 116.18 C 166.25 114.64 166.17 113.11 166.10 111.58 C 166.66 112.56 167.21 113.56 167.75 114.56 C 170.62 115.27 173.27 116.59 175.77 118.15 C 178.02 122.75 181.88 126.66 182.67 131.90 C 182.65 137.53 182.07 143.84 177.70 147.92 L 178.99 148.10 C 177.72 148.54 176.46 149.00 175.20 149.47 C 175.11 155.02 168.94 156.16 165.10 158.47 C 159.31 161.80 152.88 163.65 146.51 165.50 C 146.52 171.34 146.64 177.20 146.33 183.04 C 151.64 180.96 156.54 177.75 162.01 176.18 C 164.62 177.34 166.91 179.08 169.38 180.49 C 170.18 183.90 170.38 187.40 170.52 190.89 C 155.76 198.54 140.45 205.07 125.53 212.40 C 121.63 215.25 117.60 211.05 114.76 208.58 C 114.45 205.49 112.22 200.74 116.03 199.07 C 121.29 196.16 126.92 193.97 132.08 190.89 C 132.77 185.96 131.82 181.00 131.85 176.06 C 131.63 170.37 132.02 164.60 131.11 158.97 C 128.91 156.39 125.72 155.04 122.94 153.23 C 116.52 148.74 109.17 145.82 102.80 141.23 C 100.69 140.14 98.47 137.50 95.94 138.96 C 81.24 145.75 66.65 152.79 51.93 159.56 C 49.43 157.99 46.75 156.63 44.57 154.61 C 43.30 151.94 43.80 148.86 43.69 146.00 C 49.71 143.00 55.73 140.01 61.68 136.89 C 61.78 129.43 61.56 121.97 61.26 114.52 C 55.36 112.27 50.43 108.43 45.88 104.14 C 45.18 109.68 44.65 115.29 44.73 120.87 C 46.28 126.19 48.23 131.74 46.55 137.32 C 43.19 138.33 39.63 139.48 36.11 138.51 C 30.42 136.84 25.33 133.71 20.15 130.90 C 17.33 129.66 16.94 126.06 17.50 123.41 C 20.86 118.74 27.36 120.62 31.85 117.84 C 32.32 116.56 32.79 115.28 33.26 114.00 C 32.10 107.40 30.30 100.81 30.69 94.05 C 30.68 87.65 31.36 81.28 31.26 74.88 C 32.30 72.11 34.07 68.78 37.37 68.46 C 40.29 68.02 43.14 69.15 46.04 69.26 C 50.57 69.54 55.69 70.04 58.88 73.68 C 59.36 73.71 60.31 73.76 60.78 73.79 C 60.86 70.81 60.64 67.81 61.04 64.85 C 63.82 58.29 73.76 57.86 78.45 62.46 C 79.49 55.97 80.97 48.74 86.65 44.63 C 90.03 42.70 94.61 41.54 98.09 43.89 C 103.40 47.50 105.76 53.82 106.98 59.86 C 112.48 56.11 118.39 53.03 124.05 49.53 C 124.16 46.41 127.09 44.96 129.28 43.30 C 132.83 41.20 137.05 40.63 141.04 39.76 C 142.73 40.31 144.14 41.64 145.95 41.81 C 147.73 41.44 149.31 40.48 150.94 39.72 C 152.11 37.31 153.70 35.16 155.18 32.93 C 159.86 32.03 164.61 30.89 169.39 31.80 C 169.41 32.55 169.45 34.06 169.47 34.81 C 171.87 34.00 174.25 32.36 176.90 32.96 C 182.31 33.96 187.77 34.56 193.25 34.96 C 192.93 27.56 194.18 19.66 198.58 13.52 M 201.74 12.65 C 195.49 18.20 194.96 26.96 194.06 34.69 C 197.47 33.65 200.81 32.30 204.32 31.64 C 205.02 32.64 205.58 33.73 206.20 34.80 C 205.76 35.83 205.33 36.87 204.91 37.91 C 201.54 38.90 198.16 39.94 195.07 41.63 C 196.58 46.47 197.99 51.78 201.98 55.25 C 204.12 57.52 207.33 57.31 210.05 56.38 C 210.51 52.08 214.11 48.57 213.22 44.06 C 213.62 45.24 214.07 46.40 214.41 47.61 C 214.90 46.74 215.07 45.59 216.04 45.10 C 214.88 49.38 213.08 53.47 210.20 56.88 C 212.39 56.07 214.73 55.17 216.04 53.09 C 220.84 46.15 221.13 37.20 220.32 29.09 C 219.31 21.73 216.39 13.14 208.53 10.70 C 206.35 11.62 204.06 12.23 201.74 12.65 M 148.01 42.84 C 146.88 43.79 145.75 44.74 144.62 45.67 C 149.10 45.88 154.38 45.13 157.84 42.16 L 157.21 41.15 C 154.06 41.02 151.08 42.34 148.01 42.84 M 87.11 46.45 C 80.73 51.91 80.26 60.66 79.27 68.38 C 82.71 67.06 86.22 65.91 89.84 65.17 C 90.52 67.04 91.66 68.96 90.92 71.00 C 87.49 72.96 83.54 73.78 79.73 74.63 C 79.84 75.11 80.05 76.06 80.16 76.54 L 80.76 76.35 C 81.82 80.69 83.55 85.05 86.71 88.30 C 88.74 90.79 91.97 91.10 94.88 90.25 C 95.32 88.93 95.73 87.60 96.32 86.34 C 101.00 77.11 101.04 65.90 97.73 56.23 C 96.56 52.26 93.47 49.38 91.54 45.82 C 93.09 46.34 94.85 46.81 95.75 48.33 C 99.89 53.97 101.28 61.14 101.65 68.00 C 101.84 75.50 100.78 83.43 96.32 89.70 C 100.96 89.08 103.18 84.53 104.42 80.55 C 106.83 72.20 106.60 63.05 103.76 54.84 C 102.26 50.03 98.37 46.18 93.75 44.30 C 91.51 44.94 89.35 45.83 87.11 46.45 M 148.57 49.08 C 147.38 51.63 145.52 53.68 143.52 55.62 C 143.31 62.12 143.19 68.63 142.65 75.12 C 143.59 80.31 142.81 85.48 142.21 90.65 C 143.33 92.00 144.61 93.21 145.76 94.54 C 147.43 95.40 149.31 96.08 150.40 97.73 C 153.21 96.67 156.16 96.16 159.17 96.43 C 161.23 91.03 158.70 85.06 161.71 79.91 C 159.91 75.53 157.94 70.76 159.18 65.95 C 160.48 60.95 160.69 55.77 160.49 50.63 C 158.43 49.19 156.29 47.88 154.15 46.57 C 152.31 47.45 150.38 48.14 148.57 49.08 M 107.37 61.85 C 107.45 62.70 107.53 63.55 107.61 64.40 C 114.49 59.77 122.17 56.47 128.91 51.65 C 127.94 51.53 125.99 51.29 125.01 51.17 C 119.16 54.78 113.38 58.52 107.37 61.85 M 107.80 66.64 C 107.88 71.61 107.48 76.61 106.10 81.40 C 108.03 82.27 109.95 83.17 111.88 84.06 C 111.74 84.67 111.48 85.90 111.35 86.52 C 114.14 87.43 116.82 88.71 118.98 90.73 C 120.66 90.73 122.34 90.72 124.02 90.70 C 123.87 86.38 122.83 81.82 124.65 77.69 C 126.92 72.54 130.19 67.66 131.00 61.98 C 130.26 59.64 129.06 57.48 128.08 55.23 C 121.18 58.78 114.47 62.68 107.80 66.64 M 64.37 63.13 C 64.16 63.83 63.72 65.23 63.51 65.93 C 65.57 67.39 67.32 69.78 70.09 69.72 C 72.89 70.09 75.65 69.35 78.36 68.76 C 78.40 66.94 78.45 65.11 78.56 63.28 C 73.91 62.18 68.76 60.04 64.37 63.13 M 63.39 67.28 C 63.27 69.85 62.93 72.40 62.43 74.91 C 63.20 75.52 64.73 76.73 65.49 77.34 C 65.63 76.06 65.91 73.51 66.05 72.23 L 65.08 71.78 C 66.28 72.12 68.63 71.21 69.00 72.90 C 68.85 73.44 68.56 74.52 68.41 75.06 L 66.52 74.43 C 67.73 76.09 69.00 75.81 70.13 74.36 L 70.41 75.88 C 76.96 72.97 84.08 71.70 90.66 68.90 C 90.09 68.65 88.94 68.15 88.37 67.90 C 82.06 69.22 76.09 71.83 69.73 72.95 C 69.73 72.41 69.72 71.32 69.72 70.78 C 68.75 70.90 66.81 71.14 65.84 71.27 C 65.02 69.94 64.18 68.62 63.39 67.28 M 37.86 70.80 C 37.32 71.00 36.24 71.41 35.70 71.61 C 34.91 72.76 34.02 73.83 33.38 75.08 C 32.63 84.64 31.41 94.33 33.09 103.86 C 33.34 103.40 33.84 102.46 34.09 101.99 C 34.12 97.12 34.55 92.27 35.55 87.50 C 36.05 87.50 37.04 87.49 37.53 87.48 C 37.01 91.97 35.86 96.45 36.49 100.99 C 36.68 105.82 38.53 110.39 38.73 115.22 C 36.77 111.91 35.67 108.23 34.98 104.48 C 34.45 104.47 33.91 104.49 33.38 104.54 C 34.06 109.16 35.16 113.83 34.67 118.52 C 29.68 121.80 23.56 122.00 17.97 123.56 C 19.08 127.23 21.77 130.06 25.36 131.35 C 31.58 133.56 37.91 138.28 44.76 135.58 C 45.58 128.57 43.30 121.82 42.75 114.89 C 42.43 111.14 43.59 107.44 43.31 103.69 C 41.91 102.32 40.16 101.38 38.70 100.09 C 38.37 97.39 37.98 93.41 41.06 92.15 C 42.93 91.57 45.09 89.27 46.97 91.20 C 47.47 90.86 47.98 90.53 48.48 90.19 C 46.63 88.88 45.07 87.18 43.13 85.99 C 41.36 85.47 38.47 86.48 38.25 83.84 C 40.20 83.74 42.20 83.40 44.14 83.80 C 45.83 85.13 47.15 86.86 48.89 88.14 C 50.86 89.71 53.58 90.56 54.53 93.13 C 53.67 92.79 51.96 92.09 51.10 91.75 C 50.54 92.11 49.98 92.48 49.43 92.86 C 51.90 94.73 54.31 96.66 56.82 98.46 C 56.96 95.15 56.76 91.56 58.69 88.67 C 60.66 85.02 64.30 82.82 67.89 81.02 C 67.80 80.41 67.61 79.20 67.52 78.59 C 59.92 78.09 54.47 71.35 47.04 70.10 C 43.97 70.20 40.95 70.99 37.86 70.80 M 68.74 78.02 C 68.61 78.70 68.33 80.06 68.19 80.74 C 72.70 80.08 78.13 79.67 81.36 83.63 C 80.27 80.87 79.56 77.96 78.23 75.30 C 75.20 76.63 71.99 77.44 68.74 78.02 M 66.47 83.30 C 62.41 85.78 60.40 90.40 59.81 94.95 C 59.59 98.35 61.21 101.48 61.90 104.74 C 65.15 106.29 68.45 107.76 71.99 108.52 C 80.12 111.72 87.54 118.07 96.84 116.84 C 95.17 115.07 92.30 113.82 92.16 111.08 C 92.14 108.15 92.53 105.18 93.41 102.38 C 95.11 98.58 99.05 96.67 102.15 94.20 C 105.11 91.79 109.47 91.83 111.81 88.56 C 111.46 87.80 110.74 86.27 110.38 85.51 C 108.77 84.71 107.16 83.91 105.57 83.08 C 104.08 86.78 101.55 89.89 98.48 92.40 C 96.12 92.52 93.78 92.85 91.48 93.40 C 90.43 92.91 89.37 92.42 88.23 92.20 C 85.29 90.39 83.39 87.47 81.55 84.65 C 76.87 82.96 71.10 79.96 66.47 83.30 M 174.99 85.94 C 174.96 88.35 173.16 92.59 176.85 93.23 C 176.64 90.71 175.94 88.28 174.99 85.94 M 133.90 161.01 C 134.00 171.34 134.76 181.66 134.42 191.99 C 128.40 195.17 122.35 198.29 116.19 201.19 C 116.16 203.19 116.07 205.20 116.26 207.20 C 118.01 208.97 120.23 210.17 122.27 211.59 C 137.65 204.54 152.89 197.19 168.23 190.05 C 168.15 187.63 168.04 185.22 167.93 182.81 C 165.67 181.32 163.40 179.87 161.10 178.46 C 156.10 180.76 151.04 182.94 146.10 185.40 C 146.17 188.35 147.78 191.98 144.91 194.07 C 142.63 184.66 144.79 174.97 145.47 165.51 C 141.84 163.47 137.76 162.49 133.90 161.01 Z" />
<path fill="#333333" opacity="1.00" d=" M 207.26 13.82 C 205.41 12.05 208.97 12.15 209.46 13.39 C 216.64 21.28 216.60 32.65 216.49 42.67 C 215.93 42.95 214.81 43.51 214.25 43.79 C 215.71 33.46 214.54 21.86 207.26 13.82 Z" />
<path fill="#333333" opacity="1.00" d=" M 35.34 75.70 C 37.37 75.14 39.39 74.54 41.36 73.79 C 41.49 74.37 41.76 75.54 41.89 76.12 C 39.92 76.71 37.90 77.07 35.87 77.34 C 35.74 76.93 35.47 76.11 35.34 75.70 Z" />
<path fill="#333333" opacity="1.00" d=" M 131.62 76.78 C 132.13 76.72 133.16 76.61 133.67 76.55 C 133.07 79.87 132.06 83.12 130.67 86.19 C 130.63 83.03 131.08 79.89 131.62 76.78 Z" />
<path fill="#333333" opacity="1.00" d=" M 44.82 79.41 C 48.32 78.40 53.13 79.45 54.60 83.17 C 51.35 81.93 47.62 81.59 44.82 79.41 Z" />
<path fill="#333333" opacity="1.00" d=" M 128.63 92.88 C 131.51 88.78 135.06 85.00 136.32 79.99 C 135.68 83.07 135.98 86.55 134.12 89.23 C 132.55 90.79 130.50 91.75 128.63 92.88 Z" />
<path fill="#333333" opacity="1.00" d=" M 74.17 97.25 C 75.00 93.60 76.84 90.00 80.43 88.38 C 79.02 91.63 77.59 95.65 74.17 97.25 Z" />
<path fill="#333333" opacity="1.00" d=" M 86.45 96.31 C 87.19 94.96 87.87 93.54 89.03 92.48 C 89.80 94.11 90.12 95.89 90.68 97.60 C 92.10 96.81 93.32 97.02 94.33 98.24 C 89.96 99.47 85.84 101.35 81.71 103.19 C 82.16 100.11 85.46 99.35 87.85 98.27 C 87.99 97.82 88.25 96.92 88.39 96.47 L 86.45 96.31 Z" />
<path fill="#333333" opacity="1.00" d=" M 106.58 96.10 C 107.90 94.31 109.98 95.09 111.71 95.36 C 114.71 96.03 117.70 96.75 120.77 96.97 L 120.72 99.17 C 115.98 98.29 111.23 97.39 106.58 96.10 Z" />
<path fill="#333333" opacity="1.00" d=" M 127.65 106.06 C 127.99 102.66 128.42 99.26 128.65 95.85 C 129.30 98.21 130.38 100.56 130.12 103.07 C 130.14 107.12 126.99 110.02 125.03 113.25 C 124.60 113.25 123.74 113.27 123.31 113.28 C 124.35 110.65 125.86 108.25 127.65 106.06 Z" />
<path fill="#333333" opacity="1.00" d=" M 109.79 103.01 C 109.56 100.86 111.30 97.22 113.85 99.13 C 114.05 101.18 111.00 101.70 109.79 103.01 Z" />
<path fill="#333333" opacity="1.00" d=" M 100.47 101.73 C 102.38 102.43 104.59 102.98 105.49 105.05 C 103.33 104.69 100.34 104.78 100.47 101.73 Z" />
<path fill="#333333" opacity="1.00" d=" M 130.88 112.49 C 131.31 109.51 131.73 106.52 132.27 103.56 C 132.44 106.20 132.48 108.86 132.83 111.49 C 132.34 113.64 131.80 115.78 131.19 117.90 C 129.94 118.69 128.86 119.71 127.86 120.78 C 127.63 120.26 127.39 119.73 127.16 119.21 C 129.85 118.06 130.00 114.89 130.88 112.49 Z" />
<path fill="#333333" opacity="1.00" d=" M 147.00 120.76 C 148.68 118.88 150.97 117.85 153.30 117.04 C 153.97 117.54 154.63 118.04 155.30 118.54 L 155.99 116.76 C 155.98 117.39 155.97 118.67 155.97 119.31 C 155.28 119.08 153.91 118.63 153.22 118.41 C 151.84 119.67 149.83 120.49 149.26 122.42 C 147.95 124.82 148.03 128.50 144.96 129.47 C 145.49 126.53 146.53 123.71 147.00 120.76 Z" />
<path fill="#333333" opacity="1.00" d=" M 40.13 119.81 C 40.82 119.77 41.52 119.74 42.21 119.70 C 41.92 122.86 41.77 126.03 41.30 129.17 C 40.43 127.86 39.69 126.48 38.82 125.17 C 36.90 123.90 35.66 126.94 34.06 127.61 C 33.08 126.89 32.11 126.19 31.14 125.48 C 33.80 124.81 36.51 124.25 39.00 123.04 C 39.66 122.11 40.04 121.04 40.13 119.81 Z" />
<path fill="#333333" opacity="1.00" d=" M 123.34 128.48 C 123.87 126.27 124.68 124.01 127.25 123.65 C 126.69 125.79 125.32 127.48 123.34 128.48 Z" />
<path fill="#333333" opacity="1.00" d=" M 130.15 144.56 C 138.88 146.39 146.33 153.38 155.74 151.74 C 155.61 152.17 155.35 153.02 155.22 153.45 C 151.86 154.33 148.25 154.52 145.03 153.01 C 139.82 150.76 133.69 149.38 130.15 144.56 Z" />
</g>
</svg>
