<?xml version="1.0" encoding="UTF-8" ?>
<!DOCTYPE svg PUBLIC "-//W3C//DTD SVG 1.1//EN" "http://www.w3.org/Graphics/SVG/1.1/DTD/svg11.dtd">
<svg width="241pt" height="225pt" viewBox="0 0 241 225" version="1.1" xmlns="http://www.w3.org/2000/svg"><g id="#4e4e4eff">
<path fill="#333333" opacity="1.00" d=" M 147.08 23.55 C 150.47 22.54 154.18 22.35 157.21 20.35 C 165.03 21.74 172.07 25.86 179.45 28.67 C 181.82 27.34 183.57 25.25 185.73 23.66 C 188.39 22.71 190.95 24.17 193.18 25.49 C 190.84 25.00 188.39 24.28 186.06 25.24 C 183.10 26.94 181.39 29.98 179.89 32.92 C 175.17 40.39 165.62 42.53 160.43 49.54 C 157.52 53.36 156.66 58.37 153.53 62.07 C 154.12 57.71 156.17 53.78 157.73 49.73 C 158.38 49.24 159.68 48.27 160.32 47.79 C 157.67 46.46 155.00 45.18 152.34 43.86 C 152.08 50.36 151.25 56.91 152.46 63.37 C 147.33 67.25 141.34 69.39 135.60 72.12 C 138.21 73.93 140.61 76.22 140.47 79.67 C 142.28 79.51 144.10 79.34 145.91 79.15 C 147.15 80.39 148.41 81.60 149.69 82.79 C 152.03 80.40 155.09 78.98 157.79 77.07 C 161.31 76.30 164.64 74.91 168.11 73.99 C 165.29 76.35 162.07 78.57 158.28 78.86 C 158.07 79.19 157.66 79.85 157.46 80.18 C 156.00 80.81 154.49 81.36 153.13 82.19 C 151.60 83.11 152.13 85.89 150.09 86.23 C 147.29 84.30 144.68 81.43 141.03 81.38 C 137.82 81.73 134.54 82.91 131.34 81.85 C 128.89 81.56 127.18 79.65 125.24 78.36 C 125.71 78.19 126.66 77.86 127.13 77.69 C 128.60 78.71 130.07 79.72 131.52 80.77 C 133.85 80.46 136.17 80.10 138.48 79.68 C 137.84 77.11 136.28 74.03 133.09 74.56 C 127.85 73.91 123.15 76.63 118.07 77.22 C 113.04 78.00 108.43 82.14 108.82 87.57 C 108.39 87.42 107.54 87.14 107.12 86.99 C 106.02 88.14 104.89 89.27 103.76 90.39 C 108.42 92.13 113.67 92.98 117.41 96.53 C 120.21 99.32 123.81 101.80 124.80 105.87 C 125.72 110.05 125.84 114.39 125.34 118.63 C 127.02 117.96 128.71 117.32 130.41 116.69 C 131.91 116.64 133.75 117.18 134.83 115.80 C 138.36 112.23 142.78 109.81 147.09 107.32 C 149.98 105.84 151.77 103.00 154.24 100.99 C 154.26 101.70 154.30 103.13 154.33 103.84 C 150.62 109.25 144.21 111.31 138.92 114.70 C 135.44 120.57 127.81 119.58 122.09 121.07 C 119.05 122.63 117.13 125.65 115.14 128.32 C 113.66 131.25 112.72 134.53 110.30 136.90 C 111.19 143.59 107.90 149.73 106.62 156.12 C 105.64 160.74 103.93 165.25 103.80 170.03 C 103.88 172.39 102.84 174.59 101.61 176.55 C 99.99 178.48 97.28 178.37 95.06 179.03 C 90.58 180.31 86.24 182.04 81.82 183.53 C 78.96 183.68 76.15 182.93 73.35 182.43 C 71.97 181.02 70.61 179.61 69.21 178.22 C 70.49 175.30 73.09 173.38 75.09 171.01 C 77.01 168.08 79.48 165.12 82.98 164.11 C 85.82 163.55 88.75 163.88 91.61 164.10 C 91.59 163.39 91.54 161.98 91.51 161.27 C 93.31 157.78 92.43 153.83 92.17 150.12 C 91.82 149.98 91.11 149.69 90.75 149.54 C 89.89 153.05 85.64 152.34 82.91 152.32 C 79.09 152.47 76.77 149.23 74.05 147.14 C 69.95 147.14 65.91 145.99 63.35 142.60 C 61.40 144.55 59.16 146.16 57.08 147.96 C 55.14 150.12 54.36 153.22 52.03 155.06 C 47.09 157.31 42.11 154.35 37.78 152.11 C 34.60 150.09 31.49 147.88 28.75 145.29 C 26.94 142.17 25.20 138.45 26.31 134.77 C 27.03 131.06 29.47 128.07 31.12 124.76 C 32.62 121.04 36.76 119.71 40.08 118.11 C 45.63 117.31 50.31 121.30 54.54 124.33 C 54.86 123.98 55.49 123.29 55.81 122.94 C 54.71 121.45 53.35 120.00 53.00 118.11 C 52.99 113.93 55.52 110.47 57.16 106.80 C 56.99 103.61 55.74 99.75 58.21 97.09 C 60.01 95.20 61.61 93.16 62.89 90.89 C 64.42 88.16 68.56 88.30 70.37 90.65 C 72.83 92.66 73.35 95.89 74.48 98.68 C 73.75 100.10 73.04 101.54 72.35 102.99 C 76.44 101.68 79.82 98.86 83.92 97.56 C 87.43 96.08 91.34 95.75 94.71 93.91 C 98.80 91.91 102.29 88.85 105.41 85.59 C 107.69 81.46 110.81 77.29 115.54 75.91 C 122.97 75.26 129.42 70.55 136.99 70.61 C 139.65 68.97 142.39 67.47 145.27 66.24 C 144.50 57.51 145.11 48.72 144.91 39.96 C 140.46 38.79 136.36 36.67 132.25 34.65 C 129.33 33.37 129.31 27.56 133.01 27.29 C 137.67 25.95 142.42 24.92 147.08 23.55 M 154.09 24.27 C 146.69 25.74 139.49 27.99 132.17 29.79 C 132.49 30.98 132.28 32.63 133.78 33.02 C 137.86 35.10 141.99 37.10 146.30 38.67 C 151.01 41.51 156.14 43.53 161.11 45.86 C 162.39 44.25 163.96 42.89 165.80 41.97 C 170.99 39.24 175.51 35.29 179.08 30.66 C 172.13 27.82 165.34 24.45 158.08 22.47 C 156.81 23.19 155.58 24.08 154.09 24.27 M 146.46 41.08 C 147.63 49.03 146.84 57.09 147.08 65.10 C 148.27 64.49 149.46 63.88 150.66 63.28 C 151.29 56.77 149.74 49.99 151.62 43.67 C 149.88 42.84 148.16 41.97 146.46 41.08 M 59.68 98.56 C 58.14 103.12 58.69 108.18 56.65 112.61 C 55.64 114.84 54.98 117.19 54.79 119.63 C 56.53 116.99 59.08 115.15 61.72 113.51 C 63.75 114.49 67.74 114.04 67.24 117.22 C 65.09 117.21 63.12 116.16 60.98 115.98 C 58.49 117.28 56.89 120.10 57.17 122.92 C 57.69 125.01 54.92 127.43 53.59 124.87 C 50.09 124.98 48.22 121.34 44.97 120.61 C 40.71 118.84 36.19 121.18 33.25 124.24 C 30.58 127.65 29.37 131.93 28.10 136.00 C 27.70 140.88 30.92 145.71 35.38 147.63 C 39.41 149.44 42.69 152.76 47.04 153.80 C 48.85 153.65 50.69 153.20 52.30 152.33 C 54.00 150.78 54.79 148.50 55.59 146.40 C 56.72 143.43 55.17 140.41 54.74 137.48 C 57.47 139.11 57.57 142.50 58.00 145.30 C 59.62 143.71 61.15 141.98 63.08 140.76 C 64.72 140.53 65.67 142.37 66.97 143.08 C 69.25 145.12 72.45 144.85 75.28 145.14 C 75.43 145.50 75.73 146.24 75.88 146.61 C 77.29 147.70 78.60 148.94 80.09 149.92 C 83.85 151.74 88.24 150.35 91.55 148.21 C 89.82 144.64 89.88 140.56 88.35 136.91 C 86.87 133.94 89.12 131.06 90.99 128.92 C 90.64 134.48 91.24 140.02 92.26 145.48 C 93.12 147.69 93.79 149.96 94.58 152.20 C 94.55 156.11 94.60 160.11 92.97 163.76 C 95.68 165.64 97.12 168.60 98.12 171.64 C 97.65 171.48 96.70 171.17 96.23 171.01 C 95.24 169.14 94.51 167.04 92.88 165.60 C 88.53 165.43 83.34 164.58 79.85 167.83 C 78.16 169.49 77.42 171.92 75.56 173.44 C 73.64 175.03 71.74 176.73 70.86 179.15 C 75.01 180.47 79.48 182.03 83.82 180.60 C 88.74 179.88 92.91 176.87 97.82 176.19 C 101.64 176.16 102.12 171.61 102.42 168.72 C 103.45 167.61 101.84 165.48 100.73 166.67 L 100.06 167.15 C 98.32 165.01 99.41 162.24 100.07 159.91 C 100.66 158.14 100.93 155.81 103.27 155.59 C 102.93 158.41 101.83 161.12 101.90 163.98 C 102.13 164.43 102.61 165.32 102.84 165.76 C 103.36 162.83 104.27 159.98 104.66 157.03 C 105.29 150.31 109.19 144.11 108.41 137.21 C 107.44 133.55 106.51 129.85 106.47 126.03 C 106.63 123.80 105.41 121.16 102.94 120.90 C 96.47 118.87 92.12 125.38 86.46 127.15 C 85.69 126.41 84.92 125.69 84.15 124.97 C 83.17 124.98 81.22 125.00 80.24 125.01 C 82.30 123.05 85.14 124.17 87.46 124.89 C 88.43 121.71 85.71 118.20 89.22 115.84 C 85.80 116.71 82.46 117.91 79.47 119.82 C 79.62 120.57 79.91 122.07 80.06 122.82 C 78.78 124.06 77.47 125.28 75.98 126.26 C 76.47 125.23 76.99 124.22 77.53 123.22 C 77.71 121.38 77.92 119.56 78.18 117.73 C 82.67 115.47 87.72 114.92 92.25 112.89 C 92.19 113.64 92.08 115.13 92.03 115.88 C 89.54 117.47 89.41 120.34 89.32 123.01 C 91.63 121.75 93.84 120.26 96.32 119.33 C 100.34 118.11 104.66 118.73 108.26 120.87 C 108.51 125.40 107.38 130.30 110.17 134.28 C 110.84 133.16 111.50 132.03 112.14 130.89 C 113.57 124.83 119.08 120.70 123.73 116.94 C 124.24 112.34 123.07 107.78 121.96 103.36 C 118.23 101.39 115.51 98.15 112.78 95.04 C 110.55 94.97 108.54 94.12 106.89 92.62 C 105.57 92.30 104.25 91.97 102.94 91.63 C 100.59 93.01 98.41 94.67 96.16 96.21 C 92.82 98.51 88.58 98.32 84.88 99.70 C 81.21 100.74 78.13 103.10 74.64 104.54 C 72.53 105.06 70.31 104.12 68.17 104.57 C 66.15 105.61 64.59 107.30 63.24 109.09 C 65.06 112.11 68.45 108.53 69.92 106.81 C 73.89 105.61 78.04 105.90 82.13 105.72 C 80.39 106.66 78.63 107.56 76.86 108.43 C 72.15 106.11 68.91 111.21 64.72 112.43 C 63.70 110.76 62.81 109.02 61.99 107.26 C 63.56 105.55 65.06 103.50 67.42 102.87 C 69.43 102.13 72.19 102.25 73.14 99.93 C 71.89 96.18 70.53 92.09 67.10 89.74 C 63.64 91.73 61.86 95.39 59.68 98.56 Z" />
<path fill="#333333" opacity="1.00" d=" M 194.35 26.43 C 195.52 26.13 196.68 25.83 197.85 25.54 C 201.22 27.09 205.16 28.22 207.32 31.50 C 210.13 35.92 212.90 40.56 216.96 43.94 C 224.85 47.71 233.13 50.64 241.00 54.48 L 241.00 56.45 C 233.25 53.39 225.66 49.96 217.97 46.76 C 218.98 49.87 220.10 53.16 218.87 56.40 C 216.01 57.61 213.17 59.44 209.92 59.02 C 203.13 58.74 197.14 55.14 191.83 51.21 C 190.05 53.33 188.36 55.54 186.89 57.90 C 199.93 63.79 212.66 70.48 226.14 75.33 C 229.50 74.81 232.73 73.60 236.06 72.90 C 234.64 74.70 232.68 76.43 233.13 78.98 C 233.22 90.80 233.51 102.61 233.13 114.43 C 233.59 114.62 234.51 115.01 234.97 115.20 C 234.26 115.26 232.84 115.36 232.13 115.42 C 229.58 117.45 226.88 119.27 224.14 121.02 C 224.27 121.67 224.53 122.97 224.66 123.61 C 224.35 123.22 223.72 122.44 223.41 122.05 C 221.73 123.79 221.78 126.90 224.22 127.95 C 226.36 127.49 228.05 126.01 229.77 124.75 C 233.37 121.88 237.44 119.68 241.00 116.76 L 241.00 120.03 C 236.07 123.90 230.64 127.10 225.98 131.32 C 224.18 130.25 222.37 129.20 220.57 128.13 C 220.97 125.56 219.85 122.14 222.29 120.35 C 224.99 117.94 228.35 116.41 231.02 113.97 C 231.97 101.36 231.48 88.66 231.23 76.02 C 230.07 76.70 228.91 77.40 227.76 78.10 C 225.74 77.76 223.71 77.37 221.86 76.46 C 211.70 71.49 201.33 66.94 191.15 62.00 C 189.49 61.30 187.85 60.32 186.02 60.22 C 183.54 62.42 182.08 65.51 179.99 68.04 C 177.41 71.14 176.73 75.23 174.83 78.70 C 173.56 84.33 167.40 86.16 164.92 91.03 C 162.76 94.82 159.74 97.99 156.99 101.35 C 156.42 100.91 155.86 100.47 155.30 100.04 C 157.75 97.14 160.36 94.37 163.37 92.06 C 164.70 87.51 166.20 83.01 167.56 78.47 C 167.88 80.39 168.16 82.32 168.45 84.25 C 170.14 82.22 171.86 80.21 173.55 78.18 C 173.77 69.94 181.24 64.74 184.01 57.45 C 184.31 57.19 184.92 56.66 185.23 56.40 C 187.23 53.30 189.36 50.28 191.54 47.31 C 192.65 45.86 194.69 44.42 196.49 45.65 C 199.34 47.05 202.29 48.26 205.34 49.16 C 205.22 51.67 202.78 55.05 205.18 56.88 C 208.85 57.65 212.61 57.06 216.27 56.52 C 216.70 55.89 217.55 54.62 217.98 53.98 C 216.81 49.05 213.73 44.97 211.40 40.57 C 209.60 37.45 207.69 34.36 205.23 31.72 C 202.79 29.01 199.18 27.96 195.99 26.46 C 192.98 29.81 190.59 33.63 188.67 37.70 C 189.04 38.35 189.42 39.00 189.79 39.65 C 191.22 38.85 192.67 38.09 194.14 37.39 C 192.53 39.01 190.84 40.54 189.12 42.04 C 187.81 42.72 186.51 43.43 185.23 44.15 C 185.01 44.14 184.58 44.12 184.36 44.11 C 185.85 43.22 187.32 42.31 188.79 41.37 C 188.17 40.68 187.56 39.99 186.94 39.30 C 182.72 42.29 177.89 44.47 174.09 48.02 C 171.59 50.93 169.21 54.05 167.72 57.61 C 165.36 64.05 160.59 69.89 154.21 72.66 C 150.26 74.50 146.58 77.37 142.16 77.91 C 142.09 77.68 141.95 77.23 141.88 77.01 C 145.47 73.78 150.08 72.15 154.49 70.37 C 157.75 68.65 160.03 65.62 162.98 63.45 C 164.89 57.70 167.74 52.27 171.30 47.38 C 175.54 43.41 181.04 41.15 185.52 37.51 C 188.62 33.94 191.17 29.93 194.35 26.43 M 195.67 47.15 C 195.28 47.70 194.51 48.80 194.12 49.35 C 196.47 51.60 198.70 53.97 201.13 56.14 C 201.49 54.34 202.30 52.71 203.29 51.18 C 200.81 49.78 198.70 47.25 195.67 47.15 Z" />
<path fill="#333333" opacity="1.00" d=" M 177.13 58.20 C 179.72 55.25 180.94 51.44 182.89 48.09 C 180.85 53.91 178.65 60.17 173.24 63.73 C 174.19 61.65 175.64 59.89 177.13 58.20 Z" />
<path fill="#333333" opacity="1.00" d=" M 158.16 60.07 C 158.85 56.84 159.90 53.48 162.82 51.58 C 163.04 55.16 160.69 57.89 158.16 60.07 Z" />
<path fill="#333333" opacity="1.00" d=" M 174.98 67.39 C 175.97 63.67 178.70 60.86 181.05 57.95 C 181.20 61.93 177.79 64.99 174.98 67.39 Z" />
<path fill="#333333" opacity="1.00" d=" M 153.19 69.33 C 155.50 66.86 157.37 63.93 159.81 61.65 C 161.67 61.79 159.92 63.65 159.86 64.57 C 159.09 67.60 155.52 68.00 153.19 69.33 Z" />
<path fill="#333333" opacity="1.00" d=" M 169.83 66.07 C 172.25 70.47 166.03 72.76 162.75 73.75 C 165.81 71.91 168.15 69.21 169.83 66.07 Z" />
<path fill="#333333" opacity="1.00" d=" M 237.31 73.17 C 237.61 73.19 238.20 73.22 238.50 73.23 C 238.34 85.42 238.25 97.61 238.70 109.79 C 240.13 107.31 240.69 104.47 241.00 101.66 L 241.00 109.45 C 239.77 110.81 238.49 112.14 237.20 113.44 C 237.40 100.02 237.20 86.59 237.31 73.17 Z" />
<path fill="#333333" opacity="1.00" d=" M 156.96 91.34 C 158.18 90.11 159.35 88.85 160.64 87.69 C 159.64 90.03 158.51 92.50 156.16 93.76 C 155.69 96.05 155.19 98.38 153.78 100.30 C 153.56 96.57 153.63 92.82 153.86 89.09 C 154.89 89.83 155.94 90.58 156.96 91.34 Z" />
<path fill="#333333" opacity="1.00" d=" M 94.47 101.52 C 95.27 98.54 98.08 97.01 100.43 95.40 C 100.95 98.89 97.00 100.36 94.47 101.52 Z" />
<path fill="#333333" opacity="1.00" d=" M 95.11 103.11 C 99.18 100.46 102.99 97.35 107.48 95.39 C 107.39 96.86 106.75 97.93 105.55 98.61 C 102.12 100.66 98.85 102.95 95.60 105.26 C 95.65 107.79 94.73 110.21 92.89 111.98 C 92.86 109.82 93.18 107.72 93.86 105.66 C 87.49 108.34 81.52 111.78 75.61 115.33 C 75.17 115.20 74.31 114.95 73.88 114.83 C 80.37 109.96 87.68 106.30 95.11 103.11 Z" />
<path fill="#333333" opacity="1.00" d=" M 99.91 106.86 C 105.91 106.09 110.70 102.18 115.28 98.57 C 115.74 101.31 113.20 102.76 111.46 104.31 C 108.84 106.80 104.90 105.89 101.82 107.39 C 101.18 107.21 100.55 107.04 99.91 106.86 Z" />
<path fill="#333333" opacity="1.00" d=" M 82.66 104.23 C 85.10 103.76 87.56 103.48 90.03 103.20 L 90.19 105.02 C 87.68 105.04 84.66 106.41 82.66 104.23 Z" />
<path fill="#333333" opacity="1.00" d=" M 114.44 108.25 C 114.79 108.82 115.16 109.38 115.54 109.94 C 112.91 111.48 110.40 113.20 107.84 114.85 C 109.58 112.23 112.00 110.19 114.44 108.25 Z" />
<path fill="#333333" opacity="1.00" d=" M 65.48 123.42 C 67.95 120.11 71.23 117.27 75.30 116.19 C 74.14 116.88 72.92 117.44 71.74 118.06 C 70.72 119.94 69.26 121.49 67.82 123.04 C 65.75 125.26 64.81 128.22 63.21 130.75 C 63.12 130.09 62.94 128.78 62.84 128.13 C 61.01 129.01 59.16 129.87 57.15 130.28 C 59.05 126.97 63.48 126.64 65.48 123.42 Z" />
<path fill="#333333" opacity="1.00" d=" M 101.29 125.65 C 103.47 127.14 103.52 129.76 103.66 132.15 C 99.02 135.94 98.42 142.78 93.67 146.56 C 93.54 143.92 95.58 142.00 96.55 139.72 C 97.77 136.97 99.39 134.42 100.63 131.68 C 101.04 129.69 101.01 127.65 101.29 125.65 Z" />
<path fill="#333333" opacity="1.00" d=" M 75.15 132.84 C 75.09 130.59 73.08 127.73 75.22 125.91 C 76.70 128.49 77.80 131.26 79.38 133.79 C 79.33 135.01 79.27 136.23 79.19 137.45 C 77.84 135.92 76.54 134.35 75.15 132.84 Z" />
<path fill="#333333" opacity="1.00" d=" M 46.05 134.99 C 47.07 131.87 51.05 130.52 53.67 132.53 C 51.20 133.52 48.67 134.44 46.05 134.99 Z" />
<path fill="#333333" opacity="1.00" d=" M 59.43 133.14 C 60.89 132.90 62.57 131.93 63.96 133.00 C 65.66 134.29 66.64 136.30 68.34 137.58 C 71.24 139.18 74.37 140.29 77.33 141.77 C 73.68 142.71 69.61 141.59 67.02 138.81 C 64.80 136.49 62.45 134.34 59.43 133.14 Z" />
<path fill="#333333" opacity="1.00" d=" M 77.29 143.71 C 78.14 140.63 79.06 136.63 82.80 136.05 C 81.42 138.71 79.79 141.23 78.45 143.92 C 78.16 143.86 77.58 143.76 77.29 143.71 Z" />
<path fill="#333333" opacity="1.00" d=" M 98.52 152.10 C 102.05 147.97 101.23 141.90 104.45 137.77 C 104.12 140.54 103.50 143.26 102.91 145.99 C 101.90 148.68 100.76 151.33 99.49 153.90 C 99.25 153.45 98.76 152.55 98.52 152.10 Z" />
</g>
</svg>
