<?xml version="1.0" encoding="UTF-8" ?>
<!DOCTYPE svg PUBLIC "-//W3C//DTD SVG 1.1//EN" "http://www.w3.org/Graphics/SVG/1.1/DTD/svg11.dtd">
<svg width="194pt" height="300pt" viewBox="0 0 194 300" version="1.1" xmlns="http://www.w3.org/2000/svg"><g id="#4f514eff">
<path fill="#333333" opacity="1.00" d=" M 105.58 122.76 C 110.76 122.48 117.34 123.39 119.50 128.89 C 122.27 135.47 121.58 143.14 120.21 149.99 C 118.83 150.96 117.46 151.94 116.09 152.92 C 119.69 153.27 122.85 155.34 124.08 158.81 C 126.01 162.46 124.38 166.87 126.35 170.49 C 127.76 173.45 128.04 176.73 128.71 179.89 C 130.20 184.07 134.34 186.76 135.56 191.10 C 136.27 194.06 137.08 197.00 138.02 199.91 C 139.25 203.73 138.75 207.93 140.44 211.62 C 141.86 214.65 143.88 217.44 144.37 220.83 L 143.86 221.09 C 140.69 219.61 140.51 214.87 138.92 211.91 C 137.60 205.23 135.55 198.74 134.09 192.09 C 133.48 190.01 132.00 188.34 130.96 186.47 C 130.44 187.04 129.92 187.60 129.41 188.18 C 129.71 190.57 129.96 192.98 130.18 195.38 C 127.52 194.11 124.98 192.62 122.51 191.00 C 122.35 192.72 122.06 194.46 121.07 195.92 C 119.63 190.71 116.64 186.17 114.68 181.17 C 112.34 180.89 109.53 182.20 107.68 180.28 C 111.02 179.94 114.53 179.35 116.41 176.21 C 116.71 172.89 117.92 169.47 120.79 167.53 C 122.67 169.70 124.16 172.15 125.51 174.67 C 125.04 175.35 124.56 176.02 124.09 176.69 C 123.23 174.11 122.17 171.54 119.98 169.80 C 117.99 172.58 118.15 175.91 118.19 179.15 C 117.69 179.35 116.70 179.75 116.20 179.95 C 117.67 183.16 119.19 186.36 120.89 189.46 C 123.47 189.17 125.45 191.01 127.58 192.12 C 128.53 190.29 129.10 188.31 128.41 186.28 C 128.67 185.86 128.93 185.44 129.19 185.02 C 128.34 183.21 127.72 181.31 127.17 179.39 C 126.28 179.52 125.39 179.64 124.50 179.77 C 124.87 178.49 125.31 177.25 125.83 176.03 L 127.06 179.12 C 127.06 176.02 126.17 173.06 124.78 170.32 C 122.99 167.21 124.53 163.43 123.10 160.21 C 121.69 156.32 117.73 153.64 113.66 153.37 C 114.24 154.05 115.39 155.40 115.97 156.08 C 114.58 155.42 113.30 153.80 111.62 154.37 C 109.29 155.04 107.24 156.42 104.99 157.30 C 105.94 155.69 107.03 154.16 108.15 152.66 C 105.21 151.00 100.32 149.30 101.32 145.03 C 104.33 147.48 106.91 151.00 111.07 151.42 C 113.19 151.65 115.74 152.02 117.58 150.76 C 119.25 142.83 120.73 133.57 115.23 126.73 C 112.86 125.08 109.76 124.77 106.95 124.47 C 102.75 124.09 99.29 127.54 97.58 131.04 C 96.94 134.12 97.26 137.32 98.05 140.35 C 98.93 142.97 96.16 144.93 94.80 146.83 C 93.06 149.42 89.71 148.95 87.20 150.21 C 81.74 152.87 75.31 154.20 71.26 159.08 C 69.02 163.70 70.20 169.10 70.89 173.97 C 70.35 173.40 69.28 172.27 68.74 171.70 C 67.94 174.50 67.40 177.36 66.59 180.16 C 67.47 180.78 68.40 181.34 69.33 181.91 C 70.50 184.27 70.18 186.83 69.52 189.29 C 67.60 187.05 68.00 184.00 67.61 181.28 C 67.15 181.53 66.23 182.05 65.77 182.31 C 67.35 187.86 67.52 193.58 67.16 199.31 C 67.98 206.22 65.04 213.10 66.75 219.95 C 67.13 222.52 68.51 224.76 69.34 227.20 C 69.25 231.51 68.12 235.83 69.06 240.14 C 68.52 239.87 67.43 239.33 66.89 239.06 C 66.60 236.02 66.76 232.97 66.93 229.93 C 67.38 226.05 64.38 222.88 64.37 219.06 C 63.36 212.01 66.32 205.02 64.83 198.01 C 65.09 189.29 63.60 180.25 66.90 171.90 C 69.26 167.50 66.71 162.14 69.53 157.83 C 73.53 152.37 80.62 151.20 86.30 148.22 C 88.25 147.74 90.31 147.91 92.30 147.71 C 93.79 145.28 95.25 142.83 96.49 140.27 C 95.19 136.72 95.00 132.71 96.20 129.12 C 98.39 125.98 101.51 122.90 105.58 122.76 Z" />
<path fill="#333333" opacity="1.00" d=" M 85.43 152.31 C 87.91 152.93 89.79 154.59 91.29 156.58 L 89.13 156.67 C 88.64 159.19 89.90 161.07 92.18 161.99 C 90.87 163.49 89.43 164.94 87.44 165.51 C 87.97 164.86 89.04 163.55 89.58 162.90 C 88.65 162.11 87.70 161.34 86.76 160.56 C 86.78 159.55 86.81 158.54 86.83 157.53 C 87.48 157.24 88.77 156.66 89.41 156.36 C 88.04 155.05 86.67 153.74 85.43 152.31 Z" />
<path fill="#333333" opacity="1.00" d=" M 91.38 155.73 C 94.73 157.28 98.13 158.73 101.80 159.29 C 104.00 159.44 105.16 161.48 106.29 163.08 C 102.01 158.92 94.08 161.84 91.38 155.73 Z" />
<path fill="#333333" opacity="1.00" d=" M 107.86 163.09 C 108.72 159.81 111.92 158.42 115.05 158.31 C 112.96 160.30 110.60 162.09 107.86 163.09 Z" />
<path fill="#333333" opacity="1.00" d=" M 82.59 169.20 C 83.98 169.52 85.28 169.30 86.50 168.55 C 88.39 169.96 89.20 172.03 88.99 174.38 C 87.04 173.25 85.78 171.35 84.36 169.67 C 84.34 170.90 84.32 172.13 84.31 173.36 C 83.74 171.97 83.17 170.58 82.59 169.20 Z" />
<path fill="#333333" opacity="1.00" d=" M 76.61 172.71 C 77.90 172.54 79.20 172.39 80.50 172.24 C 79.17 173.98 77.51 175.59 75.21 175.79 C 75.56 175.02 76.26 173.48 76.61 172.71 Z" />
<path fill="#333333" opacity="1.00" d=" M 81.41 173.95 C 82.06 174.23 83.36 174.80 84.00 175.09 C 86.44 181.50 82.52 188.65 84.84 195.00 C 87.00 194.33 89.10 193.51 91.14 192.56 C 90.35 193.77 89.76 195.06 89.39 196.43 C 91.37 196.35 93.27 195.76 95.15 195.20 C 97.17 195.49 99.19 195.74 101.20 196.04 C 98.22 196.98 95.05 197.02 92.06 197.91 C 88.61 199.12 85.95 195.95 83.40 194.20 C 82.51 196.60 81.64 199.01 80.89 201.46 C 85.63 202.99 90.61 203.12 95.54 203.20 C 98.26 200.27 102.09 198.37 104.05 194.78 C 105.49 192.06 108.83 191.14 110.47 188.55 C 111.01 186.55 109.84 183.99 111.62 182.46 C 112.93 181.40 114.23 183.81 113.43 184.86 C 113.18 188.02 111.64 191.13 109.08 193.06 C 106.54 195.06 105.14 198.10 102.67 200.19 C 103.89 201.23 105.02 202.37 106.28 203.38 C 109.38 204.14 112.63 204.07 115.81 204.33 L 115.10 205.47 C 120.70 206.86 125.72 210.69 127.27 216.44 C 124.47 213.92 122.48 210.61 119.47 208.32 C 117.68 206.94 115.30 207.22 113.18 207.03 C 110.57 209.10 108.02 211.44 104.72 212.35 C 104.69 215.30 104.24 218.21 103.98 221.14 C 103.33 220.80 102.02 220.10 101.37 219.76 C 102.01 221.48 102.69 223.21 103.32 224.94 C 107.13 226.24 111.60 226.40 114.58 229.43 C 112.12 234.06 108.67 238.15 106.51 242.98 C 106.57 244.68 106.48 246.42 105.40 247.84 C 107.47 247.96 109.50 248.39 111.50 248.94 C 113.47 244.87 114.45 240.41 116.66 236.46 C 117.67 241.02 114.76 245.41 112.11 248.90 C 113.64 249.34 115.17 249.78 116.71 250.20 C 119.57 246.07 121.50 241.41 124.19 237.19 C 126.70 234.16 128.72 230.79 131.03 227.61 C 131.33 226.02 131.65 224.42 131.97 222.83 C 133.65 227.06 130.66 231.27 129.16 235.14 C 124.96 239.27 122.38 244.65 120.04 249.99 C 119.57 250.01 118.62 250.05 118.14 250.07 L 118.25 250.53 C 123.20 251.40 128.00 252.95 132.91 254.02 C 134.61 247.86 137.36 239.75 144.64 238.66 C 148.32 239.12 152.22 239.62 155.59 241.25 C 161.06 245.99 162.27 253.99 161.74 260.86 C 165.28 261.88 169.00 262.33 172.50 263.45 C 173.89 265.01 173.01 267.62 171.58 268.97 C 168.24 267.83 164.77 267.19 161.30 266.60 C 160.02 272.01 158.17 277.93 153.50 281.38 C 150.49 283.77 146.64 282.27 143.22 281.99 C 142.72 281.58 142.22 281.17 141.73 280.78 C 138.98 281.99 137.11 279.07 135.69 277.21 C 132.52 271.96 131.89 265.54 132.19 259.52 C 126.52 258.42 120.94 256.93 115.33 255.59 C 114.52 257.99 114.01 260.46 113.97 263.00 C 117.44 265.94 119.53 270.14 123.11 273.00 C 125.58 274.87 127.53 278.40 125.26 281.22 C 120.99 282.63 116.36 283.78 112.02 281.94 C 107.51 281.45 106.26 275.95 101.98 275.01 C 99.30 274.32 96.55 273.95 93.95 272.99 C 93.34 270.99 92.36 268.93 93.15 266.83 C 93.87 263.15 97.16 260.92 99.18 258.00 C 100.52 256.08 100.65 253.38 102.84 252.11 C 97.31 251.86 91.93 250.19 86.64 248.68 L 85.44 247.23 C 90.91 247.81 96.18 249.46 101.53 250.65 C 112.21 253.05 122.83 255.73 133.51 258.13 C 133.34 257.56 132.98 256.43 132.81 255.87 C 117.45 251.78 101.81 248.73 86.46 244.58 C 86.15 244.77 85.52 245.16 85.20 245.35 C 85.18 246.05 85.13 247.45 85.11 248.15 C 82.81 248.62 82.83 246.17 83.82 244.80 C 86.76 239.68 77.56 238.35 78.55 233.18 L 77.72 233.55 C 77.24 232.74 76.76 231.92 76.28 231.11 C 76.84 231.51 77.95 232.30 78.51 232.69 C 77.30 227.41 76.59 221.89 77.69 216.53 C 78.41 213.34 78.30 210.08 77.84 206.86 C 77.75 201.98 75.08 197.72 74.15 193.02 C 77.32 193.43 77.31 197.25 78.44 199.52 C 80.35 197.08 81.95 194.24 81.77 191.03 C 81.70 185.28 84.04 179.48 81.41 173.95 M 82.65 205.52 C 82.64 205.83 82.63 206.44 82.62 206.74 C 81.36 206.01 80.11 205.27 78.85 204.54 C 79.78 207.63 80.69 210.81 79.95 214.06 C 82.83 211.09 87.03 209.50 91.15 209.92 C 96.05 211.13 100.42 214.77 101.92 219.70 C 100.84 212.25 108.12 207.61 113.95 204.98 C 109.95 204.87 104.59 206.69 101.92 202.72 C 98.32 203.45 94.75 204.32 91.12 204.88 C 86.75 205.14 82.42 203.93 78.42 202.25 C 79.73 203.45 81.19 204.49 82.65 205.52 M 79.00 217.93 C 78.91 221.63 78.95 225.39 79.83 229.01 C 80.75 231.16 83.21 229.46 84.79 229.60 C 84.14 228.52 83.48 227.44 82.80 226.37 C 84.13 226.60 85.46 226.79 86.79 226.97 C 86.28 228.93 86.23 230.96 85.98 232.96 C 85.39 234.55 84.13 235.73 83.10 237.03 C 85.02 238.63 86.02 240.87 86.33 243.32 C 89.13 243.60 91.86 244.27 94.57 244.97 C 95.52 239.54 96.63 233.87 100.66 229.80 C 104.04 225.83 99.17 222.61 98.51 218.79 C 97.84 214.98 94.02 212.90 90.93 211.19 C 85.77 210.25 82.01 214.41 79.00 217.93 M 103.31 226.96 C 102.37 229.75 101.61 232.76 99.47 234.92 C 97.98 238.26 97.36 241.91 96.26 245.38 C 98.72 245.90 101.17 246.49 103.62 247.11 C 104.66 240.05 108.29 233.63 113.56 228.86 C 110.10 228.43 106.72 227.63 103.31 226.96 M 134.19 255.21 C 132.72 263.84 133.20 274.33 140.72 280.18 C 136.61 273.61 135.29 265.51 136.65 257.92 C 137.27 250.87 140.39 243.76 146.39 239.69 C 138.97 240.89 135.41 248.57 134.19 255.21 M 148.30 241.21 C 142.64 243.24 139.90 249.19 138.50 254.62 C 137.12 260.94 137.04 267.74 139.25 273.89 C 140.49 276.86 142.50 280.42 146.27 280.14 C 141.17 274.40 141.05 266.03 141.74 258.80 C 142.79 252.62 144.37 245.12 150.41 241.94 C 150.24 242.35 149.91 243.19 149.74 243.61 C 141.13 253.61 140.67 269.17 147.29 280.34 C 149.42 281.64 152.19 280.47 153.92 278.97 C 157.63 275.64 158.60 270.56 160.64 266.23 C 157.29 265.69 154.02 264.77 150.75 263.88 C 150.84 261.98 151.18 260.11 152.20 258.49 C 155.18 259.28 158.17 260.04 161.18 260.71 C 160.60 254.07 159.88 246.70 154.65 241.91 C 153.99 242.23 153.34 242.56 152.68 242.89 C 151.34 242.22 149.96 240.36 148.30 241.21 M 103.51 253.00 C 102.56 259.91 94.64 263.47 94.94 270.71 C 98.50 272.57 102.58 272.99 106.19 274.70 C 109.18 276.02 110.86 279.38 114.13 280.21 C 117.87 281.50 122.97 281.86 125.46 278.14 C 120.41 274.58 118.10 268.59 113.46 264.61 C 110.61 262.35 111.23 256.50 114.80 255.24 C 111.91 255.34 108.18 252.55 106.18 255.75 C 106.32 255.11 106.61 253.83 106.76 253.19 C 105.94 253.15 104.32 253.05 103.51 253.00 M 151.65 262.49 C 157.45 263.59 163.07 265.47 168.88 266.50 C 169.12 265.94 169.61 264.81 169.85 264.24 C 164.18 263.37 158.70 261.61 153.06 260.65 C 152.71 261.11 152.00 262.03 151.65 262.49 Z" />
<path fill="#333333" opacity="1.00" d=" M 85.23 175.17 C 87.94 176.79 89.82 179.86 93.08 180.61 C 96.91 181.47 100.86 180.75 104.74 180.93 C 98.61 184.76 87.65 184.31 85.13 176.28 C 85.16 176.00 85.20 175.45 85.23 175.17 Z" />
<path fill="#333333" opacity="1.00" d=" M 96.25 186.31 C 99.17 183.18 103.62 185.05 107.32 184.88 C 107.94 185.93 108.55 186.99 109.16 188.06 C 106.83 187.25 104.60 185.89 102.08 185.82 C 97.17 185.11 95.28 191.10 90.79 192.09 C 91.73 189.48 94.34 188.14 96.25 186.31 Z" />
<path fill="#333333" opacity="1.00" d=" M 121.42 197.30 C 121.93 196.63 122.46 195.98 123.00 195.33 C 124.90 201.10 129.19 205.48 132.87 210.14 C 134.37 211.81 133.53 214.18 133.33 216.14 C 134.64 218.39 137.26 219.22 138.87 221.15 C 139.76 223.18 140.19 225.37 140.93 227.45 C 141.79 226.17 142.66 224.89 143.58 223.66 C 143.98 225.99 144.32 228.33 144.68 230.67 C 145.72 230.39 147.09 230.74 147.82 229.77 C 147.13 227.52 144.51 225.63 145.18 223.20 C 145.44 223.16 145.96 223.08 146.22 223.04 C 148.15 225.84 149.63 229.02 149.58 232.48 C 146.66 233.49 143.52 232.37 140.99 230.85 C 139.44 229.40 138.90 227.24 137.96 225.41 C 136.94 222.47 133.63 221.22 132.48 218.37 C 131.39 216.24 131.96 213.74 131.32 211.51 C 128.74 206.20 122.23 203.55 121.42 197.30 Z" />
<path fill="#333333" opacity="1.00" d=" M 68.25 198.13 C 69.24 198.58 70.23 199.04 71.21 199.52 C 72.19 203.24 75.28 206.49 74.60 210.53 C 72.12 206.60 70.07 202.40 68.25 198.13 Z" />
<path fill="#333333" opacity="1.00" d=" M 9.45 224.97 C 10.84 218.18 14.32 210.53 21.81 208.96 C 22.31 209.25 23.31 209.84 23.80 210.13 C 27.38 210.62 31.74 210.63 34.03 213.93 C 37.76 219.04 38.60 225.64 38.46 231.81 C 46.35 233.44 54.18 235.37 62.00 237.27 C 63.54 237.58 64.86 238.43 66.03 239.43 C 55.86 238.11 46.05 234.84 36.02 232.76 C 33.45 232.52 30.39 230.23 28.10 232.22 C 28.41 232.51 29.04 233.08 29.35 233.37 C 41.63 236.99 54.42 238.89 66.62 242.85 C 66.96 242.30 67.65 241.20 68.00 240.65 C 68.11 241.89 68.21 243.14 68.32 244.38 C 72.04 247.42 76.89 248.92 81.68 248.66 C 82.44 249.10 83.19 249.55 83.94 250.02 C 82.09 250.53 80.25 251.02 78.39 251.49 C 77.66 255.39 77.12 259.40 75.33 263.01 C 74.48 266.55 73.86 270.18 74.21 273.84 C 73.95 273.91 73.42 274.05 73.15 274.12 C 72.71 272.99 72.27 271.87 71.83 270.76 C 71.17 272.82 70.57 274.91 70.06 277.02 C 73.75 280.95 78.15 284.14 81.64 288.27 C 86.84 293.12 94.46 291.59 100.36 289.04 C 97.91 284.76 93.90 281.87 90.07 278.95 C 87.62 275.41 85.96 271.34 82.98 268.15 C 83.34 267.98 84.05 267.64 84.41 267.46 C 84.29 265.54 83.66 263.45 84.78 261.70 C 86.75 258.09 88.19 253.95 91.09 250.99 L 92.73 250.63 C 90.97 255.54 87.35 259.75 86.66 265.04 C 85.90 269.76 89.35 273.58 91.88 277.16 C 95.72 280.98 100.93 283.82 102.42 289.45 C 96.54 293.36 88.80 294.88 82.16 292.07 C 79.71 290.50 78.19 287.90 76.12 285.91 C 73.55 283.10 69.99 280.86 68.82 277.04 C 68.02 274.63 69.29 272.28 70.24 270.13 C 73.39 263.89 74.50 256.91 76.72 250.33 C 74.15 249.46 71.54 248.72 68.86 248.32 C 67.99 246.85 67.14 245.36 66.31 243.87 C 56.68 241.86 47.12 239.48 37.59 237.06 C 36.62 243.04 34.39 249.79 28.75 252.87 C 24.54 254.29 20.13 252.45 15.91 251.92 C 9.21 246.91 8.45 237.89 8.79 230.18 C 5.80 229.50 2.56 229.21 0.00 227.36 L 0.00 226.81 C 0.61 225.60 1.23 224.40 1.86 223.21 C 4.40 223.73 6.93 224.32 9.45 224.97 M 10.30 228.13 C 9.44 235.92 10.10 245.31 16.86 250.46 C 11.50 241.60 11.99 230.50 14.91 220.91 C 16.20 216.58 19.47 213.34 22.62 210.30 C 14.68 212.28 11.19 220.75 10.30 228.13 M 24.20 212.25 C 18.02 214.91 15.47 221.98 14.45 228.15 C 13.39 235.72 13.84 244.48 19.40 250.32 C 22.10 250.57 24.78 251.78 27.49 251.39 C 33.36 249.22 34.84 242.42 36.85 237.20 C 35.42 236.75 33.99 236.30 32.56 235.86 C 32.61 236.39 32.70 237.44 32.74 237.97 C 32.78 235.21 29.77 235.37 27.86 234.74 C 27.18 232.92 27.62 231.10 28.31 229.37 C 31.45 230.04 34.56 230.79 37.68 231.56 C 36.85 224.94 36.56 217.33 31.03 212.68 C 28.84 215.27 26.60 210.29 24.20 212.25 M 1.16 226.75 C 3.84 227.69 6.61 228.35 9.36 229.03 C 9.42 228.35 9.54 226.98 9.60 226.30 C 6.82 226.19 3.02 223.43 1.16 226.75 Z" />
<path fill="#333333" opacity="1.00" d=" M 112.15 210.85 C 114.51 213.83 115.48 217.53 117.03 220.92 C 119.91 224.62 124.05 221.41 127.06 219.72 C 125.97 223.86 120.96 225.29 117.41 223.59 C 113.44 220.64 113.08 215.31 112.15 210.85 Z" />
<path fill="#333333" opacity="1.00" d=" M 21.13 219.11 C 22.40 216.48 24.11 213.66 27.12 212.85 C 25.70 215.46 23.55 217.60 22.24 220.28 C 17.86 229.97 18.16 241.69 23.66 250.88 C 20.23 249.16 19.27 245.30 18.56 241.86 C 17.14 234.26 17.96 226.19 21.13 219.11 Z" />
<path fill="#333333" opacity="1.00" d=" M 106.83 217.71 C 109.80 219.04 111.39 221.92 112.79 224.67 C 112.51 224.64 111.95 224.56 111.66 224.52 C 109.82 222.43 107.88 220.34 106.83 217.71 Z" />
<path fill="#333333" opacity="1.00" d=" M 128.95 218.92 C 130.48 217.84 131.65 220.65 130.52 221.62 C 128.95 222.71 127.72 219.91 128.95 218.92 Z" />
<path fill="#333333" opacity="1.00" d=" M 89.69 220.89 C 90.43 220.30 91.92 219.11 92.66 218.51 C 90.95 221.48 94.22 222.57 95.00 224.92 C 93.50 224.50 92.02 224.00 90.56 223.45 C 90.34 222.81 89.90 221.53 89.69 220.89 Z" />
<path fill="#333333" opacity="1.00" d=" M 92.31 226.31 C 92.79 226.38 93.74 226.54 94.22 226.61 C 94.38 228.35 94.54 230.09 94.70 231.83 C 94.22 231.81 93.26 231.77 92.78 231.75 C 92.62 229.93 92.45 228.12 92.31 226.31 Z" />
<path fill="#333333" opacity="1.00" d=" M 123.63 226.56 C 125.14 228.45 124.94 232.22 121.94 232.34 C 122.39 230.37 122.94 228.44 123.63 226.56 Z" />
<path fill="#333333" opacity="1.00" d=" M 71.22 231.30 C 73.33 230.24 74.08 234.48 71.91 234.68 C 70.46 234.41 70.27 232.19 71.22 231.30 Z" />
<path fill="#333333" opacity="1.00" d=" M 79.53 241.75 C 80.53 241.78 82.53 241.83 83.52 241.86 C 82.28 242.86 80.96 243.83 80.78 245.58 L 82.88 245.96 C 82.02 246.56 81.16 247.15 80.29 247.74 C 79.59 245.81 79.39 243.78 79.53 241.75 Z" />
<path fill="#333333" opacity="1.00" d=" M 100.38 269.98 C 99.64 266.61 98.88 262.16 102.84 260.49 C 101.54 263.24 101.28 266.14 102.15 269.07 C 101.71 269.30 100.82 269.75 100.38 269.98 Z" />
<path fill="#333333" opacity="1.00" d=" M 107.38 260.98 C 108.93 264.06 110.11 267.33 110.86 270.70 C 108.99 267.80 106.03 264.71 107.38 260.98 Z" />
<path fill="#333333" opacity="1.00" d=" M 80.00 272.44 C 81.97 274.99 83.00 278.16 82.85 281.40 C 81.21 278.68 80.48 275.53 80.00 272.44 Z" />
</g>
</svg>
