<?xml version="1.0" encoding="UTF-8" ?>
<!DOCTYPE svg PUBLIC "-//W3C//DTD SVG 1.1//EN" "http://www.w3.org/Graphics/SVG/1.1/DTD/svg11.dtd">
<svg width="200pt" height="225pt" viewBox="0 0 200 225" version="1.1" xmlns="http://www.w3.org/2000/svg"><g id="#50524eff">
<path fill="#333333" opacity="1.00" d=" M 143.17 37.89 C 144.10 32.60 146.79 26.12 152.95 25.58 C 148.82 28.67 144.70 32.60 144.42 38.12 C 143.33 43.23 145.80 47.95 148.11 52.30 C 143.44 49.25 142.55 43.00 143.17 37.89 Z" />
<path fill="#333333" opacity="1.00" d=" M 145.74 45.05 C 145.51 38.06 147.19 30.24 153.53 26.26 C 155.33 26.88 157.32 27.13 158.96 28.17 C 160.80 29.53 161.23 31.94 161.78 34.01 C 162.53 33.96 163.27 33.90 164.02 33.83 C 165.31 31.09 167.87 29.29 170.87 28.83 C 167.82 31.81 163.80 34.46 163.02 39.01 C 161.11 44.89 162.93 51.10 166.40 56.00 C 159.69 51.98 160.13 42.82 162.44 36.37 C 161.21 35.68 160.01 34.94 158.81 34.21 C 155.52 35.24 153.35 37.90 152.09 41.01 C 152.64 43.65 155.45 45.19 156.02 47.90 C 157.22 53.74 155.46 59.77 152.59 64.87 C 149.75 69.83 151.12 75.72 150.68 81.12 C 152.75 79.15 154.59 76.70 157.35 75.67 C 159.70 74.82 161.89 73.59 163.96 72.20 C 163.48 66.51 163.23 60.83 163.60 55.13 L 165.24 55.45 C 165.81 61.65 164.75 67.99 166.32 74.09 C 166.80 76.25 164.60 78.24 165.57 80.42 C 166.82 83.98 166.58 87.76 165.38 91.30 C 164.27 91.80 163.15 92.30 162.03 92.79 C 161.65 93.65 161.27 94.51 160.90 95.38 C 163.15 96.88 166.17 98.13 166.81 101.07 C 167.64 105.92 169.08 111.21 166.90 115.90 C 165.47 119.98 160.50 122.84 156.33 121.23 C 155.00 122.81 153.85 124.92 151.75 125.55 C 145.85 125.55 140.64 128.69 134.88 129.59 C 130.42 130.43 125.72 130.35 121.40 128.89 C 117.49 127.60 113.41 128.77 109.73 130.22 C 108.57 131.42 107.08 132.12 105.50 132.59 C 103.01 138.02 96.69 140.36 91.03 140.08 C 86.22 139.67 81.73 141.59 77.36 143.33 C 77.48 142.92 77.72 142.11 77.84 141.70 C 73.42 143.31 68.76 144.41 64.02 143.99 C 61.34 143.66 58.78 144.59 56.34 145.59 C 56.12 145.09 55.67 144.09 55.44 143.58 C 55.13 145.93 54.66 148.38 55.48 150.68 C 57.36 156.61 59.06 162.82 58.26 169.10 C 57.67 173.75 58.52 178.40 59.07 183.01 C 59.67 189.25 64.73 194.33 64.25 200.78 C 64.35 203.19 62.72 205.11 61.26 206.84 C 56.03 207.94 50.45 208.10 45.74 210.89 C 41.75 213.14 37.28 214.19 32.98 215.61 C 27.60 216.00 23.37 212.31 19.05 209.73 C 19.63 208.55 20.22 207.38 20.83 206.22 C 23.54 204.76 26.01 202.77 29.04 201.98 C 33.22 200.98 35.55 197.04 38.18 194.02 C 33.12 194.42 29.08 197.32 25.20 200.28 C 21.57 201.42 17.61 201.31 13.90 202.28 C 11.80 202.90 10.21 201.13 9.03 199.67 C 9.26 198.12 9.53 196.57 10.09 195.11 C 12.57 192.08 16.92 191.38 19.10 188.02 C 22.30 183.49 28.19 180.83 29.21 174.91 C 30.29 167.08 26.24 159.74 26.09 151.98 C 25.98 146.32 25.17 140.72 24.99 135.07 C 24.18 131.00 24.43 126.41 27.14 123.07 C 30.20 121.23 33.13 119.19 36.09 117.21 C 41.89 114.03 48.33 111.88 54.92 111.28 C 57.10 111.06 58.97 109.80 61.05 109.25 C 64.03 109.32 66.96 110.09 69.96 109.94 C 73.08 110.06 75.86 108.44 78.87 107.96 C 82.18 107.70 85.45 108.44 88.72 108.81 C 91.37 106.74 94.64 106.00 97.85 105.33 C 100.90 103.64 103.77 101.60 106.32 99.22 C 108.64 96.97 111.95 96.32 114.93 95.39 C 116.96 91.65 118.80 87.82 121.12 84.24 C 125.04 83.33 128.86 81.52 132.97 81.79 C 138.38 81.74 143.70 80.50 149.08 79.98 C 149.40 76.25 148.62 72.51 149.08 68.79 C 150.77 63.69 154.36 59.09 154.03 53.46 C 152.24 52.87 150.49 52.21 148.76 51.50 C 148.06 50.09 147.34 48.69 146.62 47.29 C 147.02 46.66 147.42 46.03 147.83 45.40 C 148.27 48.87 151.02 51.76 154.69 51.04 C 154.05 48.36 152.97 45.80 150.87 43.93 C 148.12 41.41 151.06 38.10 152.59 35.81 C 154.02 32.56 158.09 33.67 160.85 32.72 C 159.59 30.45 157.66 28.71 155.63 27.13 C 148.75 30.28 146.28 38.33 147.47 45.36 C 147.03 45.29 146.17 45.13 145.74 45.05 M 152.33 82.29 C 150.54 83.73 148.09 82.88 146.01 82.92 C 138.00 82.25 129.85 83.30 122.29 86.04 C 121.42 88.13 120.58 90.23 119.74 92.32 C 120.20 93.93 120.55 95.56 120.81 97.21 C 123.60 96.61 126.38 95.94 129.21 95.55 C 128.49 94.14 127.75 92.75 127.02 91.35 C 135.02 96.31 144.50 91.76 152.24 88.51 C 155.85 89.44 159.28 91.25 163.15 91.00 C 164.03 87.03 165.01 82.40 162.53 78.80 C 163.46 77.18 164.39 75.55 165.15 73.83 C 160.95 76.78 156.36 79.12 152.33 82.29 M 146.91 92.82 C 144.55 96.06 143.33 100.08 142.59 103.98 C 144.35 100.40 145.90 96.72 147.82 93.22 C 148.07 93.21 148.57 93.20 148.82 93.19 C 149.72 96.37 146.34 98.93 145.61 101.95 C 144.39 106.90 144.43 112.09 143.16 117.05 C 142.68 116.61 141.73 115.74 141.26 115.30 C 139.22 115.87 137.19 116.45 135.24 117.26 C 132.84 119.48 130.15 121.37 127.81 123.65 C 125.05 124.75 121.98 124.72 119.08 125.14 C 126.67 129.58 136.10 128.44 143.77 124.81 C 146.94 122.93 151.51 125.28 153.96 122.06 C 156.66 117.52 155.97 111.98 156.69 106.95 C 154.57 110.85 152.00 114.49 149.01 117.76 C 150.83 113.80 152.67 109.80 155.27 106.27 C 158.27 102.09 159.43 96.91 159.68 91.84 C 155.41 91.29 150.86 90.60 146.91 92.82 M 117.92 97.35 C 110.77 95.57 105.90 101.94 100.61 105.47 C 100.60 105.86 100.56 106.64 100.54 107.03 C 98.97 107.72 97.42 108.45 95.94 109.31 C 95.47 108.88 95.01 108.45 94.55 108.02 L 96.40 106.77 C 94.74 107.42 93.10 108.13 91.48 108.85 C 96.25 111.42 102.01 113.00 105.11 117.81 C 104.85 117.26 104.33 116.16 104.07 115.62 C 107.18 116.01 110.34 116.47 113.16 117.95 C 110.37 118.22 107.61 117.79 104.89 117.29 C 107.11 120.87 108.99 125.13 107.74 129.41 C 111.09 127.86 114.69 126.88 118.39 126.72 C 118.29 126.09 118.10 124.83 118.00 124.20 C 120.86 123.13 123.80 122.23 126.83 121.80 C 127.74 121.07 128.65 120.33 129.57 119.61 C 128.44 117.95 127.63 116.11 127.61 114.08 C 125.89 113.38 124.21 112.56 122.61 111.61 C 124.40 111.70 126.19 111.91 127.97 112.07 L 128.54 113.98 C 130.81 113.05 132.34 110.53 134.81 110.23 C 134.41 111.14 133.80 111.91 132.97 112.53 C 133.32 113.23 133.67 113.92 134.02 114.62 C 134.89 114.87 136.61 115.38 137.48 115.63 C 138.77 115.34 140.07 115.05 141.37 114.75 C 141.64 111.51 143.89 107.88 141.54 104.95 C 141.37 103.58 141.21 102.20 141.04 100.83 C 136.38 100.60 132.17 98.52 127.70 97.46 C 125.40 96.74 123.16 98.15 120.84 98.07 C 119.17 96.77 118.77 94.55 117.93 92.73 C 117.85 94.27 117.84 95.81 117.92 97.35 M 131.32 95.82 C 131.27 96.01 131.19 96.38 131.14 96.57 C 131.74 96.71 132.94 96.99 133.54 97.13 C 136.09 98.52 138.91 99.27 141.56 100.43 C 142.37 98.29 143.14 96.14 143.94 94.01 C 139.81 95.01 135.60 96.13 131.32 95.82 M 160.99 97.53 C 160.14 101.08 157.56 104.28 158.19 108.08 C 158.56 112.21 158.22 116.39 156.87 120.32 C 159.47 119.85 162.61 119.60 164.16 117.11 C 166.87 114.01 165.84 109.68 165.93 105.94 C 166.15 102.37 163.68 99.52 160.99 97.53 M 74.14 111.07 C 75.40 111.75 76.72 112.28 78.04 112.81 C 76.49 113.89 74.89 114.91 73.34 116.00 C 75.60 116.01 77.87 115.98 80.13 115.99 C 82.34 117.52 85.27 117.09 87.57 118.45 C 88.99 119.25 89.45 120.92 90.17 122.27 C 89.61 123.51 89.07 124.76 88.56 126.02 C 89.10 121.43 84.44 118.35 80.23 119.07 C 80.14 118.71 79.97 117.98 79.88 117.62 C 76.95 117.77 74.03 117.66 71.11 117.49 C 72.13 115.47 73.35 113.57 74.57 111.67 C 70.20 111.64 65.84 111.29 61.48 110.96 C 61.91 111.26 62.78 111.86 63.21 112.16 C 63.16 114.51 62.72 116.98 63.49 119.25 C 65.60 118.68 68.26 116.90 70.23 118.78 C 76.51 124.18 81.21 132.80 79.31 141.25 C 83.98 139.35 88.82 137.50 93.96 137.72 C 100.06 138.03 104.46 132.30 106.13 127.05 C 105.78 122.70 103.72 118.38 100.56 115.36 C 92.74 110.82 82.99 108.20 74.14 111.07 M 31.46 122.40 C 28.25 123.59 26.19 126.62 26.18 130.03 C 28.40 137.79 25.95 145.93 27.30 153.81 C 29.31 161.65 32.37 169.96 30.03 178.06 C 29.13 182.05 25.02 183.67 22.53 186.49 C 20.39 188.65 19.03 191.81 15.96 192.84 C 13.61 193.67 11.76 195.36 10.05 197.11 C 11.28 196.90 13.76 196.48 14.99 196.27 C 13.29 197.59 11.47 198.74 9.77 200.06 C 13.58 201.62 17.23 199.39 21.03 199.16 C 24.50 199.16 26.65 196.10 29.48 194.59 C 32.58 192.55 36.41 192.57 39.97 192.17 C 41.50 190.24 43.42 188.45 44.05 185.98 C 45.67 181.69 43.82 177.24 42.94 173.00 C 41.41 167.79 41.52 162.24 39.68 157.11 C 38.15 153.07 38.79 148.62 37.50 144.52 C 36.52 141.35 36.17 137.83 37.91 134.84 C 39.11 131.18 43.22 130.24 45.72 127.74 C 50.00 123.53 55.92 121.75 61.45 119.82 C 60.83 117.60 61.74 114.09 59.08 113.10 C 49.04 112.33 39.53 116.85 31.46 122.40 M 129.67 115.98 C 129.50 117.97 132.80 117.93 133.82 116.80 C 133.24 116.29 132.09 115.26 131.51 114.75 L 132.48 113.54 C 131.41 114.21 128.37 113.79 129.67 115.98 M 52.17 125.08 C 48.50 126.48 46.29 129.97 42.87 131.78 C 40.20 133.09 39.52 136.18 38.12 138.54 C 38.84 142.37 40.43 146.07 40.16 150.03 C 39.88 153.87 42.48 157.09 42.60 160.88 C 43.08 169.06 45.93 176.86 46.55 185.02 C 46.87 187.59 44.92 189.56 43.08 191.03 C 39.00 194.33 37.11 199.76 32.53 202.52 C 28.27 204.31 22.85 205.24 20.48 209.68 C 21.33 209.74 23.03 209.85 23.88 209.90 C 25.67 212.64 28.84 213.50 31.92 213.73 C 36.23 212.76 40.57 211.68 44.40 209.40 C 49.41 206.50 55.39 206.62 60.73 204.69 C 62.86 203.77 63.01 201.10 62.68 199.13 C 61.77 194.90 59.96 190.94 58.46 186.90 C 57.61 183.69 57.56 180.34 57.02 177.09 C 55.98 170.79 57.97 164.31 56.18 158.09 C 54.87 153.39 53.39 148.74 52.47 143.94 C 54.90 143.05 57.39 141.78 60.05 142.42 C 66.05 143.39 72.51 142.72 77.83 139.66 C 79.33 132.21 74.60 125.10 69.69 119.91 C 63.35 119.44 57.82 122.81 52.17 125.08 Z" />
<path fill="#333333" opacity="1.00" d=" M 171.07 29.98 C 174.26 29.22 177.79 30.85 179.14 33.87 C 181.79 39.58 180.94 46.52 177.85 51.88 C 176.31 54.58 173.52 57.06 170.21 56.69 C 166.84 56.09 165.12 52.71 164.39 49.68 C 162.91 42.63 164.88 34.24 171.07 29.98 M 169.05 33.92 C 166.08 37.13 165.25 41.72 165.30 45.96 C 165.44 49.33 166.59 53.42 170.07 54.74 C 173.61 55.70 176.32 52.35 177.68 49.52 C 180.67 43.22 180.49 34.10 173.85 30.16 C 172.25 31.42 170.52 32.50 169.05 33.92 Z" />
<path fill="#333333" opacity="1.00" d=" M 121.35 103.21 C 119.43 101.66 117.03 100.20 118.25 97.38 C 119.93 99.76 122.82 101.54 123.41 104.54 C 123.01 108.86 119.54 111.94 115.81 113.66 C 116.58 111.58 118.03 109.94 119.76 108.60 C 120.33 106.82 121.13 105.08 121.35 103.21 Z" />
<path fill="#333333" opacity="1.00" d=" M 109.74 105.02 C 110.81 103.27 111.96 101.57 113.27 99.98 C 112.88 101.65 112.47 103.31 112.04 104.97 C 109.69 105.91 107.31 106.75 104.92 107.57 C 103.75 106.77 102.60 105.95 101.50 105.06 C 103.37 105.40 105.20 105.93 107.01 106.53 C 107.92 106.03 108.83 105.53 109.74 105.02 Z" />
<path fill="#333333" opacity="1.00" d=" M 125.04 101.22 C 125.94 101.71 126.84 102.21 127.73 102.73 C 128.29 102.81 129.40 102.96 129.96 103.03 C 130.40 103.56 131.28 104.63 131.72 105.16 C 128.93 104.85 125.90 104.31 125.04 101.22 Z" />
<path fill="#333333" opacity="1.00" d=" M 132.18 102.98 C 134.10 103.50 135.98 105.22 138.05 104.28 L 138.70 104.37 C 139.91 105.39 140.98 106.61 141.51 108.14 C 140.24 107.22 139.01 106.25 137.83 105.23 C 137.15 106.52 136.57 107.86 135.81 109.10 C 134.18 108.51 134.93 106.15 134.41 104.80 C 133.85 104.35 132.74 103.43 132.18 102.98 Z" />
<path fill="#333333" opacity="1.00" d=" M 125.55 107.09 C 127.54 108.19 129.45 109.44 131.32 110.73 C 128.53 111.38 126.61 109.47 125.55 107.09 Z" />
<path fill="#333333" opacity="1.00" d=" M 107.01 107.79 C 108.59 107.87 110.16 107.96 111.73 108.05 C 112.42 109.27 113.12 110.49 113.78 111.72 C 111.38 110.67 109.21 109.20 107.01 107.79 Z" />
<path fill="#333333" opacity="1.00" d=" M 79.44 113.14 C 84.10 113.77 89.71 114.20 92.54 118.53 C 88.07 117.04 83.54 115.48 79.44 113.14 Z" />
<path fill="#333333" opacity="1.00" d=" M 107.68 114.19 C 110.15 114.23 112.61 114.54 115.04 115.00 C 115.20 115.52 115.52 116.54 115.68 117.05 C 112.96 116.24 110.27 115.35 107.68 114.19 Z" />
<path fill="#333333" opacity="1.00" d=" M 120.53 113.40 C 122.79 114.36 124.95 115.59 126.81 117.21 C 123.88 117.63 121.70 115.93 120.53 113.40 Z" />
<path fill="#333333" opacity="1.00" d=" M 117.38 116.34 C 118.85 115.97 120.90 118.21 120.16 119.62 C 118.54 120.18 116.65 117.83 117.38 116.34 Z" />
<path fill="#333333" opacity="1.00" d=" M 42.22 127.31 C 38.92 129.87 33.47 127.35 34.32 122.95 C 35.96 125.97 38.96 127.06 42.22 127.31 Z" />
<path fill="#333333" opacity="1.00" d=" M 57.57 133.29 C 61.19 129.32 65.91 126.37 71.17 125.18 C 66.75 128.03 62.86 132.14 57.57 133.29 Z" />
<path fill="#333333" opacity="1.00" d=" M 137.84 133.36 C 146.10 131.03 154.93 130.70 162.67 126.71 C 158.59 133.15 149.87 132.41 143.45 134.82 C 143.98 140.30 144.73 145.88 143.78 151.37 C 141.34 146.35 142.04 140.56 141.66 135.17 C 139.21 135.76 136.78 136.37 134.39 137.14 C 134.77 142.64 135.23 148.14 135.07 153.67 C 134.57 153.34 133.59 152.68 133.10 152.35 C 132.70 147.43 132.98 142.48 132.71 137.55 C 122.11 140.15 111.65 143.28 101.04 145.81 C 96.04 146.91 91.31 149.67 86.05 149.05 L 89.69 149.30 C 86.56 150.21 83.43 151.05 80.32 152.00 C 80.56 155.99 80.86 159.97 81.04 163.96 C 80.30 164.57 79.56 165.17 78.83 165.79 C 78.89 161.37 78.76 156.96 78.65 152.55 C 73.11 153.60 67.32 158.16 61.76 154.89 C 59.36 153.86 57.17 152.32 55.61 150.20 C 59.05 150.77 61.64 153.56 65.03 154.12 C 69.24 153.66 73.12 151.77 77.12 150.49 C 97.16 144.08 117.57 138.97 137.84 133.36 Z" />
<path fill="#333333" opacity="1.00" d=" M 29.87 128.85 C 32.33 129.90 33.13 132.61 32.46 135.08 C 32.75 135.01 33.33 134.85 33.62 134.78 C 32.76 136.88 31.98 139.03 30.94 141.06 C 30.93 138.98 31.09 136.91 31.43 134.85 L 30.51 135.97 C 30.35 133.59 29.88 131.23 29.87 128.85 Z" />
<path fill="#333333" opacity="1.00" d=" M 47.41 132.47 C 49.27 132.87 51.10 133.39 52.96 133.82 C 52.64 134.22 51.99 135.02 51.66 135.42 C 49.86 135.05 48.43 133.97 47.41 132.47 Z" />
<path fill="#333333" opacity="1.00" d=" M 42.51 144.63 C 43.25 141.09 42.60 136.05 47.07 134.99 C 46.49 136.04 45.88 137.08 45.26 138.11 C 45.29 140.65 44.50 142.98 42.51 144.63 Z" />
<path fill="#333333" opacity="1.00" d=" M 87.61 150.39 C 87.91 150.36 88.53 150.31 88.84 150.29 C 90.54 155.77 90.23 161.61 89.88 167.27 C 87.01 162.15 88.33 155.98 87.61 150.39 Z" />
<path fill="#333333" opacity="1.00" d=" M 45.18 153.29 C 45.77 153.81 45.77 153.81 45.18 153.29 Z" />
<path fill="#333333" opacity="1.00" d=" M 49.69 159.45 C 49.30 157.32 49.78 155.16 50.21 153.07 C 50.50 160.75 53.39 168.01 53.88 175.63 C 51.19 170.65 50.79 164.90 49.69 159.45 Z" />
<path fill="#333333" opacity="1.00" d=" M 46.61 155.20 C 47.32 156.70 47.84 158.30 47.81 159.99 C 47.94 164.79 48.83 169.52 49.25 174.30 C 47.25 168.16 46.14 161.66 46.61 155.20 Z" />
<path fill="#333333" opacity="1.00" d=" M 78.97 167.11 C 79.69 166.46 80.41 165.80 81.12 165.14 C 81.02 170.17 81.49 175.22 81.01 180.24 C 78.41 176.43 79.59 171.45 78.97 167.11 Z" />
<path fill="#333333" opacity="1.00" d=" M 40.01 178.16 C 40.49 178.44 41.44 179.00 41.91 179.28 C 42.04 180.50 42.17 181.73 42.29 182.96 C 40.56 185.80 39.12 189.10 35.87 190.52 C 37.71 187.37 39.78 184.32 41.04 180.86 C 40.69 179.96 40.35 179.06 40.01 178.16 Z" />
<path fill="#333333" opacity="1.00" d=" M 25.99 191.02 C 27.45 188.00 29.81 185.48 32.94 184.18 C 30.95 186.77 28.57 189.03 25.99 191.02 Z" />
<path fill="#333333" opacity="1.00" d=" M 56.26 194.74 C 58.31 197.99 53.62 199.57 51.20 199.93 C 52.28 198.95 53.42 198.06 54.61 197.22 C 55.02 196.60 55.85 195.36 56.26 194.74 Z" />
<path fill="#333333" opacity="1.00" d=" M 41.45 204.45 C 42.20 201.36 44.26 198.82 46.75 196.93 C 45.54 199.79 43.71 202.33 41.45 204.45 Z" />
<path fill="#333333" opacity="1.00" d=" M 26.35 206.98 C 29.45 206.22 32.73 207.28 34.67 209.86 C 31.62 209.88 28.89 208.50 26.35 206.98 Z" />
</g>
</svg>
