<?xml version="1.0" encoding="UTF-8" ?>
<!DOCTYPE svg PUBLIC "-//W3C//DTD SVG 1.1//EN" "http://www.w3.org/Graphics/SVG/1.1/DTD/svg11.dtd">
<svg width="227pt" height="225pt" viewBox="0 0 227 225" version="1.1" xmlns="http://www.w3.org/2000/svg"><g id="#575756ff">
<path fill="#333333" opacity="1.00" d=" M 55.71 0.00 L 58.10 0.00 C 57.92 16.01 58.35 32.02 57.88 48.02 C 58.30 60.68 58.07 73.35 58.04 86.02 C 58.15 89.00 57.33 92.68 60.49 94.45 C 61.51 87.67 60.61 80.80 61.03 73.99 C 61.86 62.02 61.24 50.01 61.42 38.03 C 61.68 28.65 60.37 19.26 61.30 9.90 C 61.65 6.61 61.67 3.30 61.54 0.00 L 62.59 0.00 C 62.32 6.67 62.83 13.33 62.87 20.00 C 62.79 33.01 62.75 46.01 63.10 59.01 C 62.75 70.52 62.66 82.04 62.82 93.55 C 63.63 93.29 65.24 92.77 66.04 92.51 C 66.60 61.68 66.06 30.83 66.52 0.00 L 68.68 0.00 C 68.59 24.64 68.37 49.28 68.67 73.92 C 68.58 80.91 68.03 87.96 69.24 94.90 C 69.85 106.59 68.94 118.31 69.59 130.00 C 69.85 134.38 68.24 138.58 68.32 142.95 C 68.05 148.31 69.01 153.81 67.54 159.06 L 66.32 159.11 C 65.38 152.15 66.03 145.10 66.04 138.11 C 64.97 138.58 63.91 139.06 62.84 139.54 C 63.15 146.02 62.98 152.51 63.02 159.00 C 62.53 159.00 61.55 159.00 61.05 159.00 C 60.98 152.46 61.30 145.91 60.77 139.38 C 59.89 138.99 59.01 138.59 58.12 138.19 C 58.00 145.08 58.14 151.97 57.99 158.85 L 55.73 158.81 C 55.40 150.78 56.50 142.63 54.82 134.70 C 52.96 135.63 51.12 136.69 49.07 137.13 C 45.27 137.24 41.69 135.63 38.32 134.06 C 34.18 133.43 31.38 129.69 30.32 125.88 C 29.36 120.72 29.11 115.34 30.53 110.23 C 27.53 109.04 24.51 107.86 21.69 106.27 C 22.74 104.80 23.78 103.34 24.84 101.89 C 27.29 102.73 29.73 103.59 32.13 104.56 C 34.49 99.01 38.01 93.43 43.72 90.88 C 47.72 89.11 51.91 91.26 55.70 92.56 C 55.73 61.70 55.71 30.85 55.71 0.00 M 38.35 97.50 C 33.15 104.07 30.66 112.70 31.43 121.03 C 31.61 124.96 33.71 128.40 34.90 132.07 C 35.69 132.43 37.27 133.16 38.06 133.52 C 34.48 128.79 34.49 122.70 34.57 117.05 C 35.48 106.82 40.75 96.27 50.41 91.74 C 45.68 91.51 41.25 93.86 38.35 97.50 M 42.24 100.96 C 37.23 108.22 35.21 117.53 36.89 126.19 C 37.75 130.70 41.52 133.59 44.75 136.45 C 48.15 135.01 51.88 134.19 54.82 131.85 C 54.77 127.75 54.81 123.65 54.75 119.55 C 53.37 118.40 52.15 117.06 51.12 115.60 C 52.31 114.49 53.53 113.41 54.79 112.38 C 54.69 106.29 54.99 100.19 54.67 94.10 C 49.73 93.40 44.96 97.01 42.24 100.96 M 57.32 94.91 C 57.17 108.51 57.34 122.12 57.28 135.73 C 58.12 136.08 59.80 136.79 60.64 137.14 C 61.80 123.91 61.22 110.62 61.25 97.36 C 61.67 95.09 58.71 95.59 57.32 94.91 M 62.91 95.72 C 62.94 109.48 63.25 123.22 62.72 136.97 C 64.07 136.61 65.43 136.24 66.79 135.87 C 66.93 122.02 66.87 108.18 66.87 94.33 C 65.55 94.80 64.23 95.26 62.91 95.72 M 23.70 104.45 C 25.46 106.77 28.40 107.40 30.92 108.52 C 31.05 107.86 31.31 106.55 31.44 105.90 C 28.91 105.22 26.38 104.31 23.70 104.45 M 53.57 115.02 C 53.13 116.44 53.61 116.93 54.98 116.50 C 55.42 115.08 54.95 114.58 53.57 115.02 Z" />
<path fill="#333333" opacity="1.00" d=" M 138.71 0.00 L 141.61 0.00 C 140.71 19.66 141.24 39.35 141.06 59.02 C 140.57 67.34 141.23 75.66 141.12 83.99 C 141.14 97.61 140.99 111.24 141.15 124.87 C 141.83 125.08 143.20 125.51 143.88 125.73 C 144.09 117.16 143.84 108.59 143.97 100.02 C 144.88 85.04 144.24 70.04 144.42 55.05 C 144.58 47.04 143.82 39.06 143.97 31.05 C 143.92 25.74 144.95 20.46 144.58 15.15 C 144.28 10.10 143.99 5.06 143.98 0.00 L 145.76 0.00 C 145.84 7.65 145.46 15.30 145.54 22.95 C 146.26 38.28 145.55 53.64 145.89 68.98 C 146.10 75.67 146.21 82.38 145.96 89.08 C 145.51 101.23 145.92 113.40 145.75 125.56 C 146.56 125.30 148.18 124.78 149.00 124.53 C 149.58 94.35 149.16 64.16 149.33 33.98 C 149.70 22.66 149.43 11.33 149.55 0.00 L 151.46 0.00 C 152.00 16.32 151.42 32.66 151.54 48.99 C 151.33 66.29 151.67 83.59 151.45 100.89 C 151.89 109.21 150.77 117.61 152.12 125.88 C 152.58 129.21 152.23 132.59 152.04 135.93 C 155.35 132.85 159.08 129.45 163.85 129.26 C 168.55 129.37 173.04 130.95 177.36 132.66 C 179.56 133.53 181.95 134.51 183.19 136.66 C 187.40 143.06 187.37 151.33 185.02 158.41 C 189.05 159.37 192.93 161.20 194.73 165.17 C 193.02 166.28 191.49 169.22 189.14 167.92 C 186.91 167.13 184.85 165.92 182.58 165.27 C 180.61 168.31 178.97 171.73 175.88 173.83 C 172.95 175.87 170.59 178.82 167.23 180.21 C 162.52 181.63 157.87 179.21 153.28 178.39 C 151.28 175.45 148.95 172.57 148.16 169.02 C 146.83 163.32 147.61 157.38 149.10 151.80 C 151.48 147.07 153.15 141.82 157.02 138.02 C 160.09 134.44 164.38 132.36 168.65 130.61 C 161.49 129.76 155.15 134.59 151.36 140.25 C 145.54 147.93 144.26 157.89 144.65 167.25 C 146.24 170.03 147.84 172.81 149.80 175.35 C 151.94 177.70 151.20 181.08 151.36 183.97 C 151.10 188.65 152.28 193.82 149.47 197.96 C 148.46 190.87 148.88 183.68 149.10 176.55 C 147.37 174.59 145.69 172.58 144.11 170.51 C 143.35 170.52 141.82 170.56 141.05 170.57 C 140.89 179.66 141.50 188.77 140.63 197.83 C 137.71 195.88 138.95 192.12 138.66 189.20 C 133.80 189.54 128.90 189.21 124.06 189.92 C 118.78 190.83 113.52 189.02 108.66 187.14 C 107.12 186.30 104.19 184.22 106.29 182.47 C 109.64 179.19 114.90 179.41 118.37 176.33 C 120.65 174.47 123.03 172.74 125.48 171.09 C 126.89 166.58 128.26 161.80 127.22 157.06 C 126.25 152.46 125.63 147.78 124.52 143.21 C 121.49 143.31 118.48 143.78 115.45 143.83 C 115.27 148.58 114.93 153.45 116.24 158.10 C 116.54 160.02 117.75 162.38 116.00 163.97 C 113.68 167.13 109.42 166.36 106.03 166.43 C 100.91 166.27 96.09 168.25 91.08 168.95 C 87.03 169.38 81.61 168.94 80.40 164.23 C 82.44 161.98 84.14 159.24 86.99 157.91 C 91.43 155.55 96.24 153.40 99.50 149.42 C 101.98 145.79 101.89 141.17 102.16 136.95 C 102.55 136.55 103.34 135.74 103.73 135.33 C 97.28 132.49 90.15 131.65 83.92 128.31 C 82.88 129.56 81.85 130.82 80.81 132.08 C 76.88 131.11 73.19 129.40 69.86 127.11 C 69.56 120.28 70.64 113.45 72.76 106.97 C 74.22 103.09 73.08 98.99 73.15 94.99 C 73.17 90.75 74.31 86.63 75.79 82.68 C 77.42 78.72 76.18 74.29 77.45 70.24 C 78.10 67.91 79.25 65.58 78.92 63.09 C 78.48 59.57 77.03 56.07 77.83 52.50 C 78.76 48.69 83.11 46.69 84.02 43.08 C 83.61 36.64 74.93 37.30 73.03 31.93 C 73.10 27.91 74.40 24.04 75.38 20.18 C 76.85 15.95 79.20 11.25 83.76 9.74 C 90.24 7.80 97.28 10.47 102.16 14.82 C 105.73 19.62 104.14 25.86 102.34 31.03 C 103.08 32.79 103.66 34.65 104.76 36.23 C 106.90 37.51 109.41 38.09 111.50 39.48 C 117.33 44.63 124.66 47.71 131.90 50.39 C 134.81 51.93 136.63 54.85 138.79 57.24 C 138.60 38.16 138.76 19.08 138.71 0.00 M 82.38 12.55 C 77.21 17.05 76.66 24.29 74.01 30.22 C 75.83 35.24 82.74 34.43 84.51 39.40 C 86.09 43.11 90.44 44.62 91.55 48.58 C 88.85 48.00 87.42 44.59 84.39 45.36 C 85.33 46.81 86.40 48.17 87.42 49.57 C 89.05 50.08 90.79 50.63 91.56 52.35 C 92.58 49.31 95.64 47.67 98.78 48.21 L 99.24 48.67 C 99.42 49.20 99.79 50.27 99.97 50.80 L 101.36 50.07 C 100.86 54.35 101.98 58.89 104.90 62.13 C 107.34 63.85 109.98 65.32 112.20 67.35 C 111.42 67.44 109.85 67.60 109.07 67.68 C 109.09 73.20 110.56 78.58 111.07 84.06 C 111.07 85.82 112.67 86.51 114.19 86.60 C 114.01 94.05 112.05 101.43 112.71 108.92 C 113.17 113.29 114.77 117.61 114.02 122.04 C 113.29 127.56 112.11 133.01 111.32 138.52 C 113.01 139.37 114.63 140.44 116.47 140.92 C 118.43 141.33 120.14 140.00 122.00 139.66 C 127.39 141.21 132.43 143.79 137.87 145.22 C 137.82 144.48 137.71 142.99 137.66 142.24 C 132.77 140.41 127.72 139.01 122.97 136.83 C 122.86 137.40 122.64 138.54 122.53 139.11 C 122.01 138.91 120.98 138.50 120.47 138.29 C 120.94 137.17 121.41 136.03 121.87 134.90 C 122.35 134.53 123.30 133.80 123.77 133.43 C 123.72 129.35 120.26 126.03 121.12 121.90 C 121.78 117.24 122.62 112.60 123.75 108.02 C 123.63 105.05 123.30 101.98 124.20 99.10 C 125.02 96.36 125.64 92.93 123.25 90.77 C 123.91 89.81 123.72 87.74 125.14 87.48 C 126.61 90.86 127.17 94.59 126.66 98.25 C 130.82 98.40 134.83 99.62 138.77 100.84 C 138.23 95.34 139.84 89.45 137.51 84.25 C 136.60 84.50 134.79 85.01 133.88 85.26 C 134.10 84.64 134.54 83.41 134.76 82.79 C 132.24 83.10 129.70 83.28 127.16 83.18 C 127.18 82.93 127.22 82.43 127.24 82.18 C 130.98 80.39 136.09 80.56 138.60 76.80 C 138.84 71.64 138.90 66.45 138.57 61.30 C 135.69 55.28 129.98 51.16 123.55 49.67 C 123.69 52.42 123.72 55.18 123.79 57.94 C 124.86 57.91 127.01 57.84 128.09 57.80 C 127.11 60.37 124.13 59.87 121.99 60.56 C 121.51 56.71 122.46 52.91 122.62 49.09 C 120.53 46.94 117.46 46.47 114.91 45.12 C 112.51 43.24 110.73 40.45 107.68 39.49 C 106.03 38.58 103.58 38.51 102.75 36.57 C 101.85 34.77 100.86 32.98 100.33 31.03 C 101.14 28.10 102.91 25.27 102.38 22.11 C 102.24 18.63 100.03 15.52 97.01 13.88 C 92.79 11.11 86.85 9.21 82.38 12.55 M 83.15 47.45 C 79.84 50.22 78.19 54.83 79.95 58.93 C 81.15 61.67 81.87 64.76 80.42 67.59 C 78.36 71.42 79.38 75.81 78.88 79.94 C 78.19 83.12 76.36 85.92 75.73 89.12 C 74.23 95.36 75.86 101.85 74.41 108.10 C 74.02 112.01 72.55 115.84 72.89 119.79 C 72.63 121.76 71.21 124.18 73.04 125.79 C 75.41 127.88 78.88 129.48 82.05 128.34 C 81.09 126.95 79.79 125.71 79.30 124.04 C 79.85 121.95 81.31 120.96 83.66 121.07 C 83.06 122.04 81.87 123.98 81.27 124.95 C 89.64 129.01 98.42 132.17 107.24 135.09 C 107.67 133.71 108.08 132.32 108.50 130.94 C 101.62 129.08 94.95 126.52 88.07 124.65 C 86.44 124.30 84.27 123.25 85.16 121.10 C 90.77 123.86 97.00 124.97 102.58 127.79 C 102.55 124.25 102.56 120.68 103.30 117.20 C 103.96 116.55 104.64 115.91 105.33 115.29 C 105.34 119.64 104.11 124.02 105.27 128.32 C 106.11 128.69 107.79 129.44 108.63 129.81 C 108.99 125.14 109.15 120.34 110.87 115.93 C 111.87 113.61 110.91 111.13 110.50 108.79 C 110.41 110.39 110.34 111.98 110.28 113.58 C 109.45 113.53 108.62 113.48 107.80 113.44 C 107.77 112.53 107.71 110.72 107.68 109.82 C 108.68 108.41 109.75 107.05 110.90 105.76 C 109.92 105.18 108.95 104.61 107.97 104.04 C 108.63 102.85 109.52 101.86 110.77 101.28 C 110.70 98.97 110.61 96.67 110.50 94.37 C 111.12 92.90 111.60 91.38 111.79 89.79 C 109.93 94.52 108.16 99.30 105.44 103.62 C 102.99 107.14 104.62 111.50 105.13 115.34 C 104.45 115.31 103.07 115.24 102.38 115.21 C 102.66 111.14 102.21 107.02 102.90 102.98 C 103.83 99.94 106.30 97.69 107.54 94.80 C 108.38 92.75 109.41 90.78 110.68 88.96 C 109.38 86.27 108.53 83.39 108.20 80.42 C 106.18 79.83 104.12 79.38 102.09 78.84 C 98.11 77.67 95.13 74.63 91.54 72.72 C 90.84 76.19 89.65 79.55 88.98 83.03 C 88.14 87.17 90.22 91.56 88.36 95.54 C 87.08 98.83 86.61 102.46 84.53 105.40 C 82.67 107.96 82.27 111.13 81.69 114.14 C 83.51 116.27 85.36 118.39 86.90 120.74 C 83.37 120.53 82.41 116.75 79.82 115.00 C 79.63 108.37 84.67 103.45 85.53 97.08 C 87.31 92.55 86.36 87.66 86.83 82.96 C 87.53 79.25 88.70 75.64 89.23 71.89 C 86.57 68.38 85.62 64.04 84.57 59.85 C 84.04 57.92 84.82 55.98 86.45 54.87 C 86.07 59.60 87.57 64.18 89.30 68.51 C 90.67 71.85 94.67 72.08 97.61 70.96 L 96.19 70.07 C 97.53 67.36 95.07 65.50 93.93 63.34 C 96.32 65.29 97.29 68.39 99.47 70.53 C 101.74 71.72 104.35 70.98 106.77 70.87 C 106.92 69.59 107.07 68.31 107.23 67.03 C 102.29 64.06 98.87 58.03 99.32 52.25 C 98.89 51.56 98.46 50.87 98.01 50.19 C 97.02 50.31 95.03 50.54 94.03 50.65 C 93.81 51.26 93.38 52.48 93.16 53.10 C 92.36 53.25 90.75 53.56 89.95 53.71 C 89.48 53.08 88.55 51.83 88.09 51.20 C 87.49 51.20 86.29 51.21 85.69 51.21 C 84.89 49.93 84.07 48.66 83.15 47.45 M 95.88 73.59 C 99.42 76.35 103.76 77.44 108.08 78.29 C 107.65 76.31 107.20 74.33 106.79 72.35 C 103.83 72.74 100.48 74.05 97.98 71.65 C 97.27 72.28 96.58 72.94 95.88 73.59 M 126.83 99.11 C 126.88 102.47 127.16 105.93 126.03 109.16 C 124.87 114.66 121.64 120.34 123.99 125.99 C 125.58 129.20 124.94 133.13 126.95 136.13 C 129.37 137.29 131.98 137.98 134.47 138.94 C 134.86 138.36 135.64 137.18 136.04 136.60 C 135.79 137.32 135.29 138.75 135.04 139.47 L 137.92 139.54 C 137.85 135.67 137.57 131.81 137.28 127.96 C 136.93 123.67 138.83 119.63 138.76 115.36 C 136.65 117.69 136.13 120.86 134.58 123.51 C 134.33 121.46 133.66 119.30 134.50 117.30 C 135.21 115.09 137.34 113.81 138.55 111.91 C 138.85 109.54 138.73 107.15 138.79 104.77 C 135.50 101.65 131.03 100.47 126.83 99.11 M 140.30 127.04 C 140.19 140.51 140.33 153.99 140.27 167.46 C 141.19 168.10 143.02 169.39 143.93 170.03 C 142.66 163.37 143.18 156.56 144.21 149.92 C 144.45 142.56 144.28 135.18 144.23 127.82 C 142.92 127.55 141.61 127.30 140.30 127.04 M 145.94 127.67 C 145.75 133.86 145.89 140.06 146.19 146.24 C 147.75 143.02 150.07 139.84 149.90 136.09 C 149.94 132.85 149.86 129.61 149.87 126.38 C 148.56 126.81 147.25 127.24 145.94 127.67 M 167.27 133.38 C 159.45 136.10 154.81 143.66 151.72 150.90 C 150.59 155.23 149.56 159.66 149.75 164.16 C 149.82 169.58 152.63 174.44 156.10 178.42 C 162.92 180.96 170.55 177.28 175.18 172.16 C 177.63 169.83 178.69 166.05 182.06 164.79 C 178.17 163.14 173.74 162.34 170.40 159.63 C 169.83 157.56 170.95 154.40 172.95 153.73 C 176.54 155.13 180.05 156.76 183.69 158.04 C 183.44 150.92 185.79 142.34 180.36 136.58 C 176.89 133.60 171.75 131.15 167.27 133.38 M 104.51 135.75 C 104.22 140.35 105.55 145.48 102.76 149.57 C 99.09 155.57 92.03 158.10 85.98 160.99 C 83.37 162.38 83.84 166.01 87.02 166.06 C 89.53 167.15 92.28 167.01 94.94 166.86 C 94.84 166.48 94.64 165.73 94.54 165.35 C 94.75 165.58 95.18 166.03 95.39 166.26 C 100.38 162.82 106.62 163.51 112.26 164.43 C 112.94 164.04 114.29 163.27 114.97 162.88 C 114.62 160.48 114.10 158.11 113.45 155.77 C 112.21 157.65 110.69 159.31 108.95 160.75 C 108.45 158.18 110.40 156.14 111.28 153.91 L 112.61 154.74 C 112.56 150.44 112.86 146.16 113.20 141.89 C 111.50 140.99 109.79 140.10 108.10 139.18 C 107.81 137.26 106.03 136.57 104.51 135.75 M 127.14 144.18 C 127.37 147.28 127.59 150.44 128.70 153.39 C 130.93 159.02 131.16 165.38 129.34 171.16 C 125.35 173.89 121.33 176.59 117.32 179.28 C 114.72 181.65 111.02 181.54 107.95 182.90 C 108.06 183.29 108.29 184.08 108.41 184.47 C 111.87 185.99 115.47 187.23 119.12 188.18 C 125.61 187.13 132.15 186.66 138.71 186.27 C 138.69 183.55 138.67 180.82 138.77 178.10 C 137.71 179.25 136.59 180.36 135.31 181.27 C 135.36 179.32 136.44 177.71 137.32 176.07 C 137.21 174.50 137.08 172.94 136.93 171.38 C 137.43 171.73 138.42 172.44 138.92 172.80 C 137.18 166.38 137.96 159.71 137.70 153.15 C 137.23 153.36 136.28 153.76 135.80 153.97 C 136.23 152.03 136.12 149.61 138.43 148.84 C 134.97 146.59 130.99 145.52 127.14 144.18 M 171.19 157.78 C 174.50 159.74 178.32 160.62 181.82 162.18 C 185.17 163.46 188.12 165.99 191.88 165.94 C 191.37 164.36 190.89 162.31 188.92 162.05 C 183.88 160.48 178.95 158.60 174.03 156.69 C 172.85 156.20 170.37 155.60 171.19 157.78 Z" />
<path fill="#333333" opacity="1.00" d=" M 104.91 49.59 C 107.40 45.47 112.84 46.27 116.24 48.71 C 112.42 48.55 108.52 47.98 104.91 49.59 Z" />
<path fill="#333333" opacity="1.00" d=" M 116.47 63.16 C 115.65 59.06 117.13 54.41 120.74 52.07 C 119.72 55.90 117.91 59.47 116.47 63.16 Z" />
<path fill="#333333" opacity="1.00" d=" M 122.24 62.23 C 122.84 61.59 123.44 60.96 124.05 60.32 C 124.24 62.21 124.47 64.10 124.73 65.98 C 129.60 67.54 132.32 62.01 136.94 62.32 C 136.36 63.47 135.75 64.61 135.13 65.74 C 136.17 66.25 138.06 66.29 138.03 67.86 C 133.64 67.24 129.28 68.49 124.87 67.99 C 125.45 70.71 126.12 73.42 126.57 76.17 C 127.26 79.61 125.90 83.00 125.89 86.44 C 125.16 86.81 123.70 87.55 122.97 87.92 C 125.88 79.39 122.57 70.82 122.24 62.23 Z" />
<path fill="#333333" opacity="1.00" d=" M 152.00 69.93 C 152.00 68.62 152.00 67.32 152.01 66.01 C 155.32 69.40 160.07 73.61 158.24 78.92 C 155.90 85.38 155.75 92.39 152.93 98.71 C 152.47 98.00 152.01 97.30 151.57 96.59 C 152.73 92.74 153.76 88.86 154.30 84.87 C 154.82 81.25 156.45 77.73 155.85 74.01 C 155.15 72.20 153.80 70.72 152.72 69.13 L 152.00 69.93 Z" />
<path fill="#333333" opacity="1.00" d=" M 118.70 74.08 C 120.29 74.34 121.89 74.60 123.48 74.86 C 122.40 76.15 120.96 76.93 119.29 77.18 C 119.34 80.62 119.84 84.02 120.79 87.33 C 117.51 86.43 117.97 82.66 117.70 80.01 C 117.44 77.96 117.98 75.97 118.70 74.08 Z" />
<path fill="#333333" opacity="1.00" d=" M 80.11 80.80 C 82.08 82.49 83.94 84.56 83.86 87.36 C 82.14 85.47 80.98 83.17 80.11 80.80 Z" />
<path fill="#333333" opacity="1.00" d=" M 115.78 102.92 C 118.26 99.14 121.26 95.52 121.97 90.90 C 125.10 95.51 119.73 99.15 117.69 102.79 C 117.43 105.70 117.36 108.65 116.62 111.50 C 115.00 108.93 115.95 105.77 115.78 102.92 Z" />
<path fill="#333333" opacity="1.00" d=" M 129.59 119.65 C 130.76 116.02 127.21 113.53 127.62 110.09 C 129.39 111.56 130.96 113.25 132.44 115.00 C 131.51 116.56 130.56 118.11 129.59 119.65 Z" />
<path fill="#333333" opacity="1.00" d=" M 127.43 128.08 C 127.78 126.07 128.53 123.46 131.06 123.50 C 130.59 125.03 130.10 126.55 129.59 128.06 C 129.90 129.82 130.16 131.59 130.36 133.37 C 129.11 131.82 127.25 130.27 127.43 128.08 Z" />
<path fill="#333333" opacity="1.00" d=" M 105.46 150.29 C 107.46 150.46 105.73 153.09 105.02 153.94 C 101.72 156.99 97.95 159.81 93.63 161.21 C 94.64 158.20 97.75 156.98 100.12 155.24 C 102.22 153.96 103.73 151.99 105.46 150.29 Z" />
<path fill="#333333" opacity="1.00" d=" M 143.92 171.69 C 145.30 173.47 145.96 175.66 145.98 177.90 C 146.12 184.28 145.95 190.66 146.03 197.05 C 145.55 197.05 144.60 197.06 144.12 197.07 C 144.03 188.61 144.07 180.15 143.92 171.69 Z" />
</g>
</svg>
