<?xml version="1.0" encoding="UTF-8" ?>
<!DOCTYPE svg PUBLIC "-//W3C//DTD SVG 1.1//EN" "http://www.w3.org/Graphics/SVG/1.1/DTD/svg11.dtd">
<svg width="225pt" height="222pt" viewBox="0 0 225 222" version="1.1" xmlns="http://www.w3.org/2000/svg"><g id="#51524fff">
<path fill="#333333" opacity="1.00" d=" M 132.78 18.35 C 131.55 17.53 130.30 16.74 129.21 15.73 C 135.03 15.52 138.47 21.08 140.25 25.87 C 141.60 24.23 143.21 22.81 145.19 21.97 C 147.50 21.84 150.12 20.05 152.19 21.71 C 158.81 26.11 161.65 35.18 159.71 42.72 C 159.04 46.22 155.18 46.87 152.35 47.88 C 159.38 39.81 154.94 26.42 145.49 22.42 C 143.45 24.43 142.01 26.92 140.83 29.51 C 143.47 28.72 145.83 30.66 148.29 31.29 C 150.59 36.20 149.53 41.73 150.75 46.87 C 151.38 51.55 153.13 55.96 154.13 60.55 C 155.55 66.27 154.28 72.17 154.95 77.97 C 155.60 82.77 155.70 87.64 156.40 92.44 C 160.52 92.17 165.59 93.66 166.82 98.09 C 167.65 102.94 169.07 108.22 166.90 112.91 C 165.42 117.14 160.34 119.80 156.06 118.26 C 155.58 119.12 155.10 119.99 154.63 120.87 C 151.87 123.43 147.92 122.21 144.74 123.77 C 137.50 126.34 129.48 128.52 121.90 126.05 C 117.86 124.54 113.56 125.71 109.71 127.21 C 108.52 128.62 106.83 129.24 105.05 129.54 C 104.96 130.08 104.77 131.15 104.68 131.69 C 102.39 133.50 100.20 135.67 97.24 136.32 C 93.66 137.53 89.83 136.78 86.15 137.34 C 83.67 137.88 81.30 138.83 78.88 139.61 C 75.18 138.80 71.72 141.00 68.03 141.01 C 64.53 141.04 60.96 140.68 57.62 142.00 C 57.27 141.96 56.59 141.88 56.25 141.84 L 55.75 141.41 L 55.24 140.99 C 54.13 148.21 58.70 154.69 58.45 161.90 C 57.81 171.18 57.85 181.06 62.36 189.47 C 64.64 193.99 65.52 200.17 61.25 203.85 C 56.02 204.93 50.45 205.12 45.75 207.90 C 41.75 210.13 37.27 211.19 32.95 212.61 C 27.57 213.00 23.37 209.30 19.05 206.73 C 19.63 205.55 20.22 204.38 20.83 203.22 C 23.53 201.77 25.98 199.78 28.99 199.00 C 33.20 198.01 35.55 194.07 38.17 191.02 C 33.14 191.43 29.10 194.29 25.26 197.25 C 21.82 198.45 18.00 198.19 14.47 199.21 C 12.21 199.96 10.28 198.38 9.05 196.65 C 9.26 195.11 9.53 193.56 10.09 192.11 C 12.60 189.08 16.97 188.35 19.15 184.95 C 22.33 180.46 28.17 177.83 29.20 171.97 C 30.28 164.48 26.57 157.43 26.13 150.04 C 25.80 142.67 25.23 135.33 24.55 127.99 C 24.50 123.97 26.21 119.56 30.27 118.12 C 37.40 112.67 45.99 109.07 54.96 108.28 C 57.07 108.08 58.88 106.86 60.87 106.25 C 63.94 106.28 66.95 107.11 70.03 106.94 C 73.12 107.02 75.88 105.44 78.87 104.96 C 82.18 104.69 85.45 105.43 88.72 105.81 C 90.78 104.38 93.05 103.21 95.57 102.87 C 103.53 101.53 107.85 91.05 116.67 92.76 C 115.18 87.96 113.82 82.63 115.62 77.71 C 117.36 73.28 116.10 68.42 117.64 63.94 C 115.10 58.74 116.86 52.72 118.78 47.61 C 116.30 49.08 113.17 49.21 110.97 47.17 C 104.86 41.87 101.81 32.64 104.80 24.93 C 106.25 21.95 109.98 21.12 112.86 22.40 C 120.75 27.40 123.66 38.78 119.55 47.07 C 120.07 46.78 121.11 46.21 121.63 45.93 C 119.06 51.85 117.32 58.71 119.78 64.98 C 119.25 66.72 118.71 68.45 118.10 70.16 C 119.10 72.85 119.95 75.61 120.29 78.47 C 119.75 77.84 118.69 76.56 118.15 75.93 C 117.48 78.62 116.65 81.30 116.33 84.06 C 116.70 86.85 117.58 89.53 118.17 92.28 C 118.74 93.65 119.28 95.05 119.81 96.45 C 121.22 97.95 123.21 99.31 123.42 101.54 C 123.00 105.85 119.58 108.92 115.85 110.64 C 116.58 108.57 118.03 106.95 119.73 105.62 C 120.27 104.07 120.90 102.55 121.32 100.97 C 121.44 99.20 119.41 98.78 118.30 97.92 C 118.09 96.70 117.84 95.49 117.54 94.28 C 110.55 92.67 105.83 99.08 100.62 102.47 C 100.60 102.86 100.56 103.66 100.55 104.06 C 98.98 104.73 97.42 105.44 95.94 106.31 C 95.47 105.87 95.00 105.44 94.53 105.00 L 96.35 103.77 C 94.71 104.42 93.10 105.12 91.50 105.84 C 96.12 108.48 102.00 109.82 104.86 114.71 C 104.69 114.19 104.33 113.13 104.16 112.61 C 107.22 113.01 110.34 113.47 113.10 114.95 C 110.33 115.23 107.59 114.79 104.88 114.29 C 107.11 117.92 109.17 122.33 107.51 126.62 C 110.86 124.83 114.59 123.93 118.37 123.72 C 118.28 123.09 118.11 121.83 118.02 121.20 C 120.87 120.12 123.79 119.24 126.81 118.80 C 127.73 118.06 128.66 117.33 129.58 116.59 C 128.39 114.96 127.62 113.10 127.64 111.07 C 125.87 110.41 124.19 109.56 122.65 108.48 C 124.92 108.79 127.51 108.72 129.17 110.61 C 131.19 109.73 132.53 107.27 134.80 107.17 C 134.91 108.23 134.26 108.93 132.86 109.28 C 133.27 110.11 133.67 110.94 134.08 111.76 C 135.85 112.09 137.63 112.45 139.41 112.75 C 137.98 113.26 136.55 113.78 135.13 114.32 C 132.77 116.54 130.10 118.39 127.79 120.67 C 125.04 121.72 122.00 121.73 119.12 122.14 C 124.80 125.36 131.81 125.87 138.00 123.90 C 141.70 122.91 145.10 120.63 149.06 120.86 C 151.11 121.05 153.40 120.45 154.34 118.44 C 156.61 113.08 157.28 106.70 154.73 101.32 C 153.32 98.71 154.46 95.77 154.56 93.00 C 155.28 87.33 153.64 81.76 152.42 76.28 C 154.87 71.59 153.03 66.42 152.67 61.50 C 151.33 56.61 149.39 51.89 148.12 46.97 C 148.38 43.03 148.04 39.08 147.75 35.15 C 146.89 32.40 143.76 31.28 141.53 29.86 C 141.21 30.51 140.59 31.81 140.28 32.45 C 142.41 37.73 144.48 43.74 142.10 49.32 C 142.40 50.20 142.70 51.08 143.00 51.97 C 141.72 58.92 141.17 65.97 142.13 73.00 C 141.42 79.18 145.02 84.70 144.84 90.86 C 144.19 90.38 143.54 89.89 142.89 89.41 C 142.61 86.89 142.15 84.40 141.73 81.91 C 141.53 86.25 138.89 90.46 140.32 94.81 C 141.48 99.54 142.53 104.46 141.63 109.34 C 140.40 106.86 139.81 104.06 137.94 101.94 C 136.92 103.31 137.07 105.95 135.01 106.15 C 133.87 105.16 134.89 103.20 134.58 101.86 C 133.97 101.40 132.77 100.47 132.16 100.01 C 134.45 100.89 136.73 101.89 139.23 101.93 C 139.34 101.06 139.56 99.32 139.68 98.45 C 134.28 96.98 128.74 92.74 123.03 94.92 C 122.26 94.90 120.71 94.85 119.94 94.83 C 120.41 93.66 120.87 92.50 121.37 91.35 C 121.42 92.03 121.52 93.39 121.57 94.06 C 126.98 91.91 132.86 93.32 137.68 96.25 C 137.47 87.15 140.95 78.22 139.66 69.05 C 138.14 62.46 141.49 56.01 140.00 49.40 C 143.38 42.10 140.56 31.79 133.25 27.98 C 132.72 27.49 131.67 26.50 131.14 26.00 C 135.35 25.22 137.86 29.40 140.26 32.10 C 139.50 26.90 137.48 21.24 132.78 18.35 M 105.19 29.08 C 104.93 35.10 106.55 41.81 111.55 45.64 C 113.00 46.53 114.93 47.58 116.58 46.54 C 118.90 45.27 119.92 42.50 119.82 39.96 C 120.17 32.65 116.13 25.28 109.25 22.37 C 107.52 24.34 105.53 26.36 105.19 29.08 M 148.64 21.72 C 155.97 27.14 159.16 36.95 156.54 45.66 C 161.65 37.51 157.47 25.36 148.64 21.72 M 156.41 94.15 C 156.43 96.38 155.91 98.75 156.90 100.86 C 159.29 106.04 158.47 112.00 156.89 117.29 C 159.25 116.85 162.08 116.74 163.70 114.68 C 167.22 110.99 165.84 105.50 165.74 100.92 C 165.06 96.43 160.62 94.12 156.41 94.15 M 74.15 108.08 C 75.40 108.75 76.72 109.27 78.04 109.78 C 76.49 110.86 74.92 111.90 73.38 112.99 C 75.64 113.01 77.91 112.98 80.17 112.99 C 82.36 114.55 85.30 114.08 87.58 115.45 C 89.02 116.26 89.48 117.94 90.19 119.32 C 89.62 120.51 89.08 121.71 88.56 122.92 C 89.05 118.29 84.25 115.28 80.05 116.10 C 80.08 115.72 80.16 114.95 80.20 114.57 C 77.23 114.77 74.26 114.67 71.29 114.56 C 71.88 113.07 72.51 111.60 73.14 110.13 L 73.85 110.60 C 73.98 110.11 74.23 109.11 74.36 108.61 C 70.08 108.66 65.81 108.28 61.55 107.96 C 62.00 108.28 62.88 108.92 63.32 109.24 C 63.11 111.11 63.45 113.08 62.75 114.87 C 60.30 114.66 61.32 110.60 59.10 110.12 C 49.08 109.30 39.58 113.83 31.52 119.37 C 28.30 120.57 26.18 123.59 26.18 127.03 C 28.74 135.97 25.03 145.61 28.31 154.46 C 30.07 161.34 32.27 168.84 29.77 175.82 C 28.70 179.16 25.24 180.62 22.99 183.02 C 20.59 185.27 19.22 188.75 15.91 189.86 C 13.60 190.68 11.77 192.33 10.10 194.08 C 11.30 193.89 13.69 193.52 14.88 193.33 C 13.28 194.57 11.55 195.61 9.91 196.80 C 13.53 198.85 17.20 196.32 20.93 196.17 C 24.43 196.21 26.61 193.15 29.45 191.61 C 32.56 189.54 36.41 189.58 39.99 189.16 C 41.52 187.21 43.45 185.40 44.07 182.92 C 45.66 178.66 43.83 174.25 42.95 170.05 C 41.40 164.83 41.54 159.26 39.68 154.11 C 38.11 149.86 38.79 145.19 37.35 140.90 C 35.56 135.97 37.41 129.64 42.28 127.26 C 45.63 125.34 48.02 122.05 51.67 120.62 C 56.99 118.42 62.22 115.71 68.00 114.96 C 69.86 114.86 71.15 116.57 72.36 117.74 C 77.37 123.14 81.08 130.77 79.32 138.24 C 82.50 137.03 85.66 135.68 89.02 135.05 C 92.90 134.46 97.41 135.43 100.57 132.51 C 103.00 130.18 105.31 127.35 106.12 124.02 C 105.78 119.67 103.70 115.36 100.54 112.34 C 92.72 107.82 82.98 105.20 74.15 108.08 M 129.68 113.98 C 131.29 114.52 133.00 114.58 134.68 114.68 C 133.36 113.29 132.05 111.88 131.01 110.26 C 130.22 111.32 129.13 112.53 129.68 113.98 M 52.17 122.08 C 48.53 123.46 46.34 126.92 42.96 128.72 C 40.23 130.01 39.54 133.15 38.12 135.54 C 38.84 139.36 40.42 143.06 40.16 147.02 C 39.85 150.84 42.45 154.02 42.58 157.78 C 43.09 165.96 45.89 173.78 46.54 181.94 C 46.91 184.58 44.91 186.58 43.03 188.08 C 38.98 191.37 37.10 196.76 32.55 199.52 C 28.33 201.35 22.74 202.17 20.53 206.73 C 21.37 206.77 23.04 206.85 23.88 206.89 C 25.66 209.65 28.84 210.51 31.93 210.73 C 36.23 209.75 40.57 208.68 44.40 206.40 C 49.59 203.27 56.03 203.82 61.40 201.27 C 64.63 197.63 61.44 192.59 60.32 188.67 C 57.66 183.46 57.52 177.56 56.77 171.87 C 56.41 166.28 57.76 160.55 56.16 155.06 C 54.86 150.38 53.39 145.74 52.48 140.95 C 54.90 140.04 57.39 138.79 60.06 139.42 C 66.06 140.39 72.52 139.73 77.85 136.65 C 79.30 129.20 74.62 122.10 69.70 116.91 C 63.36 116.43 57.82 119.81 52.17 122.08 Z" />
<path fill="#333333" opacity="1.00" d=" M 123.98 18.10 C 125.56 17.23 127.36 16.91 129.06 16.37 C 132.90 18.84 135.59 22.50 137.78 26.44 C 136.55 26.25 135.34 26.06 134.12 25.87 L 135.42 25.58 C 133.59 21.85 130.38 19.24 126.66 17.54 C 125.13 19.23 123.69 21.03 122.73 23.12 C 124.26 24.02 125.77 24.96 127.24 25.97 C 123.99 25.72 120.82 24.78 118.28 22.65 C 119.09 22.69 120.71 22.75 121.52 22.78 C 122.20 21.17 122.42 19.15 123.98 18.10 Z" />
<path fill="#333333" opacity="1.00" d=" M 120.94 30.09 C 119.47 25.78 115.37 23.49 112.13 20.70 C 117.61 20.69 121.43 25.92 122.81 30.76 C 124.92 26.79 129.46 26.02 133.25 27.98 C 138.51 33.60 141.83 41.86 139.45 49.47 C 138.30 53.11 134.57 54.86 130.96 53.56 C 131.11 56.06 131.60 58.53 131.87 61.02 C 129.49 71.18 134.56 81.56 131.61 91.68 C 130.06 84.80 130.98 77.43 128.03 70.85 C 128.49 70.66 129.42 70.28 129.88 70.08 C 129.41 68.52 128.63 66.92 129.25 65.27 C 130.44 60.98 128.95 56.59 129.35 52.24 C 126.85 49.34 124.35 46.25 123.37 42.47 C 121.99 38.43 123.03 33.93 120.94 30.09 M 128.09 28.00 C 122.23 31.00 123.93 38.71 125.27 43.84 C 126.95 47.43 129.64 51.61 133.98 51.99 C 137.70 51.47 138.62 47.11 138.59 43.98 C 138.35 37.39 135.01 29.81 128.09 28.00 Z" />
<path fill="#333333" opacity="1.00" d=" M 121.41 45.60 C 120.74 44.69 121.60 42.45 122.85 42.85 C 123.55 43.81 122.80 46.09 121.41 45.60 Z" />
<path fill="#333333" opacity="1.00" d=" M 122.36 63.72 C 126.79 66.74 126.09 72.33 125.40 76.93 C 125.82 76.90 126.67 76.85 127.09 76.83 C 126.11 77.20 125.14 77.59 124.17 77.97 C 124.58 73.12 123.34 68.42 122.36 63.72 Z" />
<path fill="#333333" opacity="1.00" d=" M 149.90 69.65 C 150.88 72.74 149.62 76.04 150.76 79.10 C 152.11 83.74 152.79 88.56 152.19 93.38 C 150.35 94.55 148.04 92.74 147.50 90.92 C 148.21 90.80 149.63 90.54 150.34 90.42 C 151.46 85.41 150.64 80.39 147.92 76.06 C 148.46 73.89 149.09 71.74 149.90 69.65 Z" />
<path fill="#333333" opacity="1.00" d=" M 120.39 79.02 C 124.09 81.48 125.95 86.05 126.48 90.32 C 123.13 87.51 121.80 83.02 120.39 79.02 Z" />
<path fill="#333333" opacity="1.00" d=" M 109.74 102.03 C 110.81 100.29 111.95 98.59 113.26 97.02 C 112.88 98.68 112.46 100.33 112.03 101.98 C 109.70 102.90 107.34 103.75 104.98 104.59 C 103.79 103.79 102.62 102.98 101.53 102.07 C 103.39 102.39 105.20 102.92 106.99 103.54 C 107.90 103.04 108.82 102.53 109.74 102.03 Z" />
<path fill="#333333" opacity="1.00" d=" M 131.83 102.11 C 129.07 101.79 125.75 101.46 125.24 98.15 C 125.84 98.55 127.06 99.34 127.66 99.73 C 128.23 99.81 129.36 99.95 129.93 100.03 C 130.57 100.72 131.20 101.42 131.83 102.11 Z" />
<path fill="#333333" opacity="1.00" d=" M 125.57 104.12 C 127.49 105.17 129.33 106.34 131.17 107.52 C 128.46 108.55 126.61 106.35 125.57 104.12 Z" />
<path fill="#333333" opacity="1.00" d=" M 106.96 104.67 C 110.24 104.10 112.71 105.72 113.95 108.64 C 111.38 107.78 109.17 106.19 106.96 104.67 Z" />
<path fill="#333333" opacity="1.00" d=" M 79.41 110.12 C 83.90 110.88 89.87 110.96 92.27 115.54 C 87.93 113.89 83.44 112.46 79.41 110.12 Z" />
<path fill="#333333" opacity="1.00" d=" M 107.72 111.25 C 110.19 111.23 112.65 111.54 115.07 112.02 C 115.21 112.52 115.50 113.54 115.64 114.05 C 112.95 113.24 110.29 112.38 107.72 111.25 Z" />
<path fill="#333333" opacity="1.00" d=" M 120.58 110.42 C 122.81 111.37 124.95 112.58 126.78 114.20 C 123.89 114.62 121.69 112.96 120.58 110.42 Z" />
<path fill="#333333" opacity="1.00" d=" M 117.35 113.36 C 118.82 112.91 120.84 115.18 120.20 116.60 C 118.57 117.22 116.70 114.86 117.35 113.36 Z" />
<path fill="#333333" opacity="1.00" d=" M 33.62 121.29 C 33.96 121.05 34.62 120.57 34.95 120.32 C 36.16 123.42 39.25 123.96 42.20 124.26 C 40.81 124.89 39.34 125.79 37.76 125.19 C 35.70 124.88 34.85 122.69 33.62 121.29 Z" />
<path fill="#333333" opacity="1.00" d=" M 57.61 130.24 C 61.21 126.32 65.90 123.36 71.13 122.20 C 66.72 125.01 62.89 129.18 57.61 130.24 Z" />
<path fill="#333333" opacity="1.00" d=" M 137.12 130.47 C 145.61 128.15 154.67 127.75 162.64 123.73 C 160.74 127.49 156.36 128.60 152.62 129.54 C 148.49 130.42 144.44 131.94 140.17 131.79 C 140.41 137.83 140.31 143.88 140.97 149.89 C 145.27 151.61 149.66 153.11 153.92 154.92 C 156.60 155.63 156.30 158.95 156.51 161.13 C 156.91 163.02 155.07 163.90 153.84 164.86 C 151.91 166.12 150.05 167.62 147.84 168.35 C 142.21 167.34 137.66 162.92 132.01 162.14 C 116.58 172.30 101.54 183.11 86.67 194.08 C 83.22 191.81 79.82 189.47 76.48 187.04 C 76.40 174.28 76.51 161.52 76.36 148.77 C 72.41 149.97 69.40 153.99 64.91 153.08 C 61.39 152.01 57.85 150.28 55.65 147.21 C 59.67 147.70 62.73 152.08 66.98 150.87 C 70.25 150.08 73.13 148.26 76.36 147.35 C 96.52 141.39 116.81 135.90 137.12 130.47 M 130.90 133.95 C 130.80 138.22 130.82 142.48 130.60 146.74 C 126.83 146.24 123.23 144.97 119.71 143.59 C 117.38 144.80 115.10 146.08 112.81 147.35 C 113.06 148.35 113.37 149.34 113.72 150.32 C 116.48 152.17 119.62 153.34 122.57 154.85 C 121.28 156.72 120.00 158.68 118.05 159.94 C 108.47 166.71 98.63 173.12 89.18 180.07 C 88.18 180.93 86.91 181.22 85.66 181.47 C 86.12 169.70 86.33 157.90 86.01 146.13 C 83.42 146.83 80.85 147.59 78.31 148.42 C 78.26 160.83 78.12 173.25 78.31 185.65 C 80.45 187.77 83.06 189.33 85.41 191.19 C 86.53 190.71 87.68 190.26 88.74 189.65 C 102.61 179.34 116.93 169.63 130.82 159.33 C 136.11 161.93 141.84 163.48 146.98 166.41 C 149.80 165.25 152.35 163.54 154.80 161.74 C 154.50 160.13 154.20 158.52 153.91 156.90 C 148.86 154.91 143.77 153.03 138.68 151.14 C 138.13 144.87 137.93 138.51 137.71 132.20 C 135.45 132.81 133.17 133.38 130.90 133.95 M 94.60 143.54 C 92.25 144.22 89.85 144.83 87.69 145.98 C 88.21 156.67 88.49 167.40 88.48 178.12 C 99.22 170.78 109.72 163.11 120.58 155.97 C 117.66 154.56 114.73 153.17 111.83 151.73 C 111.47 150.13 111.07 148.54 110.91 146.91 C 112.36 144.95 114.77 144.03 116.81 142.81 C 120.79 140.18 125.06 143.90 129.00 144.92 C 128.97 141.39 128.95 137.87 128.92 134.34 C 117.50 137.46 106.07 140.59 94.60 143.54 Z" />
<path fill="#333333" opacity="1.00" d=" M 29.82 125.82 C 32.25 126.83 33.21 129.53 32.44 131.98 C 32.70 132.01 33.22 132.07 33.48 132.10 C 32.70 134.04 31.99 136.02 31.14 137.93 C 31.01 136.43 30.90 134.94 30.80 133.44 C 30.44 130.90 29.86 128.39 29.82 125.82 Z" />
<path fill="#333333" opacity="1.00" d=" M 47.56 129.41 C 49.38 129.87 51.18 130.40 53.00 130.85 C 52.66 131.24 51.99 132.00 51.66 132.39 C 49.86 132.05 48.32 131.12 47.56 129.41 Z" />
<path fill="#333333" opacity="1.00" d=" M 42.45 141.36 C 43.30 137.92 42.68 133.03 47.05 132.00 C 46.43 133.10 45.77 134.18 45.09 135.24 C 45.04 136.52 44.99 137.81 44.95 139.09 C 44.12 139.85 43.28 140.61 42.45 141.36 Z" />
<path fill="#333333" opacity="1.00" d=" M 49.70 156.47 C 49.29 154.32 49.78 152.14 50.23 150.04 C 50.48 157.71 53.42 164.96 53.85 172.58 C 51.18 167.61 50.79 161.90 49.70 156.47 Z" />
<path fill="#333333" opacity="1.00" d=" M 46.60 152.18 C 47.34 153.68 47.86 155.29 47.81 156.99 C 47.93 161.75 48.83 166.44 49.21 171.18 C 47.23 165.07 46.16 158.61 46.60 152.18 Z" />
<path fill="#333333" opacity="1.00" d=" M 40.03 175.19 C 40.55 175.46 41.60 176.01 42.12 176.29 C 42.68 180.83 39.91 185.47 35.86 187.49 C 37.73 184.36 39.79 181.31 41.03 177.86 C 40.70 176.97 40.36 176.08 40.03 175.19 Z" />
<path fill="#333333" opacity="1.00" d=" M 25.98 187.99 C 27.46 185.01 29.78 182.48 32.91 181.23 C 30.93 183.79 28.58 186.06 25.98 187.99 Z" />
<path fill="#333333" opacity="1.00" d=" M 54.53 194.23 C 55.16 193.37 55.79 192.51 56.43 191.66 C 58.12 195.02 53.80 196.49 51.27 196.93 C 52.29 195.95 53.39 195.07 54.53 194.23 Z" />
<path fill="#333333" opacity="1.00" d=" M 41.51 201.37 C 42.20 198.31 44.25 195.81 46.73 194.00 C 45.54 196.80 43.73 199.30 41.51 201.37 Z" />
<path fill="#333333" opacity="1.00" d=" M 26.40 204.00 C 29.46 203.22 32.77 204.24 34.61 206.88 C 31.61 206.87 28.91 205.52 26.40 204.00 Z" />
</g>
</svg>
