<?xml version="1.0" encoding="UTF-8" ?>
<!DOCTYPE svg PUBLIC "-//W3C//DTD SVG 1.1//EN" "http://www.w3.org/Graphics/SVG/1.1/DTD/svg11.dtd">
<svg width="227pt" height="300pt" viewBox="0 0 227 300" version="1.1" xmlns="http://www.w3.org/2000/svg"><g id="#434443ff">
<path fill="#333333" opacity="1.00" d=" M 82.76 22.00 C 87.68 18.35 93.90 16.41 100.03 17.23 C 105.28 17.85 111.36 18.57 114.57 23.37 C 116.27 23.42 118.35 22.77 119.69 24.21 C 122.05 25.80 121.14 28.89 121.30 31.27 C 125.97 38.04 134.96 40.62 138.31 48.47 C 140.56 52.55 140.07 57.79 143.10 61.41 C 143.42 64.44 143.19 67.51 142.49 70.48 C 141.59 74.79 142.91 79.30 141.71 83.55 C 139.20 89.86 136.18 95.94 133.31 102.08 C 132.79 107.35 134.18 113.16 131.23 117.92 C 130.10 124.30 131.20 131.33 127.38 136.99 C 127.57 140.24 127.59 143.53 128.32 146.73 C 129.32 148.53 131.40 149.80 131.40 152.06 C 131.68 154.16 130.60 156.12 130.26 158.15 C 131.72 163.36 134.75 168.08 135.32 173.54 C 135.45 175.27 136.86 176.42 137.89 177.66 C 137.92 178.25 137.99 179.42 138.02 180.00 C 137.15 180.44 136.28 180.89 135.41 181.34 C 136.07 185.82 136.44 190.35 136.24 194.88 C 135.89 198.07 138.63 200.81 137.82 204.02 C 136.31 210.15 136.24 216.69 137.58 222.87 C 139.00 231.14 136.48 240.04 139.85 247.95 C 143.86 250.97 146.60 255.35 150.68 258.25 C 152.96 260.14 156.61 258.99 158.45 261.54 C 159.06 262.56 160.76 263.58 159.98 264.93 C 159.26 267.58 156.21 268.00 154.10 269.10 C 151.19 270.82 147.92 268.76 144.80 269.47 C 142.49 268.42 140.28 267.13 137.87 266.32 C 134.94 265.68 132.00 267.11 129.06 266.61 C 127.41 266.23 125.97 265.30 124.49 264.53 C 122.98 256.11 128.62 248.27 126.50 239.88 C 125.89 235.10 122.53 231.38 121.15 226.87 C 120.97 221.54 121.53 216.20 122.80 211.03 C 121.95 209.30 120.97 207.63 120.27 205.84 C 119.42 202.85 120.31 199.33 118.28 196.71 C 116.34 193.87 114.62 190.90 113.14 187.80 C 109.39 191.04 110.87 196.27 109.41 200.50 C 108.81 203.76 106.63 206.33 105.25 209.25 C 103.98 213.52 102.05 217.58 101.25 221.99 C 100.41 227.43 101.87 233.06 100.54 238.42 C 97.41 245.63 96.69 253.86 98.22 261.55 C 98.96 265.31 101.69 268.18 103.31 271.56 C 105.71 276.31 111.08 279.50 111.35 285.27 C 109.91 286.29 108.30 286.99 106.56 287.30 C 100.49 291.90 88.32 288.79 88.38 280.17 C 87.89 277.38 85.90 275.04 85.84 272.16 C 85.80 269.80 85.11 267.54 84.45 265.30 C 85.17 261.61 85.70 257.80 85.15 254.05 C 84.42 247.47 81.20 241.24 81.72 234.52 C 82.38 229.77 84.08 225.25 85.63 220.74 C 86.42 217.22 86.30 213.56 86.96 210.01 C 87.35 206.88 88.86 204.03 89.31 200.92 C 89.18 196.69 88.50 192.45 89.25 188.23 C 86.70 190.35 84.97 186.81 83.71 185.02 C 84.49 182.57 87.08 180.87 86.87 178.08 C 86.95 172.95 89.32 168.18 89.16 163.04 C 89.22 159.63 87.47 156.41 88.00 152.98 C 89.09 150.57 90.91 148.58 92.58 146.55 C 92.85 146.59 93.38 146.66 93.65 146.70 C 90.70 143.05 91.43 137.91 91.23 133.49 C 87.35 131.27 86.19 126.78 83.63 123.41 C 81.42 120.34 80.60 116.56 80.23 112.86 C 78.49 111.09 78.79 108.64 78.70 106.37 C 77.71 103.28 75.30 100.93 73.95 98.01 C 73.41 92.38 73.43 86.70 73.68 81.05 C 74.13 77.85 71.37 75.13 71.99 71.94 C 73.28 66.22 72.90 60.24 74.56 54.58 C 75.92 50.07 77.64 45.62 78.18 40.90 C 77.26 37.63 75.20 32.52 79.30 30.55 C 79.23 29.95 79.08 28.76 79.01 28.17 C 79.96 26.94 80.91 25.71 81.87 24.50 C 81.54 25.91 81.22 27.33 80.89 28.75 L 80.18 28.19 C 79.98 31.59 78.11 35.27 80.19 38.43 C 80.61 44.98 77.08 50.74 75.98 57.04 C 74.63 61.96 74.76 67.09 74.45 72.14 C 74.45 75.82 76.37 79.24 75.91 82.95 C 75.89 89.71 74.79 97.88 80.63 102.74 C 80.72 106.56 79.90 110.89 82.60 114.04 C 83.33 119.28 86.72 123.48 88.44 128.36 C 90.08 129.43 91.96 130.33 93.10 131.99 C 93.86 136.24 93.68 140.60 94.44 144.85 C 97.56 148.07 102.39 147.65 106.49 147.78 C 105.07 145.03 103.72 142.24 102.72 139.31 C 103.32 139.42 104.53 139.64 105.13 139.75 C 106.02 142.69 106.60 145.71 106.87 148.77 C 113.58 149.11 120.48 148.18 126.48 145.00 C 126.17 143.13 126.72 141.00 125.67 139.32 C 124.35 138.41 122.94 137.64 121.66 136.68 C 121.99 136.04 122.34 135.40 122.71 134.78 C 123.56 135.52 124.20 137.50 125.69 136.81 C 128.26 134.90 127.21 131.01 127.98 128.24 L 126.92 128.21 C 126.51 125.86 125.59 123.67 123.55 122.28 C 121.86 122.83 120.16 123.36 118.48 123.93 C 118.36 121.33 117.35 118.93 116.06 116.70 C 117.00 116.65 117.93 116.60 118.87 116.55 C 118.02 118.62 118.96 120.65 119.61 122.61 C 121.60 121.50 123.69 120.44 126.05 120.68 C 126.11 121.94 126.17 123.21 126.23 124.47 C 126.92 124.56 128.31 124.75 129.00 124.84 C 129.77 122.11 129.36 119.34 128.44 116.71 C 129.04 116.91 130.25 117.31 130.85 117.51 C 132.38 112.20 131.03 106.53 132.65 101.29 C 132.83 99.23 133.17 97.14 134.42 95.44 C 137.15 91.33 139.51 86.91 140.81 82.13 C 141.72 79.10 140.24 76.07 140.19 73.04 C 140.60 69.41 141.53 65.84 141.81 62.20 C 139.11 56.53 137.96 50.03 133.79 45.13 C 130.20 40.00 123.90 37.79 120.21 32.74 C 120.34 30.91 120.94 28.90 119.81 27.25 C 118.98 25.02 116.32 24.78 114.39 24.09 C 113.51 26.06 114.63 28.51 113.23 30.27 C 111.36 32.15 108.68 32.87 106.33 33.94 L 106.90 33.15 C 105.34 34.00 103.55 34.16 101.83 34.44 C 102.08 36.77 102.20 39.11 102.23 41.45 C 105.75 41.97 109.28 42.77 112.23 44.86 C 113.66 46.72 113.67 48.87 112.67 50.97 C 115.25 53.44 118.48 55.36 120.44 58.40 C 121.15 61.10 121.56 63.87 122.34 66.56 C 124.03 72.89 120.35 79.12 120.65 85.39 C 122.09 83.14 124.08 80.86 123.97 78.02 C 124.13 73.24 123.61 68.36 124.94 63.69 C 124.83 63.35 124.62 62.66 124.51 62.32 L 126.04 62.85 C 125.63 60.07 124.63 57.45 122.99 55.17 C 124.82 56.53 125.65 58.84 127.02 60.61 C 127.42 60.65 128.22 60.74 128.62 60.78 C 128.41 61.23 128.00 62.14 127.79 62.59 C 125.86 65.25 124.14 68.46 125.12 71.85 C 126.15 76.59 126.29 81.41 126.00 86.23 C 126.66 85.10 127.30 83.96 127.95 82.83 C 131.06 81.61 131.27 77.91 131.70 75.08 C 131.97 72.10 132.86 69.13 132.38 66.12 C 131.70 62.54 133.32 58.95 135.65 56.29 C 136.14 56.72 137.14 57.57 137.63 58.00 C 136.43 59.11 135.25 60.22 134.07 61.34 C 133.90 63.55 133.76 65.77 133.85 67.99 C 134.11 71.12 131.96 73.81 131.88 76.90 C 131.94 78.63 132.21 80.34 132.43 82.05 C 130.64 82.87 128.96 84.18 128.28 86.10 C 127.95 90.80 128.45 95.56 127.43 100.21 C 128.58 104.39 128.20 109.11 125.94 112.88 C 125.91 109.55 126.98 106.37 127.23 103.07 C 124.25 100.83 126.13 97.39 126.57 94.49 C 126.06 90.64 125.30 86.80 124.09 83.10 C 123.88 83.97 123.68 84.84 123.48 85.72 C 118.85 88.53 114.64 92.03 111.11 96.14 C 111.39 90.88 116.88 88.90 120.32 85.86 C 115.38 85.42 110.00 85.35 105.94 82.09 C 104.33 80.41 103.55 78.17 102.58 76.10 C 101.76 80.43 101.29 85.18 98.10 88.52 C 95.72 88.18 93.32 88.33 90.96 88.74 C 91.12 83.48 89.46 78.29 87.07 73.66 C 86.68 76.36 86.25 79.19 87.15 81.84 C 88.12 85.12 87.52 88.55 87.40 91.90 C 88.28 92.47 88.99 93.18 89.54 94.06 C 88.94 94.64 88.36 95.24 87.81 95.86 C 87.11 97.03 86.45 98.22 85.81 99.42 C 85.71 96.88 86.69 94.48 86.86 91.97 C 86.97 87.76 85.22 83.81 84.52 79.72 C 85.15 76.29 88.81 72.93 86.56 69.39 C 84.77 67.21 81.74 68.86 79.39 68.51 C 81.06 67.75 82.91 67.78 84.70 67.74 C 84.73 67.47 84.77 66.93 84.79 66.66 C 85.40 66.61 86.63 66.51 87.25 66.46 C 89.01 63.78 89.63 60.58 90.58 57.57 C 90.12 56.86 89.66 56.14 89.20 55.43 C 91.48 56.05 94.23 56.02 95.76 58.12 C 94.67 57.99 92.50 57.74 91.41 57.61 C 90.86 62.14 88.84 66.34 88.17 70.83 C 89.28 75.31 92.16 79.27 92.28 84.01 C 93.12 84.68 93.96 85.35 94.80 86.02 C 96.05 85.40 97.31 84.78 98.57 84.17 C 99.48 81.27 99.91 78.25 100.34 75.25 C 99.19 73.63 97.46 72.20 97.22 70.11 C 96.84 66.49 95.97 62.67 97.13 59.10 C 97.84 56.63 100.37 55.56 102.21 54.06 C 97.83 54.23 93.41 54.23 89.13 53.18 C 88.53 48.17 88.45 43.13 88.24 38.11 C 90.63 37.28 93.03 36.45 95.35 35.43 C 96.31 35.76 97.27 36.10 98.23 36.44 C 98.11 41.28 98.27 46.12 98.14 50.97 C 95.33 49.18 95.76 45.71 95.72 42.80 C 93.41 43.06 91.11 43.41 88.85 43.95 C 89.15 46.53 89.49 49.10 89.96 51.65 C 97.62 54.03 105.57 51.97 113.39 52.11 C 112.41 51.82 110.46 51.25 109.48 50.97 C 111.41 49.46 110.82 47.22 110.60 45.15 C 107.85 44.26 105.06 43.45 102.24 42.79 C 102.20 44.27 102.17 45.74 102.13 47.22 C 102.92 47.29 104.50 47.43 105.29 47.50 C 104.06 47.49 102.83 47.47 101.60 47.43 C 101.21 48.55 100.82 49.67 100.42 50.78 C 99.68 45.33 99.65 39.83 99.88 34.34 C 94.58 34.18 88.85 33.77 84.33 30.71 C 82.63 29.75 82.95 27.81 83.13 26.19 C 83.01 24.79 82.88 23.40 82.76 22.00 M 83.72 23.81 C 88.37 28.07 94.91 29.00 100.97 28.70 C 105.12 28.37 109.68 27.51 112.39 24.02 C 109.23 19.35 103.15 18.75 98.00 18.83 C 92.92 18.85 86.95 19.28 83.72 23.81 M 83.35 26.70 C 86.79 31.80 93.34 32.62 98.99 32.76 C 104.02 32.63 109.98 31.93 112.90 27.23 C 103.68 31.83 92.51 31.02 83.35 26.70 M 89.77 42.04 C 91.77 41.70 93.78 41.38 95.79 41.06 C 95.79 39.27 95.78 37.48 95.77 35.70 C 93.16 37.19 90.08 38.64 89.77 42.04 M 101.44 56.64 C 98.25 59.22 97.85 63.58 97.92 67.38 C 98.44 67.31 99.49 67.17 100.02 67.10 C 101.03 68.20 99.12 70.03 99.09 71.34 C 100.61 72.71 102.30 73.85 103.86 75.16 C 105.27 77.05 105.79 79.80 108.07 80.93 C 110.70 82.12 113.47 82.95 116.19 83.89 C 117.25 83.09 118.77 82.68 119.36 81.39 C 121.95 73.82 121.50 65.57 118.87 58.08 C 117.89 56.17 116.01 54.97 114.46 53.57 C 109.99 53.52 104.98 53.46 101.44 56.64 M 116.10 150.78 C 111.02 152.08 106.02 149.69 100.92 149.71 C 98.53 149.83 96.56 147.53 94.22 148.15 C 93.97 148.40 93.47 148.88 93.22 149.12 C 92.67 149.20 91.58 149.37 91.04 149.45 C 90.50 151.54 89.26 153.69 89.94 155.89 C 91.50 161.27 91.90 167.27 89.71 172.53 C 88.71 176.63 88.62 181.07 86.02 184.62 C 86.59 185.45 87.16 186.27 87.74 187.10 C 88.78 185.34 89.29 182.96 91.55 182.38 C 91.61 184.24 91.63 186.10 91.64 187.97 C 94.98 189.32 98.30 191.46 102.06 190.96 C 104.65 190.59 107.34 190.06 109.59 188.65 C 112.37 187.11 111.43 183.53 112.05 180.95 C 114.09 179.19 116.98 178.93 119.51 178.29 C 120.63 175.92 121.99 173.64 123.93 171.84 C 123.27 174.56 122.43 177.37 120.62 179.57 C 117.79 180.72 114.11 180.84 112.94 184.24 C 116.87 184.77 120.97 186.98 124.88 185.23 C 129.07 183.91 131.85 180.19 135.92 178.62 C 134.35 176.75 133.31 174.52 133.10 172.07 C 132.55 167.42 129.88 163.43 128.51 159.04 C 128.69 156.72 129.87 154.45 129.41 152.11 C 128.65 150.50 127.32 149.26 126.27 147.86 C 122.94 149.04 119.49 149.82 116.10 150.78 M 118.39 187.47 C 116.48 187.27 113.61 183.29 113.01 187.14 C 117.12 189.33 119.22 193.62 121.53 197.44 C 123.60 200.57 122.37 204.61 124.05 207.89 C 125.29 210.93 127.72 213.93 125.99 217.36 C 125.52 216.48 124.58 214.72 124.11 213.84 C 122.47 218.53 123.73 223.40 124.36 228.14 C 124.83 231.65 127.66 234.34 128.08 237.87 C 128.53 241.97 128.23 246.09 128.28 250.21 C 126.54 254.25 126.56 258.78 126.43 263.10 C 128.03 266.30 132.33 264.60 135.17 264.78 C 138.76 264.10 141.91 265.94 145.06 267.31 C 147.70 267.62 150.36 267.96 153.03 267.94 C 154.96 267.20 156.66 265.98 158.47 264.99 C 156.65 260.94 151.42 262.27 148.54 259.47 C 144.85 256.09 141.76 252.11 138.14 248.65 C 134.64 241.01 136.67 232.30 135.67 224.20 C 134.05 217.54 134.68 210.55 136.13 203.93 C 136.67 201.54 135.39 199.28 134.73 197.06 C 133.07 199.33 131.62 203.28 128.13 202.70 C 125.56 201.47 125.43 198.17 124.76 195.77 C 126.09 197.93 127.16 200.75 129.89 201.45 C 132.01 199.78 132.46 196.96 133.26 194.55 C 133.71 194.62 134.61 194.76 135.06 194.83 C 134.99 190.44 134.79 186.05 134.40 181.67 C 129.99 185.32 124.29 188.51 118.39 187.47 M 90.71 189.57 C 90.85 192.41 91.09 195.25 91.28 198.10 C 92.14 203.37 88.17 207.76 88.04 212.95 C 88.12 218.83 90.27 224.38 92.05 229.90 C 88.68 228.62 88.89 224.29 87.36 221.50 C 84.48 227.80 81.74 235.04 83.99 241.98 C 86.10 249.73 88.56 257.92 86.06 265.91 C 87.89 271.78 90.51 277.38 91.87 283.38 C 94.48 287.95 101.23 288.56 105.14 285.28 C 104.66 284.81 103.69 283.86 103.20 283.39 C 99.90 283.79 96.60 283.86 93.29 283.49 C 93.45 283.11 93.78 282.37 93.94 282.00 C 96.91 282.03 99.88 281.87 102.84 281.54 C 104.98 281.14 105.30 283.97 106.43 285.18 C 107.60 284.88 108.95 284.86 109.83 283.90 C 107.95 279.48 103.78 276.63 101.76 272.31 C 100.03 268.83 97.35 265.79 96.50 261.91 C 94.73 254.43 94.66 246.16 98.06 239.11 C 99.88 235.10 99.13 230.63 98.79 226.41 C 97.46 229.08 96.03 231.88 96.06 234.95 C 95.90 237.25 96.14 239.89 94.31 241.64 C 93.54 236.58 94.40 231.30 96.81 226.78 C 100.80 220.12 101.33 211.97 105.50 205.40 C 108.08 201.23 108.68 196.23 109.28 191.46 C 105.84 192.19 102.36 193.25 98.81 192.95 C 95.92 192.35 93.40 190.70 90.71 189.57 Z" />
<path fill="#333333" opacity="1.00" d=" M 107.16 34.69 C 107.49 33.36 109.60 34.03 110.55 34.32 C 113.00 36.98 115.67 39.46 117.74 42.44 C 119.34 45.51 119.95 48.99 121.34 52.17 C 118.72 47.46 116.41 42.37 112.16 38.85 C 110.73 37.18 108.51 36.39 107.16 34.69 Z" />
<path fill="#333333" opacity="1.00" d=" M 113.26 86.36 C 113.75 86.25 114.74 86.04 115.24 85.94 C 115.46 86.94 114.20 89.01 113.06 88.70 C 113.11 88.11 113.21 86.94 113.26 86.36 Z" />
<path fill="#333333" opacity="1.00" d=" M 129.29 97.28 C 128.32 94.02 130.10 91.03 131.15 88.05 C 133.04 91.19 130.69 94.46 129.29 97.28 Z" />
<path fill="#333333" opacity="1.00" d=" M 95.90 91.31 C 99.50 91.00 103.05 91.94 106.56 92.64 C 108.43 92.81 109.35 94.59 110.55 95.78 C 105.72 94.32 100.01 94.41 95.90 91.31 Z" />
<path fill="#333333" opacity="1.00" d=" M 111.78 97.02 C 115.26 100.53 115.71 105.84 116.29 110.50 C 118.80 111.39 121.13 109.57 123.55 109.15 C 121.03 111.65 117.53 111.99 114.16 111.89 C 111.97 113.61 109.03 113.65 106.41 114.20 C 104.82 114.53 103.40 113.70 102.31 112.62 C 104.63 112.58 106.95 112.60 109.27 112.71 C 110.79 111.79 112.33 110.91 113.89 110.07 C 114.88 105.44 112.29 101.43 111.78 97.02 Z" />
<path fill="#333333" opacity="1.00" d=" M 85.49 103.05 C 86.45 103.40 87.66 103.60 87.98 104.75 C 89.73 107.95 90.72 111.53 90.37 115.19 C 88.63 111.19 86.78 107.23 85.49 103.05 Z" />
<path fill="#333333" opacity="1.00" d=" M 91.64 105.30 C 93.61 106.80 94.70 109.07 96.22 110.96 C 97.59 112.70 99.17 114.38 99.60 116.64 C 95.30 114.48 93.27 109.55 91.64 105.30 Z" />
<path fill="#333333" opacity="1.00" d=" M 110.33 117.95 C 111.61 118.55 111.65 119.27 110.44 120.12 C 109.17 119.54 109.13 118.82 110.33 117.95 Z" />
<path fill="#333333" opacity="1.00" d=" M 93.15 122.22 C 95.20 122.10 97.25 121.81 99.08 120.83 C 100.68 122.30 102.31 123.72 103.74 125.36 C 101.98 125.27 100.52 124.36 99.10 123.44 C 97.45 123.83 95.79 124.15 94.14 124.49 C 93.73 124.28 92.90 123.87 92.48 123.66 C 92.65 123.30 92.98 122.58 93.15 122.22 Z" />
<path fill="#333333" opacity="1.00" d=" M 108.19 128.10 C 110.49 125.91 112.08 121.75 115.95 122.69 C 117.39 122.00 117.16 124.94 115.92 124.64 C 113.07 125.12 110.66 126.72 108.19 128.10 Z" />
<path fill="#333333" opacity="1.00" d=" M 118.46 124.79 L 119.13 124.66 C 120.77 129.93 120.61 135.96 117.40 140.63 C 117.25 140.02 116.94 138.82 116.79 138.21 C 114.64 138.43 112.93 137.44 111.71 135.72 C 113.73 136.27 115.65 137.14 117.60 137.90 C 118.51 133.60 118.45 129.16 118.46 124.79 Z" />
<path fill="#333333" opacity="1.00" d=" M 95.45 127.91 C 96.23 127.36 97.01 126.81 97.79 126.26 C 99.85 127.93 101.84 129.69 103.71 131.57 C 100.18 130.40 96.78 128.67 92.95 128.97 C 92.78 128.67 92.45 128.07 92.28 127.77 C 93.34 127.82 94.39 127.86 95.45 127.91 Z" />
<path fill="#333333" opacity="1.00" d=" M 97.78 133.53 C 100.02 134.02 101.85 135.48 103.67 136.79 C 102.26 136.83 100.86 136.78 99.46 136.63 C 98.89 135.60 98.33 134.57 97.78 133.53 Z" />
<path fill="#333333" opacity="1.00" d=" M 105.24 133.32 C 106.58 133.95 106.60 134.62 105.32 135.35 C 104.00 134.70 103.98 134.03 105.24 133.32 Z" />
<path fill="#333333" opacity="1.00" d=" M 105.77 136.31 C 107.48 136.58 109.19 136.83 110.91 137.07 C 110.69 137.38 110.27 138.01 110.05 138.32 C 110.91 139.34 111.76 140.36 112.62 141.38 C 109.54 141.05 107.88 138.20 105.77 136.31 Z" />
<path fill="#333333" opacity="1.00" d=" M 109.02 153.46 C 115.12 153.72 121.17 152.17 126.77 149.83 C 125.84 150.82 125.13 152.08 123.90 152.75 C 117.76 155.27 110.96 155.96 104.42 154.87 C 103.57 157.27 102.42 159.77 100.06 161.04 C 97.84 162.27 95.51 164.27 92.79 163.42 C 96.75 161.05 101.16 158.93 103.15 154.46 C 101.28 153.65 99.37 152.95 97.46 152.26 C 96.33 154.81 95.53 157.50 94.88 160.22 C 93.22 156.92 95.15 153.64 96.57 150.65 C 100.69 151.69 104.72 153.33 109.02 153.46 Z" />
<path fill="#333333" opacity="1.00" d=" M 104.74 163.44 C 108.96 159.43 115.38 159.38 120.81 158.23 C 120.53 158.73 119.96 159.74 119.67 160.24 C 114.58 160.69 109.76 162.59 104.74 163.44 Z" />
<path fill="#333333" opacity="1.00" d=" M 121.24 159.21 C 120.94 157.23 124.68 157.71 125.66 158.64 C 124.93 159.99 122.50 159.77 121.24 159.21 Z" />
<path fill="#333333" opacity="1.00" d=" M 109.37 166.69 C 114.82 163.78 120.34 160.56 126.61 159.84 C 121.78 163.81 114.43 164.00 110.24 168.77 C 116.23 168.92 122.49 167.84 128.32 166.10 C 125.29 170.32 119.60 169.76 115.01 170.15 C 110.74 170.19 106.29 172.42 102.20 170.32 C 104.48 169.87 106.79 169.59 109.11 169.42 C 109.19 168.51 109.27 167.60 109.37 166.69 Z" />
<path fill="#333333" opacity="1.00" d=" M 94.21 205.06 C 96.52 204.61 98.82 204.06 101.01 203.15 C 101.64 204.93 102.27 206.72 102.74 208.56 C 101.95 207.56 101.17 206.55 100.41 205.53 C 98.62 206.04 96.82 206.50 95.02 206.94 C 94.75 207.79 94.22 209.49 93.95 210.34 C 93.39 208.60 93.41 206.73 94.21 205.06 Z" />
<path fill="#333333" opacity="1.00" d=" M 95.51 214.07 C 96.89 214.16 98.26 214.27 99.64 214.38 C 99.50 214.79 99.22 215.61 99.08 216.02 C 98.29 216.03 96.71 216.03 95.93 216.03 C 95.82 215.54 95.61 214.56 95.51 214.07 Z" />
<path fill="#333333" opacity="1.00" d=" M 131.83 259.44 C 129.25 257.18 128.74 253.71 130.44 250.77 C 130.88 253.66 131.33 256.55 131.83 259.44 Z" />
<path fill="#333333" opacity="1.00" d=" M 88.62 267.76 C 90.17 264.75 91.11 260.50 94.76 259.43 C 93.12 262.47 92.07 266.24 88.62 267.76 Z" />
</g>
</svg>
