<?xml version="1.0" encoding="UTF-8" ?>
<!DOCTYPE svg PUBLIC "-//W3C//DTD SVG 1.1//EN" "http://www.w3.org/Graphics/SVG/1.1/DTD/svg11.dtd">
<svg width="235pt" height="200pt" viewBox="0 0 235 200" version="1.1" xmlns="http://www.w3.org/2000/svg"><g id="#43443cff">
<path fill="#333333" opacity="1.00" d=" M 150.41 16.34 C 158.04 15.42 165.82 12.68 173.48 14.80 C 178.50 16.49 183.09 19.41 188.41 20.17 C 190.48 21.16 192.83 21.91 194.34 23.75 C 195.67 25.80 196.72 28.01 197.87 30.15 C 197.65 31.73 197.47 33.31 197.25 34.89 C 197.66 35.21 198.48 35.84 198.89 36.15 C 199.33 36.95 199.79 37.75 200.25 38.55 C 202.75 40.57 203.67 43.93 202.80 46.99 C 200.46 53.44 195.61 58.69 189.58 61.88 C 191.32 64.85 192.51 68.05 193.09 71.45 C 196.76 73.26 196.24 77.61 196.07 81.03 C 196.31 84.28 193.64 86.45 191.96 88.88 C 189.41 90.17 186.96 91.65 184.54 93.16 C 187.39 94.64 190.80 95.50 192.80 98.21 C 198.12 104.70 200.51 112.92 202.19 120.99 C 203.15 127.32 201.86 133.70 202.27 140.06 C 201.87 141.07 201.48 142.09 201.09 143.10 C 199.81 148.08 197.43 152.67 194.97 157.14 C 190.82 162.64 183.91 164.56 177.80 167.00 C 170.73 169.03 163.27 169.30 155.96 169.11 C 151.80 169.01 147.55 169.56 143.50 168.35 C 139.11 167.06 134.22 167.28 130.29 164.69 C 127.06 162.72 123.41 160.99 121.22 157.77 C 119.05 154.63 116.41 151.80 114.75 148.33 C 112.26 143.95 112.06 138.79 111.40 133.92 C 110.81 130.92 113.89 128.23 112.44 125.33 C 107.72 130.53 99.72 130.10 95.02 135.14 C 90.41 135.81 86.51 138.69 81.88 139.36 C 76.64 140.16 71.32 143.54 66.01 141.15 C 62.55 142.98 59.19 145.03 55.47 146.31 C 53.25 149.52 50.32 152.21 48.58 155.75 C 47.08 156.68 44.95 157.17 44.43 159.10 C 43.35 161.94 41.56 164.42 40.19 167.10 C 39.69 170.85 39.80 174.90 37.13 177.93 C 35.53 177.96 33.86 178.02 33.04 179.64 C 30.63 179.56 28.22 179.50 25.82 179.49 C 22.67 177.18 18.08 174.69 18.76 170.06 C 20.20 164.63 24.86 161.01 28.62 157.18 L 25.94 157.66 C 29.68 151.97 32.30 145.63 34.03 139.07 C 35.64 133.08 42.50 131.01 48.05 131.76 C 50.26 130.13 51.93 127.82 54.05 126.05 C 57.39 122.91 62.17 121.79 65.25 118.32 C 67.32 115.94 69.97 114.23 72.43 112.31 C 76.03 107.13 78.72 101.24 83.20 96.70 C 82.97 96.36 82.52 95.67 82.29 95.33 C 83.89 92.70 86.15 90.55 88.56 88.66 C 91.31 86.65 92.74 83.45 95.16 81.12 C 98.03 78.33 99.76 74.53 102.97 72.10 C 105.20 70.32 108.20 70.46 110.85 69.83 C 113.45 69.48 115.86 68.40 118.40 67.79 C 121.10 68.47 123.74 70.31 126.59 69.11 C 127.28 63.63 133.92 62.97 138.08 61.21 C 141.37 60.48 143.28 57.64 145.51 55.40 C 147.13 51.12 150.42 47.82 153.72 44.78 C 152.59 43.39 151.55 41.93 150.41 40.55 C 149.63 37.75 149.61 34.84 149.85 31.97 C 150.36 28.50 148.18 25.39 148.28 21.94 C 148.62 19.95 149.67 18.19 150.41 16.34 M 153.91 17.14 C 152.58 18.23 151.27 19.35 149.95 20.46 C 149.91 23.02 150.13 25.59 151.08 28.00 C 152.66 31.89 150.46 36.40 152.51 40.16 C 154.06 43.51 157.34 45.61 159.03 48.88 C 157.34 48.04 155.18 47.31 155.16 45.01 C 153.99 46.25 152.80 47.45 151.62 48.67 C 154.34 49.63 157.10 50.48 159.70 51.73 C 160.24 50.19 160.65 47.63 162.88 47.91 C 164.32 51.12 165.78 54.33 167.18 57.56 C 167.74 60.36 166.87 63.32 167.75 66.07 C 168.30 66.98 168.27 69.45 169.83 68.95 C 171.01 67.52 171.98 65.92 173.14 64.47 C 173.61 65.17 174.04 65.89 174.45 66.64 C 173.23 68.49 171.08 69.45 169.42 70.86 C 169.92 72.52 170.21 74.27 170.96 75.86 C 172.78 77.61 174.94 79.01 176.57 80.96 C 178.18 80.02 179.84 79.13 181.67 78.67 C 182.33 77.14 182.71 75.33 184.26 74.39 C 184.27 76.51 184.22 78.64 184.08 80.76 C 181.09 81.53 178.37 83.05 175.40 83.84 C 175.13 83.13 174.58 81.72 174.31 81.02 C 171.85 79.19 169.01 77.19 168.58 73.90 C 167.83 69.93 165.42 66.25 165.85 62.12 C 166.15 57.56 163.45 53.52 161.50 49.59 C 161.38 50.40 161.14 52.02 161.02 52.83 C 161.87 53.63 163.51 56.21 161.05 55.62 C 158.47 53.39 155.54 51.43 152.07 50.98 C 149.59 51.99 147.76 54.18 145.86 56.01 C 146.56 56.25 147.95 56.72 148.65 56.96 C 150.20 62.80 156.27 65.39 160.17 69.49 C 159.41 69.32 157.88 68.96 157.12 68.78 L 158.52 71.26 C 155.40 67.86 149.56 70.60 147.15 66.52 C 146.92 71.12 142.08 73.62 138.63 75.90 C 136.54 76.33 134.49 76.94 132.36 77.19 C 134.75 74.72 138.06 73.60 140.97 71.89 C 143.35 70.08 145.35 67.67 146.29 64.80 C 148.60 66.10 151.25 66.78 153.86 65.90 C 152.29 64.28 150.63 62.75 148.97 61.23 C 148.67 61.32 148.07 61.52 147.77 61.62 C 147.79 60.15 147.76 58.66 147.19 57.28 C 146.22 58.05 145.25 58.82 144.27 59.60 C 144.12 60.90 143.94 62.20 143.75 63.50 C 143.05 63.12 141.65 62.36 140.96 61.97 C 136.41 64.69 129.92 64.98 127.44 70.31 L 130.12 68.65 C 129.93 70.12 129.78 71.60 129.64 73.09 C 131.13 80.35 134.34 87.06 137.48 93.72 C 137.83 91.24 140.43 92.24 142.04 91.76 C 144.73 91.49 147.15 90.15 149.70 89.33 C 149.52 89.70 149.16 90.43 148.98 90.80 C 145.24 92.17 141.61 94.08 137.52 94.11 C 141.13 98.15 145.84 94.22 149.44 92.39 C 153.79 90.94 157.93 88.96 161.87 86.60 C 160.47 81.18 158.79 75.64 158.94 70.02 C 159.64 71.07 160.15 72.24 160.91 73.26 C 161.62 74.73 162.57 72.48 163.03 72.12 L 163.71 71.73 C 163.78 75.47 164.94 79.01 166.11 82.52 C 165.63 82.35 164.65 82.00 164.17 81.82 C 163.83 79.16 163.33 76.52 162.85 73.88 C 160.50 78.47 164.12 83.25 164.16 87.98 C 167.23 90.92 169.56 94.50 172.29 97.71 C 174.72 100.19 178.26 98.31 180.20 96.21 C 183.15 93.12 185.85 89.59 189.99 88.05 C 193.46 84.89 194.46 79.53 193.95 74.98 C 190.58 71.60 189.69 66.75 188.09 62.43 C 184.10 62.68 179.78 60.61 178.45 56.66 C 177.71 52.86 178.13 48.67 180.65 45.57 C 179.59 45.25 178.52 45.00 177.45 44.76 L 177.91 46.01 C 177.10 46.10 175.50 46.30 174.69 46.39 C 174.57 48.26 174.40 50.12 174.25 51.98 C 175.46 54.76 176.34 57.69 176.51 60.73 C 175.55 61.97 174.72 63.29 173.80 64.55 C 175.51 60.16 175.00 55.34 171.90 51.71 C 174.47 47.01 172.19 41.09 169.04 37.21 C 168.07 37.94 167.10 38.67 166.12 39.39 C 166.48 34.38 166.11 28.12 160.98 25.58 C 161.02 25.21 161.11 24.46 161.15 24.09 C 163.61 25.39 165.49 27.47 167.29 29.54 C 169.27 28.47 171.13 27.17 173.19 26.25 C 176.29 25.07 179.53 26.19 182.69 26.32 C 185.95 25.93 189.16 25.21 192.40 24.70 C 191.98 25.40 191.56 26.10 191.15 26.81 C 187.98 26.71 184.75 27.20 181.98 28.86 C 178.25 30.78 173.93 33.92 174.85 38.72 C 176.57 39.77 178.25 41.33 180.45 40.67 C 180.11 41.36 179.43 42.74 179.09 43.43 C 182.49 39.88 185.77 36.02 190.14 33.63 C 191.84 32.59 193.76 33.38 195.54 33.68 C 195.70 32.40 195.85 31.11 195.99 29.83 C 194.90 29.29 193.83 28.70 192.79 28.08 C 193.55 26.78 194.52 25.26 192.75 24.25 C 188.24 21.06 182.36 20.85 177.45 18.47 C 170.39 14.03 161.66 16.41 153.91 17.14 M 167.33 30.40 C 167.64 32.12 167.93 33.84 168.27 35.55 C 171.84 37.22 173.54 40.88 175.01 44.30 C 176.25 44.27 177.46 44.03 178.69 43.90 C 175.83 42.31 172.92 39.93 172.72 36.41 C 172.94 32.11 176.91 29.72 179.85 27.22 C 175.10 25.81 171.72 29.74 167.33 30.40 M 189.95 37.07 C 186.22 37.47 184.23 41.01 181.85 43.44 C 180.98 44.09 181.42 45.05 181.93 45.77 C 181.07 49.41 178.81 53.35 180.73 57.04 C 181.50 59.25 183.98 59.87 185.75 61.02 C 187.73 60.40 189.65 59.61 191.54 58.76 C 195.62 55.70 199.71 52.13 201.00 46.97 C 202.64 43.29 199.35 40.23 197.32 37.56 C 195.33 35.51 192.35 36.62 189.95 37.07 M 108.73 71.85 C 107.10 72.66 105.46 73.43 103.78 74.11 C 102.56 75.76 101.39 77.44 100.26 79.15 C 97.92 81.27 94.14 82.91 94.35 86.63 C 91.63 89.42 88.27 91.46 85.19 93.80 C 88.52 93.61 91.43 95.34 94.42 96.52 C 96.91 98.42 98.51 101.19 100.76 103.35 C 102.50 104.92 103.08 107.32 102.60 109.60 C 104.92 107.02 106.69 103.98 108.99 101.41 C 112.09 100.73 115.31 101.23 118.44 101.40 C 117.09 104.62 112.92 102.22 110.28 102.63 C 107.84 105.84 105.60 110.57 101.06 110.80 C 101.17 111.22 101.40 112.04 101.51 112.46 C 98.40 112.75 96.84 115.74 94.51 117.40 C 92.17 119.47 89.08 120.19 86.38 121.59 C 84.69 123.18 83.71 125.41 81.83 126.83 C 79.27 129.20 75.64 129.85 72.97 132.04 C 70.91 134.90 68.61 137.57 66.41 140.34 C 71.75 141.92 76.50 138.28 81.69 137.68 C 85.76 135.77 89.63 133.07 94.37 133.36 C 100.46 129.52 107.77 127.98 113.23 123.07 C 110.79 118.41 106.71 113.96 101.34 112.93 C 102.00 112.33 102.65 111.74 103.30 111.14 C 109.31 111.26 112.35 117.40 114.85 122.02 C 117.31 119.84 120.34 118.03 121.69 114.88 C 122.72 112.03 125.24 110.29 127.56 108.54 C 130.18 104.24 134.95 102.12 138.78 99.11 C 136.08 92.24 130.35 86.87 128.82 79.47 C 127.06 79.42 125.31 79.32 123.55 79.28 C 121.10 77.82 118.44 76.46 116.99 73.88 C 118.51 74.43 119.83 75.35 121.07 76.36 C 123.66 76.95 126.25 77.53 128.78 78.35 C 128.65 75.75 128.55 73.15 128.53 70.55 C 127.11 70.85 125.69 71.14 124.28 71.44 C 122.50 70.80 120.70 70.22 118.95 69.50 C 115.71 70.89 112.29 71.86 108.73 71.85 M 151.09 93.73 C 150.77 94.01 150.12 94.57 149.80 94.85 C 146.71 95.99 143.80 97.90 140.39 97.81 C 140.50 100.64 138.33 102.58 136.56 104.47 C 132.83 107.76 128.54 110.39 125.11 114.00 C 122.57 118.78 118.67 123.30 113.31 124.85 C 113.83 124.92 114.86 125.05 115.38 125.12 C 112.94 132.94 113.84 141.78 118.49 148.61 C 121.20 152.79 122.56 158.49 127.84 160.19 C 138.29 166.74 151.08 166.40 162.96 166.25 C 172.91 165.55 183.06 163.15 191.29 157.29 C 192.46 156.01 193.65 154.75 194.89 153.54 C 196.34 149.24 196.70 144.56 198.79 140.49 C 200.53 136.17 199.86 131.46 200.29 126.93 C 200.85 116.72 197.10 106.68 190.75 98.77 C 188.34 97.82 186.33 96.15 184.45 94.41 C 182.15 96.54 179.62 98.39 177.00 100.10 C 175.12 100.14 173.25 100.16 171.38 100.14 C 168.12 96.47 165.59 92.16 161.84 88.94 C 158.34 90.68 155.08 93.23 151.09 93.73 M 80.20 103.30 C 77.90 106.59 76.04 110.18 73.62 113.38 C 69.76 115.48 66.98 118.85 63.77 121.74 C 58.24 124.51 53.64 128.68 49.34 133.08 C 47.11 136.83 44.64 140.46 41.85 143.81 C 39.89 145.47 37.59 146.69 35.61 148.34 C 34.96 149.97 34.16 151.52 33.45 153.12 C 35.07 152.15 36.66 151.14 38.34 150.28 C 37.70 152.13 35.86 153.03 34.56 154.35 C 31.47 157.32 28.58 160.49 25.47 163.43 C 23.11 165.55 21.48 168.60 21.33 171.79 C 22.32 173.62 23.90 175.02 25.27 176.55 C 29.23 177.34 32.96 175.57 36.83 175.06 C 37.64 171.28 37.59 167.17 39.84 163.86 C 42.15 160.16 42.94 155.83 44.53 151.83 C 46.07 152.99 45.58 154.86 45.54 156.56 C 46.70 154.81 47.65 152.96 48.61 151.10 C 48.17 150.84 47.28 150.33 46.84 150.07 C 50.75 146.61 55.53 144.48 60.13 142.14 C 63.88 140.43 66.51 137.10 68.95 133.91 C 70.41 131.98 71.09 129.19 73.56 128.27 C 76.01 127.69 78.50 127.04 80.65 125.68 C 82.38 124.05 83.64 122.01 85.15 120.19 C 91.68 118.30 97.27 113.84 100.83 108.08 C 99.05 104.47 95.97 101.76 93.55 98.61 C 91.16 97.44 88.59 96.67 86.12 95.70 C 83.29 97.42 82.05 100.70 80.20 103.30 M 37.34 136.49 C 34.29 141.73 34.12 148.10 30.81 153.24 C 33.03 150.65 34.28 147.17 37.28 145.31 C 39.04 144.20 40.65 142.89 42.26 141.58 C 43.52 138.74 45.41 136.26 47.10 133.68 C 43.70 132.55 39.80 134.09 37.34 136.49 Z" />
<path fill="#333333" opacity="1.00" d=" M 186.34 30.49 C 188.22 29.55 190.41 29.75 192.27 30.62 C 187.43 31.71 182.53 32.97 178.58 36.13 C 180.13 33.11 183.46 31.86 186.34 30.49 Z" />
<path fill="#333333" opacity="1.00" d=" M 167.57 39.42 C 169.07 41.40 167.70 43.84 167.15 45.92 C 166.32 47.07 166.51 49.49 164.89 49.80 C 162.67 49.21 164.21 46.98 164.86 45.82 C 165.97 43.78 166.65 41.54 167.57 39.42 Z" />
<path fill="#333333" opacity="1.00" d=" M 176.28 63.24 C 178.29 62.45 180.27 64.02 181.73 65.25 C 183.98 67.60 187.94 67.97 189.14 71.32 C 186.02 69.92 182.21 69.23 180.32 66.07 C 179.71 66.08 178.48 66.08 177.87 66.09 C 177.12 65.25 175.77 64.59 176.28 63.24 Z" />
<path fill="#333333" opacity="1.00" d=" M 149.28 80.93 C 152.45 78.94 154.68 75.74 157.89 73.87 C 158.24 75.51 157.07 76.84 156.13 78.03 C 153.44 80.56 150.45 83.35 146.48 83.24 C 145.37 83.71 144.26 84.17 143.14 84.63 C 143.07 84.30 142.92 83.64 142.85 83.31 C 143.85 82.58 144.85 81.83 145.85 81.08 C 146.99 81.04 148.13 80.99 149.28 80.93 Z" />
<path fill="#333333" opacity="1.00" d=" M 50.79 140.84 C 54.81 135.38 60.18 130.51 66.66 128.28 C 66.70 129.44 65.96 130.34 65.01 130.91 C 61.86 133.10 58.31 134.85 55.83 137.87 C 52.86 141.48 49.79 145.23 45.55 147.40 C 46.68 144.77 49.14 143.11 50.79 140.84 Z" />
</g>
</svg>
