<?xml version="1.0" encoding="UTF-8" ?>
<!DOCTYPE svg PUBLIC "-//W3C//DTD SVG 1.1//EN" "http://www.w3.org/Graphics/SVG/1.1/DTD/svg11.dtd">
<svg width="275pt" height="175pt" viewBox="0 0 275 175" version="1.1" xmlns="http://www.w3.org/2000/svg"><g id="#525350ff">
<path fill="#333333" opacity="1.00" d=" M 25.20 42.85 C 27.26 37.92 32.30 31.81 38.21 34.17 C 36.26 36.41 32.45 36.01 30.46 38.42 C 24.29 45.67 23.85 57.40 30.26 64.67 C 32.26 65.65 34.05 67.09 36.20 67.73 C 40.96 65.59 45.52 61.89 51.07 62.65 C 47.46 65.22 42.69 65.50 38.90 67.87 C 35.48 70.18 31.78 72.05 28.35 74.33 C 25.90 76.96 25.86 80.82 27.06 84.04 C 27.30 90.33 26.62 96.71 27.16 103.02 C 29.05 111.16 32.51 119.71 30.02 128.12 C 29.10 132.10 24.97 133.69 22.50 136.52 C 20.37 138.68 19.02 141.86 15.93 142.86 C 13.59 143.64 11.78 145.32 10.12 147.09 C 11.33 146.90 13.75 146.51 14.96 146.32 C 13.65 147.71 10.85 148.11 10.51 150.11 C 13.98 151.78 17.43 149.15 20.98 149.16 C 24.49 149.19 26.66 146.09 29.52 144.56 C 32.61 142.55 36.42 142.57 39.95 142.17 C 42.57 139.40 44.88 136.01 44.72 132.02 C 44.20 126.29 41.98 120.87 41.44 115.14 C 41.09 109.94 38.43 105.21 38.44 99.96 C 38.45 95.15 35.09 90.30 37.58 85.63 C 38.59 81.51 42.95 80.35 45.71 77.74 C 50.44 73.11 57.08 71.47 63.06 69.11 C 61.59 66.34 59.47 63.55 61.57 60.48 C 63.49 61.19 65.42 61.90 67.30 62.72 C 67.87 62.00 69.02 60.58 69.59 59.87 C 66.19 56.26 61.00 56.68 56.57 55.45 C 55.59 56.02 54.62 56.58 53.64 57.15 C 53.76 59.45 53.74 61.76 53.84 64.07 C 53.06 62.93 52.28 61.79 51.49 60.67 C 50.09 61.46 48.70 62.28 47.16 62.78 C 47.74 61.52 48.40 60.31 49.07 59.10 C 45.63 58.10 42.38 56.51 39.37 54.58 C 37.43 53.51 38.35 51.13 38.67 49.45 C 42.84 50.55 46.44 53.01 50.34 54.75 C 49.17 50.01 49.50 44.70 46.33 40.66 C 44.80 37.95 41.65 37.23 39.01 36.06 C 39.05 35.83 39.14 35.37 39.18 35.14 C 40.74 33.98 42.51 35.42 43.94 36.13 C 49.75 39.83 51.49 47.24 51.60 53.70 C 51.46 54.45 51.52 55.19 51.75 55.92 C 53.57 55.00 55.16 52.44 57.46 53.67 C 63.16 55.57 69.15 54.10 74.80 52.84 C 82.71 51.92 90.87 50.10 98.65 52.80 C 96.24 55.06 92.93 52.94 90.05 53.22 C 82.82 53.43 75.73 55.14 68.54 55.87 C 69.32 57.14 70.08 58.42 70.92 59.66 C 76.74 57.89 82.80 57.50 88.77 58.81 C 91.39 56.69 94.73 56.12 97.90 55.31 C 100.23 54.01 102.34 52.37 104.61 50.97 C 107.83 47.20 113.17 44.29 118.19 45.85 C 121.77 47.20 125.43 45.09 129.04 46.02 C 133.15 46.73 136.80 48.86 140.76 50.07 C 140.89 49.34 141.17 47.86 141.31 47.13 C 142.57 45.77 143.79 44.39 145.02 43.02 C 151.86 40.59 160.00 42.87 164.88 48.17 C 167.88 53.07 166.70 59.66 164.18 64.54 C 163.64 64.00 163.12 63.46 162.61 62.91 C 164.59 59.05 165.34 54.40 164.04 50.22 C 162.45 47.56 159.55 45.95 156.64 45.11 C 156.24 44.87 155.45 44.37 155.05 44.12 C 152.25 44.28 149.43 44.11 146.64 44.36 C 145.29 45.47 144.09 46.74 142.80 47.91 C 143.38 48.82 143.98 49.71 144.54 50.63 C 148.19 52.79 152.25 54.08 156.00 56.02 C 159.10 57.58 161.60 60.51 161.49 64.19 C 158.26 62.34 156.64 56.30 152.05 57.64 C 149.64 59.53 147.54 61.78 145.03 63.55 C 144.54 63.31 143.55 62.83 143.06 62.58 C 140.94 62.78 138.82 62.91 136.70 62.85 C 132.13 63.12 126.86 63.50 123.79 67.38 C 119.34 67.63 114.93 66.83 110.51 66.42 C 117.43 70.96 120.08 79.57 119.27 87.50 C 122.09 88.65 125.12 89.55 127.48 91.56 C 128.36 92.85 128.30 94.51 128.65 95.98 C 124.85 96.56 121.67 94.07 118.32 92.72 C 117.01 97.35 113.89 101.93 109.00 103.17 C 100.94 104.62 92.67 97.88 91.27 90.02 C 86.02 89.04 81.47 93.16 76.34 92.29 C 72.34 93.54 68.18 94.35 63.98 93.99 C 61.30 93.63 58.76 94.63 56.33 95.60 C 56.11 95.10 55.68 94.09 55.46 93.58 C 53.77 99.55 57.52 104.99 58.06 110.82 C 59.14 116.12 57.48 121.48 58.31 126.79 C 58.91 130.69 58.86 134.78 60.56 138.42 C 62.34 142.56 64.79 146.79 64.20 151.47 C 64.10 153.64 62.54 155.30 61.21 156.87 C 55.99 157.93 50.42 158.14 45.72 160.91 C 41.74 163.14 37.27 164.19 32.97 165.62 C 29.12 165.73 25.32 164.18 22.43 161.67 C 21.23 161.05 20.04 160.40 18.87 159.73 C 20.73 155.23 25.56 153.08 29.92 151.69 C 33.63 150.44 35.69 146.82 38.16 144.04 C 35.34 144.80 32.24 145.05 29.88 146.93 C 27.64 148.28 25.84 150.70 23.07 150.88 C 19.93 151.07 16.88 151.79 13.80 152.32 C 11.72 152.78 10.33 150.84 8.83 149.80 C 9.27 148.24 9.57 146.63 10.14 145.11 C 12.55 142.03 16.98 141.38 19.12 137.99 C 22.31 133.45 28.22 130.81 29.22 124.88 C 30.27 116.71 25.97 109.08 25.99 100.96 C 26.08 95.97 25.05 91.08 25.10 86.10 C 24.29 81.70 24.17 76.79 27.07 73.07 C 29.28 71.58 31.77 70.55 34.02 69.11 C 25.97 65.23 22.27 55.82 23.95 47.29 C 21.50 46.12 18.94 45.07 16.76 43.43 C 16.61 42.08 16.68 40.72 16.69 39.38 C 19.65 40.22 22.37 41.67 25.20 42.85 M 18.05 41.91 C 20.09 43.93 22.65 45.32 25.35 46.24 C 24.34 43.11 20.88 42.39 18.05 41.91 M 100.62 55.47 C 100.60 55.87 100.56 56.67 100.54 57.07 C 98.97 57.74 97.42 58.45 95.94 59.31 C 95.46 58.87 94.99 58.43 94.52 57.99 L 96.36 56.80 C 94.73 57.42 93.13 58.10 91.54 58.79 C 94.24 60.47 97.73 61.13 99.59 63.93 C 97.84 63.58 96.10 63.16 94.45 62.47 C 87.00 59.16 78.49 59.33 70.76 61.61 C 69.76 62.73 68.78 63.88 67.81 65.03 C 66.02 64.29 64.26 63.50 62.42 62.90 C 64.19 66.13 68.16 67.04 71.35 68.28 C 70.90 67.77 69.99 66.75 69.53 66.24 C 70.16 65.16 70.75 64.06 71.22 62.89 C 74.47 60.54 78.01 62.10 81.21 63.64 C 83.71 63.91 87.34 63.56 87.85 66.87 C 92.93 66.59 97.93 65.57 102.96 64.89 C 105.49 64.73 108.84 67.36 109.78 63.82 C 113.07 64.37 116.49 64.85 119.84 64.73 C 124.90 63.22 130.02 61.39 135.35 62.86 C 137.23 61.45 139.24 60.14 141.72 60.40 C 140.36 59.59 139.05 58.70 137.75 57.81 C 138.11 57.50 138.83 56.89 139.19 56.58 C 138.63 56.02 137.51 54.88 136.96 54.31 C 138.47 54.91 139.98 55.52 141.48 56.14 C 141.27 56.40 140.85 56.94 140.65 57.21 C 141.70 58.25 142.73 59.32 143.73 60.42 C 145.53 60.50 147.36 60.49 148.46 58.76 C 147.47 58.45 145.48 57.84 144.49 57.54 C 145.95 55.49 148.36 55.50 149.63 57.72 C 150.31 57.49 151.67 57.03 152.34 56.80 C 150.66 56.07 148.96 55.41 147.24 54.79 C 144.80 52.93 142.21 51.03 139.08 50.63 C 135.63 50.20 132.50 48.68 129.20 47.71 C 125.84 46.44 122.38 48.20 118.98 48.29 C 120.72 50.26 122.46 52.24 123.95 54.42 C 123.52 54.43 122.66 54.45 122.23 54.46 C 122.05 56.21 122.06 58.00 121.49 59.68 C 120.08 60.69 118.35 61.07 116.71 61.55 C 117.70 60.55 118.72 59.59 119.75 58.65 C 120.27 56.81 121.31 55.06 121.29 53.12 C 119.25 51.69 117.18 50.20 118.15 47.33 C 110.92 45.52 105.95 51.86 100.62 55.47 M 39.17 52.19 C 39.21 52.37 39.29 52.72 39.33 52.89 C 43.99 55.23 48.55 57.89 53.52 59.53 C 51.36 56.38 47.53 55.39 44.36 53.61 C 42.73 52.96 41.00 51.48 39.17 52.19 M 73.14 64.59 C 72.84 67.25 71.89 69.74 70.92 72.22 C 74.78 72.37 76.93 76.84 80.91 76.12 C 79.18 74.23 78.01 71.97 78.39 69.33 C 83.29 69.69 87.40 72.60 91.84 74.41 C 93.10 71.76 94.68 69.26 96.81 67.22 C 94.22 68.07 91.53 68.54 88.89 69.19 C 85.28 67.88 81.81 66.23 78.40 64.49 C 76.77 63.34 74.88 64.33 73.14 64.59 M 96.67 70.53 C 91.12 77.89 90.43 89.18 96.37 96.51 C 99.29 99.07 102.91 101.65 107.03 100.95 C 111.37 100.98 114.08 97.03 115.76 93.51 C 116.35 93.04 116.95 92.55 117.55 92.07 C 113.22 90.41 108.78 88.55 105.41 85.27 C 106.28 84.13 107.16 82.98 108.03 81.84 C 111.52 83.71 115.01 85.58 118.60 87.23 C 116.63 82.28 117.43 76.38 113.96 72.02 C 111.91 68.86 107.93 68.27 104.99 66.26 C 102.02 67.13 98.61 67.87 96.67 70.53 M 65.56 67.99 C 65.23 68.51 64.56 69.55 64.22 70.07 C 59.96 71.87 55.61 73.50 51.40 75.44 C 48.14 76.94 46.10 80.13 42.91 81.74 C 40.28 83.00 39.40 85.98 38.35 88.46 C 38.42 92.38 40.62 96.01 40.16 99.99 C 39.84 103.84 42.49 107.05 42.60 110.85 C 43.08 118.77 45.72 126.34 46.50 134.22 C 47.42 138.33 43.36 140.49 41.01 143.03 C 38.25 146.24 36.24 150.31 32.50 152.55 C 28.34 154.39 22.56 155.14 20.60 159.80 C 21.42 159.82 23.07 159.85 23.89 159.87 C 26.36 163.56 31.52 164.49 35.48 162.84 C 41.05 161.98 45.45 157.99 50.97 156.98 C 54.23 156.24 57.57 155.83 60.72 154.69 C 62.51 153.94 62.97 151.76 62.77 150.03 C 62.08 143.90 58.06 138.66 57.69 132.46 C 56.97 127.34 56.32 122.18 56.93 117.01 C 57.69 109.00 53.69 101.71 52.48 93.96 C 54.90 93.04 57.39 91.77 60.05 92.41 C 66.05 93.39 72.50 92.72 77.82 89.67 C 79.04 85.26 77.24 80.66 74.87 76.98 C 72.76 74.77 69.20 73.61 69.07 70.04 C 67.90 69.35 66.73 68.67 65.56 67.99 M 79.69 70.91 C 80.32 71.93 80.84 73.15 82.05 73.61 C 85.26 75.29 88.43 77.16 91.97 78.05 C 88.97 74.31 84.30 71.97 79.69 70.91 M 77.95 78.95 C 79.37 82.92 80.52 87.06 79.29 91.27 C 82.25 90.07 85.29 89.10 88.26 87.94 C 88.87 88.06 90.08 88.31 90.69 88.44 C 90.18 85.62 90.16 82.77 90.22 79.92 C 87.85 78.83 85.55 77.59 83.27 76.32 C 81.53 77.27 79.76 78.16 77.95 78.95 M 107.16 84.33 C 109.26 87.01 112.56 88.07 115.48 89.56 C 119.18 91.31 122.78 93.45 126.89 94.08 C 124.83 91.11 121.21 90.21 118.12 88.74 C 114.49 87.22 111.16 84.84 107.16 84.33 Z" />
<path fill="#333333" opacity="1.00" d=" M 29.46 47.47 C 31.15 42.78 33.76 35.63 40.00 36.70 C 37.23 39.10 34.32 41.33 31.70 43.89 C 30.29 49.44 27.74 55.46 30.33 61.06 C 30.11 60.90 29.69 60.59 29.47 60.43 C 28.40 56.20 27.12 51.51 29.46 47.47 Z" />
<path fill="#333333" opacity="1.00" d=" M 148.56 45.51 C 150.61 47.43 150.68 50.16 150.26 52.75 C 148.67 50.66 148.72 48.00 148.56 45.51 Z" />
<path fill="#333333" opacity="1.00" d=" M 109.77 55.01 C 110.80 53.26 111.95 51.58 113.27 50.04 C 112.89 51.69 112.47 53.34 112.03 54.98 C 108.76 56.35 104.16 58.93 101.58 55.07 C 103.43 55.39 105.23 55.94 107.00 56.59 C 107.92 56.06 108.85 55.54 109.77 55.01 Z" />
<path fill="#333333" opacity="1.00" d=" M 125.11 51.25 C 125.97 51.72 126.83 52.20 127.68 52.70 C 128.24 52.78 129.35 52.95 129.91 53.04 C 130.58 53.72 131.25 54.40 131.92 55.09 C 129.11 54.79 125.87 54.52 125.11 51.25 Z" />
<path fill="#333333" opacity="1.00" d=" M 132.36 52.64 C 135.02 53.66 137.26 55.62 136.21 58.78 C 135.45 57.49 134.77 56.16 134.10 54.83 C 133.67 54.28 132.80 53.19 132.36 52.64 Z" />
<path fill="#333333" opacity="1.00" d=" M 107.06 57.80 C 108.59 57.87 110.13 57.94 111.66 58.01 C 112.37 59.17 113.07 60.33 113.74 61.51 C 111.30 60.71 109.19 59.21 107.06 57.80 Z" />
<path fill="#333333" opacity="1.00" d=" M 50.60 65.09 C 51.08 64.53 51.56 63.98 52.05 63.43 C 55.51 64.93 59.20 66.00 62.32 68.18 C 59.27 67.90 56.23 67.39 53.16 67.47 C 52.32 66.66 51.47 65.87 50.60 65.09 Z" />
<path fill="#333333" opacity="1.00" d=" M 159.70 72.36 C 161.01 69.69 159.22 63.86 163.48 64.17 C 163.11 67.07 162.57 69.97 161.71 72.77 C 156.01 76.60 149.05 78.17 142.32 78.88 C 147.84 75.91 154.09 75.02 159.70 72.36 Z" />
<path fill="#333333" opacity="1.00" d=" M 96.68 77.77 C 98.39 73.85 100.35 68.82 104.98 67.79 C 105.49 67.95 106.52 68.29 107.03 68.45 C 104.32 70.92 100.98 72.70 98.73 75.65 C 97.16 79.15 96.59 83.03 96.10 86.81 L 94.50 86.87 C 94.61 84.44 94.72 81.91 96.28 79.90 C 96.38 79.37 96.58 78.31 96.68 77.77 Z" />
<path fill="#333333" opacity="1.00" d=" M 120.39 75.73 C 126.45 74.06 132.51 71.49 138.94 72.92 C 140.07 74.27 141.05 75.74 141.63 77.42 C 137.27 74.22 131.17 74.22 126.27 76.07 L 126.04 75.32 C 125.94 75.92 125.73 77.10 125.63 77.69 C 130.61 76.83 135.27 78.78 140.08 79.58 C 133.43 80.16 126.79 79.74 120.14 79.27 C 121.70 78.18 123.29 77.12 124.78 75.93 C 123.68 75.88 121.49 75.78 120.39 75.73 Z" />
<path fill="#333333" opacity="1.00" d=" M 42.19 77.20 C 39.00 80.04 33.27 77.24 34.36 72.83 C 35.98 75.85 38.83 77.18 42.19 77.20 Z" />
<path fill="#333333" opacity="1.00" d=" M 57.64 83.21 C 61.23 79.32 65.89 76.29 71.14 75.28 C 66.69 77.96 62.91 82.20 57.64 83.21 Z" />
<path fill="#333333" opacity="1.00" d=" M 145.95 81.51 C 151.65 80.66 157.53 79.66 162.39 76.32 C 161.77 77.56 161.42 79.12 160.03 79.74 C 155.00 82.74 148.96 83.05 143.47 84.81 C 144.09 89.94 144.25 95.11 144.30 100.28 C 143.92 100.27 143.15 100.26 142.77 100.26 C 142.07 95.26 141.73 90.22 141.64 85.18 C 139.20 85.77 136.76 86.38 134.36 87.15 C 134.79 92.61 135.23 98.09 135.06 103.58 C 134.58 103.29 133.61 102.73 133.12 102.44 C 132.69 97.53 132.98 92.58 132.73 87.65 C 130.00 88.27 126.93 89.44 124.66 87.10 C 131.71 85.07 138.85 83.37 145.95 81.51 Z" />
<path fill="#333333" opacity="1.00" d=" M 83.42 77.78 C 84.84 76.86 85.92 79.42 84.98 80.39 C 83.59 81.26 82.49 78.73 83.42 77.78 Z" />
<path fill="#333333" opacity="1.00" d=" M 29.75 79.64 C 32.33 78.33 33.21 83.29 32.36 85.05 C 32.68 85.00 33.33 84.90 33.65 84.85 C 33.20 85.76 32.76 86.66 32.30 87.56 C 32.25 88.21 32.15 89.51 32.10 90.16 L 31.06 90.20 C 30.94 86.65 30.21 83.16 29.75 79.64 Z" />
<path fill="#333333" opacity="1.00" d=" M 47.66 82.40 C 49.44 82.85 51.19 83.41 52.98 83.85 C 52.67 84.22 52.06 84.97 51.76 85.35 C 49.96 85.04 48.28 84.24 47.66 82.40 Z" />
<path fill="#333333" opacity="1.00" d=" M 42.50 94.57 C 43.27 91.09 42.59 86.02 47.04 85.06 C 46.47 86.10 45.85 87.13 45.23 88.14 C 45.32 90.67 44.53 92.98 42.50 94.57 Z" />
<path fill="#333333" opacity="1.00" d=" M 67.67 103.67 C 75.56 101.20 83.27 98.10 91.37 96.36 L 92.98 96.76 C 93.11 99.76 88.60 98.62 86.61 99.69 C 84.62 100.76 82.44 101.38 80.31 102.11 C 81.09 111.38 81.37 120.69 81.14 129.99 C 80.67 129.30 79.65 128.88 79.69 127.93 C 78.74 119.51 78.88 111.02 78.65 102.56 C 73.12 103.57 67.37 108.15 61.81 104.91 C 59.45 103.86 57.06 102.50 55.86 100.08 C 59.87 101.05 63.26 105.41 67.67 103.67 Z" />
<path fill="#333333" opacity="1.00" d=" M 87.75 102.73 C 87.00 102.07 88.26 98.91 89.12 100.82 C 90.39 106.17 90.26 111.73 89.91 117.18 C 87.23 112.91 88.16 107.53 87.75 102.73 Z" />
<path fill="#333333" opacity="1.00" d=" M 45.26 103.26 C 45.89 103.73 45.89 103.73 45.26 103.26 Z" />
<path fill="#333333" opacity="1.00" d=" M 49.68 109.39 C 49.26 107.36 49.77 105.32 50.28 103.36 C 50.41 110.92 53.61 118.03 53.73 125.53 C 51.23 120.49 50.76 114.83 49.68 109.39 Z" />
<path fill="#333333" opacity="1.00" d=" M 49.20 124.14 C 47.28 118.07 46.01 111.63 46.73 105.25 C 48.07 107.94 47.76 111.00 48.06 113.90 C 48.36 117.32 48.96 120.71 49.20 124.14 Z" />
<path fill="#333333" opacity="1.00" d=" M 40.42 128.17 C 40.84 128.47 41.68 129.06 42.10 129.36 C 42.68 133.85 39.92 138.52 35.85 140.44 C 37.92 136.61 41.73 132.92 40.42 128.17 Z" />
<path fill="#333333" opacity="1.00" d=" M 25.97 140.94 C 27.49 138.02 29.71 135.35 32.98 134.42 C 30.87 136.82 28.56 139.06 25.97 140.94 Z" />
<path fill="#333333" opacity="1.00" d=" M 54.53 147.25 C 55.14 146.38 55.77 145.52 56.41 144.68 C 58.15 147.99 53.83 149.50 51.33 149.92 C 52.30 148.91 53.38 148.04 54.53 147.25 Z" />
<path fill="#333333" opacity="1.00" d=" M 41.54 154.35 C 42.19 151.29 44.25 148.83 46.69 146.99 C 45.56 149.80 43.75 152.29 41.54 154.35 Z" />
<path fill="#333333" opacity="1.00" d=" M 26.36 156.89 C 29.39 156.31 32.86 157.11 34.49 159.95 C 31.50 159.83 28.82 158.48 26.36 156.89 Z" />
</g>
</svg>
