<?xml version="1.0" encoding="UTF-8" ?>
<!DOCTYPE svg PUBLIC "-//W3C//DTD SVG 1.1//EN" "http://www.w3.org/Graphics/SVG/1.1/DTD/svg11.dtd">
<svg width="227pt" height="300pt" viewBox="0 0 227 300" version="1.1" xmlns="http://www.w3.org/2000/svg"><g id="#434443ff">
<path fill="#333333" opacity="1.00" d=" M 105.68 26.02 C 108.95 23.91 112.30 21.46 116.30 21.08 C 119.39 21.33 122.55 21.52 125.54 22.42 C 127.67 23.93 128.64 26.57 129.93 28.77 C 132.15 34.06 137.34 37.43 139.34 42.85 C 140.48 46.00 141.31 49.27 142.88 52.25 C 142.45 53.81 143.38 56.04 141.98 57.15 C 140.50 56.68 140.18 55.52 141.02 53.67 C 139.40 50.40 138.81 46.78 137.48 43.41 C 136.06 39.68 132.36 37.57 130.55 34.10 C 128.77 30.84 127.06 27.53 125.08 24.38 C 122.08 23.69 119.01 23.06 115.91 23.22 C 113.18 23.47 110.87 25.07 108.51 26.31 C 109.29 28.20 110.04 30.10 110.75 32.02 C 113.08 31.66 115.35 31.02 117.55 30.18 C 118.93 29.00 120.36 27.88 121.82 26.80 C 121.19 27.42 119.92 28.67 119.28 29.29 C 119.88 29.69 121.08 30.50 121.68 30.90 C 120.94 31.43 119.47 32.47 118.73 32.99 C 120.77 36.26 123.71 39.17 124.33 43.13 C 125.94 50.33 126.86 58.03 131.85 63.85 C 133.43 60.73 134.75 56.10 139.01 56.07 C 138.01 58.41 136.17 60.15 134.35 61.84 C 134.48 62.80 134.74 64.72 134.87 65.68 C 137.20 65.54 140.20 66.10 141.49 63.60 C 141.61 62.53 141.85 60.38 141.96 59.31 C 142.86 60.51 143.76 61.71 144.66 62.91 C 143.16 64.35 142.09 66.52 140.07 67.24 C 136.68 67.42 133.30 66.56 130.22 65.18 C 129.19 63.16 128.10 60.70 125.32 61.22 C 126.51 63.90 127.79 66.55 129.48 68.96 C 129.03 69.53 128.57 70.10 128.11 70.66 C 127.02 69.04 125.85 67.47 124.65 65.94 C 124.81 69.69 125.43 73.40 125.69 77.15 C 127.40 75.76 129.39 74.39 129.28 71.89 C 129.96 71.37 130.65 70.86 131.35 70.36 C 133.01 73.09 131.18 76.29 128.66 77.63 C 124.36 79.97 119.88 81.99 115.80 84.71 C 113.61 86.00 112.81 88.59 111.18 90.42 C 108.58 90.97 105.67 89.40 103.19 90.79 C 99.37 92.97 96.62 96.51 93.41 99.43 C 92.64 100.50 91.29 100.36 90.14 100.50 C 91.57 98.56 93.40 96.97 94.83 95.04 C 94.80 93.50 94.63 91.97 94.51 90.44 C 91.08 90.46 87.63 90.67 84.27 91.29 C 82.37 92.49 80.59 93.88 78.57 94.86 C 76.27 98.44 77.22 102.96 77.64 106.93 C 78.97 111.66 80.28 116.42 82.08 121.00 C 82.37 120.32 82.94 118.96 83.23 118.28 C 83.68 118.06 84.58 117.61 85.03 117.39 C 84.63 119.53 84.23 121.67 83.88 123.82 C 86.23 126.48 86.97 130.12 89.25 132.82 C 89.76 131.50 90.28 130.18 90.82 128.87 C 91.03 130.46 91.25 132.04 91.46 133.64 C 93.11 132.98 94.76 132.32 96.42 131.67 C 96.89 130.80 97.37 129.93 97.85 129.06 C 98.14 129.52 98.71 130.43 98.99 130.88 C 100.96 130.91 103.00 130.61 104.90 131.22 C 106.86 132.49 108.27 134.42 110.06 135.90 C 111.27 135.05 112.49 134.20 113.69 133.32 C 113.07 132.30 112.46 131.27 111.86 130.24 C 112.77 130.75 113.67 131.26 114.57 131.79 C 115.74 131.43 116.91 131.07 118.09 130.72 C 119.04 127.94 118.51 125.03 118.28 122.18 C 121.21 125.28 121.19 129.90 118.64 133.23 C 120.10 136.24 120.66 139.72 119.66 142.96 C 119.42 142.81 118.93 142.50 118.69 142.34 C 118.27 139.18 118.24 135.98 117.66 132.84 C 115.31 135.88 111.69 136.91 108.02 137.16 C 105.74 134.76 103.50 132.08 99.79 132.40 C 96.55 133.61 93.22 134.62 89.72 134.49 C 91.63 135.57 93.64 136.48 95.54 137.57 C 94.75 137.73 93.17 138.05 92.39 138.21 C 93.18 140.69 93.79 143.22 94.39 145.76 C 99.24 148.20 104.74 147.27 109.86 148.61 C 115.33 149.90 120.60 147.40 125.79 146.12 C 125.53 146.76 124.99 148.04 124.72 148.68 C 119.78 149.29 115.07 151.98 109.99 150.98 C 104.48 149.64 98.42 150.40 93.62 146.83 C 93.55 147.45 93.40 148.67 93.32 149.28 C 92.73 149.31 91.56 149.36 90.97 149.39 C 88.38 154.55 91.72 159.74 91.15 165.08 C 91.63 168.93 89.29 172.27 88.98 176.01 C 88.72 179.14 87.62 182.09 85.99 184.76 C 86.44 185.34 87.34 186.49 87.79 187.06 C 88.84 185.35 89.23 182.82 91.61 182.45 C 91.63 184.28 91.62 186.10 91.59 187.93 C 94.94 189.31 98.29 191.46 102.07 190.96 C 105.12 190.47 108.50 189.93 110.79 187.66 C 112.17 185.54 111.40 182.78 112.29 180.50 C 114.57 179.38 117.04 178.80 119.51 178.27 C 120.68 175.93 122.04 173.69 123.74 171.69 C 123.40 174.51 122.44 177.33 120.63 179.56 C 117.81 180.72 114.14 180.86 112.93 184.22 C 116.86 184.79 121.00 186.98 124.93 185.22 C 129.08 183.87 131.88 180.22 135.90 178.62 C 134.36 176.74 133.32 174.52 133.10 172.08 C 132.56 167.42 129.86 163.44 128.52 159.03 C 128.74 156.99 129.47 155.03 129.56 152.97 C 129.61 151.10 127.86 150.04 126.76 148.81 C 126.74 147.46 126.75 146.12 126.76 144.77 C 126.33 144.64 125.45 144.39 125.01 144.26 C 125.26 141.32 124.73 138.23 125.61 135.40 C 127.81 131.84 130.14 128.12 129.95 123.74 C 129.34 123.72 128.13 123.68 127.52 123.67 C 126.19 121.00 123.78 118.90 120.66 118.96 C 119.93 122.05 116.69 122.40 114.27 123.45 C 112.68 124.98 111.30 126.73 109.37 127.87 C 110.09 125.19 111.76 122.95 113.74 121.07 C 114.69 121.02 116.58 120.91 117.53 120.86 C 116.97 119.64 116.40 118.43 115.81 117.22 C 114.33 116.76 112.85 116.28 111.36 115.84 C 111.26 116.91 111.16 117.97 111.06 119.04 C 110.27 119.74 109.47 120.45 108.67 121.15 C 109.32 119.04 109.32 116.58 110.79 114.81 C 112.20 113.09 114.34 114.74 116.03 115.09 C 117.80 115.54 118.33 117.51 119.33 118.81 C 122.46 115.73 127.84 118.78 128.29 122.73 C 129.00 121.36 129.92 119.78 128.89 118.28 C 127.09 115.09 127.57 110.97 124.42 108.56 C 121.03 109.45 117.58 110.18 114.05 109.86 L 115.34 110.80 C 113.10 111.87 110.54 112.53 108.86 114.48 C 107.25 114.64 105.63 114.74 104.01 114.80 C 106.99 112.15 110.62 110.53 114.29 109.08 C 114.87 109.13 116.04 109.23 116.63 109.28 C 118.59 107.93 120.89 107.31 123.18 106.79 C 123.52 106.00 123.86 105.20 124.19 104.40 C 124.10 102.68 123.36 100.84 124.21 99.20 C 126.65 101.86 126.47 106.37 126.51 109.89 C 127.14 109.92 128.42 109.99 129.05 110.02 C 130.15 106.41 129.16 102.59 129.84 98.91 C 133.38 96.55 134.82 92.40 137.08 89.00 C 138.56 86.94 140.09 84.90 141.58 82.84 C 140.94 82.46 140.31 82.09 139.67 81.73 C 136.09 85.13 132.21 88.30 129.49 92.48 C 124.34 98.24 118.45 103.36 111.96 107.59 C 111.55 107.30 110.73 106.72 110.32 106.42 C 106.47 108.25 103.02 110.98 98.74 111.76 C 100.72 113.96 102.79 116.11 104.55 118.50 C 103.26 117.99 101.98 117.47 100.70 116.94 C 97.66 117.15 97.68 121.35 95.04 122.48 C 95.39 120.54 96.18 118.74 96.99 116.96 L 97.39 116.41 C 98.47 116.27 99.55 116.22 100.65 116.26 C 97.93 114.28 95.78 110.06 91.77 111.52 C 90.30 113.88 89.85 116.79 88.31 119.16 C 88.47 116.16 88.70 113.17 88.79 110.17 C 86.26 110.33 83.75 110.62 81.23 110.80 C 83.71 106.37 89.95 108.64 93.54 110.40 C 93.90 110.23 94.63 109.87 94.99 109.69 C 98.53 110.14 102.00 108.88 104.90 106.92 C 106.94 105.38 109.56 105.69 111.94 105.44 C 113.97 103.99 115.57 102.03 117.66 100.66 C 123.01 97.05 126.90 91.82 131.13 87.05 C 133.25 84.72 136.16 83.08 137.58 80.15 C 140.50 79.09 142.77 76.95 144.60 74.49 C 143.58 70.86 145.04 67.34 145.50 63.76 C 144.84 62.05 143.54 60.71 142.56 59.20 L 143.14 58.94 C 145.49 58.48 146.24 61.33 147.55 62.70 C 146.96 67.10 145.68 71.47 146.51 75.94 C 144.50 77.35 142.85 79.14 141.59 81.24 C 141.67 81.84 141.84 83.02 141.93 83.62 C 140.24 86.78 139.20 90.25 137.25 93.28 C 135.18 96.95 132.05 99.97 130.51 103.93 C 131.90 107.56 130.88 111.24 130.13 114.85 C 132.57 121.17 131.49 128.23 128.63 134.21 C 128.85 137.88 128.71 141.55 128.79 145.22 C 128.62 145.62 128.28 146.42 128.11 146.82 C 129.06 147.88 130.07 148.90 130.94 150.04 C 132.12 152.74 130.86 155.49 130.26 158.15 C 131.73 163.37 134.75 168.10 135.33 173.57 C 135.47 175.46 137.09 176.65 138.26 177.94 C 137.77 179.46 136.67 180.62 135.70 181.84 C 135.84 186.21 136.52 190.57 136.25 194.96 C 135.94 198.14 138.65 200.88 137.80 204.07 C 136.46 209.25 136.43 214.73 137.03 220.02 C 139.48 229.14 136.21 239.03 139.81 247.89 C 143.17 250.63 145.93 253.99 149.02 257.01 C 151.10 259.15 154.06 259.57 156.83 260.16 C 159.19 261.64 161.10 264.34 159.14 266.95 C 156.74 267.88 154.41 269.02 151.98 269.86 C 149.57 269.77 147.19 269.11 144.76 269.44 C 142.46 268.40 140.27 267.12 137.86 266.32 C 134.96 265.69 132.05 267.09 129.14 266.62 C 127.46 266.25 126.00 265.32 124.49 264.55 C 122.99 256.15 128.59 248.32 126.52 239.96 C 125.93 235.14 122.53 231.41 121.16 226.87 C 120.96 221.54 121.53 216.21 122.80 211.03 C 121.94 209.30 120.97 207.62 120.27 205.83 C 119.42 202.83 120.29 199.31 118.26 196.69 C 116.36 193.90 114.66 190.98 113.23 187.92 C 112.38 188.90 111.52 189.88 110.65 190.86 C 110.38 196.04 109.94 201.55 107.04 206.02 C 104.62 209.66 103.82 214.04 102.24 218.06 C 99.81 224.47 101.92 231.41 100.68 237.97 C 97.25 246.35 96.03 256.24 99.35 264.84 C 101.99 268.82 103.81 273.39 107.18 276.86 C 108.45 278.35 109.51 280.00 110.69 281.55 C 110.85 282.85 111.01 284.14 111.17 285.44 C 109.77 286.35 108.21 286.95 106.58 287.32 C 100.47 291.87 88.33 288.81 88.37 280.16 C 87.87 277.35 85.89 274.98 85.84 272.08 C 85.77 269.75 85.10 267.52 84.46 265.30 C 85.16 261.59 85.70 257.77 85.14 254.01 C 84.41 247.48 81.24 241.31 81.71 234.64 C 82.35 229.82 84.09 225.25 85.65 220.68 C 86.41 217.17 86.31 213.53 86.97 210.00 C 87.36 206.88 88.84 204.04 89.31 200.94 C 89.18 196.69 88.50 192.42 89.25 188.19 C 86.89 190.40 85.17 187.19 84.20 185.32 C 85.11 182.92 86.79 180.74 86.88 178.09 C 87.33 171.28 90.54 164.61 88.47 157.74 C 85.23 170.83 82.75 184.10 79.89 197.27 C 79.11 195.69 78.39 193.85 78.94 192.08 C 82.04 177.72 85.11 163.35 88.14 148.97 C 88.69 145.96 89.35 142.94 90.73 140.18 C 90.74 139.51 90.78 138.16 90.79 137.48 C 87.55 133.71 84.44 129.71 83.14 124.81 C 78.45 120.83 78.21 114.41 76.08 109.05 C 75.78 104.32 73.05 98.64 76.59 94.53 C 78.59 91.89 80.54 89.21 82.84 86.81 C 85.58 84.02 89.45 82.88 92.63 80.74 C 93.12 77.64 92.59 74.40 91.08 71.65 C 91.18 70.52 91.28 69.40 91.38 68.28 C 90.18 64.23 89.68 59.18 92.99 55.95 C 96.78 51.34 103.63 52.14 108.71 53.75 C 109.02 51.42 109.46 49.10 109.87 46.79 C 104.40 46.28 101.42 40.86 100.47 36.04 C 101.11 32.45 100.64 26.16 105.68 26.02 M 103.01 38.87 C 103.68 41.52 106.00 43.15 107.88 44.93 C 110.79 44.51 113.90 44.78 116.60 43.46 C 118.36 42.59 119.31 40.79 120.40 39.26 C 117.37 42.03 113.15 44.03 108.97 43.13 C 107.12 42.55 105.41 41.12 104.80 39.23 C 104.24 35.83 105.63 32.58 106.79 29.46 C 106.29 29.12 105.31 28.42 104.82 28.07 C 103.63 31.50 101.32 35.25 103.01 38.87 M 107.95 31.20 C 107.32 33.55 106.67 35.90 106.12 38.27 C 107.29 39.32 108.37 40.54 109.80 41.26 C 112.45 41.55 114.91 40.37 117.34 39.51 C 118.16 38.25 119.00 37.01 119.84 35.77 C 118.86 34.93 117.95 34.00 116.89 33.28 C 114.82 33.23 112.76 33.58 110.70 33.70 C 109.79 32.86 108.87 32.03 107.95 31.20 M 120.49 43.32 C 117.99 45.16 115.18 46.57 112.01 46.60 C 111.43 49.21 110.85 51.83 110.10 54.41 C 111.50 55.73 112.90 57.08 114.31 58.39 C 116.54 66.12 116.84 74.36 115.48 82.27 C 118.07 80.46 120.61 78.58 123.40 77.09 C 122.34 72.67 123.61 68.27 124.72 64.01 C 124.27 62.63 123.84 61.25 123.43 59.86 C 124.12 59.76 125.49 59.55 126.17 59.44 C 124.42 53.27 123.53 46.88 121.46 40.81 C 121.14 41.64 120.82 42.48 120.49 43.32 M 95.49 55.59 C 92.11 58.08 92.19 62.84 92.03 66.62 C 92.58 66.58 93.69 66.51 94.25 66.48 C 93.58 67.64 92.92 68.81 92.27 69.99 C 93.93 72.50 96.26 74.40 98.68 76.15 C 98.27 76.56 97.45 77.39 97.04 77.80 C 98.54 82.40 103.71 84.18 108.12 84.03 C 110.91 83.17 113.05 80.65 113.75 77.86 C 114.40 72.38 114.55 66.76 113.55 61.32 C 110.63 54.82 101.61 52.03 95.49 55.59 M 94.17 75.50 C 94.15 78.53 94.26 81.59 93.59 84.57 C 89.81 85.02 85.88 86.34 83.33 89.31 C 87.02 89.40 90.70 88.79 94.37 88.88 C 95.65 89.77 96.74 90.91 97.92 91.93 C 98.51 91.44 99.69 90.48 100.28 89.99 C 99.27 88.24 98.30 86.46 97.57 84.58 C 99.08 85.97 100.32 87.62 101.58 89.24 C 104.36 88.61 107.20 88.60 110.03 88.57 C 110.58 87.76 111.67 86.15 112.22 85.34 C 107.39 87.09 102.29 85.45 98.09 82.94 C 95.89 81.06 95.36 78.01 94.17 75.50 M 90.81 148.34 C 93.07 148.49 92.51 144.50 91.61 143.27 C 90.57 144.55 90.11 146.78 90.81 148.34 M 113.78 185.06 L 113.26 187.29 C 115.16 188.53 116.96 189.99 118.14 191.96 C 120.23 195.38 123.08 198.71 122.97 202.95 C 122.89 207.04 125.55 210.35 126.75 214.08 C 126.43 214.88 125.77 216.49 125.44 217.29 L 124.40 213.62 C 122.24 218.25 123.78 223.26 124.35 228.04 C 124.79 231.60 127.66 234.32 128.08 237.90 C 128.53 241.98 128.23 246.09 128.28 250.18 C 126.67 254.47 126.10 259.38 126.76 263.86 C 129.60 266.15 133.60 264.44 136.95 264.74 C 140.64 264.31 143.39 267.56 147.00 267.55 C 149.02 267.70 151.03 268.02 153.06 267.95 C 154.91 267.26 156.54 266.13 158.16 265.03 C 157.65 264.07 157.07 263.17 156.48 262.28 C 147.56 262.12 143.71 253.12 137.56 248.22 C 135.37 240.61 136.22 232.74 135.78 224.96 C 134.13 218.06 134.55 210.82 136.12 203.96 C 136.68 201.55 135.38 199.28 134.72 197.05 C 133.07 199.32 131.62 203.32 128.12 202.68 C 125.53 201.43 125.43 198.08 124.71 195.67 C 126.05 197.84 127.10 200.72 129.85 201.43 C 132.06 199.80 132.47 196.87 133.32 194.44 C 133.75 194.55 134.62 194.79 135.05 194.90 C 135.00 190.48 134.79 186.07 134.40 181.67 C 128.95 186.39 120.15 190.48 113.78 185.06 M 90.70 189.58 C 90.84 192.43 91.10 195.28 91.28 198.13 C 92.14 203.38 88.17 207.77 88.04 212.94 C 88.15 218.72 90.15 224.24 92.01 229.66 C 91.53 229.52 90.57 229.24 90.09 229.10 C 89.24 226.54 88.32 223.99 87.34 221.47 C 84.51 227.81 81.72 235.03 83.99 241.98 C 86.10 249.73 88.56 257.92 86.06 265.91 C 87.56 269.87 88.62 273.98 90.36 277.86 C 91.48 280.30 91.02 283.59 93.45 285.30 C 96.70 288.10 101.53 287.90 104.95 285.52 C 104.52 284.92 103.65 283.72 103.22 283.12 C 99.98 284.15 96.62 283.76 93.30 283.46 C 93.46 283.10 93.78 282.37 93.94 282.00 C 97.27 282.08 100.58 281.71 103.90 281.51 C 105.01 282.55 105.63 283.96 106.46 285.21 C 107.63 284.90 108.87 284.71 109.88 283.98 C 107.50 278.93 102.77 275.50 100.63 270.29 C 94.08 261.15 93.73 248.36 98.37 238.31 C 99.84 234.49 99.07 230.34 98.79 226.39 C 97.46 229.08 96.04 231.89 96.06 234.96 C 95.91 237.28 96.09 239.88 94.32 241.67 C 93.53 236.60 94.40 231.31 96.81 226.77 C 100.79 220.11 101.33 211.97 105.50 205.41 C 108.08 201.23 108.68 196.23 109.29 191.46 C 105.89 192.18 102.47 193.22 98.96 192.96 C 96.00 192.43 93.44 190.71 90.70 189.58 Z" />
<path fill="#333333" opacity="1.00" d=" M 115.60 97.18 C 117.10 93.22 117.88 87.41 122.75 86.30 C 122.22 88.77 119.98 90.37 119.24 92.75 C 118.50 94.72 117.64 96.64 116.74 98.54 C 112.49 99.27 108.15 98.91 103.88 99.40 C 102.84 100.22 101.96 101.23 100.93 102.07 C 100.58 101.27 99.90 99.67 99.56 98.87 C 104.60 96.60 110.20 96.67 115.60 97.18 Z" />
<path fill="#333333" opacity="1.00" d=" M 116.16 113.13 C 117.80 109.01 123.43 111.25 123.17 115.19 C 122.04 114.46 120.95 113.68 119.87 112.89 C 118.94 112.95 117.09 113.07 116.16 113.13 Z" />
<path fill="#333333" opacity="1.00" d=" M 91.02 123.93 C 91.40 123.82 92.16 123.61 92.54 123.50 C 92.42 125.06 92.32 126.62 92.24 128.19 C 94.61 127.66 96.47 126.21 97.70 124.14 C 99.82 124.76 102.03 124.65 104.21 124.51 C 105.93 125.73 107.65 126.95 109.31 128.25 C 106.39 128.69 103.82 126.68 100.91 127.02 C 97.94 126.39 96.03 130.00 93.06 129.11 C 92.14 128.39 91.35 127.54 90.52 126.73 C 90.69 125.79 90.85 124.86 91.02 123.93 Z" />
<path fill="#333333" opacity="1.00" d=" M 123.86 134.77 C 123.73 131.11 124.30 126.66 127.40 124.29 C 127.70 128.07 125.61 131.57 123.86 134.77 Z" />
<path fill="#333333" opacity="1.00" d=" M 105.35 139.84 C 103.19 138.38 99.80 137.48 99.30 134.54 C 101.82 135.64 104.20 137.24 105.35 139.84 Z" />
<path fill="#333333" opacity="1.00" d=" M 105.79 138.02 C 107.53 139.79 108.66 141.99 110.01 144.04 C 111.53 145.65 113.46 146.80 115.00 148.40 C 109.54 148.02 105.90 143.28 105.79 138.02 Z" />
<path fill="#333333" opacity="1.00" d=" M 108.97 153.46 C 115.11 153.72 121.21 152.20 126.82 149.77 C 125.85 150.77 125.13 152.11 123.85 152.77 C 117.73 155.28 110.95 155.95 104.44 154.88 C 103.11 159.80 97.97 163.67 92.97 163.55 C 96.65 160.82 101.23 158.98 103.16 154.46 C 101.29 153.65 99.36 152.95 97.45 152.26 C 96.33 154.82 95.53 157.51 94.86 160.22 C 93.26 156.91 95.14 153.64 96.58 150.65 C 100.68 151.69 104.69 153.33 108.97 153.46 Z" />
<path fill="#333333" opacity="1.00" d=" M 104.66 163.42 C 108.98 159.50 115.31 159.35 120.77 158.22 C 120.51 158.72 120.00 159.72 119.74 160.22 C 114.60 160.69 109.74 162.61 104.66 163.42 Z" />
<path fill="#333333" opacity="1.00" d=" M 121.20 159.20 C 120.99 157.25 124.63 157.70 125.61 158.62 C 124.88 159.99 122.46 159.80 121.20 159.20 Z" />
<path fill="#333333" opacity="1.00" d=" M 109.42 166.65 C 114.88 163.74 120.41 160.56 126.66 159.81 C 121.81 163.79 114.45 164.00 110.24 168.77 C 116.26 168.95 122.54 167.78 128.42 166.12 C 125.51 170.00 120.31 169.80 115.96 170.11 C 111.35 169.97 106.59 172.48 102.15 170.34 C 104.42 169.88 106.73 169.60 109.05 169.43 C 109.16 168.50 109.29 167.58 109.42 166.65 Z" />
<path fill="#333333" opacity="1.00" d=" M 78.27 197.38 C 79.76 197.24 79.70 200.73 78.24 200.63 C 77.47 199.55 77.48 198.46 78.27 197.38 Z" />
<path fill="#333333" opacity="1.00" d=" M 76.31 201.99 C 76.15 200.71 78.15 201.90 78.85 201.63 C 78.27 204.48 77.60 207.32 77.36 210.22 C 76.44 210.22 75.53 210.23 74.61 210.25 C 75.75 207.65 76.62 204.87 76.31 201.99 Z" />
<path fill="#333333" opacity="1.00" d=" M 93.90 204.96 C 96.37 204.77 98.77 204.17 101.03 203.13 C 101.64 204.94 102.26 206.75 102.75 208.60 C 101.91 207.61 101.14 206.56 100.39 205.51 C 98.62 206.04 96.84 206.50 95.05 206.94 C 94.75 207.81 94.15 209.55 93.85 210.42 C 93.52 208.61 93.71 206.77 93.90 204.96 Z" />
<path fill="#333333" opacity="1.00" d=" M 74.96 210.25 C 75.53 210.92 76.10 211.59 76.67 212.27 C 75.82 216.23 74.76 220.17 74.37 224.22 C 73.44 224.25 72.52 224.30 71.59 224.35 C 73.43 219.85 74.07 215.00 74.96 210.25 Z" />
<path fill="#333333" opacity="1.00" d=" M 50.67 213.19 C 50.92 212.66 51.41 211.60 51.66 211.07 C 52.93 214.77 53.82 218.59 54.46 222.44 C 54.05 223.37 53.59 224.27 53.08 225.14 C 52.46 221.12 51.02 217.24 50.67 213.19 Z" />
<path fill="#333333" opacity="1.00" d=" M 95.78 216.05 C 95.77 215.32 95.76 214.60 95.76 213.88 C 97.05 214.09 98.35 214.29 99.65 214.51 C 99.51 214.88 99.23 215.63 99.10 216.00 C 98.27 216.01 96.61 216.04 95.78 216.05 Z" />
<path fill="#333333" opacity="1.00" d=" M 54.92 223.84 C 55.57 227.16 56.29 230.46 57.09 233.76 C 58.80 232.79 60.51 231.83 62.25 230.91 C 62.61 231.48 62.31 232.58 63.21 232.68 C 65.05 233.18 66.39 234.60 67.70 235.90 C 67.98 238.01 68.52 240.08 70.63 241.02 C 69.65 244.00 69.12 247.10 68.51 250.17 C 66.24 251.84 63.89 253.53 60.96 253.67 C 59.12 252.00 57.14 250.42 55.73 248.35 C 54.68 244.64 54.76 240.74 55.32 236.96 C 56.01 232.52 51.75 227.82 54.92 223.84 M 57.26 239.92 C 57.09 243.39 57.01 247.62 59.99 250.04 C 61.95 251.91 65.33 250.71 66.37 248.40 C 68.95 243.00 66.61 235.93 61.24 233.21 C 59.60 235.19 57.16 237.06 57.26 239.92 Z" />
<path fill="#333333" opacity="1.00" d=" M 71.82 225.82 C 72.88 224.18 73.80 227.22 73.09 227.99 C 72.20 230.06 71.18 226.57 71.82 225.82 Z" />
<path fill="#333333" opacity="1.00" d=" M 70.30 230.01 C 70.94 229.84 72.21 229.50 72.85 229.33 C 70.97 235.51 75.44 241.95 72.07 247.91 C 71.55 247.22 71.04 246.51 70.54 245.80 C 70.98 243.49 72.31 240.89 71.40 238.57 C 70.32 237.81 69.86 236.58 69.33 235.43 C 68.38 233.11 65.96 231.92 64.38 230.11 C 66.94 229.85 69.06 231.14 71.03 232.55 C 70.85 231.91 70.49 230.64 70.30 230.01 Z" />
<path fill="#333333" opacity="1.00" d=" M 131.79 259.49 C 129.26 257.14 128.81 253.73 130.38 250.71 C 130.88 253.63 131.37 256.56 131.79 259.49 Z" />
<path fill="#333333" opacity="1.00" d=" M 88.59 267.79 C 90.14 264.71 91.16 260.60 94.75 259.32 C 93.17 262.44 92.07 266.23 88.59 267.79 Z" />
</g>
</svg>
