<?xml version="1.0" encoding="UTF-8" ?>
<!DOCTYPE svg PUBLIC "-//W3C//DTD SVG 1.1//EN" "http://www.w3.org/Graphics/SVG/1.1/DTD/svg11.dtd">
<svg width="174pt" height="225pt" viewBox="0 0 174 225" version="1.1" xmlns="http://www.w3.org/2000/svg"><g id="#363636ff">
<path fill="#333333" opacity="1.00" d=" M 169.68 8.74 C 170.85 6.57 172.30 4.57 174.00 2.78 L 174.00 4.70 C 164.46 22.13 154.49 39.34 144.63 56.59 C 152.95 57.26 158.28 64.16 165.08 68.05 C 167.38 69.41 167.19 72.40 167.87 74.66 C 166.50 78.95 167.35 83.59 165.82 87.84 C 164.19 94.45 158.59 98.78 155.29 104.48 C 151.26 107.32 147.17 110.13 143.36 113.30 C 144.23 116.89 144.23 120.64 145.44 124.15 C 144.91 125.04 144.28 125.85 143.57 126.60 C 141.74 122.84 141.88 118.59 140.89 114.61 C 135.78 114.86 130.85 113.45 125.89 112.50 C 126.17 111.04 126.46 109.59 126.75 108.13 C 127.80 107.28 128.85 106.42 129.90 105.55 C 125.45 107.07 120.79 110.02 115.98 108.25 C 114.57 110.65 113.19 113.07 111.77 115.47 C 115.76 116.89 122.23 117.61 122.73 122.88 C 119.02 120.81 115.72 117.83 111.43 116.95 C 108.71 119.21 112.69 122.17 112.96 124.82 C 111.50 123.68 110.16 122.40 108.84 121.11 C 107.56 123.49 106.29 125.87 105.12 128.31 C 108.94 128.72 112.18 126.56 115.43 124.92 C 118.23 129.21 119.13 134.34 121.07 138.99 C 125.06 143.02 131.00 140.36 135.76 139.60 C 139.67 137.05 143.01 132.71 142.93 127.84 C 143.31 127.76 144.07 127.60 144.46 127.53 C 144.43 130.07 144.50 132.63 144.95 135.14 C 146.32 142.68 144.76 150.30 144.51 157.87 C 144.23 157.88 143.67 157.90 143.39 157.91 C 143.29 150.53 143.54 143.14 142.89 135.78 C 140.61 138.40 138.42 141.61 134.91 142.63 C 131.00 143.27 127.04 143.51 123.10 143.79 C 123.50 147.75 124.81 151.49 126.12 155.21 C 126.73 158.83 126.25 162.72 128.01 166.08 C 129.40 169.12 132.40 170.81 134.90 172.84 C 137.62 172.49 140.24 171.68 142.85 170.87 C 145.12 168.08 147.41 165.19 148.65 161.76 C 150.43 156.00 149.42 149.91 150.01 144.01 C 153.39 141.43 153.23 136.90 153.18 133.09 C 152.23 129.55 149.52 125.51 145.26 126.38 C 145.57 125.86 146.19 124.83 146.49 124.31 C 148.94 124.82 151.78 125.51 152.98 127.98 C 156.46 133.26 155.71 140.25 152.54 145.48 C 150.79 151.71 153.97 159.13 149.88 164.76 C 147.63 167.80 145.50 171.16 142.26 173.24 C 138.91 174.40 134.84 175.58 131.69 173.28 C 126.40 170.65 124.57 164.48 123.99 159.03 C 123.72 154.92 122.14 151.07 121.64 147.00 C 121.37 142.74 118.10 139.50 117.60 135.28 C 116.32 132.91 115.14 130.48 113.83 128.13 C 110.72 129.73 107.29 130.36 103.89 131.03 C 100.66 135.18 98.71 140.18 96.05 144.71 C 98.83 148.24 100.98 152.77 98.88 157.26 C 97.52 154.07 96.83 150.65 95.45 147.46 C 94.48 146.75 93.52 146.02 92.58 145.29 C 87.22 146.24 82.62 149.22 79.46 153.64 C 80.43 153.26 81.40 152.88 82.36 152.48 C 83.98 150.66 86.12 149.44 88.49 148.88 C 87.07 150.78 84.96 151.95 83.25 153.56 C 82.05 155.32 81.35 157.36 80.43 159.27 C 82.25 160.15 84.03 161.11 85.80 162.10 C 84.62 165.86 80.44 166.06 77.17 166.62 C 75.76 167.60 74.33 168.56 72.88 169.50 C 72.44 175.23 70.55 180.89 66.89 185.37 C 68.73 180.06 71.71 175.14 72.59 169.51 C 69.31 164.24 74.01 158.54 76.80 154.15 C 76.06 147.77 76.45 141.24 74.73 135.00 C 73.76 131.01 71.91 127.14 72.25 122.94 C 72.72 118.23 73.60 113.56 73.79 108.82 C 71.65 109.25 69.52 109.74 67.40 110.23 C 64.98 112.69 62.24 115.12 61.29 118.58 C 59.48 123.76 62.46 128.86 63.14 133.97 C 64.44 139.12 63.07 144.70 65.31 149.64 C 66.55 152.70 67.10 156.00 68.60 158.97 C 68.87 153.92 66.83 149.22 65.89 144.36 C 69.51 148.33 69.64 153.90 69.92 158.96 C 70.01 162.34 71.13 166.09 69.16 169.16 C 66.31 173.55 64.13 178.54 59.77 181.71 C 56.70 184.72 53.42 190.91 57.49 194.32 C 56.80 194.75 56.11 195.18 55.42 195.61 C 51.21 190.95 54.92 184.44 58.38 180.56 C 62.76 177.27 65.99 172.42 67.13 167.06 C 67.12 159.80 63.68 153.13 62.34 146.10 C 61.45 141.81 62.30 137.37 61.31 133.09 C 59.97 128.01 59.22 122.68 59.55 117.44 C 61.46 111.56 67.35 108.13 73.13 106.99 C 72.69 103.90 70.58 101.14 70.98 97.93 C 71.00 95.44 72.23 93.23 73.68 91.30 C 71.71 86.81 68.49 82.15 69.98 77.02 C 71.20 72.36 76.06 70.14 77.85 65.80 C 79.48 62.16 82.95 59.99 85.92 57.54 C 83.83 50.65 81.41 43.39 83.15 36.14 C 84.49 27.54 94.95 23.24 102.66 25.50 C 106.97 26.79 108.08 31.70 109.42 35.42 C 110.80 38.82 109.47 42.43 109.73 45.92 C 111.19 48.53 113.74 50.89 116.91 50.85 C 120.22 50.96 123.45 52.39 126.77 51.70 C 132.55 50.34 137.69 54.24 142.89 56.12 C 151.71 40.26 160.88 24.61 169.68 8.74 M 86.26 32.40 C 83.08 39.05 83.73 47.25 87.43 53.57 C 89.10 56.69 90.64 61.15 94.99 60.89 C 100.72 61.39 103.29 55.26 106.18 51.43 C 105.97 52.73 105.67 54.02 105.30 55.28 C 105.50 55.63 105.89 56.34 106.09 56.69 C 106.89 60.70 110.50 67.01 105.86 69.70 C 105.25 65.94 105.20 62.11 105.01 58.30 C 105.03 57.58 104.68 57.24 103.96 57.29 C 101.02 60.05 97.46 63.54 93.02 62.55 C 90.52 62.37 88.66 60.66 86.96 59.00 C 84.50 61.54 81.23 63.55 79.94 67.00 C 78.82 70.02 75.52 71.32 73.89 73.99 C 72.14 76.23 71.92 79.14 71.75 81.86 C 73.19 86.18 75.33 90.26 77.54 94.23 C 78.76 90.75 80.69 87.10 84.65 86.31 C 86.83 88.03 88.76 90.04 90.57 92.14 C 91.03 91.11 91.49 90.07 91.97 89.05 C 89.64 87.30 87.01 86.00 84.67 84.27 C 88.53 84.59 93.16 85.80 94.00 90.21 C 93.02 91.03 90.82 93.12 93.05 93.95 C 97.09 96.94 102.26 95.58 106.51 93.86 C 107.52 92.02 108.56 90.20 109.57 88.36 C 108.64 85.81 107.74 83.24 106.55 80.80 C 108.59 82.49 109.28 85.06 110.20 87.43 C 112.24 88.26 114.18 89.31 116.03 90.50 C 118.99 90.02 122.29 89.79 124.64 87.71 C 128.36 83.48 129.88 77.91 132.66 73.12 C 128.78 73.38 127.66 77.21 127.34 80.43 C 125.67 78.43 126.34 75.51 128.20 73.87 C 127.15 72.59 126.13 71.30 125.06 70.04 C 127.60 71.30 130.44 71.53 133.20 71.98 C 136.17 67.22 139.58 62.63 141.78 57.45 C 138.18 55.08 133.84 54.32 129.72 53.30 C 127.69 52.72 125.77 53.87 123.88 54.44 C 120.32 52.61 116.30 52.64 112.44 52.07 C 111.06 50.52 109.57 49.09 107.93 47.82 C 107.88 42.24 108.39 36.49 106.13 31.22 C 104.67 29.04 102.92 26.41 99.96 26.47 C 94.92 26.50 89.43 28.29 86.26 32.40 M 143.31 59.33 C 141.49 62.38 139.56 65.36 137.41 68.18 C 139.73 67.05 142.00 65.80 144.42 64.88 C 143.44 68.14 138.86 68.41 137.44 71.04 C 140.26 75.93 146.20 77.18 151.28 78.44 C 153.93 77.02 156.49 75.44 159.26 74.25 C 157.55 76.50 155.13 78.03 153.07 79.92 C 153.42 83.20 154.47 86.71 153.01 89.88 C 151.99 92.99 148.93 94.62 146.67 96.71 C 147.98 97.15 149.29 97.60 150.60 98.06 C 150.07 98.54 149.54 99.02 149.02 99.51 C 144.33 99.00 141.52 93.77 136.42 95.22 C 137.47 97.36 138.02 100.20 136.11 102.06 C 133.72 104.41 131.15 106.56 128.53 108.64 C 128.39 109.28 128.09 110.56 127.94 111.20 C 133.21 110.55 138.43 114.09 143.48 111.17 C 142.95 110.37 142.42 109.57 141.91 108.76 C 142.65 108.61 144.12 108.29 144.86 108.14 C 144.85 108.52 144.82 109.28 144.81 109.66 C 147.69 107.12 150.93 105.11 154.35 103.38 C 156.64 100.62 158.18 97.26 160.72 94.64 C 165.77 88.57 165.79 80.39 165.85 72.93 C 164.28 68.23 159.34 66.00 155.29 63.80 C 151.89 61.24 147.75 58.26 143.31 59.33 M 134.77 73.51 C 132.37 76.79 131.75 80.83 130.69 84.64 C 128.62 87.80 125.19 89.92 123.82 93.60 C 126.22 95.13 128.12 97.24 130.20 99.15 C 126.98 100.78 125.56 96.25 122.59 95.81 C 120.96 99.01 118.97 102.02 117.66 105.37 C 117.87 107.39 120.09 106.36 121.43 106.31 C 126.65 105.19 131.99 102.42 134.84 97.77 C 135.13 94.90 135.02 91.99 134.73 89.12 C 134.52 87.03 133.32 84.99 133.90 82.86 C 134.60 79.81 136.30 76.59 134.77 73.51 M 137.17 74.16 C 137.89 77.60 136.27 80.73 135.56 84.00 C 136.26 87.25 137.19 90.45 137.20 93.80 C 140.42 93.09 143.49 93.71 146.11 95.74 C 148.22 93.76 150.77 91.89 151.54 88.94 C 151.87 86.03 151.42 83.11 151.40 80.20 C 146.17 80.04 140.40 78.63 137.17 74.16 M 77.08 96.74 C 76.21 95.41 75.33 94.09 74.44 92.77 C 73.61 94.82 72.96 96.93 72.46 99.07 C 76.11 104.28 75.67 110.83 75.26 116.85 C 74.75 121.06 73.76 125.49 75.33 129.61 C 76.79 133.22 77.74 137.03 78.04 140.92 C 78.19 144.87 79.95 148.86 78.19 152.72 C 79.49 150.99 80.85 149.32 82.25 147.67 C 82.23 146.70 82.20 144.76 82.19 143.78 C 82.77 144.83 83.33 145.89 83.88 146.96 C 85.40 146.28 86.92 145.62 88.45 144.99 C 88.09 140.74 91.39 137.20 90.86 132.95 C 90.44 127.51 91.64 121.95 89.95 116.64 C 88.15 120.42 85.38 123.84 85.04 128.16 C 82.54 124.82 81.11 120.87 78.82 117.41 C 78.74 113.11 78.54 108.76 79.70 104.57 C 80.44 108.69 80.38 112.88 80.27 117.05 C 81.86 119.31 83.09 121.78 84.41 124.20 C 86.81 119.18 88.52 113.74 88.41 108.12 C 88.18 103.36 86.96 98.64 87.55 93.86 C 88.04 91.39 86.00 89.49 85.07 87.39 C 80.99 88.97 79.33 93.34 77.08 96.74 M 110.54 88.99 C 110.58 91.79 108.21 93.65 106.55 95.58 C 103.78 97.30 100.22 97.56 97.04 97.20 C 93.99 97.07 91.86 94.69 89.58 92.99 C 89.51 93.64 89.36 94.94 89.29 95.60 C 92.18 100.19 97.88 101.14 101.48 104.89 C 104.29 105.19 107.20 105.20 109.86 106.28 C 111.60 106.56 113.35 106.74 115.11 106.84 C 115.10 103.46 110.09 100.40 113.54 97.24 C 113.85 99.60 114.27 102.07 116.75 103.07 C 117.95 100.95 119.10 98.81 120.30 96.70 C 117.50 96.24 114.76 95.50 111.95 95.12 C 113.85 92.74 116.69 93.60 119.19 94.33 C 121.08 94.92 122.22 92.85 123.29 91.73 C 118.98 92.21 113.09 93.74 110.54 88.99 M 89.77 103.90 C 91.49 103.48 93.17 102.96 94.88 102.52 C 93.04 101.51 91.15 100.56 89.42 99.37 C 89.29 100.89 89.39 102.42 89.77 103.90 M 96.30 102.66 C 96.37 103.38 96.53 104.82 96.61 105.54 C 95.40 105.32 94.22 105.00 93.03 104.71 C 92.04 105.05 91.06 105.39 90.08 105.73 C 90.25 109.64 89.57 113.69 91.30 117.36 C 95.16 120.29 99.75 123.54 99.87 128.88 C 101.09 128.47 102.31 128.06 103.53 127.64 C 106.78 121.16 110.25 114.83 113.87 108.54 C 109.58 107.95 105.35 107.06 101.04 106.67 C 99.33 105.50 97.91 103.96 96.30 102.66 M 92.05 119.88 C 93.59 124.13 92.26 128.61 92.97 132.97 C 93.35 137.24 90.75 140.86 89.31 144.68 C 90.96 144.57 92.60 144.48 94.25 144.40 C 96.96 139.79 99.46 135.07 101.91 130.32 C 99.85 131.58 97.83 134.39 95.20 133.78 C 93.65 131.75 96.91 131.13 98.06 130.00 C 97.99 128.68 97.93 127.37 97.87 126.06 C 96.01 123.92 94.01 121.92 92.05 119.88 M 79.14 154.18 C 76.44 157.88 74.85 162.24 73.92 166.70 C 78.32 163.42 78.43 157.44 81.61 153.30 C 80.99 153.52 79.76 153.96 79.14 154.18 M 79.87 160.79 C 79.27 162.03 78.08 164.51 77.49 165.75 C 79.31 164.97 81.14 164.18 82.96 163.38 C 83.53 161.68 80.83 161.65 79.87 160.79 Z" />
<path fill="#333333" opacity="1.00" d=" M 110.49 57.22 C 113.08 57.55 116.23 57.78 117.61 60.39 C 118.64 61.25 117.17 62.24 116.96 63.14 C 115.44 60.51 112.98 58.82 110.49 57.22 Z" />
<path fill="#333333" opacity="1.00" d=" M 117.03 64.76 C 120.90 64.57 121.55 59.60 125.11 58.76 C 123.58 61.51 122.40 65.22 118.86 65.85 C 115.22 66.62 112.17 68.80 109.43 71.21 C 108.99 72.61 108.33 73.91 107.46 75.08 C 106.12 69.36 112.23 65.65 117.03 64.76 Z" />
<path fill="#333333" opacity="1.00" d=" M 97.47 64.82 C 100.29 64.31 102.63 66.94 103.49 69.38 C 103.14 69.54 102.44 69.85 102.09 70.00 C 100.41 68.40 99.00 66.54 97.47 64.82 Z" />
<path fill="#333333" opacity="1.00" d=" M 91.54 64.22 C 92.89 66.18 92.84 68.58 91.42 70.51 C 91.60 71.03 91.98 72.08 92.17 72.60 C 88.46 71.28 84.80 69.54 80.80 70.79 C 83.52 68.38 87.73 68.17 90.50 70.73 C 91.04 68.60 91.16 66.38 91.54 64.22 Z" />
<path fill="#333333" opacity="1.00" d=" M 95.35 71.59 C 98.04 71.17 101.31 70.52 103.47 72.68 C 105.93 74.02 104.88 77.11 104.91 79.36 C 104.07 77.74 103.43 76.02 102.53 74.42 C 100.58 72.58 97.59 72.95 95.35 71.59 Z" />
<path fill="#333333" opacity="1.00" d=" M 129.28 95.79 C 129.99 92.94 130.84 90.12 131.99 87.41 C 132.47 90.50 131.63 93.66 129.28 95.79 Z" />
<path fill="#333333" opacity="1.00" d=" M 133.21 93.25 C 134.83 93.30 134.06 95.72 132.87 95.88 C 131.37 95.82 132.10 93.41 133.21 93.25 Z" />
<path fill="#333333" opacity="1.00" d=" M 102.78 101.86 C 104.16 99.09 107.57 98.26 109.52 95.91 C 108.94 99.40 106.31 101.74 102.78 101.86 Z" />
<path fill="#333333" opacity="1.00" d=" M 88.47 149.38 C 91.36 147.01 94.09 150.09 96.11 152.02 C 96.35 155.46 95.26 158.74 94.33 161.99 C 95.90 160.06 96.73 157.69 97.57 155.39 C 99.39 159.52 95.90 163.20 94.01 166.57 C 94.44 166.64 95.29 166.78 95.72 166.85 C 95.12 168.12 94.60 169.44 93.89 170.67 C 91.05 171.12 88.16 171.12 85.30 171.46 C 86.37 174.34 88.57 177.31 87.45 180.51 C 84.20 185.94 76.11 184.53 72.85 189.88 C 72.15 190.81 71.52 191.80 70.90 192.80 C 66.86 195.78 60.98 198.27 56.33 195.20 C 59.43 194.82 62.72 195.00 65.54 193.42 C 70.38 191.57 72.45 186.11 77.23 184.16 C 80.04 182.65 83.95 182.48 85.67 179.47 C 86.37 176.93 84.43 174.55 84.01 172.11 C 82.30 172.56 80.60 173.03 78.89 173.49 C 77.86 172.41 76.86 171.32 75.88 170.20 C 80.90 171.35 85.90 169.90 90.84 169.08 C 93.67 167.66 94.21 163.72 93.56 160.84 C 92.86 158.08 94.10 155.42 94.75 152.79 C 92.56 151.84 90.48 150.66 88.47 149.38 Z" />
</g>
</svg>
