<?xml version="1.0" encoding="UTF-8" ?>
<!DOCTYPE svg PUBLIC "-//W3C//DTD SVG 1.1//EN" "http://www.w3.org/Graphics/SVG/1.1/DTD/svg11.dtd">
<svg width="257pt" height="200pt" viewBox="0 0 257 200" version="1.1" xmlns="http://www.w3.org/2000/svg"><g id="#141412ff">
<path fill="#333333" opacity="1.00" d=" M 174.17 35.95 C 174.72 33.41 177.72 32.54 179.91 31.95 C 185.23 31.93 191.09 30.14 195.95 33.14 C 197.82 34.79 199.67 36.67 200.66 39.00 C 201.77 43.64 201.34 48.48 200.46 53.13 C 199.16 60.42 203.91 66.87 204.16 74.02 C 203.60 77.00 203.35 80.01 203.62 83.04 C 202.89 91.74 196.08 97.81 192.24 105.17 C 187.90 112.69 180.85 118.25 173.32 122.35 C 181.70 124.68 189.59 130.36 192.33 138.89 C 194.59 145.34 192.06 152.23 188.31 157.57 L 187.86 157.56 C 187.31 158.47 186.75 159.37 186.19 160.27 C 183.36 161.82 180.56 163.43 177.70 164.92 C 170.20 167.87 162.02 168.10 154.07 167.66 C 146.05 167.13 137.88 168.15 130.03 166.03 C 123.38 164.57 116.15 163.59 110.54 159.48 C 104.40 154.41 102.18 145.46 104.99 138.04 C 108.25 132.21 113.03 126.69 119.91 125.32 C 117.45 123.49 115.30 121.24 112.67 119.65 C 109.94 119.34 107.16 119.39 104.56 118.38 C 106.05 116.44 107.39 114.40 108.74 112.37 C 105.41 109.22 102.48 105.55 100.96 101.17 C 99.76 97.39 97.38 94.21 94.69 91.37 C 90.53 95.02 87.67 99.85 83.58 103.52 C 77.86 105.85 72.26 108.63 67.35 112.42 C 65.20 114.47 63.78 117.14 61.78 119.33 C 60.18 122.91 58.41 126.80 54.79 128.76 C 49.10 130.64 44.02 126.59 39.57 123.63 C 35.30 120.55 29.25 121.44 25.43 117.56 C 22.47 114.79 22.44 110.45 22.67 106.71 C 24.36 104.96 26.24 103.38 28.50 102.44 C 29.46 101.28 30.11 99.16 31.95 99.29 C 40.32 99.02 48.70 100.16 57.07 99.84 C 60.09 99.64 62.77 98.02 64.87 95.93 C 69.18 91.77 73.56 87.59 78.64 84.36 C 81.82 80.98 85.47 78.05 88.27 74.33 C 90.53 71.19 94.55 70.66 97.91 69.30 C 100.90 68.01 104.46 67.08 107.55 68.62 C 112.58 70.36 117.37 72.96 121.00 76.94 C 124.98 80.30 128.78 83.83 132.34 87.64 C 136.68 89.17 138.94 93.53 142.24 96.46 C 142.31 97.07 142.44 98.30 142.51 98.92 C 143.77 99.91 145.06 100.87 146.38 101.80 C 147.14 101.49 148.67 100.86 149.44 100.55 C 149.84 99.25 150.29 97.96 150.91 96.74 C 152.40 102.61 150.67 109.32 154.13 114.64 C 156.92 117.77 159.29 121.24 161.99 124.45 C 163.58 124.20 165.17 123.96 166.77 123.82 C 175.03 119.57 183.35 114.51 188.57 106.59 C 191.04 102.61 193.71 98.76 196.39 94.92 C 197.30 93.47 198.45 92.19 199.51 90.84 C 196.84 91.38 194.23 92.15 191.60 92.85 C 192.22 89.72 195.83 90.13 198.22 89.49 C 198.93 88.75 199.64 88.02 200.36 87.29 C 200.31 84.28 200.68 81.28 201.91 78.51 C 201.22 78.56 199.85 78.67 199.17 78.72 C 197.06 77.13 195.05 74.70 192.11 75.34 C 189.91 75.89 189.18 73.29 188.02 72.00 C 186.33 71.11 184.81 69.96 183.50 68.59 C 179.79 68.75 176.72 70.89 173.74 72.86 C 175.55 72.64 177.34 72.33 179.15 72.13 C 177.44 73.30 175.64 74.36 173.81 75.35 C 176.51 79.74 176.29 85.04 174.42 89.70 C 176.03 88.65 177.71 88.52 179.47 89.33 C 177.93 90.46 176.14 90.96 174.25 90.43 C 171.80 95.07 168.15 99.17 163.19 101.16 C 164.46 102.45 165.73 103.75 167.03 105.01 C 167.69 104.57 168.99 103.70 169.64 103.26 C 169.12 102.84 168.07 101.98 167.54 101.56 L 165.36 102.76 C 166.08 101.64 167.53 99.40 168.25 98.28 C 168.79 99.77 169.31 101.27 169.80 102.78 C 171.31 102.12 172.84 101.49 174.42 101.03 C 172.76 103.04 170.49 104.38 168.30 105.72 C 169.37 107.42 170.28 109.21 171.04 111.06 C 167.67 108.35 164.34 105.25 162.38 101.34 C 158.70 102.00 154.50 100.27 153.33 96.51 C 150.66 89.02 155.16 81.28 160.37 76.10 L 161.01 76.77 C 160.99 75.67 160.96 74.58 160.93 73.48 C 159.13 73.32 157.34 73.06 155.56 72.75 C 154.41 73.51 153.27 74.30 152.14 75.10 C 151.92 77.53 151.78 79.97 151.32 82.38 C 151.48 83.35 151.64 84.33 151.80 85.31 C 148.79 88.50 150.70 93.02 150.58 96.85 C 149.91 96.73 148.88 96.83 148.89 95.86 C 148.53 92.97 148.12 90.07 148.10 87.15 C 145.86 87.69 143.36 88.98 141.15 87.60 C 137.06 85.56 136.56 80.04 137.79 76.13 C 139.39 70.89 142.84 65.98 147.78 63.42 C 148.37 62.14 148.94 60.86 149.54 59.59 C 153.21 57.17 158.36 55.96 161.93 59.23 C 164.11 55.12 168.69 54.35 172.77 53.39 C 172.50 50.21 172.10 47.04 171.85 43.86 C 172.56 41.20 173.55 38.63 174.17 35.95 M 177.59 35.75 C 173.79 39.81 174.00 45.85 173.95 51.05 C 174.27 54.27 174.32 57.85 176.26 60.57 C 178.43 61.26 180.75 61.09 182.99 61.21 C 186.71 59.01 189.39 55.60 191.34 51.78 C 190.51 54.57 192.12 57.07 191.87 59.82 C 190.79 62.77 188.87 65.31 187.33 68.02 C 188.45 64.46 189.67 60.93 190.79 57.37 C 190.39 57.35 189.60 57.32 189.20 57.30 C 188.99 57.79 188.55 58.78 188.34 59.28 C 186.69 60.47 185.02 61.63 183.22 62.57 C 184.05 64.51 184.58 66.56 185.22 68.57 C 186.74 69.72 188.44 70.61 190.10 71.57 C 190.73 72.64 191.38 73.71 192.03 74.78 C 194.84 72.21 197.40 75.39 199.59 76.93 C 200.47 77.13 201.37 77.33 202.26 77.51 C 202.37 71.52 201.20 65.62 199.37 59.94 C 197.04 53.10 200.24 45.94 198.88 39.00 C 197.41 37.18 195.78 35.46 194.00 33.95 C 192.14 33.16 190.01 33.51 188.03 33.40 C 184.48 33.61 180.26 32.77 177.59 35.75 M 171.38 54.42 L 171.59 55.54 C 168.18 55.72 165.00 56.99 163.24 60.07 C 165.04 62.75 166.81 65.66 166.83 69.00 C 166.80 70.33 167.49 73.08 165.36 72.94 C 165.17 68.55 163.64 64.48 161.58 60.65 C 158.47 58.46 154.81 58.63 151.33 59.77 C 150.92 60.53 150.49 61.29 150.20 62.11 C 154.91 59.95 159.17 63.26 161.52 67.08 C 161.39 67.47 161.15 68.24 161.02 68.63 L 162.43 68.50 C 162.48 70.61 162.66 72.72 162.80 74.83 C 166.02 73.11 169.59 72.74 172.79 74.65 C 171.80 73.99 170.78 73.38 169.77 72.76 C 170.29 71.78 170.82 70.81 171.35 69.84 C 171.09 68.39 170.97 66.90 170.51 65.49 C 169.20 64.23 167.53 63.43 166.01 62.47 C 166.98 61.90 167.95 61.33 168.93 60.77 C 170.88 62.52 173.02 64.36 173.80 66.98 C 173.52 68.42 173.18 69.85 172.77 71.27 C 176.02 68.55 180.17 65.52 184.63 67.48 C 183.23 66.23 182.04 64.72 180.45 63.72 C 178.46 63.06 175.88 63.52 174.58 61.52 C 172.94 59.72 173.23 57.17 173.22 54.94 C 172.76 54.81 171.84 54.55 171.38 54.42 M 139.34 78.92 C 139.06 81.47 139.50 84.96 142.15 86.15 C 144.58 87.38 147.00 85.57 149.06 84.42 C 149.05 81.15 149.66 77.94 150.04 74.71 C 152.31 72.48 155.28 71.15 158.50 71.20 C 158.72 70.59 159.14 69.37 159.35 68.76 C 158.59 67.13 158.09 65.27 156.77 63.98 C 155.12 62.68 152.88 63.42 151.09 63.93 C 144.73 66.23 140.58 72.47 139.34 78.92 M 99.86 70.66 C 101.35 71.70 102.88 72.70 104.45 73.62 C 107.62 76.65 112.39 77.29 115.33 80.68 C 119.20 84.82 122.55 89.44 126.38 93.64 C 127.91 92.24 129.36 90.75 130.89 89.34 C 124.78 79.58 114.75 72.84 104.05 68.98 C 102.64 69.53 101.25 70.09 99.86 70.66 M 92.78 73.64 C 89.95 75.51 88.10 78.54 85.06 80.17 C 80.25 85.70 73.85 89.55 68.96 95.01 C 63.58 100.56 57.36 107.07 48.97 106.64 C 41.85 108.55 34.21 107.56 27.66 104.23 C 25.85 105.61 24.60 107.50 23.46 109.44 C 25.09 111.17 25.75 113.42 26.46 115.61 C 30.90 119.70 37.65 118.87 42.22 122.72 C 45.23 125.26 48.99 126.94 52.99 126.80 C 56.26 124.97 58.61 121.88 60.64 118.80 C 62.36 112.26 69.13 109.71 74.12 106.14 C 77.70 103.20 82.88 102.63 85.64 98.63 C 87.95 95.09 92.14 93.03 93.73 89.04 C 97.04 92.10 100.42 95.32 102.24 99.53 C 103.77 104.10 108.07 106.80 110.35 110.94 C 112.85 108.58 115.24 106.11 117.45 103.48 C 119.88 100.52 123.30 98.54 125.50 95.36 C 121.61 92.25 119.21 87.79 115.86 84.17 C 113.23 80.96 109.39 79.16 106.10 76.74 C 102.17 74.41 97.42 71.35 92.78 73.64 M 168.24 75.10 C 161.27 75.89 156.48 82.31 154.88 88.73 C 153.48 92.14 153.91 96.76 157.24 98.91 C 160.17 101.00 163.70 98.93 166.26 97.23 C 171.34 93.40 172.93 86.91 173.86 80.96 C 173.45 78.35 171.38 74.50 168.24 75.10 M 131.60 87.44 C 131.79 89.57 131.04 91.25 129.34 92.50 C 129.57 95.29 131.41 97.30 133.77 98.59 C 133.90 99.17 134.16 100.33 134.29 100.91 C 136.39 101.33 138.52 101.60 140.62 102.05 C 140.12 102.65 139.13 103.84 138.63 104.44 C 138.98 108.69 139.10 113.01 138.10 117.18 C 136.06 113.48 137.91 109.04 136.86 105.07 C 133.90 101.98 131.01 98.83 128.08 95.73 C 124.56 99.32 120.75 102.62 117.32 106.29 C 114.07 109.60 110.38 112.53 107.85 116.47 C 110.28 116.87 112.76 117.10 115.11 117.88 C 116.57 119.05 117.57 120.68 119.01 121.86 C 123.05 124.58 124.27 130.10 128.97 132.05 C 136.02 134.68 144.15 135.13 151.20 132.19 C 153.98 129.87 155.13 125.90 158.73 124.56 C 156.42 121.85 154.75 118.67 152.43 115.97 C 148.22 115.09 147.47 110.45 146.20 107.01 C 147.83 109.41 149.17 111.98 150.85 114.36 C 150.42 110.57 149.69 106.83 149.47 103.02 C 148.70 103.58 147.93 104.13 147.17 104.69 C 144.84 103.05 142.12 101.69 140.66 99.13 C 138.16 94.83 134.08 91.76 131.60 87.44 M 31.53 99.75 C 31.29 100.63 30.80 102.38 30.56 103.26 C 33.42 104.28 36.39 104.90 39.32 105.70 C 43.62 106.10 47.74 104.35 52.02 104.23 C 53.84 104.24 55.33 103.12 56.88 102.31 C 50.92 101.75 44.90 101.95 38.97 101.09 C 36.51 100.53 34.07 99.79 31.53 99.75 M 163.75 127.30 C 162.07 126.85 160.43 126.28 158.80 125.70 C 157.52 127.99 156.31 130.39 154.50 132.32 C 149.23 136.36 142.19 136.67 135.87 135.70 C 133.54 135.29 131.22 135.90 128.89 136.00 C 125.79 133.19 122.99 130.05 120.26 126.89 C 116.34 128.45 112.90 130.97 110.07 134.08 C 102.87 140.80 105.82 154.57 114.85 158.17 C 120.29 160.73 126.28 161.56 132.08 162.95 C 136.27 164.14 140.66 163.60 144.94 163.92 C 152.25 164.47 159.77 165.41 166.98 163.59 C 173.32 162.41 179.66 160.62 185.02 156.89 C 186.74 153.98 188.60 151.15 190.24 148.18 C 190.78 144.56 191.46 140.69 189.56 137.32 C 187.91 132.14 183.37 128.97 179.23 125.88 C 176.93 125.37 174.92 124.15 172.87 123.06 C 169.60 123.88 166.32 125.03 163.75 127.30 Z" />
<path fill="#333333" opacity="1.00" d=" M 192.75 67.73 C 193.94 65.10 195.08 62.44 196.28 59.81 C 198.15 60.63 196.66 62.65 196.44 64.01 C 195.99 65.85 194.11 66.67 192.75 67.73 Z" />
<path fill="#333333" opacity="1.00" d=" M 181.16 75.13 C 182.53 73.50 184.76 73.33 186.67 72.83 C 184.78 75.32 181.10 76.66 180.74 80.10 C 180.17 83.07 179.49 86.03 178.54 88.90 C 178.26 88.54 177.69 87.83 177.41 87.47 C 178.41 83.36 178.01 78.37 181.16 75.13 Z" />
<path fill="#333333" opacity="1.00" d=" M 188.04 103.63 C 188.87 101.11 189.64 98.37 191.73 96.57 C 191.50 99.33 190.55 102.10 188.04 103.63 Z" />
<path fill="#333333" opacity="1.00" d=" M 172.36 116.48 C 174.18 112.08 177.27 108.23 181.26 105.63 C 182.61 106.51 183.96 107.40 185.31 108.27 C 183.26 109.51 180.87 109.42 178.56 109.28 C 176.46 111.68 175.48 115.12 172.36 116.48 Z" />
</g>
</svg>
