<?xml version="1.0" encoding="UTF-8" ?>
<!DOCTYPE svg PUBLIC "-//W3C//DTD SVG 1.1//EN" "http://www.w3.org/Graphics/SVG/1.1/DTD/svg11.dtd">
<svg width="276pt" height="225pt" viewBox="0 0 276 225" version="1.1" xmlns="http://www.w3.org/2000/svg"><g id="#515251ff">
<path fill="#333333" opacity="1.00" d=" M 212.46 19.67 C 215.08 19.78 217.88 19.54 220.25 20.86 C 225.38 23.32 228.62 28.20 231.55 32.85 C 235.59 30.40 239.70 28.00 244.12 26.32 C 245.44 27.34 246.39 28.74 247.45 30.02 C 242.97 33.02 238.02 35.21 233.31 37.82 C 235.15 45.17 237.57 53.52 233.59 60.61 C 231.49 64.92 226.22 65.77 222.00 66.63 C 214.86 66.11 210.94 59.29 206.24 54.80 C 205.93 52.43 206.66 49.39 204.07 48.08 C 201.07 45.51 197.74 48.63 195.10 50.12 C 195.31 50.91 195.71 52.49 195.91 53.28 C 185.43 59.03 174.93 64.78 164.23 70.10 C 154.99 75.27 145.67 80.29 136.32 85.24 C 127.62 89.16 119.48 94.15 111.13 98.72 C 111.16 98.99 111.23 99.52 111.27 99.78 C 111.54 99.82 112.08 99.91 112.35 99.95 C 118.56 97.58 124.33 94.22 130.23 91.18 C 148.34 82.20 165.67 71.70 183.91 62.97 C 188.53 60.77 192.56 57.10 197.68 56.10 C 196.89 57.39 196.02 58.63 195.22 59.91 C 196.19 60.96 197.27 61.91 198.18 63.02 C 197.01 68.73 195.13 74.31 192.51 79.52 C 190.73 82.99 190.27 86.93 189.13 90.62 C 189.78 90.39 191.09 89.94 191.74 89.71 C 190.43 92.73 187.01 93.65 184.64 95.61 C 181.14 98.77 177.65 102.42 176.87 107.27 C 179.00 107.56 181.30 107.50 183.10 108.87 C 180.16 109.12 177.22 108.89 174.28 108.83 C 171.91 110.41 169.37 111.68 166.93 113.14 C 166.90 113.60 166.83 114.54 166.80 115.00 C 166.84 116.29 166.85 117.57 166.83 118.86 C 169.42 117.79 172.41 116.85 175.16 117.95 C 177.18 120.30 178.79 122.97 180.54 125.53 C 183.52 124.21 186.80 123.45 189.30 121.23 C 189.71 119.32 190.22 117.43 190.58 115.51 C 189.87 114.16 189.18 112.81 188.77 111.34 C 188.41 109.55 187.85 107.77 187.82 105.94 C 188.31 104.24 189.60 102.95 190.61 101.55 C 190.16 103.08 189.70 104.60 189.25 106.12 C 189.56 107.27 189.90 108.41 190.26 109.55 C 189.37 111.44 190.20 113.29 192.24 113.80 L 191.80 115.76 C 193.43 113.35 195.99 111.10 196.10 108.02 C 195.79 107.55 195.16 106.59 194.85 106.12 C 193.44 101.18 196.83 97.20 199.54 93.53 C 199.92 94.72 200.36 95.88 200.88 97.02 C 203.68 90.19 200.53 82.92 202.40 75.92 C 202.69 78.54 203.12 81.14 203.82 83.69 C 207.68 75.03 204.48 65.26 206.19 56.22 C 208.34 55.28 207.50 58.71 207.66 59.87 C 207.04 64.95 208.58 70.00 207.73 75.06 C 207.54 78.57 206.44 81.91 205.22 85.18 C 203.71 88.90 205.00 93.24 202.95 96.80 C 199.39 103.46 199.50 112.79 192.52 117.19 C 190.44 119.90 188.41 122.66 186.80 125.68 C 185.32 126.81 183.90 128.00 182.54 129.27 C 182.78 130.07 183.27 131.66 183.51 132.46 C 183.97 132.75 184.90 133.35 185.36 133.64 C 185.99 136.88 186.83 140.35 185.36 143.50 C 183.82 147.35 179.88 149.18 176.63 151.31 C 175.85 153.68 174.60 156.08 172.30 157.28 C 168.41 159.65 164.58 162.13 160.62 164.38 C 156.29 166.87 151.19 166.53 146.40 166.22 C 146.56 171.83 146.60 177.44 146.32 183.05 C 151.60 181.01 156.46 177.82 161.88 176.22 C 164.58 177.24 166.87 179.12 169.38 180.54 C 170.15 183.94 170.36 187.42 170.50 190.89 C 157.53 197.67 144.02 203.36 130.90 209.84 C 127.98 211.08 125.24 212.84 122.16 213.69 C 119.50 212.37 117.14 210.54 114.66 208.91 C 114.44 206.69 114.25 204.47 114.10 202.25 C 114.69 202.51 115.87 203.03 116.46 203.29 C 116.32 204.68 116.21 206.08 116.13 207.49 C 118.17 208.83 120.21 210.20 122.22 211.60 C 129.21 208.55 135.98 205.02 143.06 202.17 C 151.28 197.72 159.93 194.12 168.32 190.00 C 168.20 187.63 168.19 185.25 167.77 182.91 C 165.79 181.08 163.35 179.86 161.08 178.44 C 156.27 180.74 151.29 182.67 146.59 185.19 C 145.42 188.00 148.11 191.92 144.95 194.09 C 142.90 185.06 144.28 175.67 145.73 166.65 C 141.95 164.49 138.16 162.34 134.02 160.94 C 134.18 171.30 135.17 181.65 134.35 192.01 C 129.42 194.63 124.43 197.17 119.40 199.60 C 118.05 200.34 116.37 200.94 115.93 202.64 C 115.29 201.93 114.67 201.22 114.04 200.51 C 119.65 196.59 126.26 194.45 132.10 190.93 C 132.74 187.21 131.99 183.43 131.90 179.70 C 131.79 172.62 131.25 165.57 130.96 158.50 C 124.36 154.18 117.55 150.17 110.69 146.29 C 105.64 143.58 101.51 139.45 96.22 137.15 C 96.82 136.53 97.42 135.93 98.03 135.32 C 104.73 139.07 110.62 144.23 117.82 147.05 C 115.35 144.12 111.61 142.65 109.04 139.86 C 106.80 135.51 104.45 131.12 103.36 126.31 C 102.31 125.29 101.26 124.26 100.24 123.22 C 99.78 127.94 98.21 132.44 95.15 136.11 C 91.52 137.03 87.87 139.86 84.03 138.31 C 78.37 136.71 74.29 131.94 71.43 127.03 C 71.43 128.20 71.43 130.53 71.43 131.69 C 69.43 133.78 66.35 134.35 63.57 133.99 C 63.66 135.00 63.83 137.03 63.92 138.04 C 57.90 141.43 51.36 143.93 45.51 147.59 C 45.94 149.85 45.13 153.01 47.42 154.43 C 49.37 155.70 51.69 157.92 54.09 156.38 C 66.77 150.46 79.37 144.33 92.12 138.57 C 92.89 138.63 94.44 138.75 95.21 138.81 C 81.16 146.46 66.29 152.52 51.94 159.56 C 49.37 157.98 46.83 156.34 44.33 154.67 C 43.88 151.81 43.65 148.93 43.66 146.04 C 49.75 143.25 55.57 139.93 61.61 137.02 C 61.67 134.46 61.74 131.91 61.92 129.36 C 60.00 131.95 56.64 130.92 56.01 128.02 C 54.92 124.61 59.55 124.45 61.43 122.80 C 61.63 120.04 61.38 117.27 61.29 114.52 C 58.14 112.99 54.88 111.61 52.06 109.52 C 50.03 107.72 48.03 105.89 45.94 104.16 C 45.31 110.08 44.61 116.11 45.22 122.05 C 46.75 126.95 47.93 132.15 46.56 137.24 C 43.40 138.11 40.23 139.64 36.86 139.06 C 34.14 138.05 32.10 135.77 29.32 134.85 C 25.95 133.67 22.46 132.58 19.51 130.49 C 17.16 129.06 17.09 125.85 17.55 123.45 C 18.87 121.78 20.75 120.43 22.91 120.20 C 26.45 119.81 29.83 118.71 33.30 117.97 C 35.09 112.19 35.47 106.08 34.57 100.11 C 33.27 91.59 35.44 83.13 36.84 74.78 C 37.26 71.05 41.27 69.50 44.44 68.73 C 50.42 68.06 55.88 71.26 60.66 74.45 C 60.97 70.96 60.75 67.43 61.33 63.97 C 63.39 61.33 66.44 59.02 70.00 59.58 C 77.71 59.14 83.46 64.64 89.53 68.43 C 91.95 70.14 93.80 72.64 96.62 73.76 C 96.87 74.17 97.37 75.00 97.62 75.41 C 94.73 75.14 91.65 74.59 88.90 75.85 C 85.26 77.16 83.09 80.88 82.65 84.59 C 86.24 84.71 90.25 82.28 93.47 84.67 C 91.12 85.74 88.64 86.44 86.13 87.03 C 80.68 85.24 75.83 81.15 69.78 81.77 C 64.95 83.08 61.38 87.44 60.32 92.25 C 58.76 96.48 60.92 100.71 61.87 104.81 C 64.09 105.14 65.61 106.51 65.58 108.94 C 62.25 108.62 59.44 106.77 57.56 104.06 C 57.58 103.50 57.61 102.39 57.63 101.84 C 53.36 99.91 50.30 96.35 47.11 93.06 C 44.80 90.47 42.28 94.19 39.99 95.01 C 40.06 96.41 40.13 97.81 40.21 99.22 C 44.14 100.95 47.72 103.40 51.06 106.10 C 55.57 109.61 60.70 112.22 65.42 115.42 C 65.82 116.06 66.61 117.32 67.01 117.95 C 65.72 117.09 64.46 116.20 63.21 115.28 C 63.33 117.49 63.42 119.70 63.46 121.92 C 64.87 121.03 66.30 120.16 67.73 119.31 C 65.72 112.65 64.95 105.21 67.93 98.72 C 69.52 95.05 73.51 93.54 76.88 91.99 C 82.12 90.70 86.88 94.27 90.49 97.64 C 91.88 97.64 93.27 97.77 94.62 98.09 C 93.90 98.40 92.47 99.03 91.76 99.34 C 92.39 100.23 93.02 101.12 93.65 102.01 C 94.04 101.37 94.83 100.10 95.22 99.47 C 98.45 97.93 101.30 95.75 104.03 93.46 C 106.69 93.64 109.19 94.53 111.49 95.87 C 113.94 94.81 116.31 93.60 118.76 92.52 C 114.54 92.81 110.30 92.70 106.08 92.44 C 109.56 89.79 114.07 89.95 118.16 89.09 C 115.22 85.33 109.42 86.35 107.01 81.93 C 103.78 80.73 100.89 78.83 98.56 76.28 L 97.90 76.92 C 97.88 75.64 97.86 74.36 97.85 73.08 C 100.95 75.84 104.24 78.35 108.10 79.94 C 110.15 82.53 113.03 83.88 116.11 84.85 C 119.13 85.62 119.59 88.90 120.54 91.38 C 129.39 86.15 139.08 82.46 147.69 76.80 C 152.29 73.75 157.46 71.79 162.44 69.48 C 172.29 63.62 182.67 58.74 192.63 53.06 C 192.63 51.93 192.64 50.79 192.65 49.66 C 195.10 48.10 197.49 46.38 200.19 45.27 C 203.80 44.65 206.55 47.36 209.03 49.55 C 211.25 47.66 214.82 46.88 215.49 43.66 C 212.42 44.51 209.56 46.02 206.44 46.70 C 208.43 43.98 211.72 42.95 214.53 41.34 C 215.59 42.93 217.46 44.56 216.61 46.68 C 214.10 49.30 209.21 49.36 208.14 53.22 C 210.18 57.41 213.77 60.76 217.64 63.27 C 220.16 65.03 224.60 65.25 226.16 62.13 C 230.85 50.12 226.54 35.35 216.66 27.25 C 215.31 25.77 212.20 25.46 212.20 23.14 C 214.51 22.69 216.34 24.59 218.05 25.83 C 225.48 32.35 229.50 42.16 230.09 51.91 C 230.27 55.35 228.83 58.54 228.17 61.82 C 230.23 62.92 231.58 59.97 232.42 58.52 C 236.90 48.49 232.84 36.81 226.51 28.53 C 223.36 24.14 218.33 21.66 213.00 21.19 C 210.22 22.84 206.63 23.96 205.32 27.23 C 202.46 32.90 203.63 39.43 204.59 45.41 C 203.64 44.81 202.48 44.26 202.51 42.96 C 201.76 37.34 201.47 31.25 204.13 26.07 C 205.73 22.70 209.49 21.49 212.46 19.67 M 231.99 33.79 C 232.15 34.46 232.48 35.79 232.64 36.46 C 236.87 34.06 241.27 31.97 245.56 29.69 C 245.05 29.31 244.03 28.56 243.51 28.18 C 239.57 29.81 235.96 32.19 231.99 33.79 M 182.88 64.80 C 167.49 73.41 151.96 81.77 136.52 90.31 C 134.82 91.36 132.82 92.17 131.65 93.88 C 135.61 94.72 139.87 92.64 143.72 94.97 C 143.08 95.40 142.44 95.83 141.79 96.25 C 140.11 95.81 138.42 95.43 136.71 95.11 C 134.83 97.44 134.69 100.38 134.50 103.23 C 133.59 103.14 131.77 102.96 130.86 102.87 C 129.56 102.06 128.26 101.25 126.95 100.46 C 124.55 100.02 122.26 99.21 119.89 98.68 C 116.98 99.66 114.38 101.32 111.66 102.71 C 111.58 104.79 111.49 106.87 111.47 108.95 C 112.89 111.35 111.97 114.55 114.05 116.71 C 117.28 120.36 119.33 124.84 122.47 128.56 C 124.81 127.91 127.18 127.37 129.58 126.95 C 126.81 121.57 126.81 114.48 130.72 109.62 C 133.97 106.46 137.95 104.02 142.51 103.41 C 143.96 101.56 145.71 100.01 147.23 98.23 C 146.23 97.88 144.21 97.18 143.21 96.83 C 144.20 96.37 145.20 95.91 146.21 95.48 C 148.97 99.45 154.42 97.55 158.06 100.05 C 161.91 102.48 166.00 104.54 169.57 107.39 C 170.83 108.42 172.55 108.19 174.06 108.45 C 176.18 101.37 181.12 95.01 187.75 91.64 C 188.45 87.46 188.38 82.99 190.40 79.16 C 192.97 74.10 195.00 68.71 195.85 63.08 C 194.35 62.33 192.85 61.59 191.36 60.83 C 188.57 62.24 185.65 63.37 182.88 64.80 M 63.38 62.54 C 61.99 65.28 62.76 68.17 63.21 71.02 C 62.74 73.29 61.63 75.83 64.85 76.79 C 65.51 75.97 66.15 75.13 66.78 74.29 C 69.27 74.96 71.77 75.53 74.31 75.98 C 74.41 76.50 74.62 77.54 74.73 78.07 C 72.25 77.58 69.78 77.04 67.33 76.44 C 68.06 77.74 68.82 79.03 69.54 80.33 C 73.07 80.26 76.61 80.53 79.99 81.63 C 81.47 79.81 83.02 78.04 84.42 76.17 C 86.95 75.31 89.51 74.54 92.10 73.87 C 90.31 71.41 88.56 68.70 85.66 67.43 C 78.81 64.21 71.17 58.92 63.38 62.54 M 42.13 71.53 C 39.16 73.21 37.99 76.89 37.46 80.07 C 37.16 86.72 36.46 93.35 36.38 100.01 C 36.16 105.19 38.62 109.97 38.94 115.09 C 38.31 113.87 37.05 111.42 36.42 110.19 C 36.58 113.07 36.00 116.03 34.15 118.32 C 29.44 121.77 23.29 121.43 17.96 123.26 C 18.32 128.01 22.56 130.92 26.75 132.18 C 32.60 134.00 38.56 138.33 44.83 135.48 C 45.52 128.49 43.29 121.76 42.75 114.85 C 42.48 111.55 43.38 108.30 43.37 105.01 C 43.69 102.21 40.20 101.82 38.70 100.12 C 38.50 97.91 38.35 95.44 39.41 93.43 C 41.05 91.79 43.45 91.24 45.44 90.10 C 49.58 92.42 52.95 95.80 56.83 98.50 C 56.98 95.16 56.77 91.52 58.74 88.62 C 60.91 84.71 64.90 82.36 68.94 80.77 C 63.14 78.27 57.69 75.08 52.29 71.85 C 49.18 70.01 45.44 70.80 42.13 71.53 M 69.66 98.83 C 66.48 104.70 67.34 111.75 68.74 118.00 C 71.59 117.37 74.13 115.89 76.75 114.66 C 76.74 114.02 76.73 112.74 76.72 112.10 C 76.90 112.35 77.26 112.84 77.45 113.08 C 79.75 113.80 82.34 115.88 81.57 118.58 C 79.85 120.46 75.94 120.70 76.41 123.95 C 76.17 123.54 75.70 122.71 75.47 122.30 C 74.01 123.04 72.56 123.78 71.11 124.52 C 75.04 129.49 79.08 135.95 86.00 136.61 C 90.22 135.97 95.32 134.47 96.81 129.94 C 99.21 123.29 98.35 115.74 95.73 109.28 C 92.55 101.68 86.54 94.27 77.83 93.24 C 75.02 94.90 71.14 95.60 69.66 98.83 M 123.13 96.87 C 126.46 97.93 129.72 99.20 132.81 100.84 C 133.16 99.41 133.51 97.98 133.86 96.55 C 132.23 95.78 130.62 94.96 128.91 94.39 C 126.83 94.78 125.04 96.03 123.13 96.87 M 94.56 102.97 L 95.24 104.75 C 95.55 104.54 96.18 104.12 96.49 103.91 C 95.89 106.08 96.42 108.30 99.06 107.90 C 97.77 113.20 100.22 118.44 100.86 123.67 C 103.41 119.07 98.48 114.61 98.88 109.80 C 102.75 114.77 104.54 121.19 105.61 127.37 C 106.68 131.02 108.71 134.28 110.20 137.75 C 110.61 137.68 111.44 137.55 111.85 137.49 C 111.55 137.83 110.96 138.53 110.66 138.88 C 115.20 141.76 118.99 145.59 123.33 148.74 C 124.35 147.37 125.39 146.00 126.42 144.62 C 124.67 143.12 122.91 141.64 121.14 140.17 C 123.25 141.46 125.37 142.73 127.53 143.96 C 127.70 144.51 128.06 145.63 128.23 146.18 C 127.02 147.11 125.78 148.00 124.52 148.86 C 129.10 148.04 132.95 151.91 137.50 150.75 C 140.21 150.26 143.17 150.05 145.33 148.13 C 148.72 147.31 152.17 146.59 155.69 146.95 C 155.44 146.19 154.96 144.68 154.72 143.93 C 155.50 144.87 156.28 145.82 157.08 146.77 C 157.67 146.08 158.86 144.72 159.45 144.04 L 157.38 144.61 C 157.36 142.88 157.29 141.15 157.22 139.42 C 159.49 144.79 164.48 148.22 169.94 149.80 C 173.21 150.25 176.45 148.95 179.23 147.34 C 182.03 145.80 182.99 142.52 184.17 139.77 C 184.87 137.90 183.52 136.13 182.77 134.50 C 179.94 129.59 177.95 124.11 174.14 119.83 C 173.23 118.41 171.46 118.13 169.93 118.55 C 166.95 120.60 164.48 123.54 163.22 126.95 C 162.27 129.30 162.88 132.29 160.89 134.16 C 159.84 129.52 161.01 124.88 164.05 121.24 C 162.31 121.24 160.57 121.22 158.84 121.16 C 161.44 120.45 164.07 119.84 166.65 119.04 C 165.01 117.02 162.63 116.32 160.12 116.93 C 157.76 117.23 155.40 116.90 153.05 116.70 L 154.22 118.63 C 152.99 119.73 151.67 120.78 150.67 122.12 C 151.87 125.90 154.24 129.27 154.77 133.28 C 151.77 131.59 151.07 128.05 149.66 125.19 C 150.39 121.80 151.07 118.36 152.75 115.30 C 155.69 116.49 158.79 117.22 161.91 116.27 C 166.07 116.46 166.61 111.77 168.51 109.07 C 167.03 107.89 165.50 106.76 163.94 105.70 C 163.85 105.15 163.67 104.06 163.58 103.51 C 157.45 101.40 150.39 98.81 144.19 102.12 C 144.53 102.55 145.20 103.42 145.54 103.86 C 142.78 107.05 138.23 105.71 134.86 107.74 C 132.59 109.14 131.11 111.46 129.21 113.28 C 128.76 118.17 129.71 122.93 131.47 127.48 C 133.35 128.61 135.18 129.81 136.95 131.09 C 136.96 129.49 137.02 127.88 137.13 126.28 C 138.52 127.44 138.88 129.12 138.72 130.86 C 140.74 130.38 142.72 129.74 144.77 129.39 C 146.36 130.31 146.83 132.23 147.61 133.75 C 145.18 133.31 142.74 132.60 140.26 132.79 C 138.52 133.84 137.35 136.29 135.05 136.00 C 135.53 134.96 136.06 133.94 136.62 132.95 C 132.48 130.82 127.86 129.72 123.20 130.00 C 123.41 131.08 123.61 132.18 123.80 133.27 C 121.79 130.85 120.51 127.92 118.43 125.56 C 114.31 121.56 110.46 116.73 109.19 111.02 C 109.68 106.69 109.75 102.35 109.40 98.01 C 108.25 96.82 106.77 96.05 105.37 95.21 C 101.71 97.72 98.19 100.42 94.56 102.97 M 196.11 103.14 C 195.30 103.87 195.78 105.97 197.04 105.60 C 198.09 102.80 199.10 99.98 200.31 97.24 C 197.44 97.49 196.42 100.69 196.11 103.14 M 60.01 125.17 C 60.51 126.09 61.02 127.01 61.53 127.93 C 66.52 124.67 71.82 121.93 77.11 119.20 C 78.03 118.34 81.51 117.59 79.30 115.95 C 72.36 117.73 66.80 122.87 60.01 125.17 M 58.12 126.56 C 57.25 127.74 57.49 128.44 58.85 128.66 C 59.70 127.47 59.46 126.77 58.12 126.56 M 63.23 128.76 C 63.65 130.33 64.02 131.93 64.55 133.47 C 66.02 132.31 67.71 131.50 69.40 130.72 C 70.00 128.82 70.54 126.90 70.97 124.96 C 68.36 126.17 65.81 127.49 63.23 128.76 M 144.03 152.21 C 141.44 152.54 138.90 153.25 136.29 153.39 C 132.70 152.78 129.26 150.93 125.51 151.73 C 124.39 151.17 123.26 150.61 122.14 150.07 C 122.80 150.60 123.47 151.12 124.14 151.65 C 130.33 153.59 134.99 158.43 140.95 160.89 C 145.07 163.69 150.21 165.22 155.13 163.70 C 160.71 163.22 164.33 158.54 169.12 156.27 C 171.30 155.15 173.35 153.79 175.24 152.24 C 169.83 152.84 163.36 151.82 160.97 146.20 C 156.04 150.00 149.45 149.48 144.03 152.21 Z" />
<path fill="#333333" opacity="1.00" d=" M 66.59 71.24 C 70.85 69.50 76.66 68.22 80.14 72.15 C 75.60 72.19 71.06 72.04 66.59 71.24 Z" />
<path fill="#333333" opacity="1.00" d=" M 44.42 78.76 C 46.98 78.37 48.56 80.37 50.20 81.93 C 47.99 81.45 45.50 81.07 44.42 78.76 Z" />
<path fill="#333333" opacity="1.00" d=" M 39.36 85.39 C 41.09 84.97 42.81 84.42 44.58 84.17 C 46.04 85.45 47.26 86.98 48.83 88.14 C 50.83 89.71 53.51 90.60 54.57 93.12 C 49.87 92.22 46.60 88.63 43.06 85.77 C 42.13 85.68 40.28 85.48 39.36 85.39 Z" />
<path fill="#333333" opacity="1.00" d=" M 76.65 96.22 C 76.17 93.49 78.90 95.73 79.94 95.99 C 89.00 103.00 94.25 114.56 94.06 125.99 C 92.85 124.55 91.84 122.93 91.88 120.98 C 90.92 111.00 85.37 101.32 76.65 96.22 Z" />
<path fill="#333333" opacity="1.00" d=" M 118.64 108.07 C 122.32 107.02 125.06 103.54 129.14 103.89 C 129.33 104.40 129.71 105.40 129.90 105.91 C 126.01 107.44 122.11 108.97 118.10 110.16 C 118.24 109.63 118.51 108.59 118.64 108.07 Z" />
<path fill="#333333" opacity="1.00" d=" M 120.08 114.07 C 121.07 113.41 122.09 112.79 123.09 112.15 C 123.17 112.83 123.31 114.17 123.39 114.84 C 122.26 114.70 121.16 114.44 120.08 114.07 Z" />
<path fill="#333333" opacity="1.00" d=" M 120.68 116.61 C 121.16 116.48 122.10 116.22 122.57 116.09 C 122.46 117.52 122.34 118.95 122.23 120.38 C 121.74 120.42 120.75 120.51 120.26 120.56 C 120.39 119.24 120.54 117.92 120.68 116.61 Z" />
<path fill="#333333" opacity="1.00" d=" M 40.01 120.31 C 40.54 120.05 41.59 119.52 42.11 119.26 C 41.84 122.48 41.89 125.73 41.32 128.92 C 38.69 127.01 39.97 123.08 40.01 120.31 Z" />
<path fill="#333333" opacity="1.00" d=" M 31.50 125.69 C 33.65 125.14 35.83 124.70 38.03 124.39 C 36.73 125.41 35.44 126.47 33.98 127.27 C 33.13 126.78 32.30 126.25 31.50 125.69 Z" />
<path fill="#333333" opacity="1.00" d=" M 92.06 124.98 C 94.82 127.84 93.73 133.15 90.27 135.01 C 90.86 131.66 91.98 128.41 92.06 124.98 Z" />
<path fill="#333333" opacity="1.00" d=" M 124.99 132.54 C 126.37 133.40 127.77 134.27 128.99 135.38 C 127.57 135.44 126.15 135.47 124.73 135.47 C 124.84 134.49 124.91 133.51 124.99 132.54 Z" />
<path fill="#333333" opacity="1.00" d=" M 150.65 134.15 C 150.83 133.68 151.20 132.73 151.39 132.26 C 154.04 133.83 157.39 134.73 159.01 137.57 C 155.96 137.23 153.15 135.87 150.65 134.15 Z" />
<path fill="#333333" opacity="1.00" d=" M 143.69 136.45 C 148.22 136.83 148.95 142.22 147.89 145.74 C 146.55 142.62 145.34 139.43 143.69 136.45 Z" />
<path fill="#333333" opacity="1.00" d=" M 130.60 140.41 C 134.16 140.55 134.92 144.12 135.40 146.92 C 134.08 146.52 132.70 146.31 131.45 145.76 C 132.79 143.93 131.43 142.18 130.60 140.41 Z" />
</g>
</svg>
