<?xml version="1.0" encoding="UTF-8" ?>
<!DOCTYPE svg PUBLIC "-//W3C//DTD SVG 1.1//EN" "http://www.w3.org/Graphics/SVG/1.1/DTD/svg11.dtd">
<svg width="221pt" height="275pt" viewBox="0 0 221 275" version="1.1" xmlns="http://www.w3.org/2000/svg"><g id="#454644ff">
<path fill="#333333" opacity="1.00" d=" M 85.88 31.80 C 89.10 27.43 95.01 26.74 100.04 27.30 C 104.24 27.25 108.36 30.63 108.65 34.91 C 109.16 39.03 111.08 43.03 110.34 47.24 C 109.70 51.35 109.20 55.55 107.65 59.44 C 109.74 59.79 111.83 60.08 113.92 60.37 C 117.22 64.19 122.90 64.12 126.36 67.80 C 123.42 67.32 120.82 65.85 118.07 64.85 C 113.15 64.35 107.01 64.42 104.03 69.08 C 100.35 69.99 96.63 67.09 92.87 68.40 C 90.43 68.61 88.80 70.41 87.59 72.36 C 86.72 71.71 85.86 71.06 84.99 70.41 C 83.53 70.46 82.06 70.50 80.60 70.55 C 79.70 71.55 78.77 72.53 77.81 73.47 C 77.90 71.90 78.04 70.24 79.05 68.94 C 81.88 68.33 84.92 68.45 87.62 69.56 C 87.39 69.05 86.93 68.05 86.70 67.54 C 89.39 68.17 92.02 67.37 94.59 66.63 C 93.55 63.62 92.32 60.69 90.99 57.80 C 93.38 60.12 95.82 62.92 95.42 66.51 C 98.27 66.61 100.97 67.64 103.77 67.96 C 106.15 65.05 109.41 63.27 113.02 62.31 C 110.99 61.76 108.96 61.22 106.95 60.62 C 106.46 61.63 105.95 62.64 105.43 63.65 C 105.32 62.85 105.09 61.25 104.98 60.45 C 101.74 60.62 98.59 59.80 95.75 58.27 C 91.93 56.95 91.52 52.24 88.59 49.86 C 88.88 53.51 88.96 57.29 87.85 60.82 C 86.98 62.43 84.98 62.71 83.47 63.46 C 78.46 65.37 74.79 69.67 72.20 74.22 C 72.36 76.22 73.06 78.13 73.46 80.09 C 74.60 84.53 73.42 89.18 74.56 93.62 C 73.79 96.71 73.11 99.82 72.24 102.88 C 72.87 102.78 74.12 102.58 74.75 102.48 C 73.71 103.59 72.49 104.50 71.12 105.17 C 72.24 107.63 74.05 110.09 73.60 112.95 C 73.48 115.61 72.62 118.94 74.98 120.92 C 77.87 122.77 81.23 123.79 84.08 125.73 C 85.18 125.41 86.28 125.09 87.37 124.76 C 91.55 119.32 95.07 112.97 95.16 105.94 C 95.38 97.31 98.22 88.84 97.38 80.20 C 96.33 79.19 95.27 78.19 94.22 77.19 C 90.41 77.70 86.64 78.42 82.91 79.34 C 83.30 81.26 83.75 83.16 84.23 85.06 C 83.79 86.26 83.36 87.46 82.93 88.67 C 82.48 88.57 81.57 88.38 81.11 88.29 C 82.76 89.94 84.33 91.66 85.74 93.52 C 85.87 92.03 86.23 90.59 87.56 89.72 C 87.64 95.58 87.75 102.79 82.67 106.78 C 80.49 108.74 78.98 111.30 76.91 113.35 C 77.55 111.17 78.51 109.11 79.52 107.09 C 74.74 105.88 73.92 100.05 75.02 95.97 C 76.57 97.37 76.35 99.46 76.47 101.33 C 77.66 103.30 78.91 105.24 80.18 107.17 C 81.84 104.85 83.73 102.64 84.82 99.99 C 84.38 99.55 83.48 98.66 83.03 98.22 C 83.54 98.35 84.58 98.62 85.09 98.75 C 84.95 96.65 84.80 94.33 83.02 92.90 C 80.67 90.78 79.25 87.38 75.83 86.79 C 75.78 88.45 75.86 90.13 75.49 91.75 C 75.28 89.49 75.21 87.23 75.09 84.97 C 77.43 85.28 79.77 85.59 82.12 85.81 C 82.32 81.04 75.44 84.26 74.50 80.22 C 76.58 80.40 78.65 80.65 80.72 80.86 C 81.78 79.08 82.20 75.88 84.92 76.05 C 88.63 75.97 92.28 75.23 95.98 75.03 C 97.97 75.72 98.46 78.09 99.44 79.72 C 101.67 78.34 104.03 77.14 106.04 75.43 C 106.43 75.40 107.20 75.34 107.59 75.31 C 114.04 72.28 121.00 70.71 127.86 68.93 C 129.92 68.75 131.97 69.36 134.04 69.27 C 137.93 69.92 141.89 69.93 145.82 69.78 C 143.82 66.68 147.06 64.84 149.06 63.08 C 151.98 60.49 156.21 61.43 159.74 60.69 C 162.53 59.80 165.30 58.84 168.14 58.14 C 167.76 50.31 169.02 41.96 173.66 35.46 C 175.56 32.62 178.92 31.76 182.09 31.20 C 185.84 29.98 189.86 31.93 192.36 34.73 C 196.26 39.09 197.87 44.91 199.12 50.49 C 203.09 48.40 207.65 47.86 211.96 46.76 C 214.84 45.96 215.37 50.16 215.29 52.18 C 210.31 53.95 205.09 55.40 199.82 55.91 C 200.18 64.84 199.07 74.84 192.81 81.74 C 190.70 84.58 186.89 84.02 183.81 84.57 C 179.03 85.29 175.60 81.20 173.29 77.61 C 170.91 73.59 169.07 68.98 169.23 64.24 C 167.30 66.00 164.71 66.34 162.29 67.01 C 162.46 70.50 162.93 74.02 162.48 77.51 C 161.68 80.96 160.62 84.37 160.18 87.89 C 159.15 97.33 154.61 107.02 146.19 111.94 C 144.64 112.23 142.96 112.16 141.66 111.16 C 137.57 108.44 133.51 105.52 128.84 103.88 C 126.79 103.26 125.14 101.89 123.56 100.51 C 120.12 107.14 120.75 114.84 122.27 121.90 C 123.06 123.32 124.22 124.51 124.97 125.95 C 125.60 128.37 124.55 130.70 124.10 133.04 C 125.47 138.50 128.64 143.40 129.22 149.07 C 129.30 150.77 130.86 151.71 131.91 152.82 C 131.75 154.54 130.72 155.75 129.22 156.53 C 129.99 160.99 130.12 165.52 130.05 170.03 C 129.80 173.09 132.14 175.77 131.56 178.84 C 130.00 185.14 129.95 191.81 131.36 198.15 C 132.63 206.20 130.38 214.80 133.57 222.51 C 135.97 225.04 138.79 227.20 140.86 230.07 C 142.90 232.49 145.62 234.51 148.88 234.76 C 151.55 234.82 152.74 237.55 154.38 239.21 C 152.76 242.61 149.02 243.62 145.78 244.86 C 143.82 244.94 141.90 244.38 139.95 244.31 C 136.04 244.26 133.03 240.44 128.98 241.20 C 125.44 241.83 121.35 242.28 118.54 239.50 C 116.25 231.60 122.14 224.01 120.40 216.05 C 120.11 210.82 116.45 206.80 114.94 201.98 C 114.58 197.27 115.17 192.53 116.07 187.90 C 116.54 188.72 116.99 189.54 117.43 190.38 C 116.51 194.59 117.55 198.83 118.11 203.00 C 118.43 206.59 121.43 209.23 121.85 212.79 C 122.23 216.81 122.29 220.89 121.90 224.91 C 120.78 229.17 119.96 233.58 120.19 238.00 C 120.66 238.69 121.15 239.36 121.68 240.01 C 125.09 240.07 128.49 239.65 131.89 239.76 C 134.57 239.79 136.81 241.45 139.16 242.51 C 141.76 242.46 144.33 243.01 146.93 242.91 C 148.75 242.14 150.40 241.02 152.15 240.11 C 151.44 239.14 150.73 238.18 150.00 237.23 C 145.59 236.95 141.48 234.70 138.99 231.04 C 136.91 228.15 134.12 225.90 131.69 223.34 C 128.22 215.32 130.92 206.47 129.20 198.15 C 127.65 191.52 128.89 184.65 129.99 178.05 C 130.36 175.90 129.10 174.05 128.27 172.19 C 126.74 174.51 125.39 178.13 121.98 177.81 C 119.67 176.56 119.30 173.70 118.34 171.50 C 118.51 171.46 118.87 171.39 119.05 171.35 C 119.98 173.39 121.22 176.48 123.96 176.18 C 125.91 174.61 126.15 171.82 126.97 169.59 C 127.47 169.60 128.46 169.62 128.96 169.63 C 128.66 165.32 128.45 161.01 128.16 156.70 C 122.81 161.20 114.81 165.08 108.25 160.71 L 106.78 161.21 C 107.53 161.63 109.02 162.46 109.76 162.88 L 108.96 163.50 C 111.78 166.10 113.57 169.55 115.48 172.82 C 117.13 175.72 116.28 179.28 117.58 182.30 C 118.76 185.50 121.68 188.71 119.45 192.16 C 119.01 191.46 118.14 190.06 117.70 189.36 C 116.77 186.71 115.56 184.18 114.39 181.63 C 113.01 178.56 114.04 174.84 112.19 171.93 C 110.39 168.93 108.59 165.87 106.02 163.46 C 103.29 166.80 104.56 171.33 103.26 175.18 C 102.67 178.69 100.29 181.45 98.81 184.58 C 97.57 189.10 95.53 193.40 94.84 198.07 C 94.37 203.24 95.86 208.58 94.23 213.63 C 91.01 221.38 90.08 230.34 92.53 238.44 C 95.68 245.08 99.97 251.00 104.57 256.70 C 104.47 258.13 105.05 259.82 104.02 261.02 C 103.05 262.17 101.33 261.86 100.02 262.22 C 99.35 262.80 98.68 263.38 98.01 263.98 C 93.71 264.42 88.76 264.87 85.26 261.80 C 83.09 260.66 82.34 258.29 82.21 256.00 C 81.99 252.82 79.62 250.23 79.57 247.03 C 79.61 244.68 78.81 242.47 78.11 240.27 C 79.07 236.93 79.16 233.42 79.00 229.97 C 78.42 223.17 75.09 216.79 75.38 209.89 C 76.07 204.81 77.95 199.99 79.56 195.15 C 80.20 191.47 80.01 187.68 80.88 184.02 C 81.41 180.66 83.38 177.56 82.98 174.07 C 82.71 170.37 82.45 166.65 82.98 162.95 C 82.47 163.32 81.45 164.05 80.95 164.41 C 79.55 162.71 77.69 161.15 77.52 158.80 C 80.17 157.09 80.70 154.00 80.86 151.10 C 81.06 146.65 83.19 142.50 82.99 138.01 C 83.01 134.57 81.09 131.28 81.85 127.82 L 82.97 127.96 C 84.63 134.13 85.72 140.89 83.58 147.09 C 82.61 151.37 82.08 155.77 80.08 159.74 C 80.41 160.36 81.08 161.61 81.41 162.23 C 82.50 160.50 82.96 158.14 85.07 157.35 C 85.21 160.17 85.26 163.04 84.13 165.69 C 84.27 169.21 85.18 172.69 84.97 176.23 C 83.94 180.80 81.47 185.14 81.80 189.94 C 82.64 194.90 83.82 199.81 85.47 204.56 C 85.08 204.51 84.30 204.40 83.91 204.35 C 83.04 201.70 82.13 199.07 81.03 196.52 C 79.31 200.21 77.99 204.10 77.21 208.10 C 75.77 217.66 82.29 226.48 80.73 236.06 C 78.33 243.89 84.80 250.65 85.13 258.32 C 88.20 262.63 94.82 263.88 98.85 260.17 C 96.75 256.45 92.60 260.19 89.53 258.35 C 88.58 258.51 87.63 258.67 86.68 258.84 C 86.90 258.42 87.35 257.57 87.57 257.15 C 90.88 256.88 94.21 256.79 97.53 256.51 C 98.75 257.32 99.25 258.83 100.06 260.00 C 100.88 259.96 102.52 259.87 103.34 259.83 C 102.78 254.96 98.02 252.39 96.02 248.23 C 94.23 244.45 91.28 241.21 90.29 237.08 C 88.79 231.59 88.64 225.78 89.67 220.19 C 90.32 217.01 92.07 214.18 92.80 211.03 C 93.19 207.76 92.95 204.46 92.83 201.18 C 89.37 205.72 90.05 211.51 88.79 216.75 C 86.72 214.25 87.82 210.76 88.26 207.88 C 89.18 203.14 92.52 199.37 93.65 194.71 C 94.44 191.37 95.93 188.26 96.93 184.98 C 97.83 182.08 100.03 179.79 100.96 176.89 C 102.06 173.50 102.59 169.96 103.10 166.45 C 98.78 167.31 94.08 169.07 89.79 167.14 C 88.17 166.47 85.70 165.62 86.36 163.40 C 92.05 167.12 99.54 166.57 104.94 162.62 C 105.43 160.24 105.08 157.59 106.23 155.43 C 108.34 154.32 110.70 153.82 113.04 153.47 C 114.34 151.08 115.71 148.70 117.66 146.79 C 117.20 149.55 116.20 152.29 114.45 154.50 C 111.67 155.76 107.70 155.67 106.78 159.32 C 110.69 159.69 114.68 161.92 118.57 160.27 C 122.78 158.97 125.54 155.21 129.63 153.66 C 128.41 151.98 127.17 150.20 127.03 148.05 C 126.40 143.08 124.06 138.58 122.03 134.07 C 122.84 131.55 123.37 128.93 123.08 126.28 C 121.95 125.19 120.86 124.08 119.78 122.95 C 113.25 124.85 106.11 127.97 99.43 124.81 C 96.54 124.85 93.19 125.36 90.94 123.10 C 95.98 121.73 100.99 123.37 105.99 123.91 C 110.70 123.18 115.79 122.71 119.86 119.99 C 120.37 117.68 120.63 114.00 118.09 112.72 C 118.49 112.72 119.30 112.72 119.70 112.72 C 119.62 111.33 119.45 108.56 119.37 107.17 C 118.84 107.76 117.77 108.92 117.23 109.51 C 116.22 109.09 115.22 108.68 114.21 108.28 C 111.61 111.02 107.61 109.94 104.51 111.62 C 102.47 112.60 101.04 110.33 99.76 109.14 C 101.30 109.29 102.90 110.25 104.43 109.58 C 106.68 108.55 109.15 108.84 111.53 108.61 C 113.78 106.67 113.15 103.35 113.66 100.72 C 114.44 102.74 115.10 104.81 115.37 106.97 C 116.06 107.09 117.43 107.32 118.12 107.43 C 119.90 104.50 122.22 101.61 122.33 98.02 C 122.29 94.23 120.73 90.66 120.74 86.86 C 118.43 84.89 115.62 86.81 113.04 86.99 C 111.47 86.65 110.32 85.52 109.55 84.17 C 112.78 85.30 116.12 85.30 119.31 84.01 L 119.37 85.72 C 119.86 85.42 120.83 84.81 121.32 84.51 C 121.77 82.89 122.29 81.29 122.85 79.70 C 123.26 80.71 123.94 81.66 123.97 82.78 C 123.41 83.87 122.49 84.78 122.17 85.98 C 122.25 90.56 124.14 94.89 124.17 99.48 C 130.87 102.42 137.61 105.46 143.26 110.21 C 144.34 110.15 145.42 110.08 146.50 110.01 C 148.96 107.32 152.01 105.08 153.71 101.78 C 155.29 98.81 156.55 95.66 157.52 92.45 C 158.26 88.57 158.56 84.58 159.93 80.84 C 160.76 78.34 162.17 75.82 161.62 73.09 C 160.65 69.26 159.48 65.48 158.67 61.61 C 154.46 62.34 149.79 63.61 146.95 67.01 C 147.47 70.06 149.19 72.83 152.06 74.14 C 152.49 77.01 152.84 80.05 151.92 82.86 C 149.06 90.85 139.65 94.01 137.03 102.19 C 137.10 101.37 137.24 99.74 137.31 98.92 C 132.00 96.58 125.66 93.23 125.01 86.74 C 127.76 88.38 128.79 91.71 131.47 93.43 C 133.62 94.88 135.90 96.11 138.08 97.52 C 138.91 96.37 139.74 95.23 140.58 94.08 C 139.98 93.51 139.37 92.94 138.76 92.38 C 138.84 87.87 136.34 83.40 132.07 81.76 C 129.75 81.44 127.36 81.11 125.58 79.42 C 125.91 78.65 126.56 77.11 126.89 76.33 C 121.47 77.04 115.99 78.38 111.39 81.45 C 107.95 83.75 104.12 85.34 100.40 87.09 C 101.00 87.48 101.60 87.86 102.21 88.23 C 104.04 87.22 105.93 86.31 107.87 85.52 C 106.15 87.91 102.21 90.21 99.75 87.32 C 99.69 88.20 99.58 89.97 99.52 90.85 L 98.35 90.15 C 98.11 95.13 96.70 100.00 96.98 105.02 C 97.15 113.52 92.06 120.79 87.02 127.17 C 81.09 127.64 74.42 125.11 71.76 119.51 C 71.19 115.26 71.93 110.88 70.81 106.66 C 68.94 109.94 66.28 113.74 62.10 113.85 C 58.86 114.20 55.10 115.05 52.33 112.80 C 46.83 108.46 43.80 101.50 43.18 94.62 C 45.27 96.40 45.28 99.37 46.40 101.71 C 48.20 105.75 50.60 110.15 54.94 111.87 C 58.81 112.05 63.61 112.65 66.51 109.43 C 70.61 105.40 71.79 99.40 72.54 93.91 C 73.33 86.44 72.23 78.72 69.27 71.81 C 67.27 67.36 63.39 64.05 58.99 62.11 C 55.25 62.72 51.01 63.45 48.78 66.89 C 43.90 72.60 44.33 80.49 42.88 87.42 C 46.89 86.52 50.87 85.47 54.89 84.60 C 55.61 86.62 56.00 88.74 56.09 90.89 C 47.46 93.22 38.82 95.55 30.07 97.42 C 27.16 96.28 27.38 90.34 30.95 90.29 C 34.81 89.66 38.55 88.50 42.36 87.70 C 41.99 78.90 43.42 68.50 50.89 62.78 C 54.58 61.00 59.31 59.60 63.15 61.82 C 67.31 64.69 70.45 69.00 71.74 73.90 C 71.69 67.53 78.29 63.30 83.96 62.30 C 88.47 59.80 87.40 54.24 87.77 49.93 C 86.85 48.89 85.93 47.84 85.01 46.79 C 84.50 41.84 82.55 36.20 85.88 31.80 M 89.02 31.74 C 85.66 34.17 85.31 38.71 85.61 42.50 C 86.22 42.35 87.44 42.04 88.05 41.88 C 87.61 43.53 87.19 45.18 86.83 46.85 C 88.49 47.97 90.17 49.06 91.88 50.10 C 92.75 52.13 93.54 54.36 95.40 55.72 C 98.08 57.10 101.02 57.88 103.89 58.80 C 104.60 58.44 106.02 57.73 106.73 57.38 C 108.95 51.01 109.81 44.03 107.76 37.50 C 107.67 33.67 105.20 30.77 102.27 28.61 C 97.69 28.43 92.65 28.53 89.02 31.74 M 182.75 32.68 C 179.76 33.17 176.35 33.76 174.60 36.55 C 169.91 42.56 170.16 50.47 168.60 57.56 C 172.51 56.60 176.40 55.59 180.31 54.63 C 180.85 55.81 181.40 56.99 181.95 58.16 C 181.60 59.17 181.25 60.18 180.91 61.19 C 177.88 62.06 174.83 62.84 171.77 63.56 C 171.36 64.00 170.55 64.86 170.14 65.29 C 171.57 70.27 172.97 75.58 176.79 79.33 C 179.10 81.90 182.68 83.06 186.01 81.89 C 185.97 78.69 188.89 76.72 189.69 73.77 C 193.83 61.11 192.49 45.74 183.47 35.45 C 183.32 35.02 183.03 34.17 182.89 33.74 C 187.74 35.80 189.63 41.16 191.25 45.76 C 194.57 56.69 194.13 68.92 189.21 79.30 C 188.73 79.55 187.77 80.05 187.29 80.30 C 187.06 80.82 186.61 81.86 186.38 82.39 C 189.88 81.75 192.87 79.57 194.51 76.42 C 198.69 68.78 198.75 59.66 197.68 51.23 C 196.52 45.63 194.76 39.66 190.50 35.61 C 188.25 34.10 185.67 31.69 182.75 32.68 M 199.07 51.49 C 199.24 52.34 199.58 54.06 199.74 54.92 C 204.45 53.38 209.48 52.90 214.08 51.05 C 214.09 49.79 213.06 48.95 212.46 47.96 C 208.02 49.24 203.56 50.40 199.07 51.49 M 160.84 62.87 C 160.78 63.39 160.65 64.44 160.59 64.96 C 165.91 63.75 171.11 62.07 176.35 60.55 C 177.87 59.98 179.84 59.93 180.63 58.27 C 180.20 57.91 179.33 57.19 178.89 56.84 C 172.55 57.68 166.60 60.21 160.84 62.87 M 107.06 77.96 C 103.63 80.10 97.57 80.98 98.05 86.20 C 103.62 83.44 109.14 80.59 114.66 77.73 C 118.76 75.43 123.47 74.81 127.97 73.72 C 134.68 72.24 141.38 75.94 148.04 74.39 C 147.58 73.73 146.67 72.41 146.21 71.74 C 139.81 71.97 133.43 71.03 127.04 71.10 C 120.11 72.45 113.06 74.05 107.06 77.96 M 128.43 77.07 C 128.93 79.52 131.40 79.92 133.50 79.85 C 135.57 81.62 137.95 83.23 139.31 85.66 C 140.31 87.88 140.38 90.42 141.66 92.52 C 142.97 89.67 145.82 88.18 147.79 85.91 C 149.61 82.59 151.75 79.10 151.29 75.15 C 144.09 79.06 135.71 73.45 128.43 77.07 M 32.59 91.47 C 32.74 92.39 33.03 94.23 33.18 95.15 C 40.26 92.61 47.73 91.46 54.88 89.16 C 54.72 88.60 54.38 87.49 54.22 86.93 C 46.90 87.80 39.93 90.61 32.59 91.47 M 98.91 88.58 C 99.35 89.25 99.35 89.25 98.91 88.58 M 30.24 92.35 C 29.38 93.02 29.37 95.47 30.78 95.34 C 31.65 94.66 31.67 92.20 30.24 92.35 Z" />
<path fill="#333333" opacity="1.00" d=" M 56.86 63.87 C 60.39 64.80 62.24 68.15 63.72 71.20 C 67.95 80.81 68.66 91.89 66.04 102.04 C 65.04 105.34 64.13 109.53 60.30 110.58 C 66.41 101.41 67.26 89.64 64.75 79.12 C 63.72 75.52 62.61 71.78 60.21 68.82 C 58.98 67.25 57.65 65.73 56.86 63.87 Z" />
<path fill="#333333" opacity="1.00" d=" M 109.97 90.80 C 112.00 90.81 113.34 89.27 114.99 88.37 C 116.34 88.82 117.26 89.98 118.30 90.89 C 117.09 90.52 115.90 90.12 114.72 89.69 C 113.84 90.38 112.96 91.07 112.08 91.75 C 112.85 93.01 113.52 94.34 113.97 95.76 C 116.78 95.85 120.25 95.60 121.57 98.70 C 118.91 98.00 116.20 97.53 113.46 97.33 C 111.84 98.29 110.07 98.92 108.22 99.25 C 107.86 99.67 107.15 100.51 106.80 100.92 C 106.16 101.03 104.88 101.25 104.25 101.35 C 103.52 102.25 102.79 103.15 102.07 104.06 C 100.33 103.38 98.48 102.80 97.36 101.20 C 98.84 101.49 100.32 101.85 101.79 102.21 C 102.43 101.37 103.07 100.53 103.71 99.69 C 104.67 99.43 105.63 99.17 106.59 98.91 C 106.92 98.43 107.58 97.47 107.90 96.99 C 109.32 96.96 110.73 96.92 112.15 96.87 C 112.58 94.51 111.96 92.23 109.97 90.80 Z" />
<path fill="#333333" opacity="1.00" d=" M 106.17 89.09 C 106.81 89.25 108.08 89.56 108.72 89.71 C 105.30 92.19 103.70 96.56 99.40 97.93 C 101.60 94.95 103.85 91.99 106.17 89.09 Z" />
<path fill="#333333" opacity="1.00" d=" M 97.91 107.93 C 96.75 106.48 99.17 104.46 100.54 105.44 C 101.51 106.83 99.28 108.99 97.91 107.93 Z" />
<path fill="#333333" opacity="1.00" d=" M 101.16 112.87 C 102.75 112.51 103.37 113.15 103.02 114.79 C 101.43 115.12 100.81 114.48 101.16 112.87 Z" />
<path fill="#333333" opacity="1.00" d=" M 111.98 118.20 C 111.83 115.94 113.21 114.46 115.21 113.68 C 114.46 115.40 113.38 116.95 111.98 118.20 Z" />
<path fill="#333333" opacity="1.00" d=" M 82.54 117.79 C 83.46 117.13 84.40 116.50 85.34 115.88 C 85.15 118.98 80.59 122.49 78.26 119.36 C 79.67 118.79 81.10 118.28 82.54 117.79 Z" />
<path fill="#333333" opacity="1.00" d=" M 100.73 115.48 C 103.00 117.97 105.35 120.37 107.95 122.53 C 104.02 123.04 100.86 119.12 100.73 115.48 Z" />
<path fill="#333333" opacity="1.00" d=" M 104.00 128.48 C 109.69 128.46 115.42 127.20 120.50 124.61 C 119.61 125.58 119.13 127.09 117.84 127.65 C 111.65 130.31 104.75 130.93 98.12 129.89 C 96.86 135.17 91.49 138.26 86.46 139.00 C 89.82 135.65 95.39 134.35 96.64 129.13 C 94.82 128.50 92.99 127.93 91.17 127.34 C 89.95 129.67 89.18 132.18 89.11 134.82 C 88.50 134.37 87.89 133.92 87.28 133.48 C 88.11 131.00 89.01 128.55 89.97 126.13 C 94.70 126.60 99.19 128.60 104.00 128.48 Z" />
<path fill="#333333" opacity="1.00" d=" M 101.96 136.07 C 107.56 134.23 113.39 133.04 119.29 132.79 C 119.33 133.86 119.38 134.93 119.44 136.00 C 113.73 138.08 108.24 140.66 102.76 143.24 C 106.21 138.56 112.34 137.47 117.30 135.09 C 110.87 134.26 104.82 137.63 98.51 138.44 C 99.52 137.47 100.52 136.38 101.96 136.07 Z" />
<path fill="#333333" opacity="1.00" d=" M 96.80 145.04 C 105.24 143.66 113.93 143.72 122.14 141.12 C 119.53 144.65 114.96 144.78 110.97 145.05 C 106.17 145.03 101.50 146.55 96.68 146.18 L 96.80 145.04 Z" />
<path fill="#333333" opacity="1.00" d=" M 87.50 179.86 C 90.05 179.89 92.49 179.20 94.74 178.02 C 95.38 179.86 96.00 181.72 96.40 183.64 C 95.63 182.61 94.89 181.56 94.18 180.49 C 92.52 180.99 90.83 181.43 89.14 181.83 C 88.40 183.00 87.66 184.16 86.89 185.31 C 87.06 183.49 87.27 181.67 87.50 179.86 Z" />
<path fill="#333333" opacity="1.00" d=" M 88.80 189.13 C 90.58 189.24 92.86 188.79 93.71 190.86 C 91.71 191.17 89.54 191.44 88.80 189.13 Z" />
<path fill="#333333" opacity="1.00" d=" M 122.68 230.28 C 123.15 228.77 123.61 227.26 124.33 225.86 C 124.58 228.74 125.03 231.59 125.60 234.43 C 124.56 233.10 123.62 231.69 122.68 230.28 Z" />
<path fill="#333333" opacity="1.00" d=" M 82.58 242.78 C 83.72 239.68 84.63 235.30 88.32 234.37 C 87.36 236.17 86.36 237.97 85.69 239.91 C 84.68 240.90 83.65 241.85 82.58 242.78 Z" />
</g>
</svg>
