<?xml version="1.0" encoding="UTF-8" ?>
<!DOCTYPE svg PUBLIC "-//W3C//DTD SVG 1.1//EN" "http://www.w3.org/Graphics/SVG/1.1/DTD/svg11.dtd">
<svg width="250pt" height="225pt" viewBox="0 0 250 225" version="1.1" xmlns="http://www.w3.org/2000/svg"><g id="#434442ff">
<path fill="#333333" opacity="1.00" d=" M 131.69 28.64 C 134.32 27.18 136.79 25.10 139.92 24.88 C 146.41 24.33 152.92 25.54 158.99 27.78 C 166.47 29.03 173.98 32.17 178.97 38.06 C 180.42 40.74 180.80 43.84 181.56 46.76 C 185.23 47.22 188.84 48.00 192.42 48.86 C 192.61 51.18 193.47 53.59 192.90 55.87 C 191.46 57.67 189.50 58.94 187.71 60.36 C 187.44 61.93 187.16 63.48 186.86 65.04 C 192.14 70.74 191.35 79.28 195.99 85.41 C 194.00 84.43 191.75 83.39 191.00 81.12 C 189.29 76.36 188.83 71.11 185.82 66.88 C 181.47 72.06 176.20 76.53 169.82 78.98 C 172.83 84.62 178.74 87.50 183.09 91.89 C 184.35 93.25 186.17 93.81 188.00 93.69 C 195.08 93.40 202.03 95.66 209.10 94.34 C 211.21 95.99 212.03 98.76 213.09 101.12 C 214.36 105.65 213.15 110.41 213.80 115.02 C 216.27 114.62 219.44 115.51 221.18 113.21 C 222.01 112.34 222.82 111.31 222.87 110.05 C 223.78 103.20 223.39 96.25 222.39 89.44 C 221.29 86.57 217.36 88.03 215.00 87.78 C 210.06 88.51 206.49 84.37 202.17 82.85 C 199.90 82.23 197.49 82.29 195.23 81.66 L 195.04 81.35 C 200.46 79.35 205.96 81.70 210.59 84.48 C 213.94 86.58 217.89 85.37 221.53 85.11 C 222.67 86.27 223.83 87.43 225.00 88.57 C 225.49 93.38 224.35 98.20 225.03 103.00 C 225.20 105.45 225.83 108.01 225.17 110.42 C 223.79 112.83 222.13 115.19 219.98 116.99 C 217.35 117.87 213.79 118.97 211.79 116.33 C 209.76 113.47 210.48 109.62 211.69 106.56 C 211.14 103.02 209.88 99.66 208.41 96.42 C 204.04 97.16 199.55 97.45 195.16 96.71 C 190.22 95.78 184.83 96.80 180.40 93.89 C 179.85 97.54 179.33 101.23 179.69 104.92 C 180.85 114.64 180.10 124.44 180.33 134.20 C 179.79 134.32 178.71 134.56 178.18 134.68 C 178.99 120.32 178.28 105.93 178.54 91.56 C 175.48 87.99 172.09 84.73 168.74 81.45 C 166.89 79.13 163.92 78.48 161.41 77.16 C 151.79 83.13 142.53 89.65 133.11 95.93 C 133.16 99.67 133.20 103.42 132.70 107.13 C 132.22 111.85 129.40 116.11 129.81 120.96 C 130.30 124.21 128.48 127.00 127.67 130.01 C 127.50 133.71 128.14 137.41 127.75 141.11 C 127.14 148.37 123.77 154.96 121.70 161.85 C 120.80 166.07 119.80 170.28 119.23 174.56 C 118.76 174.87 117.80 175.48 117.33 175.78 C 118.29 169.91 118.23 163.82 120.33 158.18 C 122.81 151.33 125.75 144.44 125.98 137.05 C 126.01 129.73 127.60 122.56 127.42 115.24 C 130.74 109.03 130.71 101.70 130.24 94.85 C 129.87 90.28 131.18 85.74 133.13 81.64 C 138.99 78.44 138.17 71.03 140.73 65.74 C 141.26 62.56 140.59 58.70 143.29 56.34 C 145.72 53.88 148.16 51.45 150.44 48.84 C 151.02 53.80 145.90 55.64 143.53 59.10 C 143.01 63.33 142.93 67.62 141.80 71.76 C 144.02 70.73 146.28 69.79 148.54 68.85 C 150.61 64.47 156.38 63.49 157.81 58.75 C 160.51 50.69 155.49 42.49 149.42 37.49 C 142.95 33.89 135.34 32.73 128.00 32.89 C 121.46 34.32 115.33 37.29 109.08 39.52 C 101.59 39.60 93.93 41.60 88.49 47.03 C 89.58 49.07 90.49 51.20 91.15 53.41 C 91.61 53.60 92.54 53.97 93.01 54.15 C 92.11 54.84 91.22 55.54 90.27 56.16 C 89.13 54.04 88.54 51.68 87.46 49.53 C 84.78 45.89 80.19 44.52 76.02 43.44 C 69.87 44.27 63.72 48.39 61.97 54.57 C 61.03 58.01 59.97 61.69 61.31 65.18 C 64.04 74.07 72.12 79.41 79.15 84.71 C 82.87 84.22 86.79 83.18 89.21 80.07 C 92.21 77.09 91.87 72.08 95.39 69.50 C 95.21 75.02 92.85 80.47 88.19 83.65 C 90.45 83.58 92.71 83.63 94.96 83.70 C 95.10 84.07 95.38 84.80 95.52 85.17 C 94.48 85.32 93.43 85.46 92.39 85.61 C 88.43 82.98 84.42 86.35 80.27 86.42 C 79.88 88.07 79.47 89.71 79.05 91.35 C 89.20 93.59 99.35 95.80 109.24 99.02 C 109.98 97.06 110.65 95.07 111.34 93.10 C 107.89 91.49 104.12 90.86 100.36 90.50 C 100.50 90.06 100.79 89.20 100.93 88.77 C 103.83 89.08 106.72 89.44 109.60 89.91 C 110.96 91.35 112.50 92.60 114.04 93.84 C 107.30 103.26 109.42 115.53 111.47 126.14 C 111.68 125.57 112.10 124.44 112.31 123.88 C 112.79 123.74 113.75 123.46 114.23 123.33 C 114.95 121.78 115.67 120.24 116.42 118.71 C 116.17 120.61 116.62 122.76 115.54 124.47 C 110.56 131.58 107.69 140.28 107.84 148.99 C 107.45 154.66 108.66 161.27 104.41 165.84 C 100.74 166.55 97.81 168.93 95.18 171.44 C 86.54 168.49 77.70 166.18 68.87 163.86 C 66.30 163.07 63.28 162.67 61.56 160.35 C 63.32 160.47 65.07 160.66 66.82 160.89 C 68.43 155.90 71.29 151.44 72.91 146.45 C 76.94 136.56 76.24 125.40 80.54 115.59 C 82.90 109.15 83.79 102.31 84.07 95.49 C 84.93 96.84 86.00 98.24 85.74 99.96 C 85.38 104.95 85.41 110.29 82.83 114.76 C 80.79 118.26 81.42 122.48 80.10 126.20 C 78.64 130.51 78.19 135.06 77.25 139.50 C 75.71 147.36 71.89 154.46 68.48 161.62 C 77.09 164.07 85.74 166.35 94.31 168.90 C 93.96 161.25 94.21 153.60 94.16 145.95 C 94.60 129.68 94.09 113.40 94.36 97.13 C 88.74 94.65 81.16 96.09 76.95 90.94 C 77.36 89.07 78.09 87.28 78.71 85.47 C 72.83 83.40 68.33 78.76 64.31 74.18 C 62.45 79.88 62.46 86.96 66.89 91.50 C 64.63 97.73 63.69 104.43 64.19 111.04 C 64.69 114.41 66.33 117.48 67.54 120.64 C 69.67 118.01 72.12 115.64 74.00 112.82 C 74.87 109.87 74.81 106.70 75.97 103.81 C 76.30 103.99 76.98 104.35 77.32 104.52 C 77.35 107.55 75.96 110.30 75.00 113.10 C 73.88 117.25 70.47 120.08 67.71 123.15 C 66.97 122.49 65.48 121.15 64.73 120.48 C 63.26 124.11 61.81 127.76 60.79 131.54 C 59.86 135.01 60.76 138.62 61.68 141.99 C 60.01 146.10 58.15 150.12 56.24 154.12 C 54.00 154.30 51.62 153.93 49.48 154.75 C 47.96 155.82 47.20 157.64 46.12 159.10 C 48.27 159.92 50.42 160.75 52.45 161.84 C 49.94 162.18 47.41 162.37 44.88 162.51 C 44.62 163.36 44.36 164.22 44.09 165.09 C 48.84 166.79 53.33 169.20 58.40 169.92 C 59.93 169.10 61.44 168.26 62.94 167.40 C 63.48 167.94 64.03 168.49 64.57 169.04 C 62.56 170.35 60.72 172.56 58.08 172.33 C 52.80 172.13 48.36 168.86 43.74 166.64 C 43.37 164.92 42.98 163.19 42.62 161.47 C 31.64 158.39 20.67 155.31 9.72 152.13 C 9.20 151.12 8.67 150.12 8.15 149.11 C 8.75 147.87 9.34 146.63 9.92 145.40 C 14.35 146.21 18.64 147.55 22.92 148.93 C 20.78 141.51 21.60 132.95 16.35 126.68 C 14.15 123.07 9.58 122.91 5.90 121.96 C 3.91 122.78 1.91 123.60 0.00 124.59 L 0.00 120.96 L 0.01 121.77 C 1.97 121.09 3.96 120.46 5.93 119.82 C 10.01 121.19 14.95 121.59 17.62 125.44 C 22.56 132.17 24.03 140.87 23.44 149.06 C 30.58 150.85 37.60 153.22 44.80 154.64 C 47.88 152.44 51.38 151.22 55.21 151.62 C 56.22 148.78 57.72 146.09 58.33 143.12 C 58.26 137.31 57.79 131.30 59.80 125.73 C 60.96 123.09 62.18 120.48 63.23 117.79 C 62.44 115.62 61.75 113.36 61.77 111.02 C 61.72 104.57 61.95 97.89 64.75 91.94 C 62.87 89.25 61.05 86.31 60.77 82.97 C 60.48 79.20 62.93 75.74 62.27 71.96 C 61.25 68.51 58.41 65.71 58.28 61.97 C 58.31 54.01 63.34 47.05 69.35 42.28 C 75.17 38.97 81.45 42.73 86.77 45.20 C 91.30 43.04 95.07 39.29 100.13 38.31 C 104.59 36.83 109.55 38.04 113.83 35.92 C 119.77 33.47 126.00 31.67 131.69 28.64 M 140.13 27.33 C 136.85 27.40 134.80 30.44 131.71 31.16 C 134.15 31.09 136.22 32.78 138.65 32.66 C 141.98 32.64 145.36 33.15 148.36 34.68 C 153.90 36.75 157.20 42.22 159.37 47.43 C 160.27 51.49 160.35 55.73 160.15 59.87 C 159.93 62.21 158.33 63.90 156.29 64.88 C 158.49 64.68 161.02 65.47 162.91 63.97 C 165.02 62.03 167.25 60.20 169.77 58.82 C 168.06 61.73 165.59 64.25 162.41 65.52 C 162.50 69.04 162.90 72.59 164.18 75.89 C 165.42 76.20 166.66 76.49 167.91 76.79 C 174.68 75.18 180.29 70.72 184.64 65.45 C 185.22 64.41 185.64 63.28 186.09 62.17 C 182.39 58.61 180.45 53.74 178.98 48.95 C 179.14 43.15 175.51 38.27 171.64 34.34 C 167.47 31.39 162.24 30.72 157.42 29.39 C 151.85 27.70 145.98 26.28 140.13 27.33 M 181.10 48.59 C 182.14 50.20 183.80 51.63 183.57 53.78 C 184.40 53.20 185.22 52.63 186.05 52.05 C 186.51 51.88 187.42 51.53 187.88 51.35 C 187.49 52.03 187.10 52.71 186.71 53.39 C 185.56 53.82 184.43 54.28 183.35 54.85 C 184.35 56.08 185.38 57.31 186.42 58.52 C 188.20 57.48 189.98 56.43 191.77 55.40 C 191.01 53.84 190.93 51.84 189.61 50.62 C 186.92 49.44 183.96 49.13 181.10 48.59 M 140.63 75.32 C 139.97 77.44 139.21 79.53 138.20 81.51 C 142.61 77.73 147.72 74.85 152.03 70.93 C 153.69 69.32 155.92 68.59 158.14 68.12 C 157.06 69.66 155.87 71.16 154.26 72.17 C 148.77 75.99 143.45 80.01 137.95 83.81 C 137.51 83.62 136.63 83.25 136.18 83.07 C 135.73 84.68 135.55 86.69 133.38 86.61 C 133.10 89.33 132.68 92.03 132.03 94.69 C 141.45 87.59 151.45 81.28 161.07 74.44 C 161.10 71.96 160.76 69.49 160.25 67.07 C 158.01 66.90 155.77 66.69 153.54 66.42 C 150.82 71.38 145.42 73.10 140.63 75.32 M 95.87 97.66 C 96.86 105.40 95.57 113.21 96.58 120.96 C 96.77 133.65 96.32 146.34 96.42 159.02 C 96.23 162.31 96.94 165.81 95.19 168.81 C 97.73 166.72 100.59 165.14 103.47 163.59 C 104.27 161.38 105.39 159.28 105.98 156.99 C 106.91 152.32 104.92 147.57 106.05 142.92 C 106.85 139.24 107.18 135.38 109.08 132.04 C 110.88 129.13 109.15 125.83 108.50 122.85 C 106.77 115.62 106.57 108.07 107.39 100.69 C 106.82 100.83 106.25 100.98 105.68 101.12 C 102.58 99.52 99.19 98.66 95.87 97.66 M 9.55 148.92 C 10.01 149.32 10.93 150.12 11.39 150.53 C 22.53 153.72 33.64 157.00 44.87 159.84 C 44.78 159.16 44.59 157.82 44.49 157.15 C 33.77 153.45 22.63 151.09 11.83 147.65 C 11.26 147.97 10.12 148.61 9.55 148.92 Z" />
<path fill="#333333" opacity="1.00" d=" M 127.07 38.31 C 129.80 37.32 132.62 36.53 135.51 36.23 C 132.97 38.58 129.35 38.77 126.37 40.30 C 123.59 41.81 121.04 43.74 118.20 45.15 C 114.49 46.44 110.39 46.57 106.89 48.49 C 102.76 50.37 99.66 53.78 95.94 56.27 C 98.08 52.03 102.12 49.43 105.96 46.92 C 108.61 45.14 111.91 45.17 114.88 44.26 C 119.38 43.24 122.73 39.71 127.07 38.31 Z" />
<path fill="#333333" opacity="1.00" d=" M 92.60 48.47 C 94.65 48.13 96.72 47.95 98.80 47.88 C 97.55 50.62 94.65 48.99 92.60 48.47 Z" />
<path fill="#333333" opacity="1.00" d=" M 118.19 53.81 C 120.26 51.62 123.03 50.33 125.78 49.24 C 125.44 52.11 122.38 53.09 120.28 54.45 C 120.19 55.08 120.01 56.35 119.92 56.99 C 118.85 58.39 117.81 59.81 116.76 61.22 C 117.12 62.10 117.47 62.98 117.83 63.86 C 119.33 65.49 120.61 67.29 121.91 69.07 C 121.42 69.45 120.44 70.20 119.95 70.58 C 118.11 65.70 115.60 61.12 112.12 57.21 C 113.87 57.00 115.12 58.19 116.35 59.21 C 117.41 57.58 118.09 55.77 118.19 53.81 Z" />
<path fill="#333333" opacity="1.00" d=" M 124.71 54.28 C 126.06 52.69 128.21 52.55 130.10 52.02 C 133.97 55.52 132.35 62.90 127.94 65.30 C 129.09 61.91 131.06 58.23 130.00 54.62 C 128.24 54.39 126.47 54.39 124.71 54.28 Z" />
<path fill="#333333" opacity="1.00" d=" M 86.90 58.13 C 89.67 57.48 91.47 59.48 92.53 61.76 C 92.57 64.05 92.07 66.27 91.14 68.36 C 90.71 68.38 89.84 68.42 89.40 68.45 C 90.80 66.47 92.13 64.27 91.50 61.73 C 90.09 60.39 88.43 59.34 86.90 58.13 Z" />
<path fill="#333333" opacity="1.00" d=" M 98.44 63.03 C 99.27 61.88 101.95 62.88 100.99 64.34 C 100.12 65.37 97.53 64.51 98.44 63.03 Z" />
<path fill="#333333" opacity="1.00" d=" M 123.06 72.84 C 124.52 70.78 126.33 68.69 129.15 69.16 C 127.68 71.21 125.83 73.17 123.06 72.84 Z" />
<path fill="#333333" opacity="1.00" d=" M 111.37 77.00 C 110.42 74.92 109.76 72.53 111.37 70.61 C 111.62 71.55 112.11 73.45 112.36 74.40 C 114.35 73.29 116.34 72.15 118.25 70.90 C 119.56 71.59 120.86 72.31 122.10 73.12 C 118.19 73.41 114.78 75.27 111.37 77.00 Z" />
<path fill="#333333" opacity="1.00" d=" M 102.51 79.53 C 102.90 79.61 103.68 79.77 104.07 79.85 C 105.19 82.66 106.42 85.43 107.81 88.12 C 104.24 86.71 103.14 82.96 102.51 79.53 Z" />
<path fill="#333333" opacity="1.00" d=" M 168.62 83.37 C 169.11 83.58 170.09 84.02 170.58 84.23 C 171.22 92.82 170.81 101.41 171.06 110.00 C 170.30 117.92 171.52 125.86 170.58 133.77 C 169.24 134.65 167.35 133.81 165.83 133.83 C 160.90 132.97 156.04 131.74 151.08 131.06 C 149.17 132.21 147.24 133.35 145.28 134.43 C 145.36 135.89 145.44 137.35 145.53 138.82 C 162.92 142.13 180.56 143.94 198.00 146.86 C 199.54 147.19 200.70 145.93 201.98 145.34 C 201.65 143.55 201.44 141.74 201.10 139.95 C 199.86 139.29 198.39 139.49 197.05 139.34 C 191.32 139.33 185.75 137.86 180.24 136.44 C 180.25 136.12 180.27 135.47 180.28 135.15 C 185.86 135.97 191.47 136.56 197.10 137.02 C 199.57 137.21 201.95 138.08 203.83 139.73 C 203.67 142.00 203.58 144.27 203.59 146.54 C 202.12 147.77 200.78 149.21 199.10 150.16 C 192.31 149.44 185.57 148.20 178.92 146.69 C 171.98 145.72 165.05 144.60 158.20 143.16 C 158.19 143.58 158.17 144.43 158.16 144.86 C 158.00 144.43 157.67 143.58 157.51 143.15 C 152.99 142.03 148.34 141.55 143.86 140.28 C 143.70 138.20 143.44 136.11 143.54 134.01 C 145.27 131.57 148.33 130.46 150.90 129.07 C 156.51 129.98 162.16 130.59 167.74 131.71 C 168.68 127.54 168.48 123.23 168.73 118.99 C 168.86 107.12 169.14 95.23 168.62 83.37 Z" />
<path fill="#333333" opacity="1.00" d=" M 127.23 103.46 C 127.81 103.75 128.41 104.01 128.96 104.37 C 128.28 106.23 127.40 108.02 126.58 109.83 C 127.43 112.21 127.48 114.73 126.30 117.03 C 125.71 114.70 125.02 112.39 124.71 110.00 C 124.96 107.65 126.37 105.62 127.23 103.46 Z" />
<path fill="#333333" opacity="1.00" d=" M 0.01 131.08 C 2.12 128.22 4.00 123.57 8.31 124.02 C 5.19 127.80 1.73 131.43 0.00 136.11 L 0.00 129.90 L 0.01 131.08 Z" />
<path fill="#333333" opacity="1.00" d=" M 63.01 149.88 C 63.44 147.49 64.83 145.54 66.55 143.91 C 65.27 148.17 65.20 153.29 62.19 156.74 C 61.07 154.50 62.56 152.10 63.01 149.88 Z" />
<path fill="#333333" opacity="1.00" d=" M 113.57 152.02 C 112.98 156.66 112.91 161.63 110.83 165.88 C 110.53 165.88 109.92 165.87 109.62 165.87 C 109.85 161.02 110.95 156.16 113.57 152.02 Z" />
<path fill="#333333" opacity="1.00" d=" M 17.47 165.48 C 19.15 162.53 19.62 158.93 21.92 156.33 C 21.68 163.32 18.18 170.35 12.55 174.55 C 8.82 177.33 4.14 175.78 0.00 175.23 L 0.00 173.96 L 0.01 172.94 C 2.93 173.21 5.87 173.91 8.81 173.60 C 12.88 172.64 15.62 169.00 17.47 165.48 Z" />
<path fill="#333333" opacity="1.00" d=" M 61.23 164.75 C 72.19 167.50 82.98 170.94 93.94 173.71 C 95.26 173.90 95.44 175.48 96.14 176.38 C 95.53 176.30 94.31 176.15 93.70 176.08 C 93.73 176.85 93.78 178.41 93.80 179.18 L 93.04 178.89 C 93.13 179.73 93.33 181.42 93.43 182.27 C 90.48 181.05 91.87 177.66 91.56 175.31 C 84.44 172.96 77.13 171.29 69.91 169.27 C 68.33 168.70 67.07 170.28 65.68 170.78 C 65.99 172.78 66.29 174.78 66.56 176.79 C 80.61 180.21 94.50 184.29 108.56 187.70 C 108.06 188.43 107.56 189.16 107.05 189.89 C 99.11 187.82 91.36 184.82 83.20 183.78 C 77.45 180.73 70.69 180.78 64.89 177.90 C 62.97 174.46 63.73 170.19 67.23 168.15 C 64.96 167.51 62.65 167.04 60.35 166.57 C 59.65 165.31 59.94 164.71 61.23 164.75 Z" />
<path fill="#333333" opacity="1.00" d=" M 0.00 165.83 C 1.07 167.84 2.28 169.77 3.37 171.78 C 2.23 171.21 1.11 170.61 0.00 169.99 L 0.00 165.83 Z" />
<path fill="#333333" opacity="1.00" d=" M 111.23 167.04 C 113.48 166.37 114.42 169.13 115.57 170.53 C 117.71 173.42 115.40 176.73 113.95 179.32 C 128.11 183.47 142.41 187.12 156.50 191.49 C 156.61 190.60 156.83 188.81 156.94 187.91 C 153.46 188.01 150.22 186.67 146.92 185.79 C 136.56 182.64 126.01 180.13 115.69 176.83 C 117.26 175.96 119.09 175.74 120.81 176.25 C 126.67 177.70 132.48 179.37 138.34 180.83 C 144.42 183.37 151.10 184.10 157.13 186.81 C 158.78 180.46 161.27 173.85 166.60 169.69 C 171.12 166.08 177.57 167.46 182.34 169.76 C 189.21 175.26 191.13 184.86 191.27 193.23 C 190.95 193.53 190.30 194.13 189.98 194.43 C 189.16 186.07 187.99 176.55 181.03 170.89 C 180.01 170.55 179.00 170.20 178.00 169.83 C 173.20 168.04 168.17 170.54 165.08 174.27 C 160.48 180.14 158.27 187.63 158.28 195.03 C 157.98 202.87 158.91 211.52 164.37 217.59 C 167.15 221.16 172.17 220.50 176.17 220.75 C 183.13 218.81 186.35 211.04 187.89 204.61 C 188.47 204.01 189.06 203.41 189.65 202.82 C 185.03 201.89 180.58 200.33 176.13 198.83 C 176.01 196.54 176.24 194.26 177.49 192.29 C 186.84 194.30 195.80 197.72 205.13 199.78 C 207.42 202.08 206.40 205.21 204.23 207.12 C 199.80 205.12 194.95 204.43 190.29 203.15 C 188.72 210.31 185.86 218.15 179.25 222.10 C 175.21 224.79 170.52 222.52 166.23 221.93 C 157.08 215.82 155.87 203.50 156.29 193.42 C 151.42 192.22 146.56 190.97 141.81 189.35 C 141.78 189.93 141.72 191.09 141.68 191.67 C 138.92 193.51 136.06 195.32 132.99 196.59 C 125.79 194.67 118.56 192.85 111.42 190.68 C 110.65 190.50 107.96 189.78 109.70 188.81 C 117.68 188.71 125.08 193.08 133.02 193.89 C 135.63 192.81 138.87 191.78 140.04 188.96 C 131.98 186.61 123.84 184.55 115.81 182.10 C 115.93 184.51 113.59 187.31 111.09 186.85 C 110.11 184.51 114.39 183.76 115.40 181.94 C 111.59 181.17 107.53 180.98 104.05 179.06 C 104.17 178.74 104.40 178.08 104.52 177.76 C 107.08 178.23 109.62 178.85 112.25 178.78 C 112.87 176.59 113.86 174.45 113.93 172.14 C 113.31 170.32 111.43 168.89 111.23 167.04 M 176.87 195.92 C 178.54 198.23 181.55 198.20 184.02 198.99 C 189.47 200.22 194.64 202.42 200.08 203.68 C 200.51 202.93 201.38 201.45 201.81 200.70 C 195.78 199.34 189.73 198.07 183.87 196.07 C 181.56 195.50 178.99 194.01 176.87 195.92 Z" />
<path fill="#333333" opacity="1.00" d=" M 170.20 174.23 C 171.49 172.73 173.38 169.87 175.52 171.91 C 165.74 180.56 163.96 194.80 166.02 207.03 C 166.79 211.34 168.91 215.17 170.94 218.99 C 165.93 217.31 164.96 211.56 163.95 207.06 C 162.42 195.92 163.29 183.55 170.20 174.23 Z" />
<path fill="#333333" opacity="1.00" d=" M 94.26 182.98 C 94.92 182.49 95.59 182.00 96.26 181.53 C 100.16 183.86 104.79 183.97 108.92 185.61 C 108.98 185.93 109.10 186.57 109.16 186.88 L 108.88 187.43 C 104.08 185.71 99.06 184.72 94.26 182.98 Z" />
</g>
</svg>
