<?xml version="1.0" encoding="UTF-8" ?>
<!DOCTYPE svg PUBLIC "-//W3C//DTD SVG 1.1//EN" "http://www.w3.org/Graphics/SVG/1.1/DTD/svg11.dtd">
<svg width="275pt" height="173pt" viewBox="0 0 275 173" version="1.1" xmlns="http://www.w3.org/2000/svg"><g id="#585a58ff">
<path fill="#333333" opacity="1.00" d=" M 250.89 57.40 C 258.95 55.92 266.89 53.83 275.00 52.61 L 275.00 54.95 L 274.99 53.80 C 266.61 56.75 257.62 57.10 249.11 59.53 C 248.83 61.33 248.81 63.17 248.69 64.99 C 257.51 63.49 266.20 61.34 275.00 59.69 L 275.00 61.66 C 266.31 64.10 257.19 64.63 248.59 67.40 C 248.41 68.07 248.05 69.43 247.87 70.11 C 246.55 70.50 245.22 70.91 243.87 71.19 C 242.15 70.30 241.01 68.66 239.71 67.30 C 223.70 70.70 207.65 73.96 191.55 76.88 C 190.26 79.74 189.20 82.79 189.21 85.97 C 189.00 96.02 190.47 106.17 188.45 116.12 C 188.08 120.89 185.25 124.96 182.94 128.98 C 180.00 129.32 177.04 128.46 174.10 129.00 C 165.24 130.06 156.34 128.12 148.01 125.22 C 139.86 128.77 130.68 131.86 121.79 129.06 C 117.65 127.58 113.38 128.94 109.38 130.17 C 109.07 130.64 108.45 131.59 108.13 132.06 C 107.33 132.13 106.54 132.20 105.74 132.28 C 101.90 140.57 91.40 140.85 83.63 139.44 C 87.65 138.03 91.89 137.80 96.09 137.47 C 101.04 136.93 103.43 131.99 106.11 128.45 L 104.22 128.67 C 105.15 128.10 106.09 127.53 107.03 126.97 C 105.21 123.01 103.55 118.79 100.31 115.74 C 98.06 113.72 95.49 112.11 93.05 110.34 C 94.75 112.36 96.46 114.37 98.13 116.41 C 98.55 118.64 99.55 120.67 100.69 122.61 C 100.55 121.35 100.28 118.85 100.14 117.59 C 100.61 118.29 101.09 119.00 101.57 119.70 C 101.49 121.05 101.38 122.40 101.24 123.76 C 97.86 122.27 96.42 118.82 94.82 115.77 C 91.31 119.55 88.76 124.55 84.02 126.97 C 78.54 128.11 71.80 128.15 68.18 123.10 C 67.57 123.20 66.36 123.40 65.75 123.50 C 67.26 126.59 68.34 129.91 70.07 132.89 C 72.33 135.49 75.18 137.51 77.40 140.17 C 71.77 138.81 66.71 134.11 65.38 128.40 C 64.44 125.59 63.14 122.92 61.99 120.19 C 59.42 123.32 56.42 126.29 54.81 130.06 C 54.76 133.72 55.98 137.26 56.03 140.91 C 54.51 144.34 51.27 146.81 47.54 147.30 C 40.42 148.38 33.44 150.94 26.14 150.30 C 22.10 150.20 18.28 148.21 15.90 144.94 C 14.79 143.69 13.19 142.70 12.72 141.01 C 12.96 138.59 14.92 137.08 16.79 135.85 C 21.03 133.07 23.87 128.71 28.03 125.82 C 35.97 119.73 38.79 109.66 43.10 101.07 C 45.61 96.54 47.55 91.70 50.41 87.36 C 52.70 83.76 53.97 78.99 58.32 77.27 C 63.07 74.45 68.03 78.40 72.04 80.78 C 77.51 81.99 80.17 87.00 83.23 91.13 C 91.63 90.53 99.74 88.19 108.00 86.74 C 111.97 85.89 116.86 85.87 119.08 81.85 C 120.66 81.47 122.25 81.09 123.83 80.71 C 124.85 81.79 125.88 82.86 126.91 83.93 C 142.36 80.82 157.82 77.79 173.28 74.76 C 173.41 73.71 173.55 72.66 173.68 71.61 C 177.73 70.51 181.85 69.24 186.09 69.50 C 189.38 70.00 192.67 71.28 196.02 70.38 C 210.36 67.36 224.86 65.07 239.12 61.68 C 239.90 58.96 241.42 56.57 244.34 55.90 C 246.41 56.77 248.56 58.01 250.89 57.40 M 239.84 61.01 C 240.94 61.29 243.14 61.84 244.24 62.12 C 242.61 63.08 240.85 63.87 238.97 64.15 C 224.68 66.72 210.46 69.66 196.21 72.47 C 194.16 72.91 191.84 73.21 190.75 75.29 C 196.93 74.64 202.94 72.94 209.04 71.81 C 221.03 69.50 232.99 67.06 245.01 64.95 C 243.74 65.99 242.41 66.97 241.08 67.93 C 242.39 68.43 243.84 71.05 245.21 69.29 C 248.47 65.54 246.29 59.62 242.87 56.65 C 241.82 58.08 240.80 59.53 239.84 61.01 M 174.57 74.21 C 176.31 74.41 178.05 74.58 179.79 74.71 C 180.70 77.02 179.79 79.13 178.61 81.11 C 177.84 85.06 178.67 89.22 180.00 92.98 C 180.00 97.45 176.45 100.84 175.39 105.02 C 175.00 106.79 174.75 108.59 174.25 110.33 C 173.98 110.20 173.44 109.93 173.17 109.79 C 171.74 103.30 178.04 98.36 178.08 91.98 C 179.06 87.68 174.71 84.54 175.70 80.20 C 160.05 83.35 144.37 86.38 128.79 89.87 C 128.17 91.78 127.55 93.69 126.95 95.61 C 131.77 95.85 135.76 99.24 140.61 99.01 C 139.97 99.56 139.34 100.11 138.71 100.66 C 134.26 99.94 130.29 97.54 125.81 96.96 C 123.46 97.40 121.18 98.12 118.85 98.66 C 120.60 100.49 123.52 102.04 123.41 104.96 C 122.76 109.08 119.51 111.98 115.86 113.63 C 116.57 111.53 118.03 109.89 119.79 108.60 C 120.41 106.64 120.97 104.65 121.23 102.61 C 118.43 101.98 117.41 100.05 118.12 97.33 C 110.92 95.69 105.95 101.81 100.66 105.45 C 100.64 105.99 100.60 107.06 100.59 107.60 C 97.66 108.01 94.70 107.89 91.76 107.77 C 94.39 110.12 97.60 111.65 100.51 113.61 C 102.08 114.43 103.57 116.16 105.57 114.93 C 105.03 115.45 104.49 115.97 103.95 116.49 C 106.61 119.60 107.67 123.92 110.77 126.58 C 109.37 127.34 108.03 128.21 106.87 129.32 C 110.63 128.23 114.36 126.86 118.31 126.70 C 118.24 126.07 118.09 124.81 118.02 124.18 C 120.86 123.10 123.77 122.20 126.78 121.79 C 127.70 121.06 128.63 120.32 129.56 119.60 C 128.30 117.92 127.53 115.98 127.70 113.87 C 126.49 113.56 125.29 113.24 124.09 112.92 C 123.89 112.53 123.47 111.75 123.27 111.36 C 124.84 111.65 126.42 111.91 128.01 112.16 L 128.00 113.40 C 129.28 113.21 130.56 113.02 131.84 112.83 L 131.06 111.56 C 132.55 110.92 134.05 110.31 135.58 109.78 C 134.71 110.67 133.83 111.56 132.95 112.45 C 133.32 113.15 133.69 113.85 134.07 114.56 C 135.38 115.00 136.69 115.49 137.98 116.01 C 140.24 116.31 142.48 116.83 144.35 118.23 C 141.19 118.55 138.13 117.72 135.12 116.91 C 133.84 119.35 131.07 120.30 129.32 122.33 C 126.92 125.25 122.57 124.35 119.30 125.14 C 122.74 127.28 126.96 128.11 130.98 128.02 C 135.57 128.10 139.78 125.78 144.38 125.82 C 144.81 125.19 145.24 124.56 145.68 123.94 C 149.41 125.21 153.50 123.89 157.13 125.45 C 158.50 125.61 159.88 125.76 161.27 125.88 C 161.27 126.09 161.27 126.50 161.27 126.71 C 168.13 128.86 175.16 126.09 182.14 126.89 C 182.83 125.36 183.53 123.83 184.40 122.39 C 187.55 118.13 187.41 112.56 187.82 107.51 C 187.13 101.69 187.99 95.82 187.12 90.02 C 186.16 84.47 189.41 79.36 189.54 73.89 C 188.87 72.63 187.71 71.21 186.09 71.55 C 182.16 71.77 177.95 71.93 174.57 74.21 M 131.23 85.35 C 129.45 85.48 128.11 86.60 126.99 87.90 C 144.29 85.46 161.27 81.05 178.50 78.14 L 177.45 76.50 C 161.99 78.99 146.66 82.57 131.23 85.35 M 55.99 81.00 C 50.68 91.28 44.49 101.16 40.45 112.07 C 39.07 116.18 35.79 119.19 33.96 123.05 C 32.39 126.99 27.86 128.23 25.30 131.37 C 22.53 134.64 19.05 137.11 15.54 139.51 C 13.62 140.86 16.23 143.57 17.81 142.00 C 22.31 138.81 28.31 138.30 32.10 134.10 C 34.27 131.85 37.10 130.40 39.32 128.22 C 42.51 123.88 45.24 119.18 47.00 114.07 C 50.31 104.70 57.44 97.38 61.39 88.33 C 62.96 84.89 66.47 83.09 69.67 81.48 C 66.90 80.22 64.22 77.89 60.98 78.38 C 59.20 78.94 57.34 79.66 55.99 81.00 M 66.99 84.91 C 63.26 87.48 62.40 92.23 59.71 95.63 C 56.62 100.86 52.65 105.59 50.34 111.26 C 47.47 118.08 45.16 125.51 39.75 130.82 C 36.56 132.87 33.48 135.07 30.86 137.84 C 28.86 140.00 25.70 139.76 23.17 140.84 C 21.24 141.94 19.61 143.46 18.02 144.99 C 23.69 148.97 30.98 148.90 37.39 146.97 C 42.52 145.24 48.10 145.33 53.10 143.18 C 54.25 138.50 52.76 133.79 53.05 129.13 C 54.88 125.96 57.42 123.29 59.71 120.47 C 64.89 114.79 67.55 107.34 69.40 100.01 C 70.02 98.73 71.51 98.15 72.47 97.17 C 72.43 97.89 72.37 99.35 72.34 100.08 C 73.66 102.22 74.64 104.55 75.42 106.93 C 74.84 106.70 73.68 106.24 73.10 106.01 C 72.41 104.32 71.73 102.62 71.01 100.95 C 70.50 102.63 69.99 104.31 69.47 105.98 C 71.68 109.59 72.53 113.73 73.03 117.87 C 73.40 121.18 75.59 123.72 77.85 125.96 C 80.39 125.63 83.35 126.21 85.39 124.31 C 88.53 121.59 91.21 118.23 92.86 114.40 C 91.00 110.57 89.89 106.44 88.60 102.40 C 86.73 102.56 84.85 102.69 82.98 102.83 C 81.56 100.81 79.83 98.77 79.49 96.24 C 79.83 94.61 80.87 93.24 81.62 91.79 C 79.11 88.61 76.98 85.14 73.95 82.41 C 71.48 82.74 68.91 83.19 66.99 84.91 M 118.08 84.35 C 118.96 84.39 120.72 84.46 121.60 84.50 C 121.03 85.50 120.55 86.80 119.14 86.72 C 108.59 88.86 97.91 90.47 87.47 93.10 C 87.88 95.41 88.29 97.72 88.56 100.05 C 100.15 97.71 111.72 95.22 123.22 92.44 C 123.22 93.09 123.23 94.38 123.23 95.03 C 121.20 95.21 119.17 95.40 117.14 95.63 C 119.25 96.01 121.63 96.98 123.46 95.31 C 126.10 93.81 125.25 90.32 125.54 87.81 C 124.04 85.69 122.84 83.08 120.28 82.04 C 119.73 82.62 118.63 83.78 118.08 84.35 M 81.13 94.93 C 80.11 97.58 82.59 103.35 85.74 101.11 C 86.89 98.44 85.91 95.65 85.20 93.02 C 83.88 93.59 81.06 92.70 81.13 94.93 M 90.34 101.45 C 90.90 103.16 91.46 104.86 92.04 106.56 C 96.94 106.39 100.77 103.52 104.73 101.01 C 105.31 100.28 106.46 98.81 107.04 98.08 C 101.47 99.21 95.91 100.34 90.34 101.45 M 68.95 108.43 C 67.57 112.61 63.31 117.35 66.32 121.73 C 69.27 122.90 72.20 124.09 74.82 125.92 C 70.22 121.15 70.41 114.43 68.95 108.43 M 129.67 115.92 C 129.64 118.30 133.08 117.24 134.58 117.38 C 133.80 116.72 132.24 115.40 131.46 114.75 L 132.49 113.59 C 131.41 114.21 128.49 113.72 129.67 115.92 Z" />
<path fill="#333333" opacity="1.00" d=" M 65.43 93.06 C 67.05 90.96 69.43 89.71 71.98 89.15 C 70.89 91.84 67.98 92.50 65.43 93.06 Z" />
<path fill="#333333" opacity="1.00" d=" M 147.93 94.06 C 152.61 93.21 157.49 94.55 161.91 96.08 C 166.76 97.68 168.75 103.97 166.65 108.28 C 169.07 109.87 171.81 110.97 174.20 112.58 C 174.37 113.32 174.50 114.06 174.60 114.81 C 174.38 115.95 174.19 117.09 174.02 118.23 C 173.77 116.83 173.52 115.44 173.26 114.05 C 170.92 112.87 167.84 111.02 165.40 113.01 C 163.90 114.45 162.71 111.23 161.02 112.39 C 157.66 113.63 154.52 115.38 151.13 116.56 C 151.33 113.25 155.17 112.73 157.49 111.30 L 155.80 109.53 C 159.16 108.67 162.58 110.06 166.00 109.77 C 166.02 106.28 166.19 102.26 163.45 99.64 C 159.48 96.30 154.03 95.45 149.00 95.43 C 146.25 95.08 144.80 97.83 143.93 99.98 C 147.76 102.28 151.06 105.32 154.92 107.58 C 156.00 107.97 155.70 109.12 155.58 110.00 C 149.92 108.54 146.63 103.25 141.31 101.20 C 141.10 100.85 140.68 100.16 140.47 99.81 C 143.58 98.70 144.51 94.70 147.93 94.06 Z" />
<path fill="#333333" opacity="1.00" d=" M 63.36 97.28 C 65.42 97.88 63.20 101.38 61.68 100.04 C 60.99 98.91 62.09 97.27 63.36 97.28 Z" />
<path fill="#333333" opacity="1.00" d=" M 148.32 96.45 C 150.00 97.77 150.86 99.71 151.40 101.74 C 148.66 101.35 148.82 98.49 148.32 96.45 Z" />
<path fill="#333333" opacity="1.00" d=" M 44.49 112.99 C 46.25 107.69 47.72 101.96 51.65 97.79 C 49.89 103.10 47.36 108.20 44.49 112.99 Z" />
<path fill="#333333" opacity="1.00" d=" M 109.72 105.01 C 110.77 103.27 111.93 101.59 113.28 100.07 C 112.89 101.71 112.48 103.36 112.03 105.00 C 109.72 105.92 107.38 106.77 105.04 107.63 C 103.82 106.86 102.62 106.05 101.56 105.06 C 103.42 105.37 105.23 105.91 106.99 106.55 C 107.90 106.04 108.81 105.52 109.72 105.01 Z" />
<path fill="#333333" opacity="1.00" d=" M 125.05 101.36 C 127.54 102.33 130.06 103.32 132.22 104.94 C 129.32 104.90 125.99 104.63 125.05 101.36 Z" />
<path fill="#333333" opacity="1.00" d=" M 51.51 120.18 C 53.62 113.67 56.97 107.37 62.09 102.74 C 58.53 108.52 55.95 114.97 51.51 120.18 Z" />
<path fill="#333333" opacity="1.00" d=" M 132.66 102.53 C 133.79 103.46 134.94 104.38 136.12 105.26 C 136.57 104.85 137.02 104.44 137.47 104.02 C 140.78 106.10 143.06 109.33 146.07 111.74 C 149.67 111.31 153.19 109.88 156.88 110.66 C 155.26 112.61 152.88 112.79 150.55 112.90 C 149.15 113.76 147.58 115.05 145.92 113.86 C 143.24 112.46 140.04 110.22 139.96 106.90 C 138.76 106.33 137.55 105.81 136.35 105.27 C 136.26 106.51 136.09 109.01 136.00 110.26 C 134.66 107.77 134.37 104.84 132.66 102.53 Z" />
<path fill="#333333" opacity="1.00" d=" M 125.61 107.15 C 127.49 108.18 129.34 109.25 131.17 110.37 C 128.54 111.85 126.58 109.32 125.61 107.15 Z" />
<path fill="#333333" opacity="1.00" d=" M 107.01 107.79 C 108.57 107.86 110.14 107.94 111.71 108.01 C 112.40 109.17 113.08 110.32 113.75 111.50 C 111.26 110.74 109.14 109.21 107.01 107.79 Z" />
<path fill="#333333" opacity="1.00" d=" M 107.71 114.20 C 110.19 114.20 112.65 114.51 115.08 115.01 C 115.21 115.53 115.49 116.57 115.62 117.09 C 112.93 116.28 110.27 115.38 107.71 114.20 Z" />
<path fill="#333333" opacity="1.00" d=" M 120.59 113.46 C 122.83 114.35 124.97 115.53 126.75 117.17 C 123.86 117.67 121.70 115.98 120.59 113.46 Z" />
<path fill="#333333" opacity="1.00" d=" M 107.02 117.33 C 107.08 117.01 107.18 116.37 107.23 116.05 C 108.64 116.37 111.38 116.24 111.82 117.78 C 110.32 118.42 108.40 118.17 107.02 117.33 Z" />
<path fill="#333333" opacity="1.00" d=" M 117.36 116.35 C 118.84 115.92 120.88 118.21 120.16 119.62 C 118.53 120.17 116.67 117.84 117.36 116.35 Z" />
<path fill="#333333" opacity="1.00" d=" M 155.23 118.79 C 155.96 118.12 156.35 116.00 157.73 117.43 C 162.79 119.92 168.47 121.06 174.08 120.08 C 172.47 122.09 170.06 120.84 168.01 120.68 C 165.73 120.15 163.52 121.19 161.24 121.16 C 159.15 120.63 157.22 119.60 155.23 118.79 Z" />
<path fill="#333333" opacity="1.00" d=" M 49.85 129.67 C 50.26 129.64 51.08 129.57 51.49 129.53 C 51.98 133.52 51.08 138.27 46.71 139.64 C 48.71 136.64 50.45 133.41 49.85 129.67 Z" />
</g>
</svg>
