<?xml version="1.0" encoding="UTF-8" ?>
<!DOCTYPE svg PUBLIC "-//W3C//DTD SVG 1.1//EN" "http://www.w3.org/Graphics/SVG/1.1/DTD/svg11.dtd">
<svg width="175pt" height="250pt" viewBox="0 0 175 250" version="1.1" xmlns="http://www.w3.org/2000/svg"><g id="#272827ff">
<path fill="#333333" opacity="1.00" d=" M 73.35 30.16 C 74.79 25.58 78.33 21.41 83.03 20.01 C 87.28 19.03 92.20 19.39 95.68 22.24 C 100.34 25.99 103.59 31.97 102.69 38.07 C 101.86 44.75 97.39 50.16 94.32 55.93 C 97.32 62.14 97.40 69.37 95.87 75.99 C 95.17 78.71 96.06 81.38 96.86 83.95 C 97.93 86.98 95.70 90.01 96.43 93.06 C 97.99 97.64 101.60 101.04 103.75 105.32 C 107.47 111.33 114.01 116.61 113.45 124.34 C 111.81 125.88 110.00 127.28 107.89 128.13 C 109.25 132.85 113.91 135.21 117.62 137.89 C 119.99 137.79 122.36 137.78 124.74 137.69 C 126.77 139.99 128.74 142.41 129.81 145.33 C 128.69 147.67 128.34 150.50 125.97 152.00 C 125.52 151.28 125.07 150.55 124.63 149.82 C 124.96 149.00 125.60 147.35 125.93 146.53 C 126.19 146.57 126.71 146.66 126.97 146.71 C 128.28 143.52 125.39 141.39 123.43 139.42 C 121.88 140.13 120.31 140.77 118.76 141.47 C 115.07 138.79 111.44 136.00 108.03 132.98 C 105.53 128.78 104.84 123.74 102.33 119.54 C 99.77 116.03 95.74 114.08 92.50 111.28 C 92.74 110.66 92.98 110.04 93.22 109.43 C 92.65 106.59 92.53 103.70 92.33 100.83 C 88.58 95.81 87.13 88.67 80.78 86.10 C 82.65 81.51 82.70 76.25 81.29 71.55 C 79.26 67.98 75.53 64.20 71.05 65.31 C 71.13 64.93 71.30 64.17 71.38 63.80 C 73.43 63.05 75.46 62.24 77.49 61.44 C 77.36 62.63 77.21 63.81 77.05 64.99 C 82.48 67.96 85.44 74.44 84.46 80.49 C 85.20 78.25 86.16 76.07 87.31 74.01 C 88.64 69.64 86.04 65.76 84.30 61.96 C 80.45 60.48 76.44 58.60 74.17 54.96 C 72.11 52.08 72.32 48.39 72.28 45.02 C 70.90 50.40 71.51 55.92 71.02 61.38 C 69.64 57.83 68.69 54.01 68.80 50.18 C 69.44 45.91 72.28 42.01 70.95 37.55 C 67.38 40.50 62.62 41.27 58.90 43.92 C 53.61 48.55 52.34 55.89 48.50 61.47 C 48.31 62.58 48.15 63.70 48.00 64.81 L 47.23 63.56 C 45.66 67.60 43.02 71.46 43.31 75.98 C 43.83 83.29 41.45 90.57 43.06 97.83 C 46.12 94.53 49.48 91.44 51.80 87.54 C 52.75 87.45 54.65 87.28 55.60 87.19 C 55.44 87.88 55.13 89.24 54.97 89.92 L 54.65 88.85 C 54.03 89.58 52.78 91.04 52.15 91.77 C 53.57 91.08 55.00 90.40 56.44 89.73 C 56.63 88.52 56.81 87.32 56.99 86.11 L 58.05 87.41 C 60.13 83.60 55.56 81.77 53.91 78.97 C 61.46 79.97 64.75 87.84 67.17 94.10 C 69.08 100.98 75.22 105.33 78.30 111.60 C 80.57 116.18 83.48 120.33 86.85 124.16 C 90.21 129.94 95.17 134.42 100.00 138.92 C 100.75 138.54 102.23 137.76 102.97 137.38 C 107.79 137.78 112.65 140.81 114.21 145.55 C 115.25 148.39 116.61 151.10 117.97 153.80 C 119.64 153.06 121.32 152.32 122.94 151.47 C 123.75 152.14 124.56 152.83 125.38 153.51 C 127.95 153.53 130.62 154.11 133.12 153.32 C 136.18 150.98 137.51 146.72 136.55 143.02 C 135.58 138.99 134.58 134.55 131.19 131.79 C 128.87 129.46 125.48 129.03 122.38 128.59 C 120.60 131.19 118.87 133.85 117.74 136.82 C 116.11 134.47 117.70 131.98 118.54 129.66 C 121.25 128.28 124.16 125.67 127.32 127.37 C 135.53 129.62 138.30 138.70 139.13 146.22 C 138.47 149.92 136.74 153.77 133.09 155.34 C 129.51 156.10 125.80 155.31 122.58 153.68 C 121.17 154.34 119.76 154.99 118.35 155.63 C 118.17 159.80 117.02 164.77 112.71 166.52 C 109.58 168.16 106.26 166.19 103.50 164.70 C 99.34 162.54 98.09 157.69 96.55 153.66 C 96.70 149.04 94.48 143.86 97.82 139.88 C 96.74 138.82 95.67 137.75 94.62 136.66 C 88.66 139.26 83.60 144.17 76.88 144.65 C 76.78 154.40 76.68 164.16 76.84 173.91 C 78.20 177.02 79.43 180.30 79.44 183.74 C 79.21 188.94 80.22 194.69 76.89 199.17 C 76.78 201.90 76.68 204.63 76.39 207.34 C 80.51 210.74 85.77 208.49 90.49 208.82 C 93.97 209.89 96.38 212.96 99.71 214.38 C 102.24 214.24 104.77 214.41 107.29 214.64 C 109.23 213.57 111.09 212.34 112.87 211.02 C 109.53 207.48 104.61 205.96 101.58 202.08 C 98.72 199.35 95.41 197.04 92.85 194.03 C 90.74 189.35 90.64 184.04 90.28 178.99 C 90.21 170.02 88.22 161.00 90.08 152.09 C 90.91 148.27 86.79 144.76 88.15 141.17 C 88.35 141.18 88.75 141.19 88.94 141.19 C 90.18 145.04 92.43 148.81 91.69 153.00 C 90.49 161.68 91.79 170.42 91.92 179.13 C 92.66 184.03 92.14 189.56 94.95 193.88 C 98.41 196.83 101.94 199.71 105.04 203.04 C 107.23 205.64 110.86 206.18 113.36 208.43 C 113.40 210.13 113.73 211.86 113.44 213.56 C 112.18 215.01 110.65 216.23 109.01 217.22 C 106.09 217.80 103.04 217.48 100.10 217.19 C 96.53 215.67 93.53 213.11 90.03 211.46 C 88.03 210.81 85.99 211.83 84.03 212.19 C 80.00 211.88 76.81 209.59 73.95 206.94 C 74.38 206.02 74.81 205.11 75.25 204.20 C 75.04 196.48 75.49 188.77 75.57 181.05 C 75.20 168.90 75.62 156.74 74.60 144.61 C 71.49 142.97 70.35 139.46 68.36 136.78 C 68.51 137.55 68.66 138.33 68.80 139.11 C 68.13 139.69 67.46 140.27 66.79 140.85 C 66.54 161.25 66.53 181.66 66.33 202.06 C 66.46 203.46 65.65 204.65 65.01 205.81 C 64.14 187.20 65.25 168.53 64.56 149.90 C 63.31 154.50 62.76 159.23 62.03 163.91 C 61.37 167.59 58.54 170.33 57.60 173.91 C 56.63 176.58 56.82 179.48 56.11 182.21 C 55.10 185.02 53.51 187.58 51.89 190.08 C 51.20 194.36 48.88 198.40 49.44 202.84 C 49.97 206.36 48.99 210.14 50.60 213.45 C 52.83 218.42 54.68 223.59 57.59 228.23 C 59.42 230.53 57.68 233.37 56.67 235.62 C 55.49 238.15 52.38 239.00 49.84 238.23 C 45.94 237.11 41.32 237.89 38.12 234.95 C 35.93 232.82 33.98 230.06 33.60 226.97 C 34.14 224.08 35.54 221.40 35.67 218.43 C 34.85 217.27 33.95 216.18 33.27 214.93 C 33.71 211.87 35.14 208.86 33.87 205.79 C 35.83 201.17 36.92 196.03 36.04 191.04 C 35.10 185.36 35.37 179.52 37.06 174.00 C 37.52 174.77 37.96 175.56 38.40 176.34 C 37.25 182.53 38.56 188.78 38.27 195.01 C 38.63 200.15 34.47 204.93 36.89 210.01 C 36.56 212.19 35.43 214.67 36.96 216.66 C 39.08 219.59 37.77 223.20 36.71 226.25 C 35.24 229.41 38.43 232.22 41.05 233.34 C 45.83 234.21 50.70 235.05 55.57 234.46 C 55.77 232.79 57.02 230.85 55.70 229.37 C 52.46 225.37 51.26 220.26 49.37 215.57 C 47.84 212.24 48.42 208.50 47.85 204.97 C 46.83 197.32 50.26 190.10 53.54 183.42 C 55.87 178.76 54.18 173.22 56.59 168.63 L 55.84 168.70 C 55.04 168.90 53.43 169.29 52.63 169.49 C 53.80 168.21 54.80 166.41 56.80 166.49 L 57.24 166.75 C 57.52 166.76 58.08 166.79 58.36 166.80 C 60.54 162.59 60.79 157.80 61.64 153.23 C 58.24 155.03 54.62 156.36 50.72 156.26 C 51.07 156.03 51.77 155.55 52.12 155.31 C 54.30 153.84 56.65 152.62 58.98 151.39 C 60.02 152.00 61.05 152.65 62.08 153.29 C 63.27 150.34 63.91 147.24 64.46 144.12 C 58.25 148.25 50.41 148.61 43.38 146.64 C 43.44 153.11 46.23 159.15 46.36 165.65 C 45.52 165.41 44.69 165.18 43.85 164.95 C 41.80 168.07 40.15 171.44 38.87 174.94 C 38.41 174.13 37.96 173.32 37.52 172.51 C 39.09 168.62 41.15 164.95 42.78 161.09 C 41.41 155.10 40.23 149.02 40.73 142.83 C 40.40 142.42 39.74 141.59 39.41 141.18 C 39.45 137.77 40.00 134.35 39.60 130.95 C 38.54 126.92 36.99 123.03 35.86 119.02 C 35.32 114.65 35.89 110.23 36.28 105.87 C 36.37 103.02 39.07 101.30 40.35 98.98 C 40.72 100.08 41.06 101.18 41.34 102.31 C 40.30 103.07 39.28 103.86 38.26 104.66 C 38.46 109.86 37.02 115.06 38.34 120.21 C 40.54 122.30 41.63 125.19 42.52 128.02 C 42.65 132.39 42.23 136.76 42.23 141.14 C 43.43 142.96 45.83 143.85 47.82 144.69 C 53.44 145.75 59.79 145.27 64.52 141.76 C 65.72 137.63 65.95 132.54 63.02 129.04 C 59.41 123.93 55.43 119.08 52.19 113.70 C 50.40 110.39 47.09 108.28 44.21 105.99 L 44.80 105.07 L 48.47 108.56 C 46.46 105.49 44.55 102.37 42.55 99.30 L 43.71 99.33 C 42.49 99.06 41.28 98.77 40.08 98.43 C 40.49 90.62 40.76 82.77 40.79 74.93 C 41.47 69.73 43.92 64.91 46.81 60.58 C 49.97 55.89 51.01 50.07 54.56 45.59 C 57.61 41.26 62.82 39.42 67.44 37.28 C 69.85 35.36 72.45 33.24 73.35 30.16 M 79.59 24.53 C 75.39 27.35 73.90 32.42 72.27 36.93 C 73.17 38.80 75.22 40.67 74.07 42.89 C 75.53 46.38 73.13 50.83 76.17 53.74 C 78.79 57.59 83.39 59.87 88.03 58.61 C 91.47 56.88 93.00 53.20 95.01 50.16 C 97.70 45.85 100.93 41.36 100.51 36.01 C 101.64 25.78 87.64 17.94 79.59 24.53 M 86.93 61.72 C 89.44 67.84 88.04 74.66 87.28 81.01 C 86.61 81.28 85.27 81.83 84.60 82.10 C 84.64 82.82 84.71 84.25 84.75 84.96 C 89.54 89.13 91.72 95.36 93.77 101.18 C 94.86 103.71 95.35 106.42 95.61 109.15 C 100.95 114.15 105.91 119.76 108.21 126.84 C 109.36 125.54 110.85 124.47 111.64 122.90 C 111.85 120.98 111.03 119.18 110.40 117.43 C 104.44 110.12 99.62 101.97 94.44 94.10 C 94.41 91.32 94.66 88.53 95.26 85.81 C 94.77 84.45 94.25 83.10 93.67 81.77 C 93.54 74.09 97.02 65.68 92.83 58.49 C 90.88 59.60 88.93 60.71 86.93 61.72 M 51.17 93.63 C 48.36 94.88 46.80 97.68 45.71 100.40 C 47.70 103.36 49.38 106.55 51.70 109.27 C 56.40 114.84 59.81 121.32 64.03 127.23 C 65.70 128.87 66.49 131.15 67.87 133.01 C 70.19 136.30 72.88 139.32 75.05 142.72 C 81.96 143.30 87.31 138.35 93.14 135.52 C 82.09 121.12 72.13 105.90 62.52 90.50 C 58.71 91.45 54.82 92.16 51.17 93.63 M 96.39 145.77 C 97.03 149.19 98.07 152.51 99.08 155.84 C 100.77 161.02 106.43 166.08 112.15 164.59 C 114.38 163.24 115.86 160.64 115.85 158.03 C 115.94 152.09 114.05 145.59 109.03 141.98 C 107.02 139.61 103.70 139.85 100.92 140.28 C 98.66 141.26 97.79 143.89 96.39 145.77 Z" />
<path fill="#333333" opacity="1.00" d=" M 53.29 53.18 C 57.64 54.46 58.78 59.71 57.17 63.54 C 56.77 62.62 55.96 60.78 55.56 59.86 C 53.46 60.83 51.53 62.80 49.15 62.83 C 49.98 60.62 52.73 59.55 54.49 58.01 C 53.97 56.43 53.53 54.83 53.29 53.18 Z" />
<path fill="#333333" opacity="1.00" d=" M 62.56 68.48 C 65.12 67.07 68.01 67.96 70.65 68.61 C 70.67 69.14 70.72 70.19 70.74 70.71 C 67.70 70.31 64.55 70.32 61.97 72.19 C 61.31 72.20 60.64 72.22 59.98 72.23 C 58.30 70.62 56.49 69.15 54.85 67.50 C 57.41 68.03 60.00 70.22 62.56 68.48 Z" />
<path fill="#333333" opacity="1.00" d=" M 81.82 94.87 C 84.65 97.34 86.29 100.79 88.11 103.99 C 89.13 105.52 88.80 107.40 88.68 109.12 C 86.73 104.21 83.95 99.70 81.82 94.87 Z" />
<path fill="#333333" opacity="1.00" d=" M 85.11 112.24 C 83.62 109.11 81.75 106.19 80.11 103.14 C 83.15 105.27 84.83 108.56 86.79 111.59 C 87.47 111.58 88.82 111.57 89.49 111.57 C 90.02 112.64 90.54 113.71 91.03 114.80 C 89.03 114.01 87.08 113.11 85.11 112.24 Z" />
<path fill="#333333" opacity="1.00" d=" M 44.14 117.68 C 46.07 116.57 47.61 114.45 49.85 114.10 C 50.02 114.35 50.35 114.85 50.51 115.10 C 48.63 116.50 46.33 117.01 44.14 117.68 Z" />
<path fill="#333333" opacity="1.00" d=" M 83.79 158.45 C 83.79 156.01 83.52 153.44 84.76 151.21 C 85.44 153.58 85.84 156.02 86.28 158.45 C 85.45 158.45 84.62 158.45 83.79 158.45 Z" />
<path fill="#333333" opacity="1.00" d=" M 49.59 174.71 C 50.30 174.23 51.02 173.76 51.74 173.29 C 50.55 177.61 47.92 181.39 46.91 185.77 C 46.51 188.01 46.32 190.28 45.82 192.51 C 44.37 186.21 46.74 180.19 49.59 174.71 Z" />
<path fill="#333333" opacity="1.00" d=" M 43.85 202.66 C 44.44 202.67 45.61 202.68 46.20 202.68 C 43.26 206.10 41.48 210.22 40.38 214.56 C 39.78 214.58 38.59 214.61 37.99 214.62 C 38.30 214.23 38.91 213.45 39.21 213.05 C 39.76 209.21 41.32 205.61 43.85 202.66 Z" />
</g>
</svg>
