<?xml version="1.0" encoding="UTF-8" ?>
<!DOCTYPE svg PUBLIC "-//W3C//DTD SVG 1.1//EN" "http://www.w3.org/Graphics/SVG/1.1/DTD/svg11.dtd">
<svg width="276pt" height="225pt" viewBox="0 0 276 225" version="1.1" xmlns="http://www.w3.org/2000/svg"><g id="#555754ff">
<path fill="#333333" opacity="1.00" d=" M 181.51 10.45 C 185.28 6.99 191.72 5.24 196.09 8.71 C 202.19 13.18 204.35 20.85 206.27 27.79 C 210.31 25.55 215.46 25.29 218.91 22.14 C 218.43 21.70 217.47 20.82 216.99 20.38 C 213.64 21.57 210.31 22.86 207.11 24.42 C 206.50 23.95 205.91 23.48 205.32 22.99 C 209.70 21.69 213.87 19.81 218.23 18.44 C 219.15 20.22 219.90 22.06 220.57 23.95 C 215.94 25.70 211.39 27.72 206.60 29.02 C 207.61 37.33 208.06 46.77 202.87 53.87 C 200.96 56.85 197.09 56.86 193.99 57.56 C 190.08 58.01 186.90 55.14 184.68 52.26 C 182.07 48.71 180.01 44.70 179.12 40.37 C 173.69 40.30 168.29 39.68 162.88 39.26 C 165.07 42.69 165.24 46.77 166.15 50.61 C 165.79 50.52 165.06 50.35 164.70 50.26 C 166.61 54.98 168.09 59.84 168.73 64.90 C 169.12 69.04 171.77 72.74 171.37 76.98 C 171.05 80.35 171.20 83.74 171.75 87.08 C 173.92 90.93 174.59 95.31 174.43 99.67 C 174.11 104.33 177.81 108.16 177.27 112.83 C 177.23 115.45 176.46 117.98 175.26 120.28 C 182.05 125.70 183.24 135.09 182.34 143.20 C 180.64 144.58 179.07 146.12 177.55 147.70 C 177.87 147.85 178.51 148.15 178.82 148.30 C 177.66 148.61 176.51 148.92 175.36 149.24 C 174.82 151.23 174.51 153.57 172.44 154.59 C 164.29 159.33 155.65 163.21 146.48 165.51 C 146.51 171.35 146.64 177.19 146.32 183.02 C 150.80 181.03 155.28 179.02 159.66 176.82 C 163.32 175.02 166.21 179.22 169.36 180.50 C 170.18 183.89 170.38 187.38 170.51 190.86 C 163.35 194.81 155.81 198.01 148.46 201.58 C 139.57 205.46 131.04 210.09 122.09 213.82 C 119.61 212.20 117.14 210.59 114.68 208.94 C 114.51 207.38 114.35 205.82 114.19 204.27 C 114.84 203.57 115.50 202.88 116.16 202.20 C 116.18 203.99 116.21 205.79 116.26 207.58 C 118.26 208.88 120.24 210.20 122.19 211.57 C 137.65 204.62 152.88 197.17 168.27 190.04 C 168.17 187.62 168.05 185.21 167.92 182.79 C 165.67 181.30 163.40 179.85 161.09 178.45 C 156.13 180.70 151.18 183.00 146.21 185.21 C 146.09 188.18 147.86 191.93 144.90 193.98 C 142.71 184.57 144.62 174.85 145.60 165.40 C 141.78 163.69 137.81 162.41 133.88 160.99 C 134.02 171.33 134.75 181.65 134.41 191.98 C 127.64 195.77 120.41 198.70 113.93 202.98 L 114.27 200.44 C 119.69 196.40 126.39 194.48 132.11 190.89 C 132.78 185.61 131.75 180.30 131.84 175.01 C 131.64 169.68 132.00 164.27 131.12 159.00 C 128.58 155.97 124.71 154.60 121.57 152.32 C 117.03 149.08 111.76 147.09 107.13 143.99 C 104.00 142.21 101.22 139.81 97.88 138.44 C 96.18 138.61 94.69 139.54 93.15 140.19 C 79.46 146.73 65.70 153.13 51.96 159.55 C 49.43 157.97 46.71 156.61 44.52 154.56 C 43.45 151.91 43.47 148.89 43.89 146.11 C 49.64 142.78 55.74 140.08 61.63 137.01 C 61.84 129.50 61.55 122.00 61.25 114.50 C 58.15 113.01 54.94 111.64 52.14 109.61 C 50.51 108.14 48.87 106.67 47.30 105.13 C 46.90 110.09 44.62 114.88 45.45 119.92 C 46.21 125.67 48.12 131.54 46.50 137.32 C 42.15 138.79 36.99 139.91 32.89 137.16 C 28.54 134.15 23.08 133.30 18.88 130.04 C 17.19 128.38 17.08 125.60 17.50 123.40 C 20.87 118.73 27.36 120.68 31.83 117.83 C 31.96 112.20 31.42 106.59 30.86 101.00 C 29.87 91.92 32.80 83.01 32.60 73.95 C 32.56 70.26 36.35 66.82 40.05 68.06 C 46.41 68.92 53.98 68.58 58.75 73.64 C 59.26 73.69 60.28 73.80 60.79 73.85 C 60.97 69.38 59.66 63.89 64.10 61.03 C 64.72 61.49 65.35 61.95 65.98 62.40 C 65.36 57.76 67.92 53.31 71.03 50.08 C 74.17 48.05 78.29 46.71 81.96 48.06 C 88.18 51.30 91.84 57.87 93.47 64.48 C 97.21 60.78 101.79 58.14 106.03 55.09 C 109.85 52.34 112.87 48.30 117.46 46.74 C 120.95 45.83 124.60 46.30 128.17 46.16 C 129.04 47.44 129.90 48.74 130.74 50.05 C 133.33 48.85 135.92 47.65 138.57 46.60 C 138.59 46.23 138.62 45.48 138.63 45.11 L 138.78 46.40 C 140.60 45.84 142.41 45.27 144.25 44.77 C 146.26 43.76 148.31 42.84 150.31 41.82 C 151.14 43.10 152.45 44.21 152.71 45.78 C 152.22 47.07 151.51 48.26 150.88 49.49 C 154.85 51.38 156.63 55.70 156.49 59.92 C 156.14 63.94 155.01 67.91 155.30 71.98 C 155.54 75.54 156.83 78.91 158.11 82.21 C 161.73 79.71 156.83 75.95 158.32 72.51 C 160.35 75.37 161.45 79.50 165.44 80.17 C 165.43 83.87 165.28 87.59 164.40 91.20 C 162.55 87.87 163.82 83.49 161.27 80.60 C 159.61 83.92 156.65 87.02 157.07 90.98 C 157.06 96.22 159.39 101.01 160.76 105.97 C 162.55 104.92 164.32 103.81 165.95 102.52 C 164.60 104.42 163.58 107.05 161.05 107.60 C 159.86 107.50 158.95 106.57 157.92 106.07 C 157.68 104.60 157.43 103.14 157.14 101.68 C 155.09 101.74 153.07 101.45 151.11 100.83 C 147.52 101.51 144.05 102.70 140.63 103.98 C 142.30 104.67 143.98 105.34 145.66 106.00 C 148.89 109.74 153.22 113.51 153.36 118.82 C 150.45 119.68 149.01 122.20 148.09 124.91 C 145.00 126.04 144.58 129.87 141.60 131.04 C 142.16 124.86 148.27 122.06 150.81 116.93 C 149.93 114.53 148.55 112.32 148.05 109.78 C 144.83 107.25 140.72 106.66 137.01 105.19 C 132.61 106.29 134.62 111.38 134.37 114.64 C 134.89 114.97 135.93 115.62 136.45 115.95 C 136.21 117.87 135.84 119.77 135.37 121.64 C 137.54 123.95 139.52 126.43 141.58 128.84 C 141.46 130.21 141.34 131.57 141.23 132.94 C 139.98 133.66 138.73 134.40 137.41 135.02 C 135.08 133.75 138.70 131.81 139.67 130.90 C 137.69 127.97 136.00 124.87 134.15 121.86 C 131.79 120.84 129.60 119.49 127.72 117.74 C 128.75 117.70 130.81 117.62 131.84 117.58 C 132.93 116.17 132.17 114.49 131.85 112.96 C 131.73 108.54 131.94 104.02 130.37 99.81 C 126.73 96.05 129.12 90.47 128.39 85.84 C 129.42 85.83 130.46 85.82 131.50 85.82 C 131.41 87.67 131.37 89.52 131.33 91.38 C 135.70 93.01 140.77 92.48 144.63 95.38 C 147.89 97.54 151.68 98.61 155.43 99.55 C 155.59 97.43 155.76 95.31 155.91 93.19 C 155.72 93.24 155.32 93.36 155.12 93.41 C 154.38 89.10 157.63 84.70 155.26 80.72 C 153.33 76.84 152.69 72.39 153.50 68.13 C 154.30 63.57 153.89 58.95 153.60 54.37 C 151.24 52.90 148.68 51.82 146.05 50.92 C 141.28 52.66 136.45 54.24 131.79 56.26 C 130.72 57.89 129.40 59.36 128.39 61.03 C 127.96 69.23 128.97 77.42 131.66 85.19 C 130.63 85.17 129.60 85.16 128.58 85.15 C 128.07 81.35 127.63 77.54 127.39 73.72 C 127.15 69.73 125.77 65.84 126.09 61.83 C 127.21 58.81 129.21 56.15 129.61 52.85 C 129.87 53.30 130.39 54.19 130.65 54.64 C 136.76 51.22 143.99 50.55 150.04 47.00 C 149.95 46.55 149.78 45.63 149.70 45.17 C 147.27 44.95 145.07 46.19 142.89 47.04 C 138.57 48.95 134.10 50.50 129.80 52.45 C 129.14 50.49 128.10 48.71 126.45 47.42 C 123.78 48.37 120.95 48.67 118.17 49.14 C 115.37 49.55 113.21 51.55 110.93 53.05 C 111.91 53.73 113.17 54.03 114.00 54.92 C 114.55 56.94 114.58 59.05 114.80 61.12 C 115.99 62.05 117.18 62.97 118.38 63.88 C 118.42 69.38 117.04 74.67 115.54 79.92 C 114.19 84.28 115.56 88.76 115.83 93.17 C 116.39 93.96 116.95 94.75 117.52 95.54 C 116.34 100.35 116.75 105.38 115.29 110.13 C 114.20 114.36 114.90 118.76 115.80 122.96 C 117.36 124.99 116.92 127.56 116.86 129.94 C 113.55 123.80 110.40 116.36 113.35 109.47 C 114.26 107.70 113.59 105.80 112.91 104.09 C 111.84 106.04 111.32 108.22 110.48 110.27 C 109.18 108.39 108.69 106.19 108.03 104.06 C 106.26 101.59 102.66 101.36 100.93 98.79 C 101.89 98.76 103.81 98.71 104.78 98.68 C 103.76 97.94 103.56 97.11 104.18 96.18 C 104.42 96.19 104.91 96.22 105.15 96.24 C 107.05 98.82 109.19 101.26 110.70 104.10 C 111.72 104.08 112.74 104.04 113.76 104.00 C 114.96 99.73 113.87 95.45 112.97 91.25 C 109.91 92.95 106.47 93.79 103.36 95.39 C 100.47 98.09 97.40 100.73 95.42 104.21 C 94.75 107.11 95.20 110.13 95.38 113.07 C 95.96 113.28 97.13 113.68 97.71 113.89 C 99.83 116.05 102.86 116.86 105.15 118.79 C 110.76 123.18 114.36 129.48 118.42 135.20 C 123.28 139.06 130.70 141.83 136.05 137.23 C 140.38 141.82 146.54 137.27 151.70 137.41 C 150.28 136.64 148.89 135.82 149.72 133.98 C 152.19 134.94 154.22 136.68 156.18 138.41 C 155.77 137.30 154.96 135.09 154.55 133.98 C 155.20 134.16 156.50 134.52 157.15 134.71 C 158.09 135.85 159.04 136.99 160.00 138.12 C 160.84 138.32 162.51 138.74 163.35 138.95 C 161.54 139.63 159.62 139.81 157.70 139.57 C 160.22 143.14 163.19 146.30 167.09 148.38 C 169.07 148.42 171.08 148.59 173.06 148.35 C 176.33 146.76 178.46 143.64 180.86 141.04 C 180.57 132.96 178.18 124.48 172.29 118.64 C 170.18 116.74 166.84 115.39 164.16 116.79 C 161.39 119.62 160.21 123.70 157.06 126.23 C 157.74 122.86 159.41 119.78 161.66 117.21 C 159.74 117.29 157.83 117.33 155.91 117.34 C 155.36 116.50 154.81 115.65 154.26 114.81 C 157.48 115.23 160.72 115.31 163.95 115.59 C 164.02 114.83 164.18 113.31 164.25 112.55 C 165.62 113.02 166.43 114.06 166.69 115.48 C 169.37 114.63 171.84 115.80 174.14 117.06 C 174.23 117.55 174.43 118.53 174.52 119.02 C 175.66 113.15 174.89 107.01 171.61 101.94 C 174.01 97.17 171.79 92.16 170.20 87.54 C 170.13 90.33 170.12 93.13 170.45 95.90 L 172.17 95.09 C 172.15 96.38 172.15 97.67 172.14 98.96 L 171.71 97.63 C 167.69 98.97 167.54 94.69 167.90 92.05 C 168.67 85.17 171.28 77.64 167.95 71.07 C 166.98 63.28 163.07 55.96 163.50 47.99 C 163.73 44.17 162.54 40.26 159.97 37.39 C 164.67 37.69 169.40 37.62 174.08 38.23 C 179.01 39.21 183.43 36.21 187.78 34.38 C 188.08 34.02 188.69 33.31 188.99 32.96 C 186.99 30.71 184.09 33.29 181.88 33.91 C 174.92 37.63 167.02 34.20 159.59 35.24 C 159.31 35.43 158.76 35.81 158.48 36.00 C 154.36 36.07 151.03 38.66 147.70 40.75 C 147.51 41.28 147.14 42.34 146.96 42.88 C 145.65 43.09 144.34 43.29 143.04 43.48 C 146.26 37.86 152.64 33.53 159.31 34.54 C 160.49 33.96 161.55 32.65 163.02 33.09 C 167.73 33.67 172.53 33.31 177.19 34.23 C 176.98 26.26 176.06 17.02 181.51 10.45 M 183.01 11.03 C 179.58 14.76 178.69 20.10 178.53 24.99 C 178.32 27.40 179.04 30.06 177.58 32.20 C 178.13 32.56 178.69 32.91 179.26 33.25 C 182.31 31.79 185.46 30.56 188.70 29.58 C 189.30 30.72 189.92 31.85 190.54 32.99 C 190.27 33.90 190.00 34.82 189.74 35.73 C 186.62 37.12 183.20 37.98 180.46 40.08 C 181.90 45.34 184.56 50.71 189.13 53.93 C 192.54 56.49 197.01 54.93 200.51 53.38 C 204.59 49.46 205.38 43.43 205.57 38.05 C 205.48 29.24 203.48 20.03 197.94 12.98 C 196.01 10.41 192.85 9.40 190.05 8.11 C 187.73 9.14 185.15 9.64 183.01 11.03 M 71.81 51.75 C 65.61 57.56 67.00 66.68 66.34 74.31 C 69.91 73.27 73.18 71.51 76.54 69.98 C 77.61 71.89 79.32 73.97 78.46 76.30 C 71.04 79.77 63.12 81.99 55.67 85.38 C 53.62 83.83 53.50 81.25 53.96 78.92 C 56.17 77.77 58.64 77.25 60.98 76.46 C 57.86 75.02 54.93 73.19 51.81 71.73 C 48.46 70.82 44.74 71.00 41.87 68.75 C 39.93 69.43 37.21 69.11 36.08 71.14 C 33.80 74.66 34.95 79.03 33.85 82.87 C 29.80 94.28 34.70 106.33 34.00 117.94 C 30.20 122.58 23.23 121.64 17.99 123.54 C 18.81 125.13 19.30 126.97 20.55 128.32 C 25.80 132.79 32.54 134.93 39.16 136.43 C 41.04 136.67 42.86 135.91 44.70 135.60 C 45.60 130.25 43.99 125.09 43.12 119.87 C 42.15 114.73 43.89 109.65 44.84 104.65 C 42.89 103.02 40.67 101.75 38.71 100.13 C 38.33 98.13 38.43 95.98 39.00 94.02 C 40.40 91.80 43.30 91.40 45.41 90.09 C 49.60 92.38 52.93 95.84 56.88 98.47 C 55.90 91.37 60.10 83.55 67.44 82.03 C 65.42 84.22 62.75 86.03 61.66 88.93 C 60.88 90.82 59.91 92.63 58.60 94.22 C 58.28 97.22 58.51 100.23 58.72 103.23 C 61.61 105.10 64.84 106.34 68.09 107.42 C 76.92 109.23 83.87 116.19 93.00 117.04 C 90.72 115.38 88.02 113.88 86.87 111.15 C 85.84 107.15 87.90 103.38 89.36 99.79 C 86.61 100.84 84.03 102.81 80.94 102.52 C 83.67 99.54 87.63 98.47 91.32 97.20 C 94.87 94.64 98.19 91.59 102.17 89.65 C 102.67 89.94 103.67 90.53 104.17 90.82 C 101.26 93.54 97.34 94.74 94.40 97.40 C 93.37 98.41 92.12 99.07 90.75 99.47 C 91.49 103.08 88.88 106.35 89.51 109.97 C 89.64 111.83 90.96 113.20 92.40 114.22 C 92.54 110.58 92.36 106.84 93.45 103.31 C 95.22 99.35 98.84 96.71 102.23 94.20 C 104.88 92.03 108.46 91.66 111.24 89.71 C 111.59 89.72 112.27 89.74 112.61 89.76 C 112.54 88.66 112.38 86.47 112.31 85.38 C 111.18 85.31 110.06 85.24 108.93 85.16 C 106.37 79.93 99.67 80.52 95.86 76.71 C 95.87 81.56 94.79 86.28 94.13 91.05 C 92.37 93.00 90.93 95.39 88.63 96.78 C 84.75 97.87 79.94 99.47 76.52 96.37 C 72.28 92.89 68.38 87.73 68.17 82.21 C 70.07 81.96 69.79 85.14 70.82 86.28 C 73.27 90.76 77.10 97.08 83.10 95.78 C 85.45 95.27 88.32 95.18 89.89 93.06 C 94.83 87.29 94.06 79.15 93.73 72.10 C 92.39 63.63 89.23 53.89 80.83 50.01 C 77.87 47.94 74.46 50.24 71.81 51.75 M 94.37 65.86 C 94.43 66.52 94.53 67.84 94.58 68.50 C 98.76 65.74 102.74 62.69 107.01 60.05 C 109.17 58.62 112.26 58.83 113.83 56.51 C 111.81 56.29 109.78 56.19 107.76 56.09 C 103.40 59.49 98.72 62.45 94.37 65.86 M 108.48 61.33 C 103.94 64.29 99.72 67.73 95.02 70.43 C 95.09 71.37 95.16 72.30 95.23 73.24 C 97.42 74.71 99.27 76.85 101.94 77.46 C 104.98 78.31 108.10 79.71 109.86 82.48 C 110.49 82.79 111.74 83.41 112.37 83.72 C 113.39 78.77 115.00 73.93 115.66 68.91 C 116.24 65.73 113.94 63.09 113.13 60.17 C 111.56 60.45 109.81 60.31 108.48 61.33 M 64.20 62.32 C 60.72 66.19 63.51 71.17 62.31 75.66 C 63.15 75.43 64.82 74.96 65.65 74.73 C 64.68 70.64 66.26 66.09 64.20 62.32 M 70.88 74.56 C 66.50 76.24 62.13 78.00 57.62 79.29 C 57.78 80.05 58.10 81.56 58.26 82.32 C 63.67 79.98 69.12 77.72 74.72 75.86 C 75.87 75.40 77.93 74.71 77.05 73.00 C 74.85 72.76 72.87 73.82 70.88 74.56 M 55.27 80.44 C 53.60 83.30 58.56 80.81 55.27 80.44 M 41.27 94.49 C 39.65 95.37 40.63 97.51 40.31 98.97 C 43.40 100.74 46.50 102.54 49.31 104.73 C 58.19 111.82 68.68 116.47 77.84 123.15 C 82.28 125.70 86.83 128.06 90.98 131.09 C 101.04 138.02 112.84 142.01 122.50 149.54 C 130.27 152.93 135.71 160.34 144.05 162.59 C 150.18 162.88 156.18 160.52 161.45 157.54 C 165.29 155.44 169.69 154.04 172.65 150.65 C 165.60 151.67 157.54 147.91 156.02 140.47 C 152.44 140.17 148.75 139.71 145.29 140.98 C 141.00 142.64 136.40 140.54 132.06 141.85 C 127.76 143.23 123.47 141.18 119.80 139.10 C 111.74 134.20 109.90 123.12 100.94 119.32 C 97.50 116.89 93.65 119.73 89.93 119.20 C 87.33 119.01 85.70 116.62 83.48 115.55 C 76.18 113.50 69.08 110.80 62.06 107.95 C 60.07 107.29 58.85 105.51 57.54 103.99 C 57.56 103.45 57.59 102.36 57.61 101.81 C 53.27 99.92 50.25 96.24 47.00 92.98 C 45.14 90.65 42.95 93.44 41.27 94.49 M 130.83 93.85 C 131.66 97.70 133.28 101.32 134.46 105.06 C 139.18 104.55 142.43 100.72 146.96 99.71 C 144.57 98.47 142.32 97.01 140.06 95.56 C 139.59 96.74 139.12 97.94 138.65 99.13 C 138.35 97.76 138.03 96.38 137.72 95.01 C 135.48 94.36 133.16 94.04 130.83 93.85 M 63.17 115.33 C 63.68 122.83 64.18 130.38 63.69 137.89 C 57.99 141.72 51.33 143.91 45.51 147.58 C 45.75 149.60 45.99 151.63 46.25 153.66 C 48.17 154.88 50.09 156.11 52.02 157.32 C 66.35 150.53 80.73 143.87 95.04 137.05 C 90.95 134.09 86.84 131.16 82.81 128.13 C 80.00 129.43 77.19 130.83 74.10 131.33 C 75.27 128.85 78.06 128.14 80.29 126.96 C 74.76 122.82 68.62 119.56 63.17 115.33 Z" />
<path fill="#333333" opacity="1.00" d=" M 188.55 9.60 C 190.54 10.42 192.50 11.52 193.74 13.35 C 200.27 22.76 202.67 34.76 200.97 46.03 C 200.54 48.95 199.47 52.02 196.81 53.64 C 202.46 39.78 200.27 22.18 189.32 11.50 C 189.13 11.02 188.75 10.07 188.55 9.60 Z" />
<path fill="#333333" opacity="1.00" d=" M 76.57 50.52 C 81.05 51.54 83.27 55.98 85.28 59.66 C 89.64 69.13 90.92 80.12 88.35 90.26 C 88.00 92.10 86.44 93.28 85.08 94.39 C 89.68 82.65 88.62 68.92 82.30 58.01 C 80.83 55.17 77.85 53.48 76.57 50.52 Z" />
<path fill="#333333" opacity="1.00" d=" M 38.95 75.21 C 39.44 74.79 40.42 73.97 40.91 73.55 C 41.18 73.98 41.73 74.83 42.00 75.26 C 40.13 75.77 38.26 76.24 36.37 76.69 C 36.28 76.34 36.11 75.66 36.02 75.31 C 36.75 75.29 38.22 75.23 38.95 75.21 Z" />
<path fill="#333333" opacity="1.00" d=" M 118.55 80.47 C 119.11 80.42 120.23 80.33 120.79 80.28 C 120.57 83.03 120.36 85.79 119.78 88.49 C 119.26 85.84 118.83 83.16 118.55 80.47 Z" />
<path fill="#333333" opacity="1.00" d=" M 38.26 85.45 C 38.96 82.94 42.04 83.81 44.01 83.60 C 45.68 85.41 47.36 87.27 49.47 88.60 C 51.29 89.90 53.80 90.69 54.36 93.16 C 50.62 92.13 47.43 89.84 44.75 87.10 C 43.15 85.15 40.43 85.92 38.26 85.45 Z" />
<path fill="#333333" opacity="1.00" d=" M 124.06 82.82 C 124.35 85.70 124.28 88.61 123.43 91.40 C 121.85 92.59 120.31 93.83 118.75 95.04 C 120.81 91.10 123.45 87.34 124.06 82.82 Z" />
<path fill="#333333" opacity="1.00" d=" M 35.29 100.07 C 35.01 95.89 35.42 91.72 37.49 87.99 C 35.32 96.25 37.12 104.65 37.31 113.00 C 35.86 108.85 34.49 104.52 35.29 100.07 Z" />
<path fill="#333333" opacity="1.00" d=" M 119.50 98.85 C 121.37 101.44 122.27 104.79 121.51 107.92 C 120.63 110.57 119.10 112.95 117.50 115.21 C 116.96 112.40 118.46 109.98 119.89 107.72 C 119.69 104.77 119.52 101.81 119.50 98.85 Z" />
<path fill="#333333" opacity="1.00" d=" M 124.39 112.62 C 124.25 109.66 124.31 106.68 124.39 103.72 C 124.75 106.55 125.08 109.45 126.31 112.07 C 126.11 112.14 125.72 112.29 125.52 112.37 C 125.54 114.40 125.51 116.44 125.47 118.47 C 124.96 118.69 123.93 119.13 123.42 119.35 C 123.03 119.74 122.26 120.51 121.87 120.89 C 122.45 118.06 123.77 115.45 124.39 112.62 Z" />
<path fill="#333333" opacity="1.00" d=" M 39.97 120.08 C 41.65 122.83 42.27 125.97 41.37 129.12 C 40.42 127.86 39.67 126.47 38.82 125.15 C 36.86 123.81 35.67 126.94 34.06 127.64 C 33.09 126.89 32.11 126.15 31.14 125.40 C 33.82 124.75 36.66 124.49 39.08 123.05 C 39.30 122.31 39.74 120.82 39.97 120.08 Z" />
<path fill="#333333" opacity="1.00" d=" M 119.27 129.35 C 119.60 126.99 119.98 124.43 122.27 123.12 C 122.49 125.68 120.84 127.59 119.27 129.35 Z" />
<path fill="#333333" opacity="1.00" d=" M 152.30 123.15 C 153.78 126.05 156.60 129.61 154.37 132.83 C 152.84 129.84 152.16 126.51 152.30 123.15 Z" />
<path fill="#333333" opacity="1.00" d=" M 130.24 144.66 C 138.96 146.35 146.34 153.46 155.71 151.71 C 155.59 152.13 155.36 152.97 155.24 153.39 C 151.90 154.43 148.25 154.50 145.03 153.01 C 139.87 150.75 133.78 149.42 130.24 144.66 Z" />
</g>
</svg>
