<?xml version="1.0" encoding="UTF-8" ?>
<!DOCTYPE svg PUBLIC "-//W3C//DTD SVG 1.1//EN" "http://www.w3.org/Graphics/SVG/1.1/DTD/svg11.dtd">
<svg width="185pt" height="300pt" viewBox="0 0 185 300" version="1.1" xmlns="http://www.w3.org/2000/svg"><g id="#272927ff">
<path fill="#333333" opacity="1.00" d=" M 67.55 28.56 C 72.16 25.97 77.86 26.61 82.58 28.57 C 85.98 30.26 87.04 34.11 86.82 37.65 C 102.02 37.68 117.22 37.69 132.42 37.65 C 133.17 39.55 133.94 41.45 134.67 43.37 C 136.32 44.27 137.99 45.12 139.66 45.97 C 139.13 50.21 140.61 55.82 136.51 58.65 C 132.97 61.51 130.75 65.55 129.22 69.75 C 125.59 67.72 122.21 65.32 117.99 64.69 C 116.32 64.43 114.61 64.37 112.96 63.94 C 110.36 61.22 107.75 57.95 103.86 57.19 C 100.69 57.13 97.54 57.52 94.38 57.76 C 91.76 56.04 88.61 55.72 85.58 55.31 C 84.62 52.58 83.64 49.86 82.43 47.23 C 82.89 47.02 83.81 46.60 84.27 46.39 C 84.43 45.36 84.59 44.33 84.76 43.30 C 77.86 43.36 70.95 43.33 64.05 43.31 C 64.52 46.72 65.46 52.21 70.07 51.53 C 73.74 51.78 76.41 49.16 78.38 46.43 C 79.91 46.41 79.65 48.64 79.70 49.71 C 76.50 52.56 72.08 53.36 67.92 52.82 C 62.99 52.92 62.87 46.56 62.39 43.02 C 59.61 42.93 58.28 45.42 56.57 47.15 C 54.87 47.43 53.20 47.87 51.58 48.45 C 49.73 53.16 48.69 58.16 48.68 63.23 C 51.15 60.77 53.74 57.78 57.56 57.85 C 62.12 58.07 66.12 55.31 70.68 55.34 C 70.01 55.84 68.68 56.83 68.01 57.33 C 70.85 58.32 74.27 58.57 75.89 61.48 C 77.44 59.17 80.09 57.55 82.86 57.32 C 85.49 57.50 88.10 57.87 90.74 58.01 C 90.42 58.85 90.33 60.01 89.10 59.97 C 85.41 60.32 81.78 58.83 78.09 59.62 C 77.22 61.03 76.30 62.41 75.25 63.69 C 73.88 62.10 71.92 61.32 70.10 60.39 C 69.37 60.43 67.93 60.52 67.21 60.56 L 67.22 59.35 L 68.79 59.01 C 68.12 58.47 67.45 57.94 66.77 57.41 C 63.74 59.03 60.51 60.41 57.00 60.25 C 53.51 60.11 51.43 63.17 49.34 65.45 C 50.24 69.70 48.93 74.54 45.89 77.65 C 45.39 73.68 48.15 70.02 47.13 66.06 C 45.68 60.22 46.82 53.95 49.85 48.79 C 51.07 46.75 53.48 46.10 55.53 45.22 C 57.26 44.80 57.08 42.68 57.73 41.36 C 61.09 42.22 64.58 41.94 68.00 41.96 C 89.56 41.93 111.12 41.98 132.68 41.94 C 132.68 41.22 132.69 39.79 132.70 39.07 C 109.46 39.04 86.23 39.05 63.00 39.06 C 61.73 38.71 59.24 39.71 58.95 37.83 C 67.57 37.44 76.21 37.80 84.84 37.65 C 84.55 35.18 84.66 32.00 82.08 30.67 C 78.23 27.80 73.19 28.68 68.71 28.56 C 66.82 30.88 65.95 33.74 65.20 36.58 C 64.32 36.48 63.45 36.37 62.58 36.26 C 63.80 33.47 64.78 30.25 67.55 28.56 M 86.93 43.39 C 86.18 44.87 85.31 46.29 84.70 47.84 C 85.68 49.95 86.87 51.95 87.95 54.01 C 90.87 54.03 93.78 54.52 95.91 56.70 C 99.60 55.39 103.97 54.02 107.52 56.45 C 111.41 57.59 113.85 60.88 116.58 63.62 C 118.33 63.72 120.08 63.82 121.81 64.08 C 124.61 64.67 127.27 65.73 129.96 66.65 C 130.33 63.61 132.77 61.58 134.24 59.07 C 136.49 55.98 136.34 52.00 136.62 48.38 C 134.89 46.53 132.78 45.10 130.94 43.37 C 116.27 43.32 101.60 43.27 86.93 43.39 Z" />
<path fill="#333333" opacity="1.00" d=" M 134.42 36.47 C 134.88 35.40 135.34 34.34 135.80 33.27 C 140.92 34.55 146.48 32.46 151.28 35.16 C 151.36 35.78 151.51 37.02 151.59 37.64 C 162.72 37.70 173.86 37.66 185.00 37.67 L 185.00 39.19 C 173.28 39.37 161.51 38.37 149.82 39.51 C 148.88 37.93 148.50 35.20 146.09 35.51 C 142.19 35.58 138.05 34.59 134.42 36.47 Z" />
<path fill="#333333" opacity="1.00" d=" M 36.56 37.65 C 38.01 36.14 39.38 33.80 41.85 34.29 C 46.37 34.47 50.88 34.15 55.40 34.19 C 55.58 35.62 55.77 37.07 55.93 38.51 C 55.49 38.43 54.61 38.26 54.16 38.18 C 52.68 36.94 51.32 35.10 49.18 35.21 C 45.69 35.21 41.66 34.34 38.81 36.88 C 40.06 37.50 41.30 38.13 42.54 38.76 C 28.38 39.43 14.18 38.88 0.00 39.06 L 0.00 37.67 C 12.19 37.66 24.37 37.70 36.56 37.65 Z" />
<path fill="#333333" opacity="1.00" d=" M 0.00 41.85 C 14.15 42.02 28.33 41.54 42.45 42.34 L 43.26 43.10 C 41.38 43.25 39.50 43.39 37.62 43.54 C 39.04 44.78 40.48 46.01 41.91 47.23 C 43.74 46.86 45.57 46.51 47.40 46.15 C 45.20 50.16 44.83 55.06 41.71 58.56 C 42.41 54.75 43.58 50.98 43.48 47.06 C 41.18 49.87 40.60 53.61 38.43 56.50 C 35.22 61.04 32.41 66.04 31.28 71.53 C 30.76 76.60 30.26 81.78 31.36 86.82 C 36.26 86.05 41.23 85.93 46.13 85.28 C 51.08 84.43 53.53 79.53 56.14 75.80 C 55.20 73.76 54.54 71.59 54.63 69.32 C 56.39 71.33 57.16 74.06 59.07 75.92 C 62.46 78.50 66.78 76.77 70.65 77.32 C 70.66 78.89 70.64 80.46 70.67 82.03 C 69.21 82.94 67.73 83.81 66.22 84.64 C 67.38 82.81 68.63 81.04 69.83 79.25 C 65.88 77.86 61.60 79.91 57.75 78.07 C 57.13 79.69 56.48 81.30 55.84 82.92 C 56.95 85.71 58.74 88.54 58.04 91.68 C 57.11 95.51 58.86 99.17 60.33 102.62 C 61.78 105.72 61.14 109.23 61.15 112.54 C 62.73 112.60 64.32 112.65 65.91 112.68 C 66.23 111.14 66.57 109.61 66.93 108.07 C 65.72 103.63 64.63 99.16 62.46 95.07 C 63.02 92.74 63.74 90.26 65.41 88.47 C 67.75 86.63 70.40 85.22 72.72 83.35 C 73.26 83.44 74.33 83.60 74.86 83.69 C 73.26 87.34 69.17 88.20 65.86 89.65 C 65.43 92.56 63.38 96.04 66.57 98.10 C 68.39 96.72 70.35 95.26 72.79 95.69 C 70.99 96.60 69.13 97.38 67.26 98.11 C 66.71 101.69 68.34 104.80 69.65 107.98 C 69.18 109.61 68.36 111.10 67.65 112.64 C 72.87 112.49 78.08 112.11 83.31 112.17 C 83.51 109.69 83.47 107.03 85.22 105.02 C 85.87 107.49 85.39 109.84 83.90 111.83 C 87.56 111.73 91.86 113.58 95.03 110.97 C 97.41 108.58 97.05 104.90 97.39 101.81 C 97.44 98.73 98.76 95.90 99.41 92.93 C 100.28 87.96 103.36 83.82 105.55 79.38 L 104.56 79.62 L 104.72 79.47 C 103.81 78.71 102.90 77.95 102.00 77.19 C 106.65 76.26 109.54 80.82 113.69 81.84 C 117.39 83.09 121.25 82.13 124.97 81.63 C 124.89 81.03 124.72 79.82 124.63 79.21 C 128.49 81.16 132.63 82.81 137.03 82.10 C 138.84 75.88 144.09 71.42 145.39 65.03 C 146.73 59.37 145.93 53.48 145.47 47.76 C 145.06 47.26 144.24 46.26 143.84 45.75 C 146.32 45.89 148.62 45.25 149.04 42.42 C 160.99 41.39 173.02 42.05 185.00 41.82 L 185.00 43.33 C 173.65 43.43 162.28 43.14 150.94 43.45 C 149.64 45.41 148.16 47.51 148.22 49.98 C 148.21 56.63 148.07 63.43 146.05 69.83 C 143.51 74.40 140.58 78.77 138.54 83.62 C 134.76 84.86 130.79 85.90 126.81 84.97 C 120.51 83.60 112.69 86.74 107.82 81.16 C 106.75 84.31 104.67 86.91 102.88 89.65 C 102.34 93.19 101.85 96.83 99.45 99.69 C 99.42 103.80 98.63 107.85 98.25 111.93 C 97.87 116.27 102.36 118.92 102.46 123.14 C 102.61 126.75 102.21 130.37 102.62 133.97 C 103.72 137.35 106.24 140.23 106.42 143.90 C 106.70 147.98 108.51 151.68 109.61 155.55 C 111.78 165.01 108.39 174.59 109.64 184.12 C 108.81 185.14 107.99 186.17 107.17 187.20 C 110.93 188.23 115.24 188.89 117.98 191.94 C 119.34 195.15 118.47 198.88 117.00 201.93 C 114.55 206.20 116.83 211.31 114.96 215.75 C 113.69 219.04 113.81 223.68 110.04 225.28 C 107.62 225.58 104.94 225.44 102.75 224.27 C 100.40 220.69 102.02 216.43 102.26 212.54 C 99.51 207.50 97.74 201.62 93.00 198.00 C 92.76 199.98 92.42 201.98 92.40 203.99 C 93.35 206.42 94.73 208.67 96.21 210.81 C 97.86 212.59 100.02 213.89 101.34 216.00 C 95.22 215.22 91.39 209.71 89.69 204.23 C 90.17 202.21 90.55 200.16 90.88 198.11 C 86.85 196.92 82.96 195.32 79.00 193.92 C 75.15 192.53 70.75 193.22 67.19 190.95 C 64.44 189.18 59.75 189.32 58.83 185.55 C 57.84 180.54 57.16 175.45 55.64 170.56 C 53.64 163.87 54.47 156.82 54.34 149.96 C 54.97 146.34 55.84 142.72 55.42 139.02 C 54.87 133.32 56.82 127.74 56.24 122.05 C 55.68 117.25 59.08 112.96 58.35 108.10 C 58.72 103.47 56.71 99.30 55.40 95.01 C 55.60 91.34 56.11 87.44 53.54 84.40 C 51.51 85.59 49.59 87.32 47.12 87.42 C 42.03 87.78 36.91 87.55 31.81 87.71 C 28.12 85.22 29.68 80.72 29.65 77.00 C 29.40 68.82 33.36 61.28 37.54 54.51 C 38.69 52.69 38.91 50.51 39.30 48.45 C 38.18 46.79 37.14 45.08 36.26 43.29 C 24.17 43.39 12.09 43.30 0.00 43.33 L 0.00 41.85 M 59.97 114.40 C 60.20 115.51 60.44 116.62 60.67 117.73 C 59.89 118.77 59.10 119.82 58.39 120.91 C 58.64 121.40 58.89 121.90 59.15 122.39 C 60.81 120.83 62.01 117.99 64.72 118.27 C 62.83 122.09 59.98 125.31 57.89 128.99 C 57.38 134.21 58.16 139.50 57.63 144.73 C 57.12 147.05 56.24 149.27 55.85 151.61 C 62.26 149.80 69.10 150.61 75.34 152.68 C 76.04 151.02 76.68 149.33 77.06 147.57 C 77.41 147.20 78.11 146.48 78.46 146.11 C 77.93 144.51 77.63 142.80 76.75 141.35 C 74.43 139.57 71.88 138.11 69.51 136.40 C 69.56 135.91 69.66 134.93 69.71 134.44 C 72.80 136.61 76.18 138.36 79.16 140.68 C 80.17 144.74 82.41 148.42 82.95 152.59 C 86.10 149.92 89.13 146.87 92.99 145.27 C 96.77 144.71 100.59 145.74 104.40 145.44 C 103.09 140.82 102.73 135.97 100.86 131.52 C 99.09 127.63 101.69 123.22 99.63 119.44 C 98.12 117.31 96.39 115.31 95.40 112.86 C 92.01 115.07 87.81 114.18 84.00 114.38 C 75.99 113.84 67.97 115.15 59.97 114.40 M 90.54 149.29 C 87.55 150.72 84.52 153.27 85.67 157.00 C 85.95 157.52 86.52 158.55 86.80 159.06 C 90.82 162.88 92.03 168.35 92.57 173.65 C 94.15 168.41 93.82 162.66 96.27 157.66 C 96.90 161.48 96.49 165.36 95.67 169.12 C 95.10 171.62 95.14 174.69 92.88 176.38 C 93.61 179.05 96.68 180.93 96.30 183.76 C 92.19 183.07 90.53 178.79 89.88 175.17 C 88.93 167.42 85.89 160.12 82.27 153.27 C 80.84 152.35 79.87 150.92 78.71 149.73 C 78.35 152.42 78.38 155.14 78.10 157.84 C 77.37 161.45 75.21 164.56 74.44 168.16 C 74.05 170.50 73.88 172.86 73.62 175.22 C 79.20 176.91 84.92 178.32 90.14 180.99 C 92.62 183.15 95.16 185.37 98.24 186.65 C 100.55 187.01 102.90 186.99 105.23 187.17 C 106.24 184.92 107.77 182.53 106.82 179.98 C 105.71 174.90 108.37 170.02 108.62 165.00 C 108.97 161.18 106.79 157.80 106.50 154.05 C 105.83 150.85 104.80 146.65 101.15 145.73 C 97.32 145.69 93.58 146.96 90.54 149.29 M 57.29 153.23 C 56.44 158.80 55.91 164.71 58.12 170.06 C 59.38 172.97 58.68 176.59 60.99 179.05 C 62.76 180.40 65.09 180.65 67.24 180.93 C 65.52 183.89 62.29 182.32 59.99 181.08 C 59.90 182.60 59.30 184.31 60.35 185.64 C 63.46 188.36 68.01 187.86 71.32 190.17 C 71.55 190.08 72.02 189.89 72.25 189.79 C 76.61 190.63 80.64 192.61 84.95 193.65 C 89.40 194.80 93.93 195.80 98.06 197.86 C 98.78 197.27 99.49 196.69 100.21 196.10 C 99.50 203.90 106.19 210.39 104.30 218.23 C 104.15 219.85 103.98 222.30 105.96 222.83 C 108.11 223.09 109.72 221.34 111.33 220.22 C 116.02 213.55 110.23 203.93 116.73 197.95 C 116.74 196.66 116.74 195.37 116.74 194.09 C 114.90 192.64 113.42 190.35 110.89 190.10 C 106.27 188.87 101.34 189.78 96.80 188.18 C 92.37 186.74 89.23 183.03 85.13 181.01 C 80.76 179.62 76.19 178.60 71.58 178.79 C 71.30 176.13 72.49 173.62 72.43 170.96 C 72.48 167.04 74.10 163.46 75.73 159.98 C 77.70 155.88 72.92 151.88 68.99 152.68 C 65.11 153.20 61.20 153.36 57.29 153.23 Z" />
<path fill="#333333" opacity="1.00" d=" M 142.90 55.73 C 140.31 53.45 142.27 49.37 143.62 46.83 C 143.96 49.82 143.61 52.83 142.90 55.73 Z" />
<path fill="#333333" opacity="1.00" d=" M 56.25 66.41 C 58.27 63.33 61.10 60.60 64.93 60.17 C 64.92 60.41 64.92 60.88 64.91 61.12 C 61.78 62.54 59.96 65.99 56.25 66.41 Z" />
<path fill="#333333" opacity="1.00" d=" M 99.11 64.84 C 102.49 65.69 105.58 64.33 108.73 63.35 C 108.40 66.02 105.52 66.50 103.31 66.61 C 102.70 67.36 102.13 68.14 101.59 68.94 C 101.67 70.86 103.49 71.05 104.96 71.46 C 104.88 71.89 104.72 72.75 104.64 73.19 C 106.83 72.51 109.24 71.32 111.32 73.00 C 108.95 73.97 106.47 74.64 103.96 75.18 C 103.85 74.80 103.63 74.04 103.52 73.65 C 102.31 72.72 101.13 71.75 99.98 70.75 C 98.12 73.50 95.34 75.31 92.62 77.10 C 88.31 78.22 83.89 77.71 79.52 77.41 C 78.92 75.92 80.71 76.36 81.54 76.55 C 84.44 77.20 87.43 76.41 90.35 76.97 C 92.93 73.95 95.95 71.37 99.33 69.28 C 100.01 68.61 100.71 67.95 101.42 67.31 C 100.26 66.82 99.18 66.21 99.11 64.84 Z" />
<path fill="#333333" opacity="1.00" d=" M 73.13 72.02 C 73.15 69.57 72.94 65.61 76.24 65.35 C 75.83 68.19 74.95 70.99 75.05 73.89 C 75.81 74.80 76.70 75.60 77.55 76.43 C 77.32 76.88 76.86 77.78 76.63 78.24 C 74.95 76.51 72.84 74.70 73.13 72.02 Z" />
<path fill="#333333" opacity="1.00" d=" M 105.65 67.18 C 111.12 67.54 114.81 72.36 118.69 75.65 C 113.28 74.72 109.76 70.35 105.65 67.18 Z" />
<path fill="#333333" opacity="1.00" d=" M 121.49 74.90 C 124.53 74.79 127.25 73.45 129.91 72.10 C 130.64 76.93 124.41 76.50 121.22 76.63 C 121.29 76.19 121.42 75.33 121.49 74.90 Z" />
<path fill="#333333" opacity="1.00" d=" M 130.87 75.17 C 133.50 74.79 134.80 77.12 136.03 78.96 C 133.69 78.75 132.02 77.10 130.87 75.17 Z" />
<path fill="#333333" opacity="1.00" d=" M 75.08 79.20 C 80.14 76.90 81.37 84.15 86.08 84.04 C 86.73 88.71 89.58 92.99 88.23 97.85 C 85.82 100.10 85.30 103.42 84.24 106.38 C 84.74 103.27 85.29 100.12 86.51 97.20 C 86.20 95.60 85.87 94.00 85.61 92.39 C 84.28 91.49 82.84 90.48 81.12 90.82 C 80.11 90.13 79.12 89.42 78.13 88.71 C 76.61 88.54 75.09 88.35 73.58 88.13 C 76.63 87.60 79.91 87.34 82.73 88.89 C 84.32 89.40 85.18 85.90 83.49 85.70 C 80.13 84.27 78.04 81.20 75.08 79.20 Z" />
<path fill="#333333" opacity="1.00" d=" M 91.93 82.93 C 90.54 81.93 90.32 80.77 91.63 79.60 C 92.95 81.69 97.36 83.73 95.28 86.49 C 93.13 87.37 92.04 84.67 90.59 83.63 L 91.93 82.93 Z" />
<path fill="#333333" opacity="1.00" d=" M 58.92 85.53 C 59.91 84.15 61.15 82.98 62.56 82.04 C 61.85 83.81 61.63 86.85 58.92 85.53 Z" />
<path fill="#333333" opacity="1.00" d=" M 92.56 88.33 C 94.48 88.04 96.42 87.81 98.35 87.61 C 97.60 90.70 94.44 89.71 92.56 88.33 Z" />
<path fill="#333333" opacity="1.00" d=" M 91.20 89.22 C 94.66 88.66 91.28 93.34 90.35 90.26 C 90.56 90.00 90.99 89.48 91.20 89.22 Z" />
<path fill="#333333" opacity="1.00" d=" M 74.44 97.96 C 73.90 95.19 71.57 92.87 71.82 89.93 C 72.00 90.66 72.37 92.12 72.55 92.85 C 74.03 94.10 75.54 95.33 77.04 96.57 C 79.17 96.47 81.30 96.47 83.43 96.59 C 83.45 97.07 83.49 98.04 83.51 98.53 C 81.30 97.95 79.04 97.71 76.78 98.07 C 76.64 99.89 76.54 101.72 76.44 103.54 C 75.99 103.50 75.08 103.40 74.62 103.36 C 74.56 101.56 74.57 99.75 74.44 97.96 Z" />
<path fill="#333333" opacity="1.00" d=" M 89.80 97.36 C 90.99 95.81 92.31 94.36 93.69 92.98 C 94.35 95.66 92.10 96.97 89.80 97.36 Z" />
<path fill="#333333" opacity="1.00" d=" M 87.93 117.28 C 88.63 116.72 89.34 116.16 90.05 115.61 C 92.13 118.64 94.15 121.76 97.01 124.13 L 97.81 125.91 C 92.76 125.36 90.78 120.69 87.93 117.28 Z" />
<path fill="#333333" opacity="1.00" d=" M 80.71 125.29 C 81.77 121.83 87.47 123.89 85.61 127.37 C 83.33 127.86 81.02 128.63 78.68 128.05 C 75.81 129.44 72.64 129.54 69.51 129.46 C 69.59 129.03 69.74 128.17 69.82 127.74 C 73.69 128.06 77.06 126.15 80.71 125.29 Z" />
<path fill="#333333" opacity="1.00" d=" M 64.02 163.91 C 64.45 164.09 65.29 164.45 65.72 164.63 C 67.94 168.80 70.75 173.53 68.79 178.36 C 68.24 178.10 67.13 177.58 66.57 177.32 C 66.49 175.27 66.56 173.21 66.36 171.16 C 65.46 168.78 64.21 166.51 64.02 163.91 Z" />
<path fill="#333333" opacity="1.00" d=" M 103.52 173.99 C 106.02 177.38 102.07 180.44 99.22 181.79 C 100.66 179.19 102.04 176.56 103.52 173.99 Z" />
<path fill="#333333" opacity="1.00" d=" M 109.15 194.49 C 110.27 195.51 111.29 196.65 112.16 197.90 C 109.70 198.31 109.08 196.62 109.15 194.49 Z" />
</g>
</svg>
