<?xml version="1.0" encoding="UTF-8" ?>
<!DOCTYPE svg PUBLIC "-//W3C//DTD SVG 1.1//EN" "http://www.w3.org/Graphics/SVG/1.1/DTD/svg11.dtd">
<svg width="235pt" height="225pt" viewBox="0 0 235 225" version="1.1" xmlns="http://www.w3.org/2000/svg"><g id="#474a47ff">
<path fill="#333333" opacity="1.00" d=" M 109.91 26.95 C 113.37 25.14 117.38 25.14 121.15 24.52 C 123.10 23.92 126.03 25.51 125.32 27.85 C 123.64 28.10 122.05 27.36 120.44 27.04 C 119.17 29.08 118.22 32.94 115.05 32.03 C 115.57 31.20 116.14 30.40 116.75 29.63 C 117.12 28.75 117.46 27.87 117.78 26.98 C 114.39 28.26 109.86 28.39 107.98 31.99 C 106.83 33.97 105.01 35.51 104.01 37.57 C 103.10 40.99 102.50 44.61 100.39 47.56 C 97.68 51.47 94.33 54.91 92.00 59.09 C 92.31 64.11 97.13 66.88 101.46 68.14 C 101.69 62.46 105.81 58.29 109.60 54.56 C 115.36 49.39 113.90 39.95 120.00 35.05 C 123.12 32.50 124.29 27.40 128.94 27.07 C 134.77 29.56 136.80 36.30 136.72 42.11 C 135.86 46.45 133.11 50.05 131.51 54.11 C 130.51 58.97 134.00 64.50 131.10 69.04 C 129.61 64.16 129.03 59.01 128.90 53.93 C 130.09 50.16 132.62 46.95 133.78 43.17 C 133.90 38.02 133.23 32.38 129.02 28.85 C 126.45 30.00 124.71 32.18 123.90 34.85 C 117.49 38.06 118.73 46.08 115.55 51.47 C 112.11 56.23 106.04 59.13 104.38 65.11 C 103.22 69.77 108.11 72.36 111.45 74.34 C 121.86 77.78 127.09 88.34 131.35 97.62 C 134.65 104.86 143.60 106.90 147.29 113.80 C 146.38 113.28 144.55 112.26 143.63 111.74 C 142.83 114.39 141.86 116.98 140.71 119.50 C 142.24 118.98 143.79 118.50 145.36 118.11 C 144.09 120.84 141.13 121.93 138.98 123.80 C 135.89 126.44 133.10 129.60 131.59 133.43 C 130.51 135.68 130.09 138.87 126.81 138.87 C 129.20 133.44 131.67 127.89 135.76 123.48 C 139.16 119.77 139.95 114.58 142.94 110.61 C 139.66 108.37 135.70 106.99 133.09 103.88 C 128.93 98.68 126.81 92.26 123.39 86.63 C 120.44 82.56 116.81 78.72 111.98 76.98 C 108.25 74.98 103.35 73.21 102.29 68.61 C 96.40 70.99 89.30 64.13 90.71 58.05 C 91.49 53.19 96.20 50.55 98.37 46.41 C 101.10 42.35 100.99 37.01 104.13 33.19 C 105.94 31.03 107.29 28.27 109.91 26.95 Z" />
<path fill="#333333" opacity="1.00" d=" M 108.52 33.68 C 109.38 32.14 110.34 30.58 111.86 29.60 C 112.71 29.92 114.42 30.56 115.27 30.87 C 113.03 31.84 110.79 32.79 108.52 33.68 Z" />
<path fill="#333333" opacity="1.00" d=" M 110.58 39.44 C 109.04 36.91 110.95 34.58 113.20 33.42 C 112.55 35.52 111.65 37.53 110.58 39.44 Z" />
<path fill="#333333" opacity="1.00" d=" M 126.21 34.64 C 128.07 32.92 129.83 34.57 130.75 36.32 C 129.04 36.48 126.86 36.66 126.21 34.64 Z" />
<path fill="#333333" opacity="1.00" d=" M 129.51 43.73 C 129.44 41.11 129.08 37.77 131.96 36.44 C 131.79 37.70 131.61 38.97 131.40 40.23 C 131.87 42.08 131.91 43.79 129.51 43.73 Z" />
<path fill="#333333" opacity="1.00" d=" M 109.65 68.84 C 111.12 66.08 113.99 64.71 116.72 63.52 C 115.89 66.86 112.50 67.87 109.65 68.84 Z" />
<path fill="#333333" opacity="1.00" d=" M 131.59 70.44 C 131.99 69.68 132.40 68.93 132.82 68.18 C 133.73 69.78 134.36 71.72 135.97 72.79 C 141.11 76.30 145.27 81.07 148.99 86.02 C 150.42 87.89 152.63 88.87 154.40 90.35 C 156.76 92.14 157.62 95.23 159.99 97.02 C 164.02 99.96 166.89 104.38 168.19 109.16 C 168.18 113.70 165.61 117.68 164.56 121.99 C 163.28 127.45 163.10 133.24 160.47 138.30 C 158.82 142.72 156.58 146.94 153.19 150.29 C 154.28 144.66 158.18 140.19 159.78 134.75 C 162.00 129.05 161.10 122.65 163.75 117.06 C 165.80 112.47 167.00 106.19 162.57 102.56 C 159.37 99.66 156.54 96.48 154.02 93.00 C 146.55 88.60 142.58 80.44 135.77 75.26 C 134.07 73.94 132.86 72.14 131.59 70.44 Z" />
<path fill="#333333" opacity="1.00" d=" M 103.52 74.72 C 107.69 75.48 110.47 79.00 112.85 82.21 C 116.61 87.54 115.52 95.73 121.51 99.50 C 125.19 101.64 129.00 103.76 131.51 107.33 C 130.79 107.13 129.35 106.72 128.63 106.51 C 127.33 110.22 125.14 113.65 121.96 116.00 C 117.09 119.47 114.09 124.78 110.93 129.71 C 110.74 129.74 110.37 129.80 110.18 129.83 C 109.48 128.50 110.34 127.13 110.94 125.95 C 112.78 122.84 115.05 120.03 117.19 117.13 C 118.97 114.60 121.97 113.34 123.86 110.91 C 125.13 109.07 125.80 106.92 126.58 104.85 C 123.61 103.03 120.37 101.58 117.78 99.22 C 113.17 94.26 112.93 87.03 109.33 81.49 C 107.50 79.15 105.27 77.14 103.52 74.72 Z" />
<path fill="#333333" opacity="1.00" d=" M 138.01 84.97 C 143.55 88.79 147.57 94.35 150.96 100.07 C 151.86 101.53 152.09 103.25 152.30 104.92 C 147.81 100.48 145.73 94.15 140.95 89.98 C 139.44 88.67 138.78 86.74 138.01 84.97 Z" />
<path fill="#333333" opacity="1.00" d=" M 148.03 91.68 C 150.82 92.98 152.44 95.67 153.23 98.56 C 150.80 96.87 149.31 94.27 148.03 91.68 Z" />
<path fill="#333333" opacity="1.00" d=" M 154.21 100.11 C 158.93 100.97 160.69 106.08 161.88 110.09 C 158.31 107.67 155.98 103.95 154.21 100.11 Z" />
<path fill="#333333" opacity="1.00" d=" M 145.62 105.11 C 148.07 106.13 150.31 107.59 152.66 108.82 C 152.59 109.22 152.46 110.03 152.39 110.43 C 156.27 115.31 150.62 121.15 146.31 123.36 C 147.81 119.26 151.52 115.69 150.89 110.97 C 149.19 108.96 146.96 107.41 145.62 105.11 Z" />
<path fill="#333333" opacity="1.00" d=" M 133.45 108.40 C 134.00 108.41 135.08 108.42 135.62 108.43 C 135.92 109.77 136.44 111.10 136.37 112.50 C 135.19 115.21 133.02 117.32 131.32 119.71 C 131.28 116.89 132.25 114.29 133.85 112.00 C 133.71 110.80 133.58 109.60 133.45 108.40 Z" />
<path fill="#333333" opacity="1.00" d=" M 148.12 129.26 C 150.83 124.68 154.21 120.48 157.98 116.75 C 157.76 119.91 155.33 122.09 153.39 124.33 C 151.81 126.15 150.21 128.00 148.12 129.26 Z" />
<path fill="#333333" opacity="1.00" d=" M 204.58 124.58 C 206.94 122.09 210.68 120.99 214.01 121.89 C 220.57 123.43 227.95 124.81 232.29 130.52 C 233.35 133.27 233.99 136.17 234.99 138.95 C 234.95 142.93 233.47 146.73 232.25 150.47 C 231.48 152.91 229.08 154.08 226.92 155.05 C 226.64 159.56 227.89 164.36 225.61 168.55 C 224.33 171.91 220.63 173.05 217.80 174.75 C 211.73 180.22 203.79 183.09 195.96 184.97 C 191.24 186.14 186.07 184.45 181.62 186.70 C 179.49 187.71 177.14 187.99 174.84 188.30 C 171.58 188.56 169.27 191.33 166.13 191.99 C 161.49 192.98 156.87 194.54 152.07 194.25 C 147.42 193.93 142.85 194.85 138.27 195.42 C 138.26 196.13 138.24 197.54 138.23 198.25 C 134.91 201.48 130.92 204.35 126.15 204.77 C 120.53 205.30 115.68 208.97 109.94 208.76 C 104.96 208.84 99.18 208.18 95.91 203.96 C 96.47 201.87 97.19 199.34 99.35 198.37 C 103.64 196.51 107.57 193.93 111.34 191.19 C 109.34 189.81 107.26 188.53 105.43 186.92 L 105.88 185.73 C 108.74 185.62 110.92 188.52 113.54 189.59 C 117.13 187.95 120.92 186.87 124.70 185.76 C 128.27 184.73 130.56 181.39 134.10 180.29 C 138.61 178.75 143.45 178.04 147.64 175.66 C 150.51 174.03 153.51 172.65 156.52 171.30 C 156.38 168.59 155.98 165.88 156.14 163.18 C 156.43 162.99 156.99 162.63 157.28 162.44 C 158.22 165.26 158.04 168.26 158.42 171.17 C 162.25 166.27 155.98 161.82 154.90 157.33 C 158.49 160.20 162.67 164.27 161.37 169.35 C 165.43 168.09 169.71 168.44 173.88 168.00 C 181.31 162.94 189.86 159.47 198.73 158.01 C 199.94 156.63 200.91 155.07 202.15 153.71 C 200.29 152.24 198.35 150.84 196.72 149.11 C 199.01 149.82 201.15 150.90 203.13 152.24 C 205.00 149.57 209.33 149.11 210.27 146.00 C 210.16 143.87 208.31 142.45 206.68 141.35 C 202.80 139.29 198.99 136.92 194.67 135.88 C 194.57 135.58 194.38 134.99 194.28 134.69 C 195.53 134.72 196.78 134.76 198.04 134.80 C 199.27 133.78 200.63 132.89 201.70 131.68 C 202.87 129.41 202.76 126.53 204.58 124.58 M 205.43 127.21 C 204.85 130.61 203.77 133.91 200.84 136.00 C 203.35 137.21 205.98 138.18 208.39 139.59 C 212.37 142.39 215.60 146.54 220.53 147.75 C 223.33 148.51 225.09 150.97 227.10 152.87 C 230.96 150.69 231.26 145.95 231.47 142.01 C 231.50 138.46 232.10 134.48 229.69 131.50 C 226.18 126.34 219.32 126.54 213.91 125.06 C 211.05 124.27 206.67 123.69 205.43 127.21 M 212.13 147.21 C 211.61 149.89 209.11 150.67 207.02 151.86 C 204.20 154.34 202.87 158.34 199.48 160.21 C 194.46 161.47 189.12 162.07 184.60 164.80 C 182.11 166.32 179.56 167.77 176.87 168.93 C 178.00 169.22 180.26 169.81 181.38 170.11 C 175.57 171.83 169.29 169.01 163.49 171.36 C 153.85 175.24 144.23 179.26 134.31 182.37 C 129.01 187.43 121.73 188.75 115.02 190.97 C 113.60 191.23 113.21 192.82 112.37 193.77 C 107.44 196.57 102.42 199.24 98.13 203.00 C 98.85 203.36 99.51 203.81 100.15 204.32 C 101.88 204.58 103.41 205.42 105.05 205.98 C 109.26 207.02 113.56 205.67 117.49 204.18 C 122.62 202.23 128.73 202.77 133.17 199.16 C 136.05 196.32 137.83 192.38 141.49 190.34 C 144.59 188.79 147.94 186.54 151.54 187.79 C 148.34 189.24 145.25 190.90 142.24 192.71 C 148.50 191.54 155.01 192.58 161.14 190.62 C 166.90 189.69 171.61 186.05 177.17 184.49 C 177.28 184.78 177.49 185.36 177.60 185.64 C 180.30 184.70 183.06 183.66 185.97 183.69 C 194.57 183.83 202.91 181.12 210.72 177.75 C 214.06 176.60 215.25 172.61 218.70 171.67 C 225.78 169.31 226.66 160.04 223.97 154.08 C 221.44 150.12 216.75 147.72 212.13 147.21 Z" />
<path fill="#333333" opacity="1.00" d=" M 169.47 134.35 C 172.08 130.17 177.28 128.22 182.04 128.98 C 185.69 129.61 189.20 130.87 192.56 132.41 C 192.52 133.41 192.48 134.41 192.44 135.41 C 189.79 136.47 187.37 137.99 184.72 139.04 C 185.74 136.38 188.49 135.33 190.79 134.06 C 186.35 132.49 181.77 130.46 176.95 131.15 C 174.28 131.74 172.00 133.40 169.47 134.35 Z" />
<path fill="#333333" opacity="1.00" d=" M 103.68 131.83 C 106.02 129.68 109.34 130.69 111.91 131.79 C 115.52 133.50 118.84 135.76 121.85 138.37 C 126.24 138.22 130.04 140.71 134.19 141.71 C 141.02 143.39 146.73 147.66 152.78 151.02 C 153.89 151.78 155.28 152.53 155.16 154.11 C 154.94 154.27 154.51 154.60 154.30 154.77 C 151.19 153.78 148.16 152.42 145.60 150.36 C 139.17 145.26 130.80 144.04 123.75 140.08 C 123.96 142.93 123.85 145.78 123.70 148.62 C 121.36 150.14 119.76 152.43 117.98 154.53 C 117.17 152.57 117.54 150.34 119.20 148.94 C 121.73 146.78 121.21 143.21 121.59 140.24 C 118.74 139.48 116.15 138.07 113.86 136.22 C 110.93 133.83 107.18 133.01 103.68 131.83 Z" />
<path fill="#333333" opacity="1.00" d=" M 163.65 133.11 C 164.32 131.85 166.74 133.35 165.51 134.40 C 165.07 134.28 164.18 134.03 163.74 133.90 L 163.65 133.11 Z" />
<path fill="#333333" opacity="1.00" d=" M 106.08 133.49 C 107.52 135.04 107.49 137.13 107.55 139.12 C 105.64 140.58 103.67 142.32 103.37 144.86 C 102.05 151.05 99.24 156.79 97.73 162.91 C 98.60 167.43 100.43 171.95 103.97 175.03 C 109.07 179.40 115.55 181.78 120.59 186.24 C 118.44 186.20 116.10 186.79 114.08 185.74 C 108.89 183.25 104.44 179.47 100.20 175.62 C 96.90 178.90 92.11 179.43 87.88 180.77 C 85.85 181.53 83.73 181.09 81.72 180.57 C 77.92 181.80 73.83 183.31 69.82 182.06 C 67.84 181.66 66.85 179.71 65.57 178.36 C 70.57 174.36 75.27 169.81 81.15 167.10 C 84.81 165.06 89.15 164.77 92.74 162.60 C 93.33 162.57 94.52 162.52 95.11 162.49 C 97.67 155.48 99.07 148.01 102.40 141.30 C 104.41 139.06 106.28 136.71 106.08 133.49 M 81.49 169.19 C 75.97 170.76 72.45 175.60 67.73 178.57 C 72.17 181.54 77.78 179.75 82.09 177.41 C 82.56 178.00 83.50 179.16 83.97 179.75 C 86.94 178.87 89.81 177.65 92.91 177.27 C 95.36 176.92 96.81 174.71 98.53 173.18 C 97.53 170.30 96.64 167.39 95.75 164.47 C 91.19 166.62 86.13 167.25 81.49 169.19 Z" />
<path fill="#333333" opacity="1.00" d=" M 163.67 138.56 C 165.60 137.14 167.18 135.36 167.69 132.96 C 168.32 134.14 168.91 135.33 169.46 136.55 C 170.09 136.23 171.35 135.58 171.98 135.26 C 173.03 136.28 174.10 137.27 175.21 138.22 C 174.42 137.13 173.61 136.06 172.76 135.02 C 175.12 135.43 177.96 135.19 179.66 137.21 C 181.59 139.33 184.95 140.73 185.02 144.02 C 185.25 145.92 186.28 148.54 183.84 149.45 C 182.48 147.19 182.01 144.58 181.29 142.09 C 179.31 138.94 175.24 139.21 172.05 138.51 C 169.29 137.82 166.45 138.31 163.67 138.56 Z" />
<path fill="#333333" opacity="1.00" d=" M 161.27 139.80 C 161.35 139.39 161.53 138.57 161.62 138.16 C 165.04 139.22 168.13 141.02 171.26 142.69 C 171.47 144.82 171.78 146.97 171.58 149.12 C 169.64 147.15 168.12 144.85 166.45 142.68 C 164.83 141.53 163.00 140.73 161.27 139.80 Z" />
<path fill="#333333" opacity="1.00" d=" M 185.72 139.77 C 188.93 140.59 192.28 141.95 194.07 144.92 C 195.72 146.89 195.29 149.57 195.43 151.94 C 194.84 151.72 193.67 151.27 193.08 151.04 C 192.56 146.19 189.11 142.87 185.72 139.77 Z" />
<path fill="#333333" opacity="1.00" d=" M 176.46 140.21 C 177.34 141.68 178.18 143.18 179.03 144.68 C 178.29 144.66 176.82 144.61 176.09 144.59 C 176.20 143.13 176.32 141.67 176.46 140.21 Z" />
<path fill="#333333" opacity="1.00" d=" M 194.98 142.45 C 197.20 142.75 200.19 143.02 200.01 145.99 C 198.23 144.97 196.56 143.76 194.98 142.45 Z" />
<path fill="#333333" opacity="1.00" d=" M 176.93 148.15 C 180.74 149.31 183.96 151.71 187.25 153.85 C 187.64 155.77 188.04 157.68 188.29 159.63 C 186.90 158.72 185.64 157.63 184.80 156.18 C 182.76 152.98 179.51 150.87 176.93 148.15 Z" />
<path fill="#333333" opacity="1.00" d=" M 168.01 153.31 C 169.40 152.73 170.72 151.98 172.07 151.29 C 171.43 152.26 170.79 153.23 170.14 154.20 C 170.47 154.76 171.14 155.89 171.48 156.45 C 168.66 156.47 165.95 155.67 163.32 154.73 C 162.66 155.08 161.99 155.44 161.33 155.81 C 162.29 156.41 164.21 157.60 165.17 158.20 C 161.83 158.61 158.60 157.60 155.51 156.49 C 155.68 156.16 156.03 155.49 156.20 155.16 C 158.02 154.61 160.09 155.23 161.75 154.12 C 163.62 152.85 165.91 153.55 168.01 153.31 Z" />
<path fill="#333333" opacity="1.00" d=" M 176.41 154.31 C 178.56 155.08 180.65 156.02 182.67 157.09 C 182.25 158.51 183.24 161.07 181.09 161.26 C 179.95 159.22 178.81 157.17 176.91 155.74 C 176.78 155.38 176.53 154.67 176.41 154.31 Z" />
<path fill="#333333" opacity="1.00" d=" M 152.73 157.09 C 153.19 156.89 154.12 156.49 154.58 156.29 C 154.60 157.84 154.65 159.38 154.71 160.93 C 154.59 161.06 154.34 161.33 154.22 161.47 C 153.34 164.64 153.31 168.68 150.11 170.54 C 150.53 168.24 151.25 166.02 151.96 163.80 C 149.96 165.21 148.05 166.94 145.57 167.46 C 148.02 164.00 152.97 162.00 152.73 157.09 Z" />
<path fill="#333333" opacity="1.00" d=" M 202.31 167.07 C 206.04 165.83 210.18 166.23 213.79 167.68 C 213.62 168.06 213.29 168.83 213.13 169.21 C 209.44 169.03 205.82 168.18 202.31 167.07 Z" />
<path fill="#333333" opacity="1.00" d=" M 201.66 174.68 C 204.45 172.69 206.46 168.82 210.48 169.72 C 207.71 171.92 205.85 174.99 203.16 177.26 C 200.10 178.57 196.61 178.33 193.52 177.22 C 196.22 176.36 199.46 176.73 201.66 174.68 Z" />
<path fill="#333333" opacity="1.00" d=" M 180.37 180.29 C 183.80 175.21 189.67 172.95 195.50 172.07 C 195.40 172.55 195.19 173.50 195.09 173.98 C 189.68 174.89 185.22 178.02 180.37 180.29 Z" />
<path fill="#333333" opacity="1.00" d=" M 162.59 179.13 C 167.14 176.68 172.36 177.93 176.88 179.74 C 176.03 180.22 175.20 181.25 174.11 180.77 C 170.33 179.85 166.51 178.99 162.59 179.13 Z" />
</g>
</svg>
